<?xml version="1.0" encoding="utf-8"?>
<!-- Generator: Adobe Illustrator 23.1.0, SVG Export Plug-In . SVG Version: 6.00 Build 0)  -->
<svg version="1.1" id="Layer_1" xmlns="http://www.w3.org/2000/svg" xmlns:xlink="http://www.w3.org/1999/xlink" x="0px" y="0px"
	 viewBox="0 0 107.6 114" style="enable-background:new 0 0 107.6 114;" xml:space="preserve">
<style type="text/css">
	.st0{fill:#0191FE;stroke:#FFFFFF;stroke-width:3;stroke-miterlimit:10;}
</style>
<g id="_x33_qtYZg.tif">
	<g>
		<path class="st0" d="M96.6,81.3c-5,6.1-11.8,8.3-19.4,8.5c-3.7,0.1-7.3-0.1-11-0.2c-6.8-11.1-13.6-22.2-20.3-33.4
			c-5.3-9-12.8-13.9-23.4-13.6c0.9-9.5,6.2-16,14.7-19.5c8.8-3.6,17.3-2.5,24.7,3.8c2.2,1.9,4,4.2,6,6.4
			C76.7,49.8,87.1,65.3,96.6,81.3z"/>
		<path class="st0" d="M22.5,42.6c10.6-0.3,18.1,4.7,23.4,13.6c6.6,11.2,13.5,22.3,20.3,33.4c-13.9,0-27.8,0.1-41.7,0.1
			C13,89.8,3,81.5,1.3,71c-2-12.7,3.9-23,15.5-27C18.6,43.3,20.6,43.1,22.5,42.6z"/>
		<path class="st0" d="M96.6,81.3c-9.4-16.1-19.9-31.5-28.7-48c13.7-3.5,25.9,0.9,33,11.7c6.9,10.6,6.3,24.1-1.7,34
			C98.5,80,97.5,80.6,96.6,81.3z"/>
	</g>
</g>
</svg>
