<?xml version="1.0" encoding="utf-8"?>
<!-- Generator: Adobe Illustrator 23.1.0, SVG Export Plug-In . SVG Version: 6.00 Build 0)  -->
<svg version="1.1" id="Layer_1" xmlns="http://www.w3.org/2000/svg" xmlns:xlink="http://www.w3.org/1999/xlink" x="0px" y="0px"
	 viewBox="0 0 107.6 114" style="enable-background:new 0 0 107.6 114;" xml:space="preserve">
<style type="text/css">
	.st0{fill:#3E464C;}
	.st1{fill:#32373B;}
	.st2{fill:#FFFFFF;}
	.st3{fill:#F86E51;}
</style>
<g>
	<g>
		<rect x="23.6" y="36.1" class="st0" width="60.6" height="53"/>
	</g>
	<g>
		<path class="st1" d="M87.8,39.2H20c-2.9,0-5.2-2.3-5.2-5.2V21c0-2.9,2.3-5.2,5.2-5.2h67.7c2.9,0,5.2,2.3,5.2,5.2V34
			C92.9,36.9,90.6,39.2,87.8,39.2z"/>
	</g>
	<g>
		<path class="st1" d="M87.8,69.4H20c-2.9,0-5.2-2.3-5.2-5.2V51.1c0-2.9,2.3-5.2,5.2-5.2h67.7c2.9,0,5.2,2.3,5.2,5.2v13.1
			C92.9,67.1,90.6,69.4,87.8,69.4z"/>
	</g>
	<g>
		<path class="st1" d="M87.8,100H20c-2.9,0-5.2-2.3-5.2-5.2V81.8c0-2.9,2.3-5.2,5.2-5.2h67.7c2.9,0,5.2,2.3,5.2,5.2v13.1
			C92.9,97.7,90.6,100,87.8,100z"/>
	</g>
	<g>
		<circle class="st2" cx="26.6" cy="27.5" r="3"/>
	</g>
	<g>
		<circle class="st3" cx="35.8" cy="27.5" r="3"/>
	</g>
	<g>
		<circle class="st2" cx="26.6" cy="88.3" r="3"/>
	</g>
	<g>
		<circle class="st3" cx="35.8" cy="88.3" r="3"/>
	</g>
	<g>
		<circle class="st2" cx="26.6" cy="57.7" r="3"/>
	</g>
	<g>
		<circle class="st3" cx="35.8" cy="57.7" r="3"/>
	</g>
</g>
</svg>
