<?xml version="1.0" encoding="utf-8"?>
<!-- Generator: Adobe Illustrator 24.1.0, SVG Export Plug-In . SVG Version: 6.00 Build 0)  -->
<svg version="1.1" id="Layer_1" xmlns="http://www.w3.org/2000/svg" xmlns:xlink="http://www.w3.org/1999/xlink" x="0px" y="0px"
	 viewBox="0 0 200 108.9" style="enable-background:new 0 0 200 108.9;" xml:space="preserve">
<style type="text/css">
	.st0{fill:#01AEDB;}
	.st1{fill:#00ADDB;}
</style>
<g id="KIej5O.tif">
	<g>
		<path class="st0" d="M13.5,48.9c0.6-0.7,1.1-1.4,1.7-2.1c0.4-0.5,0.8-0.7,1.3-0.7c6.6,0,13.3,0,20,0c6.1,0,12,0,18,0
			c0.2,0,0.3,0,0.5,0c0.3,0,0.5,0.3,0.4,0.5c-0.3,0.7-0.5,1.4-0.7,2.1c-0.2,0.4-0.5,0.5-0.8,0.5c-0.8,0-1.6,0-2.4,0
			c-8.3,0-16.6,0-24.9,0c-4,0-8.1,0-12.1,0c-0.2,0-0.4,0-0.6-0.1C13.5,49.1,13.5,49,13.5,48.9z"/>
		<path class="st1" d="M105.1,61.5c-0.2,0-0.3,0-0.5,0c-5.1,0-10.3,0-15.4,0c-0.5,0-0.8,0-1.2-0.2c-0.7-0.2-1-0.8-1-1.3
			c0-0.4,0.1-0.6,0.3-0.9c1.3-3.1,2.7-6.3,4.4-9.3c0.4-0.6,0.8-1,1.5-1.2c0.3-0.1,0.6-0.1,0.9-0.1c8.8,0,17.7,0,26.5,0
			c0.2,0,0.4,0,0.5-0.3c1.3-4,3.3-7.6,5.9-10.9c2.5-3.1,5.2-6,8.6-8.1c3-2,6.3-3.5,9.7-4.5c4.3-1.2,8.7-1.9,13.3-1.8
			c7.1,0.2,13.3,2.6,18.7,7.1c4,3.3,6.6,7.4,8.1,12.3c0.7,2.3,1,4.6,1.1,7c0.2,2.8,0.1,5.7-0.5,8.5c-0.9,4.7-2.8,9-5.6,12.9
			c-4.4,5.9-9.8,10.3-16.7,13.1c-3,1.2-6.3,2.2-9.6,2.6c-1.7,0.2-3.3,0.5-5.1,0.5c-6.3-0.2-12-1.7-17.1-5.1
			c-5.5-3.7-9.4-8.6-11.3-15.1c0-0.1,0-0.2-0.1-0.3c-0.1,0.1-0.2,0.3-0.3,0.5c-4,7.3-9.5,12.9-16.9,16.5c-3.2,1.6-6.5,2.5-10.1,2.9
			c-2.3,0.4-4.6,0.5-6.9,0.4c-5.1-0.3-9.8-1.8-14.3-4.6c-3.9-2.6-7.1-5.8-9.3-9.7c-1.6-2.9-2.6-6-2.9-9.2c-0.4-2.3-0.5-4.5-0.4-6.8
			c0.3-4.4,1.4-8.6,3.4-12.5c3.3-6.5,8-11.9,14.3-15.8c3.7-2.3,7.6-3.9,11.7-4.7c2.8-0.6,5.7-0.9,8.6-0.9c7,0.1,13.1,2.6,18.4,7.2
			c2.9,2.6,5,5.7,6.5,9.2c0.1,0.2,0.2,0.4,0.3,0.6c0.2,0.4,0.1,0.6-0.3,0.9c-0.3,0.2-0.6,0.3-0.9,0.4c-4.7,1.2-9.5,2.5-14.2,3.7
			c-0.1,0-0.3,0.1-0.4,0.1c-0.5,0.1-0.9,0-1.1-0.4s-0.6-0.6-0.9-0.9c-1.8-2.2-4.3-3.4-7-4.1c-3.3-0.8-6.4-0.4-9.6,1
			c-3.6,1.7-6.5,4.1-8.6,7.6c-1.3,2.1-2,4.4-2.3,6.9c-0.3,2-0.3,4,0.2,6c1.2,5.1,5.2,9.2,10.4,10c4.9,0.9,9.4-0.4,13.1-3.7
			C102.9,64.8,104,63.2,105.1,61.5C105.1,61.6,105.1,61.6,105.1,61.5z M155.5,38.2c-0.9,0-1.9,0.1-2.9,0.3c-2.7,0.6-5.3,1.6-7.6,3.1
			c-3.2,2.2-5.4,5.1-6.7,8.8c-0.9,2.7-1.5,5.2-1,8c0.5,2.7,1.4,5.2,3.3,7.3c4,4.2,8.8,5.5,14.4,4.4c2.7-0.6,5.1-1.8,7.3-3.5
			c4.5-3.3,7-7.9,7.4-13.4c0.2-1.7-0.2-3.6-0.7-5.2C166.9,42,161.6,38.1,155.5,38.2z"/>
		<path class="st0" d="M41.7,41.5c-5,0-10,0-15.1,0c-0.2,0-0.5,0.1-0.6-0.2c-0.1-0.2,0.1-0.4,0.3-0.6c0.6-0.7,1-1.3,1.6-2
			c0.3-0.4,0.6-0.5,0.9-0.6c0.1,0,0.2,0,0.3,0c9.7,0,19.7,0,29.4,0c0.2,0,0.6-0.1,0.6,0.2s0,0.5-0.1,0.7c-0.4,0.6-0.8,1.2-1.1,1.7
			s-0.7,0.7-1.2,0.7C51.7,41.6,46.7,41.6,41.7,41.5C41.7,41.6,41.7,41.6,41.7,41.5z"/>
		<path class="st0" d="M43.4,57.1c-2.9,0-6,0-9,0c-0.6,0-0.6-0.2-0.4-0.6c0.4-0.6,0.7-1.2,0.9-1.8c0.3-0.5,0.6-0.7,1.1-0.7
			c5.5,0,10.9,0,16.5,0c0.6,0,0.8,0.2,0.7,0.8s-0.1,1.1-0.2,1.7c-0.1,0.6-0.3,0.7-0.8,0.7C49.3,57.2,46.4,57.2,43.4,57.1L43.4,57.1z
			"/>
	</g>
</g>
</svg>
