<?xml version="1.0" encoding="utf-8"?>
<!-- Generator: Adobe Illustrator 23.1.0, SVG Export Plug-In . SVG Version: 6.00 Build 0)  -->
<svg version="1.1" id="Layer_1" xmlns="http://www.w3.org/2000/svg" xmlns:xlink="http://www.w3.org/1999/xlink" x="0px" y="0px"
	 viewBox="0 0 200 200" style="enable-background:new 0 0 200 200;" xml:space="preserve">
<style type="text/css">
	.st0{fill:#01AEDB;}
	.st1{fill:#00ADDB;}
</style>
<g id="KIej5O.tif">
	<g>
		<path class="st0" d="M1.2,93.9c0.6-0.8,1.3-1.6,1.9-2.4c0.4-0.5,0.9-0.8,1.5-0.8c7.6,0,15.2,0,22.8,0c6.9,0,13.7,0,20.6,0
			c0.2,0,0.3,0,0.5,0c0.3,0,0.5,0.3,0.4,0.5c-0.3,0.8-0.5,1.6-0.8,2.4c-0.2,0.4-0.5,0.5-0.9,0.5c-0.9,0-1.8,0-2.7,0
			c-9.5,0-19,0-28.5,0c-4.6,0-9.3,0-13.9,0c-0.2,0-0.4,0-0.6-0.1C1.2,94.1,1.2,94,1.2,93.9z"/>
		<path class="st1" d="M106,108.3c-0.2,0-0.3,0-0.5,0c-5.9,0-11.8,0-17.7,0c-0.5,0-0.9,0-1.4-0.2c-0.7-0.3-1.1-0.9-1-1.6
			c0-0.4,0.1-0.7,0.3-1.1c1.5-3.6,3.1-7.1,5-10.6c0.4-0.7,0.9-1.2,1.7-1.4c0.3-0.1,0.7-0.1,1-0.1c10.1,0,20.2,0,30.3,0
			c0.2,0,0.4,0,0.5-0.3c1.5-4.6,3.8-8.7,6.7-12.5c2.8-3.6,6-6.8,9.8-9.3c3.5-2.3,7.2-4,11.2-5.2c4.9-1.4,10-2.2,15.2-2.1
			c8.1,0.2,15.2,2.9,21.3,8.1c4.5,3.8,7.6,8.5,9.3,14.1c0.8,2.6,1.2,5.3,1.3,8c0.2,3.2,0.1,6.5-0.5,9.7c-1,5.4-3.2,10.3-6.4,14.7
			c-5,6.7-11.3,11.8-19.1,15c-3.5,1.4-7.1,2.5-10.9,2.9c-1.9,0.2-3.8,0.5-5.8,0.5c-7.1-0.2-13.7-1.9-19.6-5.9
			c-6.3-4.2-10.7-9.8-12.9-17.2c0-0.1,0-0.2-0.1-0.3c-0.1,0.1-0.2,0.3-0.3,0.5c-4.5,8.3-10.8,14.7-19.3,18.8
			c-3.7,1.8-7.5,2.8-11.6,3.4c-2.6,0.4-5.3,0.5-7.9,0.4c-5.9-0.3-11.3-2.1-16.3-5.3c-4.4-2.9-8.1-6.6-10.6-11.2
			c-1.8-3.3-2.9-6.8-3.4-10.5c-0.4-2.6-0.5-5.2-0.4-7.8c0.3-5,1.6-9.8,3.9-14.3c3.8-7.5,9.2-13.6,16.3-18.1
			c4.2-2.6,8.7-4.4,13.4-5.4c3.2-0.7,6.5-1.1,9.8-1.1c8,0.1,15,2.9,21,8.2c3.3,2.9,5.7,6.5,7.5,10.5c0.1,0.2,0.2,0.4,0.3,0.7
			c0.2,0.4,0.1,0.7-0.3,1c-0.3,0.2-0.7,0.3-1.1,0.4c-5.4,1.4-10.8,2.8-16.2,4.2c-0.1,0-0.3,0.1-0.4,0.1c-0.5,0.1-1,0-1.3-0.4
			c-0.3-0.4-0.7-0.7-1-1.1c-2.1-2.5-4.9-3.9-8-4.7c-3.8-0.9-7.4-0.4-10.9,1.2c-4.1,1.9-7.5,4.7-9.8,8.7c-1.5,2.4-2.3,5.1-2.6,7.9
			c-0.3,2.3-0.3,4.6,0.2,6.8c1.4,5.9,6,10.5,11.9,11.5c5.6,1,10.7-0.4,15-4.2c1.8-1.6,3.2-3.5,4.5-5.5
			C106,108.4,106,108.4,106,108.3z M163.6,81.6c-1.1,0-2.2,0.1-3.3,0.3c-3.1,0.6-6.1,1.8-8.7,3.6c-3.7,2.5-6.2,5.9-7.7,10.1
			c-1.1,3-1.7,6-1.2,9.2c0.5,3.1,1.6,6,3.8,8.3c4.5,4.8,10.1,6.3,16.5,5c3.1-0.6,5.8-2.1,8.3-4c5.2-3.8,8-9,8.5-15.4
			c0.2-2-0.2-4.1-0.8-6C176.7,86,170.6,81.5,163.6,81.6z"/>
		<path class="st0" d="M33.5,85.4c-5.7,0-11.5,0-17.2,0c-0.2,0-0.5,0.1-0.6-0.2c-0.1-0.2,0.1-0.4,0.3-0.6c0.6-0.8,1.2-1.5,1.8-2.3
			c0.3-0.4,0.7-0.5,1.1-0.6c0.1,0,0.2,0,0.3,0c11.2,0,22.5,0,33.7,0c0.2,0,0.6-0.1,0.7,0.2c0.1,0.3-0.1,0.5-0.2,0.7
			c-0.4,0.7-0.9,1.4-1.3,2c-0.3,0.5-0.8,0.8-1.4,0.8C44.9,85.5,39.2,85.5,33.5,85.4C33.5,85.5,33.5,85.5,33.5,85.4z"/>
		<path class="st0" d="M35.4,103.2c-3.4,0-6.8,0-10.3,0c-0.6,0-0.7-0.2-0.4-0.7c0.4-0.7,0.8-1.4,1.1-2.1c0.3-0.5,0.7-0.8,1.3-0.8
			c6.3,0,12.5,0,18.8,0c0.7,0,0.9,0.2,0.8,0.9c-0.1,0.7-0.1,1.3-0.2,2c-0.1,0.6-0.3,0.8-0.9,0.8C42.2,103.3,38.8,103.3,35.4,103.2
			C35.4,103.2,35.4,103.2,35.4,103.2z"/>
	</g>
</g>
</svg>
