<?xml version="1.0" encoding="utf-8"?>
<!-- Generator: Adobe Illustrator 24.1.0, SVG Export Plug-In . SVG Version: 6.00 Build 0)  -->
<svg version="1.1" id="Layer_1" xmlns="http://www.w3.org/2000/svg" xmlns:xlink="http://www.w3.org/1999/xlink" x="0px" y="0px"
	 viewBox="0 0 200 200" style="enable-background:new 0 0 200 200;" xml:space="preserve">
<style type="text/css">
	.st0{fill:#EED65B;}
	.st1{fill:#FDFBF1;}
</style>
<g id="uunmV6.tif">
	<g>
		<path class="st0" d="M185.9,186c-57,0-114,0-171.1,0c-0.6,0-0.8-0.1-0.8-0.8c0-57,0-114,0-171.1c0.4,0,0.8,0,1.2,0
			c56.4,0,112.8,0,169.2,0c0.3,0,0.5,0,0.8,0c0.4,0,0.6,0.1,0.5,0.5c0,0.3,0,0.5,0,0.8c0,56.4,0,112.8,0,169.2
			C185.9,185.1,185.9,185.5,185.9,186z M145.5,172.4c4,0,7.9-0.5,11.7-1.8c5.3-1.8,9.7-4.8,12.5-9.8c2.2-3.9,2.9-8.2,2.7-12.6
			c-0.3-6.6-2.9-12-8-16.1c-3.5-2.8-7.5-4.9-11.5-6.7c-3.3-1.5-6.7-2.8-9.9-4.4c-1.5-0.8-2.8-1.6-4-2.8c-2.8-2.8-3-9.5,2.6-11.4
			c3.9-1.3,7.5-0.7,10.5,2.2c1.1,1,2,2.3,2.8,3.6c0.2,0.4,0.4,0.5,0.8,0.2c3.9-2.5,7.7-5,11.6-7.5c0.3-0.2,0.4-0.4,0.2-0.8
			c-3.1-5.2-7.2-9.3-13.2-11.1c-6.4-1.9-12.8-1.9-19.1,0.2c-4.9,1.7-8.8,4.8-11.4,9.4c-2.2,3.9-2.8,8.1-2.5,12.5
			c0.4,5.8,2.6,10.7,6.9,14.7c3.5,3.2,7.6,5.3,11.8,7.2c3.3,1.5,6.7,2.8,9.9,4.4c1.6,0.8,3.1,1.7,4.4,3c1.9,2,2.5,4.3,1.9,6.9
			c-0.6,2.7-2.5,4.4-5,5.3c-4.9,1.8-9.6,1.4-14.2-1c-3-1.6-5.2-4.2-6.9-7c-0.4-0.6-0.7-0.6-1.3-0.3c-3.9,2.3-7.8,4.6-11.7,6.8
			c-0.5,0.3-0.6,0.5-0.3,1c2.4,4.4,5.6,7.9,9.8,10.6C132.2,170.9,138.8,172.2,145.5,172.4z M107.5,122.3
			C107.6,122.3,107.6,122.3,107.5,122.3c0.1-9.5,0-18.9,0.1-28.4c0-0.8-0.2-1-1-1c-4.7,0-9.4,0-14.1,0c-0.8,0-1,0.2-1,1
			c0,17.8,0,35.5,0,53.3c0,1.4-0.1,2.8-0.3,4.2c-0.4,2.4-1.3,4.4-3.6,5.6c-3.9,1.9-8.9,0.9-11.7-2.3c-1.2-1.4-2.1-2.9-3-4.5
			c-0.2-0.4-0.4-0.5-0.8-0.3c-4,2.5-8,4.9-12.1,7.3c-0.4,0.2-0.5,0.4-0.3,0.9c2.7,5.3,6.5,9.4,12,11.8c6.1,2.7,12.4,3,18.9,1.7
			c5-1,9.3-3.3,12.5-7.4c3.1-4.1,4.5-8.8,4.6-13.9C107.6,141,107.5,131.6,107.5,122.3z"/>
		<path class="st1" d="M185.8,186c0-0.4,0-0.9,0-1.3c0-56.4,0-112.8,0-169.2c0-0.3,0-0.5,0-0.8c0-0.4-0.2-0.5-0.5-0.5s-0.5,0-0.8,0
			c-56.4,0-112.8,0-169.2,0c-0.4,0-0.8,0-1.2,0c0-0.1-0.1-0.2,0.1-0.2c0.2,0,0.4,0,0.7,0c56.8,0,113.6,0,170.5,0
			c0.7,0,0.8,0.1,0.8,0.8c0,56.8,0,113.6,0,170.5C186,185.5,186.1,185.8,185.8,186z"/>
	</g>
</g>
</svg>
