<?xml version="1.0" encoding="utf-8"?>
<!-- Generator: Adobe Illustrator 23.1.0, SVG Export Plug-In . SVG Version: 6.00 Build 0)  -->
<svg version="1.1" id="Layer_1" xmlns="http://www.w3.org/2000/svg" xmlns:xlink="http://www.w3.org/1999/xlink" x="0px" y="0px"
	 viewBox="0 0 107.6 60.9" style="enable-background:new 0 0 107.6 60.9;" xml:space="preserve">
<style type="text/css">
	.st0{fill:#8791C1;}
</style>
<g id="gTVsIb.tif">
	<g>
		<path class="st0" d="M104.1,29.7c0,0.5,0,1,0,1.5c0,0.1,0,0.1,0,0.2c0,0.3,0,0.6-0.1,1c-0.3,2.3-1.2,4.5-2.5,6.4
			c-1.6,2.5-3.6,4.5-5.9,6.3c-3,2.3-6.4,4.2-9.9,5.7c-4.8,2-9.8,3.4-14.9,4.4c-2.8,0.5-5.5,0.9-8.3,1.1c-2.2,0.2-4.4,0.3-6.6,0.4
			c-2.6,0-5.1,0-7.7-0.1c-2-0.1-3.9-0.3-5.9-0.5c-2.7-0.3-5.3-0.8-8-1.3C29,53.4,24,51.8,19.2,49.5c-3.2-1.6-6.3-3.5-9-5.8
			c-2.2-1.9-4-4.1-5.3-6.7c-0.9-1.9-1.5-3.9-1.6-6c-0.1-2.2,0.4-4.4,1.3-6.4c1-2.3,2.5-4.3,4.2-6c2.3-2.3,4.9-4.2,7.7-5.8
			c3.6-2.1,7.4-3.6,11.4-4.8C33.8,6,40,4.9,46.3,4.4c2-0.2,4-0.2,6-0.3c2.4,0,4.8,0,7.2,0.2c1.7,0.1,3.3,0.2,5,0.4
			c2.3,0.3,4.5,0.6,6.7,1c4,0.8,8,1.8,11.9,3.3c3.1,1.2,6.1,2.6,9,4.3c2.6,1.6,5,3.4,7.1,5.7c1.4,1.6,2.6,3.3,3.5,5.2
			c0.6,1.4,1.1,2.8,1.2,4.4C104,29,104,29.3,104.1,29.7z M29.6,17.9c-2.1,0-4.3,0-6.4,0c-0.1,0-0.2,0-0.2,0.2
			c-0.7,3.4-1.3,6.8-2,10.2c-0.7,3.3-1.3,6.6-2,9.9c-0.5,2.5-1,4.9-1.5,7.4c0,0.2,0,0.2,0.2,0.2c2,0,4.1,0,6.1,0
			c0.2,0,0.2,0,0.2-0.2c0.2-1.3,0.5-2.6,0.7-3.9c0.2-1,0.4-2,0.6-3c0-0.1,0.1-0.2,0.2-0.2c0.2,0,0.5,0,0.7,0c1.7,0,3.5,0,5.2,0
			c0.9,0,1.8,0,2.7-0.2c3.2-0.7,5.7-2.4,7.5-5.1c1.9-2.8,2.6-6,2-9.4c-0.4-2.4-1.7-4.1-3.9-5.1C38.5,18.3,37,18,35.5,18
			C33.5,17.9,31.6,17.9,29.6,17.9z M75.9,17.9c-2.1,0-4.3,0-6.4,0c-0.2,0-0.3,0.1-0.3,0.2c-0.7,3.4-1.3,6.9-2,10.3
			c-1.1,5.7-2.3,11.5-3.4,17.2c0,0.2,0,0.2,0.2,0.2c2.1,0,4.1,0,6.2,0c0.1,0,0.2,0,0.2-0.2c0.3-1.4,0.5-2.9,0.8-4.3
			c0.2-0.9,0.3-1.7,0.5-2.6c0-0.1,0-0.2,0.2-0.2c2.1,0,4.2,0,6.2,0c0.8,0,1.7,0,2.5-0.2c3.2-0.7,5.7-2.4,7.5-5.1
			c1.9-2.9,2.6-6,2-9.4c-0.4-2.2-1.5-3.8-3.5-4.9C85,18.3,83.4,18,81.8,18C79.8,17.9,77.8,17.9,75.9,17.9z M60.7,38.6
			c1.1,0,2.2,0,3.3,0c0.1,0,0.2,0,0.2-0.2c0.1-0.8,0.3-1.6,0.4-2.4c0.7-3.9,1.3-7.8,2-11.6c0.1-0.8,0.2-1.6-0.1-2.4
			c-0.4-1.4-1.2-2.3-2.5-3c-1.5-0.8-3.1-1.1-4.8-1.1c-1.9,0-3.7,0-5.6,0c-0.2,0-0.2,0-0.2-0.2c0.4-2.3,0.9-4.5,1.3-6.8
			c0-0.2,0-0.2-0.2-0.2c-2,0-4.1,0-6.1,0c-0.2,0-0.2,0.1-0.3,0.2c-0.9,4.6-1.8,9.3-2.7,13.9c-0.9,4.5-1.8,9.1-2.7,13.6
			c0,0.2,0,0.2,0.2,0.2c2,0,3.9,0,5.9,0c0.4,0,0.4,0,0.5-0.4c1-5,2-9.9,3-14.9c0-0.2,0.1-0.2,0.3-0.2c1.7,0,3.4,0,5.1,0
			c0.4,0,0.7,0,1.1,0.1c0.5,0.1,0.9,0.4,1,0.9c0,0.2,0.1,0.5,0,0.7c0,0.3-0.1,0.7-0.2,1c-0.4,1.9-0.7,3.9-1.1,5.8
			c-0.4,2.2-0.8,4.5-1.3,6.7c0,0.2,0,0.2,0.2,0.2C58.5,38.6,59.6,38.6,60.7,38.6z"/>
		<path class="st0" d="M31,23.1c0.7,0,1.4,0,2.1,0c0.8,0,1.6,0.1,2.4,0.5c1,0.5,1.6,1.4,1.6,2.5c0,1.4-0.3,2.7-0.8,4
			c-0.7,1.6-1.9,2.5-3.5,2.9c-0.8,0.2-1.7,0.3-2.5,0.3c-1.1,0-2.1,0-3.2,0c-0.2,0-0.2,0-0.2-0.2c0.2-1.4,0.5-2.8,0.7-4.2
			c0.3-1.9,0.6-3.8,0.9-5.7c0-0.2,0.1-0.3,0.3-0.2C29.5,23.1,30.2,23.1,31,23.1z"/>
		<path class="st0" d="M77.2,23.1c0.7,0,1.4,0,2.1,0c0.8,0,1.7,0.1,2.4,0.5c1,0.5,1.6,1.4,1.5,2.6c0,1.3-0.3,2.5-0.7,3.7
			c-0.7,1.7-1.9,2.8-3.7,3.2c-0.8,0.2-1.7,0.3-2.5,0.3c-1.1,0-2.1,0-3.2,0c-0.2,0-0.2-0.1-0.2-0.2c0.6-3.3,1.1-6.6,1.6-9.9
			c0-0.2,0.1-0.3,0.3-0.3C75.7,23.1,76.5,23.1,77.2,23.1z"/>
	</g>
</g>
</svg>
