<?xml version="1.0" encoding="utf-8"?>
<!-- Generator: Adobe Illustrator 24.1.0, SVG Export Plug-In . SVG Version: 6.00 Build 0)  -->
<svg version="1.1" id="Layer_1" xmlns="http://www.w3.org/2000/svg" xmlns:xlink="http://www.w3.org/1999/xlink" x="0px" y="0px"
	 viewBox="0 0 107.6 60.9" style="enable-background:new 0 0 107.6 60.9;" xml:space="preserve">
<style type="text/css">
	.st0{fill:#FFFFFF;stroke:#000000;stroke-miterlimit:10;}
	.st1{fill:#8791C1;}
</style>
<polyline class="st0" points="49.8,9.8 23.5,19.4 19.9,44.6 36.3,47.9 77.4,44.1 91.8,31.7 88.3,19.4 "/>
<g id="gTVsIb.tif">
	<g>
		<path class="st1" d="M98.4,29.8c0,0.4,0,0.9,0,1.3c0,0.1,0,0.1,0,0.2c0,0.3,0,0.5-0.1,0.9c-0.3,2-1.1,4-2.2,5.7
			c-1.4,2.2-3.2,4-5.2,5.6c-2.7,2-5.7,3.7-8.8,5c-4.2,1.8-8.7,3-13.2,3.9c-2.5,0.4-4.9,0.8-7.3,1c-1.9,0.2-3.9,0.3-5.8,0.4
			c-2.3,0-4.5,0-6.8-0.1c-1.8-0.1-3.5-0.3-5.2-0.4c-2.4-0.3-4.7-0.7-7.1-1.2c-4.7-1.2-9.1-2.7-13.4-4.7c-2.8-1.4-5.6-3.1-8-5.1
			c-1.9-1.7-3.5-3.6-4.7-5.9c-0.8-1.7-1.3-3.5-1.4-5.3c-0.1-1.9,0.4-3.9,1.2-5.7c0.9-2,2.2-3.8,3.7-5.3c2-2,4.3-3.7,6.8-5.1
			c3.2-1.9,6.5-3.2,10.1-4.2c5.2-1.8,10.7-2.7,16.3-3.2c1.8-0.2,3.5-0.2,5.3-0.3c2.1,0,4.2,0,6.4,0.2c1.5,0.1,2.9,0.2,4.4,0.4
			c2,0.3,4,0.5,5.9,0.9c3.5,0.7,7.1,1.6,10.5,2.9c2.7,1.1,5.4,2.3,8,3.8c2.3,1.4,4.4,3,6.3,5c1.2,1.4,2.3,2.9,3.1,4.6
			c0.5,1.2,1,2.5,1.1,3.9C98.3,29.2,98.3,29.5,98.4,29.8z M32.5,19.4c-1.9,0-3.8,0-5.7,0c-0.1,0-0.2,0-0.2,0.2c-0.6,3-1.2,6-1.8,9
			c-0.6,2.9-1.2,5.8-1.8,8.8c-0.4,2.2-0.9,4.3-1.3,6.5c0,0.2,0,0.2,0.2,0.2c1.8,0,3.6,0,5.4,0c0.2,0,0.2,0,0.2-0.2
			c0.2-1.2,0.4-2.3,0.6-3.5c0.2-0.9,0.4-1.8,0.5-2.7c0-0.1,0.1-0.2,0.2-0.2c0.2,0,0.4,0,0.6,0c1.5,0,3.1,0,4.6,0
			c0.8,0,1.6,0,2.4-0.2c2.8-0.6,5-2.1,6.6-4.5c1.7-2.5,2.3-5.3,1.8-8.3c-0.4-2.1-1.5-3.6-3.5-4.5c-1.1-0.4-2.4-0.6-3.7-0.6
			C35.9,19.4,34.3,19.4,32.5,19.4z M73.4,19.4c-1.9,0-3.8,0-5.7,0c-0.2,0-0.3,0.1-0.3,0.2c-0.6,3-1.2,6.1-1.8,9.1
			c-1,5-2,10.2-3,15.2c0,0.2,0,0.2,0.2,0.2c1.9,0,3.6,0,5.5,0c0.1,0,0.2,0,0.2-0.2c0.3-1.2,0.4-2.6,0.7-3.8c0.2-0.8,0.3-1.5,0.4-2.3
			c0-0.1,0-0.2,0.2-0.2c1.9,0,3.7,0,5.5,0c0.7,0,1.5,0,2.2-0.2c2.8-0.6,5-2.1,6.6-4.5c1.7-2.6,2.3-5.3,1.8-8.3
			c-0.4-1.9-1.3-3.4-3.1-4.3c-1.4-0.5-2.8-0.8-4.2-0.8C76.9,19.4,75.1,19.4,73.4,19.4z M60,37.7c1,0,1.9,0,2.9,0
			c0.1,0,0.2,0,0.2-0.2c0.1-0.7,0.3-1.4,0.4-2.1c0.6-3.5,1.2-6.9,1.8-10.3c0.1-0.7,0.2-1.4-0.1-2.1c-0.4-1.2-1.1-2-2.2-2.7
			c-1.3-0.7-2.7-1-4.2-1c-1.7,0-3.3,0-5,0c-0.2,0-0.2,0-0.2-0.2c0.4-2,0.8-4,1.2-6c0-0.2,0-0.2-0.2-0.2c-1.8,0-3.6,0-5.4,0
			c-0.2,0-0.2,0.1-0.3,0.2c-0.8,4.1-1.6,8.2-2.4,12.3c-0.8,4-1.6,8.1-2.4,12c0,0.2,0,0.2,0.2,0.2c1.8,0,3.5,0,5.2,0
			c0.4,0,0.4,0,0.4-0.4c0.9-4.4,1.8-8.8,2.7-13.2c0-0.2,0.1-0.2,0.3-0.2c1.5,0,3,0,4.5,0c0.4,0,0.6,0,1,0.1c0.4,0.1,0.8,0.4,0.9,0.8
			c0,0.2,0.1,0.4,0,0.6c0,0.3-0.1,0.6-0.2,0.9c-0.4,1.7-0.6,3.5-1,5.1c-0.4,1.9-0.7,4-1.2,5.9c0,0.2,0,0.2,0.2,0.2
			C58.1,37.7,59,37.7,60,37.7z"/>
		<path class="st1" d="M33.7,24c0.6,0,1.2,0,1.9,0c0.7,0,1.4,0.1,2.1,0.4c0.9,0.4,1.4,1.2,1.4,2.2c0,1.2-0.3,2.4-0.7,3.5
			c-0.6,1.4-1.7,2.2-3.1,2.6c-0.7,0.2-1.5,0.3-2.2,0.3c-1,0-1.9,0-2.8,0c-0.2,0-0.2,0-0.2-0.2c0.2-1.2,0.4-2.5,0.6-3.7
			c0.3-1.7,0.5-3.4,0.8-5c0-0.2,0.1-0.3,0.3-0.2C32.4,24,33,24,33.7,24z"/>
		<path class="st1" d="M74.6,24c0.6,0,1.2,0,1.9,0c0.7,0,1.5,0.1,2.1,0.4c0.9,0.4,1.4,1.2,1.3,2.3c0,1.2-0.3,2.2-0.6,3.3
			c-0.6,1.5-1.7,2.5-3.3,2.8c-0.7,0.2-1.5,0.3-2.2,0.3c-1,0-1.9,0-2.8,0c-0.2,0-0.2-0.1-0.2-0.2c0.5-2.9,1-5.8,1.4-8.8
			c0-0.2,0.1-0.3,0.3-0.3C73.3,24,74,24,74.6,24z"/>
	</g>
</g>
</svg>
