<?xml version="1.0" encoding="utf-8"?>
<!-- Generator: Adobe Illustrator 21.0.0, SVG Export Plug-In . SVG Version: 6.00 Build 0)  -->
<svg version="1.1" id="Layer_1" xmlns="http://www.w3.org/2000/svg" xmlns:xlink="http://www.w3.org/1999/xlink" x="0px" y="0px"
	 viewBox="0 0 200 200" style="enable-background:new 0 0 200 200;" xml:space="preserve">
<style type="text/css">
	.st0{fill:#FFFFFF;}
	.st1{fill:#4976A1;}
	.st2{fill:#F5CD60;}
</style>
<ellipse class="st0" cx="123.6" cy="168.7" rx="14.7" ry="11.7"/>
<ellipse class="st0" cx="77.3" cy="30.7" rx="14.7" ry="11.7"/>
<g id="yUXtRd.tif_2_">
	<g>
		<g>
			<path class="st1" d="M94.8,9c2.3,0,4.6,0,6.8,0c0.7,0,1.3,0,2,0.1c2.6,0.1,5.1,0.2,7.6,0.5c5.7,0.6,11.4,1.5,16.8,3.6
				c1.9,0.7,3.7,1.5,5.4,2.5c3.5,2,6.5,4.5,8.6,8c1.4,2.3,2.2,4.8,2.4,7.5c0.1,0.9,0,1.8,0,2.6c0,13.1,0,26.2,0,39.3
				c0,2.1-0.1,4.2-0.6,6.3c-1.1,5.6-3.9,10.1-8.7,13.3c-4.7,3.1-9.9,4.6-15.5,4.6c-14.5,0.1-29,0-43.5,0c-1,0-1.9,0-2.9,0.1
				c-2.4,0.1-4.7,0.5-6.9,1.2c-3,0.9-5.7,2.4-8.1,4.5c-1.1,1-2.2,2.2-3,3.4c-1.6,2.2-2.7,4.6-3.5,7.2c-0.5,1.5-0.9,3.1-1.1,4.7
				c-0.2,1.5-0.4,3.1-0.4,4.6c0,7.1,0,14.2,0,21.3c0,0.4-0.1,0.5-0.5,0.5c-4.9,0-9.8,0-14.7,0c-4.3,0-8.2-1.4-11.7-3.9
				c-4.2-2.9-7-6.9-9.2-11.5c-1.6-3.5-2.8-7.1-3.5-10.9c-1.2-5.9-1.7-11.8-1.8-17.8c0-1.4,0-2.7,0-4.1c0-0.2,0.1-0.4,0.1-0.5
				c0.1-2.5,0.3-5,0.6-7.5c0.4-3.7,1.2-7.4,2.3-11c1.5-4.8,3.7-9.2,7-13c4.3-4.8,9.6-7.6,16-8.4c1.6-0.2,3.2-0.1,4.8-0.1
				c7.6,0,15.2,0,22.8,0c12.5,0,25,0,37.5,0c0.6,0,0.6,0,0.6-0.6c0-1.7,0-3.4,0-5.1c0-0.5-0.1-0.6-0.6-0.6c-14.4,0-28.8,0-43.2,0
				c-0.4,0-0.6-0.1-0.5-0.5c0-6.6,0-13.2,0-19.9c0-0.5-0.1-1.1,0-1.6c0.1-1.9,0.7-3.7,1.6-5.4c1.7-3,4.2-5.1,7.1-6.9
				c3.3-2,6.8-3.2,10.5-4.2c6.2-1.6,12.5-2.2,18.9-2.5C94.5,9.1,94.7,9.2,94.8,9z M67.3,31c0,4.4,3.6,8,8,8c4.4,0,8-3.6,8-7.9
				c0-4.4-3.5-8-7.9-8C70.8,23,67.3,26.6,67.3,31z"/>
			<path class="st2" d="M132.6,143.7c-10.6,0-21.2,0-31.8,0c-0.8,0-0.7,0-0.7,0.6c0,1.7,0,3.3,0,5c0,0.6,0,0.6,0.6,0.6
				c10.9,0,21.7,0,32.6,0c3.5,0,7,0,10.6,0c0.4,0,0.6,0.1,0.6,0.6c0,6.5-0.1,13,0.1,19.5c0.2,5.3-2.1,9.2-6.1,12.4
				c-3.1,2.5-6.6,4-10.3,5.2c-4.3,1.4-8.7,2.2-13.1,2.7c-2.3,0.3-4.6,0.4-7,0.6c-4,0.2-8,0.2-12,0.1c-1.8-0.1-3.6-0.2-5.4-0.3
				c-2.2-0.2-4.4-0.4-6.7-0.8c-4-0.7-7.9-1.6-11.6-3c-3.3-1.3-6.5-2.9-9.2-5.2c-3.5-2.9-5.9-6.5-6.7-11.1c-0.2-1.2-0.3-2.5-0.2-3.7
				c0-0.2,0-0.5,0-0.7c0-13,0-26.1,0-39.1c0-3.2,0.3-6.3,1.4-9.3c1.9-5.7,5.7-9.6,11.1-12.1c4-1.9,8.3-2.8,12.7-2.8
				c14.4,0,28.7,0,43.1,0c3.5,0,6.9-0.4,10.2-1.5c6.2-2.1,10.6-6.3,13.2-12.2c1.7-3.9,2.5-8,2.6-12.3c0-7,0-14.1,0-21.1
				c0-0.6,0-0.6,0.6-0.6c5.1,0,10.1,0,15.2,0c3.5,0,6.8,1.2,9.8,3c3.8,2.3,6.7,5.5,8.9,9.3c2.5,4.2,4,8.7,5,13.4
				c0.5,2.3,0.9,4.5,1.2,6.8c0,0.2,0,0.5,0,0.7c0,6.7,0,13.5,0,20.2c0,2.6-0.2,5.2-0.7,7.8c-0.9,4.3-2.2,8.6-4.2,12.5
				c-2.6,5-6.1,9.1-11.2,11.9c-4,2.2-8.3,3.3-13,3c-0.2,0-0.5,0-0.7,0C151.8,143.7,142.2,143.7,132.6,143.7
				C132.6,143.7,132.6,143.7,132.6,143.7z M125.5,177c4.4,0,8-3.6,8-8c0-4.4-3.6-8-8-8c-4.5,0-7.9,3.5-7.9,8
				C117.5,173.4,121,177,125.5,177z"/>
		</g>
	</g>
</g>
</svg>
