<?xml version="1.0" encoding="utf-8"?>
<!-- Generator: Adobe Illustrator 21.0.0, SVG Export Plug-In . SVG Version: 6.00 Build 0)  -->
<svg version="1.1" id="Layer_1" xmlns="http://www.w3.org/2000/svg" xmlns:xlink="http://www.w3.org/1999/xlink" x="0px" y="0px"
	 viewBox="0 0 200 200" style="enable-background:new 0 0 200 200;" xml:space="preserve">
<style type="text/css">
	.st0{fill:url(#K33fil.tif_2_);}
</style>
<linearGradient id="K33fil.tif_2_" gradientUnits="userSpaceOnUse" x1="178.1316" y1="182.9639" x2="35.9543" y2="40.7866">
	<stop  offset="0" style="stop-color:#EC4E3B"/>
	<stop  offset="1" style="stop-color:#EC8045"/>
</linearGradient>
<path id="K33fil.tif_1_" class="st0" d="M63.2,142.3c4.7,0.6,9.4,1,14.1,0.8c8.3-0.2,16.4-1.7,24.2-4.7c3.6-1.4,7-3,10.4-5.2
	c-0.2-0.2-0.4-0.3-0.6-0.4c0.4-0.2,0.8-0.2,1.3-0.2c13.8,0,27.6,0,41.4,0c5.9,0,11.7,0,17.6,0c0.3,0,0.7,0.2,1-0.3
	c3.9,5,7.1,10.5,9.4,16.4c2.7,6.9,4.2,14,4,21.4c-0.1,1.7-0.2,3.4-0.7,5.1c-0.2,0.6-0.4,1.2-0.9,1.6c-0.2,0-0.3,0-0.5,0
	c-1.4-2.6-2.9-5.1-4.9-7.3c-4-4.5-9-7-14.9-7.5c-5.6-0.5-10.9,0.8-16.2,2.5c-3.3,1.1-6.2,2.8-9.2,4.3c-5.5,2.6-11.3,4.3-17.2,5.4
	c-6,1.1-12.1,1.5-18.2,1.2c-8.1-0.3-16.1-1.8-23.9-4.1c-14.1-4.3-26.9-11.1-38.5-20.2c-3.3-2.6-6.5-5.3-9.4-8.3
	c0.5-0.2,1-0.2,1.6-0.2c9.8,0,19.6,0,29.4,0C62.6,142.6,63,142.7,63.2,142.3z M172.2,132c-0.5-0.6-0.8-1.1-0.6-1.9
	c1.6-5.3,2.5-10.8,2.7-16.3c0.3-6.1-0.2-12.2-1.4-18.2c-1.6-8.1-4.2-15.9-7.8-23.3c-10.1-20.7-25.3-36.8-44.7-49
	c-0.1-0.1-0.3-0.3-0.5-0.1c0.2,0.3,0.4,0.5,0.6,0.8c5.5,7.7,10,16,13.4,24.9c3.2,8.3,5.2,16.9,5.8,25.8c0.3,4.4,0.2,8.8-0.2,13.3
	c-0.6,5.8-1.9,11.4-4,16.8c-0.2,0.4-0.3,0.6-0.8,0.3c-4.3-2.6-8.6-5.4-12.8-8.3c-4.1-2.8-8.1-5.7-12.1-8.7
	C98.3,79.2,87,70,76.1,60.4c-8.2-7.2-16.1-14.7-23.9-22.5c-0.2-0.2-0.3-0.5-0.8-0.5c2,3,4,5.9,6.1,8.8c12.3,17,25.3,33.4,39.5,48.9
	c0.9,1,1.9,1.8,2.6,2.9c0.1,0,0.1,0,0.1,0.1c0,0-0.1,0-0.2,0c-0.2-0.1-0.5-0.2-0.7-0.4c-5.5-3.4-10.8-7-16-10.7
	c-1.5-1.1-3.1-2.1-4.6-3.2c-3.4-2.4-6.7-4.9-10-7.4c-12.6-9.6-25.1-19.4-36.9-30c-0.1-0.1-0.2-0.4-0.5-0.3l0,0
	c0.9,1.6,1.9,3,2.9,4.5c2,3,4.4,5.6,6.6,8.4c5.4,6.7,10.8,13.5,16.3,20.1c2.9,3.4,5.8,6.8,8.8,10.1c3.8,4.2,7.5,8.3,11.4,12.4
	c8.4,8.7,17.1,17,26.4,24.7c2.7,2.2,5.4,4.5,8.2,6.6c0.4-0.2,0.8-0.2,1.3-0.2c13.8,0,27.6,0,41.4,0c5.9,0,11.7,0,17.6,0
	c0.3,0,0.7,0.2,1-0.3C172.4,132.2,172.3,132.1,172.2,132z M48.1,138.9c-8-2.5-15.7-5.9-23-10c-3.7-2.1-7.3-4.5-10.7-7.2
	c0,0-0.1,0.1-0.1,0.1c0.1,0.2,0.2,0.5,0.4,0.7c2.6,4.1,5.5,7.9,8.6,11.6c2.5,3,5.2,5.9,8,8.6c0.5-0.2,1-0.2,1.6-0.2
	c9.8,0,19.6,0,29.4,0c0.3,0,0.7,0.2,1-0.2C58.1,141.5,53,140.4,48.1,138.9z M30.8,46.1c0,0,0-0.1,0-0.1C30.8,46,30.7,46,30.8,46.1
	C30.7,46,30.8,46.1,30.8,46.1C30.8,46.1,30.8,46.1,30.8,46.1z M14.2,121.7c0,0,0-0.1,0-0.1C14.1,121.6,14.1,121.6,14.2,121.7
	C14.1,121.6,14.2,121.6,14.2,121.7C14.2,121.6,14.2,121.7,14.2,121.7z M14.4,121.7c-0.1-0.1-0.1-0.1-0.2-0.1c0,0,0,0,0,0
	c0,0.1,0.1,0.1,0.1,0.2C14.3,121.8,14.4,121.8,14.4,121.7z M99.6,98.1c0.1,0,0.1,0.1,0.2,0C99.8,98,99.7,98,99.6,98.1
	C99.6,98,99.6,98,99.6,98.1z"/>
</svg>
