<?xml version="1.0" encoding="utf-8"?>
<!-- Generator: Adobe Illustrator 21.0.0, SVG Export Plug-In . SVG Version: 6.00 Build 0)  -->
<svg version="1.1" id="Layer_1" xmlns="http://www.w3.org/2000/svg" xmlns:xlink="http://www.w3.org/1999/xlink" x="0px" y="0px"
	 viewBox="0 0 200 200" style="enable-background:new 0 0 200 200;" xml:space="preserve">
<style type="text/css">
	.st0{fill:#E06447;}
	.st1{fill:#FEFEFD;}
</style>
<g id="iKzfDX.tif">
	<g>
		<path class="st0" d="M180.5,56.6c0,29.5,0,59.1,0,88.6c-0.2,0.1-0.2,0.3-0.2,0.4c-0.2,1.6-0.3,3.2-0.6,4.8
			c-2.3,13.4-9.7,22.6-22.4,27.5c-4.9,1.9-10.1,2.2-15.2,2.4c-0.2,0-0.3,0-0.5,0c-27.2,0-54.4,0-81.5,0c-1.1,0-2.1,0-3.2,0
			c-2.3-0.1-4.6-0.3-6.8-0.6c-12.7-2-21.8-8.8-27.1-20.4c-1.9-4.2-2.6-8.7-3-13.3c-0.1-1.2,0-2.4-0.4-3.5c0-0.3,0-0.5,0-0.8
			c0.3-0.3,0.2-0.6,0.2-0.9c0-26.8,0-53.5,0-80.3c0-0.7,0-1.5,0-2.2c0.1-2.2,0.2-4.4,0.4-6.5c0.5-5,1.8-9.7,4.3-14
			c4.2-7.4,10.2-12.6,18.3-15.4c5-1.8,10.3-2.2,15.5-2.5c0.3,0,0.6,0,0.9,0c27.2,0,54.4,0,81.6,0c0.3,0,0.6,0,0.9,0
			c4.9,0.1,9.7,0.5,14.4,2c13.7,4.3,23.1,16.5,24.1,31.1C180.2,54,180.1,55.3,180.5,56.6z M110.6,42.9c0,0.1,0.1,0.2,0.1,0.3
			c1.8,2.7,3.7,5.4,5.2,8.3c6.6,12.2,10,25,8.1,39c-0.4,3.2-1.3,6.4-2.4,9.4c-0.1,0.3-0.1,0.8-0.7,0.4c-1-0.6-2-1.1-3-1.7
			c-8.7-5.6-17-11.8-25-18.3c-10.2-8.2-20-16.8-29.3-26c-0.3-0.3-0.5-0.7-1.1-0.5c10.2,14.6,21.1,28.5,33.1,41.7
			c-17-10.7-32.8-22.9-48.1-35.9c16.7,22.5,34.5,43.9,56.8,61.3c-0.6,0.4-1.2,0.7-1.8,1c-9.9,5.3-20.5,6.7-31.5,5.4
			c-9.5-1.1-18.3-4.4-26.6-8.9c-3-1.6-5.7-3.5-8.5-5.3c-0.1,0-0.1-0.1-0.2-0.1c0,0.1,0,0.2,0.1,0.2c0.2,0.3,0.3,0.5,0.5,0.8
			c11.3,16.8,26.5,28.4,45.9,34.3c9.8,3,19.8,3.7,29.9,1.7c4.7-0.9,9.3-2.4,13.5-4.8c2.9-1.7,5.8-3,9.1-3.7c7.9-1.8,14.6,0.7,19,7.2
			c0.5,0.7,0.9,1.4,1.3,2.1c0.5,0.8,0.8,0.7,1.3,0c0.3-0.5,0.5-1.1,0.6-1.7c0.6-3.1,0.4-6.2-0.1-9.3c-1.3-7.5-4.4-14.1-9.1-20
			c-0.4-0.5-0.5-1-0.4-1.6c2.9-11.1,2-21.9-1.6-32.7c-3.9-11.6-10.5-21.6-19.1-30.3c-4.7-4.7-9.8-8.8-15.5-12.2
			C110.8,42.9,110.7,42.8,110.6,42.9L110.6,42.9L110.6,42.9C110.5,42.8,110.5,42.8,110.6,42.9z"/>
		<path class="st1" d="M110.9,42.9c5.7,3.4,10.9,7.5,15.5,12.2c8.6,8.7,15.2,18.6,19.1,30.3c3.6,10.7,4.5,21.6,1.6,32.7
			c-0.2,0.7,0,1.1,0.4,1.6c4.7,5.9,7.8,12.5,9.1,20c0.5,3.1,0.7,6.2,0.1,9.3c-0.1,0.6-0.3,1.2-0.6,1.7c-0.5,0.8-0.8,0.8-1.3,0
			c-0.4-0.7-0.8-1.5-1.3-2.1c-4.3-6.5-11.1-9-19-7.2c-3.2,0.7-6.2,2-9.1,3.7c-4.2,2.4-8.7,3.9-13.5,4.8c-10.1,2-20.1,1.2-29.9-1.7
			c-19.4-5.9-34.6-17.5-45.9-34.3c-0.2-0.2-0.3-0.5-0.5-0.8l0.1-0.1c2.8,1.8,5.6,3.7,8.5,5.3c8.4,4.5,17.1,7.8,26.6,8.9
			c11,1.3,21.6-0.1,31.5-5.4c0.6-0.3,1.2-0.7,1.8-1C81.9,103.4,64,81.9,47.3,59.5c15.3,12.9,31.1,25.2,48.1,35.9
			c-11.6-13.1-22.6-27-32.8-41.6c0.6-0.2,0.8,0.2,1.1,0.5c9.3,9.2,19.1,17.9,29.3,26c8.1,6.5,16.4,12.6,25,18.3c1,0.6,2,1.1,3,1.7
			c0.6,0.4,0.6-0.1,0.7-0.4c1.1-3.1,2-6.2,2.4-9.4c1.9-14-1.5-26.8-8.1-39c-1.6-2.9-3.4-5.6-5.2-8.3C110.8,43.1,110.8,43,110.9,42.9
			z"/>
		<path class="st1" d="M110.6,42.9L110.6,42.9L110.6,42.9C110.6,42.8,110.6,42.9,110.6,42.9L110.6,42.9z"/>
		<path class="st1" d="M110.7,43.1c0-0.1-0.1-0.2-0.1-0.3l0,0c0.1-0.1,0.2,0,0.3,0C110.8,43,110.8,43.1,110.7,43.1z"/>
		<path class="st1" d="M35.7,113.3c0-0.1,0-0.2-0.1-0.2c0.1,0,0.1,0.1,0.2,0.1C35.8,113.2,35.8,113.2,35.7,113.3z"/>
	</g>
</g>
</svg>
