<?xml version="1.0" encoding="utf-8"?>
<!-- Generator: Adobe Illustrator 21.0.0, SVG Export Plug-In . SVG Version: 6.00 Build 0)  -->
<svg version="1.1" id="Layer_1" xmlns="http://www.w3.org/2000/svg" xmlns:xlink="http://www.w3.org/1999/xlink" x="0px" y="0px"
	 viewBox="0 0 200 200" style="enable-background:new 0 0 200 200;" xml:space="preserve">
<style type="text/css">
	.st0{fill:#FFFFFF;}
	.st1{fill:#237EC8;}
	.st2{fill:#FDFEFE;}
	.st3{fill:#FEFEFE;}
</style>
<ellipse class="st0" cx="123.6" cy="168.7" rx="14.7" ry="11.7"/>
<ellipse class="st0" cx="77.3" cy="30.7" rx="14.7" ry="11.7"/>
<g id="HOCrKD.tif">
	<g>
		<path class="st1" d="M100,191c-30.2,0-60.1,0-90.3,0C9,191,9,190.8,9,190.3C9,130.2,9,70,9,9.7C9,9,9.2,9,9.7,9
			c60.1,0,120.3,0,180.6,0c0.7,0,0.7,0.2,0.7,0.7c0,60.1,0,120.3,0,180.6c0,0.7-0.2,0.7-0.7,0.7C160.1,191,130.2,191,100,191z
			 M148.4,176.1c5.4,0.2,10.4-0.7,14.9-2.9c5.6-2.5,9.7-6.3,11.9-12.2c1.4-4.1,1.6-8.1,1.1-12.2c-0.7-5-2.5-9.5-6.1-13.1
			c-3.2-3.2-6.8-5.2-10.6-7.2c-4.3-2.3-8.8-3.8-13.1-6.1c-1.8-0.9-3.6-1.8-5-3.4c-2-2.3-2.5-5-1.8-7.7c0.7-2.7,2.7-4.1,5.4-4.7
			c4.7-0.9,8.6,0.5,11.5,4.3c0.5,0.7,0.9,1.4,1.6,2c0.2,0.2,0.5,0.5,0.9,0.2c4.1-2.5,8.1-5.2,11.9-7.9c0.5-0.2,0.5-0.5,0.2-0.9
			c-0.7-1.1-1.6-2.3-2.5-3.4c-2.9-3.8-6.8-6.5-11.3-8.1c-2.7-0.9-5.6-1.1-8.6-1.1c-3.6-0.2-7.2,0-10.8,1.4
			c-6.8,2.3-11.5,6.5-14,13.3c-1.4,3.4-1.1,6.8-1.1,10.1c0,4.5,1.6,8.3,4.3,11.9c2.7,3.6,6.1,6.1,10.1,8.3c3.8,2,8.1,3.8,12.2,5.6
			c2.5,1.1,5,2.3,7,3.8c4.5,3.2,4.3,10.6-1.6,13.3c-2.9,1.4-6.1,1.6-9.2,1.4c-2.9-0.5-5.6-1.1-7.9-2.9c-2.3-1.8-4.3-4.1-5.9-6.5
			c-0.2-0.2-0.2-0.7-0.7-0.2c-4.3,2.5-8.6,5-12.6,7.4c-0.5,0.2-0.7,0.7-0.2,1.1c2.9,5.2,6.8,9.2,11.9,12.2
			C135.8,174.8,141.9,176.3,148.4,176.1z M89.4,141.4c0-10.8,0-21.8,0-32.7c0-0.9,0-0.9,0.9-0.9c7.2,0,14.4,0,21.8,0
			c0.7,0,0.9-0.2,0.9-0.9c0-4.3-0.2-8.8-0.2-13.1c0-0.7-0.2-0.9-0.9-0.9c-17.6,0-35.1,0-52.7,0c-3.2,0-6.1,0-9.2,0
			c-1.1,0-1.1,0-1.1,1.1c-0.2,4.3,0,8.8-0.2,13.1c0,0.7,0.2,0.9,0.9,0.9c7.2,0,14.4,0,21.8,0c1.4,0,1.1-0.2,1.1,1.1
			c0,21.8,0,43.5,0,65.3c0,0.7,0.2,0.9,0.9,0.9c5,0,9.9,0,14.9,0c0.7,0,0.9-0.2,0.9-0.9C89.4,163.3,89.4,152.5,89.4,141.4z"/>
		<path class="st2" d="M148.4,176.1c-6.3,0.2-12.6-1.1-18.5-4.3c-5.2-2.7-9-7-11.9-12.2c-0.2-0.5-0.2-0.9,0.2-1.1
			c4.3-2.5,8.6-5,12.6-7.4c0.5-0.2,0.7,0,0.7,0.2c1.6,2.5,3.6,4.7,5.9,6.5c2.3,1.8,5,2.7,7.9,2.9c3.2,0.5,6.3,0,9.2-1.4
			c5.9-2.7,5.9-10.1,1.6-13.3c-2.3-1.6-4.5-2.7-7-3.8c-4.1-1.8-8.1-3.6-12.2-5.6c-3.8-2-7.4-4.7-10.1-8.3c-2.5-3.6-4.1-7.4-4.3-11.9
			c0-3.4-0.2-7,1.1-10.1c2.5-6.8,7.4-11,14-13.3c3.6-1.1,7.2-1.4,10.8-1.4c2.9,0.2,5.6,0.2,8.6,1.1c4.7,1.6,8.3,4.3,11.3,8.1
			c0.9,1.1,1.8,2.3,2.5,3.4c0.2,0.5,0.2,0.7-0.2,0.9c-3.8,2.7-7.9,5.4-11.9,7.9c-0.5,0.2-0.7,0.2-0.9-0.2c-0.5-0.7-0.9-1.4-1.6-2
			c-2.9-4.1-6.8-5.2-11.5-4.3c-2.7,0.5-4.5,2-5.4,4.7c-0.9,2.9-0.5,5.4,1.8,7.7c1.4,1.6,3.2,2.5,5,3.4c4.3,2,8.8,3.8,13.1,6.1
			c3.8,2,7.4,4.1,10.6,7.2c3.6,3.6,5.4,8.1,6.1,13.1c0.5,4.1,0.2,8.3-1.1,12.2c-2,5.9-6.3,9.7-11.9,12.2
			C158.5,175.2,153.6,176.1,148.4,176.1z"/>
		<path class="st3" d="M89.4,141.4c0,10.8,0,21.8,0,32.7c0,0.7-0.2,0.9-0.9,0.9c-5,0-9.9,0-14.9,0c-0.7,0-0.9-0.2-0.9-0.9
			c0-21.8,0-43.5,0-65.3c0-1.4,0.2-1.1-1.1-1.1c-7.2,0-14.4,0-21.8,0c-0.7,0-0.9-0.2-0.9-0.9c0-4.3,0-8.8,0.2-13.1
			c0-0.9,0-1.1,1.1-1.1c3.2,0,6.1,0,9.2,0c17.6,0,35.1,0,52.7,0c0.7,0,0.9,0.2,0.9,0.9c0,4.3,0,8.8,0.2,13.1c0,0.7-0.2,0.9-0.9,0.9
			c-7.2,0-14.4,0-21.8,0c-0.9,0-0.9,0-0.9,0.9C89.4,119.6,89.4,130.6,89.4,141.4z"/>
	</g>
</g>
</svg>
