<?xml version="1.0" encoding="utf-8"?>
<!-- Generator: Adobe Illustrator 23.1.0, SVG Export Plug-In . SVG Version: 6.00 Build 0)  -->
<svg version="1.1" id="Layer_1" xmlns="http://www.w3.org/2000/svg" xmlns:xlink="http://www.w3.org/1999/xlink" x="0px" y="0px"
	 viewBox="0 0 300 176.7" style="enable-background:new 0 0 300 176.7;" xml:space="preserve">
<style type="text/css">
	.st0{opacity:0.7;}
	.st1{fill:#282828;}
</style>
<g class="st0">
	<g>
		<path class="st1" d="M180.9,94.8L180.9,94.8c-3.7,3.7-9.6,3.7-13.3,0l-18.9-18.9c-3.7-3.7-3.7-9.6,0-13.3l0,0
			c3.7-3.7,9.6-3.7,13.3,0l18.9,18.9C184.6,85.2,184.6,91.1,180.9,94.8z"/>
		<path class="st1" d="M180.9,81.9L180.9,81.9c3.7,3.7,3.7,9.6,0,13.3L162,114.1c-3.7,3.7-9.6,3.7-13.3,0l0,0
			c-3.7-3.7-3.7-9.6,0-13.3l18.9-18.9C171.3,78.2,177.2,78.2,180.9,81.9z"/>
	</g>
</g>
</svg>
