<?xml version="1.0" encoding="utf-8"?>
<!-- Generator: Adobe Illustrator 23.1.0, SVG Export Plug-In . SVG Version: 6.00 Build 0)  -->
<svg version="1.1" id="Layer_1" xmlns="http://www.w3.org/2000/svg" xmlns:xlink="http://www.w3.org/1999/xlink" x="0px" y="0px"
	 viewBox="0 0 400 400" style="enable-background:new 0 0 400 400;" xml:space="preserve">
<style type="text/css">
	.st0{fill:#282828;}
</style>
<g>
	<g>
		<path class="st0" d="M241.5,233.1L241.5,233.1c-19,19-49.3,19-68.3,0l-97-97c-19-19-19-49.3,0-68.3l0,0c19-19,49.3-19,68.3,0
			l97,97C260.5,183.8,260.5,214.1,241.5,233.1z"/>
		<path class="st0" d="M241.5,166.9L241.5,166.9c19,19,19,49.3,0,68.3l-97,97c-19,19-49.3,19-68.3,0l0,0c-19-19-19-49.3,0-68.3
			l97-97C192.2,147.9,222.5,147.9,241.5,166.9z"/>
	</g>
</g>
<g>
	<g>
		<path class="st0" d="M158.5,166.9L158.5,166.9c19-19,49.3-19,68.3,0l97,97c19,19,19,49.3,0,68.3l0,0c-19,19-49.3,19-68.3,0l-97-97
			C139.5,216.2,139.5,185.9,158.5,166.9z"/>
		<path class="st0" d="M158.5,233.1L158.5,233.1c-19-19-19-49.3,0-68.3l97-97c19-19,49.3-19,68.3,0l0,0c19,19,19,49.3,0,68.3l-97,97
			C207.8,252.1,177.5,252.1,158.5,233.1z"/>
	</g>
</g>
</svg>
