<?xml version="1.0" encoding="utf-8"?>
<!-- Generator: Adobe Illustrator 21.0.0, SVG Export Plug-In . SVG Version: 6.00 Build 0)  -->
<svg version="1.1" id="Layer_1" xmlns="http://www.w3.org/2000/svg" xmlns:xlink="http://www.w3.org/1999/xlink" x="0px" y="0px"
	 viewBox="0 0 200 200" style="enable-background:new 0 0 200 200;" xml:space="preserve">
<style type="text/css">
	.st0{fill:#FFFFFF;}
</style>
<g id="G5m2IP.tif">
	<g>
		<path class="st0" d="M149.1,182.7c-33,0-66,0-98.9,0c-14.1-26.2-28.1-52.6-42.4-78.9c-1.5-2.8-1.5-4.9,0-7.7
			C22,69.9,36.1,43.6,50.2,17.3c33,0,66,0,98.9,0c14.3,26.2,28.5,52.6,43,78.9c1.5,2.8,1.5,4.8,0,7.6
			C177.7,130.1,163.4,156.5,149.1,182.7z M66.8,141.2c1.7,0,3.2,0,4.6,0c10.9,0,21.9-0.2,32.8,0.1c8.7,0.2,16.1-2.9,22.7-8.3
			c13.9-11.5,18.5-34.5,10-52.4c-6.5-13.7-17.3-21.7-33.1-21.6c-10.9,0.1-21.9,0-32.8,0c-1.3,0-2.7,0.1-4.1,0.2
			C66.8,86.5,66.8,113.6,66.8,141.2z"/>
		<path class="st0" d="M83.4,124.8c0-16.6,0-32.8,0-49.3c8.2,0,16.4-0.8,24.5,0.2c6.6,0.8,11.4,5.7,14.1,12
			c3.3,8.1,3.3,16.3,0.1,24.5c-3.3,8.2-10.1,12.6-19,12.6C96.7,124.8,90.2,124.8,83.4,124.8z"/>
	</g>
</g>
</svg>
