<?xml version="1.0" encoding="utf-8"?>
<!-- Generator: Adobe Illustrator 23.1.0, SVG Export Plug-In . SVG Version: 6.00 Build 0)  -->
<svg version="1.1" id="Layer_1" xmlns="http://www.w3.org/2000/svg" xmlns:xlink="http://www.w3.org/1999/xlink" x="0px" y="0px"
	 viewBox="0 0 200 200" style="enable-background:new 0 0 200 200;" xml:space="preserve">
<g id="G5m2IP.tif">
	<g>
		<path d="M151.2,186.9c-34.3,0-68.5,0-102.7,0C34,159.7,19.4,132.3,4.6,105c-1.6-2.9-1.6-5.1,0-8c14.7-27.2,29.4-54.5,44-81.8
			c34.3,0,68.5,0,102.7,0c14.8,27.2,29.6,54.6,44.6,81.9c1.6,2.9,1.6,5,0,7.9C180.9,132.3,166.1,159.7,151.2,186.9z M65.8,143.8
			c1.8,0,3.3,0,4.8,0c11.3,0,22.7-0.2,34,0.1c9,0.2,16.7-3,23.6-8.6c14.4-11.9,19.2-35.8,10.4-54.4c-6.7-14.2-18-22.5-34.4-22.4
			c-11.3,0.1-22.7,0-34,0c-1.3,0-2.8,0.1-4.3,0.2C65.8,87,65.8,115.1,65.8,143.8z"/>
		<path d="M83.1,126.8c0-17.2,0-34,0-51.2c8.5,0,17-0.8,25.4,0.2c6.9,0.8,11.8,5.9,14.6,12.5c3.4,8.4,3.4,16.9,0.1,25.4
			c-3.4,8.5-10.5,13.1-19.7,13.1C96.9,126.8,90.1,126.8,83.1,126.8z"/>
	</g>
</g>
</svg>
