<?xml version="1.0" encoding="utf-8"?>
<!-- Generator: Adobe Illustrator 23.1.0, SVG Export Plug-In . SVG Version: 6.00 Build 0)  -->
<svg version="1.1" id="Layer_1" xmlns="http://www.w3.org/2000/svg" xmlns:xlink="http://www.w3.org/1999/xlink" x="0px" y="0px"
	 viewBox="0 0 200 200" style="enable-background:new 0 0 200 200;" xml:space="preserve">
<g id="zwhzOe.tif">
	<g>
		<path d="M117.9,143.7c4.8-1.1,9.4-1.9,13.8-3.2c16.7-4.9,26.3-16.6,28.2-34c0.7-6.3,1-12.7-0.5-18.9c-1.3-5.5-3.7-10.4-7.4-14.7
			c-0.9-1-1.1-1.9-0.7-3.2c2.2-7.2,1.5-14.2-0.8-21.3c-0.6-1.8-1.5-2.3-3.3-2.2c-5.7,0.3-10.8,2.5-15.7,5.1
			c-2.7,1.4-5.1,3.9-7.8,4.3c-2.8,0.5-5.8-1.1-8.8-1.5c-12.3-2-24.5-1.5-36.6,1.4c-1.1,0.2-2.4-0.1-3.4-0.6
			c-5.3-2.5-10.5-5.2-15.8-7.6c-1.8-0.8-4-0.8-6-1.1c-1.8-0.3-2.7,0.5-3.3,2.3c-2.2,7-2.8,14.1-0.8,21.3c0.2,0.9,0,2.2-0.5,2.9
			c-6.8,8.4-9.2,18.1-8.4,28.7c0.6,7.7,1.9,15.1,5.7,21.9c5.7,10.1,14.8,15.4,25.7,18.1c3.5,0.9,7.1,1.4,11,2.2
			c-3.1,3.3-4.7,7.3-5.5,11.6c-0.1,0.5-0.9,1-1.5,1.3c-10.5,4.4-19.6,1.5-25.7-8.2c-3-4.7-6.8-8.4-12.5-9.6c-1.6-0.3-3.3-0.3-4.9,0
			c-1.8,0.4-2.1,1.6-0.9,2.9c0.7,0.8,1.6,1.6,2.5,2.2c4.6,2.8,8,6.8,9.7,11.7c4,11.6,15.2,15.9,27.4,14.5c1.7-0.2,3.4-0.5,5.6-0.8
			c0,6.1,0.2,12-0.1,17.8c-0.1,3.3-3,4.9-6.5,3.8c-8.7-2.7-16.7-6.9-24.1-12.2c-21.5-15.2-34.6-36-39-62.1
			C0.8,79.1,18.6,40.9,51,21.2C67.7,11.1,85.8,6.5,105.1,7.6c45.1,2.4,79.9,35.6,87.5,76.3c8.6,46.2-16.7,90.5-60.9,106.6
			c-0.6,0.2-1.2,0.4-1.8,0.6c-3.7,0.9-6.3-1.1-6.3-4.9c0-7.5-0.1-14.9,0.1-22.4C123.8,156.5,123.2,149.5,117.9,143.7z"/>
	</g>
</g>
</svg>
