<?xml version="1.0" encoding="utf-8"?>
<!-- Generator: Adobe Illustrator 21.0.0, SVG Export Plug-In . SVG Version: 6.00 Build 0)  -->
<svg version="1.1" id="Layer_1" xmlns="http://www.w3.org/2000/svg" xmlns:xlink="http://www.w3.org/1999/xlink" x="0px" y="0px"
	 viewBox="0 0 200 200" style="enable-background:new 0 0 200 200;" xml:space="preserve">
<style type="text/css">
	.st0{fill:url(#SVGID_1_);}
	.st1{opacity:0.25;}
	.st2{fill:url(#SVGID_2_);}
	.st3{fill:url(#SVGID_3_);}
	.st4{fill:url(#SVGID_4_);}
	.st5{fill:url(#SVGID_5_);}
	.st6{fill:url(#SVGID_6_);}
	.st7{fill:url(#SVGID_7_);}
	.st8{opacity:0.2;}
	.st9{fill:url(#SVGID_8_);}
	.st10{fill:url(#SVGID_9_);}
	.st11{opacity:0.4;fill:#111111;}
	.st12{fill:url(#SVGID_10_);}
	.st13{fill:url(#SVGID_11_);}
	.st14{opacity:0.5;}
	.st15{fill:#EDEDED;}
	.st16{fill:#FFFFFF;}
	.st17{fill:url(#SVGID_12_);stroke:url(#SVGID_13_);stroke-width:4;stroke-miterlimit:10;}
	.st18{opacity:0.4;fill:none;stroke:#070506;stroke-width:4;stroke-miterlimit:10;}
	.st19{opacity:0.22;clip-path:url(#SVGID_15_);stroke:#070506;stroke-width:4;stroke-miterlimit:10;}
	.st20{opacity:0.4;clip-path:url(#SVGID_17_);}
	.st21{clip-path:url(#SVGID_19_);}
	.st22{opacity:0.4;}
	.st23{clip-path:url(#SVGID_21_);}
	.st24{fill:url(#SVGID_22_);}
	.st25{opacity:5.000000e-02;fill:#FFFFFF;}
	.st26{clip-path:url(#SVGID_24_);}
	.st27{fill:url(#SVGID_25_);}
	.st28{opacity:9.000000e-02;fill:#FFFFFF;}
	.st29{opacity:0.5;fill:#231F20;}
</style>
<g>
	<g>
		<g>
			<g>
				<linearGradient id="SVGID_1_" gradientUnits="userSpaceOnUse" x1="-187.8859" y1="100.8597" x2="-97.0701" y2="100.8597">
					<stop  offset="0" style="stop-color:#001354"/>
					<stop  offset="1" style="stop-color:#D7435D"/>
				</linearGradient>
				<path class="st0" d="M-153.9,173.2l56.4-97.1c1.3-2.2-0.5-4.9-3.1-4.6l-37.5,5.1l9-47.1c0.3-1.6-1.7-2.5-2.7-1.2l-55.4,73.2
					c-1.6,2.1,0.1,5.2,2.8,4.9l41.4-4.4l-13.6,70C-157,173.8-154.7,174.7-153.9,173.2z"/>
				<path class="st1" d="M-169.9,96.4c-1,0.1-1.7-1-1.2-1.9l41.5-66.3c-0.6-0.5-1.6-0.5-2.2,0.3l-55.4,73.2
					c-1.6,2.1,0.1,5.2,2.8,4.9l41.4-4.4l-13.6,70c-0.2,0.9,0.5,1.6,1.2,1.8l23.2-73.5c1.1-3.4-1.7-6.9-5.3-6.6L-169.9,96.4z"/>
			</g>
		</g>
		<g>
			<linearGradient id="SVGID_2_" gradientUnits="userSpaceOnUse" x1="-389.9167" y1="172.5544" x2="-389.9167" y2="31.4503">
				<stop  offset="0" style="stop-color:#001354"/>
				<stop  offset="1" style="stop-color:#D7435D"/>
			</linearGradient>
			<path class="st2" d="M-391,59.9c6.7-14.7,21.3-28.4,38.6-28.4c23.5,0,41.3,18.2,43.5,40.9c0,0,1.3,5.8-1.3,16
				c-3.6,13.8-11.5,26.2-22.6,35.5l-56,48.4c-0.4,0.4-1.3,0.4-1.8,0l-56.4-48.4c-11.1-9.3-19.1-21.8-22.6-35.5
				c-2.7-10.2-1.3-16-1.3-16c2.2-22.6,18.2-40.9,41.7-40.9C-411.9,31.5-397.2,45.2-391,59.9"/>
		</g>
		<g>
			<linearGradient id="SVGID_3_" gradientUnits="userSpaceOnUse" x1="-659.845" y1="159.6969" x2="-741.4937" y2="43.0906">
				<stop  offset="0" style="stop-color:#001354"/>
				<stop  offset="1" style="stop-color:#D7435D"/>
			</linearGradient>
			<path class="st3" d="M-634.1,69.4l-48.1-4.5l-19.1-44.4c-1.3-3.1-5.7-3.1-7.1,0L-727.5,65l-48.1,4.5c-3.4,0.3-4.7,4.5-2.2,6.7
				l36.3,31.9l-10.6,47.1c-0.7,3.3,2.8,5.9,5.7,4.2l41.5-24.7l41.5,24.7c2.9,1.7,6.5-0.9,5.7-4.2l-10.6-47.1l36.3-31.9
				C-629.4,73.9-630.7,69.8-634.1,69.4z"/>
		</g>
		<g>
			<g>
				<g>
					<linearGradient id="SVGID_4_" gradientUnits="userSpaceOnUse" x1="351.4743" y1="408.7849" x2="351.4743" y2="371.8763">
						<stop  offset="1" style="stop-color:#001354"/>
						<stop  offset="1" style="stop-color:#D7435D"/>
					</linearGradient>
					<path class="st4" d="M334.9,371.9v28.4c0,4.7,3.8,8.6,8.6,8.6h16c4.7,0,8.6-3.8,8.6-8.6v-28.4H334.9z"/>
					<linearGradient id="SVGID_5_" gradientUnits="userSpaceOnUse" x1="243.7494" y1="408.7849" x2="243.7494" y2="371.8763">
						<stop  offset="1" style="stop-color:#001354"/>
						<stop  offset="1" style="stop-color:#D7435D"/>
					</linearGradient>
					<path class="st5" d="M227.2,371.9v28.4c0,4.7,3.8,8.6,8.6,8.6h16c4.7,0,8.6-3.8,8.6-8.6v-28.4H227.2z"/>
				</g>
				<g>
					<linearGradient id="SVGID_6_" gradientUnits="userSpaceOnUse" x1="243.7494" y1="371.8763" x2="243.7494" y2="355.882">
						<stop  offset="0" style="stop-color:#001354"/>
						<stop  offset="1" style="stop-color:#D7435D"/>
					</linearGradient>
					<path class="st6" d="M251.8,355.9h-16c-4.7,0-8.6,3.8-8.6,8.6v7.4h33.1v-7.4C260.3,359.7,256.5,355.9,251.8,355.9z"/>
					<linearGradient id="SVGID_7_" gradientUnits="userSpaceOnUse" x1="351.4743" y1="371.8763" x2="351.4743" y2="355.882">
						<stop  offset="0" style="stop-color:#001354"/>
						<stop  offset="1" style="stop-color:#D7435D"/>
					</linearGradient>
					<path class="st7" d="M343.5,355.9h16c4.7,0,8.6,3.8,8.6,8.6v7.4h-33.1v-7.4C334.9,359.7,338.7,355.9,343.5,355.9z"/>
				</g>
				<g class="st8">
					<path d="M251.8,355.9h-16c-4.7,0-8.6,3.8-8.6,8.6v7.4h33.1v-7.4C260.3,359.7,256.5,355.9,251.8,355.9z"/>
					<path d="M343.5,355.9h16c4.7,0,8.6,3.8,8.6,8.6v7.4h-33.1v-7.4C334.9,359.7,338.7,355.9,343.5,355.9z"/>
				</g>
				<linearGradient id="SVGID_8_" gradientUnits="userSpaceOnUse" x1="277.1262" y1="290.8557" x2="318.0981" y2="290.8557">
					<stop  offset="0" style="stop-color:#001354"/>
					<stop  offset="1" style="stop-color:#D7435D"/>
				</linearGradient>
				<path class="st9" d="M297.6,311.3c-11.3,0-20.5-9.2-20.5-20.5c0-11.3,9.2-20.5,20.5-20.5c11.3,0,20.5,9.2,20.5,20.5
					C318.1,302.2,308.9,311.3,297.6,311.3z M297.6,278.9L297.6,278.9c-6.6,0-11.9,5.4-11.9,11.9s5.4,11.9,11.9,11.9
					s11.9-5.4,11.9-11.9S304.2,278.9,297.6,278.9z"/>
				<linearGradient id="SVGID_9_" gradientUnits="userSpaceOnUse" x1="297.6121" y1="422.9544" x2="297.6121" y2="290.8557">
					<stop  offset="0" style="stop-color:#001354"/>
					<stop  offset="1" style="stop-color:#D7435D"/>
				</linearGradient>
				<path class="st10" d="M351.2,414.4c0,4.7-3.8,8.6-8.6,8.6h-90.1c-4.7,0-8.6-3.8-8.6-8.6v-115c0-4.7,3.8-8.6,8.6-8.6h90.1
					c4.7,0,8.6,3.8,8.6,8.6L351.2,414.4L351.2,414.4z"/>
				<path class="st11" d="M351.2,338.1c0,4.7-3.8,8.6-8.6,8.6h-90.1c-4.7,0-8.6-3.8-8.6-8.6v-38.6c0-4.7,3.8-8.6,8.6-8.6h90.1
					c4.7,0,8.6,3.8,8.6,8.6L351.2,338.1L351.2,338.1z"/>
				<linearGradient id="SVGID_10_" gradientUnits="userSpaceOnUse" x1="297.6124" y1="394.6171" x2="297.6124" y2="371.8763">
					<stop  offset="0" style="stop-color:#001354"/>
					<stop  offset="1" style="stop-color:#D7435D"/>
				</linearGradient>
				<path class="st12" d="M310.3,371.9h-25.4c-4.7,0-8.6,3.8-8.6,8.6v14.2h42.5v-14.2C318.9,375.7,315,371.9,310.3,371.9z"/>
				<linearGradient id="SVGID_11_" gradientUnits="userSpaceOnUse" x1="297.6121" y1="422.9544" x2="297.6121" y2="394.6176">
					<stop  offset="0" style="stop-color:#001354"/>
					<stop  offset="1" style="stop-color:#D7435D"/>
				</linearGradient>
				<polygon class="st13" points="276.4,394.6 276.4,423 318.9,423 318.9,394.6 				"/>
				<polygon class="st14" points="260.2,290.9 260.2,362.1 266.7,369.4 273.1,362.1 273.1,290.9 				"/>
				<path class="st15" d="M273.8,353.9h-14.3c-0.8,0-1.4-0.6-1.4-1.4v-14.3c0-0.8,0.6-1.4,1.4-1.4h14.3c0.8,0,1.4,0.6,1.4,1.4v14.3
					C275.2,353.3,274.6,353.9,273.8,353.9z M260.9,351.1L260.9,351.1h11.5v-11.5h-11.5V351.1z"/>
				<polygon class="st14" points="322.1,290.9 322.1,362.1 328.6,369.4 335,362.1 335,290.9 				"/>
				<path class="st15" d="M335.7,353.9h-14.3c-0.8,0-1.4-0.6-1.4-1.4v-14.3c0-0.8,0.6-1.4,1.4-1.4h14.3c0.8,0,1.4,0.6,1.4,1.4v14.3
					C337.1,353.3,336.5,353.9,335.7,353.9z M322.8,351.1L322.8,351.1h11.5v-11.5h-11.5V351.1z"/>
				<polygon class="st14" points="291.2,387.7 291.2,411.6 297.6,418.9 304,411.6 304,387.7 				"/>
				<path class="st15" d="M304.8,403.4h-14.3c-0.8,0-1.4-0.6-1.4-1.4v-14.3c0-0.8,0.6-1.4,1.4-1.4h14.3c0.8,0,1.4,0.6,1.4,1.4V402
					C306.2,402.8,305.6,403.4,304.8,403.4z M291.9,400.6L291.9,400.6h11.5v-11.5h-11.5V400.6z"/>
			</g>
		</g>
		<g>
			<path class="st16" d="M350.8,145c-17.7-28.7-8.7-66.3,20-84c28.7-17.7,66.3-8.7,84,20c6.1,9.9,9.2,21.3,9.1,32.9
				c-1.1,33.7-28.9,60.4-62.7,60.1h-56.3l5.9-10.1C354.3,158.1,354.3,150.8,350.8,145z"/>
			<linearGradient id="SVGID_12_" gradientUnits="userSpaceOnUse" x1="332.7959" y1="153.1426" x2="455.5629" y2="82.263">
				<stop  offset="0" style="stop-color:#001354"/>
				<stop  offset="1" style="stop-color:#D7435D"/>
			</linearGradient>
			<linearGradient id="SVGID_13_" gradientUnits="userSpaceOnUse" x1="339.76" y1="112.9359" x2="465.8418" y2="112.9359">
				<stop  offset="0" style="stop-color:#001354"/>
				<stop  offset="1" style="stop-color:#D7435D"/>
			</linearGradient>
			<path class="st17" d="M350.8,145c-17.7-28.7-8.7-66.3,20-84c28.7-17.7,66.3-8.7,84,20c6.1,9.9,9.2,21.3,9.1,32.9
				c-1.1,33.7-28.9,60.4-62.7,60.1h-56.3l5.9-10.1C354.3,158.1,354.3,150.8,350.8,145z"/>
			<path class="st15" d="M410.5,104.4L410.5,104.4c0,4.4-4.1,7.1-14.6,7.6l-0.4,0.4l1.9,13.5h8.7l0.9-5.1
				c8.9-1.6,16.1-5.9,16.1-16.6l0,0c0-11.1-8.2-17.4-20.2-17.4c-7.8-0.2-15.3,3.1-20.4,9l7.7,8.4c3.2-3.6,7.7-5.7,12.5-5.8
				C407.7,98.4,410.5,100.6,410.5,104.4z"/>
			<rect x="394.6" y="132.5" class="st15" width="13.5" height="13.3"/>
			<path class="st18" d="M350.8,145c-17.7-28.7-8.7-66.3,20-84c28.7-17.7,66.3-8.7,84,20c6.1,9.9,9.2,21.3,9.1,32.9
				c-1.1,33.7-28.9,60.4-62.7,60.1h-56.3l5.9-10.1C354.3,158.1,354.3,150.8,350.8,145z"/>
			<g>
				<defs>
					<path id="SVGID_14_" d="M457.9,61.6C427.6,114,341.7,162,341.7,162l-6.4,21.1l101.4,1.1l40.7-54.3L457.9,61.6z"/>
				</defs>
				<clipPath id="SVGID_15_">
					<use xlink:href="#SVGID_14_"  style="overflow:visible;"/>
				</clipPath>
				<path class="st19" d="M350.8,145c-17.7-28.7-8.7-66.3,20-84c28.7-17.7,66.3-8.7,84,20c6.1,9.9,9.2,21.3,9.1,32.9
					c-1.1,33.7-28.9,60.4-62.7,60.1h-56.3l5.9-10.1C354.3,158.1,354.3,150.8,350.8,145z"/>
			</g>
		</g>
		<g class="st8">
			<defs>
				<path id="SVGID_16_" class="st8" d="M-308.5,38.8c-51,91.6-138.1,110.8-138.1,110.8l56.7,42.7l99.9-92.1L-308.5,38.8z"/>
			</defs>
			<clipPath id="SVGID_17_">
				<use xlink:href="#SVGID_16_"  style="overflow:visible;"/>
			</clipPath>
			<g class="st20">
				<path d="M-391,59.9c6.7-14.7,21.3-28.4,38.6-28.4c23.5,0,41.3,18.2,43.5,40.9c0,0,1.3,5.8-1.3,16c-3.6,13.8-11.5,26.2-22.6,35.5
					l-56,48.4c-0.4,0.4-1.3,0.4-1.8,0l-56.4-48.4c-11.1-9.3-19.1-21.8-22.6-35.5c-2.7-10.2-1.3-16-1.3-16
					c2.2-22.6,18.2-40.9,41.7-40.9C-411.9,31.5-397.2,45.2-391,59.9"/>
			</g>
		</g>
		<g class="st8">
			<defs>
				<path id="SVGID_18_" class="st8" d="M348.4,266.4c-10.1,78.9-133.9,122.8-133.9,122.8l22.9,22h126.1V302.5L348.4,266.4z"/>
			</defs>
			<clipPath id="SVGID_19_">
				<use xlink:href="#SVGID_18_"  style="overflow:visible;"/>
			</clipPath>
			<g class="st21">
				<g>
					<g>
						<path d="M328.3,357.8v28.4c0,4.7,3.8,8.6,8.6,8.6h16c4.7,0,8.6-3.8,8.6-8.6v-28.4H328.3z"/>
						<path d="M220.6,357.8v28.4c0,4.7,3.8,8.6,8.6,8.6h16c4.7,0,8.6-3.8,8.6-8.6v-28.4H220.6z"/>
					</g>
					<g>
						<path d="M245.2,341.8h-16c-4.7,0-8.6,3.8-8.6,8.6v7.4h33.1v-7.4C253.7,345.6,249.9,341.8,245.2,341.8z"/>
						<path d="M336.9,341.8h16c4.7,0,8.6,3.8,8.6,8.6v7.4h-33.1v-7.4C328.3,345.6,332.2,341.8,336.9,341.8z"/>
					</g>
					<g class="st8">
						<path d="M245.2,341.8h-16c-4.7,0-8.6,3.8-8.6,8.6v7.4h33.1v-7.4C253.7,345.6,249.9,341.8,245.2,341.8z"/>
						<path d="M336.9,341.8h16c4.7,0,8.6,3.8,8.6,8.6v7.4h-33.1v-7.4C328.3,345.6,332.2,341.8,336.9,341.8z"/>
					</g>
					<path d="M291,297.2c-11.3,0-20.5-9.2-20.5-20.5c0-11.3,9.2-20.5,20.5-20.5c11.3,0,20.5,9.2,20.5,20.5
						C311.5,288.1,302.3,297.2,291,297.2z M291,264.8L291,264.8c-6.6,0-11.9,5.4-11.9,11.9s5.4,11.9,11.9,11.9
						c6.6,0,11.9-5.4,11.9-11.9S297.6,264.8,291,264.8z"/>
					<path d="M344.6,400.3c0,4.7-3.8,8.6-8.6,8.6H246c-4.7,0-8.6-3.8-8.6-8.6v-115c0-4.7,3.8-8.6,8.6-8.6h90.1
						c4.7,0,8.6,3.8,8.6,8.6L344.6,400.3L344.6,400.3z"/>
					<path class="st22" d="M344.6,324c0,4.7-3.8,8.6-8.6,8.6H246c-4.7,0-8.6-3.8-8.6-8.6v-38.6c0-4.7,3.8-8.6,8.6-8.6h90.1
						c4.7,0,8.6,3.8,8.6,8.6L344.6,324L344.6,324z"/>
					<path d="M303.7,357.8h-25.4c-4.7,0-8.6,3.8-8.6,8.6v14.2h42.5v-14.2C312.3,361.6,308.5,357.8,303.7,357.8z"/>
					<polygon points="269.8,380.5 269.8,408.9 312.3,408.9 312.3,380.5 					"/>
					<polygon class="st14" points="253.7,276.8 253.7,348 260.1,355.3 266.5,348 266.5,276.8 					"/>
					<path d="M267.2,339.8h-14.3c-0.8,0-1.4-0.6-1.4-1.4v-14.3c0-0.8,0.6-1.4,1.4-1.4h14.3c0.8,0,1.4,0.6,1.4,1.4v14.3
						C268.7,339.2,268,339.8,267.2,339.8z M254.4,337L254.4,337h11.5v-11.5h-11.5V337z"/>
					<polygon class="st14" points="315.6,276.8 315.6,348 322,355.3 328.4,348 328.4,276.8 					"/>
					<path d="M329.2,339.8h-14.3c-0.8,0-1.4-0.6-1.4-1.4v-14.3c0-0.8,0.6-1.4,1.4-1.4h14.3c0.8,0,1.4,0.6,1.4,1.4v14.3
						C330.6,339.2,329.9,339.8,329.2,339.8z M316.3,337L316.3,337h11.5v-11.5h-11.5V337z"/>
					<polygon class="st14" points="284.6,373.6 284.6,397.5 291,404.8 297.5,397.5 297.5,373.6 					"/>
					<path d="M298.2,389.3h-14.3c-0.8,0-1.4-0.6-1.4-1.4v-14.3c0-0.8,0.6-1.4,1.4-1.4h14.3c0.8,0,1.4,0.6,1.4,1.4v14.3
						C299.6,388.7,299,389.3,298.2,389.3z M285.3,386.5L285.3,386.5h11.5V375h-11.5V386.5z"/>
				</g>
			</g>
		</g>
	</g>
	<g class="st8">
		<defs>
			<path id="SVGID_20_" class="st8" d="M-756.6,135c0,0,87.7-27.2,103.4-98.8v25.9l26.4,4.2v16l-33.6,27.7l7.2,54.6l-51.7-16.8
				l-51.7,21.1V135z"/>
		</defs>
		<clipPath id="SVGID_21_">
			<use xlink:href="#SVGID_20_"  style="overflow:visible;"/>
		</clipPath>
		<g class="st23">
			<path d="M-634.1,69.4l-48.2-4.5l-19.1-44.4c-1.3-3.1-5.8-3.1-7.1,0L-727.6,65l-48.2,4.5c-3.4,0.3-4.7,4.5-2.2,6.7l36.4,31.9
				l-10.6,47.2c-0.7,3.3,2.8,5.9,5.7,4.2l41.6-24.7l41.6,24.7c2.9,1.7,6.5-0.9,5.7-4.2l-10.6-47.2l36.4-31.9
				C-629.3,73.9-630.7,69.7-634.1,69.4z"/>
		</g>
	</g>
</g>
<g>
	<linearGradient id="SVGID_22_" gradientUnits="userSpaceOnUse" x1="138.8178" y1="121.4681" x2="61.4158" y2="44.0661">
		<stop  offset="0" style="stop-color:#001354"/>
		<stop  offset="1" style="stop-color:#D7435D"/>
	</linearGradient>
	<path class="st24" d="M135.3,101.4c0.2-0.2,0.2-0.2,0.5-0.5l0.2-0.2c0.2-0.2,0.2-0.2,0.2-0.5c6.3-7.9,10.3-18,10.3-29
		c0-25.7-20.8-46.5-46.5-46.5S53.5,45.6,53.5,71.3c0,11.7,4.2,22.2,11.2,30.4l0,0c0,0,14.5,16.1,14.5,37.4h42.1
		c0,0,1.6-23.6,12.6-36.2c0.2-0.2,0.2-0.2,0.5-0.5C134.6,102.1,135,101.6,135.3,101.4z"/>
	<path class="st25" d="M115.4,102.3c0.2-0.2,0.5-0.7,0.9-0.9c0.2-0.2,0.2-0.2,0.5-0.5l0.2-0.2c0.2-0.2,0.2-0.2,0.2-0.5
		c6.3-7.9,10.3-18,10.3-29c0-22.4-15.9-41.1-36.9-45.6c-21,4.4-36.9,23.1-36.9,45.6c0,11.7,4.2,22.2,11.2,30.4l0,0
		c0,0,14.5,16.1,14.5,37.4h23.1c0,0,1.6-23.6,12.6-36.2C115.2,102.6,115.4,102.6,115.4,102.3z"/>
	<g>
		<defs>
			<rect id="SVGID_23_" x="79.4" y="146.3" width="42" height="29"/>
		</defs>
		<clipPath id="SVGID_24_">
			<use xlink:href="#SVGID_23_"  style="overflow:visible;"/>
		</clipPath>
		<g class="st26">
			<linearGradient id="SVGID_25_" gradientUnits="userSpaceOnUse" x1="100.4151" y1="141.5926" x2="100.4151" y2="175.2406">
				<stop  offset="0" style="stop-color:#001354"/>
				<stop  offset="0.4356" style="stop-color:#392056"/>
				<stop  offset="0.6875" style="stop-color:#622958"/>
				<stop  offset="1" style="stop-color:#D7435D"/>
			</linearGradient>
			<path class="st27" d="M79.4,141.6v20.6c0,7.2,9.4,13.1,21,13.1s21-5.8,21-13.1v-20.6H79.4z"/>
			<path class="st28" d="M78.7,160.5c0,7.1,7.1,12.8,17.1,14.7c4.2-2.7,6.7-6.5,6.7-10.6v-24H79.1v19.9H78.7z"/>
		</g>
	</g>
</g>
<path class="st29" d="M110,97.1c-3.7,0-6.6,3-6.6,6.6v3.3h-6.6v-3.3c0-3.7-3-6.6-6.6-6.6c-3.7,0-6.6,3-6.6,6.6c0,3.7,3,6.6,6.6,6.6
	h3.3v27c0,0.9,0.7,1.7,1.7,1.7c0.9,0,1.7-0.7,1.7-1.7v-11.6c0-1.8,1.5-3.3,3.3-3.3c1.8,0,3.3,1.5,3.3,3.3v11.6
	c0,0.9,0.7,1.7,1.7,1.7c0.9,0,1.7-0.7,1.7-1.7v-27h3.3c3.7,0,6.6-3,6.6-6.6C116.6,100.1,113.6,97.1,110,97.1L110,97.1z M90,107
	c-1.8,0-3.3-1.5-3.3-3.3c0-1.8,1.5-3.3,3.3-3.3c1.8,0,3.3,1.5,3.3,3.3v3.3H90z M100,119.1c-1.2,0-2.3,0.3-3.3,0.9v-9.6h6.6v9.6
	C102.3,119.4,101.2,119.1,100,119.1L100,119.1z M110,107h-3.3v-3.3c0-1.8,1.5-3.3,3.3-3.3c1.8,0,3.3,1.5,3.3,3.3
	C113.3,105.6,111.8,107,110,107L110,107z M110,107"/>
</svg>
