<?xml version="1.0" standalone="no"?>
<!DOCTYPE svg PUBLIC "-//W3C//DTD SVG 20010904//EN"
 "http://www.w3.org/TR/2001/REC-SVG-20010904/DTD/svg10.dtd">
<svg version="1.0" xmlns="http://www.w3.org/2000/svg"
 width="700.000000pt" height="700.000000pt" viewBox="0 0 700.000000 700.000000"
 preserveAspectRatio="xMidYMid meet">
<metadata>
Created by potrace 1.11, written by Peter Selinger 2001-2013
</metadata>
<g transform="translate(0.000000,700.000000) scale(0.100000,-0.100000)"
fill="#000000" stroke="none">
<path d="M2250 5435 c-425 -59 -775 -362 -916 -793 -63 -194 -92 -430 -69
-575 4 -23 9 -55 11 -72 12 -72 58 -236 92 -320 98 -248 240 -463 427 -650 55
-56 242 -222 415 -370 173 -148 326 -279 340 -291 61 -53 822 -705 883 -757
81 -69 68 -73 222 62 61 53 142 123 180 156 39 33 72 62 75 65 3 3 37 32 75
65 39 33 72 62 75 65 3 3 84 73 180 155 96 83 181 157 190 165 16 15 55 49
221 191 495 425 581 505 682 629 194 240 341 552 392 830 18 99 24 283 11 360
-52 321 -162 548 -360 745 -101 100 -142 134 -231 187 -121 72 -301 136 -430
154 -117 15 -303 9 -394 -15 -202 -51 -377 -156 -546 -325 -113 -113 -224
-265 -274 -373 -14 -29 -27 -53 -31 -53 -3 0 -19 28 -35 63 -72 151 -210 330
-343 443 -253 216 -531 302 -842 259z"/>
</g>
</svg>
