<?xml version="1.0" encoding="utf-8"?>
<!-- Generator: Adobe Illustrator 21.0.0, SVG Export Plug-In . SVG Version: 6.00 Build 0)  -->
<svg version="1.1" id="Layer_1" xmlns="http://www.w3.org/2000/svg" xmlns:xlink="http://www.w3.org/1999/xlink" x="0px" y="0px"
	 viewBox="0 0 496.6 382" style="enable-background:new 0 0 496.6 382;" xml:space="preserve">
<style type="text/css">
	.st0{clip-path:url(#SVGID_2_);}
	.st1{clip-path:url(#SVGID_4_);fill:url(#SVGID_5_);}
	.st2{clip-path:url(#SVGID_7_);fill:url(#SVGID_8_);}
</style>
<g>
	<g>
		<g>
			<defs>
				<path id="SVGID_1_" d="M418.7,215.9L270.9,363.7c-13.7,13.7-36.1,13.7-49.7,0L73.3,215.9c-13.7-13.7-13.7-36.1,0-49.7
					L221.1,18.3c13.7-13.7,36.1-13.7,49.7,0l147.9,147.9C432.4,179.8,432.4,202.2,418.7,215.9z"/>
			</defs>
			<clipPath id="SVGID_2_">
				<use xlink:href="#SVGID_1_"  style="overflow:visible;"/>
			</clipPath>
			<g transform="matrix(1 0 0 1 0 9.536743e-07)" class="st0">
				
					<image style="overflow:visible;enable-background:new    ;" width="6000" height="4000" xlink:href="../../../../../../asdf.png"  transform="matrix(0.1031 0 0 0.1031 -49.6993 -13.5556)">
				</image>
			</g>
		</g>
	</g>
	<g>
		<g>
			<defs>
				<path id="SVGID_3_" d="M484.6,248.1h-40.5c-6.6,0-12-5.4-12-12v-87c0-6.6,5.4-12,12-12h40.5c6.6,0,12,5.4,12,12v87
					C496.6,242.7,491.2,248.1,484.6,248.1z"/>
			</defs>
			<clipPath id="SVGID_4_">
				<use xlink:href="#SVGID_3_"  style="overflow:visible;"/>
			</clipPath>
			
				<linearGradient id="SVGID_5_" gradientUnits="userSpaceOnUse" x1="246" y1="234.35" x2="246" y2="152.2214" gradientTransform="matrix(1 0 0 -1 0 384)">
				<stop  offset="0" style="stop-color:#001354"/>
				<stop  offset="0.3844" style="stop-color:#532557"/>
				<stop  offset="1" style="stop-color:#D7435D"/>
			</linearGradient>
			<path class="st1" d="M7.5,195.1L7.5,195.1c-2.6-2.6-2.6-6.9,0-9.5l34-34c2.6-2.6,6.9-2.6,9.5,0l0,0c2.6,2.6,2.6,6.9,0,9.5l-34,34
				C14.4,197.8,10.1,197.8,7.5,195.1z M7.5,186.2L7.5,186.2c-2.6,2.6-2.6,6.9,0,9.5l34,34c2.6,2.6,6.9,2.6,9.5,0l0,0
				c2.6-2.6,2.6-6.9,0-9.5l-34-34C14.4,183.5,10.1,183.5,7.5,186.2z M475,186.2l-34,34c-2.6,2.6-2.6,6.9,0,9.5l0,0
				c2.6,2.6,6.9,2.6,9.5,0l34-34c2.6-2.6,2.6-6.9,0-9.5l0,0C481.9,183.5,477.6,183.5,475,186.2z M484.5,195.7L484.5,195.7
				c2.6-2.6,2.6-6.9,0-9.5l-34-34c-2.6-2.6-6.9-2.6-9.5,0l0,0c-2.6,2.6-2.6,6.9,0,9.5l34,34C477.6,198.4,481.9,198.4,484.5,195.7z"
				/>
		</g>
	</g>
	<g>
		<g>
			<defs>
				<path id="SVGID_6_" d="M47,238H12c-6.6,0-12-5.4-12-12v-76.9c0-6.6,5.4-12,12-12h35c6.6,0,12,5.4,12,12V226
					C59,232.6,53.6,238,47,238z"/>
			</defs>
			<clipPath id="SVGID_7_">
				<use xlink:href="#SVGID_6_"  style="overflow:visible;"/>
			</clipPath>
			
				<linearGradient id="SVGID_8_" gradientUnits="userSpaceOnUse" x1="246" y1="152.35" x2="246" y2="234.4786" gradientTransform="matrix(1 0 0 -1 0 384)">
				<stop  offset="0" style="stop-color:#001354"/>
				<stop  offset="1" style="stop-color:#D7435D"/>
			</linearGradient>
			<path class="st2" d="M484.5,186.2L484.5,186.2c2.6,2.6,2.6,6.9,0,9.5l-34,34c-2.6,2.6-6.9,2.6-9.5,0l0,0c-2.6-2.6-2.6-6.9,0-9.5
				l34-34C477.6,183.5,481.9,183.5,484.5,186.2z M484.5,195.1L484.5,195.1c2.6-2.6,2.6-6.9,0-9.5l-34-34c-2.6-2.6-6.9-2.6-9.5,0l0,0
				c-2.6,2.6-2.6,6.9,0,9.5l34,34C477.6,197.8,481.9,197.8,484.5,195.1z M17,195.1l34-34c2.6-2.6,2.6-6.9,0-9.5l0,0
				c-2.6-2.6-6.9-2.6-9.5,0l-34,34c-2.6,2.6-2.6,6.9,0,9.5l0,0C10.1,197.8,14.4,197.8,17,195.1z M7.5,185.6L7.5,185.6
				c-2.6,2.6-2.6,6.9,0,9.5l34,34c2.6,2.6,6.9,2.6,9.5,0l0,0c2.6-2.6,2.6-6.9,0-9.5l-34-34C14.4,182.9,10.1,182.9,7.5,185.6z"/>
		</g>
	</g>
</g>
<g>
	<g>
		<defs>
			<path id="SVGID_9_" d="M418.7,215.9L270.9,363.7c-13.7,13.7-36.1,13.7-49.7,0L73.3,215.9c-13.7-13.7-13.7-36.1,0-49.7L221.1,18.3
				c13.7-13.7,36.1-13.7,49.7,0l147.9,147.9C432.4,179.8,432.4,202.2,418.7,215.9z"/>
		</defs>
		<clipPath id="SVGID_10_">
			<use xlink:href="#SVGID_9_"  style="overflow:visible;"/>
		</clipPath>
		<linearGradient id="SVGID_11_" gradientUnits="userSpaceOnUse" x1="246" y1="376.975" x2="246" y2="5.025">
			<stop  offset="0" style="stop-color:#001354"/>
			<stop  offset="1" style="stop-color:#D7435D"/>
		</linearGradient>
		<use xlink:href="#SVGID_9_"  style="overflow:visible;fill:none;stroke:url(#SVGID_11_);stroke-width:6;stroke-miterlimit:10;"/>
	</g>
</g>
</svg>
