<?xml version="1.0" encoding="utf-8"?>
<!-- Generator: Adobe Illustrator 21.0.0, SVG Export Plug-In . SVG Version: 6.00 Build 0)  -->
<svg version="1.1" id="Layer_1" xmlns="http://www.w3.org/2000/svg" xmlns:xlink="http://www.w3.org/1999/xlink" x="0px" y="0px"
	 viewBox="0 0 107.6 114" style="enable-background:new 0 0 107.6 114;" xml:space="preserve">
<style type="text/css">
	.st0{fill:#BF3725;}
</style>
<g>
	<g id="wgav3D.tif">
		<g>
			<path class="st0" d="M53.8,17c12.7,0,25.4,0,38.1,0c1,0,1.4,0.2,1.4,1.3c0,25.5,0,50.9,0,76.4c0,1-0.2,1.4-1.3,1.4
				c-25.5,0-50.9,0-76.4,0c-1,0-1.4-0.2-1.4-1.3c0-25.5,0-51,0-76.5c0-1.1,0.4-1.2,1.3-1.2C28.3,17,41.1,17,53.8,17z M43.7,52.7
				c0-5.8,0-11.5,0-17.1c0-1.8-1-2.8-2.8-2.8c-0.8,0-1.5,0-2.3,0c-1.7,0-2.8,1-2.8,2.7c0,13.8,0,27.5,0,41.3c0,1.8,1,2.8,2.8,2.8
				c0.9,0,1.7,0,2.6,0c1.3,0,2.5-1.2,2.5-2.5c0-2.3,0-4.5,0-6.8c0-2.4-0.6-5,0.3-7c0.8-2,3.1-3.3,4.7-5c0.1-0.1,0.1-0.1,0.2-0.2
				c0.6-0.8,1-0.7,1.5,0.1c3.7,5.6,7.5,11.1,11.2,16.7c1,1.5,1.7,3.5,3.2,4.3c1.5,0.9,3.6,0.1,5.5,0.3c1.1,0.1,1.5-0.5,1.9-1.3
				c0.4-0.8,0.6-1.4-0.1-2.3C66.7,68.3,61.4,60.5,56,52.7c-0.5-0.7-0.5-1.1,0.2-1.8c4.9-4.8,9.8-9.7,14.7-14.6
				c0.8-0.8,0.7-1.3,0.3-2.1c-0.4-0.8-0.5-1.6-1.7-1.5c-1.5,0.2-3,0.1-4.5,0c-0.9,0-1.5,0.3-2.1,0.9C56.5,40,50.2,46.3,43.7,52.7z"
				/>
		</g>
	</g>
	<rect x="14.2" y="17" class="st0" width="79.2" height="2.2"/>
	<rect x="14.2" y="94.9" class="st0" width="79.2" height="2.2"/>
	
		<rect x="-24.3" y="55.4" transform="matrix(6.123234e-17 -1 1 6.123234e-17 -41.1875 71.7748)" class="st0" width="79.2" height="2.2"/>
	
		<rect x="52.7" y="56.4" transform="matrix(6.123234e-17 -1 1 6.123234e-17 34.7719 149.7982)" class="st0" width="79.2" height="2.2"/>
</g>
</svg>
