<?xml version="1.0" encoding="utf-8"?>
<!-- Generator: Adobe Illustrator 21.0.0, SVG Export Plug-In . SVG Version: 6.00 Build 0)  -->
<svg version="1.1" id="Layer_1" xmlns="http://www.w3.org/2000/svg" xmlns:xlink="http://www.w3.org/1999/xlink" x="0px" y="0px"
	 viewBox="0 0 200 60.8" style="enable-background:new 0 0 200 60.8;" xml:space="preserve">
<style type="text/css">
	.st0{fill:#6A8E49;}
	.st1{fill:#75994E;}
	.st2{fill:#668746;}
	.st3{fill:#49484A;}
	.st4{fill:#C0BEBD;}
</style>
<g id="PZCpuc.tif">
	<g>
		<path class="st0" d="M8.4,27.7c0.2-0.8,0.2-1.6,0.3-2.3C9,23.2,9.5,21,10.3,19c0.2,0.3,0.3,0.6,0.4,0.9c2.8,8.4,5.6,16.9,8.5,25.3
			c0.1,0.2,0.1,0.5,0.4,0.6c-0.2,1-0.3,2-0.5,3c0,0.3,0,0.6-0.4,0.7c-2.2-1.8-4.2-3.8-5.9-6.1c-2.4-3.4-3.9-7.1-4.4-11.2
			c0-0.1,0-0.3-0.1-0.3C8.4,30.5,8.4,29.1,8.4,27.7z"/>
		<path class="st1" d="M19.6,45.8c-0.3,0-0.3-0.4-0.4-0.6c-2.8-8.4-5.7-16.9-8.5-25.3c-0.1-0.3-0.2-0.6-0.4-0.9
			c0.6-2,1.6-3.8,2.7-5.6c1.4-2.2,3.2-4.2,5.2-5.9c0.7-0.6,1.2-1.4,1.2-2.5c0.2,0.2,0.3,0.4,0.3,0.6c-0.2,0.1-0.1,0.3-0.1,0.5
			C20,8,20,9.8,20,11.6c0.1,4,0.1,7.9,0.1,11.9c0,0.8,0,1.5,0,2.3c0,2.2,0,4.4,0.1,6.6c0,1.2,0,2.4-0.1,3.5c-0.1,1.6,0,3.2-0.1,4.8
			c-0.1,1.1-0.1,2.2-0.1,3.3C19.7,44.6,19.8,45.2,19.6,45.8z"/>
		<path class="st0" d="M20.3,32.4c-0.1-2.2-0.1-4.4-0.1-6.6c0-0.8,0-1.5,0-2.3c0-4,0-7.9-0.1-11.9C20,9.8,20,8,19.8,6.2
			c0-0.2-0.1-0.4,0.1-0.5c0.8,2.1,2.5,3.6,3.9,5.3c3.7,4.2,5.9,9.1,7,14.5c0.3,1.7,0.4,3.5,0.3,5.2c-0.5,0.1-1,0.1-1.5,0.2
			c-1.7,0.3-3.4,0.6-5.2,0.8C23.1,32,21.7,32.3,20.3,32.4z"/>
		<path class="st2" d="M20.3,32.4c1.4,0,2.8-0.4,4.2-0.6c1.7-0.2,3.4-0.5,5.2-0.8c0.5-0.1,1-0.1,1.5-0.2c-0.1,2.4-0.5,4.8-1.3,7.2
			c-1.6,4.6-4.3,8.3-8.1,11.2c-0.7-0.2-1-0.8-1.2-1.4c-0.4-1.2-0.6-2.5-0.6-3.7c0.1-1.1,0-2.2,0.1-3.3c0.2-1.6,0-3.2,0.1-4.8
			C20.3,34.7,20.2,33.6,20.3,32.4z"/>
		<g>
			<path class="st3" d="M113.2,47.3c-0.2-0.2-0.4-0.2-0.6-0.2c-1.9-0.6-3.3-1.6-3.9-3.6c-0.3-1,0-1.9,0.7-2.6
				c0.8-0.8,1.7-1.5,2.6-2.1c0.4-0.3,0.4-0.4-0.1-0.6c-0.9-0.4-1.5-1-1.8-1.9c-0.1-0.4,0-0.7,0.3-0.9c0.7-0.4,1.3-0.8,2-1.2
				c0.4-0.3,0.4-0.5-0.1-0.6c-2.2-0.8-3.1-2.5-3.2-4.7c-0.1-2.2,0.9-3.8,2.8-4.8c2.4-1.3,4.8-1.6,7.3-0.6c0.9,0.4,1.7,0.5,2.7,0.5
				c0.8,0,1.6-0.2,2.2-0.8c0.6,1.6-0.4,2.9-2.2,2.8c-0.7-0.1-0.7-0.1-0.6,0.6c0.8,4.3-2.2,6.6-5.5,7.2c-0.4,0.1-0.8,0.1-1.1,0.1
				c-0.6,0.1-1.1,0.4-1.2,0.9c-0.1,0.5,0.3,1,1,1.1c0.8,0.2,1.7,0.2,2.5,0.2c1.1,0.1,2.3,0.2,3.4,0.4c2.9,0.4,4.2,2.7,3.3,5.5
				c-0.5,1.5-1.5,2.6-2.8,3.5c-1.3,0.9-2.7,1.5-4.2,1.8c-0.1,0-0.1,0-0.2,0.1C115.5,47.3,114.3,47.3,113.2,47.3z M115.1,38.7
				c-0.7-0.1-1.7,0.2-2.5,1c-1.6,1.4-1.6,3.4,0.2,4.7c1.8,1.3,5.2,1.5,7,0.2c1.2-0.8,1.8-1.8,1.5-3.3c-0.2-1.3-1.2-1.9-2.4-2.2
				C117.8,38.9,116.6,38.8,115.1,38.7z M118.6,28.4c0-1-0.2-2.2-1-3.1c-1.4-1.6-4-1.4-4.9,0.3c-0.9,1.7-0.5,4.5,0.9,5.8
				c1.7,1.6,4.1,0.9,4.8-1.2C118.5,29.6,118.6,29.1,118.6,28.4z"/>
			<path class="st4" d="M152.7,38.1c-2.1,0-4.3,0-6.4-0.1c-0.5,0-0.5-0.2-0.4-0.6c0.1-0.7,0.4-0.9,1.1-1c1.3-0.1,1.8-0.7,1.8-1.9
				c0.2-5.2,0.1-10.5,0.1-15.7c0-1.4-0.4-1.8-1.7-2.1c-0.5-0.1-1-0.2-1.6-0.2c-0.4,0-0.5-0.2-0.3-0.6c0.3-0.8,0.5-0.9,1.3-0.9
				c1.5,0,3.1,0.2,4.6,0.1c2.5-0.1,5.1-0.2,7.6,0c3.5,0.2,6.5,1.6,8.6,4.6c1.2,1.7,1.7,3.7,1.8,5.8c0.1,2.1-0.1,4.1-1.1,6
				c-1.6,3.3-4.4,5.3-7.9,6.2c-1.5,0.4-3,0.6-4.6,0.6C154.8,38.1,153.7,38.1,152.7,38.1z M152.5,26.5c0,2,0,4.7,0.1,7.3
				c0,1,0.5,1.7,1.4,2c1.4,0.5,2.7,0.6,4.2,0.4c2.7-0.3,4.6-1.7,5.8-4c1.5-2.9,1.7-5.9,0.8-9c-0.9-3.3-3-5.3-6.3-6.3
				c-0.9-0.3-1.9-0.4-2.9-0.4c-0.8-0.1-1.6-0.1-2.4,0.1c-0.4,0.1-0.7,0.4-0.7,0.8c0,1.4-0.1,2.9-0.1,4.3
				C152.5,23.2,152.5,24.5,152.5,26.5z"/>
			<path class="st4" d="M186.4,25c0.9,0.3,1.8,0.6,2.6,1.1c1.5,1,2.4,2.3,2.6,4.1c0.1,2-0.5,3.6-1.8,5c-1.3,1.2-2.8,2-4.5,2.5
				c-1.1,0.3-2.3,0.4-3.4,0.5c-2.1,0.2-4.1-0.1-6.2-0.1c-1.1,0-2.3-0.1-3.4-0.1c-0.4,0-0.5-0.1-0.4-0.5c0.2-0.9,0.4-1,1.3-1.1
				c0.4,0,0.8-0.2,1.2-0.3c0.5-0.1,0.7-0.5,0.7-1c0.2-2.2,0.2-4.5,0.2-6.7c0-3.3,0-6.6,0-9.9c0-1.4-0.5-1.9-1.9-2
				c-0.3,0-0.5,0-0.8-0.1c-0.3-0.1-0.7,0.1-0.7-0.4c0-0.6,0.5-1.1,0.9-1.1c1,0,2,0.1,3.1,0.1c2.5,0,5.1-0.2,7.6-0.1
				c1.6,0.1,3.1,0.4,4.4,1.3c1.2,0.8,1.8,2,1.9,3.4c0.2,2.4-1,3.9-2.9,5c-0.1,0.1-0.3,0.1-0.4,0.2C186.5,24.9,186.5,24.9,186.4,25z
				 M178.9,30.5C178.9,30.5,178.9,30.5,178.9,30.5c0,1.2,0,2.3,0,3.5c0,1.2,0.7,2,1.9,2.2c0.4,0.1,0.8,0.1,1.2,0.1
				c1.2,0.1,2.5,0,3.6-0.6c1.3-0.8,1.9-2,2.1-3.5c0.2-2.4-0.9-4.3-3-5.1c-1.8-0.7-3.6-0.7-5.5-0.6c-0.4,0-0.4,0.3-0.4,0.5
				C178.9,28.1,178.9,29.3,178.9,30.5z M181.2,24.7c0.7,0.1,1.4,0,2.1-0.1c1.3-0.1,2.1-0.8,2.6-2c0.3-0.8,0.3-1.7,0.1-2.6
				c-0.2-1.3-1-2.2-2.2-2.8c-1.3-0.6-2.8-0.6-4.2-0.6c-0.6,0-0.8,0.3-0.8,0.8c0,2.3,0,4.6,0,6.8c0,0.3,0.1,0.4,0.4,0.4
				C179.9,24.7,180.5,24.8,181.2,24.7z"/>
			<path class="st3" d="M43.8,31.2c0,1.3,0,2.6,0,3.9c0,1,0.3,1.3,1.3,1.5c0.1,0,0.3,0.1,0.4,0.1c0.6,0,0.7,0.3,0.6,0.8
				C46,38,46,38.2,45.5,38.1c-2.2-0.1-4.5-0.1-6.7,0c-0.3,0-0.6,0-0.5-0.4c0-0.3-0.2-0.8,0.4-0.9c2-0.4,2-0.4,2.1-2.4
				c0.1-2.6,0.1-5.1,0-7.7c0-0.5-0.2-0.8-0.6-1c-0.5-0.3-1.1-0.5-1.6-0.7c-0.3-0.1-0.6-0.2-0.5-0.5c0-0.3,0.3-0.4,0.6-0.5
				c1.7-0.3,3.3-0.6,4.9-1.2c0.4-0.1,0.4,0.1,0.4,0.3c0,0.4,0,0.9-0.1,1.3c0,0.2-0.1,0.4,0.1,0.6c0.2,0.1,0.4-0.1,0.6-0.2
				c1-0.8,2.1-1.4,3.3-1.8c2-0.7,3.8-0.1,5,1.6c0.4,0.6,0.4,0.6,1.1,0.2c0.9-0.6,1.8-1.2,2.8-1.6c3.2-1.3,6,0.3,6.7,3.7
				c0.2,0.8,0.2,1.7,0.2,2.6c0,2,0,4,0,6.1c0,0.5,0.2,0.8,0.7,1c0.5,0.2,1,0.3,1.5,0.4c0.4,0,0.4,0.2,0.4,0.5
				c-0.1,0.8-0.1,0.8-0.9,0.8c-2.1-0.1-4.2-0.1-6.3,0c-0.3,0-0.6,0-0.5-0.4c0-0.3-0.3-0.8,0.4-0.9c1.8-0.4,1.8-0.4,1.8-2.2
				c0-2.1,0.1-4.1,0-6.2c-0.1-2.3-2-3.7-4.3-3.2c-0.8,0.2-1.5,0.5-2.2,1c-0.3,0.2-0.4,0.4-0.3,0.7c0.2,1.7,0.1,3.5,0.1,5.2
				c0,1.1,0,2.3,0,3.4c0,0.5,0.3,0.8,0.7,0.9c0.4,0.1,0.8,0.3,1.2,0.3c0.6,0,0.5,0.5,0.5,0.8c0,0.4-0.2,0.6-0.6,0.5
				c-2.2-0.1-4.4-0.1-6.7,0c-0.3,0-0.6,0-0.5-0.4c0-0.3-0.2-0.8,0.4-0.9c0.3,0,0.6-0.1,0.9-0.2c0.9-0.2,1.1-0.4,1.1-1.3
				c0.1-2.3,0.2-4.7,0-7c-0.1-1.7-1-3-2.4-3.3c-1.6-0.4-3,0.3-4.3,1.2c-0.3,0.2-0.3,0.6-0.3,1C43.7,28.6,43.7,29.9,43.8,31.2
				C43.7,31.2,43.7,31.2,43.8,31.2z"/>
			<path class="st3" d="M93.1,25.2c0.6-0.5,1.1-0.8,1.7-1.2c0.9-0.6,1.9-1.1,2.9-1.3c2.3-0.4,4.4,0.9,5.2,3.2c0.3,1,0.4,2,0.4,3.1
				c0,2.1,0,4.3,0,6.4c0,0.6,0.2,1,0.8,1.1c0.4,0.1,0.7,0.2,1.1,0.2c0.6,0.1,0.7,0.2,0.6,1c0,0.5-0.3,0.7-0.8,0.6
				c-2.1-0.2-4.2-0.2-6.3,0c-0.9,0.1-1.2-0.4-0.9-1.3c0.1-0.2,0.2-0.2,0.4-0.3c0.4-0.1,0.7-0.1,1.1-0.2c0.5-0.1,0.7-0.4,0.8-0.9
				c0.1-2,0-4,0-6c0-0.4,0-0.8-0.1-1.3c-0.1-2.1-1.5-3.3-3.6-3.2c-0.9,0.1-1.7,0.3-2.5,0.8c-0.5,0.3-0.7,0.7-0.7,1.3
				c0,2.7,0,5.4,0.1,8c0,0.8,0.2,1,1,1.2c0.3,0.1,0.6,0.1,0.9,0.1c0.4,0,0.5,0.2,0.5,0.5c0,0.9-0.1,1-1,1c-2.1-0.1-4.2-0.1-6.3,0
				c-0.3,0-0.7,0.2-0.8-0.4c-0.1-0.9,0-1.1,0.6-1.2c1.6-0.3,1.7-0.4,1.7-2c0.1-2.6,0-5.2,0.1-7.9c0-0.5-0.2-0.8-0.6-1
				c-0.5-0.3-1.1-0.5-1.6-0.7c-0.3-0.1-0.6-0.2-0.6-0.6c0-0.4,0.3-0.5,0.7-0.6c1.7-0.3,3.3-0.6,4.9-1.3c0.2-0.1,0.3,0,0.4,0.2
				c0.1,0.2,0.1,0.5,0,0.8C93.2,24.1,93.1,24.6,93.1,25.2z"/>
			<path class="st3" d="M142.5,29.9c0,2.9-0.8,5.2-2.9,6.8c-3.2,2.4-7.7,2.4-10.3,0c-1.5-1.3-2.2-3.1-2.4-5
				c-0.3-2.4,0.2-4.6,1.9-6.4c2.4-2.5,6.8-3.3,9.8-1.8C141.4,24.9,142.4,27.3,142.5,29.9z M139.1,31.5c0-0.4,0-0.9-0.1-1.3
				c-0.2-1.7-0.7-3.3-1.9-4.5c-1.2-1.2-2.6-1.6-4.3-1.2c-1.6,0.4-2.3,1.7-2.6,3.2c-0.4,2.1-0.2,4.2,0.7,6.2c0.6,1.3,1.5,2.3,2.9,2.8
				c2.3,0.8,4.3-0.2,4.9-2.5C139.1,33.2,139.1,32.3,139.1,31.5z"/>
			<path class="st3" d="M75.9,38.5c-4.5,0-7-3-7.4-7c-0.2-2.9,0.5-5.3,3-7c1.8-1.3,3.9-1.9,6.1-1.7c2.8,0.3,4.8,1.7,5.9,4.3
				c0.6,1.3,0.7,2.7,0.6,4.1C83.7,36.1,79.7,38.4,75.9,38.5z M80.8,31.3c0-0.4,0-1.1-0.2-1.8c-0.3-1.7-0.9-3.2-2.3-4.3
				c-2.1-1.6-5.5-1.4-6.3,2.2c-0.4,1.6-0.3,3.1,0.1,4.6c0.4,1.5,1,2.8,2.3,3.8c1.8,1.5,5.5,1.6,6.2-2.2C80.7,33,80.8,32.2,80.8,31.3
				z"/>
		</g>
		<path class="st4" d="M19.9,44c0,1.3,0.2,2.5,0.6,3.7c0.2,0.6,0.5,1.2,1.2,1.4c-0.6,0.7-0.8,1.6-0.8,2.5c-0.1,1.3-0.2,2.6,0,3.9
			c0,0.1,0,0.2-0.2,0.2c-0.8,0-1.2-0.4-1.2-1.2c0-1.7-0.2-3.4-0.8-5c0.4-0.1,0.4-0.5,0.4-0.7c0.2-1,0.3-2,0.5-3
			C19.8,45.2,19.7,44.6,19.9,44z"/>
	</g>
</g>
</svg>
