<?xml version="1.0" encoding="utf-8"?>
<!-- Generator: Adobe Illustrator 21.0.0, SVG Export Plug-In . SVG Version: 6.00 Build 0)  -->
<svg version="1.1" id="Layer_1" xmlns="http://www.w3.org/2000/svg" xmlns:xlink="http://www.w3.org/1999/xlink" x="0px" y="0px"
	 viewBox="0 0 107.6 114" style="enable-background:new 0 0 107.6 114;" xml:space="preserve">
<style type="text/css">
	.st0{fill:#C2739B;}
	.st1{fill:#FDFDFD;}
	.st2{fill:#FDFCFD;}
</style>
<g id="_x35_Mkz0B.tif">
	<g>
		<path class="st0" d="M49,64.8c0.4-0.2,0.8-0.4,1.3-0.4c1.6,0.1,2.2,1,1.8,2.5c-0.9,3.2-1.8,6.5-2.4,9.8c-0.2,0.9-0.2,1.8-0.1,2.9
			c0.5-0.3,0.7-0.7,0.9-1.1c3.2-6.5,6.1-13.1,8.9-19.8c0.4-0.9,0.6-1.9,0.8-2.8c0.1-0.5,0.4-0.9,0.9-1c1.4-0.4,2.9-0.6,4.4-0.3
			c1.1,0.2,1.4,0.7,1,1.8c-1,2.6-1.4,5.2-0.8,7.9c0.3,1.1,0.8,2.1,1.5,3.5c0.1-0.3,0.1-0.5,0.2-0.6c2-3.3,3.9-6.7,5.5-10.2
			c0.6-1.2,0.7-2.6,1.1-3.9c0.2-0.8,0.7-1.2,1.4-1.4c1.3-0.3,2.6-0.4,3.9-0.2c1.2,0.2,1.5,0.7,1,1.8c-1.2,3-1.4,6.1-0.3,9.2
			c0.3,0.9,0.8,1.7,1.2,2.6c0.3,0.6,0.6,0.7,1.2,0.4c5.1-2.2,10.3-2.6,15.5-0.5c4,1.6,6.7,4.4,7.4,8.7c0,0.1,0.1,0.1,0.1,0.1
			c0,0.8,0,1.6,0,2.4c-0.3,0.2-0.3,0.5-0.4,0.8c-0.7,2-2.1,3.3-4,4.2c-0.4,0.2-1.1,0.6-1.4,0c-0.4-0.7,0.4-0.8,0.8-1
			c2.9-1.9,3.5-4.9,1.8-7.8c-0.9-1.5-2.1-2.6-3.6-3.3c-4.9-2.4-10-2.5-15.2-0.9c-0.6,0.2-0.7,0.4-0.5,1c0.8,2.4,1,4.7-0.6,6.8
			c-2.1,2.7-4.8,4.3-8.2,5c-0.2,0-0.5,0-0.7,0c-1.6-0.3-2.4-1.7-2-3.8c0.7-3.4,2.8-5.9,5.2-8.1c0.6-0.5,0.6-0.9,0.3-1.5
			c-1-1.8-1.7-3.8-2.1-5.9c-0.1-0.4,0-0.9-0.4-1.3c-1.6,3.2-3.3,6.3-5.3,9.2C68.8,70.4,68.7,71,69,72c1.1,2.9,1.3,5.9-0.9,8.4
			c-2.7,2.9-6.1,4.3-10.1,4c-1.3-0.1-1.8-1.2-1.4-2.5c0.2-0.7,0.7-1.1,1.1-1.7c1.8-2.4,4-4.6,5.7-7.1c0.5-0.7,0.5-1.2,0.1-1.9
			c-1.2-2.2-2-4.5-2.5-6.9c0-0.2-0.2-0.4-0.3-0.8c-0.1,0.3-0.2,0.5-0.3,0.7c-2.1,5.1-4.4,10.2-7.1,15.1c-1,1.8-1.8,3.7-3.3,5.2
			c-0.9,0.9-1.8,1.7-3.2,1.2c-1.3-0.4-1.7-1.6-1.9-2.7c0-0.1,0-0.3-0.1-0.4c-0.3-1.4-0.2-2.9-0.1-4.3c-0.6,1.3-1.2,2.5-1.8,3.8
			c-0.6,1.3-1.2,2.6-2.1,3.7c-1.6,2.1-4.5,2.1-6-0.1c-2.3-3.3-2.8-7-2.3-10.9c0.2-1.7,0.8-3.3,0.9-4.9c0.1,0,0.1,0,0.1-0.1
			c0,0-0.1,0.1-0.1,0.1c-1.7,0.9-3.4,1.9-5.1,2.8c-0.4,0.2-0.4,0.4-0.2,0.8c1.1,2.7,1.3,5.5,0.9,8.3c-1,7-5,11.7-11.6,14.1
			c-0.9,0.3-1.8,0.5-2.8,0.8c-1.4,0-2.8,0-4.2,0c-0.1-0.1-0.1-0.2-0.2-0.2c-3.4-1-5.2-3.9-4.9-7.4c0.3-4.2,2.6-7.2,5.7-9.7
			c3-2.5,6.4-4.5,9.8-6.3c0.4-0.2,0.9-0.5,1.4-0.8c-1.6-1.4-3.2-2.5-4.9-3.7c-3-2-6-4.1-8.7-6.6c-2.8-2.6-5.3-5.4-6.4-9.3
			c-0.7-2.6,0-5.1,1-7.4c1.8-4,4.6-7.4,7.9-10.3c7.9-6.9,17-11.5,27-14.5C44,18.9,50,18.5,56,19.9c3,0.7,5.9,1.9,8.2,4.1
			c2.3,2.3,3.2,5.1,3.1,8.2c-0.2,4.9-2.3,8.8-5.4,12.4C57.1,50.2,50.9,53,44,54.2c-3.4,0.6-6.8,0.8-10.2,0.2c-2.7-0.5-5-1.7-6.8-3.8
			c-0.5-0.6-0.9-1.3-1-2.2c0-0.3-0.1-0.6,0.2-0.7c0.3-0.1,0.5-0.1,0.7,0.1c3.3,3.6,7.6,3.7,12,3.1c6.3-0.9,12-3.3,16.8-7.6
			c2.6-2.4,4.8-5.1,5.7-8.6c1.1-4.2-0.4-7-4.5-8.4c-4-1.3-8-1.3-12.1-0.6C37.3,27,30.6,30.2,24.2,34c-3.5,2.1-6.7,4.4-9.6,7.4
			c-2.2,2.3-3.9,4.8-4.5,8c-0.6,3,0,5.7,1.7,8.1c1.5,2.2,3.6,3.8,5.6,5.5c2.8,2.2,5.7,4.2,8.2,6.9c0.4,0.4,0.6,0.3,1,0.1
			c3-1.7,6.1-3.3,9.1-5c0.6-0.3,1-0.8,1.4-1.3c1.6-2,3.6-3.6,5.9-4.6c0.9-0.4,1.9-0.7,2.8-0.6c1.7,0.1,2.9,1.4,3,3.5
			C49,62.8,48.9,63.8,49,64.8c0,0-0.1,0.1-0.1,0.1C48.9,64.9,48.9,64.9,49,64.8C48.9,64.8,48.9,64.8,49,64.8z M25.3,78
			c0.1-0.8-0.1-1.8-0.3-2.8c-0.1-0.6-0.3-0.8-0.9-0.4c-2.8,1.8-5.6,3.5-8.1,5.8c-2.1,1.8-3.6,3.9-4.1,6.7c-0.5,2.7,0.9,4.1,3.6,3.4
			C21.1,89.5,25.3,84.1,25.3,78z M37.8,76.6c0,1.2,0,2.4,0.5,3.6c0.4,0.9,0.9,1,1.5,0.2c0.4-0.5,0.8-1.1,1-1.7
			c1.7-3.9,3.2-7.8,4.5-11.9c0.3-1.1,0.7-2.2,0.8-3.3c0.1-1-0.4-1.3-1.4-1c-1,0.4-1.8,1-2.4,1.8C39.5,67.9,37.8,72,37.8,76.6z
			 M79.4,72.1c0-0.4,0.1-1.2-0.4-1.4c-0.5-0.2-0.7,0.6-1.1,0.9c-0.1,0.1-0.2,0.2-0.3,0.3c-1.2,1.4-2,3.1-2.5,4.9
			c-0.1,0.3-0.2,0.5,0,0.8c0.2,0.3,0.4,0,0.6,0C78,76.6,79.4,74.6,79.4,72.1z M65.4,75.2c-1.6,2-3.3,3.8-5.1,5.8
			C62.7,80.8,65.2,77.9,65.4,75.2z"/>
		<path class="st1" d="M49,64.8C48.9,64.8,48.9,64.8,49,64.8c-0.1,0.1-0.1,0.1-0.1,0.1C48.9,64.8,48.9,64.8,49,64.8L49,64.8z"/>
		<path class="st2" d="M33.6,69.8c0,0,0.1-0.1,0.1-0.1C33.7,69.8,33.7,69.9,33.6,69.8C33.6,69.8,33.6,69.8,33.6,69.8z"/>
	</g>
</g>
</svg>
