<?xml version="1.0" encoding="utf-8"?>
<!-- Generator: Adobe Illustrator 21.0.0, SVG Export Plug-In . SVG Version: 6.00 Build 0)  -->
<svg version="1.1" id="Layer_1" xmlns="http://www.w3.org/2000/svg" xmlns:xlink="http://www.w3.org/1999/xlink" x="0px" y="0px"
	 viewBox="0 0 107.6 114" style="enable-background:new 0 0 107.6 114;" xml:space="preserve">
<style type="text/css">
	.st0{fill:#EFBC4D;}
	.st1{fill:#D6693E;}
	.st2{fill:#E1903A;}
	.st3{fill:#E0913B;}
</style>
<g id="uVtjQx.tif">
	<g>
		<path class="st0" d="M18.6,54.9c-0.7-0.3-1.4-0.8-2.1-1.2c-0.2-0.1-0.2-0.3-0.2-0.5c0-3.8,0-7.5,0-11.3c0-0.4,0.2-0.5,0.5-0.7
			c2.9-1.7,5.9-3.3,8.8-5c3.3-1.9,6.6-3.7,9.9-5.6c3.3-1.9,6.6-3.7,9.9-5.6c3.4-1.9,6.8-3.8,10.2-5.7c1.1-0.6,2.2-1.2,3.3-1.9
			c0.2-0.1,0.4-0.2,0.7,0c2.7,1.6,5.4,3.1,8.1,4.7c2.8,1.6,5.6,3.2,8.5,4.8c3.3,1.8,6.6,3.7,9.8,5.5c1.6,0.9,3.1,1.8,4.7,2.7
			c0.4,0.2,0.5,0.5,0.5,0.9c0,3.6,0,7.2,0,10.7c0,0.6-0.2,1-0.8,1.3c-3.2,1.8-6.3,3.6-9.4,5.4c-0.3,0.2-0.6,0.4-1,0.1l0,0
			c0.1,0,0.2,0,0.4,0c1.3-0.5,2.4-1.3,3.6-2c2.1-1.1,4.1-2.3,6.1-3.5c0.7-0.4,1-0.9,1-1.6c0-0.1,0-0.2,0-0.3c0-3.1,0-6.1,0-9.2
			c0-0.3-0.1-0.6-0.1-0.9c0-0.5-0.2-0.5-0.6-0.3c-3.4,1.9-6.7,3.9-10.1,5.8c-0.3-0.2-0.7-0.4-1-0.6c-5.7-3.2-11.3-6.4-17-9.6
			c-1.1-0.6-2.1-1.3-3.2-1.7c-0.2,0-0.4,0.1-0.6,0.2c-1.5,0.9-3.1,1.7-4.6,2.6c-2.3,1.3-4.6,2.6-6.9,3.9c-1.4,0.8-2.7,1.5-4.1,2.3
			c-2.9,1.7-5.9,3.3-8.8,5c-2.4,1.4-4.8,2.7-7.2,4.1c-1.2-0.7-2.4-1.4-3.6-2c-2.2-1.2-4.3-2.5-6.5-3.7c-0.5-0.3-0.6-0.2-0.6,0.3
			c0,3.6,0,7.2,0,10.7c0,0.4,0.2,0.6,0.5,0.8C17.5,54.2,18.1,54.5,18.6,54.9z"/>
		<path class="st0" d="M60,42.3c-0.6-0.4-0.7-0.3-0.7,0.4c0,3.5,0,7,0,10.5c0,0.4,0.1,0.6,0.5,0.8c1.5,0.9,3.1,1.7,4.6,2.6
			c1,0.6,1.9,1.2,2.9,1.7c0.7,0.4,1.5,0.9,2.2,1.3c0.4,0.2,0.5,0.5,0.5,0.9c0,3.7,0,7.4,0,11.1c0,0.4-0.1,0.6-0.4,0.7
			c-2.6,1.5-5.2,3-7.8,4.5c-0.7,0.4-1.3,0.8-2,1.1c-0.3,0.2-0.4,0.4-0.4,0.8c0,3.5,0,6.9,0,10.4c0,0.9-0.2,1.4-1.1,1.9
			c-3.1,1.7-6.1,3.5-9.2,5.3c-0.4,0.2-0.7,0.2-1.1,0c-2.9-1.7-5.8-3.6-8.8-5.2c-1.2-0.7-1.5-1.5-1.5-2.8c0-11.1,0-22.2,0-33.3
			c0-1.1,0-1.2-1.1-0.6c-2.9,1.6-5.9,3.3-8.8,4.9c-0.5,0.3-1,0.3-1.5,0c-1.4-0.9-2.9-1.7-4.4-2.6c-0.1-0.1-0.3-0.1-0.3-0.3
			c1.6,1,3.3,1.9,4.9,2.9c0.2,0.1,0.4,0.3,0.6,0.2c0.2-0.1,0.4-0.2,0.6-0.3c2.4-1.3,4.8-2.7,7.2-4c0.9-0.5,1.8-1.1,2.8-1.5
			c0.2,0.5,0,1,0,1.5c0,11.3,0,22.6,0,33.9c0,0.1,0,0.2,0,0.3c0,0.4,0.1,0.6,0.4,0.8c0.6,0.4,1.2,0.7,1.8,1.1c2.7,1.6,5.3,3.2,8,4.8
			c0.2,0.1,0.3,0.3,0.5,0.1c0.1,0,0.2-0.1,0.3-0.1c0.5-0.1,0.9-0.4,1.3-0.7c0.8-0.4,1.6-0.8,2.3-1.4c0.1,0,0.1-0.1,0.2-0.1
			c0.1-0.1,0.3-0.2,0.4-0.2c0.2-0.1,0.5-0.2,0.7-0.4c0.7-0.3,1.3-0.6,1.9-1.1c0.2,0,0.4-0.1,0.5-0.2c0.1,0,0.2-0.1,0.3-0.2
			c0.6-0.2,1-0.6,1.5-0.9c0.5-0.3,1.2-0.3,1.2-1.1c0-1,0-2,0-2.9c0-2.6,0-5.2,0-7.8c0-0.2,0-0.4,0-0.5c0-0.1,0-0.2,0-0.4
			c0-0.1,0.1-0.1,0.1-0.2c0.3-0.1,0.6-0.3,0.8-0.4c1.6-0.9,3.2-1.9,4.9-2.8c1.4-0.8,2.8-1.6,4.3-2.5c0.3-0.2,0.5-0.4,0.5-0.8
			c0-3.7,0-7.4,0-11.1c0-0.4-0.1-0.5-0.5-0.3c-1.9,1.1-3.9,2.2-5.8,3.4c-1.4,0.8-2.9,1.6-4.3,2.4c-3.5-2-6.9-4-10.4-6
			c-0.1-0.1-0.2-0.1-0.2-0.3c0.1,0,0.2-0.1,0.3-0.1c3.3-1.9,6.5-3.8,9.8-5.7c0.4-0.2,0.4-0.5,0.4-0.8c0-3.6,0-7.2,0-10.7
			c0-0.3,0-0.5,0.1-0.8C59.5,41.9,59.8,42,60,42.3L60,42.3z"/>
		<path class="st1" d="M27.1,59.7c-0.3,0.1-0.4-0.1-0.6-0.2c-1.6-1-3.3-1.9-4.9-2.9c-0.1-0.1-0.2-0.1-0.4-0.2
			c-0.7-0.4-1.5-0.9-2.2-1.3c-0.1-0.1-0.2-0.1-0.4-0.2c-0.6-0.3-1.1-0.7-1.7-1c-0.3-0.2-0.5-0.4-0.5-0.8c0-3.6,0-7.2,0-10.7
			c0-0.5,0.1-0.6,0.6-0.3c2.2,1.2,4.3,2.5,6.5,3.7c1.2,0.7,2.4,1.4,3.6,2c0,3.7,0,7.5,0,11.2C27.1,59.2,27.1,59.5,27.1,59.7z"/>
		<path class="st0" d="M80.1,53.6c-1.8-1-3.5-2-5.3-3c-2.9-1.7-5.9-3.3-8.8-5c-2-1.1-4-2.2-6-3.3l0,0c0.2,0,0.4,0.1,0.5,0.2
			c3.1,1.7,6.1,3.4,9.2,5.2c2.8,1.6,5.6,3.2,8.4,4.8C78.8,52.8,79.5,53,80.1,53.6L80.1,53.6z"/>
		<path class="st0" d="M19,55.1c0.7,0.4,1.5,0.9,2.2,1.3C20.4,56.1,19.7,55.6,19,55.1z"/>
		<path class="st2" d="M27.1,59.7c0-0.3,0-0.5,0-0.8c0-3.7,0-7.5,0-11.2c2.4-1.4,4.8-2.7,7.2-4.1c2.9-1.7,5.9-3.3,8.8-5
			c1.4-0.8,2.7-1.5,4.1-2.3c2.3-1.3,4.6-2.6,6.9-3.9c1.5-0.9,3.1-1.7,4.6-2.6c0.2-0.1,0.4-0.2,0.6-0.2c0,2.3,0,4.6,0,6.9
			c0,1.7,0,3.5,0,5.2c-0.1,0.2-0.1,0.5-0.1,0.8c0,3.6,0,7.2,0,10.7c0,0.4-0.1,0.6-0.4,0.8c-3.3,1.9-6.5,3.8-9.8,5.7
			c-0.1,0.1-0.2,0.1-0.3,0.1c-0.2-0.2-0.1-0.5-0.1-0.7c0-3.4,0-6.9,0-10.3c0-0.7-0.1-0.8-0.7-0.4c-1.3,0.7-2.7,1.5-4,2.3
			c-2,1.1-4,2.2-6,3.3c-1,0.3-1.9,1-2.8,1.5c-2.4,1.3-4.8,2.7-7.2,4C27.5,59.6,27.3,59.6,27.1,59.7z"/>
		<path class="st1" d="M59.2,41.8c0-1.7,0-3.5,0-5.2c0-2.3,0-4.6,0-6.9c1.1,0.5,2.1,1.1,3.2,1.7c5.7,3.2,11.4,6.4,17,9.6
			c0.3,0.2,0.7,0.4,1,0.6c0,3.8,0,7.6,0,11.4c0,0.2,0,0.3,0,0.5c-0.1,0-0.2,0-0.4,0c-0.5-0.6-1.3-0.8-1.9-1.2
			c-2.8-1.6-5.6-3.2-8.4-4.8c-3.1-1.7-6.1-3.4-9.2-5.2c-0.2-0.1-0.3-0.2-0.5-0.2C59.8,42,59.5,41.9,59.2,41.8z"/>
		<path class="st3" d="M80.4,53.6c0-0.2,0-0.3,0-0.5c0-3.8,0-7.6,0-11.4c3.4-1.9,6.7-3.9,10.1-5.8c0.4-0.2,0.5-0.2,0.6,0.3
			c0,0.3,0.1,0.6,0.1,0.9c0,3.1,0,6.1,0,9.2c0,0.1,0,0.2,0,0.3c0,0.7-0.3,1.2-1,1.6c-2.1,1.1-4.1,2.3-6.1,3.5
			C82.8,52.3,81.7,53.1,80.4,53.6z"/>
		<path class="st1" d="M37.8,54c2-1.1,4-2.2,6-3.3c1.3-0.7,2.7-1.5,4-2.3c0.6-0.4,0.7-0.3,0.7,0.4c0,3.4,0,6.9,0,10.3
			c0,0.2-0.1,0.5,0.1,0.7c0,0.1,0.1,0.2,0.2,0.3c3.5,2,6.9,4,10.4,6c0,3.3,0,6.5,0,9.8c0,0.7,0,1.5,0,2.2c0,0.1-0.1,0.1-0.1,0.2
			c-1.2-0.7-2.3-1.3-3.5-2c-2.2-1.3-4.3-2.5-6.5-3.8c-0.6-0.4-0.7-0.3-0.7,0.4c0,7.6,0,15.2,0,22.8c0,0.2,0,0.4,0.1,0.6
			c-0.2,0.1-0.4,0-0.5-0.1c-2.7-1.6-5.3-3.2-8-4.8c-0.6-0.4-1.2-0.7-1.8-1.1c-0.3-0.2-0.5-0.4-0.4-0.8c0-0.1,0-0.2,0-0.3
			c0-11.3,0-22.6,0-33.9C37.8,55,37.9,54.5,37.8,54z"/>
		<path class="st2" d="M48.5,96.4c0-0.2-0.1-0.4-0.1-0.6c0-7.6,0-15.2,0-22.8c0-0.7,0.1-0.8,0.7-0.4c2.2,1.2,4.3,2.5,6.5,3.8
			c1.2,0.7,2.3,1.3,3.5,2c0,0.1,0,0.2,0,0.4c-0.2,0-0.4-0.1-0.4,0.2c0,0.3,0.2,0.3,0.4,0.3c0,2.6,0,5.2,0,7.8c0,1,0,2,0,2.9
			c-0.6-0.2-1.1,0.4-1.7,0.3c-0.2,0-0.3,0.3-0.3,0.5c0,0.1,0,0.2,0.1,0.2c0.1,0,0.2,0,0.2-0.1c0.4-0.8,0.3,0.1,0.5,0.1
			c-0.5,0.3-1,0.7-1.5,0.9c-0.1-0.1-0.1-0.2-0.2-0.1c-0.1,0.1-0.1,0.2-0.1,0.3c-0.2,0.1-0.3,0.2-0.5,0.2c-0.2-0.1-0.4-0.1-0.5-0.3
			c-0.3-0.5-0.8-0.2-1.2-0.2c-0.1,0-0.2,0-0.2,0.2c0,0.1,0.1,0.2,0.2,0.2c0.1,0,0.3,0,0.4,0l0,0c0,0.2-0.1,0.4-0.3,0.6
			c-0.2,0.1-0.3,0.3-0.3,0.5c-0.2,0.2-0.4,0.3-0.7,0.4c-0.3-0.2-0.5-0.3-0.9-0.2c0.2,0.2,0.4,0.3,0.5,0.4c-0.1,0-0.1,0.1-0.2,0.1
			c-0.3-0.2-0.6-0.4-0.9-0.1c-0.2,0.1-0.3,0-0.5-0.2c-0.4-0.5-0.4-0.5-0.7,0.1c0,0.1-0.1,0.2-0.2,0.3c-0.1,0.1-0.2,0.2,0,0.4
			c0.1,0.1,0.2,0,0.3-0.1c0.1-0.3,0.3-0.4,0.5-0.1c-0.1,0.1-0.3,0.2-0.3,0.3c-0.3,0.5-0.7,0.3-1.1,0.3c-0.4,0-0.2-0.4-0.2-0.7
			c0-6.4,0-12.8,0-19.2c0-0.6-0.2-1.2,0.1-1.8c0.1-0.1-0.1-0.2-0.2-0.3c-0.1-0.1-0.2-0.1-0.2,0c0,0.3-0.3,0.5-0.2,0.8
			c0.2,0.4,0.1,0.8,0.1,1.2c0,5.8,0,11.5,0,17.3c0,1,0,2-0.3,3c-0.1,0.3-0.1,0.6,0.1,0.9C48.7,96.4,48.6,96.4,48.5,96.4z M58.8,84.5
			c0-1.3,0-2.6,0-4c0-0.2,0-0.5-0.1-0.7c-0.1-0.2-0.3-0.4-0.5-0.4C57.9,79.5,58,79.8,58,80c0,2.7,0,5.3,0,8c0,0.2,0,0.4,0.1,0.6
			c0.1,0.2,0.2,0.5,0.5,0.4c0.3-0.1,0.2-0.4,0.2-0.6C58.8,87.1,58.8,85.8,58.8,84.5z M50.1,93c0.1-0.1,0.1-0.2,0.1-0.3
			c0-1.7,0-3.4,0-5c0-4.2,0-8.4,0-12.5c0-0.7,0-0.7,0.7-0.6c0.2,0,0.4,0,0.3-0.3c-0.1-0.4-0.5-0.7-0.9-0.7c-0.4,0-0.4,0.5-0.4,0.8
			c0,0.4,0.1,0.8,0.1,1.2c0,5.6,0,11.1,0,16.7C50,92.5,49.9,92.8,50.1,93z M58.1,78.2c-0.1-0.2-0.2-0.3-0.4-0.3
			c-0.2,0-0.2,0.3-0.2,0.4c0,0.2,0,0.3,0.2,0.3C57.9,78.6,58,78.4,58.1,78.2z M51.7,93.5c0-0.1-0.2-0.2-0.3-0.2
			c-0.1,0-0.3,0-0.3,0.2c0,0.2,0.2,0.2,0.3,0.2C51.5,93.7,51.6,93.7,51.7,93.5z M56.8,90.8c-0.6-0.2-0.7-0.2-1.1,0
			C56.1,90.9,56.4,90.9,56.8,90.8z M57.5,79.5c0-0.1-0.1-0.2-0.2-0.2c-0.1,0-0.2,0.1-0.2,0.2c0,0.1,0.1,0.1,0.2,0.1
			C57.4,79.7,57.5,79.6,57.5,79.5z M53.7,76c0-0.1-0.1-0.1-0.2-0.1c-0.1,0-0.2,0-0.2,0.1c0,0.1,0.1,0.1,0.2,0.1
			C53.6,76.2,53.7,76.1,53.7,76z M54,77.7c0-0.1,0-0.1,0-0.2c0,0-0.1,0-0.1,0c0,0,0,0.1,0,0.1C53.9,77.7,54,77.7,54,77.7z
			 M55.1,76.4c0,0-0.1,0-0.1-0.1c0,0,0,0.1,0,0.1C55,76.4,55,76.4,55.1,76.4C55.1,76.4,55.1,76.4,55.1,76.4z M55.5,76.6
			C55.5,76.6,55.4,76.6,55.5,76.6c0,0.1,0,0.1,0,0.1C55.5,76.7,55.5,76.7,55.5,76.6C55.5,76.6,55.5,76.6,55.5,76.6z"/>
		<path class="st3" d="M59.3,78.2c0-0.7,0-1.5,0-2.2c0-3.3,0-6.5,0-9.8c1.4-0.8,2.9-1.6,4.3-2.4c1.9-1.1,3.9-2.2,5.8-3.4
			c0.4-0.2,0.5-0.1,0.5,0.3c0,3.7,0,7.4,0,11.1c0,0.4-0.2,0.6-0.5,0.8c-1.4,0.8-2.8,1.6-4.3,2.5c-1.6,0.9-3.2,1.9-4.9,2.8
			C59.8,77.9,59.5,78,59.3,78.2z"/>
		<path class="st3" d="M48.8,96.3c-0.2-0.3-0.2-0.6-0.1-0.9c0.3-1,0.3-2,0.3-3c0-5.8,0-11.5,0-17.3c0-0.4,0-0.8-0.1-1.2
			c-0.1-0.3,0.1-0.5,0.2-0.8c0-0.1,0.1-0.1,0.2,0c0.1,0.1,0.2,0.2,0.2,0.3c-0.3,0.6-0.1,1.2-0.1,1.8c0,6.4,0,12.8,0,19.2
			c0,0.2-0.1,0.6,0.2,0.7c0.3,0,0.8,0.2,1.1-0.3c0.1-0.1,0.2-0.2,0.3-0.3c-0.3-0.2-0.4-0.1-0.5,0.1c-0.1,0.1-0.2,0.2-0.3,0.1
			c-0.2-0.1-0.1-0.2,0-0.4c0.1-0.1,0.2-0.2,0.2-0.3c0.2-0.6,0.2-0.6,0.7-0.1c0.1,0.1,0.3,0.3,0.5,0.2c0.4-0.3,0.6-0.1,0.9,0.1
			c-0.7,0.6-1.5,0.9-2.3,1.4C49.7,95.9,49.3,96.2,48.8,96.3z M49.4,95.5c0,0-0.1-0.1-0.1-0.1c0,0-0.1,0.1-0.1,0.1c0,0,0,0.1,0.1,0.1
			C49.3,95.6,49.4,95.6,49.4,95.5z"/>
		<path class="st3" d="M54.2,92.4c-0.1,0-0.3,0-0.4,0c-0.1,0-0.2-0.1-0.2-0.2c0-0.1,0.1-0.2,0.2-0.2c0.4,0,0.8-0.3,1.2,0.2
			c0.1,0.1,0.3,0.2,0.5,0.3c-0.5,0.5-1.2,0.8-1.9,1.1c0-0.2,0.1-0.4,0.3-0.5C54.2,92.8,54.2,92.6,54.2,92.4c0.1,0,0.2,0.1,0.3,0.1
			c0.1,0,0-0.1,0-0.2C54.4,92.1,54.3,92.2,54.2,92.4z"/>
		<path class="st3" d="M57.9,91.1c-0.2,0-0.1-1-0.5-0.1c0,0-0.1,0.1-0.2,0.1c-0.1,0-0.1-0.1-0.1-0.2c0-0.2,0.1-0.5,0.3-0.5
			c0.6,0.1,1-0.6,1.7-0.3C59.1,90.8,58.4,90.8,57.9,91.1z"/>
		<path class="st3" d="M52.6,94.1c-0.1-0.1-0.3-0.2-0.5-0.4c0.4-0.1,0.7-0.1,0.9,0.2C52.9,94,52.8,94.1,52.6,94.1z"/>
		<path class="st3" d="M59.1,79.2c-0.2,0-0.4-0.1-0.4-0.3c0-0.3,0.3-0.2,0.4-0.2C59.1,78.9,59.1,79.1,59.1,79.2z"/>
		<path class="st3" d="M56.1,92.2c0-0.1,0-0.3,0.1-0.3c0.1-0.1,0.2,0,0.2,0.1C56.3,92.1,56.2,92.2,56.1,92.2z"/>
		<path class="st3" d="M58.8,84.5c0,1.3,0,2.7,0,4c0,0.2,0.1,0.5-0.2,0.6c-0.3,0.1-0.4-0.3-0.5-0.4C58,88.4,58,88.2,58,88
			c0-2.7,0-5.3,0-8c0-0.2-0.1-0.5,0.1-0.5c0.2-0.1,0.4,0.2,0.5,0.4c0.1,0.2,0.1,0.4,0.1,0.7C58.8,81.8,58.8,83.1,58.8,84.5z"/>
		<path class="st3" d="M50.1,93c-0.2-0.3-0.1-0.5-0.1-0.7c0-5.6,0-11.1,0-16.7c0-0.4,0-0.8-0.1-1.2c0-0.3,0-0.8,0.4-0.8
			c0.4,0,0.7,0.3,0.9,0.7c0.1,0.2-0.1,0.3-0.3,0.3c-0.6-0.1-0.7-0.1-0.7,0.6c0,4.2,0,8.4,0,12.5c0,1.7,0,3.4,0,5
			C50.2,92.8,50.2,92.9,50.1,93z"/>
		<path class="st3" d="M58.1,78.2c-0.1,0.2-0.2,0.4-0.4,0.4c-0.2,0-0.3-0.1-0.2-0.3c0-0.2,0-0.4,0.2-0.4C57.8,77.9,58,78,58.1,78.2z
			"/>
		<path class="st3" d="M51.7,93.5c0,0.2-0.2,0.2-0.3,0.2c-0.1,0-0.3,0-0.3-0.2c0-0.2,0.2-0.2,0.3-0.2C51.5,93.3,51.6,93.3,51.7,93.5
			z"/>
		<path class="st3" d="M56.8,90.8c-0.4,0.1-0.7,0.1-1.1,0C56.1,90.6,56.2,90.6,56.8,90.8z"/>
		<path class="st3" d="M57.5,79.5c0,0.2-0.1,0.2-0.2,0.2c-0.1,0-0.2,0-0.2-0.1c0-0.1,0.1-0.2,0.2-0.2C57.4,79.3,57.5,79.4,57.5,79.5
			z"/>
		<path class="st3" d="M53.7,76c0,0.1-0.1,0.2-0.2,0.2c-0.1,0-0.2,0-0.2-0.1c0-0.1,0.1-0.1,0.2-0.1C53.6,75.9,53.7,75.9,53.7,76z"/>
		<path class="st3" d="M54,77.7c0,0-0.1,0-0.1,0c0,0,0-0.1,0-0.1c0,0,0.1,0,0.1,0C54,77.5,54.1,77.6,54,77.7z"/>
		<path class="st3" d="M55.1,76.4C55.1,76.4,55.1,76.4,55.1,76.4c-0.1,0.1-0.1,0.1-0.2,0c0,0,0-0.1,0-0.1
			C55,76.3,55.1,76.3,55.1,76.4z"/>
		<path class="st3" d="M55.5,76.6C55.5,76.6,55.5,76.6,55.5,76.6c0,0.1,0,0.1,0,0.1C55.5,76.7,55.4,76.7,55.5,76.6
			C55.4,76.6,55.5,76.6,55.5,76.6z"/>
		<path class="st2" d="M49.4,95.5c0,0.1-0.1,0.1-0.1,0.1c0,0-0.1-0.1-0.1-0.1c0,0,0-0.1,0.1-0.1C49.3,95.4,49.3,95.5,49.4,95.5z"/>
		<path class="st2" d="M54.2,92.4c0.1-0.2,0.2-0.2,0.3-0.1c0,0,0.1,0.2,0,0.2C54.5,92.5,54.3,92.4,54.2,92.4L54.2,92.4z"/>
	</g>
</g>
</svg>
