<?xml version="1.0" encoding="utf-8"?>
<!-- Generator: Adobe Illustrator 21.0.0, SVG Export Plug-In . SVG Version: 6.00 Build 0)  -->
<svg version="1.1" id="Layer_1" xmlns="http://www.w3.org/2000/svg" xmlns:xlink="http://www.w3.org/1999/xlink" x="0px" y="0px"
	 viewBox="0 0 200 200" style="enable-background:new 0 0 200 200;" xml:space="preserve">
<style type="text/css">
	.st0{fill:url(#SVGID_1_);}
	.st1{opacity:0.25;}
	.st2{fill:url(#SVGID_2_);}
	.st3{fill:url(#SVGID_3_);}
	.st4{fill:url(#SVGID_4_);}
	.st5{fill:url(#SVGID_5_);}
	.st6{fill:url(#SVGID_6_);}
	.st7{fill:url(#SVGID_7_);}
	.st8{opacity:0.2;}
	.st9{fill:url(#SVGID_8_);}
	.st10{fill:url(#SVGID_9_);}
	.st11{opacity:0.4;fill:#111111;}
	.st12{fill:url(#SVGID_10_);}
	.st13{fill:url(#SVGID_11_);}
	.st14{opacity:0.5;}
	.st15{fill:#EDEDED;}
	.st16{fill:#FFFFFF;}
	.st17{fill:url(#SVGID_12_);stroke:url(#SVGID_13_);stroke-width:4;stroke-miterlimit:10;}
	.st18{opacity:0.4;fill:none;stroke:#070506;stroke-width:4;stroke-miterlimit:10;}
	.st19{opacity:0.22;clip-path:url(#SVGID_15_);stroke:#070506;stroke-width:4;stroke-miterlimit:10;}
	.st20{opacity:0.4;clip-path:url(#SVGID_17_);}
	.st21{clip-path:url(#SVGID_19_);}
	.st22{opacity:0.4;}
	.st23{fill:url(#SVGID_20_);}
	.st24{opacity:0.1;fill:#FFFFFF;}
	.st25{fill:#FF6536;}
	.st26{fill:#FF421D;}
	.st27{fill:#FBBF00;}
	.st28{fill:#FFA900;}
	.st29{fill:#ED694A;}
	.st30{fill:#D8553A;}
	.st31{fill:#F4A32C;}
	.st32{fill:#E89528;}
	.st33{fill:#F4D44E;}
	.st34{fill:#EAE9E8;}
	.st35{fill:#F7E7A1;}
	.st36{fill:#E8C842;}
</style>
<g>
	<g>
		<g>
			<linearGradient id="SVGID_1_" gradientUnits="userSpaceOnUse" x1="302.0851" y1="98.2423" x2="392.9009" y2="98.2423">
				<stop  offset="0" style="stop-color:#001354"/>
				<stop  offset="1" style="stop-color:#D7435D"/>
			</linearGradient>
			<path class="st0" d="M336.1,170.6l56.4-97.1c1.3-2.2-0.5-4.9-3.1-4.6L351.9,74l9-47.1c0.3-1.6-1.7-2.5-2.7-1.2l-55.4,73.2
				c-1.6,2.1,0.1,5.2,2.8,4.9l41.4-4.4l-13.6,70C332.9,171.2,335.2,172.1,336.1,170.6z"/>
			<path class="st1" d="M320.1,93.8c-1,0.1-1.7-1-1.2-1.9l41.5-66.3c-0.6-0.5-1.6-0.5-2.2,0.3l-55.4,73.2c-1.6,2.1,0.1,5.2,2.8,4.9
				l41.4-4.4l-13.6,70c-0.2,0.9,0.5,1.6,1.2,1.8l23.2-73.5c1.1-3.4-1.7-6.9-5.3-6.6L320.1,93.8z"/>
		</g>
	</g>
	<g>
		<linearGradient id="SVGID_2_" gradientUnits="userSpaceOnUse" x1="100.0543" y1="169.9369" x2="100.0543" y2="28.8329">
			<stop  offset="0" style="stop-color:#001354"/>
			<stop  offset="1" style="stop-color:#D7435D"/>
		</linearGradient>
		<path class="st2" d="M98.9,57.3c6.7-14.7,21.3-28.4,38.6-28.4c23.5,0,41.3,18.2,43.5,40.9c0,0,1.3,5.8-1.3,16
			c-3.6,13.8-11.5,26.2-22.6,35.5l-56,48.4c-0.4,0.4-1.3,0.4-1.8,0L43,121.2c-11.1-9.3-19.1-21.8-22.6-35.5c-2.7-10.2-1.3-16-1.3-16
			C21.2,47,37.2,28.8,60.8,28.8C78.1,28.8,92.7,42.6,98.9,57.3"/>
	</g>
	<g>
		<linearGradient id="SVGID_3_" gradientUnits="userSpaceOnUse" x1="-169.8741" y1="157.0794" x2="-251.5227" y2="40.4731">
			<stop  offset="0" style="stop-color:#001354"/>
			<stop  offset="1" style="stop-color:#D7435D"/>
		</linearGradient>
		<path class="st3" d="M-144.1,66.8l-48.1-4.5L-211.3,18c-1.3-3.1-5.7-3.1-7.1,0l-19.1,44.4l-48.1,4.5c-3.4,0.3-4.7,4.5-2.2,6.7
			l36.3,31.9l-10.6,47.1c-0.7,3.3,2.8,5.9,5.7,4.2l41.5-24.7l41.5,24.7c2.9,1.7,6.5-0.9,5.7-4.2l-10.6-47.1l36.3-31.9
			C-139.4,71.3-140.7,67.1-144.1,66.8z"/>
	</g>
	<g>
		<g>
			<g>
				<linearGradient id="SVGID_4_" gradientUnits="userSpaceOnUse" x1="650.112" y1="159.2784" x2="650.112" y2="122.3697">
					<stop  offset="1" style="stop-color:#001354"/>
					<stop  offset="1" style="stop-color:#D7435D"/>
				</linearGradient>
				<path class="st4" d="M633.6,122.4v28.4c0,4.7,3.8,8.6,8.6,8.6h16c4.7,0,8.6-3.8,8.6-8.6v-28.4H633.6z"/>
				<linearGradient id="SVGID_5_" gradientUnits="userSpaceOnUse" x1="542.3871" y1="159.2784" x2="542.3871" y2="122.3697">
					<stop  offset="1" style="stop-color:#001354"/>
					<stop  offset="1" style="stop-color:#D7435D"/>
				</linearGradient>
				<path class="st5" d="M525.8,122.4v28.4c0,4.7,3.8,8.6,8.6,8.6h16c4.7,0,8.6-3.8,8.6-8.6v-28.4H525.8z"/>
			</g>
			<g>
				<linearGradient id="SVGID_6_" gradientUnits="userSpaceOnUse" x1="542.3871" y1="122.3697" x2="542.3871" y2="106.3754">
					<stop  offset="0" style="stop-color:#001354"/>
					<stop  offset="1" style="stop-color:#D7435D"/>
				</linearGradient>
				<path class="st6" d="M550.4,106.4h-16c-4.7,0-8.6,3.8-8.6,8.6v7.4h33.1v-7.4C558.9,110.2,555.1,106.4,550.4,106.4z"/>
				<linearGradient id="SVGID_7_" gradientUnits="userSpaceOnUse" x1="650.112" y1="122.3697" x2="650.112" y2="106.3754">
					<stop  offset="0" style="stop-color:#001354"/>
					<stop  offset="1" style="stop-color:#D7435D"/>
				</linearGradient>
				<path class="st7" d="M642.1,106.4h16c4.7,0,8.6,3.8,8.6,8.6v7.4h-33.1v-7.4C633.6,110.2,637.4,106.4,642.1,106.4z"/>
			</g>
			<g class="st8">
				<path d="M550.4,106.4h-16c-4.7,0-8.6,3.8-8.6,8.6v7.4h33.1v-7.4C558.9,110.2,555.1,106.4,550.4,106.4z"/>
				<path d="M642.1,106.4h16c4.7,0,8.6,3.8,8.6,8.6v7.4h-33.1v-7.4C633.6,110.2,637.4,106.4,642.1,106.4z"/>
			</g>
			<linearGradient id="SVGID_8_" gradientUnits="userSpaceOnUse" x1="575.7638" y1="41.3492" x2="616.7357" y2="41.3492">
				<stop  offset="0" style="stop-color:#001354"/>
				<stop  offset="1" style="stop-color:#D7435D"/>
			</linearGradient>
			<path class="st9" d="M596.2,61.8c-11.3,0-20.5-9.2-20.5-20.5c0-11.3,9.2-20.5,20.5-20.5c11.3,0,20.5,9.2,20.5,20.5
				C616.7,52.6,607.5,61.8,596.2,61.8z M596.2,29.4L596.2,29.4c-6.6,0-11.9,5.4-11.9,11.9s5.4,11.9,11.9,11.9
				c6.6,0,11.9-5.4,11.9-11.9S602.8,29.4,596.2,29.4z"/>
			<linearGradient id="SVGID_9_" gradientUnits="userSpaceOnUse" x1="596.2498" y1="173.4478" x2="596.2498" y2="41.3492">
				<stop  offset="0" style="stop-color:#001354"/>
				<stop  offset="1" style="stop-color:#D7435D"/>
			</linearGradient>
			<path class="st10" d="M649.8,164.9c0,4.7-3.8,8.6-8.6,8.6h-90.1c-4.7,0-8.6-3.8-8.6-8.6v-115c0-4.7,3.8-8.6,8.6-8.6h90.1
				c4.7,0,8.6,3.8,8.6,8.6L649.8,164.9L649.8,164.9z"/>
			<path class="st11" d="M649.8,88.5c0,4.7-3.8,8.6-8.6,8.6h-90.1c-4.7,0-8.6-3.8-8.6-8.6V49.9c0-4.7,3.8-8.6,8.6-8.6h90.1
				c4.7,0,8.6,3.8,8.6,8.6L649.8,88.5L649.8,88.5z"/>
			<linearGradient id="SVGID_10_" gradientUnits="userSpaceOnUse" x1="596.2501" y1="145.1105" x2="596.2501" y2="122.3697">
				<stop  offset="0" style="stop-color:#001354"/>
				<stop  offset="1" style="stop-color:#D7435D"/>
			</linearGradient>
			<path class="st12" d="M608.9,122.4h-25.4c-4.7,0-8.6,3.8-8.6,8.6v14.2h42.5v-14.2C617.5,126.2,613.7,122.4,608.9,122.4z"/>
			<linearGradient id="SVGID_11_" gradientUnits="userSpaceOnUse" x1="596.2498" y1="173.4478" x2="596.2498" y2="145.1111">
				<stop  offset="0" style="stop-color:#001354"/>
				<stop  offset="1" style="stop-color:#D7435D"/>
			</linearGradient>
			<polygon class="st13" points="575,145.1 575,173.4 617.5,173.4 617.5,145.1 			"/>
			<polygon class="st14" points="558.9,41.3 558.9,112.6 565.3,119.9 571.7,112.6 571.7,41.3 			"/>
			<path class="st15" d="M572.4,104.4h-14.3c-0.8,0-1.4-0.6-1.4-1.4V88.7c0-0.8,0.6-1.4,1.4-1.4h14.3c0.8,0,1.4,0.6,1.4,1.4V103
				C573.9,103.8,573.2,104.4,572.4,104.4z M559.6,101.6L559.6,101.6H571V90.1h-11.5V101.6z"/>
			<polygon class="st14" points="620.8,41.3 620.8,112.6 627.2,119.9 633.6,112.6 633.6,41.3 			"/>
			<path class="st15" d="M634.4,104.4h-14.3c-0.8,0-1.4-0.6-1.4-1.4V88.7c0-0.8,0.6-1.4,1.4-1.4h14.3c0.8,0,1.4,0.6,1.4,1.4V103
				C635.8,103.8,635.1,104.4,634.4,104.4z M621.5,101.6L621.5,101.6h11.5V90.1h-11.5V101.6z"/>
			<polygon class="st14" points="589.8,138.2 589.8,162.1 596.2,169.4 602.7,162.1 602.7,138.2 			"/>
			<path class="st15" d="M603.4,153.9h-14.3c-0.8,0-1.4-0.6-1.4-1.4v-14.3c0-0.8,0.6-1.4,1.4-1.4h14.3c0.8,0,1.4,0.6,1.4,1.4v14.3
				C604.8,153.3,604.2,153.9,603.4,153.9z M590.5,151.1L590.5,151.1H602v-11.5h-11.5V151.1z"/>
		</g>
	</g>
	<g>
		<path class="st16" d="M840.8,142.3c-17.7-28.7-8.7-66.3,20-84c28.7-17.7,66.3-8.7,84,20c6.1,9.9,9.2,21.3,9.1,32.9
			c-1.1,33.7-28.9,60.4-62.7,60.1h-56.3l5.9-10.1C844.2,155.5,844.3,148.2,840.8,142.3z"/>
		<linearGradient id="SVGID_12_" gradientUnits="userSpaceOnUse" x1="822.7668" y1="150.5251" x2="945.5339" y2="79.6456">
			<stop  offset="0" style="stop-color:#001354"/>
			<stop  offset="1" style="stop-color:#D7435D"/>
		</linearGradient>
		<linearGradient id="SVGID_13_" gradientUnits="userSpaceOnUse" x1="829.731" y1="110.3185" x2="955.8128" y2="110.3185">
			<stop  offset="0" style="stop-color:#001354"/>
			<stop  offset="1" style="stop-color:#D7435D"/>
		</linearGradient>
		<path class="st17" d="M840.8,142.3c-17.7-28.7-8.7-66.3,20-84c28.7-17.7,66.3-8.7,84,20c6.1,9.9,9.2,21.3,9.1,32.9
			c-1.1,33.7-28.9,60.4-62.7,60.1h-56.3l5.9-10.1C844.2,155.5,844.3,148.2,840.8,142.3z"/>
		<path class="st15" d="M900.5,101.8L900.5,101.8c0,4.4-4.1,7.1-14.6,7.6l-0.4,0.4l1.9,13.5h8.7l0.9-5.1c8.9-1.6,16.1-5.9,16.1-16.6
			l0,0c0-11.1-8.2-17.4-20.2-17.4c-7.8-0.2-15.3,3.1-20.4,9l7.7,8.4c3.2-3.6,7.7-5.7,12.5-5.8C897.6,95.8,900.5,98,900.5,101.8z"/>
		<rect x="884.6" y="129.9" class="st15" width="13.5" height="13.3"/>
		<path class="st18" d="M840.8,142.3c-17.7-28.7-8.7-66.3,20-84c28.7-17.7,66.3-8.7,84,20c6.1,9.9,9.2,21.3,9.1,32.9
			c-1.1,33.7-28.9,60.4-62.7,60.1h-56.3l5.9-10.1C844.2,155.5,844.3,148.2,840.8,142.3z"/>
		<g>
			<defs>
				<path id="SVGID_14_" d="M947.8,58.9c-30.3,52.4-116.2,100.4-116.2,100.4l-6.4,21.1l101.4,1.1l40.7-54.3L947.8,58.9z"/>
			</defs>
			<clipPath id="SVGID_15_">
				<use xlink:href="#SVGID_14_"  style="overflow:visible;"/>
			</clipPath>
			<path class="st19" d="M840.8,142.3c-17.7-28.7-8.7-66.3,20-84c28.7-17.7,66.3-8.7,84,20c6.1,9.9,9.2,21.3,9.1,32.9
				c-1.1,33.7-28.9,60.4-62.7,60.1h-56.3l5.9-10.1C844.2,155.5,844.3,148.2,840.8,142.3z"/>
		</g>
	</g>
	<g class="st8">
		<defs>
			<path id="SVGID_16_" class="st8" d="M181.4,36.2C130.4,127.8,43.4,147,43.4,147l56.7,42.7L200,97.5L181.4,36.2z"/>
		</defs>
		<clipPath id="SVGID_17_">
			<use xlink:href="#SVGID_16_"  style="overflow:visible;"/>
		</clipPath>
		<g class="st20">
			<path d="M98.9,57.3c6.7-14.7,21.3-28.4,38.6-28.4c23.5,0,41.3,18.2,43.5,40.9c0,0,1.3,5.8-1.3,16c-3.6,13.8-11.5,26.2-22.6,35.5
				l-56,48.4c-0.4,0.4-1.3,0.4-1.8,0L43,121.2c-11.1-9.3-19.1-21.8-22.6-35.5c-2.7-10.2-1.3-16-1.3-16C21.2,47,37.2,28.8,60.8,28.8
				C78.1,28.8,92.7,42.6,98.9,57.3"/>
		</g>
	</g>
	<g class="st8">
		<defs>
			<path id="SVGID_18_" class="st8" d="M653.6,31c-10.1,78.9-133.9,122.8-133.9,122.8l22.9,22h126.1V67.1L653.6,31z"/>
		</defs>
		<clipPath id="SVGID_19_">
			<use xlink:href="#SVGID_18_"  style="overflow:visible;"/>
		</clipPath>
		<g class="st21">
			<g>
				<g>
					<path d="M633.6,122.4v28.4c0,4.7,3.8,8.6,8.6,8.6h16c4.7,0,8.6-3.8,8.6-8.6v-28.4H633.6z"/>
					<path d="M525.8,122.4v28.4c0,4.7,3.8,8.6,8.6,8.6h16c4.7,0,8.6-3.8,8.6-8.6v-28.4H525.8z"/>
				</g>
				<g>
					<path d="M550.4,106.4h-16c-4.7,0-8.6,3.8-8.6,8.6v7.4h33.1v-7.4C558.9,110.2,555.1,106.4,550.4,106.4z"/>
					<path d="M642.1,106.4h16c4.7,0,8.6,3.8,8.6,8.6v7.4h-33.1v-7.4C633.6,110.2,637.4,106.4,642.1,106.4z"/>
				</g>
				<g class="st8">
					<path d="M550.4,106.4h-16c-4.7,0-8.6,3.8-8.6,8.6v7.4h33.1v-7.4C558.9,110.2,555.1,106.4,550.4,106.4z"/>
					<path d="M642.1,106.4h16c4.7,0,8.6,3.8,8.6,8.6v7.4h-33.1v-7.4C633.6,110.2,637.4,106.4,642.1,106.4z"/>
				</g>
				<path d="M596.2,61.8c-11.3,0-20.5-9.2-20.5-20.5c0-11.3,9.2-20.5,20.5-20.5c11.3,0,20.5,9.2,20.5,20.5
					C616.7,52.6,607.5,61.8,596.2,61.8z M596.2,29.4L596.2,29.4c-6.6,0-11.9,5.4-11.9,11.9s5.4,11.9,11.9,11.9
					c6.6,0,11.9-5.4,11.9-11.9S602.8,29.4,596.2,29.4z"/>
				<path d="M649.8,164.9c0,4.7-3.8,8.6-8.6,8.6h-90.1c-4.7,0-8.6-3.8-8.6-8.6v-115c0-4.7,3.8-8.6,8.6-8.6h90.1
					c4.7,0,8.6,3.8,8.6,8.6L649.8,164.9L649.8,164.9z"/>
				<path class="st22" d="M649.8,88.5c0,4.7-3.8,8.6-8.6,8.6h-90.1c-4.7,0-8.6-3.8-8.6-8.6V49.9c0-4.7,3.8-8.6,8.6-8.6h90.1
					c4.7,0,8.6,3.8,8.6,8.6L649.8,88.5L649.8,88.5z"/>
				<path d="M608.9,122.4h-25.4c-4.7,0-8.6,3.8-8.6,8.6v14.2h42.5v-14.2C617.5,126.2,613.7,122.4,608.9,122.4z"/>
				<polygon points="575,145.1 575,173.4 617.5,173.4 617.5,145.1 				"/>
				<polygon class="st14" points="558.9,41.3 558.9,112.6 565.3,119.9 571.7,112.6 571.7,41.3 				"/>
				<path d="M572.4,104.4h-14.3c-0.8,0-1.4-0.6-1.4-1.4V88.7c0-0.8,0.6-1.4,1.4-1.4h14.3c0.8,0,1.4,0.6,1.4,1.4V103
					C573.9,103.8,573.2,104.4,572.4,104.4z M559.6,101.6L559.6,101.6H571V90.1h-11.5V101.6z"/>
				<polygon class="st14" points="620.8,41.3 620.8,112.6 627.2,119.9 633.6,112.6 633.6,41.3 				"/>
				<path d="M634.4,104.4h-14.3c-0.8,0-1.4-0.6-1.4-1.4V88.7c0-0.8,0.6-1.4,1.4-1.4h14.3c0.8,0,1.4,0.6,1.4,1.4V103
					C635.8,103.8,635.1,104.4,634.4,104.4z M621.5,101.6L621.5,101.6h11.5V90.1h-11.5V101.6z"/>
				<polygon class="st14" points="589.8,138.2 589.8,162.1 596.2,169.4 602.7,162.1 602.7,138.2 				"/>
				<path d="M603.4,153.9h-14.3c-0.8,0-1.4-0.6-1.4-1.4v-14.3c0-0.8,0.6-1.4,1.4-1.4h14.3c0.8,0,1.4,0.6,1.4,1.4v14.3
					C604.8,153.3,604.2,153.9,603.4,153.9z M590.5,151.1L590.5,151.1H602v-11.5h-11.5V151.1z"/>
			</g>
		</g>
	</g>
</g>
<g id="surface1">
	<linearGradient id="SVGID_20_" gradientUnits="userSpaceOnUse" x1="-102.4151" y1="196.712" x2="-102.4151" y2="344.5885">
		<stop  offset="0" style="stop-color:#001354"/>
		<stop  offset="1" style="stop-color:#D7435D"/>
	</linearGradient>
	<path class="st23" d="M-100.9,197.3c10.4,8.2,36.1,33.8,30.1,81.4c0,0,6.7-4,12.7-11.4c1.4-1.7,4.1-1.1,4.6,1.1
		c1,4.8,2.3,12.4,2.5,22c0.6,29.1-22.3,54.1-51.5,54.2c-28.3,0-51.3-23.1-51.3-51.4c0-24.6,11.9-37.4,16.5-58.6
		c0.4-1.7,2.4-2.6,3.9-1.7c3.5,2.1,9,5.9,12.6,11.4c0,0,14.6-18.5,15.8-45.1C-105,197.1-102.5,195.9-100.9,197.3z"/>
	<path class="st24" d="M-74.6,292.9c-4.1,6.2-9.3,7.6-9.3,7.6c2.1-25.3-7.6-43.8-11.5-50.3c-0.6-0.9-2-0.7-2.2,0.4
		c-3.6,16.9-13.4,26.3-13.4,26.3c-3.2-3.7-6.2-5.2-7.8-5.8c-0.6-0.2-1.3,0.1-1.5,0.7c-4,10.8-11.6,19.1-13.3,31.4
		c-2.5,18.2,10.7,35.5,29,36.7c18.5,1.3,33.9-13.3,33.9-31.6c0-7.3-1-12.4-1.7-15.1C-72.8,292.2-74.1,292.1-74.6,292.9z"/>
	<path class="st24" d="M-101.6,290.1c-0.4-1-1.6-1.2-2.3-0.5c-4.1,4.6-15.3,17.9-15.3,29.6c0,9.3,7.5,16.8,16.8,16.8
		c9.3,0,16.8-7.5,16.8-16.8C-85.6,310.4-96.4,303.2-101.6,290.1z"/>
	<path class="st22" d="M-102.9,344.6c-5.5-0.4-52.6-9.2-36.4-68.5c6.1-22.1,7.1-42.3,7.1-42.3c-0.4-0.3-0.9-0.5-1.2-0.8
		c-1.5-0.9-3.5-0.1-3.9,1.7c-4.6,21.1-16.5,34-16.5,58.6C-153.8,321.4-131.1,344.3-102.9,344.6z"/>
</g>
<path class="st25" d="M52.6,304.2c0,0,6.3,9.3,19.6,17.2c0,0-9.6-81.4,53.1-95.5c-16.1,59,20.5,75.7,33.8,44.5
	c22.2,29.7,5.4,55.6,5.4,55.6c9.1,1.3,16.8-8.6,16.8-8.6c0.1,1.2,0.1,2.5,0.1,3.7c0,36.2-29.3,65.5-65.5,65.5S50.5,357.2,50.5,321
	C50.5,315.2,51.2,309.6,52.6,304.2z"/>
<path class="st26" d="M181.3,317.3c0,0-7.7,10-16.8,8.6c0,0,16.9-25.9-5.4-55.6c-13.3,31.2-49.8,14.5-33.8-44.5
	c-3.4,0.8-6.5,1.7-9.5,2.8v157.8c36.2,0,65.5-29.3,65.5-65.5C181.4,319.8,181.4,318.5,181.3,317.3z"/>
<path class="st27" d="M87.2,357.8c0,15.9,12.9,28.7,28.7,28.7s28.7-12.9,28.7-28.7c0-8.5-3.7-16.1-9.5-21.4
	c-11.1,15.1-26.9-7.8-14.6-24.5C120.5,311.9,87.2,316.1,87.2,357.8z"/>
<path class="st28" d="M144.7,357.8c0-8.5-3.7-16.1-9.5-21.4c-11.1,15.1-26.9-7.8-14.6-24.5c0,0-1.8,0.2-4.6,1.1v73.5
	C131.8,386.5,144.7,373.6,144.7,357.8z"/>
<path class="st29" d="M-157,373.4c-1.5-1.6-3.7-3.7-4.7,1.1c-0.3,1.7-1.1,2.9-1.8,3.9c-0.7-3.6-2.8-7.3-4.8-9.8
	c-0.8-0.9-3.4-4.7-3.9-10.9c-0.1-0.9-1.2-1.4-1.9-0.7c-6.6,6-10.2,14.2-10.3,23.5c0,0-2.7-2.3-4.2-6.6c-0.4-1.2-2-1.4-2.6-0.4
	c-0.1,0.2-0.2,0.4-0.4,0.6c-5.1,9-7.5,19.9-5.3,30.1c3.8,17,28.8,21.8,42,11.1C-142,404.8-146.1,385.4-157,373.4z"/>
<g>
	<path class="st30" d="M-193.5,405.3c-2.2-10.3,0.1-21.3,5.1-30.4c-0.1-0.3-0.2-0.6-0.4-0.9c-0.4-1.2-2-1.4-2.6-0.4
		c-0.1,0.2-0.2,0.4-0.4,0.6c-5.1,9-7.5,19.9-5.3,30.1c1.7,7.8,7.9,13,15.3,15.3C-187.5,416.8-192,411.9-193.5,405.3z"/>
	<path class="st30" d="M-180.9,380.4c0.3-8.4,3.3-16,8.8-21.7c0-0.3-0.1-0.6-0.1-0.8c-0.1-0.9-1.1-1.4-1.8-0.8
		c-6.4,5.8-10.2,13.9-10.4,23.5l1.2,0.9c0.6,0.5,1.4,0.4,1.9,0C-181,381.2-181,380.8-180.9,380.4z"/>
</g>
<path class="st31" d="M-161,385.8c-1.1-1.2-2.8-2.8-3.5,0.8c-0.2,1.2-0.8,2.2-1.3,2.9c-0.5-2.6-2.1-5.4-3.6-7.2
	c-0.6-0.7-2.5-3.4-2.9-8c-0.1-0.7-0.9-1-1.4-0.5c-4.9,4.4-7.5,10.5-7.6,17.3c0,0-2-1.7-3.1-4.9c-0.3-0.9-1.4-1-1.9-0.3
	c-0.1,0.1-0.2,0.3-0.3,0.4c-3.8,6.6-5.6,14.7-3.9,22.2c2.8,12.6,21.3,16.1,31.1,8.2C-149.9,409.1-152.9,394.7-161,385.8z"/>
<path class="st32" d="M-187.1,409.6c-1.5-7.3,0.1-15.2,3.3-21.8c-0.2-0.5-0.5-1-0.7-1.6c-0.3-0.9-1.4-1-1.9-0.3
	c-0.1,0.1-0.2,0.3-0.3,0.4c-3.8,6.6-5.6,14.7-3.9,22.2c1.3,5.8,6,9.7,11.6,11.4C-182.9,418-186.1,414.5-187.1,409.6z"/>
<path class="st33" d="M-164.7,397.2c-0.7-0.8-1.9-1.9-2.3,0.6c-0.2,0.8-0.5,1.5-0.9,2c-0.4-1.8-1.4-3.6-2.4-4.9
	c-0.4-0.5-1.7-2.3-2-5.4c0-0.5-0.6-0.7-0.9-0.4c-3.3,3-5.1,7.1-5.2,11.7c0,0-1.4-1.2-2.1-3.3c-0.2-0.6-1-0.7-1.3-0.2
	c-0.1,0.1-0.1,0.2-0.2,0.3c-2.5,4.5-3.8,10-2.6,15c1.9,8.5,14.4,10.9,21,5.5c2.3-1.8,3.7-4.4,4-7.3
	C-159.2,406.6-160.9,401.3-164.7,397.2z"/>
<path class="st34" d="M-168.1,407.7c-0.4-0.4-1-1-1.3,0.3c-0.1,0.5-0.3,0.8-0.5,1.1c-0.2-1-0.8-2-1.3-2.7c-0.2-0.3-1-1.3-1.1-3
	c0-0.3-0.3-0.4-0.5-0.2c-1.8,1.7-2.8,4-2.9,6.5c0,0-0.8-0.6-1.2-1.8c-0.1-0.3-0.5-0.4-0.7-0.1c0,0.1-0.1,0.1-0.1,0.2
	c-1.4,2.5-2.1,5.5-1.5,8.4c1.4,6.5,13.2,6.3,13.9-1C-165,413-166,410-168.1,407.7z"/>
<path class="st35" d="M-176.5,417.6c-0.6-2.5,0.1-5.3,1.5-7.5c0,0,0.1-0.1,0.1-0.1c0.2-0.3,0.6-0.2,0.7,0.1c0.4,1.1,1.2,1.6,1.2,1.6
	c0-1.9,0.7-3.6,2-5c-0.3-0.4-1.1-1.3-1.3-3.3c0-0.3-0.3-0.4-0.5-0.2c-1.8,1.7-2.8,4-2.9,6.5c0,0-0.8-0.6-1.2-1.8
	c-0.1-0.3-0.5-0.4-0.7-0.1c0,0.1-0.1,0.1-0.1,0.2c-1.4,2.5-2.1,5.5-1.5,8.4c0.6,2.6,3,4.2,5.6,4.6
	C-175,420.2-176.1,419.1-176.5,417.6z"/>
<g>
	<path class="st30" d="M-182.9,360.3c3-2.4,2.9-6.9,0-9.3C-185.8,353.4-185.8,357.9-182.9,360.3z"/>
	<path class="st30" d="M-147.4,379.6c3-2.4,2.9-6.9,0-9.3C-148.8,371.4-150.4,377.2-147.4,379.6z"/>
	<path class="st30" d="M-199.8,381.4c2.1-1.7,2.1-5,0-6.7C-200.8,375.5-201.9,379.7-199.8,381.4z"/>
	<path class="st30" d="M-162.9,367c2.1-1.7,2.1-5,0-6.7C-165,362-165,365.3-162.9,367z"/>
</g>
<path class="st32" d="M-178.6,390c0.5-5.8,2.7-10.9,6.4-14.8c0-0.3-0.1-0.6-0.1-0.9c-0.1-0.7-0.9-1-1.4-0.5c-3.9,3.5-6.3,8-7.2,13.2
	l0,0c-0.1,0.4-0.2,0.9-0.2,1.4c0,0,0,0,0,0c-0.1,0.9-0.2,1.8-0.2,2.8C-181.2,391.1-178.9,392.3-178.6,390z"/>
<g>
	<path class="st36" d="M-181.3,413.8c-1-4.7-0.1-9.8,1.8-14.2c-0.4-0.5-0.8-1.3-1.1-2.2c-0.2-0.6-1-0.7-1.3-0.2
		c-0.1,0.1-0.1,0.2-0.2,0.3c-2.5,4.5-3.8,10-2.6,15c0.9,4,4.1,6.6,7.9,7.8C-179,418.9-180.6,416.7-181.3,413.8z"/>
	<path class="st36" d="M-174.8,398.7c0.3-2.4,1.3-5,2.8-7.2c-0.2-0.6-0.3-1.3-0.4-2.1c0-0.5-0.6-0.7-0.9-0.4
		c-2.1,1.9-3.5,4.2-4.4,6.8l0,0c-0.1,0.4-0.3,1.1-0.4,1.6c0,0,0,0,0,0c-0.2,1.1-0.4,2.2-0.4,3.4C-176.6,401-175,400.5-174.8,398.7z"
		/>
</g>
</svg>
