<?xml version="1.0" standalone="no"?>
<!DOCTYPE svg PUBLIC "-//W3C//DTD SVG 20010904//EN"
 "http://www.w3.org/TR/2001/REC-SVG-20010904/DTD/svg10.dtd">
<svg version="1.0" xmlns="http://www.w3.org/2000/svg"
 width="300.000000pt" height="300.000000pt" viewBox="0 0 300.000000 300.000000"
 preserveAspectRatio="xMidYMid meet">
<metadata>
Created by potrace 1.11, written by Peter Selinger 2001-2013
</metadata>
<g transform="translate(0.000000,300.000000) scale(0.100000,-0.100000)"
fill="#000000" stroke="none">
<path d="M2123 2987 c-156 -58 -211 -254 -106 -377 50 -58 104 -83 183 -84 53
0 74 4 115 27 102 56 151 185 111 290 -44 117 -189 186 -303 144z"/>
<path d="M2086 2416 c-86 -43 -146 -118 -161 -206 -4 -19 -7 -352 -7 -739 0
-761 1 -753 -54 -844 -14 -23 -58 -67 -96 -97 -82 -64 -112 -100 -133 -160
-46 -131 13 -278 137 -341 49 -25 150 -35 205 -20 65 18 184 104 262 188 104
113 171 235 213 388 22 79 22 92 26 843 3 881 7 838 -81 927 -87 86 -210 110
-311 61z"/>
<path d="M1130 2414 c-30 -6 -83 -21 -118 -33 l-62 -21 -48 27 c-40 23 -59 27
-127 27 -59 1 -89 -4 -115 -18 -49 -26 -98 -74 -123 -121 -22 -40 -22 -45 -25
-705 -3 -759 -5 -734 77 -819 63 -65 118 -85 218 -79 89 5 136 29 195 97 59
70 61 84 63 531 1 268 6 414 13 432 19 45 81 106 125 122 23 8 68 17 99 20 99
9 191 60 236 131 95 149 25 356 -139 410 -54 18 -182 18 -269 -1z"/>
</g>
</svg>
