<?xml version="1.0" encoding="utf-8"?>
<!-- Generator: Adobe Illustrator 21.0.0, SVG Export Plug-In . SVG Version: 6.00 Build 0)  -->
<svg version="1.1" id="Layer_1" xmlns="http://www.w3.org/2000/svg" xmlns:xlink="http://www.w3.org/1999/xlink" x="0px" y="0px"
	 viewBox="0 0 200 200" style="enable-background:new 0 0 200 200;" xml:space="preserve">
<style type="text/css">
	.st0{fill:#42929A;}
	.st1{fill:#34747A;}
	.st2{fill:#F7F7F7;}
</style>
<circle class="st0" cx="100" cy="100" r="81.2"/>
<g id="_x31_IJzes_1_">
	<g>
		<path class="st0" d="M91.6,20.1c2.6-0.7,5.3-0.5,7.9-0.6c4.9-0.1,9.7,0.3,14.6,1.2c3.8,0.7,7.6,1.5,11.3,2.6
			c0.3,0.1,0.6,0.2,0.8,0.4c0.7,0.9,1.8,1,2.8,1.1c0,0,0,0,0,0c0.2,0.6,0.7,0.5,1.2,0.5c0,0,0,0,0,0c0.2,0.5,0.5,0.6,1,0.5
			c0,0,0,0,0,0c0.8,0.7,1.7,1.2,2.8,1.2c0,0,0,0,0,0c0.1,0.2,0.3,0.2,0.5,0.2c0,0,0,0,0,0c0.1,0.2,0.3,0.3,0.5,0.3c0,0,0,0,0,0
			c0.1,0.3,0.4,0.3,0.6,0.3c3.7,1.7,7.2,3.9,10.6,6.3c2.6,1.9,5.2,3.8,7.5,6.1c1.4,1.5,3.2,2.6,4.5,4.3c0.1,0.1,0.2,0.2,0.2,0.3
			c0,0,0,0,0,0c0.1,0.1,0.2,0.2,0.3,0.3c0.4,0.2,0.7,0.5,0.9,0.9c0,0.2,0,0.4,0.3,0.5c0,0,0,0,0,0c0.1,0.1,0.2,0.2,0.3,0.3
			c0,0,0,0,0,0c0.1,0.1,0.2,0.2,0.3,0.3c0,0,0,0,0,0c0.1,0.1,0.2,0.2,0.3,0.2c0,0,0,0,0,0c-0.1,0.5,0,1,0.7,0.9l0,0.1
			c0,0,0-0.1,0-0.1c-0.1,0.4,0.1,0.5,0.5,0.5c0,0-0.1,0-0.1,0c0.1,0.1,0.2,0.2,0.3,0.3c0,0,0,0,0,0c0.1,0.1,0.2,0.2,0.3,0.3
			c0,0,0,0,0,0c0.1,0.1,0.2,0.2,0.3,0.3c0,0,0,0,0,0c0,0.2,0,0.4,0.3,0.5c0,0,0,0,0,0c0.1,0.1,0.2,0.2,0.3,0.3c0,0,0,0,0,0
			c0.1,0.1,0.2,0.2,0.3,0.3c0,0,0,0,0,0c0.1,0.1,0.2,0.2,0.3,0.3c0,0,0,0,0,0c0,0.4-0.1,0.8,0.5,0.7c0,0,0,0,0,0
			c-0.1,0.4,0.1,0.5,0.5,0.5c0,0,0,0,0,0c0.1,0.1,0.2,0.2,0.3,0.3c0,0,0,0,0,0c0,0.2,0,0.4,0.3,0.5c0,0,0,0,0,0
			c-0.1,0.9,0.4,1.3,1.1,1.4c0,0,0,0,0,0c0,0.2,0,0.4,0.3,0.5c0,0,0-0.1,0-0.1c-0.1,0.4,0.1,0.6,0.5,0.7c0,0,0,0,0,0
			c-0.1,0.5,0.2,0.8,0.7,1c0,0,0,0,0,0c0.1,0.1,0.2,0.2,0.3,0.3c0,0,0,0,0,0c0,0.4,0,0.7,0.5,0.7c0,0,0,0,0,0c0,0.2,0,0.4,0.3,0.5
			c0,0,0,0,0,0c0,0.2,0,0.4,0.3,0.5c0,0,0,0,0,0c-0.1,0.4,0.1,0.6,0.5,0.7c0,0-0.1,0-0.1,0c0.1,0.1,0.2,0.2,0.3,0.3c0,0,0,0,0,0
			c0,0.2,0,0.4,0.3,0.5c0,0,0,0,0,0c0,0.2,0,0.4,0.3,0.5c0,0-0.1,0-0.1,0c0.1,0.1,0.2,0.2,0.3,0.3c0,0,0,0,0,0
			c0,0.4-0.1,0.7,0.5,0.7c0,0,0,0,0,0c0,0.2,0,0.4,0.3,0.5c0,0,0,0,0,0c-0.1,0.8,0.1,1.5,1,1.9c0,0,0,0,0,0c0,0.2,0,0.4,0.3,0.5
			c0,0-0.1,0-0.1,0c0.1,0.1,0.2,0.2,0.3,0.3c0,0,0,0,0,0c0,0.2,0,0.4,0.3,0.5c0,0,0,0,0,0c0,0.3-0.1,0.6,0.3,0.7c0,0-0.1,0-0.1,0
			c0.1,0.1,0.2,0.2,0.3,0.3c0,0,0,0,0,0c0,0.2,0,0.4,0.3,0.5c0,0,0,0,0,0c0,0.2,0,0.4,0.3,0.5c0,0,0,0,0,0c0,0.3-0.1,0.6,0.3,0.7
			c0,0,0,0,0,0c0,0.2,0,0.4,0.3,0.5c0,0,0,0,0,0c0.2,0.6,0,1.3,0.7,1.6c0,0,0,0,0,0c0,0.2,0,0.4,0.3,0.5c0,0,0,0,0,0
			c-0.1,0.7,0,1.3,0.7,1.6c0,0,0,0,0,0c-0.1,0.8,0,1.6,0.8,2.1c0,0,0,0,0,0c-0.1,0.5,0,0.9,0.5,1.2c0,0,0,0,0,0
			c0,0.3-0.1,0.6,0.3,0.7c0,0,0,0,0,0c0,0.3-0.1,0.6,0.3,0.7c0,0,0,0,0,0c0,1.6,0.7,3,1.1,4.4c0.3,1.2,0.3,2.4,1,3.5
			c0,0.1,0,0.1,0,0.2c0.1,1.4,0.1,2.7,0.7,4c0,0,0,0,0,0c0.1,0.5-0.2,1.1,0.2,1.6c0,0.1,0,0.1,0,0.2c0.1,0.7-0.2,1.4,0.2,2.1
			c0,0.1,0.1,0.1,0,0.2c0.1,0.6-0.3,1.4,0.3,1.9c0.4,2.7,0.4,5.4,0.4,8.2c0,1.8,0,3.5-0.3,5.3c-0.6,0-0.9-0.5-1.2-0.8
			c-4.8-4.8-9.6-9.6-14.5-14.4c-1-1-1.8-2.1-2.3-3.4c-0.2-0.4-0.3-0.8-0.8-0.8l0.1-0.1c0.2-0.8-0.3-1.1-0.9-1.4l0,0
			c0-0.5-0.1-0.9-0.7-0.9l0,0c-0.1-0.1-0.2-0.2-0.3-0.3l0,0c-0.1-0.1-0.2-0.2-0.3-0.3l0,0c0.1-0.9,0-1.6-1.2-1.4
			c-0.1-0.1-0.1-0.1-0.2-0.2c0-0.2,0-0.4-0.3-0.5l0,0c-0.1-0.1-0.2-0.2-0.3-0.3l0,0c-0.1-0.1-0.2-0.2-0.3-0.3c0,0,0,0,0,0
			c-0.1-0.1-0.2-0.2-0.3-0.3l0,0c0-0.4-0.1-0.5-0.5-0.5l0,0c-0.1-0.1-0.2-0.2-0.3-0.3c0,0,0,0,0,0c0-0.4-0.1-0.5-0.5-0.5l0,0
			c-0.1-0.1-0.2-0.2-0.3-0.3l0,0c-0.1-0.1-0.2-0.2-0.3-0.3l0,0c-0.1-0.3-0.3-0.3-0.5-0.3l0,0c-0.1-0.1-0.2-0.2-0.3-0.2
			c-0.1-0.1-0.1-0.1-0.2-0.2c0-0.5-0.2-0.8-0.7-0.7l0,0c-0.1-0.3-0.3-0.3-0.5-0.3l0,0c0-0.7-0.4-0.8-1-0.7l0,0
			c-0.1-0.1-0.2-0.2-0.3-0.3l0,0c-0.1-0.1-0.2-0.2-0.3-0.3l0,0c-0.1-0.5-0.5-0.5-0.9-0.5l0,0c-0.1-0.2-0.3-0.2-0.5-0.3l0,0
			c-0.4-0.8-1-1.1-1.9-1.1l0,0c-0.1-0.4-0.4-0.5-0.6-0.6c-1.3-0.6-2.6-1.1-4-1.6c-2.7-0.9-5.5-1.2-8.3-1.4c-1.2-0.1-2.5-0.3-3.6,0.4
			c-0.3,0.1-0.5,0.1-0.8,0.2c-7.2,0.6-13.3,3.6-18.4,8.7c-3.8,3.8-7.6,7.6-11.4,11.4c-0.6,0.6-1.1,0.7-1.7,0
			C96,88.7,92.2,85,88.5,81.3c-3.9-3.8-8.4-6.5-13.6-7.9c-2.1-0.5-4.2-0.8-6.3-1c-0.2-0.5-0.7-0.3-1-0.3c-1.4,0-2.8,0.1-4.1,0.2
			c-3,0.2-5.9,1-8.7,2.1c-1.2,0.5-2.5,0.8-3.3,1.9l0,0c-0.1,0.1-0.2,0.2-0.3,0.2l0,0c-0.2,0-0.4,0-0.5,0.3l0,0
			c-0.6-0.1-1,0.2-1.2,0.7l0,0c-0.3-0.1-0.5,0.1-0.5,0.4l0,0c-0.2,0-0.4,0-0.5,0.3l0,0c-0.5-0.1-1,0-0.9,0.7l0,0
			c-0.1,0.1-0.2,0.2-0.3,0.3l0,0c-0.1,0.1-0.2,0.2-0.3,0.3l0,0c-0.5,0-1,0-0.9,0.7l0,0c-0.3,0-0.4,0.2-0.5,0.5l0,0
			c-1,0.3-1.6,0.9-1.9,1.9c0,0,0,0,0,0c-0.1,0.1-0.2,0.2-0.3,0.3l0,0c-0.1,0.1-0.2,0.2-0.3,0.3c0,0,0,0,0,0
			c-0.1,0.1-0.2,0.2-0.3,0.3c0,0,0,0,0,0C43,83.1,43,83.3,43,83.5l0,0c-0.3,0-0.5,0.2-0.5,0.5l0,0c-0.3,0-0.5,0.1-0.5,0.5l0,0
			c-0.3,0.1-0.3,0.3-0.3,0.5l0,0c-0.3,0-0.5,0.2-0.4,0.5c0,0,0,0,0,0c-0.1,0.1-0.2,0.2-0.3,0.3c0,0,0,0,0,0
			c-0.4,0.1-0.6,0.3-0.5,0.7l0,0c-0.3,0.1-0.3,0.3-0.3,0.5c0,0,0,0,0,0c-0.1,0.1-0.2,0.2-0.3,0.3l0,0c-0.6,0.4-1,0.9-0.9,1.6l0,0
			c-0.2,0.1-0.3,0.3-0.3,0.5l0,0c-0.2,0.1-0.3,0.3-0.3,0.5l0,0c-0.7,0.1-0.5,0.6-0.5,0.9l0,0c-0.3,0-0.4,0.2-0.5,0.5
			c-1.2,2.8-1.9,5.9-2.3,8.9c-0.4,2.6-0.2,5.1,0,7.7c0,0.4,0,0.9,0.4,1.3c0.5,1.6,0.9,3.2,1.1,4.9c0.2,1.2,0.5,2.4,1.4,3.3l0,0
			c0,0.2,0,0.4,0.2,0.5l0,0c0,0.2,0,0.4,0.3,0.5l0,0c0,0.2,0,0.4,0.3,0.5l0,0c0,0.2,0,0.4,0.3,0.5l0,0c-0.1,0.4,0.1,0.6,0.5,0.7l0,0
			c0,0.9,0.4,1.5,1.2,1.9l0,0c0.1,0.1,0.2,0.2,0.3,0.3c0,0,0,0,0,0c0.1,0.1,0.2,0.2,0.3,0.3l0,0c-0.1,0.7,0.2,1.1,0.9,1.2l0,0
			c0,0.2,0,0.4,0.3,0.5l0,0c-0.1,0.4,0.1,0.5,0.5,0.5l0,0c0.1,0.1,0.2,0.2,0.3,0.3l0,0c0,0.4,0.1,0.5,0.5,0.5l0,0
			c0.1,0.1,0.2,0.2,0.3,0.3l0,0c0.1,0.1,0.2,0.2,0.3,0.3l0,0c0.1,0.1,0.2,0.2,0.3,0.2c0.1,0.1,0.1,0.1,0.2,0.2
			c0,0.3,0.1,0.5,0.5,0.5l0,0c0,0.4,0.1,0.5,0.5,0.5l0,0c0,0.4,0.1,0.5,0.5,0.5l0,0c0.1,0.1,0.2,0.2,0.3,0.3l0,0
			c0.1,0.3,0.3,0.3,0.5,0.3c0.1,0.1,0.1,0.1,0.2,0.2c0.1,0.1,0.2,0.2,0.2,0.3c0,0,0,0,0,0c0,0.7,0.4,0.8,0.9,0.7l0,0
			c-0.1,0.6,0.4,0.8,0.7,1.1c3.5,3.5,7,7,10.5,10.5C72.5,153.1,85.4,166,98.3,179c0.3,0.3,0.7,0.5,0.8,1.1c-0.5,0-1,0-1.5,0
			c-1.2,0.1-2.5-0.2-3.7,0.2c-0.7-0.1-1.4-0.1-2.1-0.2c-0.2-0.6-0.8-0.4-1.2-0.4c-1.1-0.2-2.1-0.3-3.2-0.4c-2.2-0.3-4.3-0.9-6.5-1
			c0,0,0,0.1,0,0.1c-0.8-0.7-1.8-0.8-2.8-0.8c0,0,0,0.1,0,0.1c-0.7-0.7-1.5-0.8-2.4-0.8c0,0,0,0,0,0c-1-0.9-2.3-1-3.5-1.2
			c0,0,0,0,0,0c-0.1-0.3-0.3-0.3-0.5-0.2c0,0,0,0,0,0c-0.3-0.6-0.9-0.5-1.4-0.5c0,0,0,0,0,0c-0.1-0.3-0.3-0.3-0.5-0.3c0,0,0,0,0,0
			c-0.3-0.5-0.7-0.5-1.2-0.5c0,0,0,0,0,0c-0.1-0.4-0.4-0.3-0.7-0.3c0,0,0,0,0,0c-0.1-0.3-0.4-0.3-0.6-0.3c-3.1-1.1-5.9-2.8-8.7-4.5
			c-9.1-5.5-16.7-12.7-23.3-21.1c-0.2-0.2-0.3-0.5-0.4-0.7c0-0.5-0.1-1-0.7-1c-0.1-0.1-0.1-0.2-0.2-0.2c0-0.2,0-0.4-0.3-0.5
			c0,0,0,0,0,0c0-0.2,0-0.4-0.3-0.5c0,0,0,0,0,0c-0.1-0.1-0.2-0.2-0.3-0.3c0,0,0,0,0,0c-0.1-0.1-0.2-0.2-0.3-0.3c0,0,0,0,0,0
			c0-0.2,0-0.4-0.3-0.5c0,0,0,0,0,0c-0.5-1.7-1.6-3.1-2.8-4.5c0,0,0,0,0,0c0.1-0.6-0.2-1-0.7-1.2c0,0,0,0,0,0c0-0.2,0-0.4-0.3-0.5
			c0,0,0,0,0,0c0-0.2,0-0.4-0.3-0.5c0,0,0,0,0,0c0-0.5-0.1-1-0.7-1.2c0-0.1-0.1-0.2-0.1-0.3c0.1-1-0.5-1.6-1-2.3c0,0,0,0,0,0
			c-0.1-0.1-0.2-0.2-0.3-0.3c0,0,0,0,0,0c0-1.1-0.5-2-1.2-2.8c0,0,0,0,0,0c0-0.2,0-0.4-0.3-0.5c0,0,0,0,0,0c0-1.6-0.8-2.9-1.3-4.3
			c-1.9-5-2.9-10.1-3.6-15.3c-0.1-0.9,0.2-2-0.6-2.8c-0.6-5.6-0.7-11.2,0-16.8c0.4-0.2,0.4-0.5,0.4-0.9c0.4-5.5,1.7-10.8,3.3-16
			c0.6-1.8,1.5-3.6,1.8-5.5c0,0,0,0,0,0c0.3-0.1,0.3-0.2,0.1-0.4c1.9-4.9,4.5-9.4,7.5-13.7c4.4-6.5,9.8-12.1,15.7-17.3
			c0.2-0.2,0.4-0.3,0.7-0.5c0.1-0.1,0.2-0.2,0.3-0.3c0-0.2,0.2-0.2,0.3-0.2c0.3,0,0.6-0.1,0.6-0.5c0,0,0,0,0,0c0.2,0,0.4,0,0.5-0.3
			c0,0,0,0,0,0c0.1-0.1,0.2-0.2,0.3-0.3c0,0,0,0,0,0c0.1-0.1,0.2-0.2,0.3-0.3c0,0,0,0,0,0c0.1-0.1,0.2-0.2,0.3-0.3c0,0,0,0,0,0
			c0.2,0,0.4,0,0.5-0.3c0,0,0,0,0,0c0.1-0.1,0.2-0.2,0.3-0.3c0,0,0,0,0,0c0.3,0.1,0.5-0.1,0.5-0.4c0,0,0,0,0,0
			c0.9,0.1,1.4-0.3,1.6-1.2c0,0,0,0,0,0c0.4,0,0.7,0,0.7-0.5c0,0,0,0,0,0c0.4,0,0.8,0,0.9-0.5c0,0,0,0,0,0c0.4,0.1,0.5-0.1,0.5-0.4
			c0,0,0,0,0,0c0.4,0,0.7,0,0.7-0.5c0,0,0,0,0,0c0.4,0,0.8,0,0.9-0.5c0,0,0,0,0,0c0.1-0.1,0.2-0.2,0.3-0.3c0,0,0,0,0,0
			c0.2,0,0.4,0,0.5-0.3c0,0,0,0,0,0c0.2,0,0.4,0,0.5-0.3c0,0,0,0,0,0c0.7-0.1,1.3-0.3,1.7-0.9c0,0,0,0,0,0c1-0.2,1.9-0.5,2.6-1.4
			c0,0,0,0,0,0c0.3,0,0.7,0,1-0.1c2.2-1.3,4.5-2.1,6.8-3.1c4.1-1.6,8.3-2.7,12.5-3.5C86.6,20.8,89.1,20.6,91.6,20.1z"/>
		<path class="st1" d="M94,180.2c1.2-0.4,2.4-0.1,3.7-0.2c0.5,0,1,0,1.5,0c-0.1-0.6-0.5-0.8-0.8-1.1c-12.9-12.9-25.9-25.9-38.8-38.8
			c-3.5-3.5-7-7-10.5-10.5c-0.3-0.3-0.8-0.5-0.7-1.1c4.5,3.3,9.5,5.3,15,5.8c9.4,0.9,17.7-1.6,24.6-8.2c4.1-3.9,8-8,12-12
			c0.6-0.6,0.9-0.7,1.6,0c4.3,4.3,8.5,8.8,13.1,12.9c1.8,1.7,3.9,2.9,5.9,4.2c1.4,0.9,3.2,1.3,4.8,1.7c4.8,1.4,9.6,1.8,14.6,0.9
			c7.4-1.3,13.4-4.9,18.3-10.5c3.4-3.9,5.5-8.4,6.7-13.4c0.3-1.5,0.4-3,0.6-4.6c0.3-3.7-0.1-7.4-1.1-11c-0.7-2.5-1.8-4.8-3.1-7.1
			c0.6,0,0.7,0.4,0.8,0.8c0.5,1.3,1.3,2.4,2.3,3.4c4.8,4.8,9.6,9.6,14.5,14.4c0.3,0.3,0.6,0.8,1.2,0.8c-0.4,7.2-1.9,14.2-4.3,21
			c-4.3,11.7-11.2,21.7-20.1,30.3c-6.1,5.9-12.9,10.9-20.6,14.6c-7.7,3.7-15.9,6.1-24.5,7.2C105.1,180.5,99.5,180.7,94,180.2z"/>
		<path class="st0" d="M91.6,20.1c-2.5,0.5-5.1,0.6-7.6,1.2c-4.3,0.9-8.5,1.9-12.5,3.5c-2.3,0.9-4.7,1.8-6.8,3.1
			c-0.3,0.2-0.7,0.2-1,0.1c2.1-1.4,4.5-2.3,6.8-3.2c4.4-1.8,9-3,13.7-3.9c2.3-0.4,4.6-0.7,6.9-1C91.3,19.9,91.5,19.9,91.6,20.1z"/>
		<path class="st0" d="M25.5,69.2c-0.3,1.9-1.2,3.6-1.8,5.5c-1.6,5.2-2.9,10.5-3.3,16c0,0.4-0.1,0.7-0.4,0.9
			c0.1-3.2,0.7-6.4,1.4-9.6c0.9-4,2.1-7.8,3.5-11.6C25,70,25.1,69.5,25.5,69.2z"/>
		<path class="st0" d="M20,108.4c0.8,0.8,0.5,1.9,0.6,2.8c0.8,5.2,1.7,10.4,3.6,15.3c0.5,1.4,1.3,2.7,1.3,4.3
			c-1.2-2.2-1.9-4.5-2.6-6.9C21.4,118.8,20.4,113.7,20,108.4z"/>
		<path class="st0" d="M81,178.2c2.2,0.1,4.3,0.7,6.5,1c1.1,0.1,2.1,0.3,3.2,0.4c0.4,0.1,0.9-0.1,1.2,0.4
			C88.2,179.8,84.5,179.3,81,178.2z"/>
		<path class="st0" d="M178.7,83c-0.7-1.1-0.7-2.3-1-3.5c-0.4-1.5-1-2.9-1.1-4.4C177.6,77.6,178.4,80.2,178.7,83z"/>
		<path class="st0" d="M30.1,140c1.2,1.3,2.3,2.7,2.8,4.5C31.8,143.1,30.8,141.7,30.1,140z"/>
		<path class="st0" d="M72.3,175.6c1.2,0.2,2.5,0.3,3.5,1.2C74.6,176.6,73.3,176.4,72.3,175.6z"/>
		<path class="st0" d="M179.4,87.2c-0.6-1.3-0.7-2.6-0.7-4C179.3,84.5,179.4,85.8,179.4,87.2z"/>
		<path class="st0" d="M63.7,28c-0.7,0.9-1.6,1.2-2.6,1.4C61.8,28.7,62.7,28.3,63.7,28z"/>
		<path class="st0" d="M25.7,131.2c0.7,0.8,1.2,1.7,1.2,2.8C26.3,133.1,25.9,132.2,25.7,131.2z"/>
		<path class="st0" d="M134,26.9c-1.1,0-2-0.5-2.8-1.2C132.2,25.9,133.1,26.3,134,26.9z"/>
		<path class="st0" d="M27.1,134.2c0.6,0.7,1.2,1.3,1,2.3C27.7,135.8,27.2,135.1,27.1,134.2z"/>
		<path class="st0" d="M129.1,24.8c-1-0.1-2.1-0.2-2.8-1.1C127.3,24,128.3,24.2,129.1,24.8z"/>
		<path class="st0" d="M54.6,33.4c-0.2,0.9-0.8,1.2-1.6,1.2C53.5,34.2,54.1,33.8,54.6,33.4z"/>
		<path class="st0" d="M78.2,177.5c1,0,2,0,2.8,0.8C80,178.1,79.1,178,78.2,177.5z"/>
		<path class="st0" d="M171.3,62.5c-0.9-0.3-1-1-1-1.9C170.8,61.2,171.2,61.7,171.3,62.5z"/>
		<path class="st0" d="M165.7,53.4c-0.8-0.2-1.2-0.6-1.1-1.4C165,52.4,165.4,52.9,165.7,53.4z"/>
		<path class="st0" d="M175.7,72.5c-0.7-0.5-0.8-1.3-0.8-2.1C175.4,71,175.7,71.7,175.7,72.5z"/>
		<path class="st0" d="M75.8,176.8c0.9-0.1,1.7,0.1,2.4,0.8C77.3,177.4,76.5,177.3,75.8,176.8z"/>
		<path class="st0" d="M61.1,29.4c-0.3,0.7-1,0.9-1.7,0.9C59.9,29.8,60.4,29.5,61.1,29.4z"/>
		<path class="st0" d="M175,70.4c-0.7-0.3-0.8-1-0.7-1.6C174.7,69.2,174.9,69.8,175,70.4z"/>
		<path class="st0" d="M174.1,68.3c-0.8-0.3-0.5-1.1-0.7-1.6C173.8,67.1,174,67.7,174.1,68.3z"/>
		<path class="st0" d="M28.2,136.8c0.6,0.2,0.7,0.6,0.7,1.2C28.5,137.7,28.4,137.2,28.2,136.8z"/>
		<path class="st0" d="M179.8,91.1c-0.4-0.7-0.1-1.4-0.2-2.1C180.1,89.7,179.8,90.4,179.8,91.1z"/>
		<path class="st0" d="M161.1,47.8c-0.7,0.1-0.8-0.4-0.7-0.9C160.7,47.1,161,47.3,161.1,47.8z"/>
		<path class="st0" d="M29.4,138.9c0.6,0.2,0.8,0.6,0.7,1.2C29.7,139.8,29.5,139.4,29.4,138.9z"/>
		<path class="st0" d="M70.4,175c0.5,0,1.1-0.1,1.4,0.5C71.3,175.5,70.8,175.3,70.4,175z"/>
		<path class="st0" d="M180.1,93.3c-0.6-0.6-0.2-1.3-0.3-1.9C180.3,91.9,180.1,92.6,180.1,93.3z"/>
		<path class="st0" d="M34.3,146.5c0.7,0,0.8,0.4,0.7,1C34.8,147.2,34.5,146.9,34.3,146.5z"/>
		<path class="st0" d="M167.1,55.5c-0.5-0.2-0.8-0.4-0.7-1C166.8,54.7,167.1,55,167.1,55.5z"/>
		<path class="st0" d="M130.3,25.2c-0.5,0-1,0.1-1.2-0.5C129.5,24.8,130,24.9,130.3,25.2z"/>
		<path class="st0" d="M176.2,73.7c-0.5-0.3-0.5-0.7-0.5-1.2C176.1,72.8,176.1,73.2,176.2,73.7z"/>
		<path class="st0" d="M179.6,88.8c-0.4-0.5-0.1-1.1-0.2-1.6C179.8,87.7,179.7,88.2,179.6,88.8z"/>
		<path class="st0" d="M131.2,25.7c-0.4,0.1-0.8,0-1-0.5C130.6,25.3,131,25.3,131.2,25.7z"/>
		<path class="st0" d="M68.8,174.3c0.5-0.1,0.9,0,1.2,0.5C69.5,174.8,69.1,174.6,68.8,174.3z"/>
		<path class="st0" d="M58.3,31c-0.1,0.5-0.5,0.5-0.9,0.5C57.6,31.3,57.9,31,58.3,31z"/>
		<path class="st0" d="M56.2,32.4c-0.1,0.5-0.5,0.5-0.9,0.5C55.5,32.7,55.8,32.4,56.2,32.4z"/>
		<path class="st0" d="M168.7,58.1c-0.4-0.1-0.5-0.3-0.5-0.7C168.6,57.4,168.7,57.7,168.7,58.1z"/>
		<path class="st0" d="M167.8,56.4c-0.5,0-0.5-0.3-0.5-0.7C167.5,55.9,167.7,56.1,167.8,56.4z"/>
		<path class="st0" d="M166.4,54.6c-0.4-0.1-0.5-0.3-0.5-0.7C166.4,53.9,166.4,54.2,166.4,54.6z"/>
		<path class="st0" d="M170.1,60.2c-0.5,0-0.5-0.4-0.5-0.7C169.9,59.6,170,59.9,170.1,60.2z"/>
		<path class="st0" d="M163.6,50.8c-0.6,0.1-0.5-0.3-0.5-0.7C163.4,50.3,163.6,50.5,163.6,50.8z"/>
		<path class="st0" d="M57.4,31.5c0,0.5-0.4,0.5-0.7,0.5C56.9,31.8,57.1,31.6,57.4,31.5z"/>
		<path class="st0" d="M55.3,32.9c0,0.5-0.4,0.5-0.7,0.5C54.8,33.2,55.1,33.1,55.3,32.9z"/>
		<path class="st0" d="M56.7,32c0,0.3-0.2,0.5-0.5,0.4C56.2,32.1,56.5,32.1,56.7,32z"/>
		<path class="st0" d="M53,34.6c0,0.3-0.2,0.5-0.5,0.4C52.6,34.8,52.8,34.6,53,34.6z"/>
		<path class="st0" d="M164.1,51.3c-0.4,0-0.5-0.1-0.5-0.5C163.9,50.9,164,51.1,164.1,51.3z"/>
		<path class="st0" d="M161.5,48.2c-0.4,0.1-0.6-0.1-0.5-0.5C161.4,47.8,161.5,48,161.5,48.2z"/>
		<path class="st0" d="M50.6,36.4c0,0.4-0.2,0.5-0.6,0.5C50.2,36.6,50.4,36.5,50.6,36.4z"/>
		<path class="st0" d="M68.1,174c0.3,0,0.6-0.1,0.7,0.3C68.5,174.3,68.3,174.3,68.1,174z"/>
		<path class="st0" d="M172.2,64.3c-0.4-0.1-0.3-0.4-0.3-0.7C172.2,63.8,172.3,64,172.2,64.3z"/>
		<path class="st0" d="M173.1,66.2c-0.4-0.1-0.3-0.4-0.3-0.7C173.1,65.7,173.2,65.9,173.1,66.2z"/>
		<path class="st0" d="M176.4,74.4c-0.3-0.2-0.3-0.5-0.3-0.7C176.4,73.8,176.4,74.1,176.4,74.4z"/>
		<path class="st0" d="M176.6,75.1c-0.3-0.2-0.3-0.5-0.3-0.7C176.7,74.5,176.6,74.8,176.6,75.1z"/>
		<path class="st0" d="M171.5,62.9c-0.3-0.1-0.3-0.2-0.3-0.5C171.5,62.5,171.6,62.7,171.5,62.9z"/>
		<path class="st0" d="M159.6,46.2c-0.3-0.1-0.3-0.3-0.3-0.5C159.5,45.8,159.7,45.9,159.6,46.2z"/>
		<path class="st0" d="M170.3,60.6c-0.2-0.1-0.3-0.3-0.3-0.5C170.3,60.3,170.3,60.4,170.3,60.6z"/>
		<path class="st0" d="M134.5,27.1c-0.2,0-0.4,0-0.5-0.2C134.2,26.9,134.4,26.9,134.5,27.1z"/>
		<path class="st0" d="M134.9,27.3c-0.2,0-0.4,0-0.5-0.3C134.7,27.1,134.8,27.1,134.9,27.3z"/>
		<path class="st0" d="M162.4,49.4c-0.3-0.1-0.3-0.3-0.3-0.5C162.4,49.1,162.5,49.2,162.4,49.4z"/>
		<path class="st0" d="M135.5,27.6c-0.2,0-0.5,0-0.6-0.3C135.2,27.3,135.4,27.4,135.5,27.6z"/>
		<path class="st0" d="M59,30.6c-0.1,0.2-0.3,0.3-0.5,0.3C58.6,30.6,58.8,30.6,59,30.6z"/>
		<path class="st0" d="M172.7,65.1c-0.2-0.1-0.3-0.3-0.3-0.5C172.6,64.7,172.7,64.9,172.7,65.1z"/>
		<path class="st0" d="M172.9,65.5c-0.2-0.1-0.3-0.3-0.3-0.5C172.8,65.1,172.9,65.3,172.9,65.5z"/>
		<path class="st0" d="M71.8,175.4c0.2,0,0.4,0,0.5,0.2C72.1,175.7,71.9,175.7,71.8,175.4z"/>
		<path class="st0" d="M69.9,174.7c0.2,0,0.4,0,0.5,0.3C70.2,175,70,175,69.9,174.7z"/>
		<path class="st0" d="M52.3,35.2c-0.1,0.3-0.3,0.3-0.5,0.3C51.9,35.3,52,35.2,52.3,35.2z"/>
		<path class="st0" d="M67.5,173.8c0.2,0,0.5,0,0.6,0.3C67.9,174,67.6,174,67.5,173.8z"/>
		<path class="st0" d="M33.9,145.8c0.2,0.1,0.3,0.3,0.3,0.5C34,146.2,33.9,146.1,33.9,145.8z"/>
		<path class="st0" d="M33.6,145.4c0.3,0.1,0.3,0.3,0.3,0.5C33.7,145.8,33.5,145.6,33.6,145.4z"/>
		<path class="st0" d="M32.9,144.5c0.3,0.1,0.3,0.3,0.3,0.5C33,144.8,32.9,144.7,32.9,144.5z"/>
		<path class="st0" d="M51.1,36.2c-0.1,0.3-0.3,0.3-0.5,0.3C50.7,36.2,50.9,36.1,51.1,36.2z"/>
		<path class="st0" d="M29.2,138.4c0.3,0.1,0.3,0.3,0.3,0.5C29.2,138.8,29.2,138.6,29.2,138.4z"/>
		<path class="st0" d="M28.9,137.9c0.3,0.1,0.3,0.3,0.3,0.5C29,138.3,28.9,138.2,28.9,137.9z"/>
		<path class="st0" d="M173.4,66.7c-0.3-0.1-0.3-0.3-0.3-0.5C173.4,66.3,173.4,66.5,173.4,66.7z"/>
		<path class="st0" d="M25.5,130.7c0.3,0.1,0.3,0.3,0.3,0.5C25.5,131.1,25.5,130.9,25.5,130.7z"/>
		<path class="st0" d="M172,63.7c-0.3-0.1-0.3-0.3-0.3-0.5C171.9,63.3,172,63.5,172,63.7z"/>
		<path class="st0" d="M174.3,68.8c-0.3-0.1-0.3-0.3-0.3-0.5C174.3,68.4,174.3,68.6,174.3,68.8z"/>
		<path class="st0" d="M25.6,68.8c0.2,0.2,0.2,0.3-0.1,0.4C25.5,69.1,25.5,68.9,25.6,68.8z"/>
		<path class="st0" d="M165.9,53.9c-0.3-0.1-0.3-0.3-0.3-0.5C165.8,53.5,166,53.6,165.9,53.9z"/>
		<path class="st0" d="M168,56.9c-0.2-0.1-0.3-0.3-0.3-0.5C168,56.5,168,56.7,168,56.9z"/>
		<path class="st0" d="M168.3,57.4c-0.3-0.1-0.3-0.3-0.3-0.5C168.2,57,168.3,57.1,168.3,57.4z"/>
		<path class="st0" d="M59.5,30.3c-0.1,0.3-0.3,0.3-0.5,0.3C59.1,30.4,59.3,30.3,59.5,30.3z"/>
		<path class="st0" d="M169.2,58.8c-0.3-0.1-0.3-0.3-0.3-0.5C169.1,58.4,169.2,58.6,169.2,58.8z"/>
		<path class="st0" d="M164.5,52c-0.2-0.1-0.3-0.3-0.3-0.5C164.4,51.7,164.5,51.8,164.5,52z"/>
		<path class="st0" d="M169.4,59.2c-0.3-0.1-0.3-0.2-0.3-0.5C169.4,58.8,169.5,59,169.4,59.2z"/>
		<path class="st0" d="M158.5,44.8c-0.1-0.1-0.2-0.2-0.3-0.3C158.3,44.6,158.4,44.7,158.5,44.8z"/>
		<path class="st0" d="M158.2,44.6c-0.1-0.1-0.2-0.2-0.2-0.3C158.1,44.4,158.1,44.5,158.2,44.6z"/>
		<path class="st0" d="M26.9,134c0.1,0.1,0.2,0.2,0.3,0.3C26.9,134.3,26.9,134.1,26.9,134z"/>
		<path class="st0" d="M49.7,37.1c-0.1,0.1-0.2,0.2-0.3,0.3C49.5,37.3,49.6,37.2,49.7,37.1z"/>
		<path class="st0" d="M167.3,55.8c-0.1-0.1-0.2-0.2-0.3-0.3C167.2,55.5,167.3,55.6,167.3,55.8z"/>
		<path class="st0" d="M51.3,35.9c-0.1,0.1-0.2,0.2-0.3,0.3C51,36,51.2,35.9,51.3,35.9z"/>
		<path class="st0" d="M33.2,144.9c0.1,0.1,0.2,0.2,0.3,0.3C33.2,145.2,33.2,145.1,33.2,144.9z"/>
		<path class="st0" d="M33.4,145.2c0.1,0.1,0.2,0.2,0.3,0.3C33.4,145.5,33.4,145.3,33.4,145.2z"/>
		<path class="st0" d="M51.6,35.7c-0.1,0.1-0.2,0.2-0.3,0.3C51.3,35.8,51.4,35.7,51.6,35.7z"/>
		<path class="st0" d="M51.8,35.5c-0.1,0.1-0.2,0.2-0.3,0.3C51.6,35.6,51.7,35.5,51.8,35.5z"/>
		<path class="st0" d="M52.5,35c-0.1,0.1-0.2,0.2-0.3,0.3C52.2,35.1,52.3,35,52.5,35z"/>
		<path class="st0" d="M168.9,58.3c-0.1-0.1-0.2-0.2-0.3-0.3C168.9,58,168.9,58.2,168.9,58.3z"/>
		<path class="st0" d="M172.4,64.6c-0.1-0.1-0.2-0.2-0.3-0.3C172.4,64.3,172.4,64.4,172.4,64.6z"/>
		<path class="st0" d="M164.3,51.6c-0.1-0.1-0.2-0.2-0.3-0.3C164.1,51.4,164.2,51.5,164.3,51.6z"/>
		<path class="st0" d="M58.6,30.8c-0.1,0.1-0.2,0.2-0.3,0.3C58.3,30.9,58.4,30.8,58.6,30.8z"/>
		<path class="st0" d="M163.1,50.2c-0.1-0.1-0.2-0.2-0.3-0.3C163,49.9,163.1,50,163.1,50.2z"/>
		<path class="st0" d="M162.9,49.9c-0.1-0.1-0.2-0.2-0.3-0.3C162.8,49.6,162.9,49.8,162.9,49.9z"/>
		<path class="st0" d="M162.7,49.7c-0.1-0.1-0.2-0.2-0.3-0.3C162.6,49.4,162.7,49.5,162.7,49.7z"/>
		<path class="st0" d="M162.2,49c-0.1-0.1-0.2-0.2-0.3-0.3C162.1,48.7,162.2,48.8,162.2,49z"/>
		<path class="st0" d="M162,48.8c-0.1-0.1-0.2-0.2-0.3-0.3C161.9,48.5,161.9,48.6,162,48.8z"/>
		<path class="st0" d="M169.6,59.5c-0.1-0.1-0.2-0.2-0.3-0.3C169.6,59.2,169.6,59.3,169.6,59.5z"/>
		<path class="st0" d="M161.7,48.5c-0.1-0.1-0.2-0.2-0.3-0.3C161.7,48.2,161.7,48.4,161.7,48.5z"/>
		<path class="st0" d="M160.3,46.9c-0.1-0.1-0.2-0.2-0.3-0.2C160.2,46.6,160.3,46.7,160.3,46.9z"/>
		<path class="st0" d="M160.1,46.7c-0.1-0.1-0.2-0.2-0.3-0.3C160,46.4,160.1,46.5,160.1,46.7z"/>
		<path class="st0" d="M159.9,46.4c-0.1-0.1-0.2-0.2-0.3-0.3C159.8,46.1,159.9,46.2,159.9,46.4z"/>
		<path class="st0" d="M171.7,63.2c-0.1-0.1-0.2-0.2-0.3-0.3C171.7,62.9,171.7,63,171.7,63.2z"/>
		<path class="st2" d="M161.3,87.3c1.3,2.3,2.4,4.6,3.1,7.1c1,3.6,1.4,7.3,1.1,11c-0.1,1.5-0.2,3.1-0.6,4.6c-1.2,5-3.3,9.5-6.7,13.4
			c-4.9,5.6-10.9,9.3-18.3,10.5c-5,0.9-9.8,0.5-14.6-0.9c-1.6-0.5-3.4-0.9-4.8-1.7c-2.1-1.3-4.1-2.6-5.9-4.2
			c-4.5-4.1-8.7-8.6-13.1-12.9c-0.7-0.7-1-0.6-1.6,0c-4,4-7.9,8.1-12,12c-6.9,6.6-15.2,9.1-24.6,8.2c-5.5-0.5-10.5-2.6-15-5.8
			c0,0,0,0,0,0c-0.2-0.3-0.5-0.6-0.9-0.7c0,0,0,0,0,0c0-0.2-0.1-0.2-0.2-0.3c-0.1-0.1-0.1-0.1-0.2-0.2c-0.1-0.2-0.3-0.3-0.5-0.3
			c0,0,0,0,0,0c0-0.2-0.1-0.3-0.3-0.3c0,0,0,0,0,0c-0.1-0.3-0.3-0.4-0.5-0.5c0,0,0,0,0,0c-0.1-0.2-0.3-0.4-0.5-0.5c0,0,0,0,0,0
			c-0.1-0.2-0.3-0.4-0.5-0.5c-0.1-0.1-0.1-0.1-0.2-0.2c-0.1-0.1-0.2-0.2-0.3-0.2c0,0,0,0,0,0c-0.1-0.1-0.2-0.2-0.3-0.3c0,0,0,0,0,0
			c-0.1-0.1-0.2-0.2-0.3-0.3c0,0,0,0,0,0c-0.1-0.2-0.2-0.4-0.5-0.5c0,0,0,0,0,0c0-0.2-0.1-0.3-0.3-0.3c0,0,0,0,0,0
			c-0.1-0.2-0.2-0.4-0.5-0.5c0,0,0,0,0,0c0.1-0.2-0.1-0.4-0.3-0.5c0,0,0,0,0,0c-0.3-0.4-0.5-0.9-0.9-1.2c0,0,0,0,0,0
			c0-0.1-0.1-0.3-0.3-0.3c0,0,0,0,0,0c0-0.2-0.1-0.3-0.3-0.3c0,0,0,0,0,0c-0.2-0.7-0.7-1.3-1.2-1.9c0,0,0,0,0,0
			c0-0.3-0.1-0.6-0.5-0.7c0,0,0,0,0,0c0-0.2,0-0.4-0.3-0.5c0,0,0,0,0,0c0-0.2,0-0.4-0.3-0.5c0,0,0,0,0,0c0-0.2-0.1-0.4-0.3-0.5
			c0,0,0,0,0,0c0-0.2,0-0.4-0.2-0.5c0,0,0,0,0,0c-0.4-1.1-0.7-2.3-1.4-3.3c-0.2-1.7-0.6-3.3-1.1-4.9c0.2-0.7-0.2-1.4-0.2-2.1
			c0-3-0.1-5.9,0.4-8.9c0.4-2.5,1.3-4.9,2.1-7.3c0,0,0,0,0,0c0.3-0.3,0.4-0.6,0.5-0.9c0,0,0,0,0,0c0.2-0.1,0.2-0.3,0.3-0.5
			c0,0,0,0,0,0c0.2-0.1,0.3-0.3,0.3-0.5c0,0,0,0,0,0c0.5-0.5,0.8-1,0.9-1.6c0,0,0,0,0,0c0.2,0,0.2-0.1,0.3-0.3c0,0,0,0,0,0
			c0.2-0.1,0.3-0.3,0.3-0.5c0,0,0,0,0,0c0.3-0.1,0.5-0.4,0.5-0.7c0,0,0,0,0,0c0.2,0.1,0.3-0.1,0.3-0.3c0,0,0,0,0,0
			c0.3-0.1,0.4-0.3,0.4-0.5c0,0,0,0,0,0c0.2-0.1,0.3-0.2,0.3-0.5c0,0,0,0,0,0c0.3-0.1,0.4-0.3,0.5-0.5c0,0,0,0,0,0
			c0.2-0.2,0.3-0.3,0.5-0.5c0,0,0,0,0,0c0.2-0.1,0.3-0.2,0.3-0.5c0,0,0,0,0,0c0.2,0,0.3-0.1,0.3-0.3c0,0,0,0,0,0
			c0.2,0,0.2-0.1,0.3-0.3c0,0,0,0,0,0c0.2,0,0.2-0.1,0.3-0.3c0,0,0,0,0,0c0.7-0.5,1.3-1.2,1.9-1.9c0,0,0,0,0,0
			c0.3-0.1,0.5-0.2,0.5-0.5c0,0,0,0,0,0c0.4-0.2,0.7-0.4,0.9-0.7c0,0,0,0,0,0c0.1,0,0.2-0.1,0.3-0.3c0,0,0,0,0,0
			c0.2,0,0.3-0.1,0.3-0.3c0,0,0,0,0,0c0.4-0.1,0.7-0.4,0.9-0.7c0,0,0,0,0,0c0.2,0,0.4-0.1,0.5-0.3c0,0,0,0,0,0
			c0.2-0.1,0.4-0.2,0.5-0.4c0,0,0,0,0,0c0.5-0.1,0.9-0.4,1.2-0.7c0,0,0,0,0,0c0.2,0,0.4-0.1,0.5-0.3c0,0,0,0,0,0
			c0.1,0,0.3-0.1,0.3-0.2c0,0,0,0,0,0c0.5,0,0.9-0.3,1.3-0.6c2.5-1.3,5.1-2.2,7.8-2.8c2.7-0.6,5.4-0.5,8.1-0.6
			c2.1,0.3,4.2,0.5,6.3,1c5.3,1.4,9.8,4,13.6,7.9c3.8,3.7,7.5,7.5,11.3,11.2c0.7,0.7,1.1,0.6,1.7,0c3.8-3.8,7.6-7.6,11.4-11.4
			c5.1-5.1,11.2-8,18.4-8.7c0.3,0,0.5-0.1,0.8-0.2c4.3-0.1,8.6,0.1,12.8,1.7c1.2,0.5,2.5,1,3.7,1.4c0,0,0,0,0,0
			c0.5,0.5,1.2,0.8,1.9,1.1c0,0,0,0,0,0c0.2,0.1,0.3,0.2,0.5,0.3c0,0,0,0,0,0c0.2,0.3,0.5,0.5,0.9,0.5c0,0,0,0,0,0
			c0,0.2,0.1,0.2,0.3,0.3c0,0,0,0,0,0c0,0.2,0.1,0.2,0.3,0.3c0,0,0,0,0,0c0.3,0.3,0.6,0.5,1,0.7c0,0,0,0,0,0
			c0.1,0.2,0.2,0.3,0.5,0.3c0,0,0,0,0,0c0.1,0.4,0.4,0.5,0.7,0.7c0.1,0.1,0.1,0.1,0.2,0.2c0.1,0.1,0.2,0.2,0.3,0.2c0,0,0,0,0,0
			c0.1,0.2,0.2,0.3,0.5,0.3c0,0,0,0,0,0c0,0.2,0.1,0.3,0.3,0.3c0,0,0,0,0,0c0,0.2,0.1,0.3,0.3,0.3c0,0,0,0,0,0
			c0.1,0.3,0.2,0.4,0.5,0.5c0,0,0,0,0,0c0,0.2,0.1,0.3,0.3,0.3c0,0,0,0,0,0c0.1,0.3,0.2,0.4,0.5,0.5c0,0,0,0,0,0
			c0,0.2,0.1,0.3,0.3,0.3c0,0,0,0,0,0c0,0.2,0.1,0.3,0.3,0.3c0,0,0,0,0,0c0,0.2,0,0.3,0.3,0.3c0,0,0,0,0,0c-0.1,0.3,0.1,0.4,0.3,0.5
			c0.1,0.1,0.1,0.1,0.2,0.2c0.4,0.5,0.8,0.9,1.2,1.4c0,0,0,0,0,0c0.1,0.1,0.2,0.2,0.3,0.3c0,0,0,0,0,0c0,0.1,0.1,0.3,0.3,0.3
			c0,0,0,0,0,0c0.1,0.4,0.3,0.7,0.7,0.9c0,0,0,0,0,0C160.6,86.4,160.9,86.9,161.3,87.3L161.3,87.3z M49.9,103.7
			c-0.2,3.6,1,6.9,3.2,9.7c3.6,4.9,8.6,7.3,14.7,7c3.9-0.2,7.3-1.4,10.1-4.3c3.9-4.1,8-8,12-12c0.6-0.6,0.7-0.9,0-1.5
			c-3.6-3.6-7.2-7.1-10.8-10.8c-4.3-4.4-9.5-6-15.6-5C56.6,87.9,49.6,94.8,49.9,103.7z M134.5,86.4c-4.6-0.1-8.6,1.5-11.8,4.8
			c-3.7,3.9-7.6,7.7-11.4,11.5c-0.7,0.7-0.5,0.9,0,1.5c3.6,3.6,7.2,7.1,10.8,10.7c5.4,5.4,11.7,6.8,18.7,4.1
			c6.5-2.6,10.1-7.7,10.6-14.8C152.1,94.5,144.3,86.4,134.5,86.4z"/>
		<path class="st0" d="M38.4,90.5c-0.8,2.4-1.7,4.8-2.1,7.3c-0.5,3-0.5,5.9-0.4,8.9c0,0.7,0.4,1.4,0.2,2.1c-0.4-0.3-0.4-0.9-0.4-1.3
			c-0.2-2.6-0.4-5.1,0-7.7c0.4-3,1.1-6.1,2.3-8.9C38,90.7,38,90.4,38.4,90.5z"/>
		<path class="st0" d="M148.6,75.4c-1.2-0.5-2.5-1-3.7-1.4c-4.1-1.5-8.4-1.8-12.8-1.7c1.1-0.7,2.4-0.5,3.6-0.4
			c2.8,0.1,5.6,0.5,8.3,1.4c1.4,0.4,2.7,1,4,1.6C148.3,74.9,148.6,75,148.6,75.4z"/>
		<path class="st0" d="M68.6,72.4c-2.7,0.1-5.4,0-8.1,0.6c-2.7,0.6-5.4,1.5-7.8,2.8c-0.4,0.2-0.8,0.5-1.3,0.6
			c0.9-1.1,2.2-1.4,3.3-1.9c2.8-1.2,5.7-1.9,8.7-2.1c1.4-0.1,2.8-0.2,4.1-0.2C67.9,72.1,68.4,71.9,68.6,72.4z"/>
		<path class="st0" d="M37.2,113.7c0.7,1,1,2.1,1.4,3.3C37.6,116.1,37.4,114.9,37.2,113.7z"/>
		<path class="st0" d="M45.8,80.5c-0.5,0.7-1.2,1.3-1.9,1.9C44.2,81.4,44.9,80.8,45.8,80.5z"/>
		<path class="st0" d="M159.3,84.4c-0.4-0.5-0.8-0.9-1.2-1.4C159.3,82.8,159.4,83.5,159.3,84.4z"/>
		<path class="st0" d="M150.5,76.5c-0.7-0.3-1.4-0.6-1.9-1.1C149.5,75.3,150.1,75.7,150.5,76.5z"/>
		<path class="st0" d="M40,119.5c0.5,0.5,1,1.1,1.2,1.9C40.4,121,40,120.4,40,119.5z"/>
		<path class="st0" d="M161.4,87.2c-0.5-0.4-0.8-0.8-0.9-1.4C161,86.1,161.6,86.5,161.4,87.2z"/>
		<path class="st0" d="M40.2,87c-0.1,0.6-0.5,1.2-0.9,1.6C39.2,87.8,39.7,87.4,40.2,87z"/>
		<path class="st0" d="M41.6,121.8c0.4,0.3,0.7,0.7,0.9,1.2C41.8,122.9,41.5,122.5,41.6,121.8z"/>
		<path class="st0" d="M50.7,76.7c-0.3,0.4-0.7,0.6-1.2,0.7C49.7,76.9,50.1,76.6,50.7,76.7z"/>
		<path class="st0" d="M160.5,85.8c-0.4-0.2-0.6-0.5-0.7-0.9C160.4,84.9,160.5,85.4,160.5,85.8z"/>
		<path class="st0" d="M47.4,127.9c0.4,0.2,0.7,0.4,0.9,0.7C47.8,128.7,47.4,128.5,47.4,127.9z"/>
		<path class="st0" d="M47.2,79.3c-0.2,0.3-0.5,0.6-0.9,0.7C46.2,79.3,46.7,79.3,47.2,79.3z"/>
		<path class="st0" d="M48.6,78.1c-0.2,0.3-0.5,0.6-0.9,0.7C47.6,78.2,48.1,78.1,48.6,78.1z"/>
		<path class="st0" d="M153.3,78.4c-0.4-0.2-0.7-0.4-1-0.7C152.9,77.6,153.3,77.7,153.3,78.4z"/>
		<path class="st0" d="M154.4,79.3c-0.3-0.2-0.6-0.4-0.7-0.7C154.2,78.6,154.4,78.8,154.4,79.3z"/>
		<path class="st0" d="M151.9,77.2c-0.4,0-0.7-0.2-0.9-0.5C151.4,76.7,151.8,76.7,151.9,77.2z"/>
		<path class="st0" d="M38.8,89.5c-0.1,0.4-0.2,0.7-0.5,0.9C38.4,90.1,38.2,89.6,38.8,89.5z"/>
		<path class="st0" d="M39.5,118.8c0.3,0.1,0.4,0.4,0.5,0.7C39.6,119.4,39.5,119.2,39.5,118.8z"/>
		<path class="st0" d="M41.2,85.6c0,0.4-0.2,0.6-0.5,0.7C40.6,85.9,40.8,85.7,41.2,85.6z"/>
		<path class="st0" d="M49.6,77.5c-0.1,0.3-0.3,0.4-0.5,0.4C49,77.5,49.2,77.4,49.6,77.5z"/>
		<path class="st0" d="M156.3,81c-0.2-0.1-0.4-0.2-0.5-0.5C156.2,80.4,156.3,80.6,156.3,81z"/>
		<path class="st0" d="M157,81.7c-0.3-0.1-0.4-0.2-0.5-0.5C156.9,81.1,157,81.3,157,81.7z"/>
		<path class="st0" d="M42.6,83.9c-0.1,0.2-0.2,0.4-0.5,0.5C42,84.1,42.2,83.9,42.6,83.9z"/>
		<path class="st0" d="M41.8,84.9c-0.1,0.2-0.2,0.4-0.4,0.5C41.3,85,41.5,84.9,41.8,84.9z"/>
		<path class="st0" d="M42.8,123.4c0.3,0,0.4,0.2,0.5,0.5C42.9,124,42.7,123.8,42.8,123.4z"/>
		<path class="st0" d="M43.5,124.1c0.2,0.1,0.4,0.3,0.5,0.5C43.6,124.7,43.4,124.5,43.5,124.1z"/>
		<path class="st0" d="M44.9,125.5c0.2,0.1,0.4,0.3,0.5,0.5C45,126,44.8,125.9,44.9,125.5z"/>
		<path class="st0" d="M45.3,126c0.2,0.1,0.4,0.2,0.5,0.5C45.5,126.5,45.3,126.4,45.3,126z"/>
		<path class="st0" d="M45.8,126.5c0.2,0.1,0.4,0.2,0.5,0.5C45.9,127,45.8,126.8,45.8,126.5z"/>
		<path class="st0" d="M43,83.5c-0.2,0.2-0.3,0.3-0.5,0.5C42.5,83.6,42.7,83.5,43,83.5z"/>
		<path class="st0" d="M46.3,80c0,0.3-0.2,0.4-0.5,0.5C45.8,80.2,46,80,46.3,80z"/>
		<path class="st0" d="M42.5,123c0.2,0.1,0.3,0.2,0.3,0.5C42.5,123.4,42.5,123.2,42.5,123z"/>
		<path class="st0" d="M39.3,118.3c0.2,0.1,0.3,0.3,0.3,0.5C39.3,118.7,39.3,118.6,39.3,118.3z"/>
		<path class="st0" d="M39.1,117.9c0.2,0.1,0.3,0.3,0.3,0.5C39,118.3,39,118.1,39.1,117.9z"/>
		<path class="st0" d="M38.8,117.4c0.2,0.1,0.3,0.3,0.3,0.5C38.8,117.8,38.8,117.6,38.8,117.4z"/>
		<path class="st0" d="M38.6,116.9c0.2,0.1,0.2,0.3,0.2,0.5C38.6,117.3,38.6,117.2,38.6,116.9z"/>
		<path class="st0" d="M39.1,89c0,0.2,0,0.4-0.3,0.5C38.8,89.3,38.8,89.1,39.1,89z"/>
		<path class="st0" d="M39.3,88.6c0,0.2-0.1,0.4-0.3,0.5C39,88.9,39.1,88.7,39.3,88.6z"/>
		<path class="st0" d="M40.7,86.3c0,0.2,0,0.4-0.3,0.5C40.4,86.5,40.4,86.3,40.7,86.3z"/>
		<path class="st0" d="M46.5,127.2c0.2,0,0.4,0.1,0.5,0.3C46.8,127.4,46.6,127.4,46.5,127.2z"/>
		<path class="st0" d="M155.4,80c-0.2,0-0.4-0.1-0.5-0.3C155.1,79.7,155.3,79.8,155.4,80z"/>
		<path class="st0" d="M151,76.7c-0.2-0.1-0.3-0.2-0.5-0.3C150.7,76.5,150.9,76.5,151,76.7z"/>
		<path class="st0" d="M157.9,82.8c-0.2-0.1-0.3-0.2-0.3-0.5C157.9,82.4,157.9,82.6,157.9,82.8z"/>
		<path class="st0" d="M51.2,76.5c-0.1,0.2-0.3,0.3-0.5,0.3C50.7,76.5,50.9,76.5,51.2,76.5z"/>
		<path class="st0" d="M43.3,83c0,0.2-0.1,0.4-0.3,0.5C43,83.3,43,83.1,43.3,83z"/>
		<path class="st0" d="M42.1,84.4c0,0.2-0.1,0.4-0.3,0.5C41.8,84.7,41.8,84.5,42.1,84.4z"/>
		<path class="st0" d="M153.7,78.6c-0.2,0-0.4-0.1-0.5-0.3C153.5,78.3,153.7,78.4,153.7,78.6z"/>
		<path class="st0" d="M49,77.9c-0.1,0.2-0.2,0.3-0.5,0.3C48.6,77.9,48.8,77.9,49,77.9z"/>
		<path class="st0" d="M155.8,80.5c-0.2,0-0.3-0.1-0.3-0.3C155.7,80.3,155.8,80.4,155.8,80.5z"/>
		<path class="st0" d="M47.2,127.6c0.1,0.1,0.3,0.1,0.2,0.3C47.3,127.8,47.3,127.7,47.2,127.6z"/>
		<path class="st0" d="M155.6,80.2c-0.2,0-0.3-0.1-0.3-0.3C155.4,80.1,155.5,80.2,155.6,80.2z"/>
		<path class="st0" d="M46.3,126.9c0.2,0,0.3,0.1,0.3,0.3C46.4,127.1,46.3,127,46.3,126.9z"/>
		<path class="st0" d="M154.9,79.8c-0.1-0.1-0.2-0.2-0.3-0.2C154.7,79.6,154.8,79.7,154.9,79.8z"/>
		<path class="st0" d="M47.4,79c0,0.2-0.1,0.2-0.3,0.3C47.3,79.2,47.3,79.1,47.4,79z"/>
		<path class="st0" d="M47.7,78.8c0,0.2-0.1,0.2-0.3,0.3C47.5,79,47.6,78.9,47.7,78.8z"/>
		<path class="st0" d="M152.4,77.7c-0.2,0-0.3-0.1-0.3-0.3C152.2,77.5,152.3,77.6,152.4,77.7z"/>
		<path class="st0" d="M152.1,77.5c-0.2,0-0.3-0.1-0.3-0.3C151.9,77.3,152,77.4,152.1,77.5z"/>
		<path class="st0" d="M41.4,85.3c0,0.2,0,0.3-0.3,0.3C41.2,85.5,41.3,85.4,41.4,85.3z"/>
		<path class="st0" d="M40.5,86.7c0,0.2,0,0.3-0.3,0.3C40.3,86.9,40.4,86.8,40.5,86.7z"/>
		<path class="st0" d="M159.8,84.9c-0.2,0-0.2-0.1-0.3-0.3C159.6,84.7,159.7,84.8,159.8,84.9z"/>
		<path class="st0" d="M159.6,84.7c-0.1-0.1-0.2-0.2-0.3-0.3C159.4,84.5,159.5,84.6,159.6,84.7z"/>
		<path class="st0" d="M43.5,82.8c0,0.2-0.1,0.3-0.3,0.3C43.3,83,43.4,82.9,43.5,82.8z"/>
		<path class="st0" d="M43.7,82.5c0,0.2-0.1,0.3-0.3,0.3C43.5,82.7,43.6,82.6,43.7,82.5z"/>
		<path class="st0" d="M43.9,82.3c0,0.2-0.1,0.3-0.3,0.3C43.8,82.5,43.9,82.4,43.9,82.3z"/>
		<path class="st0" d="M41.1,121.4c0.2,0,0.2,0.1,0.3,0.3C41.3,121.5,41.2,121.4,41.1,121.4z"/>
		<path class="st0" d="M41.4,121.6c0.2,0,0.2,0.1,0.3,0.3C41.5,121.8,41.4,121.7,41.4,121.6z"/>
		<path class="st0" d="M157.7,82.3c-0.2,0-0.3-0.1-0.3-0.3C157.5,82.2,157.6,82.3,157.7,82.3z"/>
		<path class="st0" d="M157.5,82.1c-0.2,0-0.3-0.1-0.3-0.3C157.3,81.9,157.4,82,157.5,82.1z"/>
		<path class="st0" d="M157.2,81.9c-0.2,0-0.3-0.1-0.3-0.3C157.1,81.7,157.1,81.8,157.2,81.9z"/>
		<path class="st0" d="M43.2,123.9c0.2,0,0.3,0.1,0.3,0.3C43.4,124.1,43.3,124,43.2,123.9z"/>
		<path class="st0" d="M43.9,124.6c0.1,0.1,0.2,0.2,0.3,0.3C44.1,124.8,44,124.7,43.9,124.6z"/>
		<path class="st0" d="M44.1,124.9c0.1,0.1,0.2,0.2,0.3,0.3C44.3,125,44.2,124.9,44.1,124.9z"/>
		<path class="st0" d="M44.4,125.1c0.1,0.1,0.2,0.2,0.3,0.2C44.6,125.3,44.5,125.2,44.4,125.1z"/>
		<path class="st0" d="M156.5,81.2c-0.2,0-0.3-0.1-0.3-0.3C156.4,81,156.5,81.1,156.5,81.2z"/>
		<path class="st0" d="M51.4,76.3c0,0.2-0.1,0.2-0.3,0.2C51.2,76.4,51.3,76.3,51.4,76.3z"/>
		<path class="st1" d="M49.9,103.7c-0.3-8.9,6.7-15.8,13.6-16.9c6-1,11.3,0.5,15.6,5c3.5,3.6,7.1,7.2,10.8,10.8
			c0.6,0.6,0.6,0.9,0,1.5c-4,4-8.1,7.9-12,12c-2.8,2.9-6.2,4.1-10.1,4.3c-6.1,0.3-11-2.1-14.7-7C51,110.5,49.7,107.3,49.9,103.7z
			 M68.4,106.5c2.6,0,5.1,0,7.7,0c1.8,0,3.2-1.3,3.3-2.9c0.1-1.8-1.1-3.3-3-3.3c-5.3-0.1-10.7-0.1-16,0c-1.9,0-3,1.4-3,3.2
			c0,1.8,1.4,3,3.2,3C63.2,106.5,65.8,106.5,68.4,106.5z"/>
		<path class="st1" d="M134.5,86.4c9.9,0,17.6,8.1,16.9,17.8c-0.5,7-4,12.2-10.6,14.8c-7,2.8-13.4,1.3-18.7-4.1
			c-3.6-3.6-7.2-7.2-10.8-10.7c-0.6-0.6-0.7-0.8,0-1.5c3.8-3.8,7.7-7.6,11.4-11.5C125.9,87.9,129.9,86.3,134.5,86.4z M128.3,100.6
			c-0.6,0-1.4,0-2.1,0c-2,0.1-3.1,1.4-3,3.2c0.1,1.8,1.4,3,3.3,3c1.4,0,2.8,0.1,4.2,0c0.9,0,1.1,0.3,1,1.1c-0.1,1.2,0,2.3,0,3.5
			c0,2,1.3,3.3,3.1,3.3c1.8,0,3.1-1.4,3.2-3.3c0-1.2,0-2.5,0-3.7c0-0.7,0.2-0.9,0.9-0.8c1.2,0,2.3,0.1,3.5,0
			c1.6-0.1,2.9-1.5,2.9-3.1c0-1.6-1.2-3-2.8-3.1c-1.2-0.1-2.4-0.1-3.6-0.1c-0.6,0-0.8-0.2-0.8-0.8c0-1.3,0-2.6,0-4
			c0-1.9-1.4-3.1-3.2-3.1c-1.8,0-3,1.2-3.1,3.1c0,0.5,0,1.1,0,1.6c-0.1,1,0.4,2.3-0.2,2.9C130.8,101,129.5,100.5,128.3,100.6z"/>
		<path class="st2" d="M68.4,106.5c-2.6,0-5.2,0-7.8,0c-1.9,0-3.2-1.2-3.2-3c0-1.8,1.1-3.2,3-3.2c5.3-0.1,10.7-0.1,16,0
			c1.9,0,3.1,1.5,3,3.3c-0.1,1.7-1.5,2.9-3.3,2.9C73.5,106.5,70.9,106.5,68.4,106.5z"/>
		<path class="st2" d="M128.3,100.6c1.2-0.1,2.5,0.4,3.1-0.2c0.6-0.6,0.1-1.9,0.2-2.9c0-0.5,0-1.1,0-1.6c0-1.8,1.3-3.1,3.1-3.1
			c1.9,0,3.2,1.2,3.2,3.1c0,1.3,0,2.6,0,4c0,0.6,0.2,0.8,0.8,0.8c1.2,0,2.4,0,3.6,0.1c1.6,0.1,2.8,1.5,2.8,3.1c0,1.6-1.3,3-2.9,3.1
			c-1.2,0.1-2.3,0.1-3.5,0c-0.6,0-0.9,0.2-0.9,0.8c0.1,1.2,0,2.5,0,3.7c0,1.9-1.3,3.3-3.2,3.3c-1.9,0-3.1-1.3-3.1-3.3
			c0-1.2,0-2.3,0-3.5c0-0.8-0.2-1.1-1-1.1c-1.4,0.1-2.8,0-4.2,0c-1.9,0-3.2-1.2-3.3-3c-0.1-1.8,1.1-3.1,3-3.2
			C127,100.6,127.7,100.6,128.3,100.6z"/>
	</g>
</g>
</svg>
