<?xml version="1.0" encoding="utf-8"?>
<!-- Generator: Adobe Illustrator 23.1.0, SVG Export Plug-In . SVG Version: 6.00 Build 0)  -->
<svg version="1.1" id="Layer_1" xmlns="http://www.w3.org/2000/svg" xmlns:xlink="http://www.w3.org/1999/xlink" x="0px" y="0px"
	 viewBox="0 0 107.6 114" style="enable-background:new 0 0 107.6 114;" xml:space="preserve">
<style type="text/css">
	.st0{fill:#3F3E3D;}
	.st1{fill:#4D4D4D;}
	.st2{fill:#F1C500;}
</style>
<g id="sVkNb6.tif">
	<g>
		<path class="st0" d="M12.5,46.8v27.5c0,0,0.2,2.2,5.4,6.3c5.2,4.1,29.4,22.2,29.4,22.2s8.7,4.9,16.3-0.6s29.2-22.7,29.2-22.7
			s3.3-2.9,3.4-6.5s0-24.8,0-24.8l-68.7-7.6L12.5,46.8z"/>
	</g>
</g>
<path class="st1" d="M35.5,23.8L14.7,41.2c0,0-5.2,4.9,0.5,10s35.5,26.5,35.5,26.5s5.7,3.3,12.9-2s30.5-24.1,30.5-24.1s5-5.8,1-10.2
	C91,36.9,65,16.8,65,16.8s-4.9-3.8-9.3-3.4s-5.8-0.1-9.2,2.1S35.5,23.8,35.5,23.8z"/>
<path class="st2" d="M32.5,36.5c-0.3-0.3-0.5-0.7-0.8-1c0.6-1.5,1.4-3,1.8-4.5c0.5-1.9,1.6-3,3.6-3.1c1.9-0.4,3.8-0.7,5.6-1.1
	c0.8-0.2,1.6-0.3,2.3,0.3c0,0.3,0,0.7-0.1,1c-2.1,1.1-4.5,0.9-6.8,1.9c1.4,1.1,2.7,2.2,4,3.2c0.6,0.5,1.1,0.9,0.8,1.7
	c-0.3,0.1-0.7,0.3-1,0.4c-1.9-0.5-3.1-2-4.6-3.2c-1-0.8-1.4-0.9-1.9,0.5c-0.5,1.4-0.7,3-2,4C33.2,36.6,32.8,36.5,32.5,36.5z"/>
<path class="st2" d="M84.9,39.4c-1.1,2.1-1.3,4.6-2.9,6.5c-0.4,0-0.9-0.1-1.3-0.1c-0.5-0.6-0.4-1.2-0.1-1.8c0.5-1.2,0.9-2.5,1.5-4
	c-2.5,0.5-4.7,1-6.9,1.5c-0.2-0.3-0.4-0.7-0.7-1c0.2-0.8,0.9-1,1.6-1.1c1.7-0.4,3.4-0.8,5.4-1.3c-1.2-1-2.1-1.7-3.1-2.5
	c-0.6-0.5-1.5-0.8-1.4-1.9c0.2-0.2,0.4-0.4,0.6-0.6c0.7-0.2,1.3,0,1.9,0.4c1.6,1.3,3.2,2.6,4.8,3.8C84.9,37.9,85.4,38.5,84.9,39.4z"
	/>
<path class="st2" d="M54.5,25.2c0.2-1.1,1.2-1.2,2-1.4c1.8-0.4,3.7-0.8,5.5-1.2c1.6-0.5,3-0.4,4.4,0.8c1.1,1.1,2.5,2,3.7,2.9
	c0.5,0.4,1.1,0.8,1.1,1.5c-0.6,0.6-1.2,0.9-2.1,0.7c-1.1-0.9-2.2-1.7-3.3-2.6c-0.8-0.7-1.2-0.7-1.7,0.4c-0.6,1.4-0.7,3.1-2.1,4.2
	c-0.3,0-0.7,0-1,0c-0.5-0.5-0.8-0.9-0.4-1.7c0.4-0.7,0.6-1.4,0.8-2.1c0.2-0.6,0.9-1.2,0.4-1.7c-0.4-0.4-1.1,0.1-1.7,0.1
	c-1.7,0.2-3.4,1.1-5.2,0.8C54.8,25.6,54.6,25.4,54.5,25.2z"/>
<path class="st2" d="M57.2,65.5c-2,1.4-4.5,1.2-6.7,2c-2.2,0.9-4.1,0.5-5.8-1.3c-1.3-1.3-3.1-2.2-4.4-3.6c0.2-0.4,0.4-0.7,0.6-1.1
	c0.9-0.2,1.6,0.1,2.3,0.6c1.2,1,2.4,1.9,3.7,2.9c0.4-1.1,0.7-2,1.1-2.9c0.4-1,0.5-2.3,1.8-2.7c0.3,0.1,0.7,0.2,1,0.3
	c0.5,0.6,0.3,1.2,0,1.8c-0.5,1.2-0.9,2.5-1.4,4c1.9-0.4,3.5-0.8,5.1-1.2c0.9-0.2,1.8-0.5,2.5,0.4C57.2,65,57.2,65.3,57.2,65.5z"/>
<path class="st2" d="M32.5,56.7c-1.9-1.5-3.7-3-5.7-4.5c-0.8-0.6-1-1.1-0.6-2.1c0.7-1.6,1.3-3.3,1.9-4.9c0.3-0.8,0.6-1.4,1.5-1.5
	c0.4,0.1,0.7,0.3,1.1,0.4c0.4,2-1.3,3.4-1.4,5.5c1.2-0.2,2.3-0.6,3.5-0.7c1.3-0.1,2.6-1,3.9-0.1c0,0.4,0,0.7,0,1.1
	c-2,1.2-4.5,0.9-6.8,1.9c0.7,0.6,1.3,1,1.8,1.5c0.9,0.9,2.4,1.3,2.8,2.8C33.9,56.6,33.3,56.8,32.5,56.7z"/>
<path class="st2" d="M78.7,53.4c1,1.7-1.4,7.8-3.2,8.3c-2.7,0.7-5.5,1.3-8.2,2c-0.3-0.4-0.6-0.7-0.9-1.1c0.3-0.7,0.9-1,1.6-1.2
	c1.7-0.4,3.4-0.8,5.4-1.3c-0.8-0.7-1.4-1.1-2-1.6c-0.9-0.9-2.3-1.2-2.7-2.7c0.2-0.2,0.3-0.4,0.5-0.6c2.1-0.5,3,1.3,4.4,2.2
	c1.7,1.1,1.6,1.2,2.4-0.7c0.5-1.2,0.4-2.9,2.1-3.5C78.2,53.3,78.4,53.4,78.7,53.4z"/>
<path class="st2" d="M62.6,50.1c-0.4,0.2-0.9,0.3-1.3,0.5c-1.5-1.1-3-2.2-4.5-3.3c-0.8-1-1.7-1.5-3-0.8c-0.3,0.1-0.7,0.1-1,0.2
	c-1.5,0.3-3,0.6-4.4,0.9c-0.9,0.2-1.9,0.3-2.2-1c1-1.2,2.5-1,3.7-1.4c1.1-0.3,2.2-0.5,3.3-0.8c0.5,0,1,0,1.4-0.3
	c1-1.5,1.4-3.3,2.1-5c0.3-0.8,0.7-1.3,1.5-1.5c0.5,0.1,0.9,0.3,1.3,0.7c-0.6,1.8-1.2,3.6-1.8,5.4c-0.5,0.7-0.4,1.2,0.4,1.5
	c1.3,1.1,2.6,2.1,3.9,3.1C62.5,48.8,62.9,49.3,62.6,50.1z"/>
</svg>
