<?xml version="1.0" encoding="utf-8"?>
<!-- Generator: Adobe Illustrator 21.0.0, SVG Export Plug-In . SVG Version: 6.00 Build 0)  -->
<svg version="1.1" id="Layer_1" xmlns="http://www.w3.org/2000/svg" xmlns:xlink="http://www.w3.org/1999/xlink" x="0px" y="0px"
	 viewBox="0 0 200 200" style="enable-background:new 0 0 200 200;" xml:space="preserve">
<style type="text/css">
	.st0{fill:#D46735;}
	.st1{fill:#FFFFFF;}
</style>
<g id="qml0zY.tif">
	<g>
		<path class="st0" d="M159.5,48.7c2.3,0.7,3.7,2.4,4.9,4.3c2.4,3.9,4.8,7.9,7.1,11.8c0.8,1.3,0.8,1.3,2.3,0.9
			c5.8-1.5,11.6-3.1,17.4-4.6c1.6-0.4,3.1-0.6,4.7-0.1c2.2,0.7,3.2,2.4,2.6,4.7c-0.4,1.5-1.2,2.7-2.2,3.9
			c-4.2,4.9-8.3,9.8-12.5,14.7c-0.8,1-0.8,1-0.2,2.2c2.4,4.6,4.8,9.2,7.3,13.8c0.9,1.7,1.5,3.4,1.1,5.4c-0.8,3.2-3.9,5.1-7.4,4.5
			c-2.7-0.5-5.3-1.5-7.9-2.3c-2-0.6-3.9-1.2-5.9-1.8c-0.4-0.1-0.7-0.3-0.8-0.7c-0.5-2.7-0.9-5.3-1.4-8c0-0.1,0-0.2,0-0.4
			c4.4,1.2,8.7,2.4,13.1,3.6c0-0.5-0.2-0.8-0.4-1.1c-2.3-4.4-4.6-8.8-7-13.2c-0.4-0.8-0.4-1.4,0.2-2c3.8-4.4,7.5-8.8,11.2-13.1
			c0.2-0.2,0.4-0.4,0.5-0.8c-1.2,0.3-2.3,0.6-3.5,0.9c-4.6,1.2-9.2,2.4-13.8,3.7c-0.7,0.2-1.1,0-1.4-0.6c-2.6-4.3-5.2-8.6-7.7-12.9
			c-0.2-0.3-0.3-0.7-0.8-0.9c-0.3,1.7-0.6,3.4-0.9,5.1c-0.7,4.1-1.5,8.3-2.2,12.4c-0.1,0.6-0.5,0.8-1.1,1c-4.6,1.4-9.1,2.9-13.6,4.3
			c-0.8,0.3-1.7,0.5-2.5,0.8c-0.3,0.1-0.7,0.1-0.9,0.5c0.3,0.1,0.6,0.3,0.9,0.4c4,1.6,8.1,3.2,12.1,4.8c0.2,0.1,0.5,0.1,0.5,0.3
			c0,0.3-0.3,0.3-0.4,0.5c-2.7,1.8-5.4,3.5-8.1,5.3c-0.5,0.3-0.9,0.3-1.4,0.1c-3.4-1.5-6.8-3-10.2-4.6c-1.8-0.8-3.4-2-4.4-3.7
			c-1.6-2.6-1.1-5.3,1.2-7.1c1.3-1,2.7-1.6,4.2-2.1c5.3-1.7,10.7-3.4,16-5.1c0.8-0.2,1.2-0.6,1.3-1.5c0.9-5.4,1.9-10.8,2.9-16.2
			c0.3-1.8,1.2-3.5,2.5-4.9c0.8-1,1.9-1.5,3.1-1.9C158.4,48.7,159,48.7,159.5,48.7z"/>
		<path class="st1" d="M1.3,130.6c2.8-1.5,5.6-3,8.3-4.5c0.4-0.2,0.6-0.2,0.8,0.3c0.4,1,0.9,2,1.4,2.9c1.8,2.8,4.7,3.8,7.8,2.5
			c1-0.4,1.8-1,2.6-1.7c1.8-1.7,2.1-4.1,0.7-6.2c-0.8-1.2-1.7-2.2-2.6-3.2c-2.5-2.8-5.1-5.5-7.5-8.3c-3.2-3.6-4.2-7.8-2.5-12.4
			c1.2-3.3,3.5-5.9,6.5-7.9c4.1-2.7,8.5-3.4,13.3-2.2c2.4,0.6,4.3,2.1,5.9,4c0.8,0.9,1.5,2,2.3,2.9c0.2,0.3,0.3,0.5-0.1,0.7
			c-2.6,1.9-5.2,3.8-7.8,5.8c-0.4-0.7-0.8-1.3-1.2-1.9c-1.1-1.6-2.5-2.9-4.6-3.1c-1.9-0.2-3.5,0.4-4.8,1.9c-1.1,1.2-1,2.8,0.1,4.2
			c2.1,2.7,4.5,5.1,6.9,7.6c1,1,2,2.1,3,3.2c4.6,5,4.8,10.9,1.9,16.3c-3.1,5.7-8,8.8-14.4,9.6c-2.3,0.3-4.6,0.1-6.9-0.5
			c-3.5-1-6-3.3-7.5-6.6c-0.5-1.1-0.9-2.2-1.4-3.2C1.3,130.7,1.3,130.6,1.3,130.6z"/>
		<path class="st1" d="M42.6,137.5c-0.3,2.4-0.6,4.6-0.9,6.8c-0.3,2.1-0.5,4.2-0.8,6.3c-0.1,0.4-0.2,0.7-0.7,0.7c-2.3,0-4.5,0-6.8,0
			c-0.6,0-0.7-0.2-0.6-0.8c0.6-4.1,1.1-8.2,1.6-12.3c0.6-4.6,1.2-9.2,1.8-13.7c0.5-4.2,1.3-8.2,3.8-11.7
			c4.8-6.8,11.3-10.5,19.8-10.1c6.2,0.3,13.9,5,15,13.7c1,7.4-1.6,13.5-6.9,18.6c-4.2,4-9.3,6-15.1,6c-3.3,0-6.3-0.9-9.1-2.7
			C43.3,138,43,137.7,42.6,137.5z M57.1,110.9C51.2,111,46,115.4,45,121.2c-1.1,6.3,3.2,11.4,9.5,11.3c3.5,0,6.3-1.6,8.6-4
			c2.5-2.6,3.8-5.8,3.3-9.4C65.8,114.2,61.9,110.9,57.1,110.9z"/>
		<path class="st1" d="M105,128.7c-0.2,1.4-0.3,2.7-0.5,4.1c-0.2,1.8-0.5,3.7-0.7,5.5c-0.1,0.4-0.2,0.6-0.6,0.8
			c-5.4,2.3-10.9,2.6-16.2-0.1c-5.5-2.9-8.5-7.6-8.8-13.8c-0.6-11.4,8.9-21.3,19.4-22.5c4.9-0.5,9.4,0.4,13.3,3.6
			c4.3,3.7,6.3,8.4,5.8,14.1c-0.6,6.3-1.6,12.6-2.4,18.9c-0.1,0.5-0.3,0.6-0.7,0.6c-2.3,0-4.6,0-6.9,0c-0.5,0-0.6-0.1-0.5-0.7
			c0.7-5.3,1.4-10.5,2-15.8c0.3-2.6,0.1-5.2-1-7.6c-1.4-2.9-3.7-4.6-6.9-4.9c-6.5-0.6-12.4,3.9-13.6,10.4c-1.2,6.9,4.7,12.4,11.5,11
			c2.4-0.5,4.5-1.6,6.3-3.3c0.1-0.1,0.3-0.2,0.4-0.4C104.9,128.7,104.9,128.7,105,128.7z"/>
		<path class="st1" d="M150.1,120c-0.9,6.6-1.7,12.9-2.5,19.3c-0.1,0.5-0.2,0.7-0.8,0.7c-2.6,0-5.2,0-7.8,0c-0.5,0-0.7,0-0.6-0.6
			c0.7-5.4,1.4-10.9,2.1-16.3c0.7-5.3,1.4-10.5,2.1-15.8c0.4-3.1,0.8-6.3,1.2-9.4c0-0.4,0.2-0.6,0.5-0.8c3.1-2,6.1-4,9.2-5.9
			c0.1-0.1,0.2-0.1,0.3-0.1c-0.9,7.2-1.9,14.4-2.8,21.5c0.1,0,0.1,0,0.2,0.1c4.9-5.4,9.8-10.9,14.8-16.4c0.4,2.2,0.6,4.3,1.1,6.4
			c0.5,1.9,0,3.2-1.4,4.6c-2.8,2.7-5.3,5.6-8,8.3c-0.5,0.5-0.4,0.8-0.1,1.3c5.4,7.5,10.7,15,16.1,22.5c0.2,0.2,0.3,0.4,0.5,0.7
			c-0.2,0.3-0.5,0.1-0.7,0.1c-3.1,0-6.1,0-9.2,0c-0.8,0-1.3-0.3-1.7-0.9c-3.9-6-7.9-12-11.9-18C150.7,120.8,150.5,120.4,150.1,120z"
			/>
		<path class="st1" d="M122.3,140c-1.2,0-2.4,0-3.6,0c-0.5,0-0.6-0.1-0.5-0.6c0.6-4.2,1.1-8.4,1.6-12.5c0.6-4.5,1.2-8.9,1.8-13.4
			c0.7-5.4,5.6-9.8,11-9.9c2,0,4,0,6,0c0.3,0,0.6-0.1,0.5,0.5c-0.3,2.4-0.7,4.9-1,7.3c-0.1,0.5-0.2,0.6-0.7,0.6c-1.4,0-2.7,0-4.1,0
			c-2.1,0-3.3,1.1-3.6,3.2c-1,8-2.1,15.9-3.1,23.9c-0.1,0.7-0.3,0.9-1,0.9C124.5,139.9,123.4,140,122.3,140z"/>
		<path class="st1" d="M100.9,85.4c-0.2,1.4-0.5,2.7-0.7,4c1.4,0,2.7,0,4,0c0.4,0,0.4-0.2,0.4-0.5c0.2-1,0.4-2,0.5-3
			c0.1-0.4,0.1-0.5,0.6-0.5c1.7-0.1,1.7-0.1,1.4,1.6c-0.5,2.7-1,5.3-1.4,8c-0.1,0.5-0.2,0.6-0.7,0.6c-1.6,0-1.6,0-1.3-1.5
			c0.1-0.7,0.2-1.3,0.4-2c0.1-0.5-0.1-0.7-0.6-0.7c-1.1,0-2.1,0-3.2,0c-0.4,0-0.6,0.1-0.7,0.6c-0.1,1-0.3,1.9-0.5,2.9
			c-0.1,0.5-0.2,0.7-0.8,0.7c-1.5,0-1.5,0-1.2-1.4c0.5-2.7,1-5.5,1.4-8.2c0.1-0.4,0.2-0.6,0.7-0.6C99.8,85.4,100.3,85.4,100.9,85.4z
			"/>
		<path class="st1" d="M45.2,95.5c1.1-2.1,2.2-4,3.2-6c0.6-1.2,1.3-2.4,1.9-3.6c0.2-0.4,0.4-0.6,0.9-0.6c1.7,0,1.7,0,2.1,1.7
			c0.5,2.6,1,5.2,1.5,7.9c0.1,0.4,0,0.6-0.5,0.6c-1.7,0-1.7,0-1.9-1.6c-0.1-0.4-0.2-0.6-0.6-0.6c-0.3,0-0.5,0-0.8,0
			c-1.5-0.3-2.7,0.1-3.1,1.8c-0.1,0.3-0.3,0.4-0.7,0.4C46.6,95.5,45.9,95.5,45.2,95.5z M51.5,88.4c-0.1,0-0.1,0-0.2,0
			c-0.5,0.9-1,1.9-1.5,2.9c0.6,0,1.1,0,1.6,0c0.3,0,0.5-0.1,0.4-0.4C51.7,90.1,51.6,89.2,51.5,88.4z"/>
		<path class="st1" d="M70.5,95.5c0-0.4,0.2-0.6,0.3-0.8c1.6-2.9,3.2-5.9,4.7-8.8c0.2-0.5,0.5-0.6,1-0.6c1.7,0,1.7,0,2,1.7
			c0.5,2.6,0.9,5.2,1.4,7.9c0.1,0.4,0.1,0.6-0.4,0.6c-1.7,0-1.7,0.1-2-1.6c-0.1-0.4-0.2-0.6-0.7-0.6c-0.3,0-0.5,0-0.8,0
			c-1.5-0.2-2.6,0.1-3,1.8c-0.1,0.3-0.3,0.4-0.6,0.4C71.8,95.5,71.2,95.5,70.5,95.5z M76.6,88.2c-0.5,1-1,1.9-1.4,2.8
			c-0.1,0.1-0.2,0.3,0,0.4c0.6,0,1.1,0,1.7,0c0.2,0,0.2-0.2,0.1-0.4C77,90.1,76.8,89.2,76.6,88.2z"/>
		<path class="st1" d="M114.8,95.5c-0.8,0-1.5,0-2.3,0c-0.4,0-0.5-0.1-0.4-0.5c0.6-3.1,1.1-6.2,1.6-9.2c0.1-0.4,0.2-0.5,0.6-0.5
			c1.6,0,3.1,0,4.7,0c0.4,0,0.5,0.1,0.4,0.5c-0.3,1.6-0.2,1.6-1.8,1.6c-0.4,0-0.9,0-1.3,0c-0.5-0.1-0.7,0.2-0.8,0.7
			c-0.2,1.3-0.2,1.3,1.1,1.3c0.1,0,0.3,0,0.4,0c1.5,0,1.5,0,1.3,1.5c-0.1,0.5-0.3,0.6-0.7,0.6c-0.5,0-1,0-1.5,0
			c-1.1,0-1.1,0-1.3,1.1c-0.1,0.9-0.1,0.9,0.8,0.9c0.7,0,1.4,0,2.1,0c0.3,0,0.5,0.1,0.4,0.4c0,0,0,0.1,0,0.2
			c-0.2,1.5-0.2,1.5-1.6,1.5C115.8,95.5,115.3,95.5,114.8,95.5z"/>
		<path class="st1" d="M63.7,85.4c0.5,0,1,0,1.5,0c1.7,0.1,2.8,1.4,2.6,3.1c-0.2,2-1.6,3.2-3.7,3.3c-1.4,0-1.4,0-1.7,1.5
			c-0.1,0.6-0.2,1.2-0.3,1.8c0,0.3-0.2,0.4-0.5,0.4c-1.7,0.1-1.7,0.1-1.4-1.6c0.5-2.7,0.9-5.4,1.4-8.1c0.1-0.4,0.3-0.5,0.7-0.5
			C62.7,85.4,63.2,85.4,63.7,85.4L63.7,85.4z M63.9,89.7c0.2,0,0.4,0,0.5,0c0.8-0.1,1.2-0.6,1.2-1.4c0-0.7-0.3-0.9-1.3-0.9
			c-0.7,0-1,0.1-1,0.8c0,0.2,0,0.5-0.1,0.7C63,89.5,63.1,89.9,63.9,89.7z"/>
		<path class="st1" d="M91.5,92.9c-0.1,0.7-0.2,1.3-0.2,2c0,0.4-0.4,0.5-0.6,0.6c-3.6,1.2-6.7-1.5-6-5.2c0.6-3.4,3.9-5.6,7.1-4.8
			c0.7,0.2,1.1,0.4,0.9,1.2c-0.1,0.5-0.1,0.9-0.2,1.5c-0.5-0.3-1-0.6-1.5-0.7c-2.5-0.4-4.6,2.1-3.9,4.5c0.4,1.3,1.6,2,3,1.7
			C90.5,93.4,90.9,93.1,91.5,92.9z"/>
	</g>
</g>
</svg>
