<?xml version="1.0" encoding="utf-8"?>
<!-- Generator: Adobe Illustrator 23.1.0, SVG Export Plug-In . SVG Version: 6.00 Build 0)  -->
<svg version="1.1" id="Layer_1" xmlns="http://www.w3.org/2000/svg" xmlns:xlink="http://www.w3.org/1999/xlink" x="0px" y="0px"
	 viewBox="0 0 200 200" style="enable-background:new 0 0 200 200;" xml:space="preserve">
<style type="text/css">
	.st0{fill:#D46735;}
</style>
<g id="qml0zY.tif">
	<g>
		<path class="st0" d="M159.9,40c2.3,0.7,3.7,2.4,4.9,4.3c2.4,3.9,4.8,8,7.1,11.9c0.8,1.3,0.8,1.3,2.3,0.9
			c5.8-1.5,11.7-3.1,17.5-4.6c1.6-0.4,3.1-0.6,4.7-0.1c2.2,0.7,3.2,2.4,2.6,4.7c-0.4,1.5-1.2,2.7-2.2,3.9
			c-4.2,4.9-8.4,9.9-12.6,14.8c-0.8,1-0.8,1-0.2,2.2c2.4,4.6,4.8,9.3,7.3,13.9c0.9,1.7,1.5,3.4,1.1,5.4c-0.8,3.2-3.9,5.1-7.4,4.5
			c-2.7-0.5-5.3-1.5-8-2.3c-2-0.6-3.9-1.2-5.9-1.8c-0.4-0.1-0.7-0.3-0.8-0.7c-0.5-2.7-0.9-5.3-1.4-8.1c0-0.1,0-0.2,0-0.4
			c4.4,1.2,8.8,2.4,13.2,3.6c0-0.5-0.2-0.8-0.4-1.1c-2.3-4.4-4.6-8.9-7-13.3c-0.4-0.8-0.4-1.4,0.2-2c3.8-4.4,7.6-8.9,11.3-13.2
			c0.2-0.2,0.4-0.4,0.5-0.8c-1.2,0.3-2.3,0.6-3.5,0.9c-4.6,1.2-9.3,2.4-13.9,3.7c-0.7,0.2-1.1,0-1.4-0.6c-2.6-4.3-5.2-8.7-7.8-13
			c-0.2-0.3-0.3-0.7-0.8-0.9c-0.3,1.7-0.6,3.4-0.9,5.1c-0.7,4.1-1.5,8.4-2.2,12.5c-0.1,0.6-0.5,0.8-1.1,1c-4.6,1.4-9.2,2.9-13.7,4.3
			c-0.8,0.3-1.7,0.5-2.5,0.8c-0.3,0.1-0.7,0.1-0.9,0.5c0.3,0.1,0.6,0.3,0.9,0.4c4,1.6,8.2,3.2,12.2,4.8c0.2,0.1,0.5,0.1,0.5,0.3
			c0,0.3-0.3,0.3-0.4,0.5c-2.7,1.8-5.4,3.5-8.2,5.3c-0.5,0.3-0.9,0.3-1.4,0.1c-3.4-1.5-6.8-3-10.3-4.6c-1.8-0.8-3.4-2-4.4-3.7
			c-1.6-2.6-1.1-5.3,1.2-7.1c1.3-1,2.7-1.6,4.2-2.1c5.3-1.7,10.8-3.4,16.1-5.1c0.8-0.2,1.2-0.6,1.3-1.5c0.9-5.4,1.9-10.9,2.9-16.3
			c0.3-1.8,1.2-3.5,2.5-4.9c0.8-1,1.9-1.5,3.1-1.9C158.8,40,159.4,40,159.9,40z"/>
		<path class="st0" d="M0.6,122.5c2.8-1.5,5.6-3,8.4-4.5c0.4-0.2,0.6-0.2,0.8,0.3c0.4,1,0.9,2,1.4,2.9c1.8,2.8,4.7,3.8,7.9,2.5
			c1-0.4,1.8-1,2.6-1.7c1.8-1.7,2.1-4.1,0.7-6.2c-0.8-1.2-1.7-2.2-2.6-3.2c-2.5-2.8-5.1-5.5-7.6-8.4C9,100.5,8,96.3,9.7,91.7
			c1.2-3.3,3.5-5.9,6.5-8c4.1-2.7,8.6-3.4,13.4-2.2c2.4,0.6,4.3,2.1,5.9,4c0.8,0.9,1.5,2,2.3,2.9c0.2,0.3,0.3,0.5-0.1,0.7
			c-2.6,1.9-5.2,3.8-7.9,5.8c-0.4-0.7-0.8-1.3-1.2-1.9c-1.1-1.6-2.5-2.9-4.6-3.1c-1.9-0.2-3.5,0.4-4.8,1.9c-1.1,1.2-1,2.8,0.1,4.2
			c2.1,2.7,4.5,5.1,6.9,7.7c1,1,2,2.1,3,3.2c4.6,5,4.8,11,1.9,16.4C28,129,23,132.2,16.6,133c-2.3,0.3-4.6,0.1-6.9-0.5
			c-3.5-1-6-3.3-7.6-6.6c-0.5-1.1-0.9-2.2-1.4-3.2C0.6,122.6,0.6,122.5,0.6,122.5z"/>
		<path class="st0" d="M42.2,129.4c-0.3,2.4-0.6,4.6-0.9,6.8c-0.3,2.1-0.5,4.2-0.8,6.3c-0.1,0.4-0.2,0.7-0.7,0.7c-2.3,0-4.5,0-6.8,0
			c-0.6,0-0.7-0.2-0.6-0.8c0.6-4.1,1.1-8.3,1.6-12.4c0.6-4.6,1.2-9.3,1.8-13.8c0.5-4.2,1.3-8.3,3.8-11.8c4.8-6.7,11.4-10.4,19.9-10
			c6.2,0.3,14,5,15.1,13.8c1,7.4-1.6,13.6-6.9,18.7c-4.2,4-9.4,6-15.2,6c-3.3,0-6.3-0.9-9.2-2.7C42.9,129.9,42.6,129.6,42.2,129.4z
			 M56.8,102.6c-5.9,0.1-11.2,4.5-12.2,10.4c-1.1,6.3,3.2,11.5,9.6,11.4c3.5,0,6.3-1.6,8.7-4c2.5-2.6,3.8-5.8,3.3-9.5
			C65.6,106,61.7,102.6,56.8,102.6z"/>
		<path class="st0" d="M105,120.5c-0.2,1.4-0.3,2.7-0.5,4.1c-0.2,1.8-0.5,3.7-0.7,5.5c-0.1,0.4-0.2,0.6-0.6,0.8
			c-5.4,2.3-11,2.6-16.3-0.1c-5.5-2.9-8.6-7.7-8.9-13.9c-0.6-11.5,9-21.4,19.5-22.7c4.9-0.5,9.5,0.4,13.4,3.6
			c4.3,3.7,6.3,8.5,5.8,14.2c-0.6,6.3-1.6,12.7-2.4,19c-0.1,0.5-0.3,0.6-0.7,0.6c-2.3,0-4.6,0-6.9,0c-0.5,0-0.6-0.1-0.5-0.7
			c0.7-5.3,1.4-10.6,2-15.9c0.3-2.6,0.1-5.2-1-7.7c-1.4-2.9-3.7-4.6-6.9-4.9c-6.5-0.6-12.5,3.9-13.7,10.5
			c-1.2,6.9,4.7,12.5,11.6,11.1c2.4-0.5,4.5-1.6,6.3-3.3c0.1-0.1,0.3-0.2,0.4-0.4C104.9,120.5,104.9,120.5,105,120.5z"/>
		<path class="st0" d="M150.5,111.8c-0.9,6.6-1.7,13-2.5,19.4c-0.1,0.5-0.2,0.7-0.8,0.7c-2.6,0-5.2,0-7.9,0c-0.5,0-0.7,0-0.6-0.6
			c0.7-5.4,1.4-11,2.1-16.4c0.7-5.3,1.4-10.6,2.1-15.9c0.4-3.1,0.8-6.3,1.2-9.5c0-0.4,0.2-0.6,0.5-0.8c3.1-2,6.1-4,9.3-5.9
			c0.1-0.1,0.2-0.1,0.3-0.1c-0.9,7.2-1.9,14.5-2.8,21.6c0.1,0,0.1,0,0.2,0.1c4.9-5.4,9.9-11,14.9-16.5c0.4,2.2,0.6,4.3,1.1,6.4
			c0.5,1.9,0,3.2-1.4,4.6c-2.8,2.7-5.3,5.6-8.1,8.4c-0.5,0.5-0.4,0.8-0.1,1.3c5.4,7.6,10.8,15.1,16.2,22.7c0.2,0.2,0.3,0.4,0.5,0.7
			c-0.2,0.3-0.5,0.1-0.7,0.1c-3.1,0-6.1,0-9.3,0c-0.8,0-1.3-0.3-1.7-0.9c-3.9-6-8-12.1-12-18.1C151.1,112.6,150.9,112.2,150.5,111.8
			z"/>
		<path class="st0" d="M122.5,131.9c-1.2,0-2.4,0-3.6,0c-0.5,0-0.6-0.1-0.5-0.6c0.6-4.2,1.1-8.5,1.6-12.6c0.6-4.5,1.2-9,1.8-13.5
			c0.7-5.4,5.6-9.9,11.1-10c2,0,4,0,6,0c0.3,0,0.6-0.1,0.5,0.5c-0.3,2.4-0.7,4.9-1,7.3c-0.1,0.5-0.2,0.6-0.7,0.6c-1.4,0-2.7,0-4.1,0
			c-2.1,0-3.3,1.1-3.6,3.2c-1,8.1-2.1,16-3.1,24.1c-0.1,0.7-0.3,0.9-1,0.9C124.7,131.8,123.6,131.9,122.5,131.9z"/>
		<path class="st0" d="M100.9,77c-0.2,1.4-0.5,2.7-0.7,4c1.4,0,2.7,0,4,0c0.4,0,0.4-0.2,0.4-0.5c0.2-1,0.4-2,0.5-3
			c0.1-0.4,0.1-0.5,0.6-0.5c1.7-0.1,1.7-0.1,1.4,1.6c-0.5,2.7-1,5.3-1.4,8.1c-0.1,0.5-0.2,0.6-0.7,0.6c-1.6,0-1.6,0-1.3-1.5
			c0.1-0.7,0.2-1.3,0.4-2c0.1-0.5-0.1-0.7-0.6-0.7c-1.1,0-2.1,0-3.2,0c-0.4,0-0.6,0.1-0.7,0.6c-0.1,1-0.3,1.9-0.5,2.9
			c-0.1,0.5-0.2,0.7-0.8,0.7c-1.5,0-1.5,0-1.2-1.4c0.5-2.7,1-5.5,1.4-8.3c0.1-0.4,0.2-0.6,0.7-0.6C99.8,77,100.3,77,100.9,77z"/>
		<path class="st0" d="M44.8,87.1c1.1-2.1,2.2-4,3.2-6c0.6-1.2,1.3-2.4,1.9-3.6c0.2-0.4,0.4-0.6,0.9-0.6c1.7,0,1.7,0,2.1,1.7
			c0.5,2.6,1,5.2,1.5,8c0.1,0.4,0,0.6-0.5,0.6c-1.7,0-1.7,0-1.9-1.6c-0.1-0.4-0.2-0.6-0.6-0.6c-0.3,0-0.5,0-0.8,0
			c-1.5-0.3-2.7,0.1-3.1,1.8c-0.1,0.3-0.3,0.4-0.7,0.4C46.3,87.1,45.6,87.1,44.8,87.1z M51.2,80c-0.1,0-0.1,0-0.2,0
			c-0.5,0.9-1,1.9-1.5,2.9c0.6,0,1.1,0,1.6,0c0.3,0,0.5-0.1,0.4-0.4C51.4,81.7,51.3,80.8,51.2,80z"/>
		<path class="st0" d="M70.3,87.1c0-0.4,0.2-0.6,0.3-0.8c1.6-2.9,3.2-5.9,4.7-8.9c0.2-0.5,0.5-0.6,1-0.6c1.7,0,1.7,0,2,1.7
			c0.5,2.6,0.9,5.2,1.4,8c0.1,0.4,0.1,0.6-0.4,0.6c-1.7,0-1.7,0.1-2-1.6c-0.1-0.4-0.2-0.6-0.7-0.6c-0.3,0-0.5,0-0.8,0
			c-1.5-0.2-2.6,0.1-3,1.8c-0.1,0.3-0.3,0.4-0.6,0.4C71.6,87.1,71,87.1,70.3,87.1z M76.5,79.8c-0.5,1-1,1.9-1.4,2.8
			c-0.1,0.1-0.2,0.3,0,0.4c0.6,0,1.1,0,1.7,0c0.2,0,0.2-0.2,0.1-0.4C76.9,81.7,76.7,80.8,76.5,79.8z"/>
		<path class="st0" d="M114.9,87.1c-0.8,0-1.5,0-2.3,0c-0.4,0-0.5-0.1-0.4-0.5c0.6-3.1,1.1-6.2,1.6-9.3c0.1-0.4,0.2-0.5,0.6-0.5
			c1.6,0,3.1,0,4.7,0c0.4,0,0.5,0.1,0.4,0.5c-0.3,1.6-0.2,1.6-1.8,1.6c-0.4,0-0.9,0-1.3,0c-0.5-0.1-0.7,0.2-0.8,0.7
			c-0.2,1.3-0.2,1.3,1.1,1.3c0.1,0,0.3,0,0.4,0c1.5,0,1.5,0,1.3,1.5c-0.1,0.5-0.3,0.6-0.7,0.6c-0.5,0-1,0-1.5,0
			c-1.1,0-1.1,0-1.3,1.1c-0.1,0.9-0.1,0.9,0.8,0.9c0.7,0,1.4,0,2.1,0c0.3,0,0.5,0.1,0.4,0.4c0,0,0,0.1,0,0.2
			c-0.2,1.5-0.2,1.5-1.6,1.5C115.9,87.1,115.4,87.1,114.9,87.1z"/>
		<path class="st0" d="M63.5,77c0.5,0,1,0,1.5,0c1.7,0.1,2.8,1.4,2.6,3.1c-0.2,2-1.6,3.2-3.7,3.3c-1.4,0-1.4,0-1.7,1.5
			c-0.1,0.6-0.2,1.2-0.3,1.8c0,0.3-0.2,0.4-0.5,0.4c-1.7,0.1-1.7,0.1-1.4-1.6c0.5-2.7,0.9-5.4,1.4-8.2c0.1-0.4,0.3-0.5,0.7-0.5
			C62.5,77,63,77,63.5,77L63.5,77z M63.7,81.3c0.2,0,0.4,0,0.5,0c0.8-0.1,1.2-0.6,1.2-1.4c0-0.7-0.3-0.9-1.3-0.9c-0.7,0-1,0.1-1,0.8
			c0,0.2,0,0.5-0.1,0.7C62.8,81.1,62.9,81.5,63.7,81.3z"/>
		<path class="st0" d="M91.5,84.5c-0.1,0.7-0.2,1.3-0.2,2c0,0.4-0.4,0.5-0.6,0.6c-3.6,1.2-6.7-1.5-6-5.2c0.6-3.4,3.9-5.6,7.1-4.8
			c0.7,0.2,1.1,0.4,0.9,1.2c-0.1,0.5-0.1,0.9-0.2,1.5c-0.5-0.3-1-0.6-1.5-0.7c-2.5-0.4-4.6,2.1-3.9,4.5c0.4,1.3,1.6,2,3,1.7
			C90.5,85,90.9,84.7,91.5,84.5z"/>
	</g>
</g>
</svg>
