<?xml version="1.0" encoding="utf-8"?>
<!-- Generator: Adobe Illustrator 21.0.0, SVG Export Plug-In . SVG Version: 6.00 Build 0)  -->
<svg version="1.1" id="Layer_1" xmlns="http://www.w3.org/2000/svg" xmlns:xlink="http://www.w3.org/1999/xlink" x="0px" y="0px"
	 viewBox="0 0 200 200" style="enable-background:new 0 0 200 200;" xml:space="preserve">
<style type="text/css">
	.st0{fill:#3176B5;}
	.st1{fill:#3277B4;}
</style>
<g id="RL0bp7.tif">
	<g>
		<path class="st0" d="M63.2,171.4c-1.8,0-3.5,0-5.3,0c-0.4-0.1-0.9,0.1-1-0.4c-0.1-0.4,0.5-0.3,0.8-0.4c1.8-0.5,3.8,0.1,5.4-1.3
			c0.3-0.1,0.6-0.2,1-0.2c0.4,0.4,0.8,0.4,1.2-0.1c0.3-0.1,0.6-0.2,0.9-0.3c2,0.2,3.9,0.2,5.7-0.9c6.8-1.2,13.6-2.5,20.4-3.7
			c12-2.1,23.9-4.2,35.9-6.3c3-0.5,6-1.1,9-1.6c0.2-0.7-0.3-1-0.6-1.4c-12.3-14.6-24.5-29.2-36.8-43.8c-2.1-2.5-4.2-5.1-6.4-7.6
			c-0.8-0.9-0.7-1.6-0.4-2.6c3.9-10.8,7.8-21.6,11.7-32.3c3.6-9.9,7.2-19.8,10.8-29.6c0.1-0.3,0.2-0.6,0.5-1.3c2.1,3.6,4.1,7,6,10.3
			c17.3,30,34.6,59.9,51.9,89.9c5.4,9.4,10.9,18.8,16.3,28.2c0.9,1.5,1.3,3.3,2.5,4.6c-0.7,0.8-1.7,0.5-2.5,0.5
			c-41.5,0-82.9,0-124.4,0C64.8,171,63.9,170.6,63.2,171.4z"/>
		<path class="st1" d="M7,155.6c4-6.9,7.8-13.6,11.6-20.2C30,115.6,41.5,95.8,52.9,76c1.3-2.3,3.3-4,5.2-5.6
			C72.8,58,87.5,45.6,102.3,33.3c2.1-1.8,4.2-3.4,6.8-4.9c-1.2,2.7-2.5,5.4-3.7,8c-10.7,22.9-21.3,45.8-32,68.6
			c-7.6,16.3-15.2,32.6-22.8,48.9c-0.5,1-0.9,1.8-2.3,1.8c-13.4-0.1-26.8,0-40.2,0C7.8,155.7,7.6,155.7,7,155.6z"/>
		<path class="st1" d="M63.2,171.4c0.7-0.7,1.7-0.4,2.5-0.4c41.5,0,82.9,0,124.4,0c0.8,0,1.8,0.4,2.5-0.5c0.4,0.3,0.8,0.7,0.1,1
			c-0.4,0.2-0.9,0-1.4,0c-42.1,0-84.1,0-126.2,0C64.4,171.5,63.8,171.4,63.2,171.4z"/>
		<path class="st1" d="M63.1,169.3c-1.6,1.3-3.6,0.7-5.4,1.3c-0.3,0.1-0.8,0-0.8,0.4c0.1,0.5,0.6,0.3,1,0.4c-2.3,0-4.6,0-7.1,0
			C54.9,170.5,59,169.7,63.1,169.3z"/>
		<path class="st1" d="M71.7,167.7c-1.7,1.1-3.7,1.1-5.7,0.9C68,168.3,69.8,167.8,71.7,167.7z"/>
		<path class="st1" d="M65.2,168.9c-0.3,0.5-0.7,0.5-1.2,0.1C64.4,169,64.8,169,65.2,168.9z"/>
	</g>
</g>
</svg>
