<?xml version="1.0" encoding="utf-8"?>
<!-- Generator: Adobe Illustrator 23.1.0, SVG Export Plug-In . SVG Version: 6.00 Build 0)  -->
<svg version="1.1" id="Layer_1" xmlns="http://www.w3.org/2000/svg" xmlns:xlink="http://www.w3.org/1999/xlink" x="0px" y="0px"
	 viewBox="0 0 107.6 114" style="enable-background:new 0 0 107.6 114;" xml:space="preserve">
<style type="text/css">
	.st0{fill:#5C3980;}
</style>
<g id="xWqHRy.tif">
	<g>
		<path class="st0" d="M87.1,104.9c-22.2,0-44.5,0-66.7,0c0-0.1-0.1-0.1-0.2-0.1c-0.8-0.1-1.6-0.2-2.4-0.4c-7-1.8-12-8.2-12-15.5
			c0-21.3,0-42.5,0-63.8c0-1.4,0.2-2.8,0.5-4.1C8.4,13.9,14.6,9.1,22,9.1c21.2,0,42.4,0,63.6,0c0.9,0,1.9,0.1,2.8,0.2
			c6.5,1.1,11.8,6.2,13,12.7c0.1,0.6,0.2,1.2,0.3,1.7c0,22.2,0,44.4,0,66.6c-0.2,0.4-0.2,0.8-0.2,1.2c-1.2,6.8-6.4,12-13.1,13.1
			C87.9,104.8,87.5,104.7,87.1,104.9z M31.9,57.8c0,9.2,0,18.3,0,27.5c0,0.4,0.1,0.5,0.5,0.5c8,0,15.9,0,23.9,0c1.9,0,3.7,0,5.6-0.2
			c3.2-0.3,6.3-1.2,9.2-2.7c3.4-1.9,5.7-4.7,6.7-8.5c0.9-3.6,0.7-7.2-0.6-10.6c-1.2-3.4-3.5-5.9-7-7.2c-0.7-0.3-1.4-0.5-2.2-0.7
			c-0.1,0-0.2,0-0.3-0.1c0-0.1,0.1-0.1,0.2-0.2c0.2-0.1,0.4-0.2,0.5-0.3c2.9-1.5,5.2-3.6,6.4-6.7c0.8-2.1,0.9-4.3,0.8-6.6
			c-0.4-4.8-2.7-8.3-7.1-10.3c-2.7-1.3-5.6-1.8-8.6-1.8c-9.2,0-18.4,0-27.6,0c-0.4,0-0.4,0.1-0.4,0.4C31.9,39.5,31.9,48.7,31.9,57.8
			z"/>
		<path class="st0" d="M51.2,77.8c-3,0-6.1,0-9.1,0c-0.3,0-0.4-0.1-0.4-0.4c0-5.6,0-11.1,0-16.7c0-0.3,0.1-0.4,0.4-0.4
			c5.7,0,11.4,0,17.2,0c1.7,0,3.4,0.3,4.9,1c2.5,1.3,3.8,3.4,4.1,6.2c0.2,1.6,0.1,3.2-0.4,4.8c-1,2.9-3,4.5-5.9,5.2
			c-1.1,0.2-2.1,0.3-3.2,0.3C56.3,77.8,53.7,77.8,51.2,77.8z"/>
		<path class="st0" d="M50.5,37.9c2.7,0,5.4,0,8.1,0c1.2,0,2.3,0.3,3.5,0.7c1.8,0.7,3,2,3.4,3.9c0.4,1.7,0.5,3.5,0.1,5.2
			C65,50.6,63,52.2,60.3,53c-0.9,0.2-1.7,0.3-2.6,0.3c-5.2,0-10.4,0-15.6,0c-0.3,0-0.4-0.1-0.4-0.4c0-4.9,0-9.8,0-14.6
			c0-0.3,0.1-0.4,0.4-0.4C44.9,37.9,47.7,37.9,50.5,37.9C50.5,37.9,50.5,37.9,50.5,37.9z"/>
	</g>
</g>
</svg>
