<?xml version="1.0" encoding="utf-8"?>
<!-- Generator: Adobe Illustrator 23.1.0, SVG Export Plug-In . SVG Version: 6.00 Build 0)  -->
<svg version="1.1" id="Layer_1" xmlns="http://www.w3.org/2000/svg" xmlns:xlink="http://www.w3.org/1999/xlink" x="0px" y="0px"
	 viewBox="0 0 107.6 114" style="enable-background:new 0 0 107.6 114;" xml:space="preserve">
<style type="text/css">
	.st0{fill:#AAADB0;}
	.st1{fill:#4F4F4D;}
	.st2{fill:#848688;}
	.st3{fill:#6E6E6E;}
	.st4{fill:#F6E400;}
</style>
<path class="st0" d="M48.2,103.1c0,0,9.3,2.3,14.6-1.4s-12.2-8.8-12.2-8.8l-3.1,2.7"/>
<g id="kqRTuO.tif">
	<g>
		<path class="st1" d="M96.2,46.8c0,5.8,0,11.6,0,17.4c-0.2,0.1-0.3,0.1-0.3,0.3c-0.7,3.1-2.8,5.1-5.1,7.1c-1.8,1.6-3.8,3.1-5.8,4.4
			c-0.2,0.2-0.6,0.3-0.6,0.7c-1.4,1-2.9,2-4.2,3.2c-2.5,2.2-5.4,3.9-7.9,6c0-1.1-0.1-2.1-0.1-3.2c0-1.3,0.5-2.6,0.1-3.9
			c-0.1-0.2,0-0.5,0-0.8c0-0.3,0.4-0.5,0.1-0.8c-0.3-0.2-0.6,0.1-0.8,0.3c-2.4,1.5-4.6,3.4-6.8,5.2c-1.6,1-3.3,1.9-5.1,2.4
			c-0.5,0.2-1.3-0.1-1.6,0.7c-0.6,0.2-1.3-0.2-1.9,0c-1.1,0-2.2,0.1-3.3,0.1c-0.5,0-1-0.4-1.5,0c-0.3,0-0.7,0-1,0
			c-0.2-0.3-0.4-0.4-0.8-0.5c-1.5-0.3-2.8-0.9-4.1-1.6c-2.9-1.7-5.4-4-8.1-6c-1.7-1.3-3.4-2.7-5.1-4.1c0.2-0.5,1.1-0.8,0.5-1.4
			c-0.9-1,0-2.1-0.4-3.1c-0.2-0.5-0.1-1.6,0.1-2.3c0.4-1.4-0.5-1.7-1.2-2.3c-1.9-1.6-3.9-3.2-5.8-4.8c-0.8-0.7-1.7-1.4-2.7-1.7
			c-0.3-0.5-0.8-0.7-1.1-1.1c-0.8-0.8-1.9-1.3-2.6-2.3c0.6-0.7,1.4-1.2,2.1-1.8c0.2-0.2,0.6-0.3,0.3-0.6c-0.2-0.3-0.5,0-0.6,0.2
			c-0.9,0.6-1.6,1.4-2.7,1.8c-0.4-0.1-0.6-0.6-1-0.8c0-0.4,0.2-0.6,0.5-0.9c1.5-1.1,3-2.3,4.5-3.5c1.2-0.9,1.1-0.9,2.3,0
			c1.2,0.9,2.2,2,3.6,2.6c1.9,1.5,3.8,3,5.7,4.5c3.9,3,7.7,6,11.6,9.1c0.5,0.5,1.1,1,1.6,1.5c0.9,0.9,2.1,1.3,2.7,2.5
			c-0.3,0.2-0.3,0.6-0.3,0.9c-0.1,0.3-0.3,0.5-0.6,0.7c-1.3,1-2.6,2.1-3.9,3.2c-0.2,0.2-0.6,0.4-0.4,0.7c0.2,0.3,0.6,0,0.8-0.2
			c0.9-0.7,1.9-1.4,2.7-2.2c0.7-0.7,1.7-1.1,2-2.1c0.6-0.2,0.8-0.5,0.2-1c0-0.8-0.6-1-1.1-1.5c-1-0.9-2.2-1.6-3-2.7
			c0.4-0.5,0.9-0.9,1.5-1.2c0.3,0,0.6,0.2,0.8,0.4c1.5,1.2,3,2.4,4.4,3.6c0.5,0.4,1.1,0.7,1.2,1.5c-0.4,0.3-0.1,0.5,0,0.8
			c-0.1,0.4-0.4,0.7-0.6,0.9c-1.8,1.4-3.6,2.9-5.3,4.3c-0.3,0.3-0.7,0.5-0.9,1c0.5,0.2,0.8-0.2,1.1-0.4c1.2-0.9,2.3-1.9,3.5-2.8
			c1.2-0.9,2.6-1.7,3.2-3.2c0.1-0.2,0.1-0.5-0.2-0.6c0-0.4-0.2-0.6-0.5-0.9c-0.6-0.7-1.4-1.3-2.1-1.9c-1.4-1.1-2.7-2.4-4.3-3.3
			c-4.1-3.2-8.1-6.4-12.2-9.6c0-0.1,0.1-0.2,0.1-0.2c5.8,1.9,11.6,3.8,17.4,5.6c0,0.2,0.2,0.4,0.4,0.5c2.1,1.7,4.2,3.3,6.2,5
			c0.7,0.6,1.8,1,1.9,2.1c-0.1,0.2-0.2,0.4-0.3,0.5c0,0,0,0-0.1,0c0,0,0,0,0.1,0.1c0.1,0.1,0.2,0.3,0.2,0.4
			c-0.1,0.5-0.5,0.8-0.9,1.1c-1.7,1.4-3.4,2.7-5.1,4.1c-1.6,1.3-3.2,2.5-4.8,3.8c-0.1,0.1-0.3,0.3-0.2,0.5c0.1,0.2,0.3,0.2,0.5,0.1
			c0.3-0.2,0.5-0.4,0.9-0.3c0,0.1,0,0.3,0.2,0.3c0,0,0.1,0,0.1-0.1c0-0.2-0.1-0.2-0.3-0.2c0-0.4,0.1-0.6,0.4-0.8
			c2.6-2,5.3-4.1,7.9-6.2c0.8-0.6,1.8-1.1,1.9-2.4c0.1,0,0.3-0.1,0.4-0.1c0.1,0,0.2,0,0.3-0.1c0,0-0.1-0.1-0.1-0.2
			c0-0.1,0-0.1,0-0.2c0.3-0.3,0.6-0.2,0.8,0.1c0.3,0.3,0.7,0.7,1.1,0.7c1,0,0.7,0.4,0.3,0.9c-0.2,0.2-0.4,0.5-0.7,0.7
			c-2.4,1.9-4.8,3.7-7.2,5.6c-1,0.8-1.9,1.5-2.9,2.3c-0.2,0.1-0.3,0.2-0.2,0.5c0.1,0.2,0.3,0.3,0.4,0.2c0.5-0.5,1.3-0.7,1.7-1.2
			c0.4-0.5,0.8-0.9,1.3-1.2c2.4-1.9,4.8-3.7,7.2-5.6c0.7-0.5,1.3-1.1,1.4-2.1c0.1,0,0.1-0.1,0.2-0.1c0.5-0.2,0.4-0.6,0.2-0.9
			c-1.1-1.3-2.2-2.6-3.6-3.6c-1.5-1.1-2.9-2.4-4.4-3.5c-1-0.7-1.9-1.7-3.1-2.1c-1.2-1.9-2.2-4-3.2-6c-1.2-2.3-2.5-4.6-3.7-6.9
			c-0.1-0.2-0.3-0.4-0.1-0.6c0.3-0.2,0.4,0.1,0.6,0.2c0.3,0.2,0.5,0.4,0.8,0.7c3.4,2.6,6.7,5.3,10.1,7.9l0,0
			c0.1,0.1,0.1,0.1,0.2,0.2l0,0c0.2,0.1,0.3,0.3,0.5,0.4c1.1,1.2,2.6,2,3.6,3.2c0.3,0.2,0.6,0.2,1,0.3c0,0.2,0.2,0.3,0.3,0.4
			c1.7,1.4,3.5,2.8,5.2,4.2c1.4,1.1,2.9,2.3,4.4,3.4c0.2,0.2,0.6,0.5,0.8,0.3c0.3-0.3-0.2-0.5-0.4-0.7c-1-0.8-2-1.5-2.9-2.3
			c-2.3-1.9-4.8-3.6-7.1-5.7c-0.1-0.3-0.3-0.4-0.6-0.5c-0.8-0.4-1.5-1-2.2-1.5c-0.5-0.5-1.3-0.6-1.5-1.5c0.1-0.1,0.1-0.1,0.2-0.2
			l0,0c0.4-0.3,0.8-0.6,1.3-1c1.2,0.4,1.9,1.3,2.9,2c1.7,1.1,3.1,2.6,4.9,3.6c0,0.6,0.5,0.6,1,0.6c0.5,0.8,1.4,1.2,2.1,1.8
			c1.4,1.1,2.9,2.2,4.3,3.3c0.2,0.1,0.5,0.4,0.7,0.1c0.2-0.2-0.1-0.4-0.3-0.5c-2.3-1.5-4.2-3.5-6.5-4.9c0.1-0.7-0.5-0.7-0.9-0.7
			c-0.5-0.7-1.3-1-2-1.5c-2-1.5-3.8-3.2-6-4.5c-0.2-0.1-0.3-0.2-0.5-0.3c-5.5-4.3-11.1-8.7-16.6-13c-1.8-1.8-4-3-5.9-4.7
			c-0.1-0.2-0.2-0.4-0.3-0.6c0.4-1,1.4-1.3,2.2-2c0.3-0.2,0.5-0.1,0.8,0.1c1,0.8,2.1,1.6,3.1,2.4c1.1,0.8,2.1,1.8,3.3,2.3
			c4.3,3.4,8.7,6.8,13,10.2c1.4,1.1,2.9,2.2,4.3,3.3c0.6,1,1.7,1.5,2.6,2.2c2.9,2.2,5.8,4.4,8.7,6.6c1.2,0.9,2.3,1.9,3.5,2.8
			c0.3,0.2,0.7,0.5,0.9,0.2c0.2-0.3-0.3-0.5-0.4-0.7c0,0-0.1-0.1-0.1-0.1c-3.6-2.7-7.2-5.3-10.7-8c-1.3-1-2.8-1.8-3.9-3.1
			c0.6-0.6,1.2-1.1,2-1.5c1,0.8,2,1.7,3.1,2.4c1.1,0.7,1.9,1.7,3.2,2c0.5,0.6,1,0.6,1.5,0c0.3,0,0.5-0.1,0.7-0.3
			c2.6-1.7,4.6-4,7-5.9c1.1-0.8,2-2,3.3-2.5c0.7,0.4,1.4,0.8,1.8,1.5c-1.6,1.3-3.1,2.6-4.7,3.9c-1.7,1.4-3.3,2.7-5,4.2
			c-0.8,0.7-1.1,1.7-0.5,2.4c1.3,1.6,3.1,2.6,4.7,3.9c0.1,0.1,0.4,0.1,0.5,0c0.2-0.2-0.1-0.3-0.2-0.4c-0.4-0.3-0.8-0.5-1-0.8
			c-1.1-1.2-3.2-1.5-3.2-3.6c0-0.3-0.1-0.5,0.2-0.8c1-0.8,1.9-1.7,2.9-2.4c1-0.8,2-1.7,3.1-2.4c0.3-0.2,1.4,0.1,0.6-0.9
			c0,0,0.2-0.2,0.3-0.3c0.7-0.6,1.5-1.1,2.2-1.8c0.4-0.3,0.7-0.3,1.1-0.2c1.5,1.4,3.1,2.7,4,4.6c0.6-0.6,0.9-1.4,1.2-2.1
			C95.7,47.3,95.6,46.8,96.2,46.8z M36.2,61.3c-0.3,0-0.4,0.2-0.4,0.4c0,0.3,0.2,0.5,0.5,0.5c0.2,0,0.4-0.1,0.5-0.4
			C36.7,61.5,36.5,61.4,36.2,61.3z M23.9,53.8c0-0.3-0.2-0.4-0.4-0.4c-0.2,0-0.4,0.1-0.4,0.4c0,0.3,0.2,0.5,0.5,0.4
			C23.7,54.2,23.9,54,23.9,53.8z"/>
		<path class="st0" d="M56.1,86c0.6-0.2,1.3,0.1,1.9,0c-0.5,0.9,0,1.8-0.3,2.7c-0.1,0.5-0.3,1-0.1,1.5c0.3,0.9,0.4,1.7,0,2.7
			c-0.3,0.7,0.2,1.7,0.7,1.6c0.8-0.2,1.6-0.2,2.4-0.5c0.6-0.3,0.9,0,0.8,0.6c-0.2,0.8,0.1,1.6,0,2.4c-0.2,1.1,0.2,2.2-0.1,3.4
			c-0.4,1.5-0.1,1.7,1.3,1.4c-0.9,1-2.2,1.3-3.4,1.6c-0.6,0.2-1.4,0.3-2.1,0.3c-0.3,0-0.7-0.1-0.7-0.5c0-1.4,0-2.8,0-4.1
			c0-1-0.2-2,0.1-3c0.1-0.4-0.3-0.6-0.7-0.6c-1.4,0-2.8,0-4.2,0c-0.7,0-1,0.4-0.9,1.1c0.2,1.6,0.4,3.2,0,4.8c-0.1,0.5,0.1,1,0.2,1.5
			c0,0.6-0.2,0.8-0.8,0.7c-1.8-0.2-3.4-0.7-4.9-1.7c-2.7-1.7-5.3-3.8-7.8-5.8c-3.2-2.5-6.4-4.9-9.6-7.4c-4.2-3.3-8.6-6.3-12.4-10
			c-2.3-2.2-3.5-4.9-3.4-8.2c0.1-4.8,0-9.6,0-14.4c0-0.3,0.1-0.6,0.1-0.9c0.4,0.8,0.4,1.7,0.8,2.4c1.3,2.6,3.4,4.6,5.8,6.3
			c0.7,0.5,1.2,1.5,2.3,1.6c0.1,0,0.1,0,0.2,0c0.3,0.7,0.7,1.3,1.6,1.3c0.8,0.9,1.7,1.5,2.6,2.1c1.9,1.4,3.8,2.8,5.5,4.4
			c-0.5,0.2-1,0.3-0.8,0.9c0.4,1.2-0.3,2.3-0.1,3.5c0.1,0.5,0.3,1.2,0,1.8c-0.5,1-0.1,1.7,0.7,2.3c2.5,2.1,5.1,4.1,7.7,6
			c2.3,1.7,4.3,3.6,6.7,5.1c1.4,0.9,2.9,1.4,4.5,1.6c1.1,0.2,1.1,0.1,0.9-1c0-0.2,0-0.4,0-0.6c0.1-0.7,0.2-1.4,0.1-2.2
			c-0.1-0.5-0.3-1.1-0.1-1.7c0.4-1.1,0.3-2.1-0.4-3c0.3,0,0.7,0,1,0c1.5,0.7,3,0.5,4.6,0.2C56,86.3,56.1,86.1,56.1,86z"/>
		<path class="st1" d="M24.7,30.7c0.7-0.5,1.3-1,2-1.5c0.1,0,0.3,0,0.4,0c0.4,0.1,0.8,0.4,1.1,0.7c2.2,1.7,4.5,3.4,6.7,5.1
			c0.8,0.6,1.5,1.4,2.6,1.6c0.3,0.7,1.2,1.1,1.2,2c0.1-0.1,0.1-0.2,0.2-0.3c0.1,0,0.3,0,0.4,0c1.1,0.8,2.1,1.6,3.2,2.5
			c0.1,0,0.1,0.1,0.1,0.2c0,0.3,0,0.7,0.4,0.8c0.1,0.1,0.1,0.2,0.2,0.4c0,0.4,0.1,0.7,0.5,0.8c0,0.1,0.1,0.1,0.1,0.2
			c0,0.2-0.1,0.5,0.3,0.6c0.1,0,0.1,0.1,0.1,0.2c0,0.3,0,0.7,0.4,0.8c0.1,0.1,0.1,0.2,0.2,0.4l0,0c0,0.1,0.1,0.1,0.1,0.2
			c0,0.3,0,0.7-0.5,0.4c-0.7-0.4-1.4-0.3-2,0.2c-1.3,1-2.7,2.1-4,3.1c-0.7,0.6-1.6,1-2.1,1.9c-0.2,0-0.4,0-0.5,0c0,0-0.1-0.1-0.1,0
			c-0.1,0-0.1,0-0.2-0.1c0-0.2-0.1-0.4-0.3-0.1c-0.2,0-0.4-0.1-0.5-0.1c0,0-0.1-0.1-0.1,0c-0.1,0-0.1-0.1-0.2-0.1
			c0-0.2-0.1-0.4-0.3-0.1c-0.2,0-0.4-0.1-0.5-0.1c0-0.1-0.1-0.1-0.2-0.1c-0.1,0-0.1,0-0.2-0.1c0-0.2-0.1-0.4-0.3-0.1
			c-0.2,0-0.4-0.1-0.5-0.1c0-0.1-0.1-0.1-0.2,0c-0.1,0-0.1,0-0.2-0.1c0-0.2-0.1-0.4-0.3-0.1c-0.2,0-0.4-0.1-0.6-0.1
			c-0.1-0.3-0.3-0.5-0.5-0.6c-3.3-2.5-6.6-5-9.9-7.4c-0.3-0.2-0.6-0.5-1-0.4c-0.1-0.3-0.4-0.4-0.6-0.5c0-0.1-0.1-0.2-0.2-0.2
			c-0.2,0-0.3,0.1-0.3,0.3c-0.1,0-0.1,0.1-0.2,0.1c-1,0.2-1.6,0.9-2.4,1.4c-1.2,0.9-2.4,1.8-3.6,2.7c0-0.3,0-0.5,0-0.8
			c0.1-0.2,0.3-0.3,0.3-0.5c0.4-1.6,1.3-3,2.3-4.2c0.6-0.7,1.4-1.3,1.9-2.1c0,0,0.1-0.1,0.1-0.1c0.5-0.1,0.8-0.4,1-0.9
			c0.1-0.1,0.2-0.2,0.3-0.3c0.7-0.3,1.2-0.6,1.6-1.3c0,0,0.1-0.1,0.1-0.1c0.7-0.2,1.2-0.6,1.6-1.3c0.5-0.4,1-0.8,1.5-1.2
			c0.3,0,0.5-0.2,0.6-0.5c0.1-0.1,0.2-0.2,0.4-0.3C24.4,31.1,24.6,31,24.7,30.7z M33.6,43.1c-0.1-0.2-0.3-0.5-0.6-0.4
			c-0.2,0-0.4,0.2-0.4,0.5c0,0.3,0.3,0.4,0.5,0.4C33.4,43.5,33.6,43.4,33.6,43.1z"/>
		<path class="st2" d="M62.8,101.7c-1.4,0.3-1.6,0.1-1.3-1.4c0.3-1.1-0.1-2.3,0.1-3.4c0.1-0.8-0.2-1.6,0-2.4
			c0.1-0.6-0.2-0.9-0.8-0.6c-0.8,0.4-1.6,0.3-2.4,0.5c-0.5,0.1-1.1-0.9-0.7-1.6c0.5-0.9,0.3-1.8,0-2.7c-0.2-0.5,0-1,0.1-1.5
			c0.2-0.9-0.2-1.8,0.3-2.7c0.3-0.8,1.1-0.5,1.6-0.7c1.8-0.6,3.5-1.5,5.1-2.4c0.1,0.2,0.2,0.4,0.1,0.5c-0.4,0.5-0.3,1-0.3,1.5
			c0,1.2,0.1,2.4,0.2,3.6c0.1,0.7-0.7,1.3-0.1,2c0.1,0.2-0.3,0.7,0.3,0.7c0.3,0.1,0.6,0,0.9-0.2c2.1-1.7,4.3-3.4,6.4-5.1
			c2.6-2.1,5.4-3.8,7.9-6c1.3-1.2,2.8-2.1,4.2-3.2c0.8-0.1,1.2-0.9,2-1.1c0,1-0.8,1.5-1.2,2.2c0.3,0.2,1-0.2,1,0.3
			c-0.1,0.8,0.4,1.7-0.2,2.5c-0.3,0.4-0.4,0.8,0.2,1.1c0.5,0.2,0.6,0.5,0.2,1c-0.2,0.2-0.1,0.4,0.1,0.6c0.2,0.1,0.4,0,0.5-0.1
			c0.4-0.4,0.8-0.8,1.4-0.9c-1.1,1.2-2.5,2.1-3.8,3.1c-4.2,3.3-8.5,6.6-12.7,9.8c-1.7,1.3-3.4,2.5-5,3.8c-0.4,0-0.6,0.2-0.6,0.5
			c-0.3,0.2-0.6,0.4-0.9,0.6c-0.9,0.3-1.6,0.7-2.2,1.5C63.1,101.6,63,101.6,62.8,101.7z"/>
		<path class="st2" d="M96.2,46.8c-0.5,0-0.5,0.5-0.6,0.7c-0.3,0.8-0.6,1.5-1.2,2.1c-0.9-1.9-2.5-3.2-4-4.6
			c-0.2-0.5-0.7-0.5-1.1-0.6c-0.4-0.7-1.1-1.1-1.8-1.5c-0.3-0.4-0.5-1-1.2-1.1c-1.1-0.9-2.3-1.8-3.4-2.7c0-0.2-0.2-0.4-0.4-0.4
			c-0.6-0.3-1-0.9-1.7-1c-0.1-0.3-0.3-0.5-0.6-0.7c-0.3-0.2-0.5-0.4-0.8-0.6c0-0.3-0.1-0.6-0.4-0.7c-0.2-0.4-0.5-0.4-0.8-0.2
			c-0.1,0-0.1,0-0.2,0c-0.1-0.1-0.1-0.2-0.2-0.4c-1.3-1-2.7-2-4-3.1c0-0.4-0.2-0.6-0.6-0.6c-0.3,0-0.5-0.3-0.6-0.6
			c0.1-0.5,0.4-0.4,0.7-0.3c0.3,0.1,0.7,0,0.6-0.3c-0.3-0.9,0.4-1.9-0.2-2.8c-0.2-0.3-0.4-0.6,0.1-0.9c0.6-0.4,0.8-1.8,0.2-2.2
			c-0.8-0.5-0.4-0.9,0-1.3c1.1,0.5,2,1.4,3,2.2c4.4,3.4,8.8,6.9,13.1,10.3c2.6,2,4.8,4.4,5.8,7.6C96.4,44.5,96.2,45.7,96.2,46.8z
			 M84.5,35c0-0.4-0.3-0.5-0.6-0.5c-0.3,0-0.7,0-0.7,0.5c0,0.4,0.3,0.4,0.6,0.4C84.2,35.4,84.5,35.4,84.5,35z"/>
		<path class="st3" d="M74.1,23.3c-0.5,0.4-0.8,0.8,0,1.3c0.6,0.4,0.4,1.8-0.2,2.2c-0.5,0.3-0.3,0.6-0.1,0.9
			c0.6,0.9-0.1,1.9,0.2,2.8c0.1,0.3-0.3,0.3-0.6,0.3c-0.3-0.1-0.6-0.2-0.7,0.3c-0.4,0-0.7-0.2-1-0.4c-2.1-1.6-4.2-3.2-6.2-4.9
			c-0.4-0.3-0.7-0.3-1.1,0c-1.1,0.9-2.3,1.8-3.5,2.7c-0.6,0.4-1.2,1.1-2.1,1.1c0-0.1,0-0.3-0.1-0.4c1.9-1,3.5-2.5,5.3-3.6
			c0.4-0.3,0.2-0.6-0.1-0.8c-0.5-0.3-1-0.6-1.5-1c-0.5-0.4-0.9-0.3-1.3,0c-0.6,0.4-1.2,0.9-1.8,1.4c-0.5,0.4-0.9,0.5-1.5,0.3
			c0.3,0,0.8,0.1,0.9-0.3c0-0.6-0.5-0.4-0.9-0.4c0.1-0.1,0.2-0.2,0.3-0.2c1.1,0.3,1.6-0.5,2.3-1c0.4-0.3,0.3-0.4-0.1-0.7
			c-0.6-0.3-1.3-0.1-1.7-0.7c0.9,0.1,1.3-0.1,1-1.2c-0.2-1-0.4-2.1-0.2-3.1c0.2-1.2,0-2.3-0.1-3.4c-0.1-0.7,0-0.8,0.7-0.6
			c1.1,0.3,2,1.1,3.1,1.3c0.1,0,0.2,0.1,0.3,0.1c0.1,0.2,0.2,0.3,0.4,0.3c1.2,0.7,2.3,1.6,3.4,2.5c0.1,0.5-0.3,0.8-0.7,1.1
			c-1,0.7-1.9,1.3-2.9,2c-0.4,0.3-0.9,0.6-1.2,1.2c0.5,0,0.7-0.3,1-0.5c1.2-0.9,2.5-1.8,3.7-2.7c0.3-0.3,0.6-0.4,1-0.4
			c0.8,0.5,1.5,1,2.2,1.7c-0.4,0.9-1.4,1.2-2.1,1.8c-1.1,0.9-2.3,1.8-3.6,2.7c0.5,0.2,0.7,0,0.9-0.1c1.2-0.9,2.3-1.8,3.5-2.6
			c0.6-0.4,1.2-1.1,2-1.2c0.4,0.3,0.8,0.5,1.1,0.8c0.1,0.4,0.3,0.5,0.6,0.5c0.1,0.1,0.2,0.2,0.3,0.2c0,0.3,0.3,0.4,0.5,0.4
			C73.9,23,74,23.1,74.1,23.3z M61.9,22.4c0,0.1-0.1,0.1-0.2,0.2c0,0.1,0.1,0.2,0.2,0.1c0.1,0,0.2-0.1,0.2-0.2
			C62.2,22.5,62.1,22.4,61.9,22.4z"/>
		<path class="st2" d="M63.1,15c-1.1-0.2-2-1-3.1-1.3c-0.7-0.2-0.7-0.1-0.7,0.6c0.1,1.1,0.3,2.2,0.1,3.4c-0.2,1-0.1,2.1,0.2,3.1
			c0.3,1.1-0.1,1.2-1,1.2c-0.4-0.1-0.9-0.1-1.3-0.2c-0.2-0.2-0.5-0.2-0.8-0.2c-0.9,0-1.8,0-2.7,0c-0.2,0-0.3,0.1-0.4,0.2
			c-1,0-2,0-3,0c-0.7,0.2-1.5,0.1-1.9,0.9c-0.3,0-0.5,0-0.8,0c-1.3-1.5-2.9-2.5-4.4-3.7c-0.2-0.2-0.6-0.3-0.5-0.6
			c0.2-0.4,0.5,0,0.7,0.1c1.1,0.8,2.2,1.7,3.4,2.5c0.3,0.2,0.6,0.6,1,0.3c0.4-0.3,0.4-0.7,0.3-1.1c-0.1-0.4-0.3-0.9-0.2-1.3
			c0.2-0.6-0.1-1-0.5-1.3c-0.3-0.3-0.7-0.6-1-0.8c-1.5-1.1-1.5-1.1-3.1-0.2c-0.1,0.1-0.2,0.1-0.4,0.1c0.6-0.8,1.5-1.2,2.4-1.7
			c3.7-2.2,7.7-2.7,11.9-2.2C59.2,12.9,61.4,13.5,63.1,15z M49.5,14c0.1-0.5-0.2-0.5-0.4-0.4c-1.1,0.4-2.2,0.8-3.2,1.3
			c-0.4,0.2-0.5,0.5,0,0.7c0.9,0.4,1.4,1.2,2.2,1.8c0.8,0.5,1.1,0.4,1.2-0.6C49.3,15.8,49,14.8,49.5,14z"/>
		<path class="st3" d="M42.8,16.6c0.1,0,0.3,0,0.4-0.1c1.7-0.9,1.7-0.9,3.1,0.2c0.4,0.3,0.7,0.6,1,0.8c0.4,0.3,0.7,0.7,0.5,1.3
			c-0.1,0.4,0.1,0.9,0.2,1.3c0.1,0.4,0.2,0.8-0.3,1.1c-0.4,0.3-0.7-0.1-1-0.3c-1.1-0.8-2.2-1.7-3.4-2.5c-0.2-0.1-0.5-0.5-0.7-0.1
			c-0.2,0.3,0.3,0.4,0.5,0.6c1.5,1.2,3.2,2.2,4.4,3.7c-0.1,0.1-0.2,0.3-0.3,0.3c-1.3,0.4-2.4,1.1-3.5,1.8c-1.6,1-1.8,1.1,0,2.4
			c0.5,0.3,0.8,0.5,1.2,0c0.9-1.1,2.2-1.7,3.3-2.6c1.1-1,1.1-0.9,0.1-2c0.4-0.8,1.2-0.7,1.9-0.9c-0.1,0.3-0.3,0.3-0.6,0.4
			c-0.2,0.1-0.7,0-0.7,0.3c0,0.4,0.4,0.4,0.7,0.6c1,0.6,1.9,1.4,2.8,2.1c1.6,1.3,3.3,2.6,5,3.7c0,0.2-0.1,0.3-0.1,0.5
			c-0.4,0-0.7-0.2-0.9-0.4c-1.3-1-2.5-1.9-3.8-2.9c-0.4-0.3-0.9-0.6-1.3-0.2c-1.2,1.1-2.6,1.9-3.8,3c-0.6,0.5-0.6,0.8,0.1,1.3
			c1.4,0.9,2.8,1.9,4,3.1c-0.2,0.1-0.5,0.2-0.7,0.3c-0.6-1.1-1.7-1.5-2.6-2.2c-2.8-2.1-5.6-4.2-8.4-6.2c-0.4-0.3-0.7-0.6-1.2-0.6
			c-0.3,0-0.6-0.2-0.7-0.5c-0.2-0.6-0.8-0.9-1.3-1.3c-0.6-0.6-1.2-0.8-1.9,0c-0.2,0.2-0.5,0.4-0.8,0.4c0.8-1,1.9-1.6,2.9-2.4
			C39,19.4,40.9,18,42.8,16.6z M46.4,29c0.4,0,0.6-0.2,0.8-0.4c1.2-0.9,2.2-2,3.6-2.8c0.2-0.1,0.6-0.3,0.4-0.8
			c-0.2-0.7-1.3-0.9-1.9-0.5c-1.1,0.9-2.3,1.8-3.4,2.7c-0.3,0.2-0.8,0.4-0.6,0.9C45.5,28.6,46,28.9,46.4,29z M39,23.4
			c-0.2,0-0.5,0-0.5,0.4c0,0.3,0.2,0.5,0.5,0.5c0.3,0,0.6-0.1,0.6-0.4C39.6,23.5,39.3,23.4,39,23.4z"/>
		<path class="st2" d="M21.2,65.4c-1.1-0.1-1.5-1.1-2.3-1.6c-2.3-1.7-4.4-3.7-5.8-6.3c-0.4-0.8-0.4-1.7-0.8-2.4
			c-0.1-2.8-0.2-5.6,0-8.4c0.2,0.5,0.4,1,0.6,1.4c0.5,1,0.8,2.1,1.9,2.7c0.1,0.3-0.1,0.8,0.4,0.9c0.4,0.5,0.7,1,1.3,1.2
			c0.1,0.3,0.3,0.6,0.6,0.7c0.4,0.2,0.5,0.6,1,0.8c0.2,0.4,0.5,0.4,0.9,0.4c0.7,1,1.8,1.5,2.6,2.3c0.4,0.4,0.9,0.6,1.1,1.1
			c-0.7,0.7-1.1,1.5-0.8,2.6c0.4,1.5,0.4,2.9-0.7,4.2C21.2,65,21.3,65.2,21.2,65.4z"/>
		<path class="st3" d="M88.4,82.3c-0.6,0-1,0.5-1.4,0.9c-0.1,0.1-0.3,0.3-0.5,0.1c-0.2-0.2-0.3-0.4-0.1-0.6c0.4-0.4,0.2-0.7-0.2-1
			c-0.6-0.3-0.5-0.6-0.2-1.1c0.6-0.8,0.1-1.7,0.2-2.5c0-0.5-0.6-0.1-1-0.3c0.4-0.7,1.2-1.2,1.2-2.2c-0.9,0.2-1.2,1-2,1.1
			c0-0.4,0.4-0.5,0.6-0.7c2.1-1.3,4-2.8,5.8-4.4c2.3-1.9,4.4-4,5.1-7.1c0-0.2,0.2-0.3,0.3-0.3c0,2.6,0,5.1,0,7.7
			c-0.8,0.4-0.4,1.3-0.6,1.9c-0.9,2.3-2.3,4.3-4.2,5.9c-0.9,0.8-2,1.3-2.6,2.4C88.6,82.1,88.5,82.2,88.4,82.3z"/>
		<path class="st1" d="M14.9,50.7c-1.1-0.6-1.4-1.7-1.9-2.7c-0.2-0.5-0.4-1-0.6-1.4c0-0.5,0-1,0-1.5c0.4,0,0.6-0.2,0.9-0.4
			c1.7-1.3,3.2-2.8,5.1-3.7c0.4,0.2,0.8,0.2,1.1,0c0.4,0.3,0.8,0.5,1.2,0.8c2,1.6,4,3,6,4.5c1.3,1,2.9,1.9,4,3.2
			c-0.7,0.7-1.6,1.3-2.4,1.9c-1.4-1.3-3-2.3-4.5-3.5c-0.6-0.4-1.1-1.2-2-1.1c-0.3-0.8-0.5-0.9-1.3-0.3c-0.9,0.2-1.6,0.8-2.3,1.4
			C17.1,48.9,15.8,49.5,14.9,50.7z"/>
		<path class="st1" d="M34.2,23.3c0.3,0,0.6-0.2,0.8-0.4c0.6-0.8,1.3-0.6,1.9,0c0.4,0.4,1,0.7,1.3,1.3c0.1,0.2,0.3,0.5,0.7,0.5
			c0.5,0,0.8,0.3,1.2,0.6c2.8,2.1,5.6,4.1,8.4,6.2c0.9,0.7,2,1.1,2.6,2.2c-0.6,0.5-1.1,1.1-1.8,1.4c-0.1-0.1-0.3-0.1-0.4-0.2
			c-2.1-1.6-4.1-3.1-6.2-4.7c-0.9-0.7-1.7-1.5-2.7-1.9c0-0.5-0.2-0.9-0.8-0.7c-1.1-1.1-2.4-1.7-3.5-2.7c-0.5-0.4-1.3-0.6-1.4-1.4
			C34.1,23.4,34.2,23.3,34.2,23.3z"/>
		<path class="st1" d="M30.4,26.2c0.9-0.7,1.9-1.5,2.8-2.2c0.5,0.4,1.1,0.8,1.6,1.1c1.2,0.8,2.2,2,3.6,2.6c0,1,0.8,0.6,1.3,0.7
			c0,0.2,0.1,0.4,0.3,0.6c0.4,0.4,1.2,0.5,1.1,1.1c-0.1,0.6-0.8,0.8-1.2,1.2c-0.3,0.2-0.6,0.5-0.9,0.7c-0.3,0.3-0.6,0.3-1,0
			c-1.1-0.9-2.2-1.8-3.4-2.6c-1.4-1-2.7-2.2-4.2-2.9C30.4,26.4,30.4,26.3,30.4,26.2z"/>
		<path class="st1" d="M27.6,28.4c0.1,0,0.1-0.1,0.2-0.1c0.2,0,0.3-0.1,0.4-0.3c0.6-0.5,1.2-0.9,1.8-1.4c0.2,0,0.3,0.1,0.5,0.1
			c0.2,0.4,0.5,0.6,0.8,0.9c1.8,1.3,3.6,2.7,5.4,4c1.4,1.1,1.4,1.1,0,2.2c-0.1,0.1-0.2,0.2-0.3,0.3c-0.5,0.7-1,0.6-1.6,0.1
			c-1.2-0.9-2.3-1.9-3.5-2.7c-1.2-0.9-2.3-2-3.8-2.6C27.6,28.7,27.6,28.5,27.6,28.4z"/>
		<path class="st2" d="M88.7,82.1c0.6-1.1,1.7-1.6,2.6-2.4c1.9-1.6,3.3-3.6,4.2-5.9c0.2-0.6-0.1-1.4,0.6-1.9
			c0.2,1.7-0.6,3.1-1.5,4.4C93.2,78.7,91.1,80.6,88.7,82.1z"/>
		<path class="st3" d="M18.3,41c-1.9,0.9-3.4,2.4-5.1,3.7c-0.3,0.2-0.5,0.4-0.9,0.4c0-0.2,0-0.4,0-0.5c1.2-0.9,2.4-1.8,3.6-2.7
			c0.8-0.5,1.4-1.2,2.4-1.4C18.4,40.6,18.4,40.8,18.3,41z"/>
		<path class="st3" d="M38.5,27.7c-1.4-0.6-2.4-1.8-3.6-2.6c-0.5-0.4-1.1-0.7-1.6-1.1c0.2-0.3,0.4-0.6,0.8-0.6
			c0.1,0.8,0.9,1,1.4,1.4c1.1,1,2.5,1.6,3.5,2.7C38.9,27.8,38.7,27.7,38.5,27.7z"/>
		<path class="st2" d="M71.1,21c-0.9,0.1-1.4,0.7-2,1.2c-1.2,0.8-2.3,1.8-3.5,2.6c-0.2,0.2-0.5,0.3-0.9,0.1c1.2-0.9,2.4-1.8,3.6-2.7
			c0.7-0.6,1.7-0.9,2.1-1.8C70.6,20.5,71,20.6,71.1,21z"/>
		<path class="st2" d="M16.8,36.9c-0.5,0.9-1.3,1.4-1.9,2.1c-1,1.3-1.9,2.6-2.3,4.2c0,0.2-0.2,0.3-0.3,0.5c0.1-1.4,0.7-2.6,1.4-3.6
			C14.7,38.9,15.5,37.7,16.8,36.9z"/>
		<path class="st2" d="M68.2,18.7c-0.4,0-0.7,0.1-1,0.4c-1.2,0.9-2.4,1.8-3.7,2.7c-0.3,0.2-0.5,0.5-1,0.5c0.3-0.6,0.8-0.8,1.2-1.2
			c0.9-0.7,1.9-1.4,2.9-2c0.4-0.3,0.7-0.5,0.7-1.1C67.7,18,67.9,18.3,68.2,18.7z"/>
		<path class="st0" d="M63.2,101.6c0.6-0.7,1.3-1.2,2.2-1.5C64.8,100.9,64,101.3,63.2,101.6z"/>
		<path class="st2" d="M19.9,34.5c-0.4,0.6-0.9,1-1.6,1.3C18.7,35.1,19.2,34.7,19.9,34.5z"/>
		<path class="st2" d="M21.6,33.1c-0.4,0.7-0.9,1-1.6,1.3C20.4,33.7,21,33.3,21.6,33.1z"/>
		<path class="st2" d="M27.6,28.4c0,0.1,0,0.3,0,0.4c-0.2,0-0.4,0.1-0.4,0.3c-0.1,0-0.3,0-0.4,0C26.9,28.7,27,28.3,27.6,28.4z"/>
		<path class="st2" d="M18,36c-0.2,0.4-0.5,0.8-1,0.9C17.2,36.4,17.5,36.1,18,36z"/>
		<path class="st2" d="M72.8,22.3c-0.4,0-0.6-0.2-0.6-0.5C72.5,21.8,72.7,22,72.8,22.3z"/>
		<path class="st2" d="M23.8,31.4c-0.1,0.3-0.3,0.5-0.6,0.5C23.2,31.6,23.4,31.4,23.8,31.4z"/>
		<path class="st2" d="M24.7,30.7c-0.1,0.3-0.3,0.4-0.6,0.5C24.2,30.8,24.3,30.6,24.7,30.7z"/>
		<path class="st0" d="M66.2,99.5c0.1-0.3,0.2-0.6,0.6-0.5C66.8,99.3,66.6,99.5,66.2,99.5z"/>
		<path class="st2" d="M30.4,26.7c-0.2,0-0.3-0.1-0.5-0.1c0.1-0.2,0.2-0.4,0.5-0.4c0,0.1,0,0.2,0,0.3C30.4,26.6,30.4,26.6,30.4,26.7
			z"/>
		<path class="st2" d="M73.7,22.9c-0.3,0-0.5-0.1-0.5-0.4C73.4,22.5,73.6,22.6,73.7,22.9z"/>
		<path class="st2" d="M28.2,28c-0.1,0.2-0.2,0.3-0.4,0.3C27.8,28,27.9,27.9,28.2,28z"/>
		<path class="st2" d="M63.8,15.4c-0.2,0-0.4-0.1-0.4-0.3C63.6,15.1,63.7,15.2,63.8,15.4z"/>
		<path class="st4" d="M28.3,51.4c0.9-0.6,1.7-1.2,2.4-1.9c0.2-0.1,0.3-0.2,0.5-0.3c0.2,0,0.4,0.1,0.6,0.1c0.1,0.1,0.2,0.2,0.3,0.1
			c0,0.1,0.1,0.1,0.2,0.1c0,0.1,0.1,0.1,0.2,0.1c0.2,0,0.4,0.1,0.5,0.1c0.1,0.1,0.2,0.2,0.3,0.1c0,0.1,0.1,0.1,0.2,0.1
			c0,0.1,0.1,0.1,0.2,0.1c0.2,0,0.4,0.1,0.5,0.1c0.1,0.1,0.2,0.2,0.3,0.1c0.1,0,0.1,0.1,0.2,0.1c0,0.1,0.1,0.1,0.1,0
			c0.2,0,0.4,0.1,0.5,0.1c0.1,0.1,0.2,0.2,0.3,0.1c0,0.1,0.1,0.1,0.2,0.1c0,0.1,0.1,0.1,0.1,0c0.2,0,0.4,0,0.5,0
			c0.2,0.2,0.4,0.4,0.7,0.4c0.2,0,0.3,0.1,0.5,0.1c0.2,0.2,0.4,0.3,0.7,0.3c0.2,0,0.3,0.1,0.5,0.1c0.6,0.2,1.2,0.6,1.8,0.6
			c0.2,0,0.3,0.1,0.5,0.1c0.4,0.5,1.1,0.3,1.6,0.6c0,0.1,0.1,0.1,0.1,0.1l0,0c0.2,0,0.3,0.1,0.5,0.1c0.1,0.1,0.2,0.2,0.3,0.1
			c0.1,0.1,0.2,0.1,0.3,0.2l0,0c0.2,0.1,0.5,0.1,0.7,0.2c0.1,0.1,0.2,0.2,0.3,0.1c0,0.1,0.1,0.1,0.1,0.1l0,0
			c0.2,0.1,0.5,0.1,0.7,0.2c0.5,0.5,1.2,0.4,1.8,0.5c0.1,0,0.1,0.1,0.2,0.1c0.3,0.3,0.6,0.4,1,0.4c0.2,0,0.3,0.1,0.5,0.1
			c0.2,0.2,0.5,0.3,0.7,0.4c0.2,0,0.4,0,0.5-0.2c0-0.2-0.1-0.4-0.3-0.4c-0.1-0.1-0.1-0.3-0.2-0.4l0,0c-0.1-0.2-0.2-0.4-0.3-0.5
			c0-0.2-0.1-0.3-0.3-0.4c-0.1-0.1-0.1-0.2-0.2-0.4l0,0c-0.1-0.1-0.1-0.1-0.2-0.2l0,0l0,0c0-0.1-0.1-0.1-0.1-0.2
			c-0.1-0.6-0.2-1.2-0.8-1.5c0-0.4-0.3-0.7-0.5-1c0.1-0.4-0.2-0.6-0.3-0.8c0-0.1-0.1-0.1-0.1-0.2c0-0.2-0.1-0.5-0.3-0.6
			c0-0.1-0.1-0.1-0.1-0.2c0-0.2-0.1-0.4-0.3-0.6c0-0.1-0.1-0.1-0.1-0.2l0,0l0,0c-0.1-0.1-0.1-0.3-0.2-0.4l0,0
			c-0.1-0.1-0.1-0.1-0.2-0.2l0,0l0,0c0-0.1-0.1-0.1-0.1-0.2c-0.1-0.7-0.4-1.3-0.9-1.9c0-0.1-0.1-0.1-0.1-0.2c0,0,0,0,0,0l0,0
			c-0.1-0.1-0.1-0.2-0.2-0.4c0-0.3-0.2-0.6-0.4-0.8c0-0.1,0-0.1-0.1-0.2c0-0.2-0.1-0.4-0.3-0.6c0-0.1-0.1-0.1-0.1-0.2
			c-0.1-0.3-0.1-0.6-0.5-0.8c-0.1-0.1-0.1-0.2-0.2-0.4c0-0.3-0.2-0.6-0.4-0.8c0-0.1,0-0.1-0.1-0.2c0.1-0.2,0.1-0.4,0.2-0.7
			c0.9-0.5,1.8-1.2,2.5-2c0.2,0,0.3-0.1,0.5-0.1c5.5,4.3,11.1,8.7,16.6,13c0.1,0.1,0.3,0.2,0.5,0.3c0.1,0.3,0,0.5-0.2,0.7
			c-0.4,0.3-0.8,0.6-1.3,1c0,0,0,0,0,0c-0.1,0.1-0.1,0.1-0.2,0.2c-0.2,0.1-0.5,0.3-0.7,0.4c-0.2-0.1-0.3-0.3-0.5-0.4c0,0,0,0,0,0
			c-0.1-0.1-0.1-0.1-0.2-0.2c0,0,0,0,0,0c-3.4-2.6-6.7-5.3-10.1-7.9c-0.3-0.2-0.5-0.5-0.8-0.7c-0.2-0.1-0.4-0.5-0.6-0.2
			c-0.2,0.2,0,0.4,0.1,0.6c1.2,2.3,2.5,4.6,3.7,6.9c1,2,2,4.1,3.2,6c-0.1,0.1-0.1,0.2-0.2,0.2c-0.6,0.2-1.1,0.7-1.5,1.1
			c-0.1,0.1-0.2,0.2-0.4,0.3c-5.8-1.9-11.6-3.8-17.4-5.6c0,0.1-0.1,0.2-0.1,0.2c4.1,3.2,8.1,6.4,12.2,9.6c-0.1,0.2-0.2,0.4-0.3,0.5
			c-0.6,0.3-1.1,0.7-1.5,1.2c-0.2,0.1-0.5,0.2-0.7,0.3c-3.8-3-7.7-6.1-11.6-9.1c-1.9-1.5-3.8-3-5.7-4.5
			C28.2,51.7,28.2,51.5,28.3,51.4z"/>
		<path class="st2" d="M50.3,86c0.7,0.9,0.8,2,0.4,3c-0.2,0.6,0,1.1,0.1,1.7c0.1,0.7,0,1.4-0.1,2.2c0,0.2-0.1,0.4,0,0.6
			c0.2,1.1,0.2,1.2-0.9,1c-1.6-0.2-3.1-0.8-4.5-1.6c-2.4-1.5-4.4-3.4-6.7-5.1c-2.6-1.9-5.2-3.9-7.7-6c-0.8-0.6-1.2-1.3-0.7-2.3
			c0.3-0.6,0.1-1.2,0-1.8c-0.2-1.2,0.6-2.3,0.1-3.5c-0.2-0.6,0.3-0.8,0.8-0.9c0.5-0.1,0.7,0.4,1.1,0.6c1.7,1.4,3.4,2.8,5.1,4.1
			c2.7,2,5.1,4.3,8.1,6c1.3,0.7,2.7,1.3,4.1,1.6C49.9,85.6,50.1,85.8,50.3,86z"/>
		<path class="st4" d="M49.2,35c0.7-0.3,1.2-0.9,1.8-1.4c0.2-0.1,0.5-0.2,0.7-0.3c4.7,3.7,9.4,7.3,14,11c0.8,0.6,1.2,0.5,1.8,0
			c2.4-1.9,4.7-3.7,7.1-5.6c0.2,0.1,0.3,0.2,0.5,0.2c0.4,0.5,1,0.9,1.6,1.2c0.1,0.2,0.2,0.3,0.2,0.5c-1.2,0.9-2.4,1.9-3.5,2.8l0,0
			c0,0,0,0,0,0c-0.2,0.1-0.3,0.3-0.5,0.4l0,0c-0.1,0.1-0.1,0.1-0.2,0.2l0,0l0,0c-0.2,0.1-0.4,0.3-0.6,0.4l0,0
			c-0.1,0-0.1,0.1-0.2,0.1c-0.3,0.3-0.7,0.5-1,0.8c-0.2,0.1-0.4,0.3-0.5,0.4c0,0,0,0,0,0c-0.1,0.1-0.1,0.1-0.2,0.2l0,0
			c-0.1,0.1-0.1,0.1-0.2,0.2l0,0l0,0c-0.1,0.1-0.2,0.2-0.3,0.3c-0.4,0.1-0.7,0.4-0.9,0.7c-0.7,0.4-1.4,0.9-2,1.5
			c-0.2,0.1-0.4,0.2-0.5,0.3c-1.4-1.1-2.9-2.2-4.3-3.3c-4.3-3.4-8.7-6.8-13-10.2C49,35.3,49.1,35.2,49.2,35z"/>
		<path class="st3" d="M32.2,73.8c-0.4-0.1-0.6-0.6-1.1-0.6c-1.7-1.6-3.6-3-5.5-4.4c-0.9-0.7-1.9-1.3-2.6-2.1
			c-0.5-0.5-0.8-1.1-1.6-1.3c-0.1,0-0.1,0-0.2,0c0-0.2,0-0.4,0.1-0.5c1.1-1.3,1.1-2.7,0.7-4.2c-0.3-1.1,0.1-1.9,0.8-2.6
			c1,0.4,1.9,1.1,2.7,1.7c2,1.6,3.9,3.2,5.8,4.8c0.7,0.6,1.6,1,1.2,2.3c-0.2,0.7-0.3,1.8-0.1,2.3c0.4,1.1-0.5,2.2,0.4,3.1
			C33.3,73,32.4,73.3,32.2,73.8z"/>
		<path class="st3" d="M72.2,85.9c-2.1,1.7-4.3,3.4-6.4,5.1c-0.3,0.2-0.6,0.3-0.9,0.2c-0.5-0.1-0.1-0.6-0.3-0.7
			c-0.6-0.7,0.2-1.3,0.1-2c-0.1-1.2-0.2-2.4-0.2-3.6c0-0.5-0.1-1.1,0.3-1.5c0.2-0.2,0-0.4-0.1-0.5c2.2-1.8,4.4-3.7,6.8-5.2
			c0.3-0.2,0.6-0.5,0.8-0.3c0.3,0.2-0.1,0.5-0.1,0.8c0,0.3-0.1,0.5,0,0.8c0.4,1.3-0.1,2.6-0.1,3.9C72.1,83.8,72.2,84.9,72.2,85.9z"
			/>
		<path class="st3" d="M49.2,35c-0.1,0.2-0.2,0.3-0.2,0.5c-1.3-0.6-2.2-1.6-3.3-2.3c-1.1-0.8-2.1-1.6-3.1-2.4
			c-0.2-0.2-0.5-0.4-0.8-0.1c-0.7,0.7-1.7,1-2.2,2c-0.6-0.2-0.9,0.1-0.9,0.7c-0.7,0.1-1.1,0.7-1.6,1c-0.6,0.4-0.8,0.8,0,1.2
			c0.3,0.2,0.6,0.5,0.8,0.8c0,0-0.1,0.1-0.1,0.1c-1.1-0.2-1.8-1-2.6-1.6c-2.3-1.7-4.5-3.4-6.7-5.1c-0.4-0.3-0.7-0.6-1.1-0.7
			c0.1-0.2,0.2-0.3,0.4-0.3c1.5,0.5,2.5,1.7,3.8,2.6c1.2,0.9,2.4,1.8,3.5,2.7c0.6,0.5,1.1,0.6,1.6-0.1c0.1-0.1,0.2-0.2,0.3-0.3
			c1.4-1.1,1.4-1.1,0-2.2c-1.8-1.3-3.6-2.7-5.4-4c-0.3-0.2-0.7-0.5-0.8-0.9c0-0.1,0-0.1,0-0.2c1.6,0.7,2.8,1.9,4.2,2.9
			c1.2,0.8,2.3,1.7,3.4,2.6c0.4,0.3,0.7,0.3,1,0c0.3-0.3,0.6-0.5,0.9-0.7c0.4-0.4,1.1-0.6,1.2-1.2c0.1-0.7-0.8-0.7-1.1-1.1
			c-0.2-0.2-0.3-0.3-0.3-0.6c0-0.1,0-0.1,0-0.1c1.1,0.4,1.8,1.2,2.7,1.9c2.1,1.5,4.1,3.1,6.2,4.7C48.9,34.9,49,34.9,49.2,35z"/>
		<path class="st3" d="M53.2,59.2c0.1-0.1,0.2-0.2,0.4-0.3c0.2,0.2,0.4,0.5,0.6,0.6c3.2,2.3,6,5.1,9.5,7c0.5,0.2,0.7,0.8,1.4,0.8
			c0.2,0.4,0.6,0.4,1,0.5c0,1-0.7,1.6-1.4,2.1c-2.4,1.9-4.8,3.8-7.2,5.6c-0.5,0.4-0.9,0.8-1.3,1.2c-0.4,0.5-1.2,0.7-1.7,1.2
			c-0.1,0.1-0.3,0-0.4-0.2c-0.1-0.2,0.1-0.3,0.2-0.5c1-0.8,1.9-1.6,2.9-2.3c2.4-1.9,4.8-3.7,7.2-5.6c0.2-0.2,0.5-0.4,0.7-0.7
			c0.4-0.5,0.6-0.9-0.3-0.9c-0.5,0-0.8-0.4-1.1-0.7c-0.3-0.2-0.5-0.4-0.8-0.1c-0.3-0.2-0.6-0.5-1-0.3c-0.1-1.1-1.2-1.5-1.9-2.1
			c-2-1.7-4.1-3.3-6.2-5C53.4,59.6,53.2,59.4,53.2,59.2z"/>
		<path class="st3" d="M89.3,44.5c0.4,0.1,0.9,0.1,1.1,0.6C90,45,89.7,45,89.3,45.3c-0.7,0.6-1.5,1.2-2.2,1.8
			c-0.1,0.1-0.3,0.3-0.3,0.3c0.8,0.9-0.3,0.7-0.6,0.9C85,49,84.1,49.9,83,50.7c-1,0.8-1.9,1.6-2.9,2.4c-0.3,0.2-0.2,0.4-0.2,0.8
			c0,2.2,2.1,2.4,3.2,3.6c0.3,0.3,0.7,0.6,1,0.8c0.1,0.1,0.4,0.2,0.2,0.4c-0.1,0.2-0.4,0.1-0.5,0c-1.6-1.3-3.4-2.2-4.7-3.9
			c-0.5-0.7-0.3-1.7,0.5-2.4c1.6-1.4,3.3-2.8,5-4.2C86.2,47.1,87.8,45.8,89.3,44.5z"/>
		<path class="st3" d="M66.3,49c0.2-0.1,0.4-0.2,0.5-0.3c1.1,1.3,2.6,2.1,3.9,3.1c3.5,2.7,7.1,5.3,10.7,8c0.1,0,0.1,0.1,0.1,0.1
			c0.2,0.2,0.7,0.4,0.4,0.7c-0.3,0.3-0.7,0-0.9-0.2c-1.2-0.9-2.3-1.9-3.5-2.8c-2.9-2.2-5.8-4.3-8.7-6.6C68,50.5,66.9,50,66.3,49z"/>
		<path class="st3" d="M55.1,57.8c0.1-0.1,0.1-0.2,0.2-0.2c1.3,0.4,2.1,1.4,3.1,2.1c1.5,1.1,2.9,2.4,4.4,3.5c1.4,1,2.5,2.3,3.6,3.6
			c0.2,0.3,0.3,0.7-0.2,0.9c0.1-0.6-0.3-0.8-0.8-0.8c-0.1-0.7-0.5-1.1-0.9-1.5c-1.7-1.3-3.4-2.6-5-3.9
			C58.1,60.2,56.4,59.2,55.1,57.8z"/>
		<path class="st3" d="M86.4,41.9c0.7,0.1,0.9,0.7,1.2,1.1c-1.4,0.5-2.2,1.6-3.3,2.5c-2.4,1.9-4.5,4.2-7,5.9
			c-0.2,0.1-0.4,0.3-0.7,0.3c0-0.1-0.1-0.2-0.1-0.4c1-1.1,2-2.1,3.3-2.7c1.2-0.7,1.3-2.5,3-2.6c0.1,0,0.2-0.1,0.3-0.2
			c1-0.8,1.9-1.6,3-2.4C86.5,42.9,86.7,42.5,86.4,41.9z"/>
		<path class="st3" d="M28.3,51.4c-0.1,0.1-0.1,0.2-0.2,0.4c-1.4-0.6-2.4-1.7-3.6-2.6c-1.2-0.9-1.2-0.9-2.3,0
			c-1.5,1.2-3,2.3-4.5,3.5c-0.3,0.2-0.5,0.5-0.5,0.9c-0.3-0.1-0.5-0.4-0.6-0.7c1.8-1.5,3.7-2.9,5.5-4.4c0.6-0.5,0.5-0.8-0.1-1.1
			c-0.2-0.1-0.3-0.2-0.5-0.3c0.1-0.1,0.2-0.2,0.3-0.3c0.9-0.1,1.4,0.7,2,1.1C25.3,49.1,26.9,50.1,28.3,51.4z"/>
		<path class="st3" d="M62.2,67.7c0,1.2-1.1,1.8-1.9,2.4c-2.6,2.1-5.2,4.1-7.9,6.2c-0.3,0.2-0.4,0.4-0.4,0.8l0,0
			c-0.3-0.1-0.6,0.2-0.9,0.3c-0.2,0.1-0.4,0.1-0.5-0.1c-0.1-0.2,0.1-0.4,0.2-0.5c1.6-1.3,3.2-2.5,4.8-3.8c1.7-1.4,3.4-2.7,5.1-4.1
			c0.4-0.3,0.8-0.6,0.9-1.1C61.9,67.7,62,67.7,62.2,67.7z"/>
		<path class="st3" d="M65.5,56.6c2.2,2,4.7,3.8,7.1,5.7c1,0.8,2,1.5,2.9,2.3c0.2,0.2,0.7,0.4,0.4,0.7c-0.2,0.3-0.6-0.1-0.8-0.3
			c-1.5-1.1-2.9-2.3-4.4-3.4c-1.7-1.4-3.5-2.8-5.2-4.2c-0.2-0.1-0.3-0.2-0.3-0.4C65.2,56.9,65.3,56.8,65.5,56.6z"/>
		<path class="st3" d="M68.8,47.2c0.2-0.3,0.5-0.6,0.9-0.7c0,0.2-0.1,0.5-0.1,0.5c0.5,0.6,1.2,1.1,2,1.5c0.2,0.1,0.4-0.1,0.6-0.2
			c0.7-0.4,0.7-1.2,0.5-1.8c-0.2-0.7-0.8-1.2-1.7-1.1c0.3-0.3,0.7-0.5,1-0.8c0.1,0.2,0.1,0.4,0.2,0.5c1.6,1.6,1.6,1.6,0.4,3.6
			c-0.1,0.2-0.2,0.4,0,0.6c0.9,0.5,1.6,1.5,2.7,1.7c-0.1,0.2-0.2,0.3-0.2,0.5c-1.3-0.3-2.1-1.4-3.2-2C70.8,48.9,69.8,48,68.8,47.2z"
			/>
		<path class="st3" d="M62.7,52c0.1-0.2,0.2-0.5,0.2-0.7c2.2,1.3,4,3,6,4.5c0.7,0.5,1.4,0.8,2,1.5c-0.1,0.1-0.2,0.2-0.4,0.3
			c-1.8-1-3.2-2.5-4.9-3.6C64.6,53.3,63.8,52.3,62.7,52z"/>
		<path class="st3" d="M45.7,37.9c-0.2,0-0.3,0.1-0.5,0.1c-0.7-0.5-1.5-1-2.1-1.6c-0.4-0.4-0.7-0.4-1.1-0.1
			c-0.6,0.5-1.3,0.9-1.9,1.4c0-0.2-0.1-0.3-0.1-0.5c0.5-0.4,0.9-0.8,1.4-1.1c0.4-0.3,0.4-0.7,0-1c-0.7-0.4-1.3-0.9-1.9-1.4
			c0.1-0.2,0.3-0.4,0.4-0.5C41.8,34.9,44,36.1,45.7,37.9z"/>
		<path class="st3" d="M54.9,70c-0.6,1.5-2,2.3-3.2,3.2c-1.2,0.9-2.3,1.9-3.5,2.8c-0.3,0.2-0.6,0.6-1.1,0.4c0.1-0.5,0.5-0.7,0.9-1
			c1.8-1.4,3.6-2.8,5.3-4.3c0.3-0.2,0.6-0.5,0.6-0.9C54.3,70.1,54.6,70.1,54.9,70z"/>
		<path class="st3" d="M47.5,63.8c0.1-0.2,0.2-0.4,0.3-0.5c1.6,0.9,2.8,2.2,4.3,3.3c0.8,0.6,1.5,1.2,2.1,1.9
			c0.2,0.3,0.4,0.6,0.5,0.9c-0.2,0-0.5,0-0.7,0c0-0.8-0.7-1.1-1.2-1.5c-1.5-1.2-3-2.4-4.4-3.6C48.1,64.1,47.9,63.9,47.5,63.8z"/>
		<path class="st3" d="M71.8,58c2.3,1.4,4.3,3.4,6.5,4.9c0.2,0.1,0.4,0.3,0.3,0.5c-0.2,0.3-0.5,0-0.7-0.1c-1.4-1.1-2.9-2.1-4.3-3.3
			c-0.7-0.6-1.6-1-2.1-1.8C71.5,58.1,71.7,58,71.8,58z"/>
		<path class="st3" d="M50,70.2c-0.4,1-1.3,1.4-2,2.1c-0.9,0.8-1.8,1.5-2.7,2.2c-0.3,0.2-0.6,0.5-0.8,0.2c-0.2-0.3,0.2-0.5,0.4-0.7
			c1.3-1.1,2.6-2.1,3.9-3.2c0.3-0.2,0.5-0.4,0.6-0.7C49.5,70.2,49.7,70.2,50,70.2z"/>
		<path class="st3" d="M45.4,65.3c0.2-0.1,0.5-0.2,0.7-0.3c0.8,1.2,2,1.8,3,2.7c0.4,0.4,1.1,0.7,1.1,1.5c-0.2,0-0.4,0-0.5,0
			c-0.6-1.1-1.8-1.6-2.7-2.5C46.4,66.3,45.9,65.8,45.4,65.3z"/>
		<path class="st3" d="M60.5,53.5c0.2-0.1,0.5-0.3,0.7-0.4c0.1,0.8,1,1,1.5,1.5c0.7,0.6,1.3,1.2,2.2,1.5c-0.4,0.1-0.7,0.2-0.7,0.6
			C63.1,55.5,61.6,54.7,60.5,53.5z"/>
		<path class="st3" d="M19,54.7c-0.3,0-0.7,0-0.9-0.4c1-0.4,1.8-1.2,2.7-1.8c0.2-0.1,0.4-0.5,0.6-0.2c0.3,0.4-0.1,0.5-0.3,0.6
			C20.4,53.5,19.6,54,19,54.7z"/>
		<path class="st2" d="M56.1,86c-0.1,0.1-0.2,0.2-0.3,0.3c-1.5,0.2-3.1,0.5-4.6-0.2c0.5-0.4,1,0,1.5,0C53.9,86.1,55,86,56.1,86z"/>
		<path class="st4" d="M49.6,69.2c0.2,0,0.4,0,0.5,0c0.6,0.5,0.4,0.8-0.2,1c-0.2,0-0.5-0.1-0.7-0.1C49.3,69.8,49.3,69.4,49.6,69.2z"
			/>
		<path class="st4" d="M39.8,33.2c-0.1,0.2-0.3,0.4-0.4,0.5c-0.4,0-0.6-0.1-0.8-0.4c0-0.6,0.3-0.9,0.9-0.7
			C39.6,32.9,39.7,33,39.8,33.2z"/>
		<path class="st4" d="M75,51.6c0.1-0.2,0.2-0.3,0.2-0.5c0.4,0,0.8-0.1,1.1,0.1c0,0.1,0.1,0.2,0.1,0.4C76,52.2,75.5,52.2,75,51.6z"
			/>
		<path class="st4" d="M71.8,58c-0.1,0.1-0.2,0.2-0.3,0.2c-0.4-0.1-0.9,0-1-0.6c0.1-0.1,0.2-0.2,0.4-0.3
			C71.3,57.3,71.8,57.2,71.8,58z"/>
		<path class="st4" d="M62.2,67.7c-0.2-0.1-0.4,0-0.5,0.1c-0.1-0.1-0.2-0.3-0.2-0.4c0,0,0,0,0,0s0,0,0,0c0.1-0.2,0.2-0.4,0.3-0.5
			c0.4-0.2,0.7,0.1,1,0.3c0,0.1,0,0.1,0,0.2c0,0.1-0.1,0.2-0.1,0.3C62.5,67.7,62.4,67.7,62.2,67.7z"/>
		<path class="st4" d="M64.2,56.7c0-0.5,0.4-0.5,0.7-0.6c0.3,0.1,0.5,0.2,0.6,0.5c-0.1,0.1-0.2,0.3-0.4,0.4
			C64.8,57,64.4,57,64.2,56.7z"/>
		<path class="st3" d="M36.2,61.3c0.2,0.1,0.5,0.2,0.5,0.5c0,0.3-0.2,0.4-0.5,0.4c-0.3,0-0.5-0.1-0.5-0.5
			C35.8,61.4,36,61.3,36.2,61.3z"/>
		<path class="st4" d="M65.5,66.9c0.5,0,0.9,0.2,0.8,0.8c-0.1,0-0.1,0.1-0.2,0.1c-0.4,0-0.8,0-1-0.5C65.1,67.1,65.3,67,65.5,66.9z"
			/>
		<path class="st4" d="M54,69.4c0.2,0,0.5,0,0.7,0c0.3,0.1,0.2,0.4,0.2,0.6c-0.3,0.1-0.6,0.1-0.9,0.2C53.9,69.9,53.6,69.7,54,69.4z"
			/>
		<path class="st3" d="M23.9,53.8c0,0.3-0.1,0.4-0.4,0.5c-0.3,0-0.5-0.2-0.5-0.4c0-0.3,0.2-0.4,0.4-0.4
			C23.7,53.4,23.8,53.5,23.9,53.8z"/>
		<path class="st3" d="M62.6,67.6c0-0.1,0.1-0.2,0.1-0.3c0,0.1,0.1,0.1,0.1,0.2C62.8,67.7,62.7,67.7,62.6,67.6z"/>
		<path class="st3" d="M52.1,77.1c0.1,0,0.3,0,0.3,0.2c0,0,0,0.1-0.1,0.1C52.1,77.4,52.1,77.2,52.1,77.1
			C52.1,77.1,52.1,77.1,52.1,77.1z"/>
		<path class="st3" d="M60,53.1C60,53.1,60,53.1,60,53.1C60,53.1,60,53.1,60,53.1z"/>
		<path class="st3" d="M61.5,67.4L61.5,67.4C61.5,67.4,61.5,67.5,61.5,67.4C61.4,67.4,61.4,67.4,61.5,67.4
			C61.4,67.4,61.4,67.4,61.5,67.4z"/>
		<path class="st3" d="M61.4,52.9C61.4,52.9,61.4,52.9,61.4,52.9C61.4,52.9,61.4,52.9,61.4,52.9z"/>
		<path class="st3" d="M59.8,52.9C59.8,52.9,59.8,52.9,59.8,52.9C59.8,52.9,59.8,52.9,59.8,52.9z"/>
		<path class="st2" d="M21.4,65.4c0.7,0.2,1.1,0.8,1.6,1.3C22.1,66.7,21.7,66.1,21.4,65.4z"/>
		<path class="st3" d="M31.2,49.2c-0.2,0.1-0.3,0.2-0.5,0.3c-1.2-1.3-2.7-2.1-4-3.2c-2-1.5-4-3-6-4.5c-0.4-0.3-0.8-0.5-1.2-0.8
			c0.1-0.1,0.1-0.2,0.2-0.3c0.4-0.1,0.7,0.2,1,0.4c3.3,2.5,6.6,4.9,9.9,7.4C30.9,48.7,31.1,48.9,31.2,49.2z"/>
		<path class="st3" d="M37.1,51.1c-0.3,0.1-0.5-0.2-0.7-0.4c0.4-0.9,1.4-1.3,2.1-1.9c1.3-1.1,2.6-2.1,4-3.1c0.6-0.5,1.3-0.6,2-0.2
			c0.6,0.3,0.5-0.1,0.5-0.4c0.5,0.6,0.8,1.2,0.9,1.9c-0.5-0.1-0.8-0.4-1.1-0.7c-0.8-0.6-1.6-0.5-2.3,0.1c-1.4,1.1-2.9,2.2-4.3,3.4
			C37.7,50.2,37,50.4,37.1,51.1z"/>
		<path class="st3" d="M42.8,40c-0.1,0.2-0.1,0.4-0.2,0.7c-1.1-0.8-2.1-1.6-3.2-2.5c0.2-0.2,0.4-0.2,0.6-0.2
			C41,38.7,41.9,39.3,42.8,40z"/>
		<path class="st3" d="M39,38.2c-0.1,0.1-0.1,0.2-0.2,0.3c0-0.9-1-1.3-1.2-2c0,0,0.1-0.1,0.1-0.1c0.5,0.1,0.9,0.4,1.3,0.8
			C38.7,37.6,38.9,37.9,39,38.2z"/>
		<path class="st4" d="M39,38.2c-0.1-0.3-0.3-0.7,0-1c0.3,0,0.7,0,1,0.1c0,0.2,0.1,0.3,0.1,0.5c0,0.1-0.1,0.1-0.1,0.2
			c-0.2,0.1-0.4,0-0.6,0.2C39.3,38.2,39.2,38.2,39,38.2z"/>
		<path class="st4" d="M19.7,40.7c-0.1,0.1-0.1,0.2-0.2,0.3c-0.4,0.1-0.8,0.2-1.1,0c0-0.2,0-0.4,0-0.6c0.1,0,0.1-0.1,0.2-0.1
			c0.2,0,0.3,0,0.5,0C19.3,40.4,19.6,40.4,19.7,40.7z"/>
		<path class="st3" d="M33.6,43.1c0,0.3-0.2,0.4-0.4,0.4c-0.3,0-0.5,0-0.5-0.4c0-0.2,0.2-0.4,0.4-0.5C33.3,42.7,33.5,42.9,33.6,43.1
			z"/>
		<path class="st3" d="M43.3,42c0.3,0.2,0.4,0.5,0.5,0.8C43.3,42.6,43.3,42.3,43.3,42z"/>
		<path class="st3" d="M42.7,40.8c0.2,0.2,0.4,0.4,0.4,0.8C42.7,41.5,42.7,41.2,42.7,40.8z"/>
		<path class="st3" d="M44.2,43.7c0.2,0.2,0.4,0.4,0.4,0.8C44.2,44.4,44.2,44,44.2,43.7z"/>
		<path class="st3" d="M19.1,40.2c-0.2,0-0.3,0-0.5,0c0-0.2,0.1-0.3,0.3-0.3C19,40,19,40.1,19.1,40.2z"/>
		<path class="st3" d="M43.8,43c0.2,0.1,0.3,0.4,0.3,0.6C43.8,43.5,43.8,43.2,43.8,43z"/>
		<path class="st3" d="M35.6,50.6c-0.1,0-0.2,0-0.3-0.1C35.5,50.2,35.5,50.4,35.6,50.6z"/>
		<path class="st3" d="M34.4,50.2c-0.1,0.1-0.2,0-0.3-0.1C34.3,49.8,34.4,50,34.4,50.2z"/>
		<path class="st3" d="M33.3,49.8c-0.1,0-0.2,0-0.3-0.1C33.2,49.5,33.2,49.6,33.3,49.8z"/>
		<path class="st3" d="M32.1,49.5c-0.1,0-0.2,0-0.3-0.1C32,49.1,32.1,49.3,32.1,49.5z"/>
		<path class="st3" d="M35.9,50.7c-0.1,0.1-0.1,0.1-0.1,0C35.8,50.7,35.8,50.7,35.9,50.7z"/>
		<path class="st3" d="M34.7,50.3c-0.1,0.1-0.1,0.1-0.1,0C34.6,50.3,34.7,50.3,34.7,50.3z"/>
		<path class="st3" d="M32.4,49.6c-0.1,0.1-0.1,0.1-0.2-0.1C32.3,49.5,32.4,49.5,32.4,49.6z"/>
		<path class="st3" d="M33.6,50c-0.1,0.1-0.1,0.1-0.2-0.1C33.5,49.9,33.5,49.9,33.6,50z"/>
		<polygon class="st3" points="44.8,44.8 44.9,44.8 44.8,44.9 		"/>
		<path class="st1" d="M74.7,38.7c-2.4,1.9-4.8,3.7-7.1,5.6c-0.7,0.5-1.1,0.6-1.8,0c-4.7-3.7-9.4-7.4-14-11c-1.2-1.2-2.6-2.2-4-3.1
			c-0.7-0.5-0.7-0.8-0.1-1.3c1.2-1,2.6-1.9,3.8-3c0.4-0.4,0.9-0.2,1.3,0.2c1.2,1,2.5,1.9,3.8,2.9c0.3,0.2,0.6,0.4,0.9,0.4
			c0.5,0.4,0.9,0.5,1.4,0c0.9,0,1.4-0.7,2.1-1.1c1.2-0.8,2.3-1.8,3.5-2.7c0.4-0.3,0.7-0.3,1.1,0c2.1,1.6,4.1,3.2,6.2,4.9
			c0.3,0.2,0.6,0.4,1,0.4c0.1,0.3,0.3,0.5,0.6,0.6c0,0.3,0.2,0.5,0.6,0.6c1.3,1,2.7,2,4,3.1c0,0.2,0.1,0.3,0.2,0.4
			c0.1,0,0.1,0,0.2,0c0,0.1,0,0.1,0,0.2C77,36.7,75.7,37.5,74.7,38.7z M60.6,35.2c-0.2,0-0.5,0.1-0.4,0.4c0,0.2,0.2,0.3,0.4,0.3
			c0.3,0,0.4-0.1,0.4-0.4C61,35.3,60.9,35.2,60.6,35.2z"/>
		<path class="st1" d="M76.4,51.3c-0.3-0.3-0.7-0.1-1.1-0.1c-1.1-0.3-1.8-1.2-2.7-1.7c-0.2-0.1-0.1-0.4,0-0.6c1.2-2,1.2-2-0.4-3.6
			C72.1,45,72,44.8,72,44.7c0.1,0,0.1-0.1,0.2-0.1c0,0,0,0,0,0c0.2-0.1,0.4-0.3,0.6-0.4c0,0,0,0,0,0c0.1-0.1,0.1-0.1,0.2-0.2
			c0,0,0,0,0,0c0.2-0.1,0.3-0.3,0.5-0.4c0,0,0,0,0,0c1.2-0.9,2.4-1.9,3.5-2.8c1.5-0.7,2.5-2,3.8-2.9c0.7,0.1,1.1,0.7,1.7,1
			c0,0.2,0.2,0.4,0.4,0.4c1.1,0.9,2.3,1.8,3.4,2.7c0.3,0.6,0.1,1-0.4,1.4c-1,0.8-2,1.6-3,2.4c-0.1,0.1-0.2,0.2-0.3,0.2
			c-1.7,0.1-1.8,1.9-3,2.6C78.4,49.2,77.4,50.2,76.4,51.3z"/>
		<path class="st1" d="M76.8,40.2c-0.6-0.3-1.1-0.7-1.6-1.2c0.8-0.9,1.8-1.5,2.7-2.3c0.5-0.5,1-0.4,1.6-0.2c0.3,0.2,0.5,0.4,0.8,0.6
			c-0.1,0.2-0.1,0.4-0.2,0.5C79,38.5,77.9,39.3,76.8,40.2z"/>
		<path class="st3" d="M79.5,36.5c-0.6-0.2-1.1-0.2-1.6,0.2C77,37.5,76,38.1,75.2,39c-0.2-0.1-0.3-0.2-0.5-0.2c1-1.2,2.3-2.1,3.6-3
			c0.3,0.3,0.6,0.3,0.9,0C79.4,35.9,79.5,36.2,79.5,36.5z"/>
		<path class="st3" d="M76.8,40.2c1.1-0.9,2.2-1.7,3.3-2.6c0.1-0.1,0.1-0.3,0.2-0.5c0.3,0.2,0.5,0.4,0.6,0.7
			c-1.4,0.9-2.4,2.2-3.8,2.9C76.9,40.5,76.9,40.4,76.8,40.2z"/>
		<path class="st4" d="M84.5,35c0,0.4-0.3,0.4-0.6,0.4c-0.3,0-0.6,0-0.6-0.4c0-0.4,0.3-0.5,0.7-0.5C84.3,34.5,84.5,34.6,84.5,35z"/>
		<path class="st4" d="M79.1,35.7c-0.3,0.3-0.6,0.3-0.9,0c0-0.1,0-0.1,0-0.2C78.7,35.3,78.9,35.3,79.1,35.7z"/>
		<path class="st3" d="M73.9,32.1c-0.3,0-0.5-0.2-0.6-0.6C73.7,31.5,73.9,31.7,73.9,32.1z"/>
		<path class="st3" d="M82.9,39.2c-0.2,0-0.4-0.1-0.4-0.4C82.8,38.8,82.9,38.9,82.9,39.2z"/>
		<path class="st3" d="M78.1,35.5c-0.2-0.1-0.2-0.2-0.2-0.4C78,35.3,78.1,35.4,78.1,35.5z"/>
		<path class="st1" d="M57.6,28.9c-1.7-1.2-3.4-2.4-5-3.7c-0.9-0.7-1.8-1.4-2.8-2.1C49.5,23,49,23,49.1,22.6c0-0.4,0.5-0.2,0.7-0.3
			c0.2-0.1,0.5-0.1,0.6-0.4c1,0,2,0,3,0c1.1,1.4,2.6,2.2,4,3.2c0.1,0.1,0.3,0.2,0.4,0.3c0.6,0.2,1,0.1,1.5-0.3
			c0.6-0.5,1.2-1,1.8-1.4c0.4-0.3,0.8-0.4,1.3,0c0.5,0.4,1,0.6,1.5,1c0.3,0.2,0.5,0.6,0.1,0.8c-1.8,1.1-3.3,2.6-5.3,3.6
			C58.4,28.7,58,28.9,57.6,28.9z"/>
		<path class="st1" d="M53.8,21.5c0.9,0,1.8,0,2.7,0c0.2,0.4,0.5,0.4,0.8,0.2c0.4,0.1,0.9,0.1,1.3,0.2c0.4,0.6,1.2,0.4,1.7,0.7
			c0.4,0.2,0.5,0.4,0.1,0.7c-0.7,0.5-1.2,1.3-2.3,1c-0.1,0-0.2,0.1-0.3,0.2c-0.1,0-0.3,0.1-0.4,0.1c-0.4-0.6-0.9-0.9-1.5-1.3
			C55.2,22.8,54.4,22.3,53.8,21.5z"/>
		<path class="st4" d="M57.6,28.9c0.4-0.1,0.8-0.2,1.2,0.1c0,0.1,0,0.3,0.1,0.4c-0.5,0.5-0.9,0.4-1.4,0
			C57.5,29.2,57.5,29.1,57.6,28.9z"/>
		<path class="st4" d="M57.4,24.6c0.1,0,0.3-0.1,0.4-0.1c0.3,0.1,0.9-0.1,0.9,0.4c0,0.4-0.5,0.3-0.9,0.3c-0.1-0.1-0.3-0.2-0.4-0.3
			C57.4,24.9,57.4,24.7,57.4,24.6z"/>
		<path class="st2" d="M61.9,22.4c0.2,0,0.3,0.1,0.2,0.2c0,0.1-0.1,0.2-0.2,0.2c-0.1,0-0.2-0.1-0.2-0.1
			C61.8,22.6,61.9,22.5,61.9,22.4z"/>
		<path class="st1" d="M48.4,22.7c1,1.1,0.9,1-0.1,2c-1,0.9-2.3,1.6-3.3,2.6c-0.4,0.4-0.8,0.3-1.2,0c-1.8-1.4-1.6-1.5,0-2.4
			c1.1-0.7,2.3-1.4,3.5-1.8c0.1,0,0.2-0.2,0.3-0.3C47.9,22.7,48.2,22.7,48.4,22.7z"/>
		<path class="st3" d="M49.5,14c-0.4,0.9-0.2,1.8-0.3,2.8c-0.1,1-0.4,1.1-1.2,0.6c-0.8-0.5-1.4-1.3-2.2-1.8c-0.4-0.2-0.3-0.5,0-0.7
			c1-0.6,2.1-1,3.2-1.3C49.3,13.5,49.5,13.5,49.5,14z"/>
		<path class="st3" d="M57.4,24.6c0,0.1,0,0.3,0,0.4c-1.4-1-2.9-1.8-4-3.2c0.1-0.2,0.2-0.2,0.4-0.2c0.6,0.7,1.4,1.2,2.2,1.8
			C56.5,23.7,57.1,24,57.4,24.6z"/>
		<path class="st3" d="M57.2,21.7c-0.3,0.3-0.6,0.3-0.8-0.2C56.7,21.5,57,21.5,57.2,21.7z"/>
		<path class="st1" d="M46.4,29c-0.4-0.2-0.9-0.4-1.1-0.8c-0.2-0.4,0.3-0.6,0.6-0.9c1.1-0.9,2.3-1.8,3.4-2.7
			c0.6-0.5,1.7-0.2,1.9,0.5c0.1,0.4-0.2,0.6-0.4,0.8c-1.3,0.8-2.3,1.9-3.6,2.8C47,28.8,46.8,29,46.4,29z"/>
		<path class="st4" d="M39,23.4c0.3,0,0.7,0.1,0.6,0.4c0,0.3-0.3,0.4-0.6,0.4c-0.3,0-0.6-0.1-0.5-0.5C38.5,23.4,38.7,23.4,39,23.4z"
			/>
		<path class="st1" d="M21.5,47.1c0.2,0.1,0.3,0.2,0.5,0.3c0.7,0.3,0.8,0.6,0.1,1.1c-1.9,1.4-3.7,2.9-5.5,4.4
			c-0.6-0.2-0.9-0.7-1.3-1.2c0-0.7,0.5-1,0.9-1.4c0.9-0.8,1.9-1.4,2.9-2.2c0.5-0.4,1.1-0.8,1.7-0.9C21,47.4,21.2,47.3,21.5,47.1z"/>
		<path class="st3" d="M20.8,47.1c-0.7,0.2-1.2,0.5-1.7,0.9c-0.9,0.8-1.9,1.4-2.9,2.2c-0.4,0.3-1,0.7-0.9,1.4
			c-0.5-0.1-0.3-0.6-0.4-0.9c0.9-1.2,2.2-1.8,3.3-2.8c0.7-0.6,1.3-1.2,2.3-1.4C20.6,46.7,20.7,46.9,20.8,47.1z"/>
		<path class="st4" d="M20.8,47.1c-0.1-0.2-0.2-0.4-0.3-0.6c0.8-0.6,1.1-0.5,1.3,0.3c-0.1,0.1-0.2,0.2-0.3,0.3
			C21.2,47.3,21,47.4,20.8,47.1z"/>
		<path class="st4" d="M39.8,28.3c0,0,0,0.1,0,0.1c-0.5-0.1-1.3,0.3-1.3-0.7c0.2,0,0.4,0,0.5-0.2C39.7,27.4,39.8,27.8,39.8,28.3z"/>
		<path class="st1" d="M37.1,51.1c0-0.7,0.6-0.9,1-1.3c1.4-1.2,2.9-2.3,4.3-3.4c0.8-0.6,1.5-0.8,2.3-0.1c0.3,0.3,0.7,0.6,1.1,0.7
			c0,0.1,0.1,0.1,0.1,0.2c0,0,0,0,0,0c0.1,0.1,0.1,0.1,0.2,0.2c0,0,0,0,0,0c0.1,0.1,0.1,0.3,0.2,0.4c0,0,0,0,0,0
			c0,0.1,0.1,0.1,0.1,0.2c0,0.2,0,0.5,0.3,0.6c0,0.1,0.1,0.1,0.1,0.2c0,0.2-0.1,0.5,0.3,0.6c0,0.1,0.1,0.1,0.1,0.2
			c0,0.3,0,0.6,0.4,0.8c0.2,0.3,0.5,0.6,0.5,1c-0.2,0.3-0.4,0.1-0.7-0.1c-0.8-0.6-1.6-1.2-2.3-1.8c-1.6-1.2-1.9-1.2-3.5,0.1
			c-0.4,0.3-0.8,0.6-1.2,1c-0.5,0.5-1.1,0.9-1.8,1.1c-0.2,0-0.3-0.1-0.5-0.1c-0.1-0.3-0.3-0.5-0.7-0.3
			C37.4,51.2,37.2,51.2,37.1,51.1z"/>
		<path class="st1" d="M65.5,66.9c-0.2,0.1-0.3,0.3-0.4,0.5c-0.6,0-0.9-0.6-1.4-0.8c-3.5-1.9-6.3-4.7-9.5-7
			c-0.2-0.2-0.4-0.4-0.6-0.6c0.4-0.4,0.9-0.9,1.5-1.1c1.3,1.4,3,2.4,4.5,3.7c1.6,1.3,3.3,2.6,5,3.9C65,65.8,65.4,66.2,65.5,66.9z"/>
		<path class="st1" d="M49.7,53.9c0.1,0.2,0.2,0.4,0.3,0.5c0,0,0,0,0,0c0.1,0.1,0.1,0.3,0.2,0.4c0,0.3-0.1,0.4-0.4,0.3
			c-0.2-0.1-0.3-0.2-0.5,0c-0.2,0-0.3-0.1-0.5-0.1c-0.2-0.4-0.6-0.4-1-0.4c-0.1,0-0.1-0.1-0.2-0.1c-1.1-1.2-2.3-2.2-3.7-2.9
			c-0.3-0.2-0.6-0.1-0.9,0.1c-0.6,0.5-1.2,0.8-2,0.7c-0.2,0-0.3-0.1-0.5-0.1c-0.1-0.3-0.7-0.4-0.2-0.9c0.8-0.6,1.5-1.2,2.3-1.7
			c0.7-0.5,1.4-0.5,2.2,0.1c1.3,1,2.6,2.2,4.1,3c0,0.1,0.1,0.1,0.1,0.2c0,0,0,0,0,0c0.1,0.1,0.1,0.1,0.2,0.2c0,0,0,0,0,0
			c0.1,0.1,0.1,0.2,0.2,0.4C49.4,53.7,49.4,53.8,49.7,53.9z"/>
		<path class="st1" d="M40.1,38c0-0.1,0.1-0.1,0.1-0.2c0.6-0.5,1.3-0.9,1.9-1.4c0.4-0.3,0.7-0.3,1.1,0.1c0.6,0.6,1.4,1.1,2.1,1.6
			c-0.7,0.8-1.6,1.4-2.5,2C41.9,39.3,41,38.7,40.1,38z"/>
		<path class="st3" d="M48.9,52.7c-1.5-0.8-2.8-1.9-4.1-3c-0.7-0.6-1.4-0.6-2.2-0.1c-0.8,0.5-1.5,1.2-2.3,1.7
			c-0.6,0.4,0.1,0.6,0.2,0.9c-0.6-0.1-1.2-0.4-1.8-0.6c0.7-0.2,1.3-0.6,1.8-1.1c0.4-0.4,0.8-0.7,1.2-1c1.5-1.3,1.9-1.3,3.5-0.1
			c0.8,0.6,1.6,1.2,2.3,1.8c0.2,0.2,0.4,0.3,0.7,0.1C48.8,51.5,48.8,52.1,48.9,52.7z"/>
		<path class="st3" d="M41,52.4c0.8,0.1,1.4-0.2,2-0.7c0.3-0.2,0.6-0.3,0.9-0.1c1.4,0.8,2.6,1.8,3.7,2.9c-0.6-0.2-1.3-0.1-1.8-0.5
			c-0.1-0.6-1.2-1.6-2-1.7c-0.5,0-1.1,0-1.2,0.7C42.1,52.6,41.5,52.8,41,52.4z"/>
		<path class="st1" d="M42.6,52.9c0.1-0.7,0.7-0.7,1.2-0.7c0.8,0,1.9,1,2,1.7c-0.2-0.1-0.5-0.1-0.7-0.2c0,0,0,0,0,0
			c-0.1,0-0.1,0-0.1-0.1c0-0.2-0.1-0.4-0.3-0.1c-0.2-0.1-0.5-0.1-0.7-0.2c0,0,0,0,0,0c-0.1-0.1-0.2-0.1-0.3-0.2
			c0-0.2-0.1-0.2-0.3-0.1c-0.2,0-0.3-0.1-0.5-0.1c0,0,0,0,0,0C42.7,53,42.7,53,42.6,52.9z"/>
		<path class="st3" d="M49.3,55.1c0.2-0.2,0.3,0,0.5,0c0.3,0.1,0.4,0,0.4-0.3c0.2,0.1,0.3,0.2,0.3,0.4c-0.1,0.2-0.3,0.2-0.5,0.2
			C49.7,55.4,49.4,55.3,49.3,55.1z"/>
		<path class="st3" d="M47.8,54.5c0.4,0,0.8,0,1,0.4C48.4,54.9,48.1,54.8,47.8,54.5z"/>
		<path class="st3" d="M47.7,50.2c-0.4-0.1-0.4-0.5-0.4-0.8C47.5,49.7,47.8,49.9,47.7,50.2z"/>
		<path class="st3" d="M37.6,51.2c0.3-0.2,0.5,0,0.7,0.3C37.9,51.5,37.7,51.4,37.6,51.2z"/>
		<path class="st3" d="M47.2,49.3c-0.4-0.1-0.3-0.3-0.3-0.6C47.1,48.8,47.2,49,47.2,49.3z"/>
		<path class="st3" d="M46.8,48.5c-0.3-0.1-0.3-0.3-0.3-0.6C46.7,48.1,46.8,48.3,46.8,48.5z"/>
		<path class="st3" d="M49.7,53.9c-0.3,0-0.3-0.2-0.3-0.4C49.6,53.5,49.7,53.7,49.7,53.9z"/>
		<path class="st3" d="M44.6,53.5c0.2-0.2,0.3-0.1,0.3,0.1C44.8,53.7,44.7,53.7,44.6,53.5z"/>
		<path class="st3" d="M43.3,53.1c0.1-0.2,0.2-0.1,0.3,0.1C43.5,53.3,43.4,53.2,43.3,53.1z"/>
		<path class="st3" d="M50,54.4C50,54.4,50,54.4,50,54.4C50,54.4,50,54.4,50,54.4z"/>
		<path class="st3" d="M45.1,53.8C45.1,53.8,45.1,53.8,45.1,53.8C45.1,53.8,45.1,53.8,45.1,53.8z"/>
		<path class="st3" d="M43.9,53.4C43.9,53.4,43.9,53.4,43.9,53.4C43.9,53.4,43.9,53.4,43.9,53.4z"/>
		<path class="st3" d="M49.2,53.1C49.2,53.1,49.2,53.1,49.2,53.1C49.2,53.1,49.2,53.1,49.2,53.1z"/>
		<path class="st3" d="M42.8,53C42.8,53,42.8,53,42.8,53C42.8,53,42.8,53,42.8,53z"/>
		<polygon class="st3" points="49.1,52.9 49.1,52.9 49.1,52.9 		"/>
		<polygon class="st3" points="46.4,47.7 46.4,47.7 46.4,47.7 		"/>
		<path class="st3" d="M46.2,47.3C46.2,47.3,46.2,47.3,46.2,47.3C46.2,47.3,46.2,47.3,46.2,47.3z"/>
		<polygon class="st3" points="46,47.2 46,47.1 46,47.1 		"/>
		<path class="st1" d="M71,45.5c0.9-0.1,1.5,0.4,1.7,1.1c0.2,0.6,0.2,1.3-0.5,1.8c-0.2,0.1-0.4,0.3-0.6,0.2c-0.8-0.3-1.4-0.9-2-1.5
			c-0.1-0.1,0-0.4,0.1-0.5c0.1-0.1,0.2-0.2,0.3-0.3c0,0,0,0,0,0c0.1-0.1,0.1-0.1,0.2-0.2c0,0,0,0,0,0c0.1-0.1,0.1-0.1,0.2-0.2
			c0,0,0,0,0,0C70.6,45.7,70.8,45.6,71,45.5z"/>
		<polygon class="st3" points="70,46.2 70,46.2 70,46.2 		"/>
		<path class="st3" d="M70.4,45.9C70.4,45.9,70.4,45.8,70.4,45.9C70.4,45.8,70.4,45.9,70.4,45.9z"/>
		<path class="st3" d="M72.1,44.5C72.1,44.5,72.1,44.5,72.1,44.5C72.1,44.5,72.1,44.5,72.1,44.5z"/>
		<polygon class="st3" points="72.7,44.1 72.7,44.1 72.7,44.1 		"/>
		<path class="st3" d="M72.9,43.9C72.9,43.9,72.9,43.9,72.9,43.9C72.9,43.9,72.9,43.9,72.9,43.9z"/>
		<polygon class="st3" points="73.5,43.5 73.4,43.5 73.4,43.5 		"/>
		<path class="st3" d="M70.2,46C70.2,46,70.2,46,70.2,46C70.2,46,70.2,46,70.2,46z"/>
		<path class="st1" d="M40,37.3c-0.3,0-0.7,0-1-0.1c-0.3-0.4-0.8-0.7-1.3-0.8c-0.2-0.4-0.4-0.6-0.8-0.8c-0.8-0.4-0.6-0.8,0-1.2
			c0.5-0.4,0.9-0.9,1.6-1c0.2,0.3,0.4,0.4,0.8,0.4c0.6,0.5,1.3,0.9,1.9,1.4c0.5,0.3,0.4,0.7,0,1C40.9,36.5,40.5,36.9,40,37.3z"/>
		<path class="st3" d="M60.6,35.2c0.2,0,0.4,0.1,0.4,0.3c0,0.3-0.1,0.4-0.4,0.4c-0.2,0-0.4-0.1-0.4-0.3
			C60.2,35.3,60.4,35.2,60.6,35.2z"/>
	</g>
</g>
</svg>
