<?xml version="1.0" encoding="utf-8"?>
<!-- Generator: Adobe Illustrator 23.1.0, SVG Export Plug-In . SVG Version: 6.00 Build 0)  -->
<svg version="1.1" id="Layer_1" xmlns="http://www.w3.org/2000/svg" xmlns:xlink="http://www.w3.org/1999/xlink" x="0px" y="0px"
	 viewBox="0 0 107.6 114" style="enable-background:new 0 0 107.6 114;" xml:space="preserve">
<style type="text/css">
	.st0{fill:#E88D56;}
</style>
<g>
	<polygon class="st0" points="47.2,21 60.4,33.1 62.1,35.6 71.5,34 75.9,36.5 77.9,40.9 77.9,45.5 75.5,49.9 65.7,50.5 65.7,64.4 
		73.8,65.2 77.5,67.8 77.7,74.8 71.5,80.4 60.4,79.2 48.7,93.7 71.5,93 82.7,88.2 86.5,83.1 92,72.6 91.6,63.7 87,59.2 85.8,54.3 
		90.4,48.8 91.4,39.7 88.3,33.3 81.2,26.2 73.8,21.5 	"/>
	<polygon class="st0" points="14.7,19.8 14.7,36.1 30.8,34.7 41.2,44.1 43.2,48.8 41.5,65.5 35.7,74.8 18.2,79.4 16.3,84.7 
		17.4,92.2 18.8,93.7 32.2,91.2 38.5,86.9 44.4,82.3 49.7,78.5 51.6,74.8 55,68.2 56.5,55.8 56.1,49.4 52.2,39.7 47.2,34 38,24.9 
		32.2,22.6 18.3,21.1 	"/>
	<g id="QSB1VK.tif">
		<g>
			<path class="st0" d="M51.5,78c-3.1,4.6-6.9,8.1-11.6,10.9c-4.6,2.7-9.5,4.3-14.8,4.9c-0.2,0-0.4,0-0.6,0.3c-0.4,0-1,0-1.4,0
				c-0.6-0.2-1.3-0.2-1.9,0c-0.4,0-0.8,0-1.2,0c-0.2-0.9,0.5-1.3,1-1.7c4.9-4.9,9.9-9.9,14.8-14.8c2.2-2.2,4.3-4.3,6.6-6.5
				c0.4-0.4,0.6-0.7,1.1-0.9c0.8,0,1.1,0.7,1.6,1.1c1.3,1.3,2.7,2.7,4,4C49.7,76.2,50.9,77,51.5,78z"/>
			<path class="st0" d="M43.5,70.2c-0.3,0.4-0.6,0.7-0.9,1.1c-7.1,7.1-14.2,14.2-21.4,21.4c-0.4,0.4-0.9,0.9-1.2,1.5
				c-1.7,0-3.5,0-5.2,0c-0.3-2.2,0-4.6-0.1-6.8c-0.1-0.7,0.4-1.1,0.8-1.5c2.3-2.3,4.6-4.6,6.9-6.9c0.4-0.4,0.7-0.5,0.8-1.1
				c2.8-0.5,5.6-1.3,8.1-2.7c3.6-2.1,6.3-5,8.3-8.6c1,0,1.3,1,2,1.5c0.5,0.6,1.2,1.1,1.7,1.7C43.4,69.9,43.5,70,43.5,70.2z"/>
			<path class="st0" d="M70.4,94.1c-1,0-2.1,0-3.1,0c-0.4-0.3-1-0.5-1.2-1.2c0-0.7,0.4-1.2,0.8-1.6c4.1-4.1,8.2-8.4,12.4-12.3
				c2.9-2.7,5.6-5.6,8.5-8.3c0.4-0.4,0.7-0.8,1.2-1c0.4-0.1,0.6,0.2,0.9,0.4c1,1.1,2.2,2,3.1,3.2c0,0.1,0,0.2,0,0.4
				c-0.1,0.4,0.2,0.9-0.2,1.3c-0.5,0.1-1,0.5-1.3,0.9C86,81.5,80.4,87,74.9,92.5c-0.4,0.4-0.8,0.7-0.7,1.4c-0.4,0.4-1,0-1.4,0.3
				c-0.3,0-0.4,0-0.7,0C71.5,94,71,94,70.4,94.1z"/>
			<path class="st0" d="M93.1,44c0,0.2,0,0.4,0,0.4c-0.3,0.6-0.1,1.3-0.4,2.1c-1.8,1.3-3.2,3.1-4.9,4.6c-2.5,2.5-5,5-7.6,7.6
				C80,59,79.6,59.4,79,59.5c-0.1,0-0.2,0-0.4-0.1c-0.4-0.2-0.7-0.6-1.1-1c-0.3-0.4-0.7-0.6-0.9-1.1c0-0.1,0-0.2,0-0.4
				c0.4-0.6,1-1.1,1.5-1.6c4.3-4.3,8.6-8.6,13-13c0.4-0.4,0.9-1.1,1.6-1c0.1,0.1,0.2,0.2,0.2,0.3C93.1,42.5,92.8,43.3,93.1,44z"/>
			<path class="st0" d="M72.8,19.9c0.4,0.4,1.1,0.4,1.6,0.4c0.2,0.5-0.4,0.8-0.6,1.2c-4.5,4.5-8.9,9-13.4,13.4
				c-0.3,0.3-0.5,0.8-1.2,0.6c-0.6-1-1.2-1.9-1.8-2.9c0.1-0.4,0.3-0.5,0.4-0.8c4-4,8-8,12.1-12c0.2,0,0.4,0,0.4,0
				c0.6,0.2,1.3,0.2,1.9,0C72.4,19.9,72.6,19.9,72.8,19.9z"/>
			<path class="st0" d="M24.5,19.9c0,0.1,0,0.2,0,0.2c0.4,0.5-0.1,0.9-0.4,1.2c-2.7,2.7-5.4,5.4-8.1,8.1c-0.4,0.3-0.8,1.3-1.3,0
				c0-2.8,0-5.6,0-8.4c0-0.4-0.1-0.8,0.1-1.2c2.2,0,4.2,0,6.4,0c0.7,0.2,1.4,0.2,2.2,0C23.7,19.9,24.1,19.9,24.5,19.9z"/>
			<path class="st0" d="M69.9,19.9c0,0.3-0.1,0.4-0.3,0.6c-4,4-8.2,8.1-12.2,12.1c-0.6-0.9-1.3-1.7-1.9-2.6c1.9-2.2,4-4,6-6.1
				c1.3-1.3,2.7-2.8,4.1-4C67.1,19.9,68.5,19.9,69.9,19.9z"/>
			<path class="st0" d="M44.4,94.1c1.1-0.7,2.1-1.5,3.1-2.2c3.4-2.6,6.3-5.7,9-9.1c0.8,0.8,1.8,1.6,2.4,2.6c0,0.1,0,0.2,0,0.4
				c-1.4,1.7-3.1,3.1-4.7,4.8c-1.2,1.2-2.4,2.3-3.5,3.7C48.6,94.1,46.5,94.1,44.4,94.1z"/>
			<path class="st0" d="M50.7,94.1c0-0.4,0.2-0.8,0.4-1.1c2.5-2.5,5-4.9,7.6-7.5c1.3,0.4,2.1,1.4,2.8,2.6c0,0.3-0.2,0.5-0.4,0.7
				c-1.7,1.7-3.4,3.5-5.2,5.2C54.2,94.1,52.4,94.1,50.7,94.1z"/>
			<path class="st0" d="M56,94.1c0.5-1.3,1.7-2,2.6-3c0.9-1,1.9-2,2.8-3c0.4-0.2,0.6,0.2,0.9,0.4c1.3,1.5,3,2.7,4.1,4.4
				c0.4,0.4,0.6,0.8,1,1.2C63.5,94.1,59.7,94.1,56,94.1z"/>
			<path class="st0" d="M65.7,19.9c0,0.4-0.2,0.5-0.4,0.8c-3,3-6,6-9,9C56,29.8,55.9,30,55.5,30c-0.5-0.6-1-1.3-1.5-1.9
				c0.1-0.3,0.3-0.4,0.4-0.7c2.3-2.3,4.6-4.6,6.9-6.9c0.3-0.3,0.6-0.4,1-0.7C63.4,19.9,64.6,19.9,65.7,19.9z"/>
			<path class="st0" d="M62.3,19.9c-2.7,2.9-5.4,5.7-8.4,8.3c-0.6-0.6-1.2-1.3-1.8-1.9c0-0.2,0.1-0.4,0.3-0.5c2-2,3.9-4,5.8-5.8
				C59.6,19.9,61,19.9,62.3,19.9z"/>
			<path class="st0" d="M58.3,19.9c-0.4,1-1.3,1.6-2.1,2.3c-1.3,1.3-2.7,2.7-4,4c-0.8-0.8-1.6-1.5-2.4-2.3c1.3-1.3,2.7-2.7,4-4
				C55.3,19.9,56.9,19.9,58.3,19.9z"/>
			<path class="st0" d="M53.8,19.9c-1.1,1.6-2.4,3.1-4,4c-0.7-0.5-1.3-1.1-2.1-1.7c0.7-0.8,1.5-1.6,2.3-2.3
				C51.3,19.9,52.5,19.9,53.8,19.9z"/>
			<path class="st0" d="M92.6,67.9c0.4,0.5,0,1.3,0.4,1.9c0,0.1,0,0.2,0,0.3c-0.3,0.8-0.1,1.5-0.1,2.3c-0.1,0.4,0.1,0.6-0.2,1
				c-1.1-1-2.2-2-3.1-3.1c0.4-1,1.3-1.6,2.2-2.3C92.2,67.7,92.4,67.7,92.6,67.9z"/>
			<path class="st0" d="M50,19.9c-0.5,1.1-1.3,1.9-2.3,2.3c-1.1-0.8-2.2-1.6-3.3-2.3C46.2,19.9,48.1,19.9,50,19.9z"/>
			<path class="st0" d="M14.8,86.9c0,2.4,0,4.9,0,7.4c-0.4-0.2-0.2-0.6-0.2-1c0-5.1,0-10.3,0-15.4c0.1,0,0.2,0,0.3,0
				c0.4,0.4,0.4,0.9,0.4,1.3c0,2.1,0,4.1,0,6.1C15.1,85.9,15,86.3,14.8,86.9z"/>
			<path class="st0" d="M23.3,19.9c-0.7,0.4-1.4,0.4-2.2,0C21.9,19.9,22.6,19.9,23.3,19.9z"/>
			<path class="st0" d="M21.1,94.1c0.6-0.4,1.3-0.4,1.9,0C22.4,94.1,21.8,94.1,21.1,94.1z"/>
			<path class="st0" d="M70.4,94.1c0.5-0.4,1.1-0.4,1.6,0C71.5,94.1,71,94.1,70.4,94.1z"/>
			<path class="st0" d="M66.4,93c-1.5-1.3-3-2.8-4.2-4.2c-0.4-0.7,0.3-1,0.6-1.3c2.5-2.7,5.4-5.1,8-7.8c0.7-0.7,1.5-1.5,2.2-2.2
				c2.7-1.6,4-3.9,3.6-7c2-1.6,3.7-3.6,5.5-5.3c0.4-0.4,0.7-0.9,1.3-1c0.8,0.2,1.2,0.9,1.8,1.4c0.7,0.7,1.4,1.4,2.2,2.2
				c0.5,0.8,1.6,1.2,1.7,2.2c-2.9,3.1-5.8,6.1-9,8.9c-0.3,0.2-0.4,0.4-0.7,0.6c-4,4-8.1,8.1-12.1,12.1C66.9,91.9,66.5,92.3,66.4,93z
				"/>
			<path class="st0" d="M41.5,68.2c-0.6-0.5-1.3-1.1-1.9-1.7c1.8-3.8,2.4-7.7,2.2-11.8c4-4,8-8,12-12c0.4-0.4,0.6-0.7,1.3-0.5
				c1.3,3,2.3,6.1,2.7,9.4c0.3,0.7,0.1,1.3-0.4,1.8c-5.1,4.5-9.6,9.5-14.5,14.2C42.3,67.8,42.2,68.4,41.5,68.2z"/>
			<path class="st0" d="M14.8,36.1c0-2.2,0-4.2,0-6.4c0.4,0,0.6-0.3,0.9-0.5c2.7-2.7,5.5-5.5,8.2-8.2c0.3-0.3,0.6-0.5,0.6-1
				c3.2,0.4,6.4,1,9.4,2.2c0.4,0.8-0.2,1.2-0.6,1.5c-3.6,3.6-7.2,7.2-10.8,10.8c-0.5,0.5-1,1.1-1.6,1.5
				C18.9,36.1,16.8,36.1,14.8,36.1z"/>
			<path class="st0" d="M20.9,36.1c0-0.5,0.4-0.8,0.8-1.1c3.9-3.9,7.6-7.6,11.5-11.5c0.4-0.4,0.8-0.6,0.7-1.3
				c2.4,0.9,4.9,1.9,6.8,3.5c0.1,0.5-0.4,0.8-0.6,1.2C36.8,30.2,33.4,33.6,30,37c-0.4,0.4-0.7,0.9-1.3,0.6
				C26.2,36.8,23.6,36.2,20.9,36.1z"/>
			<path class="st0" d="M55,42.1c-0.5,0.3-0.9,0.6-1.3,1c-3.6,3.6-7.2,7.2-10.8,10.8c-0.4,0.4-0.6,0.8-1.2,0.8
				c-0.4-2.6-1.2-5.1-2.4-7.6c3.7-3.7,7.3-7.3,11-11c0.3-0.3,0.5-0.6,1-0.4C52.8,37.7,54,39.8,55,42.1z"/>
			<path class="st0" d="M37.2,44c-1.1-1.3-2.3-2.4-3.6-3.5c-0.2-0.5,0.3-0.8,0.5-1.1c3.2-3.2,6.5-6.6,9.8-9.8
				c0.4-0.4,0.6-0.9,1.3-0.5c1.3,1,2.5,2.2,3.5,3.5c0.4,0.5-0.1,0.9-0.4,1.2c-3.1,3.3-6.4,6.6-9.6,9.8C38.3,43.9,38,44.4,37.2,44z"
				/>
			<path class="st0" d="M45.3,29c-0.4,0-0.5,0.2-0.8,0.4c-3.5,3.5-7,7-10.6,10.6c-0.1,0.1-0.2,0.3-0.3,0.4c-1.5-1.1-3.2-2-4.9-2.9
				c0.2-0.1,0.4-0.1,0.6-0.3c3.9-3.9,7.6-7.7,11.4-11.5C42.6,26.5,44,27.8,45.3,29z"/>
			<path class="st0" d="M48.8,75.4c-1.4-1.3-2.8-2.6-4-4c0.8-1.4,2.1-2.4,3.2-3.5c2.9-2.6,5.6-5.5,8.4-8.2c0.4-0.4,0.8-1,1.5-0.9
				c-0.2,3.5-0.7,6.9-2.1,10.2c-2,2.1-4,4-6.2,6C49.6,75.3,49.3,75.6,48.8,75.4z"/>
			<path class="st0" d="M90.3,31.9c0.4,0.6,0.8,1.3,1,2.1c0.2,0.5-0.4,0.8-0.6,1.2c-5.7,5.7-11.3,11.3-17,17
				C73.3,52.5,73,53,72.3,53c-0.1,0-0.3-0.1-0.4-0.1c-1.1-0.9-2.1-2-3.1-3c-0.2-0.2-0.5-0.4-0.4-0.8c0.1-0.4,0.5-0.2,0.8-0.2
				c0.6-0.1,1.3,0.1,2-0.1c2.2-0.4,3.6-1.6,4.8-3.4c0.5-0.3,0.9-0.7,1.3-1.2c3.9-3.9,7.7-7.7,11.5-11.5
				C89.3,32.4,89.6,31.8,90.3,31.9z"/>
			<path class="st0" d="M77.5,21.1c1.1,0.4,2.2,0.6,3.1,1.4c0.4,0.4-0.1,0.7-0.3,1c-4.2,4.2-8.4,8.5-12.7,12.7c-1.5,0-3,0-4.5,0
				c-0.3-0.4,0.1-0.7,0.4-1C68.1,30.5,72.7,25.7,77.5,21.1z"/>
			<path class="st0" d="M77.5,21.1c0,0.5-0.4,0.8-0.8,1.1c-4.3,4.2-8.6,8.5-12.9,12.9c-0.4,0.4-0.8,0.5-0.8,1.1c-1,0-2,0-3,0.1
				c-0.5,0-0.8-0.2-0.9-0.7c0.3-0.2,0.5-0.4,0.7-0.5c4.7-4.8,9.4-9.4,14-14.1c0.2-0.2,0.3-0.4,0.4-0.5
				C75.5,20.4,76.5,20.7,77.5,21.1z"/>
			<path class="st0" d="M83.4,64.1c-1.9,1.9-3.9,3.8-5.8,5.7c-0.3,0.3-0.4,0.8-1,0.5c-0.6-2.5-2.2-4.1-4.6-4.9
				c1.8-1.8,3.6-3.7,5.5-5.5c0.4-0.4,0.7-0.6,1.3-0.4c0.1,0,0.2,0,0.3,0c0.7,0.4,1.3,1,1.8,1.5c0.7,0.7,1.4,1.4,2.2,2.2
				C83.1,63.4,83.6,63.6,83.4,64.1z"/>
			<path class="st0" d="M72.1,52.8c0.1,0,0.2,0,0.3,0c1,0.5,1.7,1.5,2.5,2.2c0.3,0.4,0.7,0.6,0.6,1.1c-1.5,1.9-3.3,3.4-4.9,5.1
				c-0.9,0.9-1.9,1.7-2.7,2.8c-1,1.3-2.2,1.3-3.5,1.1c-0.1-1.7,0.4-3.3,0.5-4.9c0.2-0.4,0.4-0.8,0.8-1.1c1.9-1.9,3.7-3.7,5.6-5.6
				C71.4,53.1,71.6,52.8,72.1,52.8z"/>
			<path class="st0" d="M37.2,44c0.5,0.1,0.8-0.2,1.1-0.5c3.3-3.3,6.7-6.7,10-10c0.3-0.3,0.5-0.4,0.5-0.9c0.9,0.9,1.8,2,2.4,3.1
				c-1.2,0.8-2.1,1.9-3.1,2.9c-2.6,2.6-5.1,5.1-7.7,7.7C40,46.7,39.8,47,39.2,47C38.7,46,38,45,37.2,44z"/>
			<path class="st0" d="M41.5,68.2c0.6-0.2,0.9-0.8,1.3-1.2c4.2-4.1,8.4-8.4,12.5-12.5c0.5-0.4,1.1-1,1.6-1.3
				c0.5-0.4,0.8-0.9,0.7-1.6c0.4,0.6,0.2,1.3,0.3,1.9c0.3,0.5,0,1.1,0.2,1.6c0,0.3,0,0.4,0,0.7c-3.2,3.3-6.5,6.7-10,9.9
				c-1.3,1.2-2.4,2.4-3.6,3.6c-0.4,0.4-0.6,0.9-1.3,0.5C42.6,69.3,42,68.8,41.5,68.2z"/>
			<path class="st0" d="M73,77.3c0,0.5-0.4,0.8-0.7,1.2c-3.1,3.1-6.2,6.1-9.4,9.2c-0.4,0.4-0.8,0.5-0.8,1.2
				c-0.3-0.2-0.4-0.4-0.7-0.4c-0.8-1-1.6-1.8-2.6-2.6c0-0.1,0-0.2,0-0.3c2.4-2.2,4.7-4.4,7-6.6c0.4-0.4,0.6-0.6,1.1-1
				C68.9,77.7,71,78,73,77.3z"/>
			<path class="st0" d="M67.6,36.1c0-0.5,0.4-0.8,0.8-1.1c3.8-3.8,7.6-7.6,11.4-11.4c0.4-0.4,0.8-0.5,0.8-1.1c1,0.2,1.8,0.8,2.6,1.4
				c0.3,0.4-0.1,0.7-0.4,1c-3.7,3.8-7.5,7.4-11.2,11.2c-0.1,0.1-0.3,0.2-0.4,0.1C70.1,36.1,68.8,36.1,67.6,36.1z"/>
			<path class="st0" d="M72.1,52.8c-2.3,2.5-4.8,4.9-7.3,7.4c0-0.4,0-0.6,0-1c0.1-1.4,0.1-2.8,0-4.2c-0.2-1.7-0.4-3.4-0.6-5.1
				C64,49.1,64.4,49,65,49c2.1,0,4.2-0.1,6.3-0.1c-0.8,0.4-1.7,0-2.8,0.3C69.8,50.3,70.9,51.5,72.1,52.8z"/>
			<path class="st0" d="M85.3,25.6c1,0.5,1.5,1.5,2.2,2.2c-0.1,0.4-0.4,0.6-0.7,0.9c-3.2,3.2-6.6,6.6-9.8,9.8
				c-0.3,0.3-0.5,0.8-1.2,0.6c-0.6-0.8-1.3-1.5-2.1-2.2C77.5,33.3,81.4,29.3,85.3,25.6z"/>
			<path class="st0" d="M85.3,25.6c0,0.4-0.4,0.6-0.5,0.9c-3.3,3.4-6.7,6.7-10.2,10.2c-0.3,0.3-0.4,0.5-0.9,0.5
				c-0.8-0.3-1.6-0.6-2.4-0.9c3.7-3.7,7.4-7.5,11.1-11.2c0.4-0.4,0.8-0.5,0.8-1.1C84,24.4,84.6,25,85.3,25.6z"/>
			<path class="st0" d="M90.3,31.9c-1.2,1.2-2.3,2.2-3.5,3.4c-3.2,3.1-6.4,6.4-9.6,9.5c-0.3,0.3-0.4,1-1.1,0.4
				c0.4-1.3,0.7-2.6,0.5-4c0.5-0.3,1.1-0.6,1.5-1.1c3.4-3.5,6.9-6.9,10.3-10.4c0.1-0.1,0.2-0.2,0.4-0.3C89.5,30.3,90,31,90.3,31.9z"
				/>
			<path class="st0" d="M43.2,69.8c0.4,0,0.7-0.4,1-0.6c4.3-4.2,8.5-8.5,12.9-12.6c0.3-0.3,0.5-0.7,1-0.7c0,1,0,2.1,0,3.1
				c-0.5,0.3-0.9,0.6-1.3,1c-1.7,1.7-3.4,3.5-5.1,5.1c-2.2,2.2-4.5,4.2-6.7,6.4c-0.4-0.4-1-0.8-1.4-1.2C43.4,70.1,43.3,70,43.2,69.8
				z"/>
			<path class="st0" d="M88.9,29.6c0,0.5-0.4,0.7-0.7,1.1c-3.4,3.4-6.8,6.8-10.3,10.3c-0.4,0.4-0.5,1-1.3,0.5
				c-0.3-0.7-0.5-1.4-0.7-2.2c3-3,6-5.9,9-8.9c0.9-0.8,1.6-1.8,2.6-2.5C88.1,28.3,88.5,28.9,88.9,29.6z"/>
			<path class="st0" d="M66.8,77.9c-0.5,1.3-1.6,2.1-2.6,2.9c-1.5,1.3-2.8,2.7-4.2,4c-0.4,0.4-0.6,0.7-1.2,0.6
				c-0.9-0.8-1.9-1.4-2.3-2.6c0.9-1.4,1.8-2.9,2.7-4.3c0.3-0.4,0.5-0.7,1.1-0.7C62.4,77.9,64.7,77.9,66.8,77.9z"/>
			<path class="st0" d="M48.8,75.4c1.2-0.6,2-1.6,2.9-2.5c1.3-1.3,2.7-2.8,4.2-3.9c-1,3.2-2.5,6.2-4.5,9
				C50.5,77.3,49.7,76.4,48.8,75.4z"/>
			<path class="st0" d="M64.2,65.1c1.4,0.2,2.5-0.2,3.4-1.3c0.7-1,1.8-1.8,2.7-2.6c0.4,0.5-0.2,0.9-0.4,1.2
				c-0.7,0.8-1.5,1.4-2.2,2.3c1,0.4,1.3,0.4,1.9-0.4c2-2.1,4-4,6-6c0.3-0.3,0.5-0.8,1.2-0.6c0.4,0.3,0.7,0.5,1,1
				c0.1,0.6-0.4,0.9-0.7,1.3c-1.8,1.9-3.8,3.6-5.4,5.6c-2.1,0-4.1,0-6.2,0C64.9,65.2,64.6,65.3,64.2,65.1z"/>
			<path class="st0" d="M71.6,65.3c-0.4-0.5,0.3-0.7,0.5-1c1.9-2,3.8-3.9,5.7-5.8c0.4,0.3,0.7,0.5,1,1c-1.7,0.9-2.7,2.6-4.1,3.8
				c-0.8,0.7-1.3,1.8-2.5,2.2C71.9,65.3,71.7,65.3,71.6,65.3z"/>
			<path class="st0" d="M64.8,54.9c0.3,1.4,0.3,2.8,0,4.2C64.8,57.7,64.8,56.3,64.8,54.9z"/>
			<path class="st0" d="M58,55.1c-0.4-0.5-0.1-1.1-0.2-1.6C58.1,53.9,58,54.6,58,55.1z"/>
			<path class="st0" d="M14.8,86.9c0-3,0-5.9,0-9c2.8,0,5.6-0.1,8.5-0.1c0.9,0.3,0.1,0.6-0.1,0.7c-1.8,1.9-3.7,3.8-5.6,5.6
				C16.6,85.1,15.8,86,14.8,86.9z"/>
			<path class="st0" d="M92.6,75c-1.2,8.8-8.1,16.6-17.6,18.6c-0.3,0.1-0.5,0-0.8,0.1c-0.2-0.1-0.5-0.1-0.4-0.4
				c0.2-0.3,0.4-0.4,0.6-0.7c5.7-5.7,11.4-11.4,17.1-17.1C91.8,75.3,92,74.5,92.6,75z"/>
			<path class="st0" d="M89.1,69.8c-0.6-0.7-1.3-1.4-1.9-2.2c1.4-1.3,2.6-3,4.3-4c0.6,1.3,1,2.8,1.2,4.3c-1.3,0.4-1.7,1.7-2.8,2.3
				C89.6,70.1,89.3,70,89.1,69.8z"/>
			<path class="st0" d="M74.7,55.1c-0.9-0.7-1.7-1.4-2.3-2.3c0.4,0,0.6-0.3,0.9-0.5c5.8-5.9,11.7-11.8,17.6-17.7
				c0.2-0.2,0.3-0.4,0.4-0.5c0.6,1.2,1,2.5,1.2,3.9c-5.6,5.5-11.2,11-16.8,16.7c-0.2,0.2-0.4,0.4-0.5,0.4
				C74.9,55.1,74.8,55.2,74.7,55.1z"/>
			<path class="st0" d="M74.7,55.1c0.4-0.3,0.6-0.5,1-0.8C80.9,49.1,86,44,91.2,38.7c0.4-0.4,0.6-0.8,1.2-0.9
				c0.4,0.8,0.4,1.7,0.4,2.6c0,0.4,0,0.8-0.1,1.2c-0.5,0.2-1,0.6-1.4,1.1c-4.6,4.6-9.2,9.2-13.7,13.7c-0.3,0.3-0.6,0.5-1,0.9
				c-0.8,0-1.2-0.5-1.4-1.2C75.1,55.7,74.9,55.4,74.7,55.1z"/>
			<path class="st0" d="M80.6,61c-0.6-0.4-1.2-1-1.6-1.6c0.5,0,0.8-0.4,1.2-0.8c3.8-3.8,7.6-7.6,11.2-11.2c0.4-0.4,0.6-0.8,1.3-0.7
				c-0.3,1.6-0.7,3.2-1.4,4.8c-3,2.7-5.8,5.7-8.6,8.5c-0.3,0.3-0.6,0.6-0.9,0.9C81.3,61,81,61.3,80.6,61z"/>
			<path class="st0" d="M75.4,56c0.4,0.4,0.9,0.8,1.4,1.2c0,0.1,0,0.2,0,0.3c-2.4,2.2-4.8,4.5-6.9,6.9c-0.8,0.9-1.6,0.6-2.4,0.6
				c-0.5,0-0.2-0.4,0-0.6c0.7-0.7,1.5-1.5,2.2-2.2c0.3-0.3,0.7-0.5,0.7-1.1C72,59.2,73.6,57.6,75.4,56z"/>
			<path class="st0" d="M80.6,61c0.5,0,0.8-0.4,1.2-0.8c2.7-2.7,5.5-5.5,8.2-8.2c0.4-0.4,0.6-0.8,1.3-0.7c-0.7,1.9-1.7,3.6-3.1,5.1
				c-0.4,0.5-0.4,0.8,0.1,1.2c0.3,0.4,0,0.7-0.3,1.1c-1.3,1.4-2.8,2.8-4.1,4.1c-0.3,0.3-0.5,0.6-1,0.3C81.9,62.6,81.2,61.9,80.6,61z
				"/>
			<path class="st0" d="M82.7,63.1c0.4,0,0.7-0.4,1-0.6c1.3-1.3,2.6-2.6,4-4c0.3-0.3,0.5-0.5,0.6-1c0.9,1,1.6,2.2,2.2,3.3
				c-1.3,1.4-2.8,2.8-4.1,4.1c-0.3,0.3-0.6,0.7-1.1,0.4c-0.5-0.4-1.1-1-1.6-1.4C83.2,63.7,82.9,63.5,82.7,63.1z"/>
			<path class="st0" d="M85.1,65.5c1.3-0.5,2.1-1.9,3.1-2.8c0.7-0.5,1.2-1.5,2.2-1.7c0.5,0.8,0.9,1.6,1.2,2.6
				c-1.3,1.4-2.5,3.1-4.3,4C86.4,67.1,85.7,66.4,85.1,65.5z"/>
		</g>
	</g>
</g>
</svg>
