<?xml version="1.0" encoding="utf-8"?>
<!-- Generator: Adobe Illustrator 24.1.0, SVG Export Plug-In . SVG Version: 6.00 Build 0)  -->
<svg version="1.1" id="Layer_1" xmlns="http://www.w3.org/2000/svg" xmlns:xlink="http://www.w3.org/1999/xlink" x="0px" y="0px"
	 viewBox="0 0 200 200" style="enable-background:new 0 0 200 200;" xml:space="preserve">
<style type="text/css">
	.st0{fill:#414F54;}
	.st1{fill:#4EB6E5;}
	.st2{fill:#375563;}
	.st3{fill:#FFFFFF;}
	.st4{fill:#328AB4;}
</style>
<g id="ttHKhM.tif">
	<g>
		<path class="st0" d="M167.7,111.5c7.3,0.5,13.9-0.3,19.4-5.4c1.4,6.4,7.3,5.8,11.7,7.7c-0.8,0.3-1.6,0.2-2.4,0.2
			c-9.6,0-19.1,0-28.7,0c-1.2,0-1.9,0.3-2.5,1.3c-12.4,19.8-30.3,32.1-52.8,37.9c-12.8,3.3-25.8,4.5-39,3
			c-17.1-2-31.2-9.4-40.9-24.1c-3.2-4.9-5.3-10.4-6.3-16.2c-0.3-1.6-0.9-1.9-2.3-1.8c-7.3,0.1-14.6,0-22.4,0
			c4.6-2.1,10.6-1.4,11.9-7.9c3,2.9,6.5,4.4,10.5,5.2c1.2,0.2,1.6,0,1.5-1.3c-0.2-3.6-0.2-7.2,0.2-10.9c0.1-1.3,0.5-1.8,1.9-1.7
			c3.8,0.1,7.7,0,11.5,0.1c1.6,0,2.1-0.5,2-2c-0.1-4.5,0-9.1,0-13.6c0-3.1-0.3-2.6,2.7-2.6c4.3,0,8.5-0.1,12.8,0
			c1.8,0.1,2.5-0.3,2.4-2.3c-0.2-4.6,0-9.2-0.1-13.8c0-1.5,0.5-1.9,1.9-1.9c10.5,0.1,21.1,0,31.6,0.1c2.1,0,2.5-0.6,2.5-2.6
			c-0.1-4.5,0-9.1-0.1-13.6c0-1.3,0.3-1.8,1.7-1.8c6,0.1,12,0.1,18,0c1.6,0,1.8,0.6,1.8,1.9c0,10.5,0.1,20.9-0.1,31.4
			c0,2.2,0.7,2.6,2.7,2.6c4.5-0.1,8.9,0,13.4-0.1c1.4,0,1.9,0.3,1.9,1.8c-0.1,4.9,0,9.8,0,14.6c0,0.8-0.3,1.7,1.1,1.7
			c7.5,0,14.9,0.4,22-2.7c0.1,0,0.1,0,0.2-0.1c3.8-1.5,3.7-1.4,2.2-5.1c-3.8-9.3-3.6-18.3,2.8-26.6c0.9-1.2,1.5-1.1,2.6-0.2
			c5.8,4.7,10.4,10,11.9,17.6c0.3,1.3,1.1,1,1.9,0.8c5.2-1.2,10.4-1,15.5,0.7c2.1,0.7,5.1,1.5,5.6,3.2c0.5,1.9-1.6,4.1-3,5.9
			c-5.3,6.8-12.8,8.9-20.9,9c-2.6,0-3.4,1-4.3,3.1C170.6,105.8,169.2,108.5,167.7,111.5z M156.3,123c1.1,0,2.2,0,1.3-1.6
			c0.1-0.8,0.6-1.3,1.3-1.7c0.1-0.2,0.3-0.3,0.4-0.5c0.2-1.1,1-1.7,1.7-2.5c2-0.9,2.2-1.7,0.8-2.9c-0.4,0-0.8,0-1.2-0.1
			c-0.1-0.2-0.3-0.2-0.4,0c-5,0-10.1,0.1-15.1,0.1c-4.7,0-9.5-0.1-14.2-0.1c-0.1-1.3,0.8-1.2,1.7-1.2c3.8,0,7.6,0.1,11.4,0
			c1.7,0,3.5-0.1,4.9-1.2l0.1-0.1h0.2c2-0.1,4,0.1,5.1-2l0,0c1.1,0,2.3,0.2,3.4-0.4c0.3,0.1,0.6,0.3,0.8,0.4
			c0.2,1.1,1.1,0.8,1.8,0.8c0.1,0,0.2,0,0.3,0.1c0.3,1.3,1.5,0.8,2.2,1c2.5,0.8,2.6,0.7,2.8-1.9l0,0c0.9-0.1,0.8-0.7,0.8-1.4
			c0-0.1,0-0.2,0.1-0.3c1.4-0.6,1.8-1.7,1.6-3.1c0-0.1,0-0.2,0.1-0.3c1.8-1.4,2.4-3.5,3.2-5.4c0.5-1.2,1.1-1.3,2.1-1.3
			c3.1-0.2,6.2,0.3,9.3-0.7c1.9-0.6,3.9-1.2,5.9-1.6c2.4-0.4,5.3-3.2,5.8-5.7l0,0c1.3-0.5,2.2-1.3,1.8-2.9c0-0.3,0-0.6-0.1-0.9
			c-0.1-0.1-0.3-0.3-0.4-0.4l0,0c0-0.6-0.3-1-0.9-1.2c-5.3-1.7-10.6-2.3-16-0.8c-1.2,0.3-2.8,1.9-3.8,0.4c-0.7-1-0.1-2.8-0.1-4.3
			c0-0.1,0-0.1,0.1-0.2c0.5-1.7-0.4-2.4-1.9-2.6l0,0c0.3-1.7-0.5-2.7-1.9-3.4c-0.1-0.1-0.1-0.2-0.1-0.3c-0.2-0.2-0.3-0.4-0.5-0.5
			c-1.6-1.9-3.2-3.8-5-5.5c-0.6-0.5-1.1-1.1-2-0.8c-1.4-0.4-0.7,0.7-0.9,1.2l0,0c-1.9,1.2-2.9,3.5-3,5.2c-0.1,3.3-0.1,6.6,0.1,9.9
			c0.1,1.4,0.4,2.8,1.6,3.8l0,0c0.4,2.1-0.1,4.8,3,5.4c0.1,0.1,0.3,0.3,0.4,0.4c0.4,1.2-1.7,1.3-1.2,2.6l0,0c-0.4,0-0.7,0.1-0.8,0.5
			l0,0c-2.2-0.3-3.6,1.6-5.5,2.1c-0.7,0.2-1.9,0-2.1,1.2c-0.2,0-0.4,0-0.6,0.1c-3.5-0.3-6.9,1.1-10.4,1.1c-9.7,0.1-19.4,0-29,0
			c-0.5,0-1.3,0.1-1.2-0.7c0-0.8,0.7-1,1.4-0.9c4.7,0.8,9.4,0.2,14.2,0.3c2.6,0.1,3.2-0.6,2.8-3.1c-0.1-0.5,0-1.1-0.1-1.7
			c-0.2-3.2,0.4-6.5,0-9.7c-0.1-0.7,0.3-1.6-1-1.7c-0.1,0-0.2,0-0.3-0.1c-0.5-0.5-1.1-0.4-1.7-0.4c-3.9,0-7.7,0-11.6,0
			c-0.6,0-1.3-0.1-1.7,0.4c-0.1,0.3-0.1,0.6-0.2,0.8c-1.6,0.5-1.6,0.5-2.4-0.8c-0.1,0-0.2,0-0.3-0.1c-0.7-0.6-1.5-0.3-2.2-0.3
			c-3.1,0-6.1,0-9.2,0c-0.4,0-1.2,0.3-1.3-0.8c3.9,0,7.7,0,11.5,0c1.5,0,2.1-0.6,2.1-2.1c-0.1-4.2,0-8.5,0-12.7
			c0-0.6,0.1-1.1-0.4-1.5l0,0c0-0.9,0-1.7,0-2.6l0,0c0.7-0.6,0.5-1.4,0.5-2.1c0-3.2,0.1-6.3,0-9.5c0-1.1,0.4-2.3-0.3-3.4
			c0-0.1-0.1-0.3-0.1-0.4c-0.1-0.9-0.7-0.9-1.4-0.9c-4.4,0-8.8,0-13.2,0c-1.4,0-1.8,0.7-1.8,2c0,4.2,0,8.5,0,12.7
			c0,0.7-0.2,1.5,0.9,1.6l0,0c-0.1,0.9-0.2,2.7-1.3,1.9c-1.8-1.2-3.1-0.7-4.8-0.2c-0.7,0.2-1.6,0.3-2.2-0.2c-1.2-1-2.6-0.6-3.5-0.3
			c-1.7,0.6-3.4,0.6-5.1,0.4c-1-0.1-1.1,0.3-1.1,1c-0.5,0.5-0.4,1.2-0.4,1.8c0,4,0,8,0,12c0,0.6-0.1,1.3,0.4,1.8
			c0.2,1.4,1.5-0.1,1.9,0.8c-0.1,0.8-1.1,0.7-1.4,1.2c-0.1,0-0.2,0.1-0.4,0.1c-0.8,0.3-0.1,1.5-0.9,1.8c-0.6-0.5-0.3-1.7-1.3-1.8
			c-0.1,0-0.2,0-0.3-0.1c-0.4-0.4-0.8-0.4-1.3-0.4c-4.1,0-8.3,0-12.4,0c-0.5,0-1,0-1.3,0.4l0,0c-0.9,0.1-0.8,0.8-0.8,1.4
			c0,4.5,0,8.9,0,13.4c0,1.2,0.6,1.6,1.7,1.5c1.7,0,3.3,0,5,0c2.4,0,4.7,0,7.1,0c0.5,0,1.1,0,1.1,0.6c0,0.7-0.6,0.6-1.1,0.6
			c-1,0-2,0-2.9,0c-4.3,0-8.7,0-13.2,0c0.2-1,1.1-1.3,1.1-2c0-5.1,0.2-10.2-0.2-15.2c0-0.1-0.2-0.2-0.3-0.3l0,0
			c-0.6-0.7-1.4-0.4-2.1-0.4c-3.6,0-7.2,0-10.8,0c-0.7,0-1.5-0.2-2.2,0.4c-0.1,0-0.3,0-0.4,0c-0.5,0-1.2-0.1-1.1,0.6
			c0.5,4.7,0,9.3,0.2,14c0.1,1.1,0.7,2.1,2,1.9c3.1-0.4,6.1-0.1,9.2-0.2c0.6,0,1.4-0.3,1.9,0.4c-0.3,0.7-1,0.8-1.6,0.8
			c-3.4-0.3-6.9,0-10.3,0c-4.9,0-9.7,0-14.6,0c-1.3,0-2,0.3-2.3,1.8c-0.5,2.9-0.4,5.8-0.1,8.7c0.2,2.3,1.9,3.2,4.3,2.3
			c1.2-0.5,2.5-0.4,3.6-0.7c2.2-0.6,4.9-0.3,6.5-2.4c0.1-0.1,0.2-0.1,0.3-0.1c1.2,0.1,2.4,0.3,3.6,0.7c0.9,0.3,1.7,1.7,2.9,0.6
			c0.3,0.1,0.5,0.1,0.8,0.2c0.2,0.8,1,0.9,1.5,1.3c0.6,0.5,1.5,0.8,1.4,1.9c-5.2,0.1-10.3,0.1-15.5,0.2c-2,0-3.9-0.1-5.9-0.1
			c-0.4-0.5-0.8-0.5-1.3,0c-0.1,0-0.3,0-0.4,0c-0.5,0-1.3,0.1-1.1,0.5c0.7,1.8,0,4,1.9,5.3c0,0.3,0.1,0.5,0.1,0.8
			c-0.3,1.6,0.4,3,0.9,4.4c0.2,0.7,0.6,1.4,1.6,1.5c0,0.2,0.1,0.5,0.1,0.7c-0.2,3.1,1.8,4.9,4.2,6.4l0,0c0,0.4,0.2,0.8,0.6,0.8
			c2,0,4.1,0.6,6.1-0.3c1.7,0,3.3,0,5,0c3.1,0.8,6.3,0.3,9.5,0.3c0.4,0,0.5-0.4,0.5-0.8h0.1h0.1c0.6,0,1.3,0.2,1.8-0.3
			c0.3,0,0.5,0,0.8-0.1c1.2,0.8,2.2,0.6,3-0.7c0.3,0,0.6,0,0.8-0.1c0.5,0.5,1.2,0.5,1.7,0.3c0.9-0.4,1.9-1.3,2.6-0.4
			c0.8,1.2-1.4,1-1.4,2.1c-9.4,2.4-19,2.5-29.1,2.2c6.8,6.8,14.1,11.6,22.7,14.3c8.4,2.6,17,3.1,25.6,2.9c1.6,0.5,3.2,1,4.7-0.3
			c0.3,0,0.6,0,0.8-0.1c1.9,0.7,3.9,0.6,5.7,0.2c5.4-0.9,10.7-2,16-3.4c1.4-0.4,3.2-0.4,4.2-2c0.2,0,0.5,0,0.7-0.1
			c3.8-0.8,7.4-2.2,10.8-4.2c1.1-0.7,2.8-0.7,3.2-2.4c0.1,0,0.3-0.1,0.4-0.1c0.9,0,1.6-0.2,1.7-1.2c0.1-0.1,0.2-0.1,0.3-0.1
			c2.7-0.8,5.2-2.1,6.8-4.6c0.1-0.1,0.3-0.3,0.4-0.4c2.5,0.3,3.1-1.8,4.2-3.4l0,0c0.1-0.1,0.3-0.3,0.4-0.4c1.1-1.1,2.3-2.2,3.4-3.3
			c1.1,0,1.7-0.5,1.6-1.7c0.3-0.6,0.7-1,1.3-1.3C155.4,124.9,156.2,124.3,156.3,123L156.3,123z M62.2,79.9L62.2,79.9
			c0.2,1.1,1.1,0.8,1.8,0.8c3.8,0,7.7,0,11.5,0c2.4,0,2.9-0.5,3-2.9c0-4-0.1-8,0-11.9c0.1-2.1-1-2.7-2.8-2.7c-4,0-8,0-12.1,0
			c-1.8,0-2.8,0.9-2.8,2.7c0,3.8,0,7.7,0,11.5C61,78.4,60.9,79.5,62.2,79.9z"/>
		<path class="st1" d="M59.1,133.5L59.1,133.5h-0.2c-0.6,0-1.1-0.1-1.7-0.1c-0.1,0-0.3,0-0.4,0c-0.3,0-0.6,0-0.9,0
			c-0.1,0-0.3,0-0.4,0.1c-1.7-0.1-3.3,0.6-5,0.3c-0.3-1-1.4-0.6-2-1.2c-3.6-3.6-7.5-7-9.2-12c-0.7-2.2-2.6-4-2.1-6.6
			c5.2-0.1,10.3-0.1,15.5-0.2c0.4,0,0.9,0,1.3,0c16,0,32.1,0,48.1,0c0.6,0,1.1,0,1.7,0c0.4,0,0.8,0,1.2,0c0.3,0,0.6,0,0.9,0
			c6,0,12,0,18,0c0.6,0,1.1,0,1.7,0c0.4,0,0.8,0,1.2,0c0.8,0,1.7,0,2.5,0c0.3,0,0.5,0,0.8,0s0.6,0,0.9,0c4.7,0,9.5,0.1,14.2,0.1
			c0.1,1.1-0.5,2-1.4,2.4c-2.9,1.3-5.2,3.6-7.9,5.3c-1.4,0.9-3.1,1.1-4.3,2.3c-2.7,2.6-6.2,4-9.4,5.6c-3.1,1.5-6.3,2.9-9.6,4.2
			c-3.9,1.6-7.8,3-11.8,4.2c-5.2,1.6-10.5,2.5-15.8,3.1c-4.2,0.5-8.5,1.3-12.7-0.3c-1.5-1.7-2.6-3.7-3.3-5.9c0.3-0.7,1-0.9,1.6-1.2
			s1.1-0.7,0.8-1.4c-0.3-0.8-0.9-1.3-1.8-1c-1.3,0.4-2.8,0.3-3.9,1.2c-0.3,0-0.6,0-0.8,0.1c-1,0.3-2.1,0.1-3,0.7
			c-0.3,0-0.5,0-0.8,0.1C60.3,133.1,59.6,133,59.1,133.5z M76.6,122.7c-2.5,0-4.4,1.8-4.4,4.3c0,2.4,1.8,4.3,4.1,4.3
			c2.4,0.1,4.4-1.9,4.4-4.3C80.8,124.7,78.9,122.8,76.6,122.7z"/>
		<path class="st1" d="M42.3,109.2c-0.1,0-0.2,0-0.3,0.1c-1.7,0.3-3.2,1.3-4.9,1.3c-1.4-0.3-1.8-1.3-1.8-2.6c0.1-2.5,0-5,0-7.5
			c0.7,0,1.4-0.1,2.1-0.1c32.2,0,64.4,0,96.7,0c3.7,0,7.4,0.1,11.1-0.1c3.2-0.2,6.4-0.3,9.3-1.9c0.2,0,0.4,0,0.6-0.1
			c2.7-0.6,5.4-1.5,7.6-3.3l0,0c0.4,0,0.7-0.1,0.8-0.5l0,0c0.6-0.8,3.6-0.4,1.2-2.6c-0.1-0.1-0.3-0.3-0.4-0.4c-1-1.8-2-3.6-3-5.4
			l0,0c-1.9-6.4-1.4-12.7,1.3-18.9l0,0c0.5-0.3,0.8-0.7,0.9-1.2c0.9-0.3,1.4,0.3,2,0.8c1.9,1.7,3.4,3.5,5,5.5
			c0.2,0.2,0.3,0.4,0.5,0.5c0,0.1,0,0.2,0.1,0.3c0.5,1.2,1.1,2.4,1.9,3.4l0,0c0.8,2.8,1.3,5.6,1.2,8.5c0.2,1.4-0.6,2.4-1.5,3.4
			c-0.5,0.5-1,1-1.4,1.5c-4.8,6-10.4,11.3-16,16.6c-1.2,1.1-3.1,1.6-3.5,3.5c-0.9,0.4-1.8,0.8-2.6,1.2H149l-0.1,0.1
			c-6.3,0.9-12.7,1.1-19,0c-3.9-0.7-7.9-1.2-11.1-3.7c-1.5-1.2-2.1-1.1-3,0.3l0,0c-0.2,0.1-0.3,0.3-0.5,0.4l0,0
			c-0.4,0-0.6,0.2-0.8,0.5c-0.3,0.1-0.5,0.3-0.8,0.4c-0.6,0.1-1.1,0.3-1.4,0.8c-0.1,0-0.2,0-0.2,0.1c-1.5,0.4-3.1,0.9-4.6,1.2
			c-5,1.1-10.1,0.7-15.1,0c-0.2,0-0.4,0-0.6,0c-0.8-0.7-1.8-0.9-2.8-1.1h-0.1c-1-0.8-2.1-1.3-3.3-1.7l0,0c-0.1-0.1-0.3-0.2-0.4-0.4
			c-0.1-0.1-0.2-0.1-0.3-0.1c-0.9-1.1-1.8-2.4-2.8-0.1l0,0c-0.4,0-0.6,0.2-0.8,0.5l0,0c-0.4,0.2-0.9,0.5-1.3,0.7
			c-0.2,0.1-0.5,0.2-0.7,0.3c-9.8,3-19.7,3.7-29.7,1.3c-0.3-0.1-0.5-0.1-0.8-0.2c-0.8-0.5-1.8-0.8-2.4-1.5
			C44.9,107.3,43.6,107.9,42.3,109.2z"/>
		<path class="st1" d="M72.1,140.7c4.2,1.6,8.5,0.8,12.7,0.3c5.3-0.6,10.7-1.5,15.8-3.1c4-1.2,7.9-2.7,11.8-4.2
			c3.2-1.3,6.5-2.7,9.6-4.2c3.2-1.5,6.7-3,9.4-5.6c1.2-1.1,2.9-1.4,4.3-2.3c2.7-1.7,5-3.9,7.9-5.3c0.9-0.4,1.4-1.3,1.4-2.4
			c5,0,10.1-0.1,15.1-0.1c0.1,0,0.3,0,0.4,0c0.4,0,0.8,0,1.2,0.1c0.2,1.1-0.7,1.9-0.8,2.9c-0.7,0.7-1.5,1.4-1.7,2.5
			c-0.1,0.2-0.3,0.3-0.4,0.5c-0.7,0.4-1.2,0.8-1.3,1.7c-0.6,0.4-1.2,0.8-1.3,1.6l0,0c-1,0.4-1.8,1-2,2.1c-0.6,0.3-1,0.7-1.3,1.3
			c-0.7,0.4-1.3,0.9-1.6,1.7c-1.1,1.1-2.3,2.2-3.4,3.3c-0.1,0.1-0.3,0.3-0.4,0.4l0,0c-1.7,0.8-3.1,1.8-4.2,3.4
			c-0.1,0.1-0.3,0.3-0.4,0.4c-2.5,1.2-4.7,2.7-6.8,4.6c-0.1,0-0.2,0.1-0.3,0.1c-0.8,0-1.3,0.5-1.7,1.2c-0.1,0-0.3,0-0.4,0.1
			c-3.3,1.5-6.5,2.9-9.8,4.4c-1.4,0.7-3.1,0.8-4.2,2.1c-0.2,0-0.5,0-0.7,0.1c-4.1,0.7-8,2.2-12,2.9c-4.6,0.9-9.2,1.7-13.9,2.1
			c-0.3,0-0.6,0-0.8,0.1c-1.5,0-3,0-4.6,0c-2.4-0.7-4.4-2.1-6.4-3.5C77.7,147.4,74.4,144.6,72.1,140.7z"/>
		<path class="st2" d="M37.1,110.6c1.8,0,3.2-1.1,4.9-1.3c-1.7,2.1-4.3,1.9-6.5,2.4c-1.2,0.3-2.4,0.2-3.6,0.7
			c-2.4,0.9-4.1,0.1-4.3-2.3c-0.3-2.9-0.4-5.8,0.1-8.7c0.3-1.4,1-1.8,2.3-1.8c4.9,0,9.7,0,14.6,0c3.4,0,6.9-0.3,10.3,0
			c0.6,0.1,1.2-0.1,1.6-0.8c-0.5-0.7-1.3-0.4-1.9-0.4c-3.1,0.1-6.1-0.2-9.2,0.2c-1.3,0.2-2-0.8-2-1.9c-0.2-4.7,0.2-9.3-0.2-14
			c-0.1-0.7,0.6-0.6,1.1-0.6c0,4.6,0,9.2-0.1,13.8c0,1.4,0.5,1.8,1.8,1.8c4-0.1,7.9-0.1,11.9,0c1.3,0,1.9-0.4,1.8-1.8
			c-0.1-4.6,0-9.2-0.1-13.8c0.1,0.1,0.3,0.2,0.3,0.3c0.4,5.1,0.1,10.2,0.2,15.2c0,0.8-0.9,1-1.1,2c4.5,0,8.9,0,13.2,0c1,0,2,0,2.9,0
			c0.5,0,1.1,0,1.1-0.6c0-0.7-0.6-0.6-1.1-0.6c-2.4,0-4.7,0-7.1,0c-1.7,0-3.3,0-5,0c-1.1,0-1.7-0.3-1.7-1.5c0-4.5,0-8.9,0-13.4
			c0-0.6,0-1.3,0.8-1.4c0,4.7,0,9.3-0.1,14c0,1.2,0.4,1.6,1.6,1.6c4.1,0,8.2-0.1,12.3,0c1.3,0,1.7-0.4,1.7-1.7
			c-0.1-4.6-0.1-9.2-0.1-13.8c1.1,0.1,0.7,1.3,1.3,1.8c0.8-0.4,0.1-1.5,0.9-1.8c0,4.6,0,9.2-0.1,13.8c0,1.4,0.5,1.8,1.8,1.8
			c3.9-0.1,7.8-0.1,11.7,0c1.5,0,2.1-0.4,2.1-2c-0.1-4.5,0-9-0.1-13.6c1.1,0.3,0.8,1.2,0.8,1.9c0,3.5,0,7,0,10.5
			c0,0.5-0.3,1.2,0.8,1.8c0-10.3,0-20.4,0-31c-1.1,1-0.8,1.7-0.8,2.3c0,3.3,0,6.7,0,10c0,0.7,0.3,1.6-0.7,1.9c0-4.5-0.1-9-0.1-13.5
			c0-0.8,0.2-1.8-1.1-1.7c-4.8,0.1-9.6,0.2-14.4,0.2h-0.1c0-0.7,0.1-1.1,1.1-1c1.7,0.3,3.3,0.3,5.1-0.4c0.9-0.3,2.4-0.7,3.5,0.3
			c0.6,0.5,1.5,0.4,2.2,0.2c1.7-0.5,3-1,4.8,0.2c1.1,0.8,1.2-1,1.3-1.9c5.1,0,10.3,0,15.4,0c0,0.9,0,1.7,0,2.6
			c-4.6,0-9.2,0-13.8-0.1c-1.4,0-1.8,0.5-1.8,1.9c0.1,3.9,0.1,7.8,0,11.7c0,1.6,0.7,2,2.1,2c3.8-0.1,7.7-0.1,11.5,0
			c1.6,0,2-0.7,2-2.1c-0.1-4.5,0-8.9,0-13.4c0.5,0.4,0.4,1,0.4,1.5c0,4.2,0,8.5,0,12.7c0,1.5-0.6,2.1-2.1,2.1c-3.8-0.1-7.6,0-11.5,0
			c0.2,1.1,0.9,0.8,1.3,0.8c3.1,0,6.1,0,9.2,0c0.7,0,1.5-0.2,2.2,0.3c-4.4,0-8.9,0.1-13.3,0.1c-1.3,0-1.8,0.4-1.8,1.8
			c0.1,4,0.1,8.1,0,12.1c0,1.3,0.4,1.7,1.7,1.7c4.1-0.1,8.2-0.1,12.3,0c1.2,0,1.6-0.3,1.6-1.5c-0.1-4.7-0.1-9.3-0.1-14
			c0.8,1.3,0.8,1.3,2.4,0.8c0,4.2,0.1,8.5,0.1,12.7c0,1.4,0.3,2,1.8,2c3.9-0.1,7.8-0.1,11.7,0c1.4,0,2.1-0.4,2-1.9
			c-0.1-4.5-0.1-9.1-0.1-13.6c1.2,0.1,0.9,1,1,1.7c0.4,3.2-0.2,6.5,0,9.7c0,0.6,0,1.1,0.1,1.7c0.4,2.5-0.2,3.2-2.8,3.1
			c-4.7-0.1-9.5,0.4-14.2-0.3c-0.7-0.1-1.3,0.1-1.4,0.9c0,0.8,0.7,0.7,1.2,0.7c9.7,0,19.4,0,29,0c3.5,0,6.9-1.4,10.4-1.1
			c-2.9,1.5-6.1,1.7-9.3,1.9c-3.7,0.2-7.4,0.1-11.1,0.1c-32.2,0-64.4,0-96.7,0c-0.7,0-1.4,0-2.1,0.1c-1.7,0-3.5-0.1-5.2-0.1
			c-0.7,0-1.4-0.1-1.6,0.9c-0.4,2.9-0.6,5.8-0.1,8.7c0.2,0.9,0.4,1.4,1.4,1.4C32.4,111.4,34.8,111.5,37.1,110.6z M99.3,99.6
			c0.8,0,1.4,0,2.1,0c0.5,0,1.3,0,1.2-0.8c-0.1-0.6-0.8-0.4-1.2-0.4c-1.5-0.3-3.2,0.6-4.5-0.9c-0.5-0.5-0.9,0.2-1.1,0.6
			c-0.4,0.5,0.2,0.6,0.5,0.9C97.1,99.9,98.3,99.6,99.3,99.6z M98.9,62.8c3.6,0.3,7.1,0.9,10.7,0C106.1,62.2,102.5,62.4,98.9,62.8z
			 M114.3,86.2c-0.1,0-0.3,0-0.4,0c0,3.3,0,6.5,0,9.8c0.1,0,0.3,0,0.4,0C114.3,92.7,114.3,89.4,114.3,86.2z M78.7,86.6
			c0,3.1,0,6.2,0,9.4C79.4,94.5,79.5,88.8,78.7,86.6z M107.3,98.4c0,0.2,0,0.4-0.1,0.6c1.2,0.9,2.6,0.6,3.9,0.5
			c0.3,0,0.6-0.3,0.6-0.7c0-0.4-0.4-0.4-0.6-0.4C109.9,98.4,108.6,98.4,107.3,98.4z"/>
		<path class="st3" d="M72.1,140.7c2.3,3.9,5.7,6.7,9.3,9.1c2,1.4,4,2.8,6.4,3.5c0,0.1-0.1,0.2-0.1,0.3c-8.7,0.2-17.3-0.3-25.6-2.9
			c-8.6-2.7-16-7.5-22.7-14.3c10.1,0.3,19.7,0.2,29.1-2.2c0.1,0.2,0.2,0.4,0.3,0.6C69.5,137,70.5,139,72.1,140.7z"/>
		<path class="st1" d="M151.8,110.1c0.4-1.9,2.3-2.4,3.5-3.5c5.6-5.3,11.2-10.5,16-16.6c0.4-0.5,0.9-1,1.4-1.5
			c0.9-0.9,1.7-2,1.5-3.4c0.7,0.4,1.3,0.1,2-0.1c3.1-1.2,6.4-1.8,9.8-1.7c3.4,0,6.6,1,9.7,2.1l0,0c0.1,0.1,0.3,0.3,0.4,0.4
			c0,0.3,0,0.6,0.1,0.9c-0.7,0.9-1.4,1.8-1.8,2.9l0,0c-0.7,0.1-1,0.6-1.5,1.1c-1.7,1.8-3.7,3.1-6,4.1c-4.5,2-9.3,2.2-14.1,2
			c-1.1-0.1-1.8,0.2-2.3,1.3c-0.9,2.1-1.9,4-2.5,6.2c-0.1,0.1-0.1,0.2-0.1,0.3c-0.8,0.9-1.3,1.9-1.6,3.1c-0.1,0.1-0.1,0.2-0.1,0.3
			c-0.5,0.3-0.8,0.8-0.8,1.4l0,0c-0.9,1.7-2.3,1.7-3.8,1.1c-0.4-0.1-0.8-0.2-1.2-0.2c-0.1-0.1-0.2-0.1-0.3-0.1
			c-0.5-0.4-1.1-0.7-1.8-0.8c-0.3-0.1-0.6-0.3-0.8-0.4c-1.4-1.8-2.4-1-3.4,0.4l0,0C153.5,109.5,152.6,109.8,151.8,110.1z"/>
		<path class="st1" d="M37.1,114c-0.5,2.6,1.4,4.4,2.1,6.6c1.7,5,5.6,8.4,9.2,12c0.6,0.6,1.7,0.2,2,1.2c-0.6,0.1-1.1,0.1-1.7,0.2
			c-1.7,0-3.3,0-5,0c-2.2-0.8-4.5-0.2-6.7-0.5l0,0c-1.1-2.3-2.5-4.4-4.2-6.4c0-0.2-0.1-0.5-0.1-0.7c-0.7-2-1.4-4-2.5-5.9
			c0-0.3-0.1-0.5-0.1-0.8c-0.2-2-1.2-3.8-0.8-5.9c0.1,0,0.3,0,0.4,0c0.4,0.5,0.8,0.4,1.3,0C33.2,113.9,35.1,114,37.1,114z"/>
		<path class="st1" d="M113.2,82.1c0,4.7,0,9.3,0.1,14c0,1.2-0.4,1.6-1.6,1.5c-4.1,0-8.2,0-12.3,0c-1.3,0-1.7-0.5-1.7-1.7
			c0.1-4,0.1-8.1,0-12.1c0-1.4,0.5-1.8,1.8-1.8c4.4,0,8.9,0,13.3-0.1C112.9,82,113.1,82.1,113.2,82.1z M108.3,89.8
			c0,1.8,0,3.6,0,5.4c0,0.4,0,0.9,0.6,1c0.6,0,0.6-0.5,0.6-0.9c0-3.5,0-7.1,0-10.6c0-0.4-0.1-1-0.6-1c-0.7,0-0.6,0.6-0.6,1.1
			C108.3,86.5,108.3,88.1,108.3,89.8z M110.7,89.8L110.7,89.8c0,1.8,0,3.6,0,5.4c0,0.4,0,0.9,0.6,0.9s0.6-0.5,0.6-0.9
			c0-3.6,0-7.1,0-10.7c0-0.4-0.1-0.9-0.7-0.8s-0.5,0.6-0.5,1C110.7,86.5,110.7,88.1,110.7,89.8z M106.1,90.2c0,1.7,0,3.3,0,5
			c0,0.5,0,1.1,0.7,1c0.5-0.1,0.5-0.6,0.5-1c0-3.5,0-6.9,0-10.4c0-0.5,0-1.1-0.7-1c-0.5,0.1-0.5,0.6-0.5,1
			C106.1,86.6,106.1,88.4,106.1,90.2z M99.1,89.8c0,1.8,0,3.6,0,5.4c0,0.4,0,0.9,0.6,0.9c0.4,0,0.5-0.4,0.5-0.8c0-3.6,0-7.3,0-10.9
			c0-0.4-0.2-0.7-0.6-0.7s-0.5,0.4-0.5,0.8C99.1,86.3,99.1,88.1,99.1,89.8z M103.7,90c0,1.7,0,3.5,0,5.2c0,0.4,0,0.9,0.6,1
			c0.5,0.1,0.6-0.2,0.6-0.6c0-3.6,0-7.2,0-10.9c0-0.4-0.3-0.8-0.8-0.8c-0.5,0.1-0.4,0.5-0.4,0.8C103.7,86.5,103.7,88.2,103.7,90z
			 M101.8,96.1c1-2.1,0.8-11.1-0.2-12.6C101.4,87.9,101.4,92,101.8,96.1z"/>
		<path class="st1" d="M77.5,82.1c0,4.6,0,9.2,0.1,13.8c0,1.3-0.4,1.7-1.7,1.7c-4.1-0.1-8.2,0-12.3,0c-1.2,0-1.6-0.4-1.6-1.6
			c0.1-4.7,0.1-9.3,0.1-14l0,0c5,0,10,0,15.1,0C77.3,82.1,77.4,82.1,77.5,82.1z M76.1,95.8c0.5-3.2,0.5-6.4,0-9.6c0-0.4,0-0.8,0-1.3
			l0.1-0.1c0-0.1-0.1-0.2-0.1-0.3c-0.1-0.5-0.3-0.9-1-0.8c-0.6,0.8-0.5,1.7-0.1,2.5c0,3.1,0,6.1,0,9.2l-0.1,0.1
			c0,0.1,0.1,0.2,0.1,0.3C75.4,96.3,75.8,96.3,76.1,95.8z M64.6,89.9L64.6,89.9c0-1.7,0-3.5,0-5.2c0-0.5,0-1.1-0.7-1
			c-0.6,0-0.5,0.6-0.5,1c0,3.5,0,7.1,0,10.6c0,0.4,0,0.9,0.5,0.9c0.7,0,0.6-0.6,0.6-1.1C64.6,93.3,64.6,91.6,64.6,89.9z M65.6,89.8
			L65.6,89.8c0,1.8,0,3.6,0,5.4c0,0.4,0.1,0.9,0.6,0.9c0.4,0,0.6-0.4,0.6-0.7c0-3.6,0-7.2,0-10.9c0-0.3-0.1-0.7-0.5-0.8
			c-0.6,0-0.7,0.4-0.7,0.8C65.6,86.4,65.6,88.1,65.6,89.8z M68,90L68,90c0,1.7,0,3.5,0,5.2c0,0.4-0.1,0.9,0.5,1
			c0.7,0.1,0.8-0.5,0.8-1c0-3.5,0-6.9,0-10.4c0-0.5,0-1.1-0.7-1c-0.6,0.1-0.5,0.6-0.5,1C68,86.5,68,88.2,68,90z M72.6,89.9
			L72.6,89.9c0,1.7,0,3.5,0,5.2c0,0.5-0.1,1.1,0.7,1.1c0.6,0,0.6-0.5,0.6-1c0-3.5,0-7,0-10.5c0-0.4-0.1-0.9-0.6-1
			c-0.7,0-0.6,0.6-0.6,1.1C72.6,86.5,72.6,88.2,72.6,89.9z M70.7,96.1c0.2,0,0.3,0,0.5,0c0-4.1,0-8.2,0-12.2c-0.2,0-0.3,0-0.5,0
			C70.7,87.9,70.7,92,70.7,96.1z"/>
		<path class="st1" d="M95.3,82c0,4.5,0,9,0.1,13.6c0,1.6-0.6,2-2.1,2c-3.9-0.1-7.8-0.1-11.7,0c-1.3,0-1.9-0.3-1.8-1.8
			c0.1-4.6,0.1-9.2,0.1-13.8c0.1,0,0.2-0.1,0.4-0.1c4.9,0,9.8,0,14.7,0C95,82,95.1,82,95.3,82z M94,89.8c0-1.7,0-3.3,0-5
			c0-0.4,0.2-1.1-0.5-1.2c-0.6,0-0.7,0.6-0.7,1.1c0,3.5,0,7,0,10.5c0,0.4,0,0.9,0.6,1c0.7,0,0.6-0.6,0.6-1.1
			C94,93.3,94,91.6,94,89.8z M82.3,90c0-1.7,0-3.5,0-5.2c0-0.4,0.2-1.1-0.5-1.1c-0.5,0-0.6,0.5-0.6,1c0,3.5,0,7.1,0,10.6
			c0,0.4,0,0.9,0.6,0.9s0.5-0.5,0.5-0.9C82.3,93.4,82.3,91.7,82.3,90z M89.4,90c0-1.7,0-3.5,0-5.2c0-0.4,0-0.9-0.6-1
			c-0.5,0-0.6,0.5-0.6,0.9c0,3.5,0,7,0,10.5c0,0.4,0,0.9,0.6,0.9c0.7,0,0.6-0.6,0.6-1.1C89.4,93.4,89.4,91.7,89.4,90z M85.7,89.8
			L85.7,89.8c0,1.8,0,3.6,0,5.4c0,0.4,0.1,0.9,0.6,0.9s0.6-0.5,0.6-0.9c0-3.5,0-6.9,0-10.4c0-0.4-0.1-0.9-0.6-0.9s-0.6,0.5-0.6,0.9
			C85.7,86.5,85.7,88.1,85.7,89.8z M83.5,89.9c0,1.7,0,3.3,0,5c0,0.5-0.1,1.1,0.5,1.2c0.7,0.1,0.7-0.6,0.7-1c0-3.4,0-6.8,0-10.2
			c0-0.4,0-1-0.5-1c-0.7,0-0.7,0.6-0.7,1.1C83.5,86.6,83.5,88.3,83.5,89.9z M90.8,96c0.1,0,0.3,0,0.4,0c0-4,0-8,0-12.1
			c-0.1,0-0.3,0-0.4,0C90.8,88,90.8,92,90.8,96z"/>
		<path class="st1" d="M131.1,82.1c0,4.5,0,9.1,0.1,13.6c0,1.5-0.6,1.9-2,1.9c-3.9,0-7.8-0.1-11.7,0c-1.6,0-1.8-0.6-1.8-2
			c0-4.2-0.1-8.5-0.1-12.7c0.1-0.3,0.1-0.6,0.2-0.8c5,0,10,0,15.1,0C130.9,82.1,131,82.1,131.1,82.1z M122.8,90L122.8,90
			c0.1-1.7,0.1-3.5,0.1-5.2c0-0.4,0.2-0.9-0.4-1c-0.7-0.1-0.8,0.4-0.8,0.9c0,3.5,0,7.1,0,10.6c0,0.4,0.1,0.9,0.7,0.8
			c0.6,0,0.8-0.4,0.7-1C122.9,93.4,122.9,91.7,122.8,90z M119.2,90c0,1.7,0,3.3,0,5c0,0.5-0.1,1.1,0.6,1.1c0.5,0,0.6-0.5,0.6-0.9
			c0-3.5,0-7,0-10.4c0-0.4-0.1-0.9-0.6-0.9s-0.6,0.5-0.6,0.9C119.2,86.5,119.2,88.3,119.2,90z M126.3,90L126.3,90c0,1.7,0,3.3,0,5
			c0,0.5-0.1,1.1,0.6,1.1c0.6,0,0.6-0.5,0.6-0.9c0-3.5,0-7,0-10.4c0-0.4,0-0.9-0.6-0.9c-0.5,0-0.6,0.5-0.6,1
			C126.3,86.5,126.3,88.3,126.3,90z M128.7,89.8L128.7,89.8c0,1.6,0,3.2,0,4.8c0,0.5-0.3,1.5,0.6,1.5c0.8,0,0.6-1,0.6-1.5
			c0-3.1,0-6.1,0-9.2c0-0.6,0.3-1.5-0.6-1.5c-0.8,0-0.5,1-0.6,1.5C128.7,86.9,128.7,88.4,128.7,89.8z M118.2,90.2L118.2,90.2
			c0-1.8,0-3.6,0-5.4c0-0.4-0.2-0.9-0.7-0.8c-0.5,0-0.4,0.5-0.4,0.8c0,3.5,0,6.9,0,10.4c0,0.4,0,0.9,0.6,0.9c0.5,0,0.6-0.5,0.6-0.9
			C118.2,93.5,118.2,91.9,118.2,90.2z M124.1,83.7c0,3.8,0,7.5,0,11.1c0,0.4-0.3,1.2,0.4,1.2c0.9,0,0.6-0.8,0.6-1.3
			c0-3.2,0-6.4,0-9.6C125,84.7,125.2,84,124.1,83.7z"/>
		<path class="st1" d="M113.2,61.9c-5.1,0-10.3,0-15.4,0l0,0c0-4.6,0-9.2-0.1-13.8c0-1.1,0.2-1.8,1.6-1.8c4.7,0.1,9.3,0.1,14,0.1
			c0,0.1,0,0.3,0.1,0.4C113.3,51.9,113.2,56.9,113.2,61.9L113.2,61.9z M102.6,48.2c0.1-0.2,0-0.4-0.2-0.4c-1,0-0.8,0.7-0.8,1.3
			c0,3.3,0,6.7,0,10c0,0.4-0.1,1,1.1,1.1C102.6,56.1,102.6,52.1,102.6,48.2z M103.7,59.8c0.1,0.1,0.2,0.3,0.4,0.4
			c0.4,0,0.8-0.2,0.8-0.7c0-3.7,0-7.4,0-11.1c0-0.5-0.3-0.7-0.8-0.7c-0.1,0.1-0.3,0.3-0.4,0.4C103.7,52.1,103.7,55.9,103.7,59.8z
			 M109.6,54.4L109.6,54.4c0-1.8,0.1-3.6,0.1-5.4c0-0.5,0-1-0.6-1.1c-0.5-0.1-0.7,0.3-0.7,0.8c0,3.7,0,7.3,0,11
			c0,0.4,0.2,0.9,0.7,0.9c0.7,0,0.6-0.6,0.6-1.1C109.6,57.7,109.6,56,109.6,54.4z M100.2,54.1c0-1.7,0-3.5,0-5.2
			c0-0.5,0.1-1.1-0.6-1.1c-0.6,0-0.5,0.6-0.5,1c0,3.5,0,7.1,0,10.6c0,0.4,0,0.9,0.5,1c0.7,0,0.6-0.6,0.6-1.1
			C100.2,57.6,100.2,55.9,100.2,54.1z M110.7,54c0,1.8,0,3.6,0,5.4c0,0.4,0,0.9,0.5,0.9s0.6-0.5,0.6-0.9c0-3.6,0-7.2,0-10.8
			c0-0.4-0.1-0.9-0.7-0.8c-0.6,0.1-0.5,0.6-0.5,1C110.7,50.6,110.7,52.3,110.7,54z M107.3,54.1c0-1.7,0-3.5,0-5.2
			c0-0.5,0.1-1.1-0.6-1.1s-0.6,0.6-0.6,1.1c0,3.5,0,7,0,10.5c0,0.4-0.1,0.9,0.5,1c0.7,0.1,0.7-0.5,0.7-1
			C107.4,57.6,107.4,55.9,107.3,54.1z"/>
		<path class="st1" d="M59.6,82.1c0,4.6,0,9.2,0.1,13.8c0,1.4-0.5,1.8-1.8,1.8c-4-0.1-7.9-0.1-11.9,0c-1.3,0-1.9-0.4-1.8-1.8
			c0.1-4.6,0.1-9.2,0.1-13.8c0.1,0,0.3,0,0.4,0C49.6,82,54.6,82.1,59.6,82.1C59.7,82.1,59.6,82.1,59.6,82.1z M51.3,89.9L51.3,89.9
			c0-1.7,0-3.5,0-5.2c0-0.4,0.1-1-0.4-1c-0.7-0.1-0.8,0.5-0.8,1c0,3.6,0,7.1,0,10.7c0,0.4,0.1,0.9,0.7,0.8c0.6-0.1,0.5-0.6,0.5-1
			C51.3,93.4,51.3,91.7,51.3,89.9z M45.4,89.9L45.4,89.9c0,1.8,0,3.6,0,5.4c0,0.3,0.1,0.7,0.5,0.8c0.4,0,0.6-0.3,0.6-0.6
			c0-3.7,0-7.4,0-11.1c0-0.4-0.2-0.8-0.5-0.8c-0.6-0.1-0.6,0.5-0.6,0.9C45.4,86.3,45.4,88.1,45.4,89.9z M48.8,89.8c0-1.7,0-3.3,0-5
			c0-0.4,0.2-1.1-0.5-1.2c-0.6,0-0.7,0.6-0.7,1.1c0,3.5,0,7,0,10.4c0,0.4,0.1,0.9,0.6,0.9c0.7,0,0.6-0.6,0.6-1.1
			C48.8,93.3,48.8,91.5,48.8,89.8z M53.7,90c0-1.7,0-3.5,0-5.2c0-0.4-0.1-0.9-0.6-0.9s-0.6,0.5-0.6,0.9c0,3.5,0,6.9,0,10.4
			c0,0.4,0.1,0.9,0.6,0.9s0.6-0.5,0.6-0.9C53.7,93.5,53.7,91.7,53.7,90z M55.9,90.1L55.9,90.1c0-1.7,0-3.5,0-5.2c0-0.5,0-1.1-0.7-1
			c-0.5,0-0.5,0.6-0.6,1c0,3.5,0,6.9,0,10.4c0,0.4,0,0.9,0.6,0.9c0.7,0,0.6-0.6,0.6-1.1C55.9,93.4,55.9,91.7,55.9,90.1z M58.3,90.1
			L58.3,90.1c0-1.8,0-3.6,0-5.4c0-0.4-0.1-0.7-0.5-0.8c-0.6-0.1-0.6,0.4-0.6,0.8c0,3.6,0,7.1,0,10.7c0,0.3,0,0.7,0.5,0.8
			c0.6,0.1,0.7-0.4,0.7-0.8C58.4,93.6,58.3,91.8,58.3,90.1z"/>
		<path class="st2" d="M62.2,79.9c-1.3-0.4-1.2-1.6-1.2-2.6c-0.1-3.8,0-7.7,0-11.5c0-1.8,1-2.7,2.8-2.7c4,0,8,0,12.1,0
			c1.8,0,2.8,0.7,2.8,2.7c-0.1,4,0,8,0,11.9c0,2.4-0.5,2.9-3,2.9c-3.8,0-7.7,0-11.5,0C63.3,80.8,62.4,81.1,62.2,79.9
			c4.5,0,8.9-0.1,13.4,0c1.5,0,2.1-0.5,2.1-2c-0.1-4-0.1-7.9,0-11.9c0-1.2-0.4-1.6-1.6-1.6c-4.1,0-8.2,0-12.3,0
			c-1.1,0-1.7,0.3-1.7,1.5C62.2,70.6,62.2,75.3,62.2,79.9z"/>
		<path class="st2" d="M115.7,108c0.9-1.4,1.5-1.5,3-0.3c3.2,2.5,7.2,3.1,11.1,3.7c6.3,1.1,12.7,0.9,19,0c-1.4,1.2-3.2,1.2-4.9,1.2
			c-3.8,0.1-7.6,0-11.4,0c-0.9,0-1.8-0.1-1.7,1.2c-0.3,0-0.6,0-0.9,0c-0.1-0.4,0.1-0.9-0.4-0.9s-0.3,0.6-0.4,0.9c-0.8,0-1.7,0-2.5,0
			c0.4-0.4,1.1-0.8,0.7-1.6c-0.3-0.6-0.9-0.6-1.5-0.8c-2.5-0.5-4.8-2-7.5-2c-0.1,0-0.4-0.2-0.4-0.4
			C117.8,107.7,116.6,108.1,115.7,108z"/>
		<path class="st2" d="M168.1,104.2c0.6-2.2,1.6-4.1,2.5-6.2c0.5-1.1,1.2-1.4,2.3-1.3c4.8,0.2,9.6,0,14.1-2c2.3-1,4.3-2.3,6-4.1
			c0.4-0.5,0.8-1,1.5-1.1c-0.6,2.5-3.4,5.3-5.8,5.7c-2,0.3-4,0.9-5.9,1.6c-3.1,1-6.2,0.6-9.3,0.7c-1,0-1.6,0.1-2.1,1.3
			C170.5,100.7,169.9,102.9,168.1,104.2z"/>
		<path class="st2" d="M113.2,46.5c-4.7,0-9.3,0-14-0.1c-1.4,0-1.6,0.7-1.6,1.8c0,4.6,0.1,9.2,0.1,13.8c-1-0.1-0.9-0.9-0.9-1.6
			c0-4.2,0-8.5,0-12.7c0-1.3,0.4-2,1.8-2c4.4,0,8.8,0,13.2,0C112.5,45.6,113.1,45.6,113.2,46.5z"/>
		<path class="st2" d="M94.8,82c-4.9,0-9.8,0-14.7,0c0.4-0.6,1.3-0.5,1.4-1.2c-0.4-0.8-1.7,0.6-1.9-0.8l0.1-0.1
			c4.8,0,9.7,0.1,14.5,0.1c-0.3,1.6-2.1,0.2-2.7,1.2C92.6,82.3,94,80.9,94.8,82z"/>
		<path class="st2" d="M195.7,85.4c-3.2-1.1-6.3-2.1-9.7-2.1s-6.6,0.5-9.8,1.7c-0.7,0.3-1.3,0.5-2,0.1c0.1-2.9-0.4-5.7-1.2-8.5
			c1.6,0.2,2.4,0.9,1.9,2.6c0,0.1-0.1,0.1-0.1,0.2c0,1.5-0.5,3.3,0.1,4.3c1,1.5,2.5-0.1,3.8-0.4c5.4-1.5,10.7-0.9,16,0.8
			C195.4,84.4,195.7,84.8,195.7,85.4z"/>
		<path class="st2" d="M49.6,110.7c10,2.4,19.9,1.7,29.7-1.3c-0.1,0.5-0.4,0.6-0.8,0.8c-3.9,1.5-7.9,2.5-12.2,2.5
			c-3.6,0-7.2,0-10.9,0c-0.9,0-1.8-0.1-1.7,1.2c-0.4,0-0.9,0-1.3,0c0.2-1.1-0.8-1.4-1.4-1.9C50.6,111.5,49.8,111.5,49.6,110.7z"/>
		<path class="st2" d="M93.2,153.3c4.7-0.4,9.3-1.3,13.9-2.1c4.1-0.8,8-2.2,12-2.9c-0.9,1.6-2.8,1.6-4.2,2c-5.3,1.4-10.7,2.4-16,3.4
			C97.1,153.8,95.1,154,93.2,153.3z"/>
		<path class="st2" d="M162.7,67.4c-2.8,6.1-3.2,12.4-1.3,18.9c-1.2-1-1.5-2.4-1.6-3.8c-0.2-3.3-0.2-6.6-0.1-9.9
			C159.7,70.9,160.8,68.6,162.7,67.4z"/>
		<path class="st2" d="M119.8,148.1c1.1-1.3,2.8-1.4,4.2-2.1c3.2-1.5,6.5-3,9.8-4.4c-0.4,1.6-2.1,1.7-3.2,2.4
			C127.3,145.9,123.7,147.4,119.8,148.1z"/>
		<path class="st2" d="M68.7,134.8c-0.1-0.2-0.2-0.4-0.3-0.6c0-1,2.2-0.9,1.4-2.1c-0.7-0.9-1.7,0-2.6,0.4c-0.6,0.2-1.2,0.3-1.7-0.3
			c1.1-0.9,2.6-0.8,3.9-1.2c0.8-0.2,1.5,0.2,1.8,1c0.2,0.7-0.2,1.1-0.8,1.4C69.7,133.9,69.1,134.1,68.7,134.8z"/>
		<path class="st2" d="M32.9,127.1c1.6,2,3,4.1,4.2,6.4C34.7,132,32.8,130.3,32.9,127.1z"/>
		<path class="st2" d="M42.3,109.2c1.3-1.3,2.5-1.9,4.1-0.3c0.6,0.7,1.6,1,2.4,1.5c-1.2,1.1-2-0.3-2.9-0.6
			C44.7,109.5,43.6,109.2,42.3,109.2z"/>
		<path class="st2" d="M48.8,134c0.6-0.1,1.1-0.1,1.7-0.2c1.7,0.3,3.3-0.4,5-0.3h0.2l0.2-0.1c0.3,0,0.6,0,0.9,0H57l0.2-0.1
			c0.6,0,1.1,0.1,1.7,0.1c-0.1,0.4-0.2,0.8-0.5,0.8C55.1,134.3,51.9,134.8,48.8,134z"/>
		<path class="st2" d="M136.2,140.2c2-1.8,4.3-3.3,6.8-4.6C141.4,138.1,138.9,139.4,136.2,140.2z"/>
		<path class="st2" d="M79.7,80c-0.5-0.5-0.4-1.1-0.4-1.8c0-4,0-8,0-12c0-0.6-0.1-1.3,0.4-1.8h0.1c0,5.1,0.1,10.2,0.1,15.4L79.7,80z
			"/>
		<path class="st2" d="M113.2,61.9c0-5,0.1-10,0.1-15c0.7,1.1,0.3,2.3,0.3,3.4c0.1,3.2,0,6.3,0,9.5
			C113.7,60.5,113.9,61.4,113.2,61.9z"/>
		<path class="st2" d="M130.8,82c-5,0-10,0-15.1,0c0.5-0.5,1.1-0.4,1.7-0.4c3.9,0,7.7,0,11.6,0C129.7,81.6,130.3,81.5,130.8,82z"/>
		<path class="st2" d="M59.7,82.1c-5,0-10,0-15.1-0.1c0.6-0.6,1.4-0.4,2.2-0.4c3.6,0,7.2,0,10.8,0C58.2,81.6,59.1,81.4,59.7,82.1z"
			/>
		<path class="st2" d="M77.2,82c-5,0-10,0-15.1,0c0.3-0.4,0.8-0.4,1.3-0.4c4.1,0,8.3,0,12.4,0C76.4,81.6,76.9,81.6,77.2,82z"/>
		<path class="st2" d="M162.7,95.1c-2.2,1.8-4.8,2.7-7.6,3.3c0.2-1.3,1.4-1,2.1-1.2C159.2,96.7,160.6,94.9,162.7,95.1z"/>
		<path class="st2" d="M37.1,133.5c2.2,0.2,4.5-0.3,6.7,0.5c-2,0.9-4.1,0.3-6.1,0.3C37.3,134.3,37.1,133.9,37.1,133.5z"/>
		<path class="st2" d="M30.4,120.5c1,1.9,1.8,3.9,2.5,5.9c-0.9,0-1.3-0.8-1.6-1.5C30.8,123.6,30.1,122.1,30.4,120.5z"/>
		<path class="st2" d="M29.5,113.9c-0.5,2,0.6,3.9,0.8,5.9c-1.9-1.3-1.2-3.6-1.9-5.3C28.2,114,29.1,113.9,29.5,113.9z"/>
		<path class="st2" d="M143.4,135.2c1.1-1.5,2.5-2.6,4.2-3.4C146.6,133.4,145.9,135.5,143.4,135.2z"/>
		<path class="st2" d="M161.4,86.3c1,1.8,2,3.6,3,5.4C161.3,91,161.8,88.4,161.4,86.3z"/>
		<path class="st2" d="M160.6,110.1c0.4,0.1,0.8,0.1,1.2,0.2c1.6,0.6,2.9,0.6,3.8-1.1c-0.2,2.6-0.3,2.7-2.8,1.9
			C162,110.9,160.8,111.4,160.6,110.1z"/>
		<path class="st2" d="M87.7,153.6c0-0.1,0.1-0.2,0.1-0.3c1.5,0,3,0,4.6,0C90.8,154.6,89.3,154.2,87.7,153.6z"/>
		<path class="st2" d="M151.8,110.1c0.8-0.3,1.7-0.6,2.5-0.9c-1.1,2.2-3.2,2-5.1,2C150,110.9,150.9,110.5,151.8,110.1z"/>
		<path class="st2" d="M154.3,109.3c1-1.4,2-2.2,3.4-0.4C156.6,109.5,155.4,109.2,154.3,109.3z"/>
		<path class="st2" d="M173,76.7c-0.9-1-1.5-2.2-1.9-3.4C172.6,73.9,173.3,75,173,76.7z"/>
		<path class="st2" d="M161,116.8c0.1-1,1.1-1.8,0.8-2.9C163.2,115.1,163,115.9,161,116.8z"/>
		<path class="st2" d="M164.8,92.1c2.4,2.2-0.7,1.8-1.2,2.6C163.1,93.4,165.1,93.3,164.8,92.1z"/>
		<path class="st2" d="M194.5,89.6c0.4-1.1,1-2,1.8-2.9C196.7,88.3,195.8,89,194.5,89.6z"/>
		<path class="st2" d="M61.7,133.1c0.9-0.6,2-0.5,3-0.7C64,133.7,63,133.9,61.7,133.1z"/>
		<path class="st2" d="M166.5,107.6c0.3-1.2,0.7-2.2,1.6-3.1C168.2,105.9,167.8,107,166.5,107.6z"/>
		<path class="st2" d="M154.3,125.2c0.2-1.1,1-1.8,2-2.1C156.2,124.3,155.4,124.9,154.3,125.2z"/>
		<path class="st2" d="M156.3,123c0.1-0.8,0.6-1.3,1.3-1.6C158.6,123,157.4,123,156.3,123z"/>
		<path class="st2" d="M151.4,128.1c0.4-0.7,0.9-1.3,1.6-1.7C153.1,127.6,152.6,128.2,151.4,128.1z"/>
		<path class="st2" d="M134.2,141.5c0.4-0.6,0.9-1.2,1.7-1.2C135.7,141.3,135,141.5,134.2,141.5z"/>
		<path class="st2" d="M163.5,66.2c-0.1,0.5-0.4,0.9-0.9,1.2C162.9,66.9,162.1,65.8,163.5,66.2z"/>
		<path class="st2" d="M158.5,109.3c0.7,0.1,1.2,0.4,1.8,0.8C159.5,110,158.7,110.4,158.5,109.3z"/>
		<path class="st2" d="M31.2,113.9c-0.4,0.4-0.8,0.4-1.3,0C30.4,113.4,30.8,113.4,31.2,113.9z"/>
		<path class="st2" d="M165.6,109.3c0-0.6,0.3-1,0.8-1.4C166.4,108.5,166.5,109.2,165.6,109.3z"/>
		<path class="st2" d="M59.1,133.5c0.5-0.5,1.2-0.4,1.8-0.3C60.4,133.7,59.7,133.5,59.1,133.5z"/>
		<path class="st2" d="M163.5,94.6c-0.2,0.3-0.5,0.5-0.8,0.5C162.8,94.7,163.2,94.6,163.5,94.6z"/>
		<path class="st2" d="M171,73c-0.2-0.2-0.3-0.4-0.5-0.5C170.7,72.6,170.8,72.8,171,73z"/>
		<path class="st2" d="M160.6,113.8c-0.1,0-0.3,0-0.4,0C160.3,113.6,160.4,113.6,160.6,113.8z"/>
		<path class="st2" d="M158.9,119.7c0.1-0.2,0.3-0.3,0.4-0.5C159.2,119.4,159,119.6,158.9,119.7z"/>
		<path class="st2" d="M147.6,131.9c0.1-0.1,0.3-0.3,0.4-0.4C147.9,131.6,147.7,131.7,147.6,131.9z"/>
		<path class="st2" d="M196.2,85.8c-0.1-0.1-0.3-0.3-0.4-0.4C195.9,85.5,196,85.7,196.2,85.8z"/>
		<path class="st0" d="M53.8,113.8c-0.1-1.3,0.8-1.2,1.7-1.2c3.6,0,7.2,0,10.9,0c4.2,0,8.2-1,12.2-2.5c0.4-0.2,0.8-0.3,0.8-0.8
			c0.2-0.1,0.5-0.2,0.7-0.3c1.1,1.1,1.1,0,1.3-0.7l0,0c0.4,0,0.7-0.1,0.8-0.5l0,0c0.9,0,1.8,0,2.8,0.1c0.1,0,0.2,0,0.3,0.1
			c0.1,0.1,0.3,0.2,0.4,0.4l0,0c0.6,1.5,1.9,1.6,3.3,1.7h0.1c0.6,1.2,1.7,1.1,2.8,1.1c0.2,0,0.4,0,0.6,0c0.4,0.6,1.1,0.8,1.8,0.9
			c1.8,0.2,3.7,0.5,5.5,0.4c0.9,0,2-0.1,2.3,1.2C85.9,113.8,69.9,113.8,53.8,113.8z"/>
		<path class="st0" d="M115.7,108c0.9,0.1,2-0.2,2.3,1.2c0,0.2,0.3,0.4,0.4,0.4c2.7-0.1,4.9,1.5,7.5,2c0.6,0.1,1.2,0.1,1.5,0.8
			c0.3,0.7-0.3,1.1-0.7,1.6c-0.4,0-0.8,0-1.2,0c-0.1-0.5,0.2-1.4-0.6-1.5c-0.8,0-0.9,0.8-1.1,1.5c-6,0-12,0-18,0
			c0.3-1.6,1.6-1.8,2.8-2c1.3-0.3,2.6-0.5,3.4-1.7c0.1-0.1,0.1-0.1,0.2-0.1c0.7,0.1,1.3,0.1,1.4-0.8c0.3-0.1,0.5-0.3,0.8-0.4
			c0.4,0,0.7-0.1,0.8-0.5l0,0C115.4,108.2,115.6,108.1,115.7,108L115.7,108z"/>
		<path class="st3" d="M76.6,122.7c2.3,0,4.2,2,4.2,4.3c0,2.4-2,4.4-4.4,4.3c-2.3-0.1-4.2-2-4.1-4.3
			C72.3,124.5,74.1,122.7,76.6,122.7z M76.7,130.1c1.3-0.1,2.3-0.8,2.7-2.1c0.3-0.9,1-2.2-1.1-1.7c-0.7,0.2-1.3-0.5-1.1-1.1
			c0.4-2.1-1.1-1.4-1.8-1.1c-1.5,0.6-2.2,1.9-1.8,3.5C73.8,129.3,75,130.1,76.7,130.1z"/>
		<path class="st2" d="M112,110.1c-0.8,1.2-2.2,1.4-3.4,1.7c-1.2,0.3-2.6,0.4-2.8,2c-0.3,0-0.6,0-0.9,0c0-0.5,0.1-1.1-0.6-1.1
			s-0.6,0.6-0.6,1.1c-0.6,0-1.1,0-1.7,0c-0.3-1.2-1.4-1.2-2.3-1.2c-1.9,0.1-3.7-0.2-5.5-0.4c-0.7-0.1-1.3-0.3-1.8-0.9
			c5,0.8,10.1,1.1,15.1,0C109,111,110.5,110.5,112,110.1z"/>
		<path class="st2" d="M123.7,113.8c0.2-0.6,0.3-1.5,1.1-1.5c0.9,0,0.5,0.9,0.6,1.5C124.8,113.8,124.3,113.8,123.7,113.8z"/>
		<path class="st0" d="M103.6,113.8c0-0.5-0.1-1.1,0.6-1.1s0.6,0.6,0.6,1.1C104.5,113.8,104.1,113.8,103.6,113.8z"/>
		<path class="st0" d="M129.2,113.8c0.1-0.4-0.1-0.9,0.4-0.9s0.3,0.6,0.4,0.9C129.7,113.8,129.5,113.8,129.2,113.8z"/>
		<path class="st4" d="M55.9,133.4l-0.2,0.1h-0.2C55.6,133.5,55.7,133.4,55.9,133.4z"/>
		<path class="st4" d="M57.1,133.4l-0.2,0.1h-0.2C56.9,133.4,57,133.4,57.1,133.4z"/>
		<path class="st1" d="M37.1,110.6c-2.3,0.9-4.8,0.7-7.2,0.8c-1,0-1.3-0.5-1.4-1.4c-0.5-2.9-0.3-5.8,0.1-8.7c0.1-1,0.9-0.9,1.6-0.9
			c1.7,0,3.5,0,5.2,0.1c0,2.5,0,5,0,7.5C35.3,109.4,35.7,110.3,37.1,110.6z"/>
		<path class="st2" d="M84.9,107.9c-0.9,0-1.8,0-2.8-0.1C83.1,105.6,84,106.9,84.9,107.9z"/>
		<path class="st2" d="M88.9,110.1c-1.3-0.1-2.7-0.2-3.3-1.7C86.8,108.8,87.9,109.3,88.9,110.1z"/>
		<path class="st2" d="M91.7,111.3c-1.1,0-2.2,0.1-2.8-1.1C89.9,110.4,90.9,110.5,91.7,111.3z"/>
		<path class="st2" d="M81.4,108.4c-0.2,0.7-0.2,1.8-1.3,0.7C80.5,108.8,81,108.6,81.4,108.4z"/>
		<path class="st2" d="M113.7,109.3c-0.1,0.9-0.8,0.8-1.4,0.8C112.6,109.6,113.1,109.3,113.7,109.3z"/>
		<path class="st2" d="M82.2,107.9c-0.1,0.4-0.4,0.5-0.8,0.5C81.6,108.1,81.8,107.9,82.2,107.9z"/>
		<path class="st2" d="M115.3,108.3c-0.1,0.4-0.5,0.5-0.8,0.5C114.6,108.5,114.9,108.3,115.3,108.3z"/>
		<path class="st2" d="M85.6,108.4c-0.1-0.1-0.3-0.2-0.4-0.4C85.3,108.2,85.5,108.3,85.6,108.4z"/>
		<path class="st2" d="M115.8,108c-0.2,0.1-0.3,0.3-0.5,0.4C115.4,108.2,115.6,108.1,115.8,108z"/>
		<path class="st1" d="M79.9,79.8c0-5.1-0.1-10.2-0.1-15.4c4.8-0.1,9.6-0.2,14.4-0.2c1.3,0,1.1,0.9,1.1,1.7c0,4.5,0.1,9,0.1,13.5
			c-0.3,0.1-0.6,0.3-0.9,0.4C89.6,79.9,84.7,79.9,79.9,79.8z M94,72.2c0-1.8,0-3.6,0-5.4c0-0.4,0-0.9-0.5-1c-0.6,0-0.6,0.4-0.6,0.9
			c0,3.5,0,7.1,0,10.6c0,0.4,0.1,0.9,0.6,0.9c0.6,0,0.5-0.6,0.5-1C94,75.5,94,73.9,94,72.2z M82.3,72c0-1.8,0-3.6,0-5.4
			c0-0.3,0-0.7-0.5-0.8c-0.4,0-0.6,0.3-0.6,0.7c0,3.7,0,7.3,0,11c0,0.4,0.2,0.7,0.6,0.7c0.5,0,0.5-0.4,0.5-0.8
			C82.3,75.6,82.3,73.8,82.3,72z M90.6,72c0,1.7,0,3.5,0,5.2c0,0.4-0.1,0.9,0.5,1s0.7-0.4,0.7-0.8c0-3.5,0-7.1,0-10.6
			c0-0.4,0-0.9-0.6-0.9s-0.5,0.6-0.5,1C90.6,68.5,90.6,70.3,90.6,72z M83.5,71.9c0,1.7,0,3.5,0,5.2c0,0.5-0.1,1.1,0.6,1.1
			c0.5,0,0.5-0.5,0.5-1c0-3.5,0-7,0-10.5c0-0.4,0-0.9-0.6-1c-0.8,0-0.6,0.6-0.6,1.1C83.5,68.5,83.5,70.2,83.5,71.9z M86.9,72.2
			c0-1.7,0-3.5,0-5.2c0-0.4,0.1-1.1-0.5-1.2c-0.7,0-0.6,0.6-0.6,1.1c0,3.4,0,6.8,0,10.2c0,0.5-0.1,1.1,0.6,1s0.5-0.7,0.5-1.2
			C87,75.4,86.9,73.8,86.9,72.2z M89.4,72.1L89.4,72.1c0-1.7,0-3.5,0-5.2c0-0.5,0-1.1-0.7-1c-0.6,0-0.5,0.6-0.5,1c0,3.5,0,7,0,10.5
			c0,0.4,0,0.9,0.6,0.9c0.7,0,0.6-0.6,0.6-1.1C89.4,75.4,89.4,73.8,89.4,72.1z"/>
		<path class="st1" d="M113.3,64.5c0,4.5,0,8.9,0,13.4c0,1.5-0.4,2.2-2,2.1c-3.8-0.1-7.7-0.1-11.5,0c-1.5,0-2.2-0.4-2.1-2
			c0.1-3.9,0.1-7.8,0-11.7c0-1.3,0.4-1.9,1.8-1.9C104.1,64.5,108.7,64.4,113.3,64.5L113.3,64.5z M101.5,71.9c0,1.8,0,3.6,0,5.4
			c0,0.4,0.1,0.9,0.7,0.8c0.4-0.1,0.5-0.5,0.5-0.8c0-3.6,0-7.1,0-10.7c0-0.4-0.1-0.9-0.7-0.8c-0.4,0.1-0.5,0.5-0.5,0.8
			C101.5,68.4,101.5,70.2,101.5,71.9z M104.9,72.1L104.9,72.1c0-1.7,0-3.5,0-5.2c0-0.4,0-0.9-0.5-1c-0.6-0.1-0.7,0.4-0.7,0.8
			c0,3.5,0,7.1,0,10.6c0,0.4,0.1,0.7,0.5,0.8c0.6,0.1,0.7-0.4,0.7-0.8C104.9,75.6,104.9,73.8,104.9,72.1z M99.1,71.8
			c0,1.8,0,3.6,0,5.4c0,0.4,0,0.9,0.6,0.9c0.5,0,0.6-0.5,0.6-0.9c0-3.5,0-6.9,0-10.4c0-0.4-0.1-0.9-0.6-0.9s-0.6,0.5-0.6,0.9
			C99.1,68.5,99.1,70.1,99.1,71.8z M107.4,72.1L107.4,72.1c0-1.7,0-3.5,0-5.2c0-0.4,0-0.9-0.5-1c-0.6-0.1-0.7,0.4-0.7,0.8
			c0,3.6,0,7.1,0,10.7c0,0.4,0.1,0.7,0.5,0.8c0.6,0.1,0.7-0.4,0.7-0.8C107.4,75.6,107.4,73.8,107.4,72.1z M109.5,72
			c0-1.7,0-3.5,0-5.2c0-0.4-0.1-0.9-0.6-0.9s-0.6,0.5-0.6,0.9c0,3.5,0,6.9,0,10.4c0,0.4,0.1,0.9,0.6,0.9s0.6-0.5,0.6-0.9
			C109.5,75.5,109.5,73.7,109.5,72z M112,71.9L112,71.9c0-1.7,0-3.3,0-5c0-0.5,0.1-1.1-0.7-1.1c-0.5,0-0.5,0.6-0.5,1
			c0,3.4,0,6.8,0,10.2c0,0.5-0.1,1.1,0.6,1.1c0.6-0.1,0.5-0.7,0.5-1.2C112,75.3,112,73.6,112,71.9z"/>
		<path class="st0" d="M94.4,80c0.3-0.1,0.6-0.3,0.9-0.4c1.1-0.3,0.7-1.2,0.7-1.9c0-3.3,0-6.7,0-10c0-0.6-0.3-1.4,0.8-2.3
			c0,10.5,0,20.6,0,31c-1.1-0.5-0.8-1.2-0.8-1.8c0-3.5,0-7,0-10.5c0-0.7,0.3-1.6-0.8-1.9c-0.1,0-0.3,0-0.4-0.1
			c-0.8-1.1-2.2,0.3-3.1-0.8C92.4,80.2,94.1,81.5,94.4,80z"/>
		<path class="st0" d="M99.3,99.6c-1-0.1-2.2,0.3-3.1-0.7c-0.3-0.3-0.9-0.3-0.5-0.9c0.3-0.3,0.7-1.1,1.1-0.6c1.3,1.5,3,0.6,4.5,0.9
			c0.4,0.1,1.1-0.2,1.2,0.4c0.1,0.8-0.6,0.8-1.2,0.8C100.7,99.7,100.1,99.6,99.3,99.6z"/>
		<path class="st0" d="M98.9,62.8c3.6-0.4,7.1-0.5,10.7,0C106.1,63.7,102.5,63.1,98.9,62.8z"/>
		<path class="st0" d="M114.3,86.2c0,3.3,0,6.5,0,9.8c-0.1,0-0.3,0-0.4,0c0-3.3,0-6.5,0-9.8C114.1,86.2,114.2,86.2,114.3,86.2z"/>
		<path class="st0" d="M78.7,86.6c0.8,2.2,0.7,7.9,0,9.4C78.7,92.8,78.7,89.7,78.7,86.6z"/>
		<path class="st0" d="M107.3,98.4c1.3,0,2.6,0,3.8,0c0.3,0,0.6,0.1,0.6,0.4c0,0.4-0.3,0.7-0.6,0.7c-1.3,0.1-2.7,0.4-3.9-0.5
			C107.3,98.8,107.3,98.6,107.3,98.4z"/>
		<path class="st2" d="M108.3,89.8c0-1.7,0-3.3,0-5c0-0.5-0.1-1.1,0.6-1.1c0.5,0,0.6,0.5,0.6,1c0,3.5,0,7.1,0,10.6
			c0,0.4,0,0.9-0.6,0.9c-0.5,0-0.6-0.5-0.6-1C108.3,93.4,108.3,91.6,108.3,89.8z"/>
		<path class="st2" d="M110.7,89.8c0-1.7,0-3.3,0-5c0-0.4,0-0.9,0.5-1c0.6-0.1,0.7,0.4,0.7,0.8c0,3.6,0,7.1,0,10.7
			c0,0.4-0.1,0.9-0.6,0.9c-0.6,0-0.5-0.5-0.6-0.9C110.7,93.4,110.7,91.6,110.7,89.8L110.7,89.8z"/>
		<path class="st2" d="M106.1,90.2c0-1.8,0-3.6,0-5.4c0-0.4,0-0.9,0.5-1c0.7-0.1,0.7,0.5,0.7,1c0,3.5,0,6.9,0,10.4
			c0,0.4,0,0.9-0.5,1c-0.7,0.1-0.7-0.5-0.7-1C106.1,93.5,106.1,91.8,106.1,90.2z"/>
		<path class="st2" d="M99.1,89.8c0-1.7,0-3.5,0-5.2c0-0.4,0.1-0.8,0.5-0.8s0.6,0.4,0.6,0.7c0,3.6,0,7.3,0,10.9
			c0,0.4-0.1,0.8-0.5,0.8c-0.6,0-0.6-0.5-0.6-0.9C99.1,93.4,99.1,91.6,99.1,89.8z"/>
		<path class="st2" d="M103.7,90c0-1.7,0-3.5,0-5.2c0-0.3-0.1-0.8,0.4-0.8c0.5-0.1,0.8,0.3,0.8,0.8c0,3.6,0,7.2,0,10.9
			c0,0.4-0.2,0.7-0.6,0.6c-0.5-0.1-0.6-0.6-0.6-1C103.7,93.5,103.7,91.7,103.7,90z"/>
		<path class="st2" d="M101.8,96.1c-0.4-4.1-0.4-8.1-0.2-12.6C102.6,85,102.8,94,101.8,96.1z"/>
		<path class="st2" d="M64.6,89.9c0,1.7,0,3.5,0,5.2c0,0.5,0.1,1.1-0.6,1.1c-0.6,0-0.5-0.5-0.5-0.9c0-3.5,0-7.1,0-10.6
			c0-0.4,0-0.9,0.5-1c0.7,0,0.7,0.6,0.7,1C64.6,86.4,64.6,88.1,64.6,89.9L64.6,89.9z"/>
		<path class="st2" d="M65.6,89.8c0-1.7,0-3.5,0-5.2c0-0.4,0.1-0.9,0.7-0.8c0.4,0,0.5,0.4,0.5,0.8c0,3.6,0,7.2,0,10.9
			c0,0.4-0.1,0.7-0.6,0.7c-0.6,0-0.6-0.5-0.6-0.9C65.6,93.5,65.6,91.7,65.6,89.8L65.6,89.8z"/>
		<path class="st2" d="M68,90c0-1.7,0-3.5,0-5.2c0-0.4,0-0.9,0.5-1c0.7-0.1,0.7,0.5,0.7,1c0,3.5,0,6.9,0,10.4c0,0.5-0.1,1-0.8,1
			c-0.6-0.1-0.5-0.6-0.5-1C68,93.4,68,91.7,68,90L68,90z"/>
		<path class="st2" d="M72.6,89.9c0-1.7,0-3.3,0-5c0-0.4-0.1-1.1,0.6-1.1c0.5,0,0.6,0.5,0.6,1c0,3.5,0,7,0,10.5c0,0.4,0,0.9-0.6,1
			c-0.7,0-0.6-0.6-0.7-1.1C72.6,93.4,72.6,91.6,72.6,89.9L72.6,89.9z"/>
		<path class="st2" d="M70.7,96.1c0-4.1,0-8.2,0-12.2c0.2,0,0.3,0,0.5,0c0,4.1,0,8.2,0,12.2C71,96.1,70.8,96.1,70.7,96.1z"/>
		<path class="st2" d="M75.1,83.7c0.6-0.1,0.9,0.3,1,0.8c0,0.1,0,0.3,0,0.4c0,0.4,0,0.8,0,1.3c-0.2,3.2-0.2,6.4,0,9.6
			c-0.3,0.5-0.7,0.5-1,0c0-0.1,0-0.3,0-0.4c0-3.1,0-6.1,0-9.2C75.1,85.4,75.1,84.6,75.1,83.7z"/>
		<path class="st1" d="M76.1,95.8c-0.2-3.2-0.2-6.4,0-9.6C76.6,89.4,76.6,92.6,76.1,95.8z"/>
		<path class="st1" d="M75.1,83.7c0,0.8-0.1,1.7-0.1,2.5C74.6,85.4,74.5,84.5,75.1,83.7z"/>
		<path class="st1" d="M75,95.4c0,0.1,0,0.3,0,0.4C75,95.7,74.9,95.6,75,95.4C74.9,95.5,75,95.5,75,95.4z"/>
		<path class="st1" d="M76.1,85c0-0.1,0-0.3,0-0.4C76.1,84.7,76.2,84.8,76.1,85C76.2,84.9,76.1,84.9,76.1,85z"/>
		<path class="st2" d="M94,89.8c0,1.7,0,3.5,0,5.2c0,0.4,0.1,1.1-0.6,1.1c-0.5,0-0.6-0.5-0.6-1c0-3.5,0-7,0-10.5
			c0-0.5,0.1-1.1,0.7-1.1c0.7,0,0.5,0.7,0.5,1.2C94,86.5,94,88.2,94,89.8z"/>
		<path class="st2" d="M82.3,90c0,1.7,0,3.5,0,5.2c0,0.4,0,0.9-0.5,0.9c-0.6,0-0.6-0.5-0.6-0.9c0-3.5,0-7.1,0-10.6
			c0-0.4,0.1-1,0.6-1c0.7,0,0.5,0.7,0.5,1.1C82.3,86.5,82.3,88.2,82.3,90z"/>
		<path class="st2" d="M89.4,90c0,1.7,0,3.3,0,5c0,0.5,0.1,1.1-0.6,1.1c-0.5,0-0.6-0.5-0.6-0.9c0-3.5,0-7,0-10.5
			c0-0.4,0.1-0.9,0.6-0.9s0.6,0.5,0.6,1C89.4,86.5,89.4,88.3,89.4,90z"/>
		<path class="st2" d="M85.7,89.8c0-1.7,0-3.3,0-5c0-0.4,0.1-0.9,0.6-0.9s0.6,0.5,0.6,0.9c0,3.5,0,6.9,0,10.4c0,0.4,0,0.9-0.6,0.9
			c-0.5,0-0.6-0.5-0.6-0.9C85.7,93.4,85.7,91.6,85.7,89.8L85.7,89.8z"/>
		<path class="st2" d="M83.5,89.9c0-1.7,0-3.3,0-5c0-0.5,0-1.1,0.7-1.1c0.5,0,0.5,0.6,0.5,1c0,3.4,0,6.8,0,10.2c0,0.5,0.1,1.1-0.7,1
			c-0.7-0.1-0.5-0.7-0.5-1.2C83.5,93.3,83.5,91.6,83.5,89.9z"/>
		<path class="st2" d="M90.8,96c0-4,0-8,0-12c0.1,0,0.3,0,0.4,0c0,4,0,8,0,12.1C91.1,96,91,96,90.8,96z"/>
		<path class="st2" d="M122.8,90c0.1,1.7,0.1,3.5,0.3,5.2c0,0.6-0.1,0.9-0.7,1c-0.6,0-0.7-0.4-0.7-0.8c0-3.5,0-7.1,0-10.6
			c0-0.5,0.1-1,0.8-0.9c0.6,0.1,0.4,0.6,0.4,1c0,1.7,0,3.5,0,5.2C122.8,90,122.8,90,122.8,90z"/>
		<path class="st2" d="M119.2,90c0-1.7,0-3.5,0-5.2c0-0.4,0-0.9,0.6-0.9c0.5,0,0.6,0.5,0.6,0.9c0,3.5,0,7,0,10.4
			c0,0.4,0,0.9-0.6,0.9c-0.7,0-0.6-0.6-0.6-1.1C119.2,93.3,119.2,91.7,119.2,90z"/>
		<path class="st2" d="M126.3,90c0-1.7,0-3.5,0-5.2c0-0.4,0-0.9,0.6-1c0.6,0,0.6,0.5,0.6,0.9c0,3.5,0,7,0,10.4c0,0.4,0,0.9-0.6,0.9
			c-0.7,0-0.6-0.6-0.6-1.1C126.3,93.4,126.3,91.7,126.3,90L126.3,90z"/>
		<path class="st2" d="M128.7,89.8c0-1.5,0-2.9,0-4.4c0-0.6-0.3-1.5,0.6-1.5c0.9-0.1,0.6,0.9,0.6,1.5c0,3.1,0,6.1,0,9.2
			c0,0.6,0.3,1.5-0.6,1.5c-0.9,0-0.6-0.9-0.6-1.5C128.7,93,128.7,91.4,128.7,89.8L128.7,89.8z"/>
		<path class="st2" d="M118.2,90.2c0,1.7,0,3.3,0,5c0,0.4-0.1,0.9-0.6,0.9c-0.6,0-0.6-0.5-0.6-0.9c0-3.5,0-6.9,0-10.4
			c0-0.3,0-0.8,0.4-0.8c0.6-0.1,0.7,0.4,0.7,0.8C118.2,86.6,118.2,88.4,118.2,90.2L118.2,90.2z"/>
		<path class="st2" d="M124.1,83.7c1.1,0.3,0.9,1,0.9,1.5c0,3.2,0,6.4,0,9.6c0,0.5,0.3,1.3-0.6,1.3c-0.7,0-0.4-0.7-0.4-1.2
			C124.1,91.2,124.1,87.5,124.1,83.7z"/>
		<path class="st2" d="M109.6,54.4c0,1.7,0,3.3,0,5c0,0.5,0.1,1.1-0.6,1.1c-0.5,0-0.7-0.4-0.7-0.9c0-3.7,0-7.3,0-11
			c0-0.5,0.2-0.8,0.7-0.8c0.6,0.1,0.6,0.7,0.6,1.1c-0.1,1.8-0.2,3.6-0.2,5.4C109.5,54.4,109.6,54.4,109.6,54.4z"/>
		<path class="st2" d="M100.2,54.1c0,1.7,0,3.5,0,5.2c0,0.5,0.1,1.1-0.6,1.1c-0.6,0-0.5-0.6-0.5-1c0-3.5,0-7.1,0-10.6
			c0-0.4,0-0.9,0.5-1c0.7,0,0.6,0.6,0.6,1.1C100.2,50.7,100.2,52.4,100.2,54.1z"/>
		<path class="st2" d="M110.7,54c0-1.7,0-3.5,0-5.2c0-0.4-0.1-0.9,0.5-1s0.7,0.3,0.7,0.8c0,3.6,0,7.2,0,10.8c0,0.4-0.2,0.9-0.6,0.9
			c-0.6,0-0.5-0.5-0.5-0.9C110.7,57.7,110.7,55.9,110.7,54z"/>
		<path class="st2" d="M107.4,54.1c0,1.7,0,3.5,0,5.2c0,0.5-0.1,1.1-0.7,1c-0.6,0-0.5-0.6-0.5-1c0-3.5,0-7,0-10.5
			c0-0.5-0.1-1.1,0.6-1.1s0.6,0.6,0.6,1.1C107.4,50.7,107.3,52.4,107.4,54.1z"/>
		<path class="st2" d="M104.1,47.7c0.5,0,0.8,0.2,0.8,0.7c0,3.7,0,7.4,0,11.1c0,0.5-0.4,0.7-0.8,0.7c-0.1-0.1-0.2-0.3-0.4-0.4
			c0-3.9,0-7.8,0-11.7C103.8,48,103.9,47.9,104.1,47.7z"/>
		<path class="st2" d="M102.6,48.2c0,4,0,8,0,12c-1.2,0-1.1-0.6-1.1-1.1c0-3.3,0-6.7,0-10c0-0.6-0.1-1.3,0.8-1.3
			C102.4,47.9,102.5,48,102.6,48.2z"/>
		<path class="st4" d="M103.7,59.8c0.1,0.1,0.2,0.3,0.4,0.4C103.9,60.1,103.8,60,103.7,59.8z"/>
		<path class="st4" d="M102.6,48.2c-0.1-0.1-0.2-0.3-0.2-0.4C102.6,47.8,102.7,47.9,102.6,48.2z"/>
		<path class="st4" d="M104.1,47.7c-0.1,0.1-0.3,0.3-0.4,0.4C103.8,48,103.9,47.9,104.1,47.7z"/>
		<path class="st2" d="M51.3,89.9c0,1.7,0,3.5,0,5.2c0,0.4,0.1,0.9-0.5,1s-0.7-0.4-0.7-0.8c0-3.6,0-7.1,0-10.7c0-0.5,0.1-1.1,0.8-1
			c0.5,0.1,0.4,0.7,0.4,1C51.3,86.4,51.3,88.2,51.3,89.9L51.3,89.9z"/>
		<path class="st2" d="M45.4,89.9c0-1.8,0-3.6,0-5.4c0-0.4,0-0.9,0.6-0.9c0.4,0,0.5,0.4,0.5,0.8c0,3.7,0,7.4,0,11.1
			c0,0.4-0.2,0.7-0.6,0.6c-0.4,0-0.5-0.4-0.5-0.8C45.4,93.5,45.4,91.7,45.4,89.9L45.4,89.9z"/>
		<path class="st2" d="M48.8,89.8c0,1.7,0,3.5,0,5.2c0,0.5,0.1,1.1-0.6,1.1c-0.5,0-0.6-0.5-0.6-0.9c0-3.5,0-7,0-10.4
			c0-0.5,0-1.1,0.7-1.1s0.5,0.7,0.5,1.2C48.8,86.5,48.8,88.1,48.8,89.8z"/>
		<path class="st2" d="M53.7,90c0,1.7,0,3.5,0,5.2c0,0.4,0,0.9-0.6,0.9c-0.5,0-0.6-0.5-0.6-0.9c0-3.5,0-6.9,0-10.4
			c0-0.4,0-0.9,0.6-0.9c0.5,0,0.6,0.5,0.6,0.9C53.7,86.5,53.7,88.3,53.7,90z"/>
		<path class="st2" d="M55.9,90.1c0,1.7,0,3.3,0,5c0,0.5,0,1.1-0.6,1.1c-0.5,0-0.6-0.5-0.6-0.9c0-3.5,0-6.9,0-10.4
			c0-0.4,0-0.9,0.6-1c0.7,0,0.7,0.6,0.7,1C55.9,86.6,55.9,88.3,55.9,90.1L55.9,90.1z"/>
		<path class="st2" d="M58.3,90.1c0,1.7,0,3.5,0,5.2c0,0.4-0.1,0.9-0.7,0.8c-0.5,0-0.5-0.4-0.5-0.8c0-3.6,0-7.1,0-10.7
			c0-0.4,0-0.9,0.6-0.8c0.4,0.1,0.5,0.4,0.5,0.8C58.3,86.5,58.3,88.3,58.3,90.1L58.3,90.1z"/>
		<path class="st1" d="M62.2,79.9c0-4.7,0-9.3-0.1-14c0-1.2,0.5-1.5,1.7-1.5c4.1,0,8.2,0,12.3,0c1.2,0,1.6,0.4,1.6,1.6
			c0,4-0.1,7.9,0,11.9c0,1.6-0.6,2.1-2.1,2C71.1,79.9,66.7,79.9,62.2,79.9L62.2,79.9z M72.7,71.8L72.7,71.8c0,1.7,0,3.3,0,5
			c0,0.5-0.2,1.3,0.6,1.3c0.6,0,0.6-0.7,0.6-1.2c0-3.3,0-6.7,0-10c0-0.4,0.1-1.1-0.6-1.1c-0.6,0.1-0.6,0.7-0.6,1.2
			C72.7,68.6,72.7,70.2,72.7,71.8z M64.6,72.1L64.6,72.1c0-1.7,0-3.5,0-5.2c0-0.4,0-0.9-0.5-1c-0.6-0.1-0.7,0.4-0.7,0.8
			c0,3.5,0,7.1,0,10.6c0,0.3,0,0.7,0.5,0.8c0.6,0.1,0.7-0.4,0.7-0.8C64.6,75.6,64.6,73.8,64.6,72.1z M66.8,71.9c0-1.7,0-3.3,0-5
			c0-0.4,0-0.9-0.5-1c-0.6-0.1-0.7,0.4-0.7,0.8c0,3.5,0,7.1,0,10.6c0,0.4,0.1,0.7,0.5,0.8c0.6,0.1,0.7-0.4,0.7-0.8
			C66.8,75.5,66.8,73.7,66.8,71.9z M69.3,72c0-1.7,0-3.3,0-5c0-0.5,0-1.1-0.7-1.1c-0.5,0-0.6,0.5-0.6,0.9c0,3.5,0,7,0,10.5
			c0,0.4,0.1,0.9,0.6,0.9s0.6-0.5,0.6-0.9C69.3,75.5,69.3,73.7,69.3,72z M75.8,66c-0.1,0-0.3,0-0.4,0c0,4,0,8,0,11.9
			c0.1,0,0.3,0,0.4,0C75.8,74,75.8,70,75.8,66z M70.7,77.9c0.2,0,0.3,0,0.5,0c0-4,0-8,0-11.9c-0.2,0-0.3,0-0.5,0
			C70.7,70,70.7,73.9,70.7,77.9z"/>
		<path class="st0" d="M76.7,130.1c-1.7-0.1-2.9-0.8-3.2-2.5c-0.3-1.6,0.3-2.9,1.8-3.5c0.8-0.3,2.2-1.1,1.8,1.1
			c-0.1,0.7,0.4,1.3,1.1,1.1c2.1-0.5,1.4,0.8,1.1,1.7C79,129.3,78,130,76.7,130.1z"/>
		<path class="st2" d="M94,72.2c0,1.7,0,3.3,0,5c0,0.4,0,0.9-0.5,1c-0.6,0-0.6-0.5-0.6-0.9c0-3.5,0-7.1,0-10.6
			c0-0.4,0.1-0.9,0.6-0.9c0.6,0,0.5,0.6,0.5,1C94,68.6,94,70.4,94,72.2z"/>
		<path class="st2" d="M82.3,72c0,1.8,0,3.6,0,5.4c0,0.3,0,0.7-0.5,0.8c-0.4,0-0.6-0.3-0.6-0.7c0-3.7,0-7.3,0-11
			c0-0.4,0.2-0.7,0.6-0.7c0.5,0,0.5,0.4,0.5,0.8C82.3,68.4,82.3,70.2,82.3,72z"/>
		<path class="st2" d="M90.6,72c0-1.7,0-3.5,0-5.2c0-0.4,0-0.9,0.5-1c0.6,0,0.6,0.5,0.6,0.9c0,3.5,0,7.1,0,10.6
			c0,0.4-0.1,0.9-0.7,0.8s-0.5-0.6-0.5-1C90.6,75.5,90.6,73.7,90.6,72z"/>
		<path class="st2" d="M83.5,71.9c0-1.7,0-3.3,0-5c0-0.4-0.1-1.1,0.6-1.1c0.5,0,0.6,0.5,0.6,1c0,3.5,0,7,0,10.5c0,0.4,0,0.9-0.5,1
			c-0.7,0-0.6-0.6-0.6-1.1C83.5,75.4,83.5,73.6,83.5,71.9z"/>
		<path class="st2" d="M86.9,72.2c0,1.6,0,3.2,0,4.8c0,0.4,0.1,1.1-0.5,1.2c-0.7,0.1-0.6-0.6-0.6-1c0-3.4,0-6.8,0-10.2
			c0-0.5,0-1.1,0.6-1.1c0.7,0,0.5,0.7,0.5,1.2C87,68.7,86.9,70.5,86.9,72.2z"/>
		<path class="st2" d="M89.4,72.1c0,1.7,0,3.3,0,5c0,0.5,0.1,1.1-0.6,1.1c-0.5,0-0.6-0.5-0.6-0.9c0-3.5,0-7,0-10.5
			c0-0.4,0-0.9,0.5-1c0.7,0,0.7,0.6,0.7,1C89.4,68.6,89.4,70.3,89.4,72.1L89.4,72.1z"/>
		<path class="st2" d="M101.5,71.9c0-1.7,0-3.5,0-5.2c0-0.3,0.1-0.8,0.5-0.8c0.6-0.1,0.7,0.4,0.7,0.8c0,3.6,0,7.1,0,10.7
			c0,0.4-0.1,0.8-0.5,0.8c-0.6,0.1-0.7-0.4-0.7-0.8C101.5,75.5,101.5,73.7,101.5,71.9z"/>
		<path class="st2" d="M104.9,72.1c0,1.7,0,3.5,0,5.2c0,0.4-0.1,0.9-0.7,0.8c-0.4,0-0.5-0.4-0.5-0.8c0-3.5,0-7.1,0-10.6
			c0-0.4,0.1-0.9,0.7-0.8c0.5,0.1,0.5,0.6,0.5,1C104.9,68.6,104.9,70.3,104.9,72.1L104.9,72.1z"/>
		<path class="st2" d="M99.1,71.8c0-1.7,0-3.3,0-5c0-0.4,0-0.9,0.6-0.9c0.5,0,0.6,0.5,0.6,0.9c0,3.5,0,6.9,0,10.4
			c0,0.4-0.1,0.9-0.6,0.9s-0.6-0.5-0.6-0.9C99.1,75.4,99.1,73.6,99.1,71.8z"/>
		<path class="st2" d="M107.4,72.1c0,1.7,0,3.5,0,5.2c0,0.4-0.1,0.9-0.7,0.8c-0.4,0-0.5-0.4-0.5-0.8c0-3.6,0-7.1,0-10.7
			c0-0.4,0.1-0.9,0.7-0.8c0.5,0.1,0.5,0.6,0.5,1C107.4,68.6,107.4,70.3,107.4,72.1L107.4,72.1z"/>
		<path class="st2" d="M109.5,72c0,1.7,0,3.5,0,5.2c0,0.4-0.1,0.9-0.6,0.9s-0.6-0.5-0.6-0.9c0-3.5,0-6.9,0-10.4c0-0.4,0-0.9,0.6-0.9
			c0.5,0,0.6,0.5,0.6,0.9C109.5,68.5,109.5,70.3,109.5,72z"/>
		<path class="st2" d="M112,71.9c0,1.7,0,3.3,0,5c0,0.5,0.1,1.1-0.5,1.2c-0.7,0.1-0.6-0.6-0.6-1.1c0-3.4,0-6.8,0-10.2
			c0-0.4,0-1,0.5-1c0.7,0,0.6,0.6,0.7,1.1C112,68.6,112,70.3,112,71.9L112,71.9z"/>
		<path class="st2" d="M72.7,71.8c0-1.6,0-3.2,0-4.8c0-0.5-0.1-1.1,0.6-1.2s0.6,0.6,0.6,1.1c0,3.3,0,6.7,0,10c0,0.5,0.1,1.1-0.6,1.2
			c-0.8,0-0.6-0.8-0.6-1.3C72.6,75.2,72.7,73.5,72.7,71.8L72.7,71.8z"/>
		<path class="st2" d="M64.6,72.1c0,1.7,0,3.5,0,5.2c0,0.4-0.1,0.9-0.7,0.8c-0.4,0-0.5-0.5-0.5-0.8c0-3.5,0-7.1,0-10.6
			c0-0.4,0.1-0.9,0.7-0.8c0.5,0.1,0.5,0.6,0.5,1C64.6,68.6,64.6,70.4,64.6,72.1L64.6,72.1z"/>
		<path class="st2" d="M66.8,71.9c0,1.8,0,3.6,0,5.4c0,0.4-0.1,0.9-0.7,0.8c-0.4,0-0.5-0.4-0.5-0.8c0-3.5,0-7.1,0-10.6
			c0-0.4,0.1-0.9,0.7-0.8c0.5,0.1,0.5,0.6,0.5,1C66.8,68.5,66.8,70.2,66.8,71.9z"/>
		<path class="st2" d="M69.3,72c0,1.7,0,3.5,0,5.2c0,0.4-0.1,0.9-0.6,0.9s-0.6-0.5-0.6-0.9c0-3.5,0-7,0-10.5c0-0.4,0.1-0.9,0.6-0.9
			c0.7,0,0.6,0.6,0.7,1.1C69.3,68.6,69.3,70.3,69.3,72z"/>
		<path class="st2" d="M75.8,66c0,4,0,8,0,11.9c-0.1,0-0.3,0-0.4,0c0-4,0-8,0-11.9C75.5,66,75.7,66,75.8,66z"/>
		<path class="st2" d="M70.7,77.9c0-4,0-7.9,0-11.9c0.2,0,0.3,0,0.5,0c0,4,0,8,0,11.9C71,77.9,70.8,77.9,70.7,77.9z"/>
	</g>
</g>
</svg>
