<?xml version="1.0" encoding="utf-8"?>
<!-- Generator: Adobe Illustrator 21.0.0, SVG Export Plug-In . SVG Version: 6.00 Build 0)  -->
<svg version="1.1" id="Layer_1" xmlns="http://www.w3.org/2000/svg" xmlns:xlink="http://www.w3.org/1999/xlink" x="0px" y="0px"
	 viewBox="0 0 200 200" style="enable-background:new 0 0 200 200;" xml:space="preserve">
<style type="text/css">
	.st0{fill:#E6B047;}
	.st1{fill:#F9C844;}
	.st2{fill:#F3A735;}
	.st3{fill:#F5AA39;}
	.st4{fill:#F4A634;}
	.st5{fill:#ED9E34;}
	.st6{fill:#F9CC59;}
	.st7{fill:#ECA033;}
	.st8{fill:#E98932;}
	.st9{fill:#E68731;}
	.st10{fill:#DF8630;}
</style>
<g id="PIdNkU.tif">
	<g>
		<path class="st0" d="M98.6,182.8c-17.5-8.7-34.2-18.9-51.3-28.2c-2.2-1.2-4.4-2.4-6.6-3.6c0-0.4,0-0.9,0-1.3c0.1,0,0.3,0,0.4,0
			c0.1,0.1,0.3,0.3,0.4,0.4c0.2,0.4,0.5,0.4,0.9,0.5c8.2,5.1,16.7,9.5,25,14.3c8.2,4.7,16.4,9.1,24.6,13.9c5.1,3,9.9,3.9,15.3,0.5
			c4.6-2.9,9.6-5.4,14.4-8.1c7.4-4.1,14.7-8.3,22.1-12.3c5.3-2.9,10.6-5.7,15.8-8.6c0.6,1.3-0.6,1.3-1.2,1.6
			c-11.4,6.4-22.7,12.7-34.1,19c-5.9,3.3-11.9,6.5-17.7,9.9c-1.7,1-3.6,1.4-5.4,2.2C100.3,182.8,99.4,182.8,98.6,182.8z"/>
		<path class="st1" d="M159.6,150c-5.3,2.9-10.6,5.7-15.8,8.6c-7.4,4.1-14.8,8.2-22.1,12.3c-4.8,2.7-9.7,5.2-14.4,8.1
			c-5.3,3.4-10.2,2.5-15.3-0.5c-8.1-4.7-16.4-9.2-24.6-13.9c-8.3-4.8-16.9-9.2-25-14.3c0.6-0.7,1.2-1.5,1.9-2.1
			c30.7-30.8,61.5-61.5,92.3-92.3c3.3-3.3,3.3-3.3,7.5-1.5c1.3,4.9,1.8,10,2.6,14.9c2.1,12.2,4,24.5,6,36.8
			C155,120.9,157.3,135.4,159.6,150z"/>
		<path class="st2" d="M49.4,97.2c-0.1-2.2,0.4-4.3,0.9-6.4c0.5-0.1,1.3,0.2,1.3-0.7c0-0.7-0.7-0.6-1.2-0.6c-0.1-0.6,0-1.2,0.3-1.8
			c2.2-0.2,2.8-1.3,1.7-3.2c-0.3-0.5-0.6-1-0.9-1.5c-0.2-0.8,0.1-1.6,0.2-2.4c0.1-0.2,0.2-0.4,0.2-0.7L52,79.9c0,0,0.1-0.1,0.1-0.1
			c0.6-0.1,1.4,0.2,1.8-0.5c1.2-2.2,3.1-3.8,4.7-5.6c1.5-1.8,3.4-3.3,4.9-5.1c2-2.3,4.3-4.5,6.6-6.7c1.5-1.4,2.7-3.2,4.4-4.3
			c2.1-1.4,3.6-3.4,5.2-5.1c1.4-1.5,2.4-2,4.2-1.9c0.5,0.6,1,1.3,1,2.1c0,1-0.2,2.2,1.3,2.3c0.3,0.2,0.4,0.5,0.4,0.9
			c0.1,0.1,0.2,0.3,0.3,0.4c0.5,0.7,1,1.3,1.1,2.2c-2.7,0.2-3.8,2.3-4.8,4.3c-2,3.8-3.6,7.9-5.9,11.5c-5.6,8.7-9.8,18.2-14.6,27.3
			c-2.9,5.5-6.3,10.7-8.9,16.4c-2.6,5.6-6.2,10.8-8.8,16.4c-0.4,0.8-0.9,1.4-1.8,1.4c0.9-6.2,1.8-12.5,2.7-18.7
			c1-6.4,2.1-12.9,3.1-19.3C49.2,97.7,49.3,97.4,49.4,97.2z"/>
		<path class="st3" d="M83.9,50.6c-1.8-0.1-2.8,0.4-4.2,1.9c-1.6,1.7-3.1,3.7-5.2,5.1c-1.7,1.1-2.9,2.9-4.4,4.3
			c-2.3,2.1-4.6,4.3-6.6,6.7c-1.5,1.8-3.4,3.3-4.9,5.1c-1.6,1.8-3.4,3.5-4.7,5.6c-0.4,0.7-1.2,0.4-1.8,0.5
			c0.8-7.6,2.2-15.1,3.4-22.7c1.7-11,3.4-22.1,5.1-33.1c0.1-0.7,0.3-1.3,0.4-1.9c0.3-1.8,1.3-3,3.1-3.3c1.9-0.3,3.2,0.6,4.1,2.2
			c2.6,4.9,5.3,9.8,7.9,14.8C78.7,40.7,81.3,45.7,83.9,50.6z"/>
		<path class="st4" d="M89.2,58.9c0.1-0.3,0.2-0.5,0.4-0.8c1.8-1.2,3.4-2.4,4.4-4.6c0.9-2.1,1.6-4.9,4.6-5.5
			c0.6-0.1,1.1-0.9,1.3-1.7c0.1-0.7-0.3-1.7,0.9-1.9c1.1-0.1,1.8,0.6,2.4,1.3c0.7,0.9,1.2,2.1,2.6,2.2c0.5,0.4,0.8,1,0.9,1.7
			c0,1,0,2,1.2,2.4c0.2,0.3,0.3,0.6,0.5,0.9c-0.7,0.7-0.1,0.8,0.4,0.9c1.1,1.6,2.1,3.3,2.7,5.2c0,1,0,2,1.3,2.3
			c0.4,0.2,0.5,0.5,0.5,0.9c-0.7,0.7-0.1,0.8,0.5,0.9c1,1.3,1.7,2.7,2.2,4.3c-0.1,0.7-0.2,1.4,0.8,1.5c0.5,0.5,0.8,1.1,0.9,1.8
			c-3.9,4-7.7,7.9-11.7,11.8c-1.1,1.1-2.6,1.6-4.2,1.4c-4.1-7.8-8.3-15.6-12.4-23.4c0-0.1,0-0.3,0-0.4
			C89.3,59.6,89.2,59.2,89.2,58.9z"/>
		<path class="st5" d="M89.3,59.9c0,0.1,0,0.3,0,0.4c-0.9-0.1-1.3,0.4-1.7,1.1c-2.7,5.1-5.4,10.1-8,15.2c-4.5,8.7-9,17.4-13.6,26.1
			c-5.2,9.9-10.4,19.7-15.6,29.6c-2.1,4-4.1,8-6.2,11.9c-0.9,1.4-1.8,2.8-2.2,4.4l0,0c-0.4,0.2-0.5,0.5-0.5,0.9c0,0.1,0,0.3,0,0.4
			c-0.1-0.1-0.3-0.3-0.4-0.4c0.6-4.6,1.2-9.2,2.2-13.7c0.9,0,1.5-0.6,1.8-1.4c2.6-5.6,6.2-10.8,8.8-16.4c2.6-5.7,6-10.9,8.9-16.4
			c4.8-9.1,9-18.6,14.6-27.3c2.3-3.6,3.9-7.7,5.9-11.5c1-2,2.1-4.1,4.8-4.3c0,0,0,0,0,0C87.8,59.5,88.3,60,89.3,59.9z"/>
		<path class="st6" d="M41.5,150c0-0.1,0-0.3,0-0.4c0.4-0.2,0.5-0.5,0.5-0.9c0,0,0,0,0,0c1.1,0,1.6-1,2.2-1.6
			c15.4-15.4,30.8-30.8,46.2-46.2c4.4-4.4,8.7-8.8,13-13.2c4.8-4.7,9.6-9.5,14.4-14.2c0.4-0.4,0.6-0.8,0.7-1.3
			c1,0.1,1.4-0.7,1.9-1.3c5.8-5.7,11.5-11.5,17.3-17.3c2.3-2.3,5.1-1.9,6.3,0.9c-4.1-1.8-4.1-1.8-7.5,1.5
			c-30.8,30.8-61.5,61.5-92.3,92.3c-0.7,0.7-1.3,1.4-1.9,2.1C42.1,150.5,41.7,150.4,41.5,150z"/>
		<path class="st3" d="M105.7,47.9c-1.4-0.1-1.9-1.2-2.6-2.2c-0.6-0.8-1.2-1.5-2.4-1.3c-1.3,0.2-0.8,1.2-0.9,1.9
			c-0.1,0.8-0.7,1.6-1.3,1.7c-3.1,0.6-3.7,3.4-4.6,5.5c-1,2.2-2.6,3.4-4.4,4.6c2.5-4.8,4.9-9.7,7.5-14.4c1.5-2.7,4.9-2.6,6.5-0.1
			C104.4,45,105,46.5,105.7,47.9z"/>
		<path class="st7" d="M118.5,72.2c-0.1,0.5-0.3,1-0.7,1.3c-4.8,4.7-9.6,9.5-14.4,14.2c0-0.4-0.1-0.7-0.5-0.9
			c-0.2-1.2-0.9-2.1-1.3-3.1l0,0c1.6,0.2,3.1-0.3,4.2-1.4c3.9-3.9,7.8-7.9,11.7-11.8C118.1,70.9,118.3,71.6,118.5,72.2z"/>
		<path class="st3" d="M51.6,83.1c0.3,0.5,0.7,1,0.9,1.5c1,1.9,0.4,3-1.7,3.2C50.8,86.1,51.1,84.6,51.6,83.1z"/>
		<path class="st3" d="M86.2,55c-1.5-0.1-1.3-1.3-1.3-2.3C85.6,53.3,86,54.1,86.2,55z"/>
		<path class="st3" d="M50.4,89.5c0.5,0.1,1.1-0.1,1.2,0.6c0,0.9-0.8,0.6-1.3,0.7C50.4,90.4,50.4,89.9,50.4,89.5z"/>
		<path class="st3" d="M112.7,61.2c-1.3-0.3-1.3-1.3-1.3-2.3C112.1,59.5,112.5,60.3,112.7,61.2z"/>
		<path class="st3" d="M107.8,52c-1.3-0.3-1.3-1.3-1.2-2.4C107.2,50.3,107.7,51,107.8,52z"/>
		<path class="st3" d="M89.3,59.9c-1,0.1-1.5-0.4-1.3-1.4c0.4,0.2,0.7,0.7,1.2,0.4C89.2,59.2,89.3,59.6,89.3,59.9z"/>
		<path class="st3" d="M116.7,68.7c-1-0.1-0.9-0.8-0.8-1.5C116.3,67.7,116.6,68.1,116.7,68.7z"/>
		<path class="st3" d="M113.6,63c-0.6-0.1-1.1-0.2-0.5-0.9C113.5,62.3,113.6,62.6,113.6,63z"/>
		<path class="st3" d="M108.7,53.7c-0.6-0.1-1.1-0.2-0.4-0.9C108.6,53,108.7,53.3,108.7,53.7z"/>
		<path class="st3" d="M52.1,80c-0.1,0.2-0.2,0.4-0.2,0.7C51.9,80.4,52,80.2,52.1,80z"/>
		<path class="st3" d="M86.9,56.3c-0.1-0.1-0.2-0.3-0.3-0.4C86.7,56,86.8,56.2,86.9,56.3z"/>
		<path class="st3" d="M49.4,97.2c-0.1,0.2-0.2,0.5-0.3,0.7C49.2,97.7,49.3,97.4,49.4,97.2z"/>
		<path class="st8" d="M50.4,132.4c5.2-9.9,10.4-19.7,15.6-29.6c4.6-8.7,9-17.4,13.6-26.1c2.6-5.1,5.4-10.1,8-15.2
			c0.4-0.7,0.8-1.2,1.7-1.1c4.1,7.8,8.3,15.6,12.4,23.4c0,0,0,0,0,0c-1.8-0.2-2.8,0.9-4,2C83.6,99.8,69.5,113.9,55.5,128
			c-1.1,1.1-2.5,2-3.2,3.5C52,132.2,51.2,132.5,50.4,132.4z"/>
		<path class="st9" d="M50.4,132.4c0.8,0.1,1.6-0.1,1.9-0.9c0.7-1.6,2.1-2.4,3.2-3.5c14.1-14.1,28.1-28.2,42.2-42.2
			c1.1-1.1,2.2-2.2,4-2c0.4,1,1.2,1.9,1.3,3.1c-5.9,5.1-10.9,11-16.4,16.5c-12.6,12.5-25.1,25.2-37.7,37.7c-1.3,1.3-2.4,3.2-4.7,3.3
			C46.3,140.3,48.3,136.4,50.4,132.4z"/>
		<path class="st10" d="M44.2,144.3c2.3,0,3.4-1.9,4.7-3.3c12.6-12.5,25.1-25.2,37.7-37.7c5.5-5.5,10.5-11.4,16.4-16.5
			c0.4,0.2,0.4,0.6,0.5,0.9c-4.3,4.4-8.6,8.8-13,13.2c-15.4,15.4-30.8,30.8-46.2,46.2c-0.7,0.7-1.1,1.6-2.2,1.6
			C42.4,147.1,43.3,145.7,44.2,144.3z"/>
		<path class="st10" d="M42,148.7c0,0.4-0.1,0.7-0.5,0.9C41.6,149.3,41.6,148.9,42,148.7z"/>
	</g>
</g>
</svg>
