<?xml version="1.0" encoding="utf-8"?>
<!-- Generator: Adobe Illustrator 24.1.0, SVG Export Plug-In . SVG Version: 6.00 Build 0)  -->
<svg version="1.1" id="Layer_1" xmlns="http://www.w3.org/2000/svg" xmlns:xlink="http://www.w3.org/1999/xlink" x="0px" y="0px"
	 viewBox="0 0 107.6 114" style="enable-background:new 0 0 107.6 114;" xml:space="preserve">
<style type="text/css">
	.st0{fill:#FFFFFF;}
</style>
<polygon class="st0" points="100.4,91.8 70.2,96.7 56.5,95.6 45,92.8 34.8,87.2 28.7,82.3 24.2,77 19.7,70.5 17,65.6 14.2,59.6 
	11.4,50.9 8.2,37.6 8.8,33.9 16.2,29.7 16.2,27.7 17.1,22.8 19.7,19.4 16.8,16.3 17.3,13.5 20.2,13.3 20.7,15 21.3,17.5 21.1,19.9 
	25.1,18.9 27.2,21.5 30.1,24 34.3,25.2 36.6,27.2 42,28.6 44,30.3 40.3,32.4 40.4,36.2 40.8,46.2 42,53.7 43.2,62.4 48,68.8 
	52.3,75 58.4,80.4 64.5,84.5 72.7,87.2 77.3,87.8 80.3,85.8 84.1,83.8 85,84.1 83,87.3 80.5,88.5 87.9,89.8 90.9,89.8 92.4,88 
	93.3,89.3 96.2,89.3 99.5,89 "/>
<g id="HOsbAF.tif">
	<path d="M7.1,36.6c0.2-0.6,0.2-1.3,0.5-1.9c0.8-1.9,2.4-3.1,4.3-3.8c1-0.4,2-0.7,3-1.1c0.2-0.1,0.3-0.2,0.4-0.3
		c-0.7,0.1-1.4,0.2-2,0.5c-0.4,0.2-0.7,0.4-1.1,0.5c-0.9,0.2-1.5-0.4-1.3-1.3s1-1.6,2-1.8c0.5-0.1,1-0.2,1.5-0.4
		c1.4-0.6,2-1.9,1.5-3.3c-0.1-0.2-0.2-0.4-0.4-0.6c-0.3-0.3-0.4-0.6-0.1-0.9c0.3-0.4,0.7-0.7,1.1-1c0.5-0.5,1.1-0.8,1.7-1.3
		c0.9-0.8,0.9-1.6-0.2-2.3c-0.5-0.4-0.9-0.8-1.2-1.3c-0.8-1.4-0.3-2.6,1.3-3c0.7-0.2,1.4-0.2,2.1,0c1.3,0.4,1.8,1.5,1.4,2.9
		c-0.1,0.4-0.3,0.9-0.3,1.3c0,0.7,0.3,1.2,1,1.3c0.9,0.1,1.9,0,2.8,0.1c0.5,0,1,0,1.5,0.1s0.7,0.4,0.7,0.9c0,0.3-0.1,0.7-0.2,1
		c-0.1,0.2,0,0.4,0.1,0.6c0.7,0.7,1.6,0.9,2.5,1.1s1.8,0.3,2.7,0.5c1.3,0.3,1.7,0.8,1.9,2.1h0.1c1,0.1,1.9,0.5,2.7,1
		c0.6,0.4,1.1,0.8,1.8,1.1c0.6,0.3,1.2,0.4,1.8,0.6c0.1,0,0.2,0,0.2,0c1.9,0.7,3.7,1.4,5.6,2.2c1.2,0.5,2.3,1.3,2.9,2.4
		c0.4,0.7,0.5,0.9-0.4,1.1c-0.6,0.1-1.3,0.1-1.9-0.1c-1.2-0.3-2.3-0.7-3.5-1.1c-0.3-0.1-0.6-0.2-0.9-0.2c-1.4-0.2-2.2,0.4-2.3,1.7
		c-0.1,0.8,0,1.6,0,2.3c0.1,2.3,0.3,4.6,0.5,7c0.3,4.5,0.7,9,1.8,13.5c0.7,2.9,1.6,5.7,2.9,8.3c0.9,1.8,2,3.4,3.3,5
		c1.8,2.2,3.7,4.5,5.6,6.6c2.1,2.3,4.7,4,7.3,5.6c4.8,2.9,10.1,4.6,15.5,5.6c0.1,0,0.3-0.1,0.5-0.2c1-1,2-2,3.1-3
		c0.6-0.6,1.3-1.1,2.1-1.3c0.7-0.2,1.4-0.2,2,0.2c0,0.3,0,0.5,0,0.6c0,0.6-0.4,1.1-0.7,1.6c-0.4,0.5-0.9,1.1-1.3,1.6
		c-0.2,0.2-0.5,0.6-0.3,0.9c0.2,0.2,0.6,0.3,0.9,0.3c0.6,0,1.2,0,1.8-0.1c0.9-0.1,1.8,0.1,2.7,0.4c0.5,0.1,0.9,0.3,1.4,0.4
		c1,0.2,1.9-0.1,2.6-0.8c0.1-0.1,0.2-0.2,0.3-0.4c0.8,0.8,1.7,1,2.7,1c1.1,0,2.1-0.1,3.2-0.1c0.4,0,0.8,0,1.2,0.1
		c0.7,0.2,1.1,0.6,1.1,1.4c0,0.5-0.1,0.9-0.2,1.4c0,0.1-0.2,0.2-0.3,0.3c-0.9,0.5-1.9,0.7-2.9,0.8c-1.1,0.2-2.3,0.3-3.4,0.8
		c-0.1,0-0.2,0.1-0.2,0.1c-0.3,0.2-0.6,0.5-0.9,0.6c-0.3,0-0.7-0.2-1-0.3c-1-0.3-2-0.2-3,0.1c-1.1,0.3-2.3,0.7-3.4,1.1
		c-0.9,0.3-1.8,0.4-2.7,0.4c-0.9,0-1.7,0.2-2.6,0.3c-2.2,0.2-4.5,0.5-6.7,0.6c-0.9,0.1-1.9,0.1-2.8,0.1c-0.1,0-0.2,0-0.3,0
		c-0.6,0-1.3,0-1.9,0c-0.4,0-0.9-0.1-1.3-0.1c-3.5-0.3-7-0.6-10.5-1c-4-0.4-7.8-1.4-11.5-2.8c-4-1.5-7.7-3.6-11.1-6.2
		c-1.8-1.4-3.5-2.8-5.2-4.3c-1.4-1.2-2.5-2.8-3.7-4.3c-3.5-4.3-6.4-9-8.8-14c-2-4.2-3.8-8.6-4.8-13.1c-0.6-2.5-1.2-5-1.9-7.5
		c-0.4-1.5-0.9-2.9-1.6-4.2c-0.3-0.6-0.4-1.2-0.5-1.8C7.1,37,7.1,36.8,7.1,36.6z M14.7,54.7c0.3,0.4,0.4,0.9,1,1c0-0.1,0-0.2,0-0.3
		s0-0.3-0.1-0.4c-0.4-1.4-1-2.7-1.7-4c-0.1-0.1-0.2-0.2-0.3-0.3c0,0-0.1,0-0.1,0.1c0.1,1.3,0.8,2.4,1.1,3.6
		c-0.1-0.1-0.2-0.3-0.3-0.4c-0.4-0.6-0.7-1.3-1.1-1.9c-0.1-0.2-0.3-0.4-0.5-0.5c0,0-0.1,0-0.1,0.1s0,0.2,0,0.3
		c0.2,0.6,0.4,1.2,0.6,1.7c0.4,1,0.9,1.9,1.4,2.9s0.9,2,1.4,3c0.4,0.8,1,1.6,1.9,2.2c-0.1-0.2-0.1-0.2-0.1-0.3c-0.6-0.9-1.1-2-1.4-3
		c-0.3-1.1-0.8-2.2-1.5-3.1C14.8,55.1,14.8,54.9,14.7,54.7z M35.5,68.3c0.6,0.5,1.1,1,1.7,1.5c0.6,0.5,1.2,0.9,1.9,0.9
		c0.4,0,0.8,0.2,1.1,0.5c0.6,0.4,1,1,1.3,1.6c0.1,0.3,0.2,0.7,0.3,1c0.1,0.5-0.3,0.9-0.8,0.8c-0.6-0.1-1.2-0.2-1.7-0.5
		c-0.9-0.6-1.9-1.1-2.9-1.4c-0.2-0.1-0.4-0.1-0.7-0.1v0.1c0.1,0.1,0.2,0.2,0.3,0.3c0.5,0.3,1,0.7,1.6,1c2.3,1.1,4.6,2.1,6.9,3.2
		c1,0.5,1.9,1,2.8,1.6c1.7,1.1,2.8,2.8,4.3,4.2c-0.9,0.4-1.9,0.3-2.8,0.1c-0.4-0.1-0.7-0.2-1-0.4c-0.1-0.1-0.3-0.3-0.3-0.5
		c0-0.1,0.2-0.3,0.4-0.4s0.3-0.1,0.5-0.2v-0.1c-0.8-0.1-1.6-0.3-2.4-0.4c-0.3,0-0.5,0.2-0.3,0.5c0.3,0.6,0.5,1.1,1.1,1.4
		c1.1,0.6,2.3,0.7,3.5,0.8c0.8,0.1,1.5,0.1,2.4,0.2c-0.3,0.5-0.6,0.9-1,1.4c0.2,0,0.3,0.1,0.4,0.1c0.1,0,0.3,0,0.5,0
		c-0.1,0.1-0.2,0.1-0.3,0.2c-0.5,0.4-0.5,0.6,0,0.9c0.3,0.2,0.6,0.4,1,0.5c0.1,0,0.2,0,0.3,0c0.9-0.4,1.4-0.2,2,0.6
		c0.2,0.3,0.4,0.6,0.6,0.8c0.4,0.5,0.7,0.6,1.2,0.2c0.3-0.2,0.6-0.6,0.9-0.8c0.3-0.3,0.7-0.5,1-0.8c0,0,0,0.1,0.1,0.1
		c-0.4,0.5-0.8,1-1.1,1.4l0.1,0.1c0.4-0.2,0.8-0.4,1.1-0.6c1.1-0.8,2.4-0.8,3.7-0.5c1.6,0.3,3,1.1,4.5,1.7c0.4,0.2,0.8,0.4,1.3,0.5
		c0.9,0.1,1.8,0.4,2.6,0.6c0.7,0.2,1.3,0.4,2,0.2c0.4-0.1,0.8-0.3,1.2-0.4c0.1-0.1,0.2-0.2,0.3-0.3c-0.1-0.1-0.2-0.3-0.3-0.3
		c-0.5-0.2-1.1-0.3-1.6-0.5c-1-0.3-2-0.5-2.9-0.9c-0.6-0.2-0.7-0.5-0.3-1l0,0c-0.1,0-0.1,0-0.2,0c-0.9,0.2-1.8,0.2-2.7-0.1
		c-1.5-0.5-2.7-1.4-3.6-2.6C63,84.3,62.6,84,62,83.8c-2.6-0.7-5-1.7-7-3.5c-0.8-0.7-1.5-1.5-2-2.4c-0.1-0.1-0.1-0.4,0-0.4
		c0.3-0.2,0.2-0.3,0-0.5c-0.3-0.3-0.5-0.7-0.8-1c-0.5-0.5-1-1-1.4-1.5c-1-1.5-2-3.1-3-4.6c-0.1-0.1-0.1-0.3-0.2-0.3
		c-0.7-0.4-1.1-1.1-1.6-1.7c-0.1-0.1-0.2-0.1-0.3-0.3c-0.1,0.5-0.1,0.9-0.2,1.2c-0.2-0.5-0.4-1-0.7-1.4c-0.5-0.7-1-1.3-2-1.3
		c0-0.6,0.3-1.1,0.8-1.4s0.5-0.4,0.1-0.9c-0.2-0.2-0.3-0.5-0.4-0.8c-0.1-0.2-0.1-0.4-0.1-0.6c-0.4-1.6-0.9-3.2-1.3-4.8
		c-0.3-1.1-0.5-2.2-0.7-3.4c0-0.2-0.2-0.4-0.2-0.4c-0.1,0-0.4,0.1-0.5,0.2c-0.4,0.4-0.7,0.9-0.9,1.5c0,0.1-0.1,0.1-0.1,0.2h-0.1
		c0.1-0.7,0.2-1.4,0.4-2c0-0.2,0.2-0.4,0.4-0.5c0.2,0.1,0.3,0.2,0.5,0.4c0.1-0.3,0.3-0.6,0.4-0.9c0.2-0.7-0.1-1-0.8-0.9
		c0,0,0,0-0.1,0c0-0.1,0.1-0.3,0.1-0.4c0.3-0.9,0.4-1.8,0.2-2.7c-0.1-0.4-0.2-0.5-0.5-0.4c0.1-1.3,0.2-2.7,0.2-4
		c0-0.6-0.1-1.2-0.2-1.8c-0.1-0.4-0.3-0.6-0.6-0.5c0.2-1.2,0.4-2.4,0.5-3.7c0.1-1,0.1-2-0.4-3c-0.3-0.6-0.8-0.8-1.4-0.6
		c-0.2,0.1-0.4,0.2-0.6,0.3c-0.2,0.1-0.5,0.2-0.7,0.3c-1.2,0.2-2.4,0.4-3.6,0.7c-0.4,0.1-0.9,0.3-1.3,0.4c0.5,0.4,1.2,0.6,1.6,1.2
		c-1.3-0.1-2.4-0.5-3.5-0.7c0,0.1,0,0.1-0.1,0.1c-0.2,0.9-0.5,1.2-1.5,1.1c-0.6,0-1.2-0.1-1.8-0.1c0.1,0.1,0.1,0.1,0.2,0.1
		c0.6,0.2,0.7,0.7,0.2,1.1c-0.4,0.3-0.9,0.6-1.4,0.8c-0.7,0.3-1.5,0.4-2.2,0.2c-0.3-0.1-0.5,0-0.7,0.2c-0.3,0.3-0.3,0.6-0.2,1
		c0.1,0.2,0.2,0.5,0.3,0.7c0.3,0.5,0.6,1,0.8,1.5c0.2,0.5,0.1,0.7-0.3,1.1l-0.1,0.1c0,0.4-0.4,0.4-0.7,0.5c-0.5,0.1-1,0.1-1.4,0.2
		c-0.7,0.1-1,0.5-1.1,1.2c0,0.2,0,0.4-0.1,0.6c-0.1,0-0.2,0-0.2,0c-0.5-0.1-0.8,0.1-0.7,0.6c0,0.6,0.3,1.2,0.8,1.6
		c0.2,0.1,0.6,0.2,0.7,0.1c0.3-0.3,0.6-0.1,0.9,0c1.6,0.6,2.3,1.5,2.3,3.2c0,0.6,0,1.3-0.1,1.9c0,0.2-0.1,0.4-0.2,0.5
		c-0.2,0-0.4,0-0.5-0.1c-0.3-0.4-0.6-0.9-0.8-1.4c-0.3-0.9,0-1.4,1-1.6c-0.4-0.5-0.8-1-1.2-1.4c-0.3-0.3-0.7-0.3-0.9-0.1
		c-0.6,0.6-1.2,1.3-1.8,1.9c0.3,0.2,0.7,0.4,0.9,0.7c0.4,0.3,0.8,0.7,1.2,1.1c0.3,0.4,0.2,0.8-0.2,1.1c-0.1,0.1-0.3,0.2-0.5,0.3
		c1.5,0.2,2.2,1.2,2.6,2.5c0.1,0.4,0.3,0.9,0.4,1.3c0.2,0.6,0.9,0.8,1.3,0.3c0.1-0.1,0.2-0.2,0.3-0.4c0.2-0.2,0.5-0.3,0.8-0.1
		c0.1,0,0.2,0.1,0.3,0.1c-0.1-0.2-0.2-0.3-0.4-0.4c-0.7-0.6-1.4-1.2-2-1.9c-0.3-0.2-0.5-0.5-0.7-0.8c-0.1-0.1-0.1-0.3-0.1-0.4
		c0-0.1,0.2-0.1,0.3-0.1c0.4,0,0.7,0.1,1.1,0.1c0-0.3,0-0.5,0-0.8c0-0.4-0.1-0.9-0.1-1.3c0-0.3,0.1-0.6,0.3-0.8
		c0.2-0.2,0.5-0.3,0.8-0.4c0,0.1,0,0.1,0,0.2c0,0.5-0.1,0.9-0.2,1.4c0,0.5-0.1,1,0,1.5c0,0.4,0.3,0.6,0.7,0.3
		c0.4-0.3,0.8-0.7,1.2-1.1c0.5-0.6,0.8-0.6,1.2,0c0.3,0.4,0.7,0.9,1,1.3c0.2,0.3,0.3,0.6,0.4,0.9c0.1,0.4-0.1,0.8-0.6,0.8
		c-0.4,0-0.8,0-1.1-0.1c-0.4-0.1-0.8-0.4-1.2-0.6c0.2,0.5,0.6,0.9,0.9,1.2c0.5,0.4,1,0.8,1.5,1.3c0.6,0.5,0.9,1.2,0.7,2
		c-0.1,0.7,0.2,1.2,0.5,1.6c0.2,0.3,0.5,0.4,0.9,0.3c0.3-0.1,0.5-0.1,0.8-0.2c0.1,0.3,0.2,0.5,0.3,0.8c0.1,0.1,0.2,0.2,0.3,0.3
		c0.1-0.1,0.2-0.2,0.3-0.3c0.1-0.4,0.1-0.8,0.2-1.2c1.1,0.2,2,0.7,2.4,1.9c0.1,0.4,0.2,0.7,0.4,1.1c0.1,0.2,0.2,0.6,0.6,0.4
		c0.3-0.1,0.1-0.4,0-0.7c-0.3-0.7-0.6-1.4-0.9-2.1c-0.1-0.1-0.1-0.3-0.1-0.4c0.2,0,0.3,0.1,0.3,0.2c0.6,0.6,1.2,1.3,1.8,1.9
		c0.3,0.4,0.6,0.8,0.8,1.3c0.2,0.6,0,1.1-0.6,1.4c-0.2,0.1-0.4,0.2-0.6,0.2C36.4,68.3,35.9,68.3,35.5,68.3z M18.5,38.4
		c0.6-0.1,1.1-0.2,1.6-0.4c1.2-0.5,2.3-1,3.5-1.6s2.3-1.2,3.7-1.3c0.9-0.1,1.9-0.1,2.8-0.2c2-0.2,4-0.5,6-1.1
		c0.7-0.2,1.4-0.5,2.2-0.6c1.4-0.3,2.4-0.9,3.3-2c0.4-0.5,0.6-1.1,0.5-1.8c-0.1-0.6-0.3-0.8-0.9-0.8C37,28.4,33,29,28.9,30
		c-3.9,1-7.7,2.4-11.6,3.1c-0.2,0-0.5,0.3-0.7,0.4c0.2,0.2,0.4,0.4,0.6,0.5c0.3,0.2,0.6,0.3,1,0.5c-0.2,0.1-0.4,0.2-0.5,0.2
		c-0.1,0.1-0.3,0.2-0.3,0.3s0.2,0.3,0.3,0.4c0.2,0.2,0.5,0.3,0.8,0.5c0.2,0.1,0.3,0.3,0.1,0.4c-0.3,0.2-0.7,0.4-1,0.3
		c-0.6-0.1-1.2-0.3-1.8-0.5c-1.1-0.5-1.3-1.1-1-2.2c0,0,0,0,0-0.1c-0.4,0.1-0.8,0.1-1.1,0.2c-1.1,0.2-2.2,0.5-3.2,1.2
		c-0.9,0.6-1.4,1.5-1.2,2.6c0.2,0.8,0.6,1.5,1.1,2.2c0,0.1,0.2,0.1,0.3,0.1c0-0.3-0.1-0.5-0.1-0.7c-0.1-1-0.1-2,0.3-2.9
		c0.4-1,1.6-1.4,2.8-0.8c-0.3,0.1-0.5,0.2-0.8,0.3c-0.5,0.3-0.7,0.7-0.4,1.3c0.4,0.9,1.9,1.8,2.9,1.8c0.4,0,0.6-0.2,0.7-0.6
		c0-0.3,0-0.5,0-0.8c0.3,0,0.6,0,0.9-0.1c0.6-0.1,1.1-0.2,1.7-0.2c0.4,0,0.5,0.1,0.4,0.5C18.7,38,18.6,38.1,18.5,38.4z M37.9,87.9
		c0,0.1-0.1,0.1-0.1,0.2c0.2,0.1,0.4,0.3,0.6,0.4c2.4,1.6,5,2.6,7.6,3.7c1.9,0.8,3.9,1.5,5.9,1.8c3.5,0.5,6.9,1,10.4,1.5
		c3.2,0.4,6.4,0.5,9.7,0.1c0.6-0.1,1.1-0.2,1.7-0.3c-0.8-0.4-1.6-0.6-2.4-0.5c-1,0-2,0.1-3.1,0.1c-1.2,0.1-2.4,0-3.6-0.5
		c-0.1-0.1-0.3-0.1-0.4,0c-1.5,0.3-3,0.3-4.6,0.1c-1.6-0.2-3.3-0.4-4.9-0.6c-0.7-0.1-1.3-0.2-1.9-0.4c-1.3-0.5-2.6-1-3.9-1.5
		c-2.8-1.1-5.6-2.2-8.2-3.7c-0.5-0.3-1.2-0.5-1.8-0.7c-0.1,0-0.2,0-0.3,0c0.1,0.2,0.2,0.3,0.4,0.4c1.6,1,3.2,1.9,4.9,2.6
		c0.3,0.1,0.7,0.4,1,0.5c-0.1,0.1-0.1,0.1-0.1,0.1c-0.1,0-0.2,0-0.3-0.1c-1.5-0.7-3-1.3-4.5-2C39.4,88.7,38.7,88.3,37.9,87.9z
		 M30.5,79.7c-1,0.2-1.7-0.3-2.2-1.1c-0.3-0.5-0.6-1-0.9-1.5c-0.2-0.3-0.4-0.6-0.9-0.5c-0.1,0-0.1,0-0.2-0.1
		c-0.7-0.3-1.2-0.8-1.5-1.5c-0.2-0.6-0.4-1.1-0.6-1.7c-0.4-1.2-1-2.1-2.1-2.8c-0.1-0.1-0.2-0.2-0.3-0.3c-0.3-0.5-0.5-1.1-0.8-1.5
		c-0.5-0.7-1.1-1.4-1.7-2.1c-0.8-1-1.5-2.1-2-3.3c-0.4-1.2-1.1-2.4-1.9-3.4c-0.1-0.1-0.2-0.2-0.3-0.3c0,0.1,0,0.2,0,0.2
		c0.1,0.2,0.1,0.4,0.2,0.6c1,2.7,2.4,5.2,4,7.6s3.2,4.7,4.7,7.2c1.2,2.1,2.6,4,4.4,5.4c1.2,0.9,2.3,1.9,3.3,3c0.8,0.8,1.8,1.2,3,1.4
		c0.2,0,0.4-0.1,0.6-0.1c0-0.2,0-0.4-0.1-0.6c-0.6-0.9-1.5-1.6-2.5-1.9c-0.5-0.1-0.8-0.3-1.1-0.7c-0.4-0.4-0.8-0.8-1.2-1.2
		C30.1,80.3,30.1,80.2,30.5,79.7z M32.4,69.4C32.4,69.3,32.4,69.3,32.4,69.4c-0.3-0.3-0.6-0.4-0.8-0.6c-0.3-0.2-0.3-0.5,0.1-0.6
		c0.2-0.1,0.5-0.2,0.7-0.3c0.2-0.1,0.4-0.2,0.6-0.4c-0.2-0.1-0.2-0.1-0.3-0.1c-0.7-0.2-1.5-0.4-2.2-0.6c-0.4-0.1-0.8-0.2-1.1-0.2
		c-0.1,0-0.2,0-0.3,0.1c0,0.1,0,0.3,0.1,0.4c0.1,0.2,0.3,0.3,0.5,0.5l0,0c-0.4-0.1-0.8-0.3-1.3-0.4c0.1,0.4,0.2,0.6,0.2,0.9
		c-0.4,0-0.7-0.1-1.1-0.1c0.4,0.7,1.1,1,1.4,1.7c-0.3,0-0.6,0-0.9,0c0.8,0.7,1.6,1.4,2.5,2l-0.1,0.1c-0.6-0.3-1.2-0.5-1.8-0.8
		l-0.1,0.1c0.1,0.2,0.2,0.4,0.4,0.5c0.4,0.3,0.7,0.5,1.1,0.7c0.9,0.5,1.9,1,2.9,1.6c0.6,0.3,1.1,0.6,1.7,0.9
		c0.2,0.1,0.4,0.1,0.5,0.2c0,0,0-0.1,0.1-0.1c-0.4-0.4-0.8-0.7-1.2-1.1c0.3-0.6,0.2-0.8-0.2-1.2c-0.2-0.2-0.5-0.4-0.7-0.6
		c-0.3-0.2-0.4-0.5-0.1-0.8c-0.6-0.4-1.2-0.8-1.7-1.2c0,0,0-0.1,0.1-0.1C31.6,69.4,32,69.4,32.4,69.4z M25.8,28.9
		c-0.1-0.3-0.2-0.7-0.2-1c0-0.4,0.3-0.6,0.6-0.3c0.3,0.3,0.5,0.6,0.8,0.9c0.2,0.3,0.4,0.6,0.7,0.9c0.6,0.6,1.3,0.4,1.6-0.4
		c0.2-0.6,0.2-1.1,0-1.7c0.5,0.4,0.9,1,1.5,1.2l0.1-0.1c-0.4-0.5-0.7-1-1.1-1.5c0.1-0.2,0.3-0.4,0.4-0.7c0.1-0.3,0-0.5-0.3-0.5
		s-0.6,0-0.8,0c-2.2,0.6-4.4,1.1-6.6,1.7c-1.7,0.4-3.3,0.9-5,1.4C17.3,28.9,17.2,29,17,29v0.1c0.2,0,0.4,0,0.6-0.1
		c1.1-0.3,2.2-0.7,3.3-0.9C22.7,27.9,24.3,27.7,25.8,28.9z M26.8,59.1c0.1,0.2,0.2,0.3,0.3,0.5c0.1,0.4,0.3,0.7,0.4,1.1
		c0.1,0.4-0.1,0.6-0.5,0.6c-0.1,0-0.3,0-0.4-0.1c-0.6-0.2-1.2-0.5-1.8-0.7c-0.4-0.1-0.8-0.3-1.1-0.3c-0.4-0.1-0.6,0.2-0.5,0.6
		c0.2,0.4,0.4,0.8,0.6,1.2c0.1,0.1,0.1,0.3,0.1,0.4c0,0-0.1,0-0.1,0.1c0.2,0.1,0.4,0.2,0.7,0.3c1.1,0.5,2.1,1,3.2,1.5
		c0.5,0.2,1,0.5,1.5,0.7c0.3,0.1,0.6,0.2,0.9,0.3c0.1,0,0.3,0,0.4,0c0.1-0.1,0-0.3,0-0.4c-0.4-0.7-0.7-1.4-1.4-1.8
		c-0.2-0.1-0.4-0.4-0.4-0.6c-0.2-0.4-0.3-0.8-0.4-1.2c-0.2-0.6-0.3-1.3-0.5-1.9C27.6,59,27.3,58.9,26.8,59.1z M35.9,78.7
		c0.5-0.1,0.9-0.1,1.4-0.2c0.2-0.1,0.4-0.3,0.6-0.4c-0.2-0.2-0.4-0.4-0.6-0.5c-1-0.4-2-0.8-3-1c-0.7-0.2-1.5-0.3-2.3-0.3
		c-0.5,0-0.6,0.3-0.3,0.7c0.4,0.5,0.8,1,1.5,1.1c0.1,0,0.2,0,0.3,0.1C34.2,78.6,35.1,78.7,35.9,78.7z M23.2,22.2
		c0,0.3-0.1,0.6,0,0.8c0.2,1.1,0.9,1.9,1.7,2.5c0.3,0.2,0.7,0.4,1.2,0.3c0.4-0.1,0.6-0.2,0.5-0.6c0-0.3-0.1-0.6-0.2-0.8
		c-0.1-0.3,0-0.4,0.3-0.3c0.2,0.1,0.4,0.2,0.6,0.2c0,0,0-0.1,0.1-0.1C26.4,22.9,24.7,22.9,23.2,22.2z M85.9,90
		c-0.4,0-0.9-0.1-1.3-0.1c-1.6-0.2-3.2-0.4-4.8-0.5c-0.7-0.1-1.4,0-2,0.3c-0.3,0.1-0.5,0.4-0.5,0.8c0.5,0,1,0.1,1.4,0.1
		c0.6,0,1.3,0,1.9,0c1,0.1,2,0.2,3,0.2c0.5,0,1-0.1,1.5-0.1C85.5,90.5,85.8,90.4,85.9,90z M18,16.6c-0.1-0.1-0.1-0.2-0.2-0.3
		c-0.1-0.1-0.1-0.2-0.1-0.3c-0.2-0.4,0-0.6,0.4-0.6c0.3,0,0.7,0,1,0c0.4,0,0.8,0,1.2,0c0.2,0,0.5-0.2,0.4-0.4
		c-0.2-0.4-0.4-0.8-0.7-1.1c-0.5-0.4-1-0.5-1.6-0.2c-0.7,0.4-1,0.9-1.1,1.7C17.3,16,17.5,16.4,18,16.6z M64.1,89.9
		c0-0.2,0-0.4-0.1-0.6c-0.1-0.6-0.4-0.8-1-0.5c-0.5,0.3-1,0.7-1.5,1.1c-0.2,0.1-0.3,0.4-0.3,0.6c0,0.1,0,0.3,0.1,0.4
		c0,0.1,0.2,0,0.3,0c0.2-0.1,0.4-0.2,0.6-0.4c0.2-0.2,0.4-0.1,0.5,0.1c0,0.1,0.1,0.3,0.1,0.4c0.1,0.1,0.2,0.1,0.3,0.1
		C63.5,91.1,64.1,90.3,64.1,89.9z M56.4,93.1c-0.5-0.4-1-0.6-1.6-0.7c-1.2-0.3-2.5-0.5-3.7-0.8c-0.6-0.1-1.2-0.2-1.9-0.4
		C50.2,92.2,55.4,93.6,56.4,93.1z M20.4,42.2L20.4,42.2c-0.4,0.1-0.8,0-1.1,0c-0.1,0-0.3,0.1-0.4,0.1c0.1,0.1,0.1,0.3,0.2,0.4
		c0.7,0.5,1.9,0.3,2.4-0.4c0.2-0.3,0.2-0.6-0.2-0.8c-0.2-0.1-0.5-0.2-0.7-0.2c-0.7-0.1-1.4-0.1-2.1-0.1c-0.1,0-0.2,0-0.3,0v0.1
		C18.9,41.6,19.6,41.9,20.4,42.2z M37.9,76.7L37.9,76.7c0.5,0.6,1.1,1.2,1.8,1.6c0.6,0.3,1.2,0.4,1.9,0.5c0.2,0,0.5-0.1,0.7-0.2
		c-0.2-0.1-0.4-0.4-0.6-0.4c-0.7-0.1-1.3-0.5-1.9-0.9c-0.1-0.1-0.2-0.1-0.3-0.2C38.9,77,38.5,76.7,37.9,76.7z M23.6,25.3
		c-0.3-0.7-1-1.1-1.6-0.9c-1,0.3-1.9,0.6-2.8,0.9c-0.2,0.1-0.4,0.2-0.6,0.3c0,0.1,0,0.1,0.1,0.2c0.3-0.1,0.6-0.1,0.9-0.2
		c0.2-0.1,0.4-0.2,0.7-0.2c0.8,0,1.5,0,2.3,0C22.8,25.3,23.2,25.3,23.6,25.3z M40.3,76.8L40.3,76.8c0.7,0.4,1.5,0.8,2.2,1
		c0.8,0.2,1.6,0.3,2.4,0.1c-0.1-0.1-0.2-0.2-0.4-0.2c-0.3-0.1-0.7-0.1-1.1-0.2c-0.3-0.1-0.5-0.2-0.8-0.3
		C41.9,76.8,41.1,76.7,40.3,76.8z M98.6,90.1c-1.6-0.3-3.1-0.2-4.7,0.1c0,0.1,0,0.1,0,0.2C95.5,90.8,97,90.4,98.6,90.1z M46.9,31.3
		c0,0-0.2,0.1-0.3,0.1c0.1,0.1,0.1,0.2,0.2,0.3c0.1,0.1,0.2,0.1,0.3,0.2c0.5,0.3,1,0.5,1.3,1.1c0.1,0.2,0.3,0.2,0.4-0.1
		c0.1-0.3,0-0.7-0.3-1C48,31.6,47.5,31.4,46.9,31.3z M43.5,82.9c-0.4-0.6-2.5-1.5-2.9-1.3C40.9,82.3,42.5,83.1,43.5,82.9z
		 M64.5,90.5c0,0.3,0.3,0.6,0.4,0.5c0.5-0.4,0.9-0.7,1.4-1.1c0.1-0.1,0.1-0.2,0.1-0.3c0,0-0.2-0.1-0.3-0.1c-0.6,0.1-1.1,0.3-1.4,0.7
		C64.6,90.2,64.6,90.4,64.5,90.5z M16.2,42.3c-0.3,0.1-0.5,0.1-0.7,0.2c-0.1,0.1-0.2,0.2-0.2,0.3c0.1,0.4,0.8,0.7,1.1,0.4
		c0.2-0.2,0.3-0.4,0.4-0.6C16.6,42.5,16.4,42.4,16.2,42.3z M22.4,20.6c0.7,0.1,1.4,0,1.9-0.4c-0.5-0.4-1-0.4-1.5-0.2
		C22.6,20.1,22.4,20.2,22.4,20.6z M16.7,48.8c0-0.7-0.5-1.2-1-1.1c-0.2,0-0.4,0.2-0.4,0.3s0.1,0.3,0.3,0.4
		C16,48.6,16.3,48.7,16.7,48.8z M43.2,80.3c-0.8-0.5-1.5-0.8-2.4-0.9C41,80,42.4,80.6,43.2,80.3z M15.2,46.3
		c0.2,0.3,1.1,0.9,1.4,0.8c0.2,0,0.3-0.2,0.4-0.3c0,0,0-0.2-0.1-0.3C16.7,46.3,15.6,46.1,15.2,46.3z M38.4,76.1
		c-0.4-0.5-2-1.2-2.4-1C36.5,75.9,37.5,75.8,38.4,76.1z M13.3,49c0,0,0.1,0,0.1-0.1c-0.1-0.3-0.2-0.7-0.4-1
		c-0.1-0.1-0.3-0.2-0.5-0.3c-0.1,0.2-0.2,0.4-0.2,0.6C12.5,48.7,12.9,48.9,13.3,49z M71.8,91.5c-0.6,0-1.1,0.3-1.5,0.7
		c-0.1,0.1,0,0.3-0.1,0.5h0.1C70.9,92.4,71.5,92,71.8,91.5z M66.3,90.8c-0.4,0-1.1,0.4-1.3,0.7c-0.1,0.2,0,0.3,0.2,0.3
		C65.6,91.9,66.3,91.3,66.3,90.8z M35.1,66.8c0-0.6-0.5-1-1-0.9c-0.1,0-0.2,0.1-0.2,0.2s0.1,0.2,0.1,0.2
		C34.3,66.5,34.7,66.6,35.1,66.8z M51.6,85.7c-0.5-0.2-1.3-0.1-1.5,0.2C50.5,86.4,51.2,86.2,51.6,85.7z M44.8,85.2
		c0.2,0.3,0.6,0.5,1.3,0.5c-0.1-0.2-0.1-0.4-0.2-0.6C45.7,84.9,45.1,85,44.8,85.2z M67.2,91.5c0.5-0.1,0.8-0.4,1.1-0.7
		c0,0,0.1-0.2,0-0.2c0-0.1-0.1-0.1-0.2-0.1C67.6,90.5,67.2,91,67.2,91.5z M19.5,56.5c0.5,0.5,1.1,0.5,1.4-0.1
		C20.5,56.3,20,56.3,19.5,56.5z M25.1,67.5c0,0.1-0.1,0.1-0.1,0.2c0.5,0.3,1.1,0.6,1.6,0.9c0,0,0-0.1,0.1-0.1
		C26.3,67.9,25.8,67.5,25.1,67.5z M69.1,91.5c-0.5-0.1-1,0.2-1.1,0.4c0,0.1,0,0.2,0,0.3c0,0.1,0.2,0.1,0.3,0.1
		C68.5,92.1,68.8,91.8,69.1,91.5z M22.9,65.8c0.3,0.5,0.8,0.8,1.3,1.1C24,66.2,23.5,65.8,22.9,65.8z M39.5,84.5
		c-0.5-0.1-1,0.1-1.2,0.4C38.8,85.1,39.2,85,39.5,84.5z M32.8,75.1L32.8,75.1c-0.5-0.2-1-0.3-1.5-0.4v0.1
		C31.7,75,32.2,75.3,32.8,75.1z M47.4,90.9L47.4,90.9c0.1-0.2,0.1-0.4,0-0.5c-0.2-0.2-0.6-0.1-0.9,0.2
		C46.8,90.7,47.1,90.8,47.4,90.9z M42.9,88.5c0.1,0,0.1,0,0.2-0.1c0-0.2,0.1-0.4,0.1-0.6c-0.2,0-0.4-0.1-0.6-0.1
		c-0.1,0-0.2,0.1-0.3,0.2C42.6,88.1,42.8,88.3,42.9,88.5z M11.5,39.5c0.2,0.1,0.3,0.2,0.4,0.3c0.2,0.1,0.4,0,0.5-0.2
		c0.1-0.1,0.1-0.2,0.1-0.3c-0.2,0-0.4-0.1-0.5,0C11.9,39.3,11.8,39.4,11.5,39.5z M38.9,82.2c0,0.1,0,0.1,0,0.2
		c0.3,0.1,0.5,0.2,0.8,0.3c0.1,0,0.2-0.1,0.3-0.2c-0.1-0.1-0.1-0.2-0.2-0.2C39.5,82.2,39.2,82.2,38.9,82.2z M42.6,84.5L42.6,84.5
		c0.5,0.5,0.9,0.5,1.3,0.1C43.5,84.6,43.1,84.5,42.6,84.5z M34.7,75.8L34.7,75.8c-0.4-0.2-0.9-0.3-1.3-0.5
		C33.8,75.8,34.3,76,34.7,75.8z M15.2,49.1c0,0,0,0.1-0.1,0.1c0.3,0.2,0.7,0.3,1.1,0.5C16.1,49.2,15.7,49,15.2,49.1z M69.2,91.9
		C69.2,91.9,69.2,92,69.2,91.9c0.7,0,1.1-0.2,1.3-0.8C70,91.4,69.6,91.7,69.2,91.9z M55.2,79L55.2,79c0-0.3-0.1-0.5-0.2-0.6
		c0,0-0.3,0-0.3,0.1c-0.1,0.1-0.1,0.3-0.1,0.4C54.8,79,55,79,55.2,79z M80.3,85.8c-0.2,0.1-0.4,0.3-0.6,0.4c0.1,0.1,0.3,0.3,0.4,0.3
		c0.2-0.1,0.3-0.3,0.4-0.4C80.5,86,80.4,85.9,80.3,85.8z M17.4,43.6c0,0.1,0,0.1,0,0.2c0.2,0.1,0.4,0.2,0.7,0.2
		c0.1,0,0.2-0.1,0.2-0.2c0-0.1-0.1-0.2-0.2-0.2C17.9,43.5,17.7,43.6,17.4,43.6z M23,68.8l-0.1,0.1c0.4,0.3,0.8,0.7,1.1,1
		C23.9,69.3,23.5,69,23,68.8z M17.1,44.8c0-0.4,0.1-0.7-0.2-0.7c-0.1,0-0.3,0.3-0.4,0.4C16.6,44.6,16.8,44.7,17.1,44.8z M74.7,95.2
		c0.5,0.4,0.8,0.3,0.9-0.2C75.3,94.9,75,94.9,74.7,95.2z M44,82.2L44,82.2c0-0.2-0.1-0.4-0.2-0.4c-0.2,0-0.4,0-0.6,0
		c0,0.1,0,0.1,0,0.2C43.5,82,43.8,82.1,44,82.2z M51,87.2L51,87.2c-0.7-0.2-1.3-0.2-2-0.3c0,0.1,0,0.1,0,0.2
		C49.7,87.1,50.3,87.2,51,87.2z M60.5,89.6c0,0.1,0.1,0.1,0.1,0.2c0.4-0.2,0.7-0.5,1.1-0.7c0-0.1-0.1-0.1-0.1-0.2
		C61.2,89.1,60.9,89.4,60.5,89.6z M25.3,57.2c0-0.2,0-0.3-0.1-0.4c0-0.1-0.2-0.2-0.2-0.2c-0.1,0.1-0.2,0.2-0.2,0.3
		C24.7,57.2,25,57.2,25.3,57.2z M88.1,90.1c-0.1-0.1-0.2-0.2-0.2-0.3c-0.1,0.1-0.3,0.3-0.4,0.4c0.1,0.1,0.2,0.2,0.2,0.2
		C87.8,90.4,87.9,90.3,88.1,90.1z M56.3,91.4c0.6-0.1,0.8-0.3,0.5-0.8C56.7,90.9,56.5,91.1,56.3,91.4z M57.2,80.7
		c-0.2-0.4-0.3-0.5-0.6-0.5c-0.1,0-0.1,0.1-0.2,0.2c0,0,0.1,0.1,0.1,0.2C56.7,80.6,56.9,80.6,57.2,80.7z M92.4,89.6
		c-0.1,0-0.1,0-0.2-0.1C92.1,89.7,92,89.9,92,90c0.1,0,0.2,0.1,0.3,0C92.6,89.9,92.4,89.7,92.4,89.6z M22.9,63.3c0,0.1,0,0.2,0,0.2
		c0.2,0,0.4,0,0.6,0c0-0.1,0-0.2,0-0.3C23.3,63.3,23.1,63.3,22.9,63.3z M84.3,83.8c-0.1,0-0.1,0-0.2,0c-0.1,0.2-0.2,0.3-0.2,0.5
		c0,0.1,0.2,0.1,0.3,0.2C84.3,84.2,84.3,84,84.3,83.8z M35.2,80c0-0.1,0-0.1,0.1-0.2c-0.3-0.1-0.6-0.2-1-0.4c0,0.1,0,0.1-0.1,0.2
		C34.5,79.8,34.8,79.9,35.2,80z M19.7,54.6c0-0.1,0-0.1,0-0.2c-0.2,0-0.5,0.1-0.7,0.1c0,0.1,0,0.1,0,0.2
		C19.2,54.6,19.5,54.6,19.7,54.6z M23.5,38.6C23.5,38.5,23.4,38.5,23.5,38.6c-0.2,0-0.4,0-0.6,0.1v0.1c0.1,0.1,0.2,0.1,0.3,0.2
		C23.4,38.8,23.4,38.7,23.5,38.6z M40.1,74.2c0-0.1,0.1-0.1,0.1-0.2c-0.1-0.1-0.3-0.2-0.4-0.3c0,0.1-0.1,0.2-0.1,0.2
		C39.8,74,40,74.1,40.1,74.2z M38.3,73.1c0-0.1,0.1-0.1,0.1-0.2c-0.1-0.1-0.2-0.2-0.3-0.2c0,0-0.1,0.1-0.2,0.2
		C38.1,73,38.2,73.1,38.3,73.1z M40.3,87L40.3,87c-0.2,0.1-0.2,0.3-0.3,0.4c0.1,0,0.3,0,0.5,0C40.4,87.2,40.3,87.1,40.3,87z"/>
</g>
</svg>
