<?xml version="1.0" encoding="utf-8"?>
<!-- Generator: Adobe Illustrator 21.0.0, SVG Export Plug-In . SVG Version: 6.00 Build 0)  -->
<svg version="1.1" id="Layer_1" xmlns="http://www.w3.org/2000/svg" xmlns:xlink="http://www.w3.org/1999/xlink" x="0px" y="0px"
	 viewBox="0 0 200 200" style="enable-background:new 0 0 200 200;" xml:space="preserve">
<style type="text/css">
	.st0{fill:#FFFFFF;}
	.st1{fill:#E06344;}
</style>
<polygon class="st0" points="47.4,69.9 90.9,26.4 167.5,100 105,157.5 51,114.5 "/>
<g id="rJxlfG.tif">
	<g>
		<path class="st1" d="M96.9,21.8c1.8,0,3.5,0,5.3,0c3,1.1,5.2,3.3,7.4,5.5c21.1,21.2,42.3,42.3,63.5,63.5c2.2,2.2,4.2,4.4,5.1,7.4
			c0,1.5,0,3,0,4.5c-1.5,3.6-4.4,6.1-7.1,8.8c-20.5,20.5-41,40.9-61.4,61.4c-2.2,2.2-4.4,4.4-7.5,5.3c-1.5,0-3,0-4.5,0
			c-1.6-1-3.5-1.6-4.9-3.1c-4.3-4.4-8.7-8.6-13-13c-16.7-16.7-33.4-33.4-50.1-50.1c-2.9-2.9-6.1-5.6-7.9-9.4c0-1.9,0-3.8,0-5.7
			c1.1-1.4,1.7-3.1,3-4.5C40,77.3,55.2,62.2,70.3,47c1-1,1.6-1,2.5,0c5,5.1,10.2,10.2,15.3,15.3c0.9,0.9,1,1.6,0.7,2.8
			c-1.4,5.3,0.7,10.6,5.5,13.3c1.2,0.7,1.5,1.5,1.5,2.7c0,13,0,26,0,39c0,1.4-0.3,2.3-1.7,3c-4.7,2.7-6.7,8.2-5.3,13.4
			c1.3,4.8,5.9,8.4,10.8,8.5c5.7,0.2,10.3-3,12-8.2c1.6-5-0.2-10.4-4.7-13.4c-1-0.7-1.4-1.4-1.4-2.6c0-13,0-26,0-39
			c0-0.5-0.3-1.1,0.3-1.4c0.1,0.1,0.3,0.1,0.4,0.2c4.7,4.7,9.4,9.4,14.2,14.1c1,0.9,1.3,1.7,0.9,3.1c-1.2,4.4,0,8.2,3.2,11.4
			c3.2,3.1,7.1,4.1,11.5,3c6-1.7,9.8-7.9,8.5-13.9c-1.4-6.3-7.4-10.3-13.8-9.2c-1,0.2-1.8,0.6-2.8-0.4c-5.1-5.3-10.4-10.4-15.6-15.6
			c-0.6-0.6-0.7-1.1-0.6-2c1.8-9.2-5.1-16.1-14.4-14.4c-0.8,0.1-1.3,0.1-1.8-0.5c-5.5-5.5-11-11-16.5-16.5c-0.6-0.6-0.7-1,0-1.6
			C85.2,32.8,89.9,26,96.9,21.8z"/>
	</g>
</g>
</svg>
