<?xml version="1.0" encoding="utf-8"?>
<!-- Generator: Adobe Illustrator 24.1.0, SVG Export Plug-In . SVG Version: 6.00 Build 0)  -->
<svg version="1.1" id="Layer_1" xmlns="http://www.w3.org/2000/svg" xmlns:xlink="http://www.w3.org/1999/xlink" x="0px" y="0px"
	 viewBox="0 0 200 200" style="enable-background:new 0 0 200 200;" xml:space="preserve">
<style type="text/css">
	.st0{fill:#CA4896;}
</style>
<g id="BrZUh6_1_">
	<g>
		<path class="st0" d="M114.7,31.8c0,0.2,0,0.4,0,0.6c-1,3.1,0.7,4.4,3.2,5.8c9.5,5.3,18.9,10.8,28.2,16.3c1.4,0.8,2.4,0.9,3.8-0.2
			c8.4-6.3,19.4-3,23.1,6.8c2.7,7-1.2,15.6-8.5,18.4c-1.7,0.7-2.1,1.5-2.1,3.2c0.1,11.6,0,23.3,0,34.9c0,1.5,0.2,2.2,1.9,2.9
			c5.8,2.3,9.2,6.8,9.4,13.1c0.2,6.3-2.6,11.1-8.3,13.9c-5.7,2.8-11.1,2-16-2c-1.2-1-2.1-1.1-3.4-0.3c-10.2,6-20.4,11.8-30.7,17.7
			c-1,0.6-1.3,1.1-1,2.3c1.6,7.6-2.7,15.1-10,17.4c-7.1,2.3-14.8-1.3-18-8.3c-1.2-2.7-1.5-5.6-0.9-8.5c0.2-1.2-0.1-1.8-1.1-2.4
			c-9.3-5.3-18.6-10.5-27.7-16c-3.1-1.9-5.3-2.4-8.8-0.2c-7.3,4.5-16.9,1-20.3-6.6c-3.6-7.9,0.1-16.9,8.2-20
			c1.4-0.5,1.7-1.2,1.7-2.6c0-11.8,0-23.5,0-35.3c0-1.5-0.4-2.3-1.9-2.9c-7.3-2.9-11-10.6-8.9-17.8c2.1-7.4,9.3-11.8,17-10.4
			c2.5,0.4,4.8,1.4,6.7,3.2c0.9,0.9,1.7,1,2.8,0.3c10.4-6,20.9-12,31.3-18c0.9-0.5,1.2-1.2,1-2.3c-1.1-7.3,2.3-13.7,8.8-16.4
			C104,14,114.7,21.1,114.7,31.8z M100,130.6c7.4,0,14.8,0,22.2,0c6.8,0,13.7,0,20.5,0c1.2,0,2.1-0.1,2.5-1.6
			c0.4-1.4,1.1-2.9,2.2-3.9c1.4-1.2,1.2-2.3,0.3-3.7c-6.3-10.7-12.5-21.5-18.7-32.2c-8-13.9-16.1-27.8-24-41.8
			c-0.6-1.1-1.2-1.4-2.4-1.1c-1.6,0.4-3.3,0.5-4.9,0c-1.6-0.4-2.3,0.2-3,1.5c-2.8,4.9-5.6,9.8-8.4,14.7
			C74.9,82.3,63.4,102.1,51.9,122c-0.6,1-0.6,1.8,0.2,2.7c1.1,1.2,2.1,2.4,2.4,4c0.4,1.8,1.5,2,3.1,2
			C71.8,130.6,85.9,130.6,100,130.6z M100.2,137.7L100.2,137.7c-14.1,0-28.2,0-42.2,0c-0.8,0-2-0.4-2.2,0.4c-0.2,0.8,1.1,1,1.7,1.4
			c10,5.8,20.1,11.6,30.2,17.4c1.3,0.7,2,0.6,3.1-0.3c5.8-4.5,13.3-4.4,18.9,0.4c1.1,0.9,1.9,0.9,3,0.2c2.6-1.5,5.2-3,7.8-4.5
			c7.7-4.5,15.4-8.9,23.1-13.4c0.5-0.3,1.4-0.4,1.1-1.3c-0.2-0.7-1-0.4-1.5-0.4c-0.2,0-0.5,0-0.8,0
			C128.3,137.7,114.3,137.7,100.2,137.7z M44.8,119.6c0.7-0.3,0.9-1,1.2-1.5c3.3-5.7,6.6-11.4,9.9-17.1c9.8-17,19.6-34,29.4-51
			c1.2-2.1,2.4-4.2,3.7-6.4c0.2-0.3,0.5-0.7,0.2-1c-0.4-0.5-0.8,0-1.2,0.1c-0.2,0.1-0.4,0.2-0.7,0.4C77.2,49,66.9,55,56.6,60.8
			c-1.1,0.6-1.4,1.2-1.2,2.5c1.1,7.2-2.4,13.5-9.1,16.2c-1.4,0.6-1.8,1.3-1.8,2.8c0.1,11.7,0,23.5,0,35.2
			C44.5,118.2,44.3,118.9,44.8,119.6z M155,119.8c0.7-1.1,0.5-1.9,0.5-2.6c0-11.5,0-23,0-34.5c0-1.7-0.4-2.6-2.1-3.3
			c-6.5-2.7-10-9.2-8.8-16.2c0.2-1.2-0.2-1.7-1.1-2.2c-10.4-6-20.8-12-31.2-17.9c-0.5-0.3-1.1-1.1-1.6-0.5c-0.5,0.5,0.2,1.1,0.5,1.6
			c3.8,6.7,7.7,13.4,11.6,20c9,15.6,18,31.2,27,46.8C151.5,113.9,153.2,116.8,155,119.8z"/>
	</g>
</g>
</svg>
