<?xml version="1.0" encoding="utf-8"?>
<!-- Generator: Adobe Illustrator 21.0.0, SVG Export Plug-In . SVG Version: 6.00 Build 0)  -->
<svg version="1.1" id="Layer_1" xmlns="http://www.w3.org/2000/svg" xmlns:xlink="http://www.w3.org/1999/xlink" x="0px" y="0px"
	 viewBox="0 0 200 200" style="enable-background:new 0 0 200 200;" xml:space="preserve">
<style type="text/css">
	.st0{fill:url(#SVGID_1_);}
	.st1{fill:#49928D;}
	.st2{fill:#786D69;}
	.st3{fill:#655B58;}
	.st4{fill:#41817D;}
	.st5{fill:#77AEAB;}
	.st6{fill:#C05A52;}
	.st7{fill:#4C9895;}
	.st8{fill:#6F6561;}
	.st9{fill:#7AB4B2;}
	.st10{fill:#468C85;}
</style>
<g id="_x33_r2UEe.tif">
	<g>
		<linearGradient id="SVGID_1_" gradientUnits="userSpaceOnUse" x1="100.2875" y1="13.2" x2="100.2875" y2="186.975">
			<stop  offset="0" style="stop-color:#786D69"/>
			<stop  offset="0.8619" style="stop-color:#5A524E"/>
		</linearGradient>
		<path class="st0" d="M154.7,187H45.9c-17.9,0-32.5-14.6-32.5-32.5V45.7c0-17.9,14.6-32.5,32.5-32.5h108.8
			c17.9,0,32.5,14.6,32.5,32.5v108.8C187.2,172.4,172.6,187,154.7,187z"/>
		<path class="st1" d="M47,150.8l25.5-0.7l-0.8-4l-3.9-31.8l-1.8-20.9c0,0-1.3-13.9-0.3-15.6s4.2-3.7,4.2-3.7l1.4,3.5l1.8,2.8
			l2.5,5.5c0,0,4.5,8.7,6.1,13.1S92,126.6,92,126.6l14.8,0.1l3-5.4L122,90.6c0,0,6.3-15.2,8-16.1s2.8,0.4,2.8,0.6s0.1,2,0.1,2
			l1.4,5.4v19.2l-3.9,31.3l-3.1,18l4.2-0.2l21-0.8l1.3-14v-30.4l-0.6-24.9l-2.3-21.9l-1-12.5c0,0-0.1-0.2-0.1-0.3s-0.7,0.4-0.7,0.4
			l-23.9,0.9l-15.6,19.8L100,78.9L87.4,69l-7-18.9c0,0-2.2-2.9-3.3-3.3C75.9,46.5,51.5,47,51.5,47l-3.3,20.9L45.6,123L47,150.8z"/>
		<path class="st2" d="M13.6,54.4c0.2,0,0.4,0.1,0.4,0.4c0,0.3-0.2,0.3-0.4,0.3C13.5,54.9,13.5,54.7,13.6,54.4z"/>
		<path class="st3" d="M13.4,141.8c0.1,0,0.3,0,0.3,0.2s-0.1,0.2-0.3,0.2C13.4,142.1,13.4,141.9,13.4,141.8z"/>
		<path class="st4" d="M151.6,59.9c0,0.5,0.1,1,0.2,1.5c0.1,1.4,0.4,2.9,0.5,4.3c0.1,1.2,0.2,2.3,0.3,3.5c0.1,1.1,0.2,2.3,0.4,3.4
			c0.1,0.5,0.1,1.1,0.1,1.7c0,0.9,0.1,1.7,0.2,2.6c0.1,0.8,0,1.6,0.2,2.4c0,0.1,0,0.2,0,0.3c0,1.8,0.2,3.5,0.3,5.3
			c0.1,1.6,0.2,3.1,0.3,4.7c0.1,2,0.2,4,0.3,6c0,0.8,0.1,1.5,0.1,2.3c0,2.2,0.1,4.4,0.2,6.6c0.1,2.8,0,5.7,0.1,8.5
			c0.1,2,0.2,4,0.1,6c-0.2,3.3,0,6.6-0.2,9.9c-0.1,1.7,0,3.3-0.1,5c-0.1,1.2,0,2.4-0.1,3.6c-0.1,0.8-0.1,1.5-0.1,2.3
			c0,1.2-0.1,2.5-0.2,3.7c-0.1,1.5-0.1,2.9-0.3,4.4c-0.1,0.9,0,1.9-0.2,2.8c-0.1,0.3-0.1,0.4-0.4,0.4c-0.1,0-0.2,0-0.3,0
			c-8.4,0-16.9,0-25.3,0c-0.2,0-0.3,0-0.5,0c0.7-0.7,1.5-1.2,2.2-1.8c7.3,0,14.5,0,21.8,0c0.1,0,0.2,0,0.3,0c0.3,0,0.4-0.1,0.5-0.4
			c0.2-0.9,0.2-1.8,0.2-2.6c0.1-1.2,0.3-2.4,0.2-3.5c0-0.1,0-0.1,0-0.2c0.3-1.1,0.1-2.3,0.2-3.5c0.2-1.1,0-2.2,0.1-3.3
			c0.1-1.2,0.1-2.5,0.1-3.7c0-3,0.3-6,0.2-9c0-0.2,0-0.5,0-0.7c0-1.5-0.1-3.1,0.1-4.6c0.1-0.6-0.1-1.1-0.1-1.7
			c-0.1-4.4,0.2-8.8-0.1-13.2c-0.1-1.6,0-3.3-0.1-4.9c-0.1-1.9-0.2-3.7-0.2-5.6c0-0.2,0.1-0.4-0.1-0.6c0-1.3-0.1-2.7-0.1-4
			c0-1.1-0.2-2.1-0.2-3.2v-0.1c-0.2-1-0.2-2-0.2-3c-0.1-1-0.2-2-0.2-3c0-0.6,0-1.3-0.1-1.9c-0.2-0.9-0.1-1.8-0.2-2.7
			c-0.1-0.8-0.1-1.5-0.2-2.3c-0.1-0.6,0-1.2-0.1-1.8c-0.2-0.7-0.1-1.4-0.2-2.1c-0.1-0.7-0.1-1.4-0.2-2.1c-0.1-1.1-0.2-2.2-0.4-3.2
			c-0.1-0.4-0.1-0.9-0.2-1.3c-0.1-1-0.1-2-0.3-3c-0.1-0.4,0.1-0.8-0.2-1.1c0-0.5,0-0.9-0.1-1.4c-0.2-0.8-0.2-1.6-0.3-2.4
			c-0.1-0.9-0.2-1.8-0.4-2.7c-0.1-0.8-0.2-1.6-0.3-2.5c0.2,0,0.3-0.2,0.3-0.3c0.3-0.5,0.6-0.9,0.9-1.4c0.1,0.8,0.3,1.7,0.4,2.5
			c0.2,1.1,0.3,2.2,0.5,3.3c0.1,0.8,0.3,1.7,0.4,2.5c0.2,1.4,0.4,2.7,0.5,4.1C151.5,59,151.6,59.4,151.6,59.9z"/>
		<path class="st5" d="M129.4,149.1c-0.7,0.6-1.6,1.1-2.2,1.8c-0.2-0.2-0.1-0.5-0.1-0.8c0.3-1.7,0.6-3.4,0.8-5.2
			c0.3-1.2,0.4-2.4,0.6-3.6c0.3-2.1,0.6-4.1,0.9-6.2c0.2-1.5,0.4-3,0.6-4.5c0.2-1.5,0.4-2.9,0.6-4.4c0.1-0.9,0.2-1.9,0.3-2.8
			c0.2-1.3,0.3-2.5,0.5-3.8c0.1-1,0.3-2.1,0.3-3.1c0-0.4,0.1-0.8,0.1-1.2c0.1-1,0.2-2,0.3-3c0.1-1.2,0.3-2.3,0.4-3.4
			c0.1-1.2,0.2-2.5,0.3-3.7c0.2-1.3,0.2-2.7,0.4-4c0.1-1.3,0.2-2.5,0.3-3.8c0.1-2.2,0.3-4.3,0.3-6.5s0.1-4.5-0.1-6.8
			c-0.1-2.3-0.3-4.6-1-6.8c0.6,0.1,1,0.4,1.3,0.9c0.4,0.6,0.6,1.2,0.8,1.8c0.3,1.2,0.5,2.4,0.6,3.6c0.2,1.7,0.3,3.4,0.3,5.1
			c0,2.1,0,4.1-0.1,6.2c-0.1,1.4-0.2,2.9-0.2,4.3c0,0.1,0,0.1,0,0.2c-0.2,1.2-0.2,2.3-0.3,3.5c0,0.4,0,0.7-0.1,1.1
			c0,0.2,0,0.4,0,0.6c0.1,0.4-0.1,0.7-0.1,1.1c0,0.2,0,0.4,0,0.6c0,0.4-0.2,0.8-0.1,1.2c0,0.7-0.1,1.4-0.2,2.1
			c-0.1,1.3-0.3,2.6-0.4,3.9c-0.1,0.5-0.1,1-0.2,1.5c-0.1,1.1-0.3,2.2-0.4,3.3c-0.1,1-0.2,1.9-0.3,2.9c-0.1,0.9-0.2,1.8-0.4,2.7
			c-0.1,0.9-0.2,1.8-0.3,2.8c-0.2,0.9-0.3,1.9-0.4,2.8c-0.2,1.1-0.3,2.2-0.5,3.4c-0.2,1.1-0.3,2.3-0.5,3.4c-0.2,1.1-0.3,2.3-0.5,3.4
			c-0.1,1-0.3,2-0.5,2.9c-0.2,1.1-0.3,2.2-0.5,3.4C129.7,147.1,129.6,148.1,129.4,149.1z"/>
		<path class="st6" d="M82.3,144.7c0.1-1.3,0.3-2.6,1.1-3.7c1.2-1.8,2.9-2.7,5.1-2.7c1.3,0,2.6,0.3,3.7,1c1.8,1.2,2.8,3,2.9,5.2
			c0,0.1,0,0.2,0,0.3c-0.2,3-2.3,5.4-5.1,5.9c-2.5,0.4-4.6-0.3-6.2-2.3C82.8,147.4,82.4,146.1,82.3,144.7z"/>
		<path class="st6" d="M105.4,144.7c0.1-1.5,0.5-3,1.5-4.2c1.2-1.4,2.6-2.1,4.4-2.3c1.4-0.1,2.7,0.2,3.8,1c1.8,1.2,2.9,2.9,2.9,5.2
			c0,0.1,0,0.2,0,0.3c-0.1,1.6-0.6,3.1-1.7,4.2c-1.1,1.1-2.5,1.9-4.1,1.9c-1.6,0.1-3-0.3-4.3-1.2c-1.4-1.1-2.3-2.5-2.5-4.3
			C105.5,145.2,105.5,145,105.4,144.7z"/>
		<path class="st4" d="M69.4,123.4c0,1.2,0.2,2.3,0.4,3.4c0.1,0.9,0.2,1.8,0.3,2.7c0.1,0.8,0.2,1.7,0.3,2.5c0.2,1.1,0.3,2.3,0.5,3.4
			c0.2,1.1,0.3,2.2,0.5,3.4c0.2,1.4,0.4,2.8,0.6,4.2c0.1,0.6,0.1,1.2,0.4,1.8c0,1.2,0.3,2.4,0.5,3.6c0.1,0.6,0.2,1.2,0.3,1.8
			c0.1,0.5,0,0.6-0.5,0.6c-0.1,0-0.1,0-0.2,0c-8.5,0-17,0-25.5,0c-0.1,0-0.2,0-0.3,0c0.1-0.2,0.3-0.3,0.4-0.5c0.3-0.5,0.8-0.8,1-1.3
			c1.3,0,2.6,0,4,0c6.2,0,12.3,0,18.5,0c0.9,0,0.9,0,0.7-0.8c-0.3-1.5-0.5-3-0.7-4.4c-0.2-1-0.4-2-0.5-3.1c-0.2-1.3-0.4-2.6-0.6-3.9
			c-0.2-1.1-0.3-2.2-0.5-3.3c-0.2-1.2-0.4-2.5-0.5-3.7c-0.1-0.8-0.2-1.6-0.3-2.5c-0.1-0.9-0.3-1.8-0.4-2.7c-0.1-0.9-0.2-1.7-0.3-2.6
			c-0.1-0.8-0.3-1.5-0.2-2.3c0.3-0.3,0.3-0.5-0.1-0.7c0-0.1,0-0.3,0-0.4c0.4-0.4,0.4-0.5-0.1-0.7c0-0.1,0-0.3,0-0.4
			c0.2-0.1,0.3-0.3,0.2-0.6c-0.1-0.3,0-0.4,0.2-0.6c0.3-0.2,0.5-0.5,0.9-0.5c0,0.1,0.1,0.2,0.1,0.2c0.1,1,0.2,2,0.3,3
			c0.2,1.1,0.3,2.3,0.4,3.4C69.2,122.8,69.2,123.1,69.4,123.4z"/>
		<path class="st5" d="M48.2,149.1c-0.2,0.5-0.7,0.9-1,1.3c-0.1,0.2-0.3,0.3-0.4,0.5c-0.2-0.3-0.2-0.7-0.2-1.1
			c-0.1-0.6-0.1-1.2-0.1-1.7c0-1.1-0.2-2.2-0.2-3.3c-0.1-1.5-0.2-3-0.3-4.4c0-2.2-0.2-4.4-0.2-6.6c-0.1-1.5,0-2.9-0.1-4.4
			c-0.1-2-0.1-4.1-0.1-6.1c0-0.3,0-0.5,0-0.8c0.4,0,0.8,0,1.2-0.3c0.2-0.1,0.4-0.2,0.6-0.2c0.1,2.9-0.1,5.9,0.1,8.8
			c0.1,1.8,0.1,3.6,0.1,5.4c0,1.8,0.2,3.6,0.2,5.4v0.1c0.3,1.2,0.1,2.4,0.2,3.6C48.1,146.6,48.2,147.8,48.2,149.1z"/>
		<path class="st7" d="M148.4,47.8c0.1,0.8,0.2,1.6,0.3,2.5s0.2,1.8,0.4,2.7c0.1,0.8,0.2,1.6,0.3,2.4c0.1,0.5,0.1,0.9,0.1,1.4
			c-0.1,0.1-0.2,0.2-0.2,0.4c-0.1,0.5-0.3,0.8-0.8,1c-0.2,0.1-0.3,0.2-0.5,0.3c-1.9,0.9-3.7,1.9-5.6,2.9c-1.8,0.9-3.5,1.9-5.3,2.8
			c-1.9,1-3.7,2-5.6,2.9c-1.8,0.9-3.5,1.9-5.3,2.8c-1.9,1-3.7,1.9-5.5,2.9c-1.8,0.9-3.6,1.9-5.4,2.8c-1.9,1-3.7,1.9-5.5,2.9
			c-1.9,1-3.7,2-5.6,2.9c-1.7,0.9-3.5,1.8-5.2,2.8c-1.8,0.9-3.6,1.9-5.4,2.8c-1.9,1-3.7,1.9-5.5,2.9c-2.2,1.2-4.5,2.3-6.7,3.5
			c-0.6,0.3-0.6,0.4-0.4,1c0.3,0.8,0.7,1.6,1,2.4c0.2,0.5,0.1,0.6-0.3,0.9l-0.1-0.1c-0.9-2.2-1.8-4.5-2.8-6.7
			c-0.9-2.1-1.9-4.3-2.9-6.4c-0.7-1.4-1.3-2.8-2.1-4.1c-0.6-1-1.1-1.9-1.9-2.7c-0.2-0.2-0.4-0.4-0.7-0.4l0,0l-0.1-0.1
			c-0.3-0.4-0.5-0.8-0.8-1.1c-0.3-0.4-0.6-0.7-1.2-0.7c-0.2-0.7-0.8-1.1-1.2-1.6c-0.3-0.3-0.6-0.3-0.9-0.1c-0.5,0.3-0.9,0.7-1.1,1.2
			c-0.2,0.6-0.4,1.1-0.6,1.7c-0.4,1.6-0.6,3.3-0.7,4.9c-0.1,1.2-0.1,2.5-0.1,3.7s0,2.4,0.1,3.6c0.1,1.4,0,2.9,0.1,4.4
			c0.1,0.8,0.1,1.7,0.1,2.5c0.1,1.3,0.3,2.6,0.2,4c-0.2,0.2-0.3,0.5,0.1,0.6c0,0.3,0,0.7,0,1c-0.2,0.1-0.3,0.2-0.3,0.4
			c-0.1,0.2-0.2,0.3-0.3,0.4c-0.3,0.2-0.7,0.4-1,0.6c-1.8,0.9-3.6,1.9-5.3,2.8c-2.2,1.2-4.4,2.3-6.7,3.5c-0.4,0.2-0.8,0.4-1.2,0.6
			c-0.8,0.4-1.6,0.8-2.4,1.2c-0.2,0.1-0.4,0.1-0.6,0.1c-0.1-1.4,0.1-2.8,0.1-4.2c0-1.3,0-2.5,0.1-3.8c0.1-1.5,0.1-3,0.1-4.4
			c0.1-1.6,0.3-3.3,0.2-4.9v-0.1c0.2-1.4,0.2-2.9,0.3-4.3c0.1-0.9,0.1-1.9,0.2-2.8c0.1-0.7,0-1.4,0.1-2.1c0.1-1,0.2-2.1,0.2-3.1
			c0.1-0.8,0.1-1.5,0.2-2.3c0.1-1.4,0.2-2.7,0.4-4.1c0.2-1.2,0.2-2.4,0.3-3.6c0.2-1.3,0.3-2.6,0.4-3.9c0.1-0.5,0.1-1,0.2-1.5
			c0.1-1,0.3-1.9,0.4-2.9c0.2-1.3,0.2-2.7,0.5-4c0.3-1.8,0.5-3.7,0.8-5.5c0.3-1.7,0.5-3.3,0.7-5c0-0.3,0.2-0.5,0.5-0.4
			c0.2,0,0.4,0,0.6,0c7.3,0,14.7,0,22,0c1,0,2,0,2.9,0.4l0,0c0.1,0.1,0.2,0.1,0.3,0.1c0.2,0.1,0.3,0.2,0.4,0.4
			c0,0.4,0.2,0.6,0.6,0.7l0,0c0,0.3,0.1,0.4,0.3,0.6c1.1,1.5,2.3,3,3.3,4.5c1.6,2.3,3.1,4.6,4.7,6.9c1.4,2.1,2.8,4.2,4.2,6.2
			c1.7,2.5,3.4,5.1,5.3,7.4c0.2,0.2,0.3,0.4,0.6,0.4c0.1,0.1,0.3,0.2,0.4,0.4c0.3,0.5,0.8,0.9,1.2,1.3c0.2,0.2,0.3,0.3,0.6,0.3
			c0.3,0.7,0.9,1.2,1.4,1.7c0.2,0.2,0.4,0.1,0.6-0.1c0.4-0.4,0.9-0.8,1.3-1.3c1.9-2.5,3.6-5.1,5.4-7.7c1.5-2.2,3-4.5,4.5-6.8
			c2-2.9,3.9-5.7,6-8.5c1.6-2.1,3.3-4.2,5.2-6c0.8-0.8,1.7-1.2,2.9-1.2c6.7,0,13.3,0,20,0C147.9,47.8,148.1,47.8,148.4,47.8z"/>
		<path class="st8" d="M100.4,77.5c-0.3,0-0.4-0.1-0.6-0.3c-0.4-0.4-0.9-0.8-1.2-1.3c-0.1-0.1-0.3-0.3-0.4-0.4c0-0.1,0-0.2-0.1-0.3
			c-1.5-2-2.9-4.1-4.3-6.2c-2.2-3.3-4.5-6.6-6.7-10c-1.6-2.3-3.2-4.6-4.9-6.8c0.1,0,0.3,0,0.3,0.1c0.4,0.4,0.9,0.4,1.4,0.4
			c10.8,0,21.5,0,32.3,0c0.6,0,1.1,0,1.5,0.4c-0.1,0.3-0.3,0.5-0.4,0.7c-2.1,2.7-4,5.6-6,8.4c-2.2,3.2-4.3,6.4-6.5,9.6
			C103.4,73.7,102.1,75.8,100.4,77.5z"/>
		<path class="st9" d="M78.5,48.2c-0.9-0.5-1.9-0.4-2.9-0.4c-7.3,0-14.7,0-22,0c-0.2,0-0.4,0-0.6,0c-0.3,0-0.5,0.1-0.5,0.4
			c-0.2,1.7-0.4,3.3-0.7,5c-0.3,1.8-0.5,3.7-0.8,5.5c-0.2,1.3-0.3,2.7-0.5,4c-0.1,1-0.3,1.9-0.4,2.9c-0.1,0.5-0.1,1-0.2,1.5
			c-0.1,1.3-0.3,2.6-0.4,3.9c-0.1,1.2-0.2,2.4-0.3,3.6C49,76,49,77.3,48.8,78.7c-0.1,0.8-0.1,1.5-0.2,2.3c-0.1,1-0.1,2.1-0.2,3.1
			c-0.1,0.7-0.1,1.4-0.1,2.1c-0.1,0.9-0.1,1.8-0.2,2.8c-0.1,1.4-0.1,2.9-0.3,4.3v0.1c0.1,1.7-0.1,3.3-0.2,4.9c0,1.5,0,3-0.1,4.4
			c-0.1,1.3-0.1,2.6-0.1,3.8c0,1.4-0.3,2.8-0.1,4.2c0,0.2,0,0.5,0,0.7c0,1.5,0,3,0,4.5c0,2,0,4,0,6c-0.2,0-0.4,0.1-0.6,0.2
			c-0.4,0.2-0.8,0.3-1.2,0.3c0-0.5,0-0.9,0-1.4c0.2,0,0.3-0.2,0.3-0.4c0-1.2,0-2.4,0-3.5c0-0.2,0-0.4-0.3-0.4c0-3.2-0.1-6.3,0-9.5
			c0.1-1.8,0-3.6,0.1-5.3c0-0.7,0.2-1.5,0.1-2.2c0.1-1.3,0.1-2.5,0.2-3.8c0.1-2.3,0.2-4.6,0.3-6.9c0.1-1.5,0.2-2.9,0.3-4.4
			c0.1-1.6,0.2-3.2,0.4-4.8c0.1-0.7,0.1-1.4,0.1-2.1c0.1-1.6,0.3-3.2,0.4-4.8c0.1-1.2,0.2-2.4,0.3-3.6s0.3-2.3,0.4-3.4
			c0.1-1,0.2-2.1,0.3-3.1c0.2-1.4,0.3-2.7,0.5-4.1c0.1-0.9,0.2-1.8,0.3-2.7c0.1-1,0.3-2.1,0.4-3.1c0.3-2.1,0.7-4.3,1-6.4
			c0.1-0.5,0.1-0.5,0.6-0.5c0.2,0,0.3,0,0.5,0c7.6,0,15.1,0,22.7,0c1.3,0,2.3,0.5,3.2,1.3C78,47.5,78.4,47.7,78.5,48.2z"/>
		<path class="st9" d="M100.4,77.5c1.8-1.7,3-3.7,4.4-5.7c2.1-3.2,4.3-6.4,6.5-9.6c1.9-2.8,3.9-5.6,6-8.4c0.2-0.2,0.4-0.4,0.4-0.7
			c0.6-0.6,1-1.2,1.5-1.8c1-1.2,1.9-2.4,3-3.5c0.5-0.5,1-0.9,1.6-1.3c0.5-0.3,1.1-0.5,1.7-0.5c7.8,0,15.7,0,23.5,0
			c0.2,0,0.5-0.1,0.7,0.1c-0.3,0.5-0.6,0.9-0.9,1.4c-0.1,0.1-0.2,0.3-0.3,0.3c-0.3,0-0.6,0-0.8,0c-6.7,0-13.3,0-20,0
			c-1.2,0-2.1,0.4-2.9,1.2c-1.9,1.8-3.6,3.8-5.2,6c-2.1,2.8-4,5.6-6,8.5c-1.5,2.2-3,4.5-4.5,6.8c-1.8,2.6-3.5,5.2-5.4,7.7
			c-0.4,0.5-0.8,0.9-1.3,1.3c-0.2,0.2-0.4,0.2-0.6,0.1C101.2,78.6,100.6,78.2,100.4,77.5z"/>
		<path class="st10" d="M82.1,52.2c1.7,2.2,3.3,4.5,4.9,6.8c2.3,3.3,4.5,6.6,6.7,10c1.4,2.1,2.8,4.2,4.3,6.2
			c0.1,0.1,0.1,0.2,0.1,0.3c-0.3,0-0.4-0.2-0.6-0.4c-2-2.4-3.6-4.9-5.3-7.4c-1.4-2.1-2.8-4.2-4.2-6.2c-1.6-2.3-3.1-4.6-4.7-6.9
			c-1.1-1.5-2.2-3-3.3-4.5c-0.1-0.2-0.3-0.4-0.3-0.6c0.6,0.4,0.9,1,1.3,1.4C81.5,51.3,81.8,51.8,82.1,52.2z"/>
		<path class="st10" d="M79.8,49.4c-0.4,0-0.6-0.3-0.6-0.7C79.5,48.9,79.7,49.1,79.8,49.4z"/>
		<path class="st9" d="M78.8,48.3c-0.1,0-0.2,0-0.3-0.1C78.6,48.2,78.7,48.2,78.8,48.3z"/>
		<path class="st5" d="M45.6,116.7c0.2,0,0.3,0.2,0.3,0.4c0,1.2,0,2.4,0,3.5c0,0.2,0,0.4-0.3,0.4C45.6,119.6,45.6,118.1,45.6,116.7z
			"/>
		<path class="st4" d="M131,75.4c-1,0.8-1.7,1.8-2.3,2.9c-1.1,1.8-2,3.8-2.9,5.7c-1,2.2-2,4.4-2.9,6.6c-0.3,0.6-0.6,1.3-0.9,1.9
			c-1.7,4.3-3.5,8.6-5.2,12.9c-1.1,2.9-2.3,5.9-3.4,8.8c-0.1,0.2-0.2,0.5-0.2,0.7c-0.5,0.7-0.7,1.5-0.9,2.3c-1.2,3.3-2.4,6.6-3.7,10
			c-0.2,0.5-0.2,0.5-0.8,0.5c-0.9,0-1.8-0.1-2.6-0.2c-2.1-0.2-4.3-0.3-6.4-0.2c-1.1,0.1-2.3,0-3.5,0.2c-0.6,0.1-1.3,0.1-1.9,0.2
			c-0.4,0.1-0.7,0-1.1,0.1c-0.1,0-0.3,0-0.3-0.1c0.1-0.1,0.2-0.2,0.2-0.3c0.1-0.5,0.2-1.1,0.3-1.6c1.2-0.2,2.3-0.2,3.5-0.3
			c2.3-0.1,4.7,0,7,0.1c0.1,0,0.1,0,0.2,0c0.9,0.1,1.9,0.2,2.8,0.3c0.4,0,0.6-0.1,0.8-0.5c0.6-1.7,1.2-3.4,1.9-5.1
			c0.8-2.2,1.6-4.3,2.4-6.5c1.1-3,2.3-5.9,3.4-8.9c1-2.5,2-5,3-7.6c0.8-2.1,1.7-4.1,2.5-6.2c0.7-1.8,1.5-3.5,2.3-5.3
			c0.5-1,0.9-2.1,1.4-3.1c0.5-1.2,1.1-2.2,1.6-3.4c0.4-1,1-1.9,1.6-2.9c0.5-0.9,1-1.8,1.8-2.5c0.6-0.6,1.1-0.6,1.6,0.1
			C130.6,74.4,130.9,74.9,131,75.4z"/>
		<path class="st5" d="M92.5,125.8c-0.1,0.5-0.2,1.1-0.3,1.6c0,0.1-0.1,0.3-0.2,0.3c-0.5-1.4-1-2.8-1.5-4.2
			c-0.6-1.8-1.3-3.6-1.9-5.4c-0.8-2.3-1.7-4.5-2.6-6.8c-0.6-1.4-1.2-2.9-1.7-4.3c-0.1-0.2-0.1-0.4-0.2-0.6c-0.1-0.4-0.3-0.8-0.4-1.2
			c-1.1-2.7-2.1-5.4-3.2-8.1c-0.8-2-1.7-4-2.5-6c-1.1-2.1-2-4.1-2.9-6.2c-0.8-1.8-1.6-3.5-2.6-5.2c-0.4-0.8-1-1.5-1.3-2.3
			c0.3-0.1,0.5,0.1,0.7,0.4c0.8,0.8,1.3,1.8,1.9,2.7c0.8,1.3,1.5,2.7,2.1,4.1c1,2.1,1.9,4.3,2.9,6.4c1,2.2,1.9,4.4,2.8,6.7l0.1,0.1
			c0.2,0.8,0.5,1.5,0.8,2.2c0.9,2.2,1.8,4.4,2.6,6.6c1,2.5,2,5,2.9,7.6c0.8,2.1,1.6,4.2,2.4,6.4C91.1,122.2,91.8,124,92.5,125.8z"/>
		<path class="st1" d="M92.5,125.8c-0.7-1.8-1.3-3.5-2-5.3c-0.8-2.1-1.6-4.3-2.4-6.4c-1-2.5-1.9-5.1-2.9-7.6
			c-0.9-2.2-1.8-4.4-2.6-6.6c-0.3-0.7-0.6-1.4-0.8-2.2c0.4-0.3,0.5-0.4,0.3-0.9c-0.3-0.8-0.7-1.6-1-2.4c-0.3-0.6-0.2-0.7,0.4-1
			c2.2-1.2,4.5-2.3,6.7-3.5c1.8-1,3.7-1.9,5.5-2.9c1.8-0.9,3.6-1.9,5.4-2.8c1.7-0.9,3.5-1.8,5.2-2.8c1.9-1,3.7-2,5.6-2.9
			c1.9-1,3.7-1.9,5.5-2.9c1.8-0.9,3.6-1.9,5.4-2.8c1.8-1,3.7-1.9,5.5-2.9c1.8-0.9,3.5-1.9,5.3-2.8c1.9-1,3.7-2,5.6-2.9
			c1.8-0.9,3.5-1.9,5.3-2.8c1.8-1,3.7-2,5.6-2.9c0.2-0.1,0.3-0.2,0.5-0.3c0.5-0.2,0.7-0.5,0.8-1c0-0.1,0-0.3,0.2-0.4
			c0.3,0.3,0.2,0.8,0.2,1.1c0.2,1,0.2,2,0.3,3c0,0.4,0.1,0.9,0.2,1.3c0.2,1.1,0.2,2.2,0.4,3.2c0.1,0.7,0.1,1.4,0.2,2.1
			c0.1,0.7,0.1,1.4,0.2,2.1c0.1,0.6,0.1,1.2,0.1,1.8c0.1,0.8,0.1,1.5,0.2,2.3c0.1,0.9,0.1,1.8,0.2,2.7c0.1,0.6,0.1,1.3,0.1,1.9
			c0,1,0.1,2,0.2,3c0.1,1,0,2,0.2,3v0.1c-0.1,1.1,0.1,2.1,0.2,3.2c0,1.3,0.2,2.7,0.1,4c-0.4,0.3-0.3,0.8-0.3,1.2
			c0.1,0.6,0,0.7-0.5,0.9c-0.7,0.4-1.4,0.7-2,1.1c-2,1.1-3.9,2.1-5.9,3.1c-1.4,0.8-2.9,1.4-4.3,2.2c-1.1,0.6-2.3,1.1-3.4,1.8
			c-0.2,0.1-0.4,0.2-0.4,0.5c0,0.2-0.2,0.4-0.4,0.4c0.1-1.2,0.1-2.4,0.3-3.5c0-0.1,0-0.1,0-0.2c-0.1-1.4,0.1-2.9,0.2-4.3
			c0.1-2.1,0.1-4.1,0.1-6.2c0-1.7-0.1-3.4-0.3-5.1c-0.1-1.2-0.3-2.4-0.6-3.6c-0.2-0.6-0.4-1.3-0.8-1.8c-0.3-0.5-0.7-0.8-1.3-0.9
			c-0.3-0.5-0.4-1-0.8-1.3c-0.3-0.3-0.7-0.5-1.1-0.5c-0.1-0.5-0.4-0.9-0.7-1.3c-0.5-0.6-1-0.6-1.6-0.1c-0.8,0.7-1.3,1.6-1.8,2.5
			c-0.6,0.9-1.1,1.9-1.6,2.9c-0.5,1.1-1.1,2.2-1.6,3.4c-0.4,1-0.9,2.1-1.4,3.1c-0.8,1.7-1.5,3.5-2.3,5.3c-0.9,2-1.7,4.1-2.5,6.2
			c-1,2.5-2,5-3,7.6c-1.1,3-2.3,5.9-3.4,8.9c-0.8,2.2-1.6,4.3-2.4,6.5c-0.6,1.7-1.3,3.4-1.9,5.1c-0.1,0.4-0.4,0.5-0.8,0.5
			c-0.9,0-1.9-0.1-2.8-0.3c-0.1,0-0.1,0-0.2,0c-2.3-0.1-4.7-0.2-7-0.1C94.8,125.6,93.6,125.6,92.5,125.8z"/>
		<path class="st10" d="M135.3,102.9c0.2,0,0.4-0.1,0.4-0.4s0.2-0.4,0.4-0.5c1.1-0.7,2.3-1.2,3.4-1.8c1.4-0.8,2.9-1.5,4.3-2.2
			c2-1,4-2,5.9-3.1c0.7-0.4,1.4-0.7,2-1.1c0.5-0.3,0.5-0.4,0.5-0.9c0-0.4-0.1-0.9,0.3-1.2c0.2,0.2,0.1,0.4,0.1,0.6
			c0,1.9,0.1,3.8,0.2,5.6c0.1,1.6,0,3.3,0.1,4.9c0.3,4.4,0.1,8.8,0.1,13.2c0,0.6,0.2,1.1,0.1,1.7c-0.2,1.5-0.1,3.1-0.1,4.6
			c0,0.2,0,0.5,0,0.7c0.1,3-0.1,6-0.2,9c0,1.2,0,2.5-0.1,3.7c-0.1,1.1,0,2.2-0.1,3.3c-0.2,1.2,0.1,2.3-0.2,3.5c0,0.1,0,0.1,0,0.2
			c0.1,1.2-0.1,2.4-0.2,3.5c-0.1,0.9,0,1.8-0.2,2.6c-0.1,0.3-0.2,0.4-0.5,0.4c-0.1,0-0.2,0-0.3,0c-7.3,0-14.5,0-21.8,0
			c0.2-1,0.3-2,0.5-3c0.2-1.1,0.3-2.2,0.5-3.4c0.2-1,0.3-2,0.5-2.9c0.2-1.1,0.3-2.3,0.5-3.4c0.2-1.1,0.4-2.3,0.5-3.4
			c0.2-1.1,0.3-2.2,0.5-3.4c0.1-0.9,0.2-1.9,0.4-2.8c0.1-0.9,0.2-1.8,0.3-2.8c0.1-0.9,0.2-1.8,0.4-2.7c0.1-1,0.2-1.9,0.3-2.9
			c0.1-1.1,0.3-2.2,0.4-3.3c0.1-0.5,0.1-1,0.2-1.5c0.1-1.3,0.3-2.6,0.4-3.9c0.1-0.7,0.2-1.4,0.2-2.1c0-0.4,0.2-0.8,0.1-1.2
			c0.1,0,0.3-0.1,0.3-0.2c0-0.2-0.1-0.3-0.3-0.3c0-0.4,0.2-0.7,0.1-1.1c0.2,0,0.4-0.1,0.4-0.3c0-0.2-0.2-0.2-0.4-0.3
			C135.3,103.6,135.3,103.2,135.3,102.9z"/>
		<path class="st1" d="M135.2,104c0.2,0,0.3,0.1,0.4,0.3c0,0.2-0.2,0.3-0.4,0.3C135.2,104.4,135.2,104.2,135.2,104z"/>
		<path class="st1" d="M135,105.7c0.2,0,0.3,0.1,0.3,0.3c0,0.2-0.1,0.2-0.3,0.2C135,106,135,105.8,135,105.7z"/>
		<path class="st1" d="M47.4,122c0-2,0-4,0-6c0.4-0.1,0.5-0.5,0.5-0.9c0-0.9,0-1.8,0-2.8c0-0.3,0-0.8-0.5-0.9c0-0.2,0-0.5,0-0.7
			c0.2,0,0.4,0,0.6-0.1c0.8-0.4,1.6-0.8,2.4-1.2c0.4-0.2,0.8-0.4,1.2-0.6c2.2-1.2,4.4-2.3,6.7-3.5c1.8-0.9,3.6-1.9,5.3-2.8
			c0.3-0.2,0.7-0.4,1-0.6c0.2-0.1,0.3-0.3,0.3-0.4c0.1-0.2,0.2-0.3,0.3-0.4c0.1,0.1,0.1,0.2,0.1,0.3c-0.1,0.8,0.1,1.6,0.2,2.3
			c0,0.6,0.1,1.2,0.1,1.9c0.1,0.7,0.2,1.5,0.2,2.2c0,0.6,0.1,1.3,0.2,1.9c0.1,1.1,0.3,2.1,0.4,3.2c0.1,1,0.2,2.1,0.3,3.1
			c0,0.5,0,1,0.2,1.4c0,0.1,0,0.3,0,0.4c0,0.2-0.1,0.5,0.1,0.7c0,0.1,0,0.3,0,0.4c0,0.2-0.1,0.5,0.1,0.7c0,0.8,0.1,1.6,0.2,2.3
			c0.1,0.9,0.2,1.7,0.3,2.6c0.1,0.9,0.3,1.8,0.4,2.7c0.1,0.8,0.2,1.6,0.3,2.5c0.2,1.2,0.4,2.5,0.5,3.7c0.2,1.1,0.3,2.2,0.5,3.3
			c0.2,1.3,0.4,2.6,0.6,3.9c0.2,1,0.3,2,0.5,3.1c0.2,1.5,0.5,3,0.7,4.4c0.1,0.8,0.2,0.8-0.7,0.8c-6.2,0-12.3,0-18.5,0
			c-1.3,0-2.6,0-4,0c0-1.2-0.1-2.5-0.2-3.7c-0.1-1.2,0.1-2.4-0.2-3.6v-0.1c0.1-1.8-0.1-3.6-0.2-5.4c0-1.8,0-3.6-0.1-5.4
			C47.3,127.9,47.4,124.9,47.4,122z"/>
		<path class="st10" d="M67.1,117.5c-0.3-0.4-0.2-0.9-0.2-1.4c-0.1-1-0.3-2.1-0.3-3.1c-0.1-1.1-0.3-2.1-0.4-3.2
			c0-0.6-0.2-1.3-0.2-1.9c0-0.7-0.2-1.5-0.2-2.2c-0.1-0.6-0.1-1.2-0.1-1.9c0-0.8-0.3-1.6-0.2-2.3c0-0.1,0-0.2-0.1-0.3
			c0-0.3,0-0.7,0-1c0-0.2,0.1-0.4-0.1-0.6c0.1-1.3-0.1-2.6-0.2-4c0-0.8,0-1.7-0.1-2.5c-0.2-1.5,0-2.9-0.1-4.4
			c-0.1-1.2-0.1-2.4-0.1-3.6s0.1-2.5,0.1-3.7c0.1-1.7,0.3-3.3,0.7-4.9c0.2-0.6,0.3-1.2,0.6-1.7c0.2-0.5,0.6-0.9,1.1-1.2
			c0.3-0.2,0.6-0.2,0.9,0.1c0.4,0.5,1,0.9,1.2,1.6c-0.7,0.2-1.1,0.7-1.4,1.4c-0.2,0.4-0.3,0.8-0.5,1.2c-0.5,1.7-0.6,3.5-0.8,5.2
			c-0.1,1.2-0.1,2.3-0.1,3.5c-0.1,1.2,0,2.4,0.1,3.6c0.1,1.6,0.1,3.2,0.1,4.9c0.1,1.2,0.2,2.4,0.2,3.6v0.1c0.1,1.5,0.3,3,0.4,4.6
			c0.1,1,0.2,2,0.3,3c0,0.9,0.1,1.9,0.3,2.8c0.1,1.1,0.2,2.1,0.3,3.2c0.1,0.6,0.2,1.3,0.2,1.9c0,0.5,0,1,0.1,1.5
			c-0.4,0.1-0.6,0.3-0.9,0.5c-0.2,0.2-0.3,0.3-0.2,0.6C67.4,117.2,67.3,117.4,67.1,117.5z"/>
		<path class="st10" d="M67.2,118.6c-0.2-0.2-0.1-0.5-0.1-0.7C67.6,118.2,67.6,118.3,67.2,118.6z"/>
		<path class="st10" d="M67.3,119.8c-0.2-0.2-0.1-0.5-0.1-0.7C67.6,119.3,67.7,119.4,67.3,119.8z"/>
		<path class="st1" d="M65.1,99.7c0.2,0.1,0.1,0.4,0.1,0.6C64.8,100.1,64.9,99.9,65.1,99.7z"/>
		<path class="st5" d="M71.2,77.3L71.2,77.3C71.2,77.2,71.2,77.3,71.2,77.3z"/>
		<path class="st7" d="M47.4,111.5c0.5,0.1,0.5,0.5,0.5,0.9c0.1,0.9,0,1.8,0,2.8c0,0.3-0.1,0.7-0.5,0.9
			C47.4,114.5,47.4,113,47.4,111.5z"/>
	</g>
</g>
</svg>
