<?xml version="1.0" encoding="utf-8"?>
<!-- Generator: Adobe Illustrator 21.0.0, SVG Export Plug-In . SVG Version: 6.00 Build 0)  -->
<svg version="1.1" id="Layer_1" xmlns="http://www.w3.org/2000/svg" xmlns:xlink="http://www.w3.org/1999/xlink" x="0px" y="0px"
	 viewBox="0 0 200 200" style="enable-background:new 0 0 200 200;" xml:space="preserve">
<style type="text/css">
	.st0{fill:#6A8E49;}
	.st1{fill:#75994E;}
	.st2{fill:#668746;}
	.st3{fill:#FFFFFF;}
	.st4{fill:#C0BEBD;}
</style>
<g id="PZCpuc.tif">
	<g>
		<path class="st0" d="M6.3,96.3c0.3-1.1,0.3-2.2,0.4-3.2c0.4-3.1,1.1-6.2,2.2-9c0.3,0.4,0.4,0.8,0.6,1.3
			c3.9,11.7,7.8,23.6,11.9,35.4c0.1,0.3,0.1,0.7,0.6,0.8c-0.3,1.4-0.4,2.8-0.7,4.2c0,0.4,0,0.8-0.6,1c-3.1-2.5-5.9-5.3-8.3-8.5
			c-3.4-4.8-5.5-9.9-6.2-15.7c0-0.1,0-0.4-0.1-0.4C6.3,100.2,6.3,98.3,6.3,96.3z"/>
		<path class="st1" d="M22,121.6c-0.4,0-0.4-0.6-0.6-0.8c-3.9-11.7-8-23.6-11.9-35.4c-0.1-0.4-0.3-0.8-0.6-1.3
			c0.8-2.8,2.2-5.3,3.8-7.8c2-3.1,4.5-5.9,7.3-8.3c1-0.8,1.7-2,1.7-3.5c0.3,0.3,0.4,0.6,0.4,0.8c-0.3,0.1-0.1,0.4-0.1,0.7
			c0.6,2.7,0.6,5.2,0.6,7.7c0.1,5.6,0.1,11,0.1,16.6c0,1.1,0,2.1,0,3.2c0,3.1,0,6.2,0.1,9.2c0,1.7,0,3.4-0.1,4.9
			c-0.1,2.2,0,4.5-0.1,6.7c-0.1,1.5-0.1,3.1-0.1,4.6C22.1,119.9,22.2,120.8,22,121.6z"/>
		<path class="st0" d="M22.9,102.9c-0.1-3.1-0.1-6.2-0.1-9.2c0-1.1,0-2.1,0-3.2c0-5.6,0-11-0.1-16.6c-0.1-2.5-0.1-5-0.4-7.6
			c0-0.3-0.1-0.6,0.1-0.7c1.1,2.9,3.5,5,5.5,7.4c5.2,5.9,8.3,12.7,9.8,20.3c0.4,2.4,0.6,4.9,0.4,7.3c-0.7,0.1-1.4,0.1-2.1,0.3
			c-2.4,0.4-4.8,0.8-7.3,1.1C26.9,102.3,24.9,102.7,22.9,102.9z"/>
		<path class="st2" d="M22.9,102.9c2,0,3.9-0.6,5.9-0.8c2.4-0.3,4.8-0.7,7.3-1.1c0.7-0.1,1.4-0.1,2.1-0.3c-0.1,3.4-0.7,6.7-1.8,10.1
			c-2.2,6.4-6,11.6-11.3,15.7c-1-0.3-1.4-1.1-1.7-2c-0.6-1.7-0.8-3.5-0.8-5.2c0.1-1.5,0-3.1,0.1-4.6c0.3-2.2,0-4.5,0.1-6.7
			C22.9,106.1,22.8,104.5,22.9,102.9z"/>
		<g>
			<path class="st3" d="M152.9,123.7c-0.3-0.3-0.6-0.3-0.8-0.3c-2.7-0.8-4.6-2.2-5.5-5c-0.4-1.4,0-2.7,1-3.6
				c1.1-1.1,2.4-2.1,3.6-2.9c0.6-0.4,0.6-0.6-0.1-0.8c-1.3-0.6-2.1-1.4-2.5-2.7c-0.1-0.6,0-1,0.4-1.3c1-0.6,1.8-1.1,2.8-1.7
				c0.6-0.4,0.6-0.7-0.1-0.8c-3.1-1.1-4.3-3.5-4.5-6.6c-0.1-3.1,1.3-5.3,3.9-6.7c3.4-1.8,6.7-2.2,10.2-0.8c1.3,0.6,2.4,0.7,3.8,0.7
				c1.1,0,2.2-0.3,3.1-1.1c0.8,2.2-0.6,4.1-3.1,3.9c-1-0.1-1-0.1-0.8,0.8c1.1,6-3.1,9.2-7.7,10.1c-0.6,0.1-1.1,0.1-1.5,0.1
				c-0.8,0.1-1.5,0.6-1.7,1.3c-0.1,0.7,0.4,1.4,1.4,1.5c1.1,0.3,2.4,0.3,3.5,0.3c1.5,0.1,3.2,0.3,4.8,0.6c4.1,0.6,5.9,3.8,4.6,7.7
				c-0.7,2.1-2.1,3.6-3.9,4.9c-1.8,1.3-3.8,2.1-5.9,2.5c-0.1,0-0.1,0-0.3,0.1C156.1,123.7,154.4,123.7,152.9,123.7z M155.5,111.7
				c-1-0.1-2.4,0.3-3.5,1.4c-2.2,2-2.2,4.8,0.3,6.6c2.5,1.8,7.3,2.1,9.8,0.3c1.7-1.1,2.5-2.5,2.1-4.6c-0.3-1.8-1.7-2.7-3.4-3.1
				C159.3,112,157.6,111.8,155.5,111.7z M160.4,97.3c0-1.4-0.3-3.1-1.4-4.3c-2-2.2-5.6-2-6.9,0.4c-1.3,2.4-0.7,6.3,1.3,8.1
				c2.4,2.2,5.7,1.3,6.7-1.7C160.3,99,160.4,98.3,160.4,97.3z"/>
			<path class="st3" d="M55.8,101.2c0,1.8,0,3.6,0,5.5c0,1.4,0.4,1.8,1.8,2.1c0.1,0,0.4,0.1,0.6,0.1c0.8,0,1,0.4,0.8,1.1
				c-0.1,0.7-0.1,1-0.8,0.8c-3.1-0.1-6.3-0.1-9.4,0c-0.4,0-0.8,0-0.7-0.6c0-0.4-0.3-1.1,0.6-1.3c2.8-0.6,2.8-0.6,2.9-3.4
				c0.1-3.6,0.1-7.1,0-10.8c0-0.7-0.3-1.1-0.8-1.4c-0.7-0.4-1.5-0.7-2.2-1c-0.4-0.1-0.8-0.3-0.7-0.7c0-0.4,0.4-0.6,0.8-0.7
				c2.4-0.4,4.6-0.8,6.9-1.7c0.6-0.1,0.6,0.1,0.6,0.4c0,0.6,0,1.3-0.1,1.8c0,0.3-0.1,0.6,0.1,0.8c0.3,0.1,0.6-0.1,0.8-0.3
				c1.4-1.1,2.9-2,4.6-2.5c2.8-1,5.3-0.1,7,2.2c0.6,0.8,0.6,0.8,1.5,0.3c1.3-0.8,2.5-1.7,3.9-2.2c4.5-1.8,8.4,0.4,9.4,5.2
				c0.3,1.1,0.3,2.4,0.3,3.6c0,2.8,0,5.6,0,8.5c0,0.7,0.3,1.1,1,1.4c0.7,0.3,1.4,0.4,2.1,0.6c0.6,0,0.6,0.3,0.6,0.7
				c-0.1,1.1-0.1,1.1-1.3,1.1c-2.9-0.1-5.9-0.1-8.8,0c-0.4,0-0.8,0-0.7-0.6c0-0.4-0.4-1.1,0.6-1.3c2.5-0.6,2.5-0.6,2.5-3.1
				c0-2.9,0.1-5.7,0-8.7c-0.1-3.2-2.8-5.2-6-4.5c-1.1,0.3-2.1,0.7-3.1,1.4c-0.4,0.3-0.6,0.6-0.4,1c0.3,2.4,0.1,4.9,0.1,7.3
				c0,1.5,0,3.2,0,4.8c0,0.7,0.4,1.1,1,1.3c0.6,0.1,1.1,0.4,1.7,0.4c0.8,0,0.7,0.7,0.7,1.1c0,0.6-0.3,0.8-0.8,0.7
				c-3.1-0.1-6.2-0.1-9.4,0c-0.4,0-0.8,0-0.7-0.6c0-0.4-0.3-1.1,0.6-1.3c0.4,0,0.8-0.1,1.3-0.3c1.3-0.3,1.5-0.6,1.5-1.8
				c0.1-3.2,0.3-6.6,0-9.8c-0.1-2.4-1.4-4.2-3.4-4.6c-2.2-0.6-4.2,0.4-6,1.7c-0.4,0.3-0.4,0.8-0.4,1.4
				C55.7,97.6,55.7,99.4,55.8,101.2C55.7,101.2,55.7,101.2,55.8,101.2z"/>
			<path class="st3" d="M124.8,92.8c0.8-0.7,1.5-1.1,2.4-1.7c1.3-0.8,2.7-1.5,4.1-1.8c3.2-0.6,6.2,1.3,7.3,4.5
				c0.4,1.4,0.6,2.8,0.6,4.3c0,2.9,0,6,0,9c0,0.8,0.3,1.4,1.1,1.5c0.6,0.1,1,0.3,1.5,0.3c0.8,0.1,1,0.3,0.8,1.4c0,0.7-0.4,1-1.1,0.8
				c-2.9-0.3-5.9-0.3-8.8,0c-1.3,0.1-1.7-0.6-1.3-1.8c0.1-0.3,0.3-0.3,0.6-0.4c0.6-0.1,1-0.1,1.5-0.3c0.7-0.1,1-0.6,1.1-1.3
				c0.1-2.8,0-5.6,0-8.4c0-0.6,0-1.1-0.1-1.8c-0.1-2.9-2.1-4.6-5-4.5c-1.3,0.1-2.4,0.4-3.5,1.1c-0.7,0.4-1,1-1,1.8
				c0,3.8,0,7.6,0.1,11.2c0,1.1,0.3,1.4,1.4,1.7c0.4,0.1,0.8,0.1,1.3,0.1c0.6,0,0.7,0.3,0.7,0.7c0,1.3-0.1,1.4-1.4,1.4
				c-2.9-0.1-5.9-0.1-8.8,0c-0.4,0-1,0.3-1.1-0.6c-0.1-1.3,0-1.5,0.8-1.7c2.2-0.4,2.4-0.6,2.4-2.8c0.1-3.6,0-7.3,0.1-11
				c0-0.7-0.3-1.1-0.8-1.4c-0.7-0.4-1.5-0.7-2.2-1c-0.4-0.1-0.8-0.3-0.8-0.8c0-0.6,0.4-0.7,1-0.8c2.4-0.4,4.6-0.8,6.9-1.8
				c0.3-0.1,0.4,0,0.6,0.3s0.1,0.7,0,1.1C124.9,91.3,124.8,92,124.8,92.8z"/>
			<path class="st3" d="M193.9,99.4c0,4.1-1.1,7.3-4.1,9.5c-4.5,3.4-10.8,3.4-14.4,0c-2.1-1.8-3.1-4.3-3.4-7c-0.4-3.4,0.3-6.4,2.7-9
				c3.4-3.5,9.5-4.6,13.7-2.5C192.3,92.4,193.7,95.7,193.9,99.4z M189.1,101.6c0-0.6,0-1.3-0.1-1.8c-0.3-2.4-1-4.6-2.7-6.3
				c-1.7-1.7-3.6-2.2-6-1.7c-2.2,0.6-3.2,2.4-3.6,4.5c-0.6,2.9-0.3,5.9,1,8.7c0.8,1.8,2.1,3.2,4.1,3.9c3.2,1.1,6-0.3,6.9-3.5
				C189.1,104,189.1,102.7,189.1,101.6z"/>
			<path class="st3" d="M100.7,111.4c-6.3,0-9.8-4.2-10.4-9.8c-0.3-4.1,0.7-7.4,4.2-9.8c2.5-1.8,5.5-2.7,8.5-2.4
				c3.9,0.4,6.7,2.4,8.3,6c0.8,1.8,1,3.8,0.8,5.7C111.6,108,106,111.3,100.7,111.4z M107.6,101.3c0-0.6,0-1.5-0.3-2.5
				c-0.4-2.4-1.3-4.5-3.2-6c-2.9-2.2-7.7-2-8.8,3.1c-0.6,2.2-0.4,4.3,0.1,6.4s1.4,3.9,3.2,5.3c2.5,2.1,7.7,2.2,8.7-3.1
				C107.4,103.7,107.6,102.6,107.6,101.3z"/>
		</g>
		<path class="st4" d="M22.4,119.1c0,1.8,0.3,3.5,0.8,5.2c0.3,0.8,0.7,1.7,1.7,2c-0.8,1-1.1,2.2-1.1,3.5c-0.1,1.8-0.3,3.6,0,5.5
			c0,0.1,0,0.3-0.3,0.3c-1.1,0-1.7-0.6-1.7-1.7c0-2.4-0.3-4.8-1.1-7c0.6-0.1,0.6-0.7,0.6-1c0.3-1.4,0.4-2.8,0.7-4.2
			C22.2,120.8,22.1,119.9,22.4,119.1z"/>
	</g>
</g>
</svg>
