<?xml version="1.0" encoding="utf-8"?>
<!-- Generator: Adobe Illustrator 21.0.0, SVG Export Plug-In . SVG Version: 6.00 Build 0)  -->
<svg version="1.1" id="Layer_1" xmlns="http://www.w3.org/2000/svg" xmlns:xlink="http://www.w3.org/1999/xlink" x="0px" y="0px"
	 viewBox="0 0 200 200" style="enable-background:new 0 0 200 200;" xml:space="preserve">
<style type="text/css">
	.st0{fill:#244E60;}
	.st1{fill:#D98033;}
</style>
<g id="_x30_YuHZO.tif">
	<g>
		<path class="st0" d="M181.8,100c0,45-36.8,81.9-81.8,81.9c-44.9,0-81.8-36.7-81.8-81.3c0-45.7,36.4-82.3,81.8-82.3
			C145.1,18.2,181.8,54.9,181.8,100z M24,99.5c0.2,40.9,31.5,76.5,77.8,76c39.6-0.4,73.2-32.6,73.9-73.7c0.7-43.2-32.6-77-75.8-77.4
			C58.7,24,24.5,57.9,24,99.5z"/>
		<path class="st1" d="M103.5,170.1c3.2-1.8,6.3-3.5,9-5.7c16.3-13.2,18.8-38,5.6-54.4c-5.1-6.3-11.7-10.2-19.1-13.1
			c-16.8-6.7-25.2-27.6-17.9-44.2C86,41.6,94.4,34.6,106.3,32c7.6-1.6,14.8-0.2,21.8,2.9c23.4,10.5,37.4,28.5,42.1,53.5
			c5.3,28.6-9.7,59.3-35.2,73.3c-9.3,5.1-19.1,8.3-29.7,8.9C104.7,170.6,104.2,170.8,103.5,170.1z M113.6,81
			c-2.9,2.5-3.6,5.5-3.9,8.7c-0.1,0.7,0.1,1.9-0.8,2c-1,0.2-1.4-0.9-1.7-1.7c-2.4-5.2-2.6-10.5-0.7-15.9c1-2.7,1.5-5-1.1-7.1
			c-0.8-0.7-1.3-1.9-1.7-2.9c-2-5.8-4-11.6-8.3-16.3c-0.1-0.1-0.2-0.3-0.3-0.5c-0.4-0.8-0.8-1.7-0.2-2.5c0.7-0.9,1.8-0.7,2.7-0.4
			c2,0.7,4.1,1.4,5.6,2.8c1.8,1.5,3.8,2.1,6,2.1c2.7,0.1,5.2,1,7.5,2.3c9.1,5.1,15.9,12.2,20,22c1.7,4.1,3.8,8.1,5.6,12.2
			c1.1,2.4,2.7,3.9,5.4,4.6c5.2,1.3,9.3,4.5,13.3,8c-3.3,0.2-6.5,0.6-9.6,1.7c-1.9,0.6-2.1,1.6-1.1,3.1c1,1.6,2.3,2.9,3.8,4
			c3.3,2.5,7.4,3.5,10.5,6.2c0.3,0.3,0.7,0.9,1.3,0.1c-1.6-2.7-3.8-5-6.4-6.7c-1.2-0.8-2.4-1.4-3.6-2.2c-0.6-0.4-1.6-0.8-1.4-1.7
			c0.2-0.8,1.1-0.7,1.8-0.8c2.2-0.5,4.5-0.8,6.7-1.3c1.8-0.3,2.3-1,0.9-2.5c-4.3-4.6-9.4-8.2-15.3-10.5c-1.5-0.6-2.5-1.5-3.2-2.9
			c-1.6-3.5-3.6-6.9-4.9-10.5c-4.2-11-11.8-18.9-21.7-24.9c-2.7-1.6-5.6-2.6-8.7-2.7c-1.9-0.1-3.5-0.7-5.1-1.8
			c-2.2-1.7-4.8-2.9-7.7-3.3c-1.8-0.3-3.5,0.1-4.7,1.7c-1.1,1.6-1,3.3-0.2,5c0.4,0.8,0.8,1.6,1.4,2.2c2.8,3.2,4.6,6.7,5.8,10.8
			c1,3.4,3.7,6.2,4.5,9.3c0.8,3.1-1.8,6.8-1.7,10.4c0.1,4.6,0.7,9.1,4,12.7c1,1.1,2.1,1.9,3.7,1.4c1.5-0.5,2.1-1.7,2.4-3.2
			c0.2-1.2,0.2-2.5,1.2-3.9c1.8,4.7,4.9,7.8,8.8,10.4C118.9,93.1,116.3,87.2,113.6,81z M108.9,54.1c-0.6,0.1-1.5,0-1.2,0.6
			c0.7,1.4,1.6,2.8,2.8,3.9c0.4,0.4,0.9-0.8,0.9-1.5C111.4,55.4,110.4,54.5,108.9,54.1z"/>
		<path class="st0" d="M96.8,29.1c-5.6,3.2-10.6,6.8-14.7,11.7C67,59.4,72,87.1,92.6,99.2c2.5,1.5,5.2,2.6,7.9,3.6
			c23.2,9.4,28.3,41.1,9.2,57.2c-10.9,9.2-23.2,11.1-36.4,5.6c-27.9-11.6-45.2-37.2-44.4-67.3c0.8-26.5,13.3-46.6,36.2-60.1
			c8.8-5.2,18.5-8,28.7-8.9C94.8,29.2,95.8,29.2,96.8,29.1z M88.4,118.2c2.9-2.4,3.5-5.5,3.9-8.6c0.1-0.8-0.3-2.1,0.7-2.3
			c1.1-0.2,1.5,1.1,1.9,1.9c0.4,1,0.9,1.9,1.1,3c1.1,4.4,1.2,8.9-0.6,13.2c-1,2.5-1.2,4.6,1,6.6c1.2,1.1,1.9,2.8,2.4,4.4
			c1.5,5.4,3.7,10.4,7.5,14.6c0.8,0.9,1.6,2.2,0.7,3.3c-1,1.2-2.3,0.4-3.4,0c-0.4-0.1-0.8-0.3-1.2-0.5c-4-2.3-8-4.6-12.8-4.6
			c-1.3,0-2.7-0.9-3.9-1.5c-9.4-5-16.3-12.3-20.4-22.2c-1.9-4.4-4-8.8-6.1-13.1c-0.8-1.7-2-2.9-3.8-3.3c-5.2-1.2-9.3-4.3-13.6-7.3
			c-0.4-0.3-1-0.5-0.5-1.4c1.1,0,2.3,0.1,3.5,0c1.2-0.1,2.4-0.3,3.6-0.6c4.6-1.2,5-2.5,1.6-6c-3.7-3.8-9-5.1-13.2-8.1
			c-0.2-0.1-0.6,0.1-0.9,0.1c2.7,5,8.1,7,12.2,10.7c-3.3,1.4-6.3,1.4-9.2,2.1c-1.8,0.4-2.2,1-0.8,2.5c4.3,4.6,9.4,8.2,15.2,10.6
			c1.4,0.5,2.4,1.2,3.1,2.6c1.9,4.1,4,8,5.6,12.2c2,5,4.8,9.4,8.4,13.3c4.7,5.2,10,9.9,16.7,11.9c4.7,1.4,9.4,2.5,13.8,5.1
			c3.6,2.1,6.7,1.6,8.2-0.4c1.6-2.1,1.2-4.6-1.6-8.1c-2.2-2.7-3.9-5.5-4.9-8.9c-1-3.5-2.3-7-4.9-9.8c-0.7-0.8-0.3-1.4,0-2.2
			c1.3-4.8,2.3-9.6,1.2-14.5c-0.7-2.9-1.6-5.6-3.9-7.6c-2.3-2-4.9-1.1-5.6,1.8c-0.3,1.4-0.2,2.9-0.9,4.3c-5.7-8.6-6.1-9-8.5-8.9
			C83.4,107,86.2,112.3,88.4,118.2z M91.7,140.2c-1.2,0.9-1.4,2-0.8,3.1c0.5,1,1.2,1.8,2.4,1.7c0.7,0,1.6,0,0.9-1.2
			C93.4,142.6,92.5,141.4,91.7,140.2z"/>
	</g>
</g>
</svg>
