<?xml version="1.0" encoding="utf-8"?>
<!-- Generator: Adobe Illustrator 24.1.0, SVG Export Plug-In . SVG Version: 6.00 Build 0)  -->
<svg version="1.1" id="Layer_1" xmlns="http://www.w3.org/2000/svg" xmlns:xlink="http://www.w3.org/1999/xlink" x="0px" y="0px"
	 viewBox="0 0 200 200" style="enable-background:new 0 0 200 200;" xml:space="preserve">
<style type="text/css">
	.st0{fill:#028EC7;}
	.st1{fill:#3FB52E;}
	.st2{fill:#FDFDFD;}
</style>
<g id="_x37_QOy4g.tif">
	<g>
		<path class="st0" d="M23.5,85.4c1.2-0.9,0.8-2.2,0.9-3.3C26,69.5,30.7,58.2,38.1,48c0.3-0.4,0.7-0.8,1.2-1.3c2,2.7,4.2,5,7,6.7
			c8.4,5.2,19.4,4.2,26.6-2.6C80.2,44,82,33,77.1,24.3c-1.6-3-1.7-3,1.5-3.8c23.2-5.5,44.4-1.4,63.6,12.9c0.3,0.2,0.5,0.4,0.8,0.6
			c0.1,0.1,0.1,0.3,0.4,0.8c-11-1.2-20.9,1.2-29.5,7.8c-8.7,6.7-14,15.5-15.3,26.4c-2.1,17.8,7,34.1,22.3,41.3
			c15.1,7.1,36.1,4.8,49.4-12.6c0.5,0.9,0.2,1.7,0.2,2.5c-2.9,28.9-24.6,54.5-52.6,62.3c-1.9,0.5-2.1,0.2-1.7-1.7
			c3.6-18.6-8.2-35.7-26.8-38.9c-16.5-2.8-33,8.1-36.9,24.4c-0.2,0.9-0.4,1.9-0.6,2.9c-1.2,0-1.9-1-2.6-1.6
			c-14.1-12.4-22.5-27.9-25-46.5c-0.1-0.9,0.3-2-0.9-2.5C23.5,94.1,23.5,89.8,23.5,85.4z M106,41.4c3.2-0.1,5.8-2.7,5.8-5.9
			s-2.8-6-6-5.9c-3.3,0.1-5.9,2.9-5.8,6.1C100.1,39,102.8,41.5,106,41.4z M90.4,24.2c-3.2,0-6,2.8-5.9,6c0.1,3.1,2.7,5.8,5.9,5.8
			c3.1,0,5.8-2.6,5.9-5.8S93.7,24.3,90.4,24.2z M63.2,122.1c3.3,0,5.8-2.5,5.9-5.8c0-3.3-2.7-6.1-6-6c-3.2,0.1-5.7,2.7-5.7,6
			C57.4,119.5,59.9,122,63.2,122.1z M50.7,61.8c-3.4,0-5.8,2.3-5.9,5.6c-0.1,3.5,2.4,6,5.8,6c3.3,0,5.8-2.5,5.9-5.8
			C56.5,64.4,54,61.9,50.7,61.8z M126,131.8c-3.2,0-5.8,2.7-5.8,5.9c0,3.3,2.6,5.7,5.9,5.7c3.3,0,6-2.7,5.9-6
			C132,134.2,129.3,131.7,126,131.8z M55.3,95c-3.3-0.1-6.1,2.5-6.1,5.8c0,3.2,2.6,5.8,5.8,5.9c3.3,0.1,6-2.5,6.1-5.8
			C61.1,97.8,58.5,95.1,55.3,95z M45.7,83.7c0,3.2,2.5,5.9,5.7,5.9c3.3,0.1,6-2.7,5.9-6c0-3.2-2.7-5.8-5.9-5.8
			C48.3,77.9,45.7,80.5,45.7,83.7z M136.8,119.1c-3.2,0-5.8,2.6-5.9,5.8c0,3.2,2.6,5.8,5.8,5.9c3.3,0,6.1-2.7,6-5.9
			C142.7,121.7,140,119.1,136.8,119.1z"/>
		<path class="st1" d="M176.5,74.3c-0.2,21.6-17.3,38.4-38.4,38.5c-21.2,0.2-38.9-17.5-38.7-38.7c0.2-21.7,17.8-38.5,38.8-38.4
			C159.6,35.8,176.7,53.4,176.5,74.3z"/>
		<path class="st1" d="M52.8,153.9c0.2-17.3,14.4-31.4,31.6-31.3c17.5,0.1,31.5,14.4,31.3,31.9c-0.2,17.3-14.7,31.4-32.4,31
			C66.5,185.2,52.6,170.9,52.8,153.9z"/>
		<path class="st1" d="M57.9,14.4C71.1,14.2,78.6,25,78.6,34.7c0,11.3-9.2,20.8-20.5,20.9c-11.5,0.1-21.1-9.4-21-20.8
			C37.1,24.8,45,14,57.9,14.4z"/>
		<path class="st2" d="M106,41.4c-3.2,0.1-5.9-2.5-6-5.6c-0.1-3.3,2.5-6.1,5.8-6.1c3.2-0.1,6,2.7,6,5.9
			C111.8,38.7,109.2,41.4,106,41.4z"/>
		<path class="st2" d="M90.4,24.2c3.3,0,6,2.8,5.9,6S93.5,36,90.4,36c-3.2,0-5.8-2.6-5.9-5.8S87.2,24.2,90.4,24.2z"/>
		<path class="st2" d="M63.2,122.1c-3.2,0-5.8-2.6-5.8-5.8c0-3.2,2.5-5.9,5.7-6c3.3-0.1,6,2.7,6,6C69,119.5,66.4,122.1,63.2,122.1z"
			/>
		<path class="st2" d="M50.7,61.8c3.3,0,5.8,2.6,5.8,5.9c0,3.3-2.6,5.8-5.9,5.8c-3.4,0-5.9-2.5-5.8-6C44.8,64.2,47.3,61.8,50.7,61.8
			z"/>
		<path class="st2" d="M126,131.8c3.2-0.1,5.9,2.5,6,5.7c0.1,3.3-2.6,6-5.9,6c-3.3,0-5.9-2.5-5.9-5.7
			C120.2,134.5,122.8,131.8,126,131.8z"/>
		<path class="st2" d="M55.3,95c3.2,0.1,5.8,2.7,5.7,5.9c0,3.3-2.8,5.9-6.1,5.8c-3.2-0.1-5.8-2.7-5.8-5.9C49.2,97.6,52,95,55.3,95z"
			/>
		<path class="st2" d="M45.7,83.7c0-3.2,2.6-5.9,5.8-5.9s5.8,2.6,5.9,5.8c0,3.3-2.7,6.1-5.9,6C48.3,89.6,45.7,87,45.7,83.7z"/>
		<path class="st2" d="M136.8,119.1c3.2,0,5.9,2.5,5.9,5.7c0.1,3.2-2.7,6-6,5.9c-3.2,0-5.8-2.7-5.8-5.9
			C131,121.7,133.6,119.1,136.8,119.1z"/>
	</g>
</g>
</svg>
