<?xml version="1.0" encoding="utf-8"?>
<!-- Generator: Adobe Illustrator 21.0.0, SVG Export Plug-In . SVG Version: 6.00 Build 0)  -->
<svg version="1.1" id="Layer_1" xmlns="http://www.w3.org/2000/svg" xmlns:xlink="http://www.w3.org/1999/xlink" x="0px" y="0px"
	 viewBox="0 0 107.6 114" style="enable-background:new 0 0 107.6 114;" xml:space="preserve">
<style type="text/css">
	.st0{fill:#262626;}
	.st1{fill:#696969;}
	.st2{fill:#0061F5;}
	.st3{fill:#DC5C41;}
	.st4{fill:#96E224;}
</style>
<g id="Y94HZI.tif">
	<g>
		<path class="st0" d="M87.2,81.7c-0.3,0.8-0.6,1.7-0.8,2.5c-1.1,3.3-2.1,6.6-3.2,9.9c-0.1,0.2-0.1,0.2-0.3,0.2c-1.1,0-2.2,0-3.3,0
			c-0.2,0-0.2-0.1-0.3-0.2c-1.3-4.1-2.6-8.3-4-12.4c-0.1-0.2-0.1-0.3,0.2-0.3c0.7,0,1.4,0,2.1,0c0.1,0,0.2,0,0.3,0.2
			c0.9,2.8,1.9,5.6,2.8,8.5c0.2,0.7,0.4,1.4,0.6,2.2c0.2-0.3,0.2-0.6,0.3-0.8c0.9-3.3,2.1-6.6,3.1-9.8c0-0.1,0.1-0.2,0.2-0.2
			c0.8,0,1.6,0,2.4,0C87.2,81.5,87.2,81.6,87.2,81.7z"/>
		<path class="st1" d="M36.1,98.2C36.1,98.2,36.1,98.2,36.1,98.2c-0.7,0.1-1.5,0.1-2.2,0.1c0,0,0,0,0-0.1
			C34.6,98.2,35.3,98.2,36.1,98.2z"/>
		<path class="st2" d="M55.6,62c0.2-5.7,2.7-10.2,7.6-13.3c0.2-0.1,0.3-0.1,0.4,0.1c1.5,2.6,2.9,5.1,4.4,7.7
			c0.1,0.2,0.1,0.3-0.1,0.4c-2.2,1.4-3.3,3.9-2.8,6.4c0.5,2.5,2.4,4.4,4.9,4.9c3.5,0.7,7-1.9,7.3-5.5c0.2-2.5-0.8-4.5-2.8-5.9
			c-0.2-0.1-0.2-0.2-0.1-0.4c1.5-2.6,3-5.1,4.4-7.7c0.1-0.2,0.2-0.2,0.3-0.1c4,2.5,6.5,6,7.3,10.6c0.9,5.1-0.5,9.5-3.9,13.3
			c-2.1,2.3-4.8,3.9-7.9,4.6c-5,1.1-9.5,0-13.5-3.2c-3-2.5-4.8-5.7-5.4-9.5C55.7,63.7,55.6,62.8,55.6,62z"/>
		<path class="st3" d="M37.8,31c0.1-3.8,1.5-7.4,4.3-10.4c2.5-2.6,5.5-4.2,9-4.7c8.1-1.2,15.8,4.2,17.5,12.2
			c1.3,6.2-1.3,12.6-6.6,16.1c-0.2,0.1-0.4,0.3-0.7,0.4c-0.1,0.1-0.2,0.1-0.3-0.1c-1-1.8-2-3.5-3-5.3c-0.5-0.8-0.9-1.6-1.4-2.4
			c-0.1-0.2-0.1-0.3,0.1-0.4c1.9-1.3,2.9-3.1,2.9-5.4c0-3.1-2.5-5.7-5.5-6c-3.4-0.3-6.3,2-6.8,5.3c-0.3,2.6,0.7,4.6,2.8,6.1
			c0.2,0.1,0.2,0.2,0.1,0.4c-1.5,2.5-2.9,5.1-4.4,7.6c-0.1,0.2-0.2,0.2-0.4,0.1c-3.9-2.4-6.3-5.9-7.3-10.4
			C37.9,33.3,37.8,32.3,37.8,31z"/>
		<path class="st4" d="M35.9,46.5c2.8,0,5.3,0.7,7.7,2c0.2,0.1,0.2,0.2,0.1,0.3c-1.5,2.5-3,5.1-4.4,7.7c-0.1,0.2-0.2,0.2-0.4,0.1
			c-3.8-2-8.4,0.4-9,4.6c-0.5,3.3,1.9,6.5,5.2,7c3.4,0.5,6.5-1.8,7.1-5.2c0-0.2,0.1-0.5,0.1-0.7c0-0.1,0-0.2,0.2-0.2
			c0,0,0.1,0,0.1,0c2.9,0,5.8,0,8.8,0c0.2,0,0.3,0,0.3,0.3c-0.1,2.6-0.7,5.1-2,7.4c-2.1,3.6-5.1,6.1-9.1,7.2
			c-4.9,1.4-9.4,0.6-13.5-2.4c-3.4-2.4-5.4-5.7-6.2-9.8c-1.2-6.4,1.8-12.7,7.3-16.1c2-1.2,4.1-1.9,6.4-2.1
			C34.9,46.5,35.4,46.5,35.9,46.5z"/>
		<path class="st0" d="M20.7,88.1c0-1.4,0.1-2.8,0.4-4.2c0.3-1.2,1-2,2.2-2.3c2-0.4,4.1-0.5,6.1-0.1c1.5,0.3,2.3,1.2,2.5,2.7
			c0.3,1.9,0.3,3.7,0.2,5.6c-0.1,0.8-0.2,1.6-0.4,2.4c-0.3,0.9-0.9,1.5-1.8,1.8c-1.4,0.4-2.8,0.5-4.3,0.4c-0.7,0-1.4-0.1-2.1-0.2
			c-1.4-0.3-2.2-1-2.5-2.4C20.7,90.5,20.7,89.3,20.7,88.1z M29.7,87.8c0-1.1,0-2.2-0.2-3.2c-0.1-0.6-0.4-0.9-1-1
			c-1.1-0.2-2.2-0.2-3.3-0.1c-0.4,0-0.8,0.1-1.2,0.2c-0.3,0.1-0.5,0.3-0.6,0.7c0,0.2-0.1,0.4-0.1,0.5c-0.2,1.6-0.2,3.2-0.1,4.8
			c0,0.5,0.1,1,0.2,1.4c0.1,0.5,0.4,0.9,1,1c1.3,0.3,2.6,0.3,3.9,0.1c1-0.2,1.2-0.4,1.4-1.4C29.7,89.8,29.7,88.8,29.7,87.8z"/>
		<path class="st0" d="M66.3,87.9c0,1.1,0,2.1,0.2,3.1c0.1,0.6,0.4,1,1,1.1c0.7,0.2,1.5,0.2,2.2,0.2c0.4,0,0.7,0,1.1-0.1
			c1-0.1,1.4-0.5,1.4-1.5c0-0.3,0-0.5,0-0.8c0-0.1,0-0.2,0.2-0.2c0.7,0,1.4,0,2.1,0c0.1,0,0.2,0,0.2,0.1c0,1,0,1.9-0.4,2.9
			c-0.2,0.6-0.6,1-1.2,1.2c-0.7,0.3-1.4,0.4-2.2,0.4c-1.5,0.1-3,0.1-4.5-0.2c-0.2,0-0.3-0.1-0.5-0.1c-1-0.3-1.6-0.9-1.8-1.9
			c-0.2-1-0.3-2-0.4-3c-0.1-1.3-0.1-2.6,0-3.9c0.1-0.7,0.2-1.4,0.5-2.1c0.3-0.8,0.9-1.2,1.7-1.4c2-0.6,4.1-0.6,6.2-0.3
			c1.5,0.3,2.1,1.1,2.3,2.6c0.1,0.5,0.1,1,0.1,1.4c0,0.2,0,0.2-0.2,0.2c-0.7,0-1.4,0-2,0c-0.2,0-0.2-0.1-0.2-0.2c0-0.3,0-0.7-0.1-1
			c-0.1-0.6-0.4-0.9-1-1c-1.3-0.2-2.5-0.2-3.8,0.1c-0.5,0.1-0.7,0.4-0.8,0.9C66.2,85.6,66.3,86.8,66.3,87.9z"/>
		<path class="st0" d="M36.1,98.2c-0.7,0-1.5,0-2.2,0c0-0.9,0-1.8,0-2.8c0-3.3,0-6.6,0-9.9c0-0.2,0.1-0.3,0.3-0.3c0.5,0,1.1,0,1.6,0
			c0.2,0,0.2,0,0.2,0.2c0,0.3,0,0.7-0.1,1c0.1,0,0.1-0.1,0.2-0.1c0.5-0.8,1.3-1.1,2.2-1.2c0.7-0.1,1.4,0,2.2,0.2
			c0.9,0.3,1.5,0.9,1.7,1.8c0.3,1.1,0.3,2.3,0.3,3.4c0,0.7-0.1,1.4-0.4,2.1c-0.3,0.9-0.9,1.4-1.8,1.6c-0.8,0.2-1.7,0.2-2.5,0
			c-0.6-0.2-1.1-0.5-1.4-1c-0.1-0.1-0.1-0.2-0.2-0.3C36.1,94.8,36.1,96.5,36.1,98.2z M40.2,90c0-0.7,0-1.4-0.2-2.1
			c-0.1-0.5-0.4-0.8-0.9-0.9c-0.6-0.2-1.2-0.2-1.8-0.1c-0.6,0.1-1,0.4-1.1,1.1c-0.2,0.9-0.2,1.9-0.1,2.8c0,0.3,0.1,0.7,0.2,1
			c0.1,0.4,0.4,0.7,0.8,0.8c0.6,0.2,1.2,0.2,1.9,0.1c0.6-0.1,0.9-0.4,1-1C40.2,91.1,40.2,90.6,40.2,90z"/>
		<path class="st0" d="M49,90.2c-0.9,0-1.9,0-2.8,0c-0.2,0-0.2,0-0.2,0.2c0,0.3,0,0.7,0.1,1c0.1,0.8,0.4,1.1,1.2,1.3
			c0.6,0.1,1.2,0.1,1.7,0c0.7-0.1,0.9-0.3,0.9-1c0-0.2,0.1-0.3,0.3-0.3c0.5,0,1.1,0,1.6,0c0.2,0,0.3,0.1,0.2,0.3
			c0,0.2-0.1,0.5-0.1,0.7c-0.2,1-0.9,1.5-1.8,1.8c-1.1,0.3-2.2,0.3-3.3,0.2c-0.4,0-0.8-0.1-1.2-0.2c-0.8-0.2-1.3-0.8-1.5-1.6
			c-0.3-1.2-0.4-2.5-0.3-3.7c0-0.5,0.1-0.9,0.2-1.4c0.2-1.1,0.9-1.8,2-2.1c1.3-0.3,2.6-0.3,4,0c1,0.2,1.6,0.9,1.8,1.9
			c0.2,0.9,0.2,1.8,0.3,2.8c0,0.2-0.1,0.1-0.2,0.1C50.9,90.2,50,90.2,49,90.2z M48,88.9c0.4,0,0.8,0,1.3,0c0.8,0,0.8,0,0.7-0.8
			c-0.1-0.8-0.3-1.1-1.1-1.2c-0.5-0.1-1.1-0.1-1.6,0C46.5,87,46.2,87.3,46,88c0,0.2,0,0.4,0,0.6c0,0.2,0,0.3,0.2,0.3
			C46.8,88.8,47.4,88.9,48,88.9z"/>
		<path class="st0" d="M56.1,86.7C56,86.7,56.1,86.7,56.1,86.7c0.5-1,1.2-1.4,2.2-1.5c0.7-0.1,1.4-0.1,2.2,0.2c1,0.3,1.5,1,1.7,2.1
			c0,0.3,0.1,0.5,0.1,0.8c0,1.9,0,3.9,0,5.8c0,0.2,0,0.3-0.3,0.3c-0.5,0-1.1,0-1.6,0c-0.2,0-0.2-0.1-0.2-0.2c0-1.8,0-3.6,0-5.4
			c0-0.2,0-0.4,0-0.7c-0.1-0.7-0.4-1-1-1.1c-0.6-0.1-1.1-0.1-1.7,0.1c-0.8,0.3-1.2,0.9-1.2,1.8c0,1.7,0,3.5,0,5.2
			c0,0.3-0.1,0.3-0.3,0.3c-0.5,0-1.1,0-1.6,0c-0.2,0-0.2,0-0.2-0.2c0-2.9,0-5.8,0-8.6c0-0.2,0-0.2,0.2-0.2c0.5,0,1.1,0,1.6,0
			c0.2,0,0.2,0.1,0.2,0.2C56,85.9,56.1,86.3,56.1,86.7z"/>
	</g>
</g>
</svg>
