<?xml version="1.0" encoding="utf-8"?>
<!-- Generator: Adobe Illustrator 23.1.0, SVG Export Plug-In . SVG Version: 6.00 Build 0)  -->
<svg version="1.1" id="Layer_1" xmlns="http://www.w3.org/2000/svg" xmlns:xlink="http://www.w3.org/1999/xlink" x="0px" y="0px"
	 viewBox="0 0 200 200" style="enable-background:new 0 0 200 200;" xml:space="preserve">
<style type="text/css">
	.st0{fill:#386390;}
</style>
<g id="D8wEtb.tif">
	<g>
		<path class="st0" d="M63.3,137.1c-2.1,2.1-4.3,3.7-7.1,4.3c-4.7,0.9-8.3-1.2-11.5-4.4c-4-4-6.7-8.9-9.1-14
			c-5.8-12.3-9.7-25.2-12.9-38.3c-1.9-7.6-3.8-15.1-4.3-22.9c-0.7-9.6,0.1-19.1,4.8-27.8c4.3-7.9,11.1-12.6,19.7-14.8
			c8.5-2.1,17-1.6,25.5-0.2c4.2,0.7,8.3,1.7,12.3,3c0.8,0.3,1.5,0.2,2.2-0.2c7.6-4.2,15.8-5,24.2-4.2c2.5,0.2,4.9,0.6,7.4,1.2
			c0.6,0.2,1.2-0.1,1.7-0.2c12.5-3.8,25.2-4.5,37.9-0.8c9.6,2.8,17.4,8.3,23.5,16.2c2.4,3.1,2.9,6.8,3.2,10.6
			c0.5,7.8-0.8,15.4-2.7,22.9c-3.8,15.7-10,30.4-18.1,44.4c-0.1,0.1-0.2,0.3-0.2,0.4c-0.8,1.5-0.8,1.5,0.8,1.6c3,0.2,6.1,0,9.1-0.4
			c1.9-0.3,3.7-0.7,5.6-0.9c4.2-0.5,7.1,2.4,6.4,6.6c-0.9,5.4-4.1,9.3-8.3,12.5c-3.6,2.7-7.9,3.8-12.2,4.5
			c-4.2,0.7-8.4,0.9-12.7,0.3c-1.1-0.2-1,0.4-1,1.1c-0.9,8.4-1.9,16.8-3.2,25.2c-1.3,7.7-4.5,14.2-11.8,17.8
			c-5.1,2.6-10.5,3.9-16.2,4.2c-4.6,0.2-9-0.7-12.9-3.2c-4.2-2.7-6.9-6.6-7.9-11.5c-1.4-6.3-1.7-12.7-2-19.2
			c-0.1-3.1-0.2-6.2-0.2-9.3c0-0.6,0-1.2-0.9-0.7c-4.7,2.7-9.8,2.7-15,1.8c-3.2-0.6-6.4-1-9.4-2.2C66.1,139.7,64.4,138.9,63.3,137.1
			z M97.5,133.8c0,0.7,0,1,0,1.3c0,6.6,0,13.2,0.4,19.7c0.3,5.2,0.8,10.3,2.7,15.2c2,5,5.6,8,10.6,9.6c4.8,1.5,9.6,0.5,14.3-0.9
			c7.9-2.3,12.9-7.4,14.6-15.6c0.7-3.4,1.2-6.9,1.7-10.3c0.9-6.4,1.6-12.9,2.4-19.3c0.1-1.2,0.6-1.7,1.8-1.5c5,0.9,9.9,0.4,14.8-0.7
			c5.9-1.3,10.9-4,14.9-8.5c1.3-1.4,1.9-3.1,1-4.9s-2.6-2.2-4.5-2c-1.6,0.2-3.2,0.5-4.9,0.7c-4,0.6-8.1,1.2-12.2,0.2
			c-2.2-0.6-2.2-0.6-1-2.6C163.3,100,170,84.6,174,68.1c1.9-7.8,3.2-15.7,1.9-23.7c-0.5-3.1-1.2-6.1-3.3-8.6
			c-8.6-10.2-19.9-14.6-32.9-15.3c-7.7-0.4-15.3,0.6-22.7,2.8c-0.7,0.2-1.4,0.2-2.1,0.1c-2.1-0.3-4.1-0.7-6.2-0.9
			c-8.6-0.7-16.9-0.4-24.3,4.8c-0.6,0.4-1.2,0.3-1.8,0.1c-3.1-1.1-6.3-2-9.5-2.8c-9.1-2.1-18.3-3-27.6-1
			c-9.9,2.2-16.7,7.8-19.9,17.6c-2.4,7.5-2.9,15.1-2.3,22.9c0.4,5.2,1.6,10.3,2.7,15.4c3.3,14.8,7.2,29.4,14,43.1
			c2.1,4.3,4.7,8.4,8.4,11.5c4.2,3.5,8.9,3.6,13.3,0.4c1.4-1,2.5-2.3,3.6-3.6c3.8-4.5,7.7-8.9,11.7-13.2c0.3-0.4,0.6-1,1.3-0.6
			c2.6,1.4,5.5,2.1,8.7,2.3c-2,2.6-3.7,5.1-6.9,5.9c-1.5,0.3-2.9,0.7-4.4,1.1c-2.1,0.6-4.3,0.9-6.1,2.3c-2.1,1.6-2.4,4-0.8,6
			c0.9,1.1,1.9,1.9,3.2,2.4c5.7,2.4,11.6,2.8,17.5,1.1C92.3,137.5,94.9,135.9,97.5,133.8z"/>
		<path class="st0" d="M70.8,64.8c0.3-4.4,1-8.4,2.1-12.4c1.7-5.9,4.1-11.5,8.2-16.1c6.2-7,14.2-9.6,23.3-9.3
			c16.7,0.6,29.1,8.5,38.3,22.1c2.2,3.3,4.1,6.8,5.4,10.8c-2.7-0.2-5.3-0.3-7.9,0c-5,0.7-9.1,2.6-11.1,7.6c-1.2,2.9-1.1,5.9-0.6,9
			c0.9,5.6,3,10.9,5.5,15.9c2.6,5.2,5.4,10.4,8.1,15.5c1.2,2.3,2.9,4.3,4.4,6.4c0.3,0.4,1,0.9-0.1,1.3c-4.4,1.5-6,4.9-6.2,9.1
			c-0.4,7.4-1.4,14.8-2.3,22.2c-0.6,4.9-1.3,9.9-2.2,14.8c-1.3,6.4-5,10.6-11.3,12.4c-3,0.8-6,1.6-9.1,1.4c-3.6-0.2-6.3-1.8-8.5-4.7
			c-2.8-3.8-3.4-8.1-3.8-12.6c-0.9-11-0.7-21.9-0.6-32.9c0-4.4-2.6-8.2-6.6-9.6c-0.9-0.3-1.8-0.5-2.6-0.4c-1.1,0.2-1.1-0.2-0.8-1.1
			c0.9-2.7,1.6-5.4,2.9-7.9c5.7-11,5.9-22.5,3.4-34.3c-0.1-0.5-0.2-1-0.3-1.5c-1.8-8-7.8-11.6-16.6-10C78,61.6,74.5,62.9,70.8,64.8z
			"/>
		<path class="st0" d="M27.7,58.4c0-5.7,0.7-11.3,2.9-16.5c3.5-8.3,10.1-12.6,18.7-14c8.4-1.4,16.7,0,24.9,2c1.4,0.3,2.7,0.8,4,1.1
			c0.7,0.2,1,0.4,0.3,1.1C70.1,41.2,67.2,52.4,66,64.4c-0.5,5.2,0.1,10.4,0.1,15.5c0,4-0.3,8.1-0.7,12.1c-1,8.2,1.4,15.4,7.3,21.2
			c0.5,0.5,0.9,0.8,0.2,1.5c-4.4,4.6-8.4,9.6-12.7,14.3c-3.6,3.9-6.7,3.9-10.4,0c-2.4-2.6-4.2-5.5-5.8-8.7c-5.6-11.2-9-23.2-12-35.3
			c-1.7-7.1-3.2-14.2-4.1-21.4C27.7,61.8,27.8,60.1,27.7,58.4z"/>
		<path class="st0" d="M124,26.4c3.7-0.8,7.3-1.2,10.9-1.2c9.4-0.1,18.2,1.7,26.1,7.1c3.2,2.2,6,4.8,8.3,7.9c1.7,2.2,2,5,2.1,7.7
			c0.4,7.4-1,14.5-2.9,21.6c-3.8,14.3-9.7,27.8-17.4,40.4c-0.3,0.5-0.5,1.6-1.3,1.2c-0.9-0.5,0-1.2,0.3-1.8
			c2.6-5.1,3.3-10.5,2.9-16.1c-0.4-5.1-1.5-10.2-1-15.3c0.3-3.3,0.8-6.6,1.2-9.9c0.5-4.1,0.1-8.1-1.6-12
			c-5.7-12.7-14.3-22.7-27-28.9C124.5,26.9,124.4,26.7,124,26.4z"/>
		<path class="st0" d="M95.5,87.5c0.1,4.2-1.1,9.5-3.4,14.6c-1.7,3.7-3.1,7.4-4.3,11.3c-0.3,1-0.7,1.2-1.7,1.1
			c-7.1-0.9-11.8-4.9-14.6-11.3c-1.9-4.2-1.7-8.5-1.1-12.9c0.7-5.5,0.8-11,0.3-16.6c-0.2-2.4,0.5-3.7,2.6-4.8
			c3.7-1.8,7.5-3.3,11.6-3.5c5.2-0.3,7.8,1.8,8.9,6.8C94.7,76.8,95.4,81.4,95.5,87.5z M86.3,67.9c-0.8,0-1.7,0-2.5,0.4
			c-0.9,0.4-1.3,1.1-0.9,2.1c0.7,1.7,1.9,2.8,3.7,3.1c1.8,0.3,3.2-0.3,4.3-1.7c0.8-1,0.6-1.9-0.4-2.6C89.3,68.2,87.8,68,86.3,67.9z"
			/>
		<path class="st0" d="M146.4,106.1c-0.7-1.3-1.2-2.4-1.8-3.4c-3.4-6.4-7.1-12.7-9.6-19.6c-1.1-3.1-2.1-6.3-2.2-9.6
			c-0.2-5.1,2-7.7,6.9-8.7c2.7-0.5,5.4-0.3,8-0.1c0.9,0.1,0.9,0.6,0.8,1.2c-0.3,2.2-0.5,4.5-0.9,6.7c-1,5.8-0.6,11.6,0.2,17.4
			c0.6,5,0.9,9.9-1,14.7C146.8,105.1,146.7,105.4,146.4,106.1z M141.6,66.8c-1.7,0-3,0.2-4.2,0.9c-1.2,0.7-1.3,1.5-0.4,2.5
			c1.5,1.6,3.7,1.8,5.5,0.5c0.9-0.7,2-1.5,1.6-2.8C143.8,66.6,142.4,66.9,141.6,66.8z"/>
		<path class="st0" d="M73,132.2c1.8-0.8,3.5-1.2,5.3-1.5c4.7-0.8,8.6-2.9,11.4-7c0.7-1,1.6-1.9,2.5-2.8c0.7-0.7,1.5-0.8,2.5-0.4
			c2.8,1.1,3.8,4.7,1.9,7c-4.4,5.7-10.4,7.4-17.3,6.6C77.1,133.8,75,133.4,73,132.2z"/>
		<path class="st0" d="M170.8,120.9c-2.2,2-4.3,3.4-6.7,4.3c-5.4,2.1-11,2.8-16.7,2.1c-2.7-0.3-2.8-0.6-2.4-3.2
			c0.4-2.7,1.5-3.8,4.2-4.3c0.5-0.1,0.9-0.1,1.3,0.2c3.8,2.4,8,2.4,12.3,2.1C165.3,121.9,167.9,121.4,170.8,120.9z"/>
	</g>
</g>
</svg>
