<?xml version="1.0" encoding="utf-8"?>
<!-- Generator: Adobe Illustrator 21.0.0, SVG Export Plug-In . SVG Version: 6.00 Build 0)  -->
<svg version="1.1" id="Layer_1" xmlns="http://www.w3.org/2000/svg" xmlns:xlink="http://www.w3.org/1999/xlink" x="0px" y="0px"
	 viewBox="0 0 200 200" style="enable-background:new 0 0 200 200;" xml:space="preserve">
<style type="text/css">
	.st0{fill:#D67C3F;}
	.st1{fill:#FFFFFF;}
</style>
<g id="_x36_P4lgo_1_">
	<g>
		<path class="st0" d="M143,86.4c0-1.9,1.3-3.6,3.3-4.2c4.2-1.4,8.4-2.7,12.6-3.9c1.1-0.3,1.5-0.9,1.7-2c0.6-3.5,1.3-7,2-10.5
			c0.2-0.8,0.5-1.6,0.9-2.4c2.1-3.6,5.5-3.8,7.9-0.4c1.9,2.7,3.6,5.5,5.3,8.3c0.8,1.3,1.6,1.5,3,1.1c4-1.1,8-2,12-3
			c1.4-0.3,2.7-0.5,4,0.2c1.5,0.7,2.1,2.1,1.4,3.7c-0.5,1.4-1.6,2.5-2.5,3.6c-2.7,3-5.4,6-8.1,9c-0.6,0.7-0.5,1.3-0.1,2
			c1.7,3.1,3.4,6.2,5.2,9.3c1,1.7,1.4,3.5,0.2,5.2c-1.3,1.9-3.2,2.6-5.5,2c-3.2-0.9-6.3-1.8-9.5-2.7c-0.8-0.2-1.2-0.7-1.3-1.6
			c-0.2-1.3-0.3-2.7-0.7-3.9c-0.5-1.6,0.3-1.5,1.3-1.2c2.1,0.6,4.2,1.2,6.3,1.7c0.4,0.1,0.9,0.4,1.2,0s-0.1-0.8-0.3-1.1
			c-1.3-2.5-2.7-5-4.1-7.4c-0.6-1.1-0.8-1.9,0.2-2.9c2.1-2.2,4.1-4.6,6.1-6.9c0.4-0.4,1.3-0.9,0.8-1.5c-0.4-0.6-1.2,0-1.8,0.1
			c-2.8,0.7-5.7,1.4-8.5,2.2c-1.4,0.4-2.3,0-3-1.2c-1.4-2.3-2.8-4.6-4.3-6.9c-0.2-0.4-0.4-0.9-0.9-0.8s-0.5,0.6-0.5,1
			c-0.6,3-1.2,5.9-1.6,8.9c-0.2,1.4-0.9,2.1-2.3,2.4c-3.2,0.9-6.4,1.9-9.6,2.9c-0.3,0.1-0.7,0.1-0.8,0.4c-0.1,0.5,0.4,0.5,0.7,0.6
			c2.4,0.9,4.7,1.8,7.1,2.8c0.3,0.1,0.8,0.1,0.9,0.5c0.1,0.6-0.4,0.7-0.8,0.9c-1,0.6-2.1,1.1-2.9,1.8c-2.2,1.9-4.3,1.9-6.7,0.5
			c-1.7-1-3.6-1.5-5.4-2.4C144.4,89.9,143,88.5,143,86.4z"/>
		<path class="st0" d="M2.6,109.5c0-5.5,0-11,0-16.6c0-1.2,0.3-1.6,1.5-1.5c3.9,0.1,7.9-0.2,11.8,0.2c5.6,0.5,9.8,4.2,9.9,10.5
			c0,2.2-0.1,4.3-1,6.4c-2,4.4-5.8,6-10.2,6.4c-1,0.1-2,0.1-3,0.1c-1.1-0.1-1.5,0.4-1.5,1.5c0,3.2,0,6.4,0,9.6c0,1.5-0.4,2-2,1.8
			c-1.3-0.2-2.5-0.1-3.8,0s-1.8-0.4-1.7-1.7C2.7,120.6,2.6,115,2.6,109.5L2.6,109.5z M10,103.2c0,1.4,0,2.9,0,4.3c0,0.6,0.2,1,0.9,1
			c1.2,0,2.4,0.1,3.6-0.2c2.9-0.8,4.3-2.8,4.1-5.9c-0.2-2.9-1.8-4.3-4.9-4.5c-0.7,0-1.5,0-2.2,0c-1.2-0.1-1.5,0.4-1.4,1.5
			C10,100.6,10,101.9,10,103.2z"/>
		<path class="st1" d="M105.5,111.5c-0.1,7.5-6.1,14.2-13,15.6c-3.4,0.7-6.7,0.3-9.7-1.3c-1.3-0.7-1.4-0.1-1.6,0.9
			c-0.3,2.4-0.7,4.7-1,7.1c-0.1,0.8-0.4,1.1-1.2,1.1c-1.3-0.1-2.5-0.1-3.8,0c-1,0-1.2-0.4-1-1.2c0.8-5.4,1.6-10.8,2.3-16.2
			c0.4-3,0.7-6,2.2-8.7c4.1-7.2,13.3-10.5,20.4-7C103.4,103.7,105.3,107.4,105.5,111.5z M99.2,112.7c0-2.9-1.6-5.3-4.4-6.2
			c-4.6-1.6-10,1.3-11.4,6.2c-1,3.3,0.6,6.8,3.6,8.1C92.4,123.1,99.2,118.7,99.2,112.7z"/>
		<path class="st0" d="M39.9,118.5c1.2-4,2.3-7.6,3.4-11.3c0.6-2,1.2-3.9,1.8-5.9c0.3-1,0.8-1.4,1.8-1.4c1.6,0.1,3.2,0.1,4.8,0
			c1.1,0,1.4,0.3,1,1.4c-1.5,4.2-3,8.5-4.4,12.8c-1.9,5.6-3.9,11.2-5.8,16.8c-1.1,3.1-2.6,5.7-5.5,7.6c-1.8,1.1-3.7,0.7-5.6,0.8
			c-0.6,0-1.2-0.1-1.7,0c-1.3,0.2-1.8-0.4-1.6-1.6c0-0.4,0-0.7,0-1.1c0-1-0.2-2.1,0.2-2.8c0.6-1,1.7-0.1,2.6-0.1
			c3.5-0.2,6.3-4.2,5.1-7.6c-2.9-8-5.9-16-8.8-24c-0.8-2.1-0.8-2.1,1.4-2.1c1.3,0,2.7,0.1,4,0c1.4-0.1,1.8,0.5,2.2,1.7
			C36.4,107.2,38.1,112.7,39.9,118.5z"/>
		<path class="st1" d="M63.5,127.5c-7.5,0-10.6-2.1-12.3-6.4c-0.3-0.8-0.3-1.2,0.5-1.6c1.4-0.6,2.7-1.2,4-2c1.2-0.7,1.7-0.5,2.3,0.7
			c1.3,2.7,2.9,3.4,5.6,2.9c1.8-0.4,3.1-1.3,3.7-3c0.6-1.8-0.5-2.9-1.5-4c-2.1-2.4-4.6-4.4-6.6-7c-4.3-5.4-1.8-13.2,4.8-15.2
			c1.2-0.4,2.4-0.8,3.6-1c3.7-0.6,7.9,1.7,10.1,4.9c0.4,0.6,0,1-0.4,1.3c-1.5,1.1-3,2.2-4.5,3.3c-0.7,0.5-0.9,0.1-1.2-0.4
			c-0.7-1.2-1.6-2.1-3-2.5C67.3,97,66.1,97.3,65,98c-1.5,1-1.7,2.4-0.5,3.8c1.7,1.9,3.5,3.7,5.3,5.5c1.3,1.3,2.4,2.6,3.4,4.1
			c2.1,3.4,1.5,6.7-0.6,9.9C70,125.4,66.1,127.4,63.5,127.5z"/>
		<path class="st1" d="M127.6,118.7c-0.3,2.1-0.5,4-0.7,6c-0.1,0.8-0.3,1.3-1,1.6c-4.7,1.7-9.3,1.6-13.5-1.4
			c-5.2-3.8-6.2-10.9-2.5-16.7c3.4-5.3,8.2-8.2,14.5-7.9c7.1,0.2,12.9,5.7,11.8,14c-0.5,3.6-1,7.2-1.5,10.9
			c-0.1,1.2-0.5,1.9-1.9,1.7c-1.4-0.2-3.5,0.7-4.2-0.4c-0.6-0.9,0.1-2.8,0.3-4.3c0.3-2.4,0.7-4.8,0.9-7.3c0.2-1.3,0.1-2.7-0.3-3.9
			c-1.2-4.1-5.1-5.8-9.6-4.2c-4.3,1.5-7,6.3-5.7,10.2c1.1,3.2,4.4,5,7.8,4.6C124.3,121.1,125.8,119.8,127.6,118.7z"/>
		<path class="st1" d="M164,91.7c-0.5,4-1,7.6-1.5,11.1c-0.1,0.8-0.2,1.7-0.3,2.5c0,0.3-0.3,0.8,0.2,1c0.4,0.2,0.6-0.3,0.9-0.5
			c2.8-2.9,5.6-5.9,8.3-8.9c0.4-0.4,0.7-0.7,1.2-0.9c0.3,1,0.5,2,0.9,2.9c0.9,2.2-0.1,3.7-1.6,5.1s-2.9,3.1-4.5,4.4
			c-1.1,0.9-0.9,1.6-0.1,2.6c3.8,4.9,7.5,9.9,11.2,14.9c0.1,0.2,0.2,0.4,0.3,0.7c-2.5,0-5,0-7.4,0c-0.6,0-0.9-0.4-1.2-0.8
			c-2.7-4-5.5-7.9-8.2-11.9c-0.2-0.3-0.1-0.9-0.8-0.8c-0.4,0.1-0.4,0.6-0.4,1c-0.6,3.8-1.1,7.5-1.6,11.3c-0.1,1.1-0.5,1.3-1.5,1.2
			c-1.4-0.1-2.9,0-4.3,0c-0.8,0-1.1-0.1-1-1.1c0.8-5.7,1.6-11.4,2.4-17.2c0.5-3.5,1-6.9,1.4-10.4c0.1-1.2,0.6-2,1.7-2.6
			C159.9,94.3,161.7,93.1,164,91.7z"/>
		<path class="st1" d="M150,100.7c3.1,0,3.1,0,2.6,3c-0.5,3.1-0.5,3.1-3.6,3.1c-2.1,0-2.8,0.5-3.1,2.6c-0.8,5.2-1.5,10.5-2.1,15.7
			c-0.1,1.1-0.4,1.6-1.6,1.5c-1.3-0.1-2.5-0.1-3.8,0c-0.8,0-1.1-0.2-1-1.1c0.9-5.9,1.6-11.9,2.5-17.8c0.6-4,4.1-6.9,8.4-7.1
			C148.9,100.7,149.5,100.7,150,100.7z"/>
	</g>
</g>
</svg>
