<?xml version="1.0" encoding="utf-8"?>
<!-- Generator: Adobe Illustrator 23.1.0, SVG Export Plug-In . SVG Version: 6.00 Build 0)  -->
<svg version="1.1" id="Layer_1" xmlns="http://www.w3.org/2000/svg" xmlns:xlink="http://www.w3.org/1999/xlink" x="0px" y="0px"
	 viewBox="0 0 255.7 200" style="enable-background:new 0 0 255.7 200;" xml:space="preserve">
<style type="text/css">
	.st0{fill:#D67C3F;}
</style>
<g id="_x36_P4lgo_1_">
	<g>
		<path class="st0" d="M184.1,82.4c0-2.5,1.7-4.7,4.3-5.5c5.5-1.8,10.9-3.6,16.4-5.1c1.4-0.4,1.9-1.1,2.2-2.7
			c0.8-4.6,1.7-9.2,2.7-13.7c0.3-1,0.6-2,1.1-3.2c2.8-4.7,7.1-5,10.3-0.5c2.5,3.6,4.7,7.1,6.9,10.8c1,1.7,2,1.9,3.9,1.4
			c5.2-1.4,10.4-2.7,15.6-3.9c1.8-0.4,3.6-0.6,5.2,0.3c1.9,0.9,2.8,2.8,1.8,4.8c-0.6,1.8-2,3.3-3.3,4.7c-3.6,3.9-7,7.9-10.6,11.7
			c-0.8,0.9-0.6,1.7-0.1,2.7c2.2,4.1,4.5,8.1,6.7,12.1c1.3,2.2,1.8,4.6,0.3,6.7c-1.7,2.5-4.2,3.4-7.1,2.7c-4.2-1.1-8.3-2.3-12.5-3.6
			c-1-0.3-1.5-0.9-1.7-2c-0.3-1.7-0.4-3.6-0.9-5.1c-0.6-2,0.4-1.9,1.7-1.5c2.8,0.8,5.5,1.5,8.3,2.2c0.5,0.1,1.1,0.5,1.5,0
			s-0.1-1-0.4-1.4c-1.7-3.3-3.6-6.5-5.3-9.7c-0.8-1.4-1-2.5,0.3-3.8c2.8-2.9,5.3-6,8-9c0.5-0.5,1.7-1.1,1-1.9
			c-0.5-0.8-1.5,0-2.3,0.1c-3.7,0.9-7.5,1.8-11.1,2.9c-1.8,0.5-3.1,0-3.9-1.5c-1.8-3.1-3.7-6-5.6-9c-0.3-0.5-0.5-1.1-1.1-1
			s-0.6,0.8-0.6,1.3c-0.8,3.9-1.5,7.8-2,11.6c-0.3,1.8-1.1,2.8-3.1,3.2c-4.2,1.1-8.4,2.5-12.6,3.8c-0.4,0.1-0.9,0.1-1,0.5
			c-0.1,0.6,0.5,0.6,0.9,0.8c3.2,1.1,6.1,2.3,9.3,3.7c0.4,0.1,1,0.1,1.1,0.6c0.1,0.8-0.5,0.9-1,1.1c-1.3,0.8-2.8,1.4-3.8,2.3
			c-2.9,2.5-5.6,2.5-8.8,0.6c-2.2-1.3-4.7-1.9-7-3.2C185.9,87,184.1,85.2,184.1,82.4z"/>
		<path class="st0" d="M0.7,112.7c0-7.1,0-14.4,0-21.6c0-1.5,0.4-2,1.9-1.9c5.1,0.1,10.3-0.3,15.4,0.3c7.3,0.6,12.8,5.5,13,13.7
			c0,2.9-0.1,5.6-1.3,8.4c-2.7,5.7-7.6,7.9-13.4,8.4c-1.3,0.1-2.7,0.1-3.9,0.1c-1.4-0.1-1.9,0.5-1.9,1.9c0,4.2,0,8.4,0,12.6
			c0,1.9-0.5,2.7-2.7,2.3c-1.7-0.3-3.3-0.1-5,0s-2.3-0.5-2.2-2.2C0.8,127.1,0.7,119.8,0.7,112.7L0.7,112.7z M10.3,104.4
			c0,1.8,0,3.8,0,5.6c0,0.8,0.3,1.3,1.1,1.3c1.5,0,3.2,0.1,4.7-0.3c3.8-1,5.6-3.7,5.3-7.8c-0.3-3.8-2.3-5.6-6.4-5.9
			c-0.9,0-1.9,0-2.9,0c-1.5-0.1-1.9,0.5-1.8,1.9C10.3,101,10.3,102.7,10.3,104.4z"/>
		<path class="st0" d="M135.1,115.2c-0.1,9.8-8,18.6-16.9,20.4c-4.5,0.9-8.8,0.4-12.7-1.7c-1.7-0.9-1.8-0.1-2,1.1
			c-0.4,3.2-0.9,6.1-1.3,9.3c-0.1,1-0.5,1.4-1.5,1.4c-1.7-0.1-3.3-0.1-5,0c-1.3,0-1.5-0.5-1.3-1.5c1-7,2-14.1,3.1-21.1
			c0.5-3.9,0.9-7.9,2.9-11.3c5.3-9.4,17.4-13.7,26.6-9.2C132.3,105.1,134.9,109.9,135.1,115.2z M126.9,116.8c0-3.8-2-6.9-5.7-8.1
			c-6.1-2-13.1,1.8-14.9,8.1c-1.3,4.3,0.8,8.9,4.7,10.6C118,130.4,126.9,124.7,126.9,116.8z"/>
		<path class="st0" d="M49.4,124.4c1.5-5.2,3.1-9.9,4.5-14.8c0.8-2.7,1.5-5.1,2.3-7.8c0.4-1.3,1-1.8,2.3-1.8c2,0.1,4.2,0.1,6.2,0
			c1.4,0,1.8,0.4,1.3,1.8c-1.9,5.5-3.9,11.1-5.7,16.7c-2.5,7.3-5.1,14.6-7.6,21.9c-1.4,4.1-3.4,7.5-7.1,9.9c-2.3,1.4-4.8,0.9-7.3,1
			c-0.8,0-1.5-0.1-2.2,0c-1.7,0.3-2.3-0.5-2-2c0-0.5,0-0.9,0-1.4c0-1.3-0.3-2.8,0.3-3.7c0.8-1.3,2.2-0.1,3.4-0.1
			c4.6-0.3,8.3-5.5,6.6-9.9c-3.8-10.4-7.8-20.9-11.4-31.3c-1.1-2.7-1.1-2.7,1.8-2.7c1.7,0,3.6,0.1,5.2,0c1.8-0.1,2.3,0.6,2.9,2.2
			C44.8,109.6,47.1,116.8,49.4,124.4z"/>
		<path class="st0" d="M80.2,136.1c-9.8,0-13.9-2.8-16-8.4c-0.4-1-0.4-1.5,0.6-2c1.8-0.8,3.6-1.5,5.2-2.7c1.5-0.9,2.2-0.6,3.1,0.9
			c1.7,3.6,3.8,4.5,7.3,3.8c2.3-0.5,4.1-1.7,4.8-3.9c0.8-2.3-0.6-3.8-1.9-5.2c-2.8-3.2-6-5.7-8.7-9.2c-5.6-7-2.3-17.3,6.2-19.8
			c1.5-0.5,3.2-1,4.7-1.3c4.8-0.8,10.3,2.2,13.2,6.4c0.5,0.8,0,1.3-0.5,1.7c-1.9,1.4-3.9,2.9-5.9,4.3c-0.9,0.6-1.1,0.1-1.5-0.5
			c-0.9-1.5-2-2.8-3.9-3.3c-1.7-0.6-3.3-0.3-4.7,0.6c-1.9,1.3-2.2,3.2-0.6,5c2.2,2.5,4.6,4.8,6.9,7.1c1.7,1.7,3.2,3.4,4.5,5.3
			c2.8,4.5,1.9,8.8-0.8,13C88.7,133.4,83.6,136,80.2,136.1z"/>
		<path class="st0" d="M163.9,124.7c-0.4,2.8-0.6,5.2-0.9,7.9c-0.1,1-0.4,1.7-1.3,2c-6.1,2.2-12.1,2-17.7-1.8
			c-6.7-5-8.1-14.2-3.3-21.8c4.5-6.9,10.7-10.7,19-10.3c9.3,0.3,16.8,7.5,15.4,18.3c-0.6,4.7-1.3,9.4-1.9,14.2
			c-0.1,1.5-0.6,2.5-2.5,2.2c-1.8-0.3-4.6,0.9-5.5-0.5c-0.8-1.1,0.1-3.7,0.4-5.6c0.4-3.2,0.9-6.2,1.1-9.5c0.3-1.7,0.1-3.6-0.4-5.1
			c-1.5-5.3-6.6-7.6-12.6-5.5c-5.6,1.9-9.2,8.3-7.5,13.4c1.4,4.2,5.7,6.5,10.2,6C159.7,127.8,161.6,126.1,163.9,124.7z"/>
		<path class="st0" d="M211.5,89.4c-0.6,5.2-1.3,9.9-1.9,14.5c-0.1,1-0.3,2.2-0.4,3.3c0,0.4-0.4,1,0.3,1.3c0.5,0.3,0.8-0.4,1.1-0.6
			c3.7-3.8,7.3-7.8,10.8-11.6c0.5-0.5,0.9-0.9,1.5-1.1c0.4,1.3,0.6,2.7,1.1,3.8c1.1,2.9-0.1,4.8-2,6.6c-1.9,1.8-3.8,4.1-5.9,5.7
			c-1.4,1.1-1.1,2-0.1,3.4c5,6.4,9.8,13,14.6,19.5c0.1,0.3,0.3,0.5,0.4,0.9c-3.3,0-6.5,0-9.7,0c-0.8,0-1.1-0.5-1.5-1
			c-3.6-5.2-7.1-10.3-10.7-15.5c-0.3-0.4-0.1-1.1-1-1c-0.5,0.1-0.5,0.8-0.5,1.3c-0.8,5-1.4,9.8-2,14.8c-0.1,1.4-0.6,1.7-1.9,1.5
			c-1.8-0.1-3.8,0-5.6,0c-1,0-1.4-0.1-1.3-1.4c1-7.5,2-14.9,3.2-22.5c0.6-4.6,1.3-9,1.8-13.6c0.1-1.5,0.8-2.7,2.2-3.4
			C206.1,92.7,208.5,91.2,211.5,89.4z"/>
		<path class="st0" d="M193.1,101.1c4.1,0,4.1,0,3.4,3.9c-0.6,4.1-0.6,4.1-4.7,4.1c-2.8,0-3.7,0.6-4.1,3.4c-1,6.7-1.9,13.7-2.8,20.5
			c-0.1,1.4-0.5,2-2,1.9c-1.7-0.1-3.3-0.1-5,0c-1,0-1.4-0.3-1.3-1.4c1.1-7.8,2-15.5,3.3-23.3c0.8-5.2,5.3-9,10.9-9.3
			C191.7,101.1,192.5,101.1,193.1,101.1z"/>
	</g>
</g>
</svg>
