<?xml version="1.0" encoding="utf-8"?>
<!-- Generator: Adobe Illustrator 21.0.0, SVG Export Plug-In . SVG Version: 6.00 Build 0)  -->
<svg version="1.1" id="Layer_1" xmlns="http://www.w3.org/2000/svg" xmlns:xlink="http://www.w3.org/1999/xlink" x="0px" y="0px"
	 viewBox="0 0 200 44.3" style="enable-background:new 0 0 200 44.3;" xml:space="preserve">
<style type="text/css">
	.st0{fill:#D3734F;}
	.st1{fill:#343434;}
	.st2{fill:#373737;}
	.st3{fill:#8E6D9F;}
</style>
<g id="lNCXHF.tif">
	<g>
		<path class="st0" d="M94.8,39.5c-0.6-0.4-1.3-0.4-1.9-0.6c-5.6-2-8.3-7.4-6.5-13c1.8-5.4,3.5-10.9,5.5-16.3c0.2-0.5,0.4-1,0.7-1.5
			c0.4-0.7,0.8-0.7,1.3-0.1c0.3,0.4,0.5,0.9,0.7,1.4c0.6,2.1,1.2,4.1,1.9,6.2c0.2,0.8,0.6,1.5,1,2.2c0.7,1.1,1.6,1.2,2.6,0.2
			c0.5-0.6,0.8-1.3,1.2-1.9c0.6-1.1,1-1.2,1.8-0.2c2,2.5,3.1,5.5,3.7,8.6c0.5,2.6,0.7,5.1-0.1,7.7c-1.2,4-4.1,6.2-8.1,7.1
			c-0.2,0-0.3,0-0.4,0.2C97,39.5,95.9,39.5,94.8,39.5z M102.2,29.3c0-3.3-2.5-6-5.7-6c-3.2,0-5.8,2.6-5.8,5.9c0,3.3,2.5,6,5.7,6.1
			C99.5,35.3,102.2,32.6,102.2,29.3z"/>
		<path class="st1" d="M14,17.7c3.5,0,7,0,10.5,0c2.9,0,5.3,1.8,6.2,4.4c1,2.8,0.2,6-2,7.7c-1.5,1.2-3.2,1.5-5.1,1.6
			c-1.4,0-2.8,0-4.1,0c-0.7,0-1,0.1-1,0.9c0.1,1.9,0,3.9,0,5.8c0,0.7-0.2,0.8-0.9,0.8c-1.2,0-2.5-0.1-3.7,0.1
			C14,31.9,14,24.8,14,17.7z M18.5,24.5c0,0.8,0,1.6,0,2.4c0,0.3,0,0.5,0.4,0.5c1.6,0,3.2,0.1,4.8-0.1c1.7-0.1,2.7-1.3,2.7-2.8
			c0-1.6-1-2.6-2.7-2.7c-1.5-0.1-3.1,0-4.6-0.1c-0.4,0-0.5,0.2-0.5,0.6C18.5,23,18.5,23.7,18.5,24.5z"/>
		<path class="st1" d="M132.4,38.9c-1.8,0-3.3,0-4.9,0c-0.4,0-0.5-0.3-0.6-0.6c-1.2-2.1-2.3-4.2-3.5-6.3c-0.2-0.4-0.5-0.6-1-0.6
			c-0.6,0-1.3,0-1.9,0c-0.5,0-0.7,0.1-0.7,0.7c0,2,0,4,0,6c0,0.7-0.2,0.9-0.9,0.9c-1-0.1-1.9-0.1-2.9,0c-0.6,0-0.8-0.1-0.8-0.8
			c0-4.6,0-9.3,0-13.9c0-2,0-3.9,0-5.9c0-0.5,0.1-0.6,0.6-0.6c3.3,0,6.6,0,9.9,0c2.9,0,5.4,1.9,6.2,4.5c0.9,2.8,0.1,5.9-2.1,7.6
			c-0.5,0.4-1,0.7-1.5,0.8c-0.7,0.2-0.5,0.4-0.3,0.9c1.4,2.3,2.7,4.5,4.1,6.8C132.1,38.4,132.2,38.6,132.4,38.9z M119.6,24.5
			c0,0.8,0,1.6,0,2.4c0,0.3,0,0.5,0.4,0.5c1.6,0,3.3,0.1,4.9-0.1c1.6-0.1,2.6-1.3,2.6-2.8c0-1.5-1.1-2.7-2.7-2.8
			c-1.6-0.1-3.1,0-4.7-0.1c-0.4,0-0.5,0.2-0.5,0.6C119.6,23,119.6,23.7,119.6,24.5z"/>
		<path class="st1" d="M166.9,28.3c0-3.3,0-6.6,0-9.9c0-0.6,0.2-0.8,0.8-0.8c1,0.1,2.1,0,3.1,0c0.5,0,0.7,0.1,0.6,0.7
			c0,2.3,0,4.7,0,7c0,0.5,0.1,0.7,0.6,0.7c2.9,0,5.7,0,8.6,0c0.5,0,0.7-0.1,0.7-0.7c0-2.3,0-4.6,0-6.9c0-0.5,0.1-0.7,0.7-0.7
			c1.1,0,2.2,0,3.3,0c0.5,0,0.6,0.2,0.6,0.7c0,6.6,0,13.2,0,19.8c0,0.5-0.1,0.8-0.7,0.7c-1.1-0.1-2.2,0-3.3,0
			c-0.5,0-0.7-0.2-0.6-0.7c0-2.5,0-5,0-7.4c0-0.7-0.2-0.9-0.9-0.9c-2.8,0-5.5,0-8.3,0c-0.6,0-0.8,0.1-0.8,0.8c0,2.5,0,5,0,7.5
			c0,0.6-0.2,0.7-0.7,0.7c-1,0-2-0.1-3,0c-0.7,0-0.8-0.2-0.8-0.9C167,34.8,166.9,31.6,166.9,28.3z"/>
		<path class="st1" d="M139.3,28.4c0-6.6,4.9-11.2,11.5-11c3.5,0.1,6.2,1.6,8.2,4.5c0.4,0.6,0.3,0.9-0.3,1.1
			c-0.9,0.4-1.8,0.9-2.7,1.3c-0.3,0.1-0.5,0.2-0.7-0.2c-1.4-2.3-3.9-3.2-6.4-2.5c-2.6,0.7-4.5,2.8-4.8,5.5c-0.5,3.4,1,6.4,3.8,7.7
			c2.7,1.2,5.6,0.5,7.3-1.9c0.3-0.5,0.6-0.6,1.1-0.3c0.9,0.5,1.7,0.9,2.6,1.3c0.6,0.3,0.5,0.5,0.2,1c-2.1,3.2-5.2,4.7-9,4.5
			c-4.8-0.2-8.6-2.8-10.2-7C139.5,31,139.3,29.6,139.3,28.4z"/>
		<path class="st1" d="M46.7,26c1.6-2.5,3.2-5.1,4.7-7.6c0.3-0.5,0.6-0.7,1.1-0.6c1.4,0,2.9,0,4.4,0c-0.9,1.5-1.8,2.8-2.7,4.2
			c-1.7,2.6-3.4,5.2-5.1,7.8c-0.3,0.4-0.4,0.8-0.4,1.3c0,2.4,0,4.8,0,7.2c0,0.6-0.1,0.9-0.8,0.8c-1.1-0.1-2.1,0-3.2,0
			c-0.5,0-0.7-0.2-0.7-0.7c0-2.4,0-4.9,0-7.3c0-0.5-0.1-0.9-0.4-1.3c-2.5-3.8-5-7.6-7.4-11.5c-0.1-0.1-0.1-0.2-0.2-0.4
			c1.7,0,3.3,0,4.9,0c0.4,0,0.5,0.4,0.6,0.6c1.5,2.3,2.9,4.7,4.4,7C46.3,25.5,46.4,25.8,46.7,26z"/>
		<path class="st2" d="M73,30.3c0,2.6,0,5.2,0,7.9c0,0.7-0.2,0.8-0.8,0.8c-1-0.1-2-0.1-3,0c-0.7,0-0.8-0.2-0.8-0.8
			c0-5.2,0-10.3,0-15.5c0-0.8-0.2-1-1-1c-1.5,0.1-3,0-4.6,0c-0.5,0-0.7-0.1-0.6-0.6c0-1,0-1.9,0-2.9c0-0.4,0.1-0.5,0.5-0.5
			c5.3,0,10.6,0,15.9,0c0.5,0,0.5,0.2,0.5,0.6c0,0.9,0,1.8,0,2.7c0,0.6-0.1,0.7-0.7,0.7c-1.6,0-3.2,0-4.7,0c-0.7,0-0.8,0.2-0.8,0.9
			C73,25.1,73,27.7,73,30.3z"/>
		<path class="st3" d="M101.5,7.9c0,1.1-0.7,1.8-1.6,1.8C99,9.7,98.3,9,98.3,8c0.1-1.1,0.6-2,1.2-2.9c0.2-0.3,0.4-0.4,0.7,0
			C100.9,6,101.3,6.9,101.5,7.9z"/>
	</g>
</g>
</svg>
