<?xml version="1.0" encoding="utf-8"?>
<!-- Generator: Adobe Illustrator 21.0.0, SVG Export Plug-In . SVG Version: 6.00 Build 0)  -->
<svg version="1.1" id="Layer_1" xmlns="http://www.w3.org/2000/svg" xmlns:xlink="http://www.w3.org/1999/xlink" x="0px" y="0px"
	 viewBox="0 0 200 200" style="enable-background:new 0 0 200 200;" xml:space="preserve">
<style type="text/css">
	.st0{fill:#BA4839;}
	.st1{fill:#88362F;}
	.st2{fill:#92463C;}
	.st3{fill:#FFFEFE;}
	.st4{fill:#FDF9F9;}
	.st5{fill:#5D2622;}
</style>
<g id="zFDSHj.tif">
	<g>
		<path class="st0" d="M101.1,29.2c1.4,0,2.8,0,4.2,0c0.9,0.5,1.9,0.5,2.9,0.7c5.4,1.4,10.5,3.7,15.7,5.7
			c17.8,6.9,35.6,13.9,53.4,20.8c2.1,0.8,4.2,1.7,5.6,3.6c0,0.5,0,0.9,0,1.4c-0.1,0.2-0.2,0.4-0.3,0.5c-2.3,2.4-5.1,4-8.1,5.3
			c-5.4,2.5-10.9,4.9-16.4,7.3c-16.7,7.3-33.5,14.1-49.9,22.1c-4.6,2.2-9.5,3.1-14.6,1.5c-2.3-0.7-4.5-1.9-6.8-2.8
			c-20.4-8.8-41.1-17-61.5-25.8c-2.8-1.2-5.7-2.5-7.8-4.9c-0.2-0.3-0.4-0.6-0.5-0.8c0-0.4,0-0.7,0-1.1c0.7-1.3,1.7-2.1,3-2.8
			c1.2-0.6,2.5-1.2,3.8-1.7c13.3-5.2,26.6-10.4,39.9-15.6c10.4-4,20.8-8.3,31.4-11.8C97.1,30.1,99.1,29.7,101.1,29.2z M137.3,69.9
			c0.4-0.1,0.8-0.2,1.2-0.4c4.6-1.8,9.1-3.6,13.7-5.4c2.4-0.9,4.8-1.9,7.6-3c-7.7-3-15-5.9-22.4-8.8c-0.4-0.1-0.7,0.1-1.1,0.2
			c-7.3,2.9-14.5,5.8-21.8,8.7c-0.6,0.2-1.3,0.3-1.9,1c0.5,0.3,0.9,0.5,1.4,0.6c6.2,2.5,12.5,4.8,18.7,7.4
			C134.4,70.9,135.8,70.8,137.3,69.9z M65,54.4c-3.3,0-6.7,0.3-9.9,1C52,56.1,49,56.9,46.5,59c-2.4,2-2.4,4.4,0,6.5
			c1.4,1.2,3.1,2,4.9,2.6c8.4,2.7,16.8,2.7,25.3,0.7c2.6-0.6,5.1-1.6,7.2-3.4c2.1-1.9,2.1-4.2,0-6.1c-1.1-1-2.3-1.7-3.6-2.2
			C75.4,55,70.2,54.4,65,54.4z M113.5,70.4c-12.8,2-25.2,3.9-37.8,5.8c0.4,0.5,0.9,0.6,1.4,0.8c7.5,3.1,14.9,6.2,22.4,9.3
			c2.5,1,2.5,1,4-1.2C106.8,80.3,110,75.5,113.5,70.4z M89.8,38c1.1,2,2,3.7,2.9,5.4c0.6,1,0.7,1.6-0.7,2c-2.7,0.8-5.4,1.9-8.1,2.9
			c-0.7,0.3-1.5,0.4-2.3,1c0.7,0.1,1.2,0.2,1.7,0.2c4.1,0.4,8.1,0.8,12.2,1c1.7,0.1,2.6,0.7,3.3,2.1c1.2,2.2,2.6,4.3,4,6.7
			c1-2.4,1.9-4.6,2.8-6.8c0.3-0.7,0.7-1,1.4-1.1c2.1-0.2,4.2-0.4,6.4-0.6c2.1-0.2,4.2-0.5,6.3-0.7c-3-1.4-6.1-2.6-9.2-3.7
			c-1-0.4-1.2-0.8-0.8-1.7c0.8-1.8,1.5-3.7,2.4-5.8c-3.3,1.1-6.3,2-9.3,3.1c-1.1,0.4-2.1,0.3-3.2-0.1C96.5,40.6,93.3,39.4,89.8,38z"
			/>
		<path class="st1" d="M17.1,135.4c0-0.2,0-0.4,0-0.6c0.4-0.5,0.3-1.1,0.3-1.6c0-4.6,0-9.2,0-13.7c2.1,2.2,4.7,3.6,7.4,4.8
			c13.6,6,27.4,11.5,41.1,17.3c7.8,3.3,15.7,6.3,23.4,10c6.6,3.2,13.1,3.2,19.6,0c5.1-2.5,10.2-4.9,15.4-7.2
			c10-4.3,20.1-8.6,30.1-13c7.5-3.3,15.1-6.4,22.4-10.1c2.2-1.1,4.4-2.3,5.9-4.3c0,5.4,0,10.8,0,16.2c-0.2,1-1,1.6-1.8,2.2
			c-2.2,1.8-4.7,3-7.2,4.1c-14.5,6.7-29.3,12.8-44,19.2c-7.3,3.2-14.5,6.5-21.7,9.9c-4,1.9-8.3,2.7-12.7,1.7c-3.2-0.7-6-2.3-9-3.5
			c-18.6-7.8-37.2-15.6-55.7-23.4c-3.4-1.4-6.9-2.8-10-4.7c-1.2-0.8-2.6-1.5-3.1-3C17.3,135.7,17.2,135.6,17.1,135.4z"/>
		<path class="st1" d="M17.1,108.5c0-0.2,0-0.4,0-0.6c0.4-0.5,0.3-1.1,0.3-1.6c0-4,0-8.1,0-12.1c0-0.5-0.1-1.1,0.3-1.6
			c1.3,1.7,3.2,2.7,5,3.6c13.1,6.1,26.7,11.4,40,17c8.9,3.8,18,7.2,26.7,11.4c6.3,3,12.5,3.3,18.7,0.2c9.4-4.5,18.9-8.7,28.5-12.9
			c10.9-4.7,21.9-9.4,32.8-14.2c4.7-2.1,9.6-3.8,13.2-7.7c0,5.3,0,10.7,0.1,16c-0.3,1.2-1.2,1.9-2.2,2.6c-1.3,0.9-2.7,1.7-4,2.6
			c-0.5,0.2-0.9,0.4-1.4,0.6c-4.3,1.9-8.5,3.9-12.8,5.8c-9.2,4-18.4,8-27.6,11.9c-8.9,3.8-17.8,7.8-26.6,12
			c-5.7,2.7-11.6,3-17.4,0.3c-8.4-3.9-17-7.3-25.6-10.9c-9.1-3.8-18.2-7.6-27.3-11.4c-4.8-2-9.5-4-14.3-6.1c-1-0.6-2-1.1-3-1.7
			c-1.2-0.8-2.6-1.5-3.1-3C17.3,108.7,17.2,108.6,17.1,108.5z"/>
		<path class="st0" d="M182.6,90.1c-3.7,3.9-8.6,5.6-13.2,7.7c-10.9,4.8-21.8,9.5-32.8,14.2c-9.6,4.1-19.1,8.3-28.5,12.9
			c-6.3,3-12.5,2.7-18.7-0.2c-8.7-4.1-17.8-7.6-26.7-11.4c-13.4-5.6-26.9-10.9-40-17c-1.9-0.9-3.7-1.9-5-3.6
			c-0.2-0.3-0.4-0.6-0.5-0.8c0-0.4,0-0.7,0-1.1c0.7-1.2,1.7-2,2.9-2.7c1.5-0.8,3.1-1.5,4.7-2.1c0.4,0.1,0.7,0.2,1.1,0.3
			c7.1,3,14.1,6,21.2,9c14.7,6.2,29.5,12,44,18.5c2.7,1.2,5.5,1.9,8.5,1.8c4.4-0.1,8.5-1.9,12.4-3.9c5.2-2.7,10.6-5,16-7.4
			c9.8-4.3,19.6-8.5,29.5-12.7c6-2.6,12-5.3,18-8c1.2,0.5,2.5,1,3.7,1.6c1.6,0.7,3.1,1.5,3.9,3.2c0,0.4,0,0.7,0,1.1
			C182.8,89.7,182.7,89.9,182.6,90.1z"/>
		<path class="st0" d="M23.5,113.4c4.8,2,9.5,4.1,14.3,6.1c9.1,3.8,18.2,7.6,27.3,11.4c8.5,3.6,17.2,7,25.6,10.9
			c5.9,2.7,11.7,2.4,17.4-0.3c8.8-4.2,17.6-8.2,26.6-12c9.2-3.9,18.4-7.9,27.6-11.9c4.3-1.9,8.5-3.8,12.8-5.8
			c0.5-0.2,0.9-0.4,1.4-0.6c0.5,0.2,1.1,0.5,1.6,0.7c1.8,0.8,3.7,1.6,4.8,3.5c0,0.5,0,0.9,0,1.4c-0.1,0.1-0.2,0.2-0.3,0.3
			c-1.5,2-3.7,3.2-5.9,4.3c-7.3,3.7-14.9,6.8-22.4,10.1c-10,4.4-20,8.7-30.1,13c-5.2,2.2-10.3,4.7-15.4,7.2c-6.6,3.2-13,3.2-19.6,0
			c-7.6-3.7-15.5-6.7-23.4-10c-13.7-5.7-27.5-11.3-41.1-17.3c-2.7-1.2-5.3-2.6-7.4-4.8c-0.1-0.2-0.2-0.4-0.3-0.5c0-0.4,0-0.7,0-1.1
			c0.4-1.1,1.3-1.9,2.3-2.5C20.7,114.6,22.1,114,23.5,113.4z"/>
		<path class="st2" d="M17.4,80.6c-0.1,0-0.2,0-0.3,0c0-5.7,0-11.3,0-17c0.2,0.3,0.4,0.6,0.5,0.8c-0.4,0.5-0.3,1.1-0.3,1.6
			C17.4,71,17.4,75.8,17.4,80.6z"/>
		<path class="st2" d="M182.9,106c-0.1,0-0.2,0.1-0.2,0.1c0-5.3,0-10.7-0.1-16c0.1-0.2,0.2-0.4,0.3-0.5
			C182.9,95,182.9,100.5,182.9,106z"/>
		<path class="st2" d="M17.1,91.8c0.2,0.3,0.4,0.6,0.5,0.8c-0.4,0.5-0.3,1.1-0.3,1.6c0,4,0,8.1,0,12.1c0,0.5,0.1,1.1-0.3,1.6
			C17.1,102.5,17.1,97.1,17.1,91.8z"/>
		<path class="st2" d="M182.6,117.1c0.1-0.1,0.2-0.2,0.3-0.3c0,5.5,0,10.9,0,16.4l-0.1,0l-0.1,0
			C182.6,127.9,182.6,122.5,182.6,117.1z"/>
		<path class="st2" d="M182.9,77.9c-0.1,0-0.2,0.1-0.2,0.1c0-5.3,0-10.7-0.1-16c0.1-0.2,0.2-0.4,0.3-0.5
			C182.9,66.9,182.9,72.4,182.9,77.9z"/>
		<path class="st2" d="M17.1,119c0.1,0.2,0.2,0.4,0.3,0.5c0,4.6,0,9.2,0,13.7c0,0.5,0.1,1.1-0.3,1.6C17.1,129.6,17.1,124.3,17.1,119
			z"/>
		<path class="st2" d="M17.4,108.8c-0.1,0-0.2,0-0.3,0c0-0.1,0-0.2,0-0.3C17.2,108.6,17.3,108.7,17.4,108.8z"/>
		<path class="st2" d="M17.3,135.8c-0.1,0-0.2,0-0.3-0.1c0-0.1,0-0.2,0-0.3C17.2,135.6,17.3,135.7,17.3,135.8z"/>
		<path class="st1" d="M182.6,62c0,5.3,0,10.7,0.1,16c-0.3,1.3-1.4,1.9-2.3,2.7c-1.6,1.2-3.4,2-5.1,3.1c-6,2.7-12,5.3-18,8
			c-9.8,4.3-19.7,8.4-29.5,12.7c-5.4,2.4-10.8,4.7-16,7.4c-3.9,2-7.9,3.7-12.4,3.9c-2.9,0.1-5.8-0.6-8.5-1.8
			c-14.5-6.5-29.4-12.4-44-18.5c-7.1-3-14.1-6-21.2-9c-0.3-0.1-0.7-0.2-1.1-0.3c-1.6-0.9-3.3-1.8-4.9-2.8c-1-0.6-1.9-1.3-2.3-2.4
			c0-4.8,0-9.7,0-14.5c0-0.5-0.1-1.1,0.3-1.6c2.1,2.5,5,3.7,7.8,4.9c20.4,8.9,41,17.1,61.5,25.8c2.3,1,4.4,2.1,6.8,2.8
			c5.1,1.6,9.9,0.8,14.6-1.5c16.4-7.9,33.2-14.8,49.9-22.1c5.5-2.4,10.9-4.8,16.4-7.3C177.5,65.9,180.4,64.4,182.6,62z"/>
		<path class="st3" d="M65,54.4c5.2,0,10.3,0.6,15.2,2.6c1.3,0.6,2.6,1.3,3.6,2.2c2.1,1.9,2.1,4.2,0,6.1c-2.1,1.8-4.6,2.8-7.2,3.4
			c-8.5,2.1-16.9,2-25.3-0.7c-1.8-0.6-3.4-1.4-4.9-2.6c-2.4-2.1-2.4-4.5,0-6.5c2.5-2.1,5.5-3,8.6-3.6C58.4,54.6,61.7,54.4,65,54.4z"
			/>
		<path class="st4" d="M113.5,70.4c-3.5,5.1-6.7,9.9-10,14.7c-1.5,2.2-1.5,2.2-4,1.2C92,83.2,84.6,80.1,77.1,77
			c-0.5-0.2-1-0.3-1.4-0.8C88.3,74.3,100.7,72.4,113.5,70.4z"/>
		<path class="st4" d="M89.8,38c3.5,1.4,6.7,2.6,9.9,3.9c1.1,0.4,2,0.5,3.2,0.1c3-1,5.9-2,9.3-3.1c-0.9,2.1-1.6,4-2.4,5.8
			c-0.5,1-0.3,1.4,0.8,1.7c3.1,1.1,6.1,2.3,9.2,3.7c-2.1,0.2-4.2,0.5-6.3,0.7c-2.1,0.2-4.2,0.4-6.4,0.6c-0.7,0.1-1.2,0.4-1.4,1.1
			c-0.9,2.2-1.8,4.3-2.8,6.8c-1.4-2.4-2.8-4.5-4-6.7c-0.8-1.4-1.7-2-3.3-2.1c-4.1-0.2-8.1-0.7-12.2-1c-0.5,0-1-0.1-1.7-0.2
			c0.8-0.6,1.6-0.7,2.3-1c2.7-1,5.4-2,8.1-2.9c1.4-0.4,1.3-1,0.7-2C91.7,41.7,90.9,40,89.8,38z"/>
		<path class="st1" d="M137.3,69.9c-1.5,1-2.9,1.1-4.7,0.3c-6.2-2.6-12.5-5-18.7-7.4c-0.4-0.2-0.8-0.4-1.4-0.6
			c0.6-0.6,1.3-0.7,1.9-1c7.3-2.9,14.5-5.8,21.8-8.7c0.3-0.1,0.7-0.3,1.1-0.2C137.3,58.2,137.3,64,137.3,69.9z"/>
		<path class="st5" d="M137.3,69.9c0-5.8,0-11.7,0-17.5c7.3,2.9,14.7,5.8,22.4,8.8c-2.8,1.1-5.2,2-7.6,3c-4.6,1.8-9.1,3.6-13.7,5.4
			C138.1,69.6,137.7,69.7,137.3,69.9z"/>
	</g>
</g>
</svg>
