<?xml version="1.0" encoding="utf-8"?>
<!-- Generator: Adobe Illustrator 21.0.0, SVG Export Plug-In . SVG Version: 6.00 Build 0)  -->
<svg version="1.1" id="Layer_1" xmlns="http://www.w3.org/2000/svg" xmlns:xlink="http://www.w3.org/1999/xlink" x="0px" y="0px"
	 viewBox="0 0 107.6 114" style="enable-background:new 0 0 107.6 114;" xml:space="preserve">
<style type="text/css">
	.st0{fill:#EC168E;}
	.st1{fill:#EB0B8D;}
	.st2{fill:#512C86;}
	.st3{fill:#E60A8D;}
	.st4{fill:#EB0F8E;}
	.st5{fill:#D5128C;}
	.st6{fill:#C9148C;}
	.st7{fill:#BE198C;}
	.st8{fill:#CC128C;}
	.st9{fill:#DB108C;}
	.st10{fill:#DF0E8C;}
	.st11{fill:#D8118C;}
	.st12{fill:#CC138C;}
	.st13{fill:#C3168C;}
	.st14{fill:#D2128C;}
	.st15{fill:#D9108C;}
	.st16{fill:#BD1A8C;}
	.st17{fill:#512C87;}
	.st18{fill:#AA218D;}
	.st19{fill:#A9218D;}
	.st20{fill:#E30C8C;}
	.st21{fill:#762A8A;}
	.st22{fill:#8B288C;}
	.st23{fill:#B91B8C;}
	.st24{fill:#B01F8D;}
	.st25{fill:#A5228D;}
	.st26{fill:#C1178C;}
	.st27{fill:#D0138C;}
	.st28{fill:#A6228D;}
	.st29{fill:#91278C;}
	.st30{fill:#AF1F8D;}
	.st31{fill:#BA1B8C;}
	.st32{fill:#83298B;}
	.st33{fill:#722B89;}
	.st34{fill:#C5168C;}
	.st35{fill:#D1138C;}
	.st36{fill:#99258C;}
	.st37{fill:#A2238D;}
	.st38{fill:#EB108E;}
	.st39{fill:#D1138D;}
	.st40{fill:#A1238D;}
	.st41{fill:#B41D8C;}
	.st42{fill:#BE198D;}
	.st43{fill:#CD138C;}
	.st44{fill:#612C89;}
	.st45{fill:#7C2A8A;}
	.st46{fill:#CA138C;}
	.st47{fill:#7B2A8A;}
	.st48{fill:#C8148C;}
	.st49{fill:#692C89;}
	.st50{fill:#95268C;}
	.st51{fill:#9D248D;}
	.st52{fill:#B01E8D;}
	.st53{fill:#572D89;}
	.st54{fill:#7F2A8B;}
	.st55{fill:#87288B;}
	.st56{fill:#BA1B8D;}
	.st57{fill:#A6228E;}
	.st58{fill:#8C288C;}
	.st59{fill:#C4168D;}
	.st60{fill:#B51D8D;}
	.st61{fill:#C3178D;}
	.st62{fill:#6E2B8A;}
	.st63{fill:#7C2A8B;}
	.st64{fill:#532D87;}
	.st65{fill:#86298B;}
	.st66{fill:#81298B;}
	.st67{fill:#87298B;}
	.st68{fill:#5D2D89;}
	.st69{fill:#732B89;}
	.st70{fill:#95268D;}
	.st71{fill:#C4178D;}
	.st72{fill:#92278D;}
	.st73{fill:#6E2C8A;}
	.st74{fill:#99258D;}
	.st75{fill:#82298B;}
	.st76{fill:#97268D;}
	.st77{fill:#762C8A;}
	.st78{fill:#91278D;}
	.st79{fill:#92288D;}
	.st80{fill:#C9168D;}
	.st81{fill:#662D89;}
	.st82{fill:#B61D8D;}
	.st83{fill:#C01B8E;}
	.st84{fill:#C8168C;}
	.st85{fill:#9F288F;}
	.st86{fill:#63388F;}
	.st87{fill:#612C88;}
	.st88{fill:#6E2B89;}
	.st89{fill:#5C2D88;}
	.st90{fill:#582D88;}
	.st91{fill:#552D88;}
	.st92{fill:#652C88;}
	.st93{fill:#8D288C;}
	.st94{fill:#90278C;}
	.st95{fill:#C7178C;}
	.st96{fill:#EB0C8D;}
	.st97{fill:#E40D8D;}
	.st98{fill:#DF108D;}
	.st99{fill:#CB178C;}
	.st100{fill:#93268C;}
	.st101{fill:#98258C;}
	.st102{fill:#D2148C;}
	.st103{fill:#DA138D;}
	.st104{fill:#AB208D;}
	.st105{fill:#B31D8D;}
	.st106{fill:#B71C8C;}
	.st107{fill:#FEFEFE;}
	.st108{fill:#EC148E;}
</style>
<g>
	<path class="st0" d="M57.1,100.5c-5-0.2-9.7-1.2-14.3-3c-12.5-4.9-21.6-13.3-26.9-25.7c-0.1-0.3-0.2-0.6-0.3-0.9
		c-0.2-0.4-0.1-0.7-0.3-1.1c-0.1-0.3-0.1-0.5,0-0.8c0.5-0.4,0.8,0.1,1.1,0.4c3.1,2.3,6.1,4.6,9.2,6.9c7.7,5.9,15.5,11.7,23.2,17.6
		c2.4,1.8,4.8,3.6,7.2,5.4C56.4,99.7,57,100,57.1,100.5z"/>
	<path class="st0" d="M14.4,68.3c-1.5-1.5-2.9-3.2-4-5c-1.1-2-1.4-3.9,0.3-5.8c1.6-2,1.5-4.2,0.8-6.5c-0.5-1.5-1-3.1-1.4-4.6
		c-0.5-2.1,0-3.8,1.4-5.3c0.9-1.1,2-2.2,3.2-3.1c2-1.4,2.6-3.3,2.6-5.6c0-1.4,0-2.8,0.2-4.1c0.4-2.4,1.6-4,3.9-4.9
		c1.3-0.5,2.6-0.8,3.9-0.8c3-0.1,5.1-1.5,7-3.7c0.7-0.8,1.4-1.6,2.1-2.4c2.2-2.7,5-3.5,8.3-3.2c3,0.3,5.5,1.6,7.7,3.8
		c-0.4,0.5-1,0.2-1.4,0.4c-0.5,0.2-1.2,0-1.7,0.2c-0.5,0.1-1.1,0.1-1.5,0.2c-0.5,0.2-1.2,0.2-1.8,0.4c-0.7,0.2-1.4,0.3-2.1,0.5
		c-0.8,0.2-1.5,0.5-2.3,0.7c-0.7,0.3-1.5,0.5-2.3,0.9c-0.9,0.4-1.8,0.8-2.6,1.2c-1,0.5-1.9,1-2.8,1.5c-0.8,0.5-1.5,1-2.3,1.5
		c-0.6,0.5-1.2,0.9-1.7,1.4c-0.6,0.5-1.3,1.1-1.9,1.6c-0.6,0.6-1.3,1.3-1.9,1.9c-0.5,0.5-0.8,1-1.3,1.4c-0.5,0.8-1.2,1.7-1.9,2.6
		c-0.5,0.7-1,1.5-1.5,2.3c-0.5,0.8-1,1.7-1.4,2.5c-0.5,0.8-0.9,1.7-1.3,2.5c-1.8,4.1-2.9,8.3-3.4,12.7c-0.5,4.5-0.2,8.8,1.1,13.1
		C14.4,67.2,14.7,67.8,14.4,68.3z"/>
	<path class="st1" d="M64.4,100.3c-1.8,0.4-3.6,0.5-5.4,0.4c-2-1.4-3.9-2.9-5.9-4.3c-4.4-3.3-8.9-6.8-13.3-10.1
		C32,80.3,24.1,74.4,16.3,68.4c-0.5-0.4-1-0.5-1.4-1c-0.4-1.4-0.2-2.9-0.1-4.3c0.4-0.6,0.7-0.2,1,0c2.3,1.7,4.6,3.4,6.9,5.2
		c4.5,3.4,9,6.8,13.6,10.3c9.2,6.9,18.4,13.9,27.5,20.8C64.2,99.6,64.7,99.6,64.4,100.3z"/>
	<path class="st2" d="M15.1,62.7c0,1.5-0.2,3.2,0.2,4.7c0.4,0.5,0.3,1,0.2,1.5c0,0.3,0,0.5,0,0.9c0.1,0.2,0.2,0.4-0.2,0.4
		c-0.4-0.6-0.5-1.4-0.9-1.9c-0.1-1.2-0.6-2.3-0.9-3.4c-1.4-5.9-0.9-11.7,0.6-17.5c0.6-2.3,1.4-4.6,2.3-6.7c0.6,0.1,0.5,0.6,0.6,1.1
		c0.3,2.6,0.5,5.2,1.3,7.8c0,0.4-0.1,0.6-0.2,0.9c-0.2,0.3-0.3,0.6-0.5,0.9c-0.2,0.3-0.3,0.5-0.4,0.8c-0.4,0.8-0.6,1.6-0.8,2.4
		c-0.2,0.5-0.4,1-0.5,1.5c-0.1,0.5-0.3,1.2-0.3,1.7c-0.1,0.7-0.3,1.4-0.3,2.1s-0.3,1.4-0.2,2.1C15.3,62.3,15.3,62.6,15.1,62.7z"/>
	<path class="st3" d="M15.1,62.7c0-0.3,0-0.5,0-0.7c0.1-0.1,0-0.4,0.2-0.4c0.5,0,0.8,0.4,1.2,0.6c6.8,5.1,13.5,10.2,20.3,15.3
		c0.4,0.3,0.7,0.5,1.1,0.7c0.8,0.9,1.5,1.9,2.4,2.8c2.3,2.3,4.9,4,7.8,5.2c0.6-0.1,1,0.5,1.4,0.8c0.3,0.2,0.5,0.5,0.8,0.6
		c1.9,1.4,3.9,2.8,6,3.9c0.4,0.2,0.7,0.4,1,0.7c0.4,0.5,0.9,0.8,1.4,1.3c2.4,1.8,4.9,3.6,7.2,5.5c0.3,0.2,0.8,0.4,0.5,0.9
		c-0.6,0.3-1.4,0.4-2.1,0.4c-0.3-0.8-1.1-1-1.6-1.4c-5.4-4.1-10.7-8.1-16.1-12.2c-3-2.3-6-4.5-9-6.8c-5.7-4.2-11.3-8.6-16.9-12.9
		C18.9,65.6,17,64.2,15.1,62.7z"/>
	<path class="st4" d="M15.4,69c-0.3-0.5-0.2-1.1-0.2-1.5c1.3,0.5,2.2,1.5,3.2,2.3c4.2,3.2,8.4,6.3,12.5,9.5
		c6.1,4.6,12.2,9.2,18.3,13.9c3,2.3,6,4.5,9,6.8c0.3,0.2,0.6,0.4,0.8,0.8c-0.6,0-1.3,0-1.9,0c-5.5-4.2-11.1-8.4-16.6-12.6
		c-3.9-3-7.7-5.9-11.6-8.8c-4.2-3.2-8.5-6.4-12.7-9.5C16,69.4,15.7,69.2,15.4,69z"/>
	<path class="st5" d="M73.2,23.9c2.8,1.7,5.4,3.7,7.7,6c3.2,5.9,1.8,13.5-4.2,17.6c-0.6,0.5-1.2,1.1-2.1,0.7c-0.5,0-1.1,0.1-1.5-0.2
		c0-0.5,0.4-0.5,0.7-0.7c4.1-1.9,6.6-4.9,7.2-9.4c0.8-6.1-3.1-11.6-8.8-12.6c-7.9-1.4-13.3,5-13.3,11c0,3.1,0.7,5.8,2.8,8.1
		c0.3,0.3,0.5,0.5,0.3,1c-0.6-0.2-1.4-0.4-1.9-0.6c-1.5-1.8-2.3-3.9-2.6-6.1c-1.1-6.9,3.7-14.1,11.6-15
		C70.4,23.5,71.8,23.8,73.2,23.9z"/>
	<path class="st1" d="M57.3,92.4c-1.5-1.1-3.3-1.7-4.8-2.9c-0.7-0.5-1.4-1.1-2.2-1.6c-0.6-1.3-1.5-2.3-2.3-3.5
		c-1.9-2.8-3.8-5.5-5.7-8.3c-0.1-0.2-0.2-0.4-0.3-0.5l0,0c-0.2-0.4,0-0.7-0.1-1.1c-0.1-0.6,0.3-0.2,0.4-0.1c0.8,1.3,2.1,2.1,3.1,3.2
		c2.3,2.2,4.9,4.1,7.4,5.9c0,0.3,0.2,0.5,0.4,0.7c1.7,2.5,3.3,5,5,7.5c0.3,0.4,0.8,0.7,0.2,1.3C57.9,93,57.6,92.7,57.3,92.4z"/>
	<path class="st6" d="M56.2,43.4c-0.8-0.2-1.5-0.5-2.3-0.9c-0.5-1.2-0.8-2.4-0.9-3.7c-0.5-5.4,1.2-10.1,4.8-14
		c2-2.2,4.4-3.6,7.2-4.6c0.3-0.1,0.5-0.2,0.8,0c0.8,0.3,1.5,0.5,2.3,1c0,0.6-0.5,0.6-0.9,0.7c-1.7,0.5-3.4,1-4.9,2
		c-4.1,2.8-6.5,6.6-7.1,11.5c-0.3,2.3,0.2,4.6,0.9,6.8C56.2,42.6,56.5,42.9,56.2,43.4z"/>
	<path class="st7" d="M52.2,41.7c-0.4-0.2-0.8-0.3-1.2-0.5c-0.3-0.1-0.6-0.1-0.7-0.5c-0.6-2.6-0.5-5.2,0-7.8
		c0.1-0.4,0.2-0.7,0.1-1.1c-0.1-0.5,0.2-0.8,0.4-1.2c0.5-1,1-1.9,1.3-3c1.9-3.6,4.5-6.6,8-8.6c0.4-0.2,0.6-0.5,1.1-0.4
		c0.8,0.1,1.5,0.4,2.3,0.7c-0.1,0.4-0.4,0.5-0.7,0.7c-3.7,1.8-6.6,4.5-8.6,8.2c-1.4,2.4-2,5.1-2.1,7.9c-0.1,1.4,0,3,0.3,4.4
		C52.5,40.9,52.7,41.4,52.2,41.7z"/>
	<path class="st8" d="M16.3,54.5c0.2-0.8,0.5-1.6,0.9-2.4c0.4-0.1,0.5,0.1,0.8,0.3c5,3.9,10.1,7.7,15.1,11.4c0.1,0,0.1,0.1,0.1,0.1
		c0,0.4,0,0.8,0,1.2c0.2,0.4,0,0.7,0.1,1.1c0,0.3,0,0.5,0.1,0.7c-0.6,0.1-1-0.4-1.4-0.6c-4.8-3.6-9.5-7.2-14.3-10.8
		C17.3,55.1,16.8,54.8,16.3,54.5z"/>
	<path class="st9" d="M69.8,47.6c-1.7-0.2-3.4-0.6-5-1.2c-2.5-1.4-4.2-3.4-5.1-6.2c-1.2-3.7-0.5-7.1,1.8-10.2
		c2.4-3.2,5.8-4.7,9.7-4.2c4.6,0.6,7.6,3.3,8.9,7.7C82.1,40.1,77.3,47.4,69.8,47.6C69.9,47.6,69.8,47.6,69.8,47.6z"/>
	<path class="st10" d="M15.3,59.9c0.1-0.7,0.1-1.4,0.4-2.1c0.5-0.3,0.8,0.2,1.2,0.4c4.5,3.4,9,6.8,13.5,10.2
		c1.4,1.1,2.9,2.1,4.2,3.2c0.5,1.1,1,2.3,1.4,3.3c-0.5,0.3-0.9-0.2-1.2-0.5c-2.3-1.7-4.6-3.4-6.9-5.2c-3.8-2.9-7.6-5.7-11.3-8.6
		C16,60.5,15.6,60.2,15.3,59.9z"/>
	<path class="st11" d="M61.8,45.5c-0.2-0.7-0.8-1.1-1.2-1.7c-1.4-2-2.2-4.2-2.2-6.8c0-2.9,0.7-5.4,2.4-7.6c2.2-2.7,5-4.3,8.5-4.4
		c3.5-0.1,6.5,1.1,8.8,3.7c1.8,2,2.8,4.4,2.9,7.1c0.1,2.3-0.3,4.6-1.5,6.7c-1.4,2.3-3.3,4.1-5.9,5.2c-0.3,0.1-0.6,0.1-0.7,0.5
		c-0.8,0-1.5-0.1-2.3-0.4c0.4-0.4,0.9-0.4,1.4-0.5c7.4-1.8,11.1-10.8,6.1-17.3c-3.6-4.8-9.8-5.5-14.5-2.1c-5.6,4.1-6.1,12.1-1.2,17
		c0.4,0.4,1.1,0.5,1,1.2C63,45.9,62.4,45.7,61.8,45.5z"/>
	<path class="st12" d="M56.2,43.4c-0.4-1.3-0.7-2.4-1-3.7c-0.7-3.1-0.3-6.1,1-9c2.1-4.7,5.6-7.8,10.6-9c0.5-0.1,1,0,1.3-0.5
		c0.8,0.5,1.6,0.9,2.4,1.3c-0.1,0.5-0.5,0.4-0.7,0.4c-1.4,0.3-2.8,0.5-4.1,0.9c-5.3,1.8-9.2,7.2-9.3,12.9c0,2.3,0.5,4.4,1.4,6.4
		c0.2,0.4,0.5,0.7,0.1,1.2C57.4,43.9,56.8,43.7,56.2,43.4z"/>
	<path class="st13" d="M52.2,41.7c0.3-0.8-0.1-1.5-0.2-2.3c-0.5-3.4,0-6.8,1.4-10c0.7-1.8,1.7-3.4,3-4.9c1.7-1.9,3.7-3.6,6-4.7
		c0.4-0.2,0.6-0.5,1-0.6c0.8,0.2,1.6,0.5,2.4,0.9c-2.3,0.6-4.3,1.7-6.2,3.2c-1.8,1.4-3.2,3.2-4.2,5.1c-1.2,2.2-1.8,4.4-2.1,6.8
		c-0.3,2.3,0,4.3,0.7,6.5c0.1,0.2,0,0.5,0,0.7C53.4,42.2,52.8,41.9,52.2,41.7z"/>
	<path class="st14" d="M16.3,54.5c0.4-0.2,0.5,0,0.8,0.2c3.5,2.6,7,5.3,10.5,7.9c1.5,1.2,3.2,2.4,4.7,3.6c0.4,0.3,0.7,0.5,1.1,0.7
		c0.2,0.9,0.4,1.7,0.5,2.6c-0.5,0-0.8-0.4-1.1-0.6c-5.5-4.1-10.9-8.3-16.4-12.3c-0.2-0.2-0.4-0.3-0.5-0.5
		C15.9,55.5,16.2,55.1,16.3,54.5z"/>
	<path class="st15" d="M15.9,56.1c1.3,0.5,2.3,1.5,3.3,2.3c4.6,3.4,9.2,6.9,13.8,10.4c0.3,0.2,0.7,0.4,0.9,0.6
		c0.2,0.7,0.4,1.4,0.5,2.1c-1.2-0.4-1.9-1.3-2.9-1.9c-3.5-2.6-7-5.3-10.5-7.9c-1.5-1.2-3.1-2.3-4.6-3.5c-0.3-0.2-0.5-0.4-0.9-0.4
		C15.5,57.2,15.7,56.7,15.9,56.1z"/>
	<path class="st16" d="M33.6,59c0,0.5-0.1,1-0.2,1.5c-0.4,0.2-0.6-0.1-0.9-0.4c-4.6-3.5-9.2-6.9-13.8-10.4c-0.1-0.1-0.1-0.1-0.2-0.2
		c-0.1-0.6,0.5-1,0.6-1.4c0.2-0.2,0.3-0.4,0.5-0.4c0.7,0.2,1.2,0.7,1.7,1.2c3.9,3,7.7,5.9,11.6,8.7C33.5,58,33.8,58.2,33.6,59z"/>
	<path class="st17" d="M90.3,46.7c0.1-2.7,0-5.5-0.8-8.1c-0.3-0.7-0.5-1.4-0.9-2.3c3.2,2.4,5.9,8.9,5,15.4c-0.3,0.5-0.6,0.3-0.8-0.1
		c-0.9-1.2-1.6-2.3-2.4-3.6C90.1,47.7,90.2,47.2,90.3,46.7z"/>
	<path class="st18" d="M86,90.3c-0.5,0.5-1.2,1.2-1.9,1.6c-0.5,0.1-1.1,0-1.6,0.4c-0.5,0.3-0.7-0.1-0.9-0.5
		c-0.6-0.8-1.2-1.7-1.8-2.6c-1.8-2.7-3.7-5.4-5.6-8.1c-0.2-0.3-0.5-0.5-0.4-1c0.6-0.3,1.3-0.5,1.9-0.8c0.4,0.2,0.5,0.5,0.7,0.8
		c2.3,3.3,4.5,6.7,6.8,9.9c0.6,0.9,0.6,0.9,1.6,0.3C85.3,90.1,85.7,89.8,86,90.3z"/>
	<path class="st10" d="M58.4,86.5c0.7,0.3,1.5,0.6,2.3,0.9c0.4,0.2,0.5,0.5,0.7,0.7c1.3,1.9,2.6,3.8,3.9,5.7
		c0.3,0.5,0.5,0.8,0.6,1.4c0.1,0.4,0.4,0.5,0.6,0.8c1,0.7,2,1.5,3.1,2.3c0.3,0.3,0.7,0.5,0.5,1c-0.7,0.2-1.4,0.4-2.1,0.5
		c-2.2-1.5-4.2-3.2-6.4-4.9c-0.3-0.2-0.5-0.5-0.5-0.9c0-0.1,0-0.2,0.1-0.2c0.6,0.1,1.2,0.4,2,0.5c-0.4-0.8-0.8-1.4-1.3-2
		c-1.1-1.5-2.1-3.2-3.2-4.7C58.6,87.3,58.2,87,58.4,86.5z"/>
	<path class="st19" d="M35.4,53c-0.2,0.5-0.4,0.9-0.5,1.4c-0.5,0.1-0.7-0.2-1-0.4c-3.9-2.9-7.7-5.8-11.5-8.7
		c-0.2-0.1-0.4-0.3-0.4-0.5c0.2-0.6,0.6-1,1.1-1.4c0.4-0.1,0.6,0.2,1,0.4c3.6,2.8,7.2,5.5,10.8,8.2C35,52.2,35.5,52.4,35.4,53z"/>
	<path class="st20" d="M15.3,59.9c0.5-0.2,0.6,0.2,0.9,0.4c5.7,4.2,11.3,8.6,17,12.8c0.9,0.6,1.6,1.4,2.7,1.8
		c0.5,0.7,0.8,1.4,1.3,2.1c-0.5,0.3-0.9-0.1-1.3-0.4c-2-1.4-3.9-2.9-5.9-4.4c-4.6-3.5-9.3-7-13.9-10.4c-0.3-0.2-0.5-0.5-0.9-0.1
		c-0.1,0.1-0.1,0.2-0.2,0.4C15,61.3,15.3,60.7,15.3,59.9z"/>
	<path class="st21" d="M84.1,63.8c0.4-0.6,0.8-1.3,1.2-2c0.4-0.2,0.5,0.1,0.6,0.4c2.3,3.3,4.5,6.7,6.8,9.9c0.1,0.1,0.1,0.2,0.1,0.3
		c-0.4,0.6-0.8,1.3-1.4,1.8c-0.4,0.1-0.5-0.2-0.6-0.5c-0.8-1.3-1.7-2.4-2.4-3.7C86.9,68,85.5,65.9,84.1,63.8z"/>
	<path class="st22" d="M41.8,45.5c-0.5,0.5-1,0.8-1.5,1.3c-0.5,0.2-0.7,0-1-0.3c-3.1-2.3-6.1-4.6-9.2-6.9c-0.3-0.2-0.5-0.5-0.6-0.8
		c0-0.2,0.1-0.3,0.2-0.3c0.5-0.3,1-0.5,1.6-0.5c0.3,0,0.5,0.1,0.8,0.3c3.2,2.4,6.4,4.9,9.5,7.2C41.7,45.4,41.7,45.4,41.8,45.5z"/>
	<path class="st23" d="M33.6,59c0-0.5-0.1-0.7-0.5-1c-3.3-2.4-6.6-5-9.9-7.5c-1.2-0.9-2.3-1.8-3.6-2.8c-0.1-0.5,0.2-0.9,0.5-1.2
		c0.1-0.1,0.3-0.1,0.4-0.1c0.5,0.1,0.8,0.6,1.3,0.9c4,2.9,7.8,5.9,11.7,8.8c0.2,0.2,0.4,0.3,0.5,0.5C33.9,57.4,33.7,58.1,33.6,59z"
		/>
	<path class="st24" d="M73.9,80.1c2.2,3.2,4.2,6.2,6.4,9.4c0.5,0.8,1.1,1.5,1.6,2.3c0.3,0.4,0.5,0.5,0.8,0.2c0.5-0.5,1-0.3,1.4-0.1
		c-0.5,0.5-0.9,0.8-1.4,1.1c-0.6-0.5-1.2-0.2-1.8,0c-0.1,0-0.2,0-0.3,0c-0.8-0.8-1.4-1.8-2-2.7c-2-2.9-4-5.8-5.9-8.6
		c-0.2-0.3-0.5-0.5-0.4-1C73,80.4,73.4,80.3,73.9,80.1z"/>
	<path class="st25" d="M35.4,53c0-0.5-0.5-0.6-0.8-0.9c-3.6-2.8-7.3-5.5-10.9-8.3c-0.2-0.2-0.5-0.3-0.7-0.3c-0.1-0.2,0-0.4,0.1-0.5
		c0.3-0.3,0.5-0.6,1-0.7c0.4,0,0.6,0.2,0.9,0.4c3.7,2.7,7.3,5.5,10.9,8.2c0.2,0.1,0.4,0.3,0.5,0.5C35.9,51.9,35.6,52.5,35.4,53z"/>
	<path class="st26" d="M18.5,49.5c1.7,1.1,3.2,2.3,4.9,3.6c3,2.3,5.9,4.5,8.9,6.8c0.4,0.3,0.7,0.5,1,0.6c0,0.5,0,1.1-0.2,1.6
		c-0.7-0.3-1.2-0.8-1.8-1.3c-4.4-3.3-8.8-6.8-13.2-10c-0.1-0.1-0.3-0.2-0.3-0.3c0.1-0.3,0.2-0.5,0.3-0.7
		C18.3,49.7,18.2,49.4,18.5,49.5z"/>
	<path class="st3" d="M61.3,94c-0.1,0-0.1,0-0.2,0c-1.1-0.1-2.1-0.4-2.8-1.3c0.3-0.4,0-0.5-0.2-0.7c-1.8-2.6-3.5-5.2-5.3-7.8
		c-0.2-0.3-0.5-0.5-0.1-0.7c1.2,0.6,2.3,1.4,3.4,2c1.8,2.5,3.5,5.1,5.3,7.7C61.7,93.5,62.1,94,61.3,94z"/>
	<path class="st27" d="M74.6,48.2c0.7,0.2,1.1-0.4,1.6-0.7c1.8-1.2,3.2-2.6,4.3-4.4c1.6-2.6,2.1-5.6,1.6-8.6
		c-0.2-1.4-0.6-2.6-1.2-3.8c-0.1-0.3-0.1-0.5-0.2-0.7c0.7,0.6,1.4,1.3,2,2c1,2.5,1,5,0.4,7.7c-0.8,3.7-2.8,6.7-6,8.8
		C76.3,48.4,75.4,48.5,74.6,48.2z"/>
	<path class="st28" d="M85,90.5c-0.2,0.1-0.5,0.3-0.5,0.4c-0.4,0.4-0.7,0.3-1-0.2c-2.4-3.6-5-7.3-7.5-10.9c-0.1-0.2-0.2-0.4-0.3-0.5
		c0.5-0.3,0.9-0.5,1.4-0.7c1.6,2.2,3.1,4.4,4.6,6.7c1,1.4,2.1,3,3.1,4.4C85,89.9,85.3,90.1,85,90.5z"/>
	<path class="st29" d="M29.6,38.7c1,1.2,2.3,2,3.5,2.9c2.1,1.6,4.1,3.2,6.2,4.7c0.3,0.2,0.5,0.4,0.9,0.5c-0.5,0.4-0.8,0.8-1.3,1.2
		c-0.5,0.1-0.6-0.2-0.9-0.5c-3.1-2.3-6.2-4.7-9.3-7c-0.4-0.3-0.7-0.5-0.9-0.9c0-0.2,0.1-0.4,0.2-0.5C28.6,38.9,29,38.4,29.6,38.7z"
		/>
	<path class="st30" d="M21.8,44.7c3.9,3,7.7,5.9,11.6,8.7c0.4,0.3,0.8,0.5,1.3,0.8c-0.2,0.5-0.3,0.8-0.5,1.3
		c-0.4,0.2-0.6-0.1-0.9-0.3c-4.1-3.2-8.4-6.2-12.4-9.5c-0.2-0.5,0.2-0.6,0.4-0.8C21.5,44.9,21.6,44.6,21.8,44.7z"/>
	<path class="st15" d="M70,99.2c-0.5-1-1.5-1.3-2.2-2c-0.3-0.3-0.6-0.5-1-0.7c-0.9-0.5-1.1-1.4-1.6-2.1c-1.4-2.2-2.9-4.2-4.3-6.4
		c-0.1-0.2-0.3-0.4-0.4-0.6c0.8,0.3,1.6,0.5,2.4,0.7c1.4,2.3,3.1,4.6,4.7,6.9c0.5,0.7,1.4,1.2,2,1.7c0.5,0.4,1,0.7,1.5,1.2
		c0.3,0.2,0.6,0.4,0.5,0.8C71.2,98.8,70.6,99,70,99.2z"/>
	<path class="st18" d="M53.8,17.4c0.4,0,0.7,0,1.1,0.1c0.5,0.1,0.5,0.3,0.3,0.6c-0.1,0.2-0.4,0.4-0.5,0.5c-2.3,2.1-4.2,4.6-5.7,7.4
		c-0.2,0.4-0.3,0.7-0.7,0.7c-0.1,0-0.3,0-0.4,0c-0.4-0.1-0.7-0.3-1.1-0.3c-0.2-0.1-0.4-0.1-0.4-0.4c1.3-2.8,3.1-5.3,5-7.7
		C52.2,17.6,52.8,17,53.8,17.4z"/>
	<path class="st31" d="M61.2,18.6c-2.7,1.4-5,3.3-6.8,5.7c-0.8,1.1-1.4,2.3-2.2,3.4c-0.5,0.3-0.8-0.1-1.3-0.2
		c-0.2-0.1-0.4-0.2-0.4-0.4c0.6-1.9,1.8-3.5,3.2-5c1.3-1.4,2.6-2.8,4.2-3.9c0.3-0.2,0.5-0.5,0.9-0.3C59.7,18.1,60.5,18.4,61.2,18.6z
		"/>
	<path class="st32" d="M43.9,44.1c-0.4,0.3-0.7,0.5-1.1,0.6c-0.5,0.2-0.7-0.1-1-0.3c-2.8-2.1-5.5-4.2-8.3-6.3
		c-0.4-0.3-0.7-0.5-0.8-1c-0.1-2.2,0.2-4.2,0.5-6.3c0.1-0.4,0.2-0.6,0.5-0.8c0.8,0.1,0.5,0.8,0.7,1.3c-0.5,1.6-0.4,3.2-0.5,4.9
		c-0.1,0.9,0.5,0.7,1,0.7c0.1,0,0.3,0,0.4,0.1c0.3,0.7,0.9,1.1,1.4,1.5c2.3,1.7,4.7,3.5,6.9,5.2C43.7,43.8,43.9,43.9,43.9,44.1z"/>
	<path class="st33" d="M92.9,72.4c-0.5-0.4-0.9-1-1.3-1.5c-1.9-2.8-3.9-5.6-5.8-8.4c-0.2-0.2-0.3-0.5-0.5-0.5
		c0.3-0.5,0.6-1.2,0.9-1.7c1,1.2,1.9,2.5,2.7,3.8c0,0.1,0,0.1,0.1,0.2c0.5,0.4,0.8,0.9,1.2,1.4c1.2,1.8,2.5,3.5,3.6,5.4
		C93.6,71.5,93.1,71.8,92.9,72.4z"/>
	<path class="st34" d="M17.9,50.5c1.1,0.4,1.9,1.3,2.9,2c3.2,2.4,6.6,4.9,9.7,7.4c0.9,0.7,2,1.3,2.7,2.3c0,0.3,0,0.5,0,0.8
		c-0.5,0.4-0.8-0.1-1.2-0.4c-3.2-2.3-6.4-4.9-9.6-7.2c-1.4-1.1-2.9-2.3-4.3-3.2c-0.3-0.2-0.5-0.4-0.6-0.6
		C17.5,51,17.7,50.8,17.9,50.5z"/>
	<path class="st35" d="M73.2,23.9c-0.5,0.5-1.2,0.1-1.6,0c-2.3-0.5-4.4,0.1-6.5,1c-4.3,1.9-6.8,5.4-7.6,9.9
		c-0.5,3.2,0.2,6.2,1.9,8.9c0.2,0.4,0.5,0.5,0.5,1c-0.4,0-0.6-0.1-0.9-0.3c-1.4-1.5-2-3.5-2.3-5.5c-0.7-4.5,0.5-8.5,3.6-11.8
		c2.3-2.6,5.4-4,8.9-4.1c0.9-0.1,1.9-0.2,2.9,0.2C72.5,23.5,72.9,23.7,73.2,23.9z"/>
	<path class="st36" d="M38.3,48.6c-0.3,0.4-0.6,0.7-0.9,1.1c-0.4,0.1-0.6-0.1-0.9-0.3c-3.2-2.5-6.6-5-9.9-7.5
		c-0.4-0.3-0.8-0.5-0.9-0.9c0.1-0.5,0.5-0.6,0.9-0.9c0.2-0.1,0.4-0.1,0.5-0.1c3.5,2.8,7.1,5.4,10.6,8.1C38,48.2,38.2,48.4,38.3,48.6
		z"/>
	<path class="st12" d="M76.3,96.8c-0.5,0.5-1.3,0.7-1.9,0.9c-1.2-0.8-2.4-1.6-3.6-2.4c-1-0.7-1.4-2-2.3-3c-0.6-0.8-1.1-1.6-1.6-2.4
		c-0.2-0.3-0.5-0.6-0.3-1c0.2-0.4,0.6-0.1,1-0.2c0.1,0,0.3,0,0.4,0.1c0.3,0,0.5,0,0.7,0c0.8,1,1.5,2.1,2.3,3.2
		c0.5,0.7,1,1.5,1.5,2.3c0.4,0.5,0.8,0.8,1.4,0.9C74.9,95.3,75.7,96,76.3,96.8z"/>
	<path class="st35" d="M67.9,88.8c-0.1,0-0.2,0-0.3,0c-0.3,0.1-0.7-0.2-0.9,0.2c-0.2,0.4,0.2,0.5,0.4,0.8c1.1,1.6,2.2,3.2,3.2,4.8
		c0.4,0.5,0.8,0.8,1.4,1.2c1,0.5,1.9,1.2,2.6,2.1c-0.5,0.3-1.1,0.5-1.6,0.6c-1.7-1.2-3.4-2.3-4.6-4.1c-1-1.6-2.2-3.2-3.2-4.7
		c-0.3-0.4-0.6-0.7-0.3-1.2C65.9,88.6,66.9,88.7,67.9,88.8z"/>
	<path class="st37" d="M85,90.5c-1-1.5-2-3-3.1-4.5c-1.5-2.3-3.1-4.5-4.6-6.8c-0.1-0.2-0.2-0.4-0.2-0.5c0.4-0.2,0.7-0.4,1.1-0.5
		c0.5,0.2,0.6,0.6,0.8,1c0.7,1.1,1.4,2.2,2.3,3.2c1.4,2.3,3,4.3,4.3,6.5c0.3,0.4,0.5,0.6,1,0.4c0.2-0.1,0.5-0.2,0.6,0
		c-0.4,0.5-0.8,0.9-1.3,1.2C85.7,90.2,85.3,90.2,85,90.5z"/>
	<path class="st38" d="M42.1,75.7c0.5,0.3,0.7,0.6,1,1c1.4,2.2,2.9,4.2,4.3,6.4c0.9,1.4,1.9,2.7,2.8,4.1c0.2,0.2,0.5,0.5,0.2,0.7
		c-0.7-0.5-1.4-1.1-2.2-1.6c-0.5-0.8-1.3-1.4-1.9-2.2c-1.9-2.3-3.4-4.6-4.1-7.5C42.2,76.3,42.1,76,42.1,75.7z"/>
	<path class="st39" d="M72.2,23.3c-3-0.2-5.9,0.1-8.5,1.6c-2.6,1.5-4.6,3.6-5.8,6.4c-0.8,1.9-1.3,3.8-1.2,5.9c0,2.4,0.7,4.7,2,6.8
		c0.1,0.2,0.2,0.5,0.3,0.6c-0.4-0.1-0.7-0.2-1-0.5c-0.1-1-0.7-1.8-1-2.7c-1.6-4.9-0.7-9.4,2.3-13.4c2.2-2.9,5.1-4.5,8.6-5.1
		c0.8-0.2,1.7-0.1,2.5-0.4C71.2,22.6,71.6,23,72.2,23.3z"/>
	<path class="st40" d="M36.2,51.4c-1.3-0.6-2.3-1.5-3.3-2.3c-2.7-2-5.4-4.1-8.1-6.1c-0.3-0.2-0.5-0.5-0.8-0.5c0,0-0.1-0.1-0.1-0.2
		c0-0.1,0-0.1,0-0.1c0.3-0.4,0.5-0.5,0.9-0.6s0.7,0.1,1,0.4c3.7,2.8,7.4,5.6,11.1,8.4C36.7,50.8,36.4,51.1,36.2,51.4z"/>
	<path class="st41" d="M21,45.8c1.2,0.5,2.2,1.4,3.2,2.3c2.3,1.7,4.7,3.5,7,5.3c1,0.8,2,1.7,3.2,2.3c-0.1,0.4-0.2,0.7-0.3,1
		c-1.2-0.5-2-1.3-2.9-2c-3.2-2.4-6.5-4.9-9.7-7.3c-0.4-0.3-0.6-0.5-1-0.8C20.4,46.1,20.7,45.9,21,45.8z"/>
	<path class="st42" d="M80.5,94.5c-0.6,0.5-1.3,0.8-1.9,1.2c-0.6-0.5-1.3-1.2-2.3-1c-0.5,0.1-0.6-0.4-0.9-0.6
		c-0.9-1.3-1.8-2.6-2.6-3.9c-0.5-0.6-0.9-1.4-1.8-1.3c-0.1,0-0.2-0.1-0.3-0.2c1.2-0.1,2.3-0.2,3.5-0.3c0.8,0.8,1.4,1.9,2.1,2.9
		c0.4,0.5,0.7,1.1,1.1,1.6c0.4,0.6,0.8,0.9,1.5,0.6C79.7,93.3,80.4,93.8,80.5,94.5z"/>
	<path class="st43" d="M77.2,48.4c0.1-0.6,0.7-0.8,1.1-1.1c3.8-3.2,5.2-7.4,5-12.2c-0.1-1.1-0.5-2.1-0.5-3.2c0.6,0.6,1.2,1.2,1.5,2
		c0.5,4.3-0.3,8.4-3.1,11.9c-0.5,0.5-0.9,1-1.4,1.5c-0.3,0.3-0.5,0.5-0.4,0.9C78.7,48.5,78,48.4,77.2,48.4z"/>
	<path class="st44" d="M91.7,61.8c0.5-0.8,1.2-1.5,1.7-2.3c0.7,0.7,1.3,1.6,1.8,2.4c0.5,0.8,1.1,1.6,1.6,2.3c-0.3,1-0.6,2.1-1.2,3
		c-0.4,0.1-0.6-0.2-0.8-0.5c-1.2-1.5-2.2-3.2-3.2-4.8C91.6,61.9,91.6,61.8,91.7,61.8z"/>
	<path class="st45" d="M84.1,63.8c0.2,0.2,0.4,0.3,0.5,0.5c1.3,1.9,2.6,3.8,3.9,5.7c-0.1,0.5-0.3,0.9-0.9,0.8
		c-0.3,0.1-0.5,0.3-0.8,0.4c-0.4,0.1-0.5-0.2-0.7-0.4c-1.2-1.4-2.1-3.1-3.2-4.5c-0.2-0.2-0.3-0.5-0.1-0.7
		C83.3,65,83.8,64.4,84.1,63.8z"/>
	<path class="st46" d="M79.6,48.3c-0.8-0.1-0.5-0.4-0.2-0.7c1.3-1.2,2.4-2.5,3.2-4.1c1.1-2.1,1.7-4.3,1.6-6.7c0-1-0.2-2,0.2-2.9
		c0.5,0.6,1,1.2,1.3,1.9c-0.3,1.5-0.2,3.2-0.6,4.7c-0.7,2.6-1.9,4.9-3.7,6.9c-0.3,0.4-0.5,0.6-1,0.7C80.1,48.2,79.8,48.2,79.6,48.3z
		"/>
	<path class="st47" d="M46.7,42.7c-0.6,0.3-1.2,0.5-1.8,0.8c-2.5-1.8-5-3.7-7.4-5.6c-0.3-0.2-0.8-0.5-0.4-1c0.2-0.1,0.5-0.1,0.6-0.2
		c0.4,0,0.7,0,1.2,0c0.5,0.1,1,0.1,1.4,0.4c0.1,0.5,0.5,0.7,0.8,1c1.6,1.2,3.2,2.3,4.8,3.6C46.3,42,46.7,42.2,46.7,42.7z"/>
	<path class="st15" d="M63.6,46c-0.6-0.9-1.5-1.5-2.2-2.4c-1.5-2-2.3-4.2-2.3-6.7c0.1-5.4,3.5-10,9.1-11.1
		c5.5-1.1,10.7,2.7,12.1,7.8c1.6,6.2-2.2,12.3-8.1,13.8c-0.5,0.1-0.8,0.5-1.4,0.4c-0.3,0-0.6,0-0.9-0.2c1.5-0.4,3.2-0.5,4.6-1.4
		c3.3-1.8,5.3-4.5,5.8-8.3c0.6-4.6-1.2-8.2-5-10.6c-2.8-1.8-5.9-2-9.1-0.6c-3.9,1.6-6.1,4.6-6.6,8.7c-0.5,3.8,0.7,7.1,3.8,9.7
		c0.5,0.5,1.3,0.7,1.5,1.4C64.4,46.3,64,46.3,63.6,46z"/>
	<path class="st48" d="M80.4,48.2c3-3.2,4.9-6.8,4.9-11.2c0-0.5,0.1-0.9,0.5-1.2c0.5,0.5,0.6,1.3,1,2c0.3,0.6-0.1,1.3-0.2,1.9
		c-0.5,2.7-1.5,5-3.1,7.3c-0.2,0.3-0.5,0.6-0.8,0.8C81.9,48.1,81.1,48.2,80.4,48.2z"/>
	<path class="st5" d="M64.8,88.5c0,0.5,0.4,0.9,0.6,1.4c1,1.4,2,2.9,2.9,4.3c0.9,1.4,2.3,2.3,3.6,3.3c0.4,0.3,0.7,0.5,0.9,0.9
		c-0.4,0.1-0.7,0.3-1.1,0.4c-0.9-1.1-2.2-1.8-3.2-2.5c-0.8-0.5-1.2-1.4-1.7-2.1c-1.2-1.6-2.3-3.3-3.4-5c-0.2-0.3-0.4-0.6-0.4-1
		C63.6,88.2,64.2,88.3,64.8,88.5z"/>
	<path class="st48" d="M17.5,51.4c1.8,1.1,3.4,2.5,5,3.8c3.3,2.5,6.7,5,10,7.6c0.2,0.2,0.4,0.2,0.6,0.2c0,0.4,0,0.7,0,1.1
		c-1.2-0.4-1.9-1.3-2.9-1.9c-3.5-2.6-7-5.2-10.5-7.9c-0.9-0.7-1.8-1.4-2.7-2.1C17.2,51.8,17.3,51.6,17.5,51.4z"/>
	<path class="st49" d="M91.7,61.8c1.2,1.4,2.1,3.1,3.2,4.6c0.3,0.4,0.5,0.6,0.8,0.8c-0.3,0.9-0.7,1.6-1.2,2.4
		c-0.4,0-0.5-0.3-0.6-0.5c-1.3-1.6-2.3-3.4-3.5-5c-0.2-0.2-0.4-0.5-0.2-0.7C90.7,62.7,91.3,62.2,91.7,61.8z"/>
	<path class="st3" d="M15.3,61.8c0-0.5-0.1-0.9,0.6-0.4c5.9,4.5,11.8,8.9,17.7,13.4c0.9,0.6,1.8,1.3,2.6,2c0.3,0.2,0.5,0.4,0.9,0.4
		c0.4,0.4,0.6,0.7,0.8,1.3c-0.5,0.1-0.9-0.3-1.3-0.5c-4.7-3.5-9.4-7.1-14-10.6c-2.1-1.5-4.1-3.1-6.1-4.7
		C16.1,62.2,15.6,62,15.3,61.8z"/>
	<path class="st50" d="M38.3,48.6c-1.2-0.5-2.2-1.5-3.2-2.3c-2.3-1.7-4.6-3.5-6.9-5.2c-0.4-0.3-0.7-0.6-1-1.1
		c0.1-0.5,0.4-0.7,0.9-0.5c3.7,2.8,7.3,5.6,11,8.4C38.8,48.2,38.5,48.4,38.3,48.6z"/>
	<path class="st51" d="M36.9,50.4c-1.1-0.4-1.9-1.2-2.8-1.9c-2.8-2.1-5.5-4.2-8.3-6.3c-0.3-0.2-0.5-0.5-1-0.5
		c-0.1-0.5,0.3-0.5,0.5-0.8c0.2-0.1,0.4-0.2,0.5-0.1c1.7,1.4,3.4,2.7,5.2,4.1c1.9,1.4,3.9,3,5.8,4.4c0.2,0.1,0.4,0.2,0.5,0.3
		C37.3,50,37.1,50.1,36.9,50.4z"/>
	<path class="st52" d="M48.2,26.5c0.8-0.5,0.9-1.4,1.4-2.2c1.4-2.3,3.1-4.3,5-6.1c0.3-0.3,0.6-0.4,0.2-0.8c0.7,0,1.4,0.1,2.1,0.3
		c0.3,0.5-0.2,0.6-0.5,0.9c-2.3,1.9-4.2,4.1-5.8,6.7c-0.4,0.5-0.5,1.3-1.1,1.6c-0.1,0-0.3,0.1-0.4,0c-0.3-0.1-0.6-0.1-0.9-0.2
		C48.3,26.7,48.1,26.6,48.2,26.5z"/>
	<path class="st53" d="M90.3,46.7c-0.1,0.7,0.2,1.4,0.6,1.9c0.7,0.9,1.4,1.9,2,2.9c0.2,0.3,0.4,0.5,0.7,0.3
		c-0.1,1.3-0.4,2.6-0.7,3.9c-0.4,0.1-0.5-0.2-0.7-0.5c-0.9-1.3-1.8-2.5-2.6-3.8C89.8,49.9,90,48.2,90.3,46.7z"/>
	<path class="st54" d="M37.1,37.1c0.3,0.8,1.1,1.1,1.7,1.5c1.9,1.5,3.9,3,5.9,4.4c0.2,0.1,0.3,0.3,0.3,0.5c-0.3,0.3-0.6,0.5-1,0.5
		c-1.4-0.6-2.3-1.7-3.5-2.5c-1.6-1.1-3.2-2.3-4.7-3.5c-0.4-0.3-0.8-0.5-0.5-1C35.9,36.7,36.4,36.7,37.1,37.1z"/>
	<path class="st55" d="M32.8,37.4c3.1,2.3,6.1,4.7,9.2,7c0.3,0.2,0.5,0.4,0.8,0.4c-0.3,0.3-0.6,0.5-1,0.7c-1.4-0.6-2.5-1.7-3.8-2.6
		c-2.1-1.5-4.1-3.2-6.1-4.7c-0.2-0.2-0.4-0.2-0.6-0.2c0-0.4,0.3-0.4,0.5-0.5C32.1,37.4,32.5,37.3,32.8,37.4z"/>
	<path class="st56" d="M74.5,87.8c-0.4,0-0.8,0.1-1.2-0.2c-1.3-1.6-2.3-3.3-3.5-5c-0.3-0.4-0.5-0.6-0.7-1c0.6-0.3,1.3-0.5,2-0.5
		c0.5-0.2,0.7,0.3,0.9,0.5c1.2,1.7,2.3,3.3,3.4,5c0.2,0.3,0.5,0.6,0.4,1c-0.2,0.3-0.6,0.1-1,0.1C74.7,87.8,74.6,87.8,74.5,87.8z"/>
	<path class="st57" d="M53.8,17.4c-1-0.2-1.6,0.4-2.2,1.1c-1.5,1.9-3,3.8-4.1,5.9c-0.3,0.5-0.3,1.4-1,1.6c-0.5,0.3-0.8,0-1.1-0.3
		c-0.1-0.7,0.4-1.4,0.6-1.9c1-1.9,2.3-3.7,3.7-5.4c0.2-0.2,0.4-0.4,0.5-0.6c-0.3-0.3-0.6-0.1-0.9-0.2c-0.1,0-0.3-0.1-0.4-0.2
		c0.5-0.4,1-0.1,1.4-0.2C51.5,17.4,52.7,17.1,53.8,17.4z"/>
	<path class="st31" d="M80.5,94.5c-0.5-0.7-1-1.2-1.9-0.6c-0.4,0.2-0.7,0.1-0.9-0.2c-1.1-1.8-2.4-3.4-3.4-5.2
		c0.5-0.1,0.9-0.3,1.4-0.2c0.5-0.3,0.9,0.1,1.1,0.5c0.8,1.2,1.6,2.3,2.4,3.5c0.3,0.4,0.5,0.8,1.1,0.6c0.2,0,0.4-0.1,0.6,0
		c0.1,0,0.1,0,0.2,0c0.5,0,0.8,0.1,0.9,0.6C81.4,93.8,81.1,94.3,80.5,94.5z"/>
	<path class="st58" d="M91.5,84.4c-0.4,0.6-0.9,1.2-1.4,1.7c-0.3,0.3-0.5,0-0.6-0.2c-1.2-1.4-2.1-3.1-3.2-4.6
		c-0.1-0.1-0.1-0.3,0-0.5c0.7-0.4,1.5-0.7,2.3-1.1C89.5,81.4,90.7,82.7,91.5,84.4z"/>
	<path class="st59" d="M70.7,88.8c1.1-0.2,1.7,0.4,2.3,1.3c0.9,1.4,1.8,2.7,2.7,4.1c0.3,0.4,0.5,0.6,0.9,0.5c1.1-0.3,1.5,0.4,2,1.2
		c-0.4,0.3-0.6,0.5-1.1,0.5c-0.6,0.3-0.9-0.3-1.4-0.5c-0.1,0-0.1-0.1-0.2-0.1c-0.2-0.2-0.5-0.4-0.7-0.4c-0.3-0.1-0.5-0.1-0.7-0.2
		c-0.7-0.5-1-1.2-1.4-1.8c-0.9-1.2-1.6-2.4-2.4-3.6c-0.2-0.3-0.5-0.5-0.2-0.9C70.6,88.8,70.6,88.8,70.7,88.8z"/>
	<path class="st60" d="M49.7,26.8c0.8-1.2,1.4-2.4,2.3-3.6c1.4-1.9,3-3.4,4.7-4.9c0.2-0.2,0.5-0.3,0.5-0.6c0.6,0,1.4,0.1,2,0.4
		c-1.1,0.5-2,1.4-2.9,2.1c-2.3,2-4,4.3-5.3,7c-0.3,0.1-0.4,0.1-0.5,0.1C50,27.2,49.7,27.3,49.7,26.8z"/>
	<path class="st20" d="M61.3,94c0.6-0.2,0.2-0.5,0.1-0.7c-1.5-2.3-3.1-4.5-4.7-6.8c-0.2-0.3-0.5-0.5-0.5-1c0.7,0.4,1.4,0.7,2.1,1
		c1.4,2.4,3.2,4.7,4.7,7c0.1,0.1,0.2,0.2,0.2,0.3c0.1,0.3,0.5,0.5,0.3,0.7c-0.2,0.3-0.5,0-0.7-0.1C62.3,94.3,61.7,94.3,61.3,94z"/>
	<path class="st60" d="M80.9,93c-0.2,0.1-0.4,0.1-0.5,0.2c-0.5-0.3-0.7-0.8-1-1.3c-0.8-1.4-1.8-2.6-2.7-3.8c-0.6-0.5-1.4,0-2.1-0.3
		c0.4,0,0.7,0,1.2,0c-0.1-0.5-0.5-0.9-0.7-1.3c-1.1-1.6-2.3-3.2-3.3-4.9c-0.2-0.3-0.3-0.5-0.6-0.5c0.5-0.2,1-0.4,1.4-0.5
		c2.3,3.3,4.5,6.6,6.8,9.9C79.7,91.4,80.3,92.2,80.9,93z"/>
	<path class="st42" d="M69.1,81.6c0.6,0.1,0.8,0.7,1.1,1.2c1,1.4,1.9,2.7,2.9,4.1c0.2,0.2,0.3,0.5,0.3,0.7c-1-0.1-1.9-0.3-2.8-0.7
		c-1.1-1.4-2-2.8-3-4.2c-0.1-0.2-0.3-0.4-0.2-0.6C67.9,81.7,68.6,81.6,69.1,81.6z"/>
	<path class="st61" d="M82.6,47.7c0.7-1.4,1.7-2.6,2.4-4.1c0.8-1.9,1.2-4,1.6-5.9c0.5,1,0.9,2,0.9,3.2c0,1.2-0.6,2.2-1,3.2
		c-0.3,0.8-0.7,1.5-1.1,2.3C84.6,47,83.6,47.4,82.6,47.7z"/>
	<path class="st62" d="M90.3,63.3c1.1,1.7,2.3,3.3,3.4,5c0.3,0.5,0.6,0.8,0.9,1.3c-0.2,0.5-0.5,1-0.8,1.4c-0.7-0.5-1-1.4-1.5-2
		c-1.1-1.6-2.3-3.2-3.2-4.9C89.6,64.1,89.8,63.6,90.3,63.3z"/>
	<path class="st63" d="M87.7,70.8c0.5-0.1,0.6-0.5,0.9-0.8c0.9,1.3,1.7,2.5,2.6,3.8c0.1,0.2,0.2,0.4,0.5,0.5c-0.5,0.6-1,1.3-1.5,1.8
		c-0.4,0.1-0.5-0.1-0.6-0.3c-0.7-1.1-1.5-2.2-2.3-3.3c-0.1-0.2-0.2-0.4-0.1-0.5C87.2,71.4,87.6,71.2,87.7,70.8z"/>
	<path class="st58" d="M82.6,75.3c0.6-0.5,1.2-0.9,1.8-1.4c0.1,0,0.3,0.1,0.3,0.2c0.9,1.3,1.8,2.6,2.7,3.9c0.1,0.1,0.1,0.2,0,0.4
		c-0.5,0.5-1.2,1-1.8,1.4c-0.2,0-0.3-0.1-0.4-0.2c-0.9-1.2-1.7-2.3-2.5-3.6C82.6,75.7,82.5,75.5,82.6,75.3z"/>
	<path class="st58" d="M78.9,70.1c0.5-0.6,1.2-1.2,1.7-1.8c0.6,0.5,1,1.2,1.4,1.8c0.6,0.9,1.2,1.8,1.8,2.6c-0.8,0.5-1.7,0.7-2.6,0.9
		h-0.1c-1.1-1-1.8-2.1-2.3-3.4C78.8,70.2,78.9,70.1,78.9,70.1z"/>
	<path class="st44" d="M88.2,55.9c0.3-0.9,0.6-1.8,0.9-2.6c0.5,0,0.7,0.5,1,0.8c0.8,1.1,1.4,2.3,2.3,3.2c-0.3,0.9-0.6,1.8-1.1,2.6
		c-0.3,0.2-0.5,0-0.5-0.2C89.9,58.5,89,57.2,88.2,55.9z"/>
	<path class="st20" d="M58.3,92.8c0.9,0.5,1.9,0.7,2.8,1.3c0,0.5,0.4,0.6,0.6,0.9c2,1.4,4,3,5.9,4.4c0.2,0.1,0.3,0.3,0.3,0.5
		c-0.5,0.1-0.9,0.3-1.4,0.2c-0.9-1.1-2.1-1.8-3.2-2.6c-1.9-1.4-3.9-3-5.8-4.4c-0.2-0.1-0.3-0.3-0.3-0.5C57.7,92.5,58,92.6,58.3,92.8
		z"/>
	<path class="st36" d="M82.8,82c0.5-0.1,0.9-0.3,1.4-0.4c1,2,2.5,3.7,3.6,5.6c0.2,0.4,0.6,0.4,0.9,0.5c-0.2,0.3-0.4,0.5-0.6,0.7
		c-0.9,0.7-1.1,0.7-1.7-0.3c-1.2-1.7-2.3-3.4-3.5-5.1C82.6,82.7,82.3,82.4,82.8,82z"/>
	<path class="st21" d="M46.7,42.7c-1.4-1.4-3.2-2.4-4.8-3.7c-0.5-0.4-1-0.7-1.4-1.1c-0.2-0.1-0.4-0.3-0.1-0.5
		c0.1-0.1,0.2-0.2,0.4-0.2c0.5-0.1,0.9,0.1,1.4,0.2c0.5,0.2,1.1,0.2,1.4,0.5c0.9,1,2.1,1.7,3.1,2.5c0.4,0.3,0.8,0.6,1.2,0.9
		c0.2,0.2,0.5,0.4,0.3,0.7C47.6,42.4,47.1,42.6,46.7,42.7z"/>
	<path class="st51" d="M82.8,82c-0.3,0.3-0.1,0.5,0.1,0.8c1.2,1.7,2.4,3.4,3.5,5.1c0.5,0.7,0.9,1,1.6,0.5c-0.2,0.3-0.5,0.5-0.7,0.7
		c-0.1,0-0.2,0-0.3,0c-1,0.8-1.4,0.1-1.9-0.6c-1.2-1.8-2.4-3.6-3.6-5.3c-0.2-0.3-0.4-0.5-0.4-0.8c0.1-0.2,0.2-0.3,0.4-0.2
		C82,82.1,82.3,82,82.8,82z"/>
	<path class="st48" d="M74.8,94.9c0.3,0.1,0.5,0.1,0.7,0.2c0.3,0.2,0.5,0.4,0.7,0.5c0.3,0.2,0.5,0.5,0.8,0.6
		c0.2,0.2,0.1,0.3-0.1,0.4c-0.2,0.1-0.3,0.3-0.5,0.2c-0.5-0.4-1.1-0.7-1.5-1.1c-0.2-0.1-0.3-0.3-0.5-0.3c-1.8,0-2.3-1.4-3.2-2.6
		c-0.7-1.1-1.4-2.1-2.2-3.2c-0.2-0.3-0.4-0.5-0.5-0.8c0.5,0,0.9,0,1.4,0c1,1.2,1.8,2.5,2.6,3.8c0.5,0.6,0.9,1.3,1.4,1.9
		C74.1,94.8,74.3,95,74.8,94.9z"/>
	<path class="st64" d="M95.5,55.9c0.6-1.4,1.4-2.8,2.1-4.3c0.5,2.6,0.6,5,0.4,7.5c-0.3,0.2-0.5,0-0.6-0.2c-0.7-0.8-1.3-1.7-1.8-2.6
		C95.4,56.3,95.4,56.1,95.5,55.9z"/>
	<path class="st65" d="M83.9,72.7c-0.1-0.1-0.3-0.1-0.4-0.2c-1-1.4-2-2.8-2.8-4.2c0.4-0.5,0.8-0.9,1.2-1.4c0.8,0.6,1.2,1.5,1.7,2.3
		c0.6,0.9,1.4,1.8,1.8,2.9C85,72.4,84.4,72.6,83.9,72.7z"/>
	<path class="st53" d="M95.5,55.9c0.7,1.1,1.3,2.3,2.4,3.2c-0.1,1.1-0.3,2.1-0.5,3.2c-0.3,0.1-0.5-0.2-0.6-0.4
		c-0.9-1.1-1.6-2.3-2.4-3.5c-0.1-0.1-0.1-0.2,0-0.4C94.7,57.3,95.1,56.6,95.5,55.9z"/>
	<path class="st66" d="M85.4,72c-1.3-1.6-2.4-3.3-3.5-5.1c0.4-0.5,0.7-0.9,1.1-1.4c0,0.5,0.5,0.9,0.7,1.3c0.9,1.3,1.7,2.6,2.6,3.9
		c0.2,0.2,0.3,0.5,0.5,0.5C86.4,71.6,85.9,71.8,85.4,72z"/>
	<path class="st65" d="M87.4,78.3c-1-1.4-2-2.9-3-4.3c0.5-0.5,1-0.9,1.5-1.3c1,1.4,2.1,2.8,2.9,4.4C88.4,77.6,87.9,78,87.4,78.3z"/>
	<path class="st67" d="M91.5,84.4c-1.1-1.4-2.3-2.8-3-4.5c0.5-0.3,1.1-0.5,1.5-0.8c0.9,1.2,1.9,2.4,2.5,3.8
		C92.3,83.4,92,83.9,91.5,84.4z"/>
	<path class="st68" d="M94.3,58.1c0.8,1.2,1.6,2.3,2.4,3.5c0.2,0.3,0.5,0.5,0.6,0.7c-0.2,0.6-0.4,1.3-0.5,1.9
		c-0.2-0.1-0.4-0.1-0.5-0.3c-1.1-1.4-2.1-3-3.1-4.5C93.7,59,94,58.5,94.3,58.1z"/>
	<path class="st69" d="M48,42.1c-0.4-0.8-1.3-1.2-1.9-1.7c-0.7-0.6-1.6-1.3-2.4-1.8c-0.2-0.1-0.3-0.3-0.3-0.5c0.3-0.1,0.5,0,0.7,0
		c0.7,0.3,1.4,0.5,2.2,0.7c0.5,0.3,1,0.4,1.5,0.6c0.4,0.2,0.7,0.3,1,0.5c0.5,0.4,1.2,0.5,1.5,1c0.2,0.1,0.4,0.2,0.5,0.4
		C50,41.6,49,41.9,48,42.1z"/>
	<path class="st70" d="M88.7,87.7c-0.5,0.2-0.7,0.1-1-0.3c-1.1-1.7-2.3-3.3-3.3-5c-0.2-0.3-0.4-0.5-0.2-0.7c0.4-0.1,0.7-0.3,1.1-0.4
		c1,1.4,1.9,2.7,2.9,4.1c0.4,0.5,0.7,1.1,1.2,1.6C89.2,87.3,88.9,87.6,88.7,87.7z"/>
	<path class="st49" d="M87,58.8c0.3-0.6,0.5-1.3,0.9-2c0.6,0.4,0.9,1,1.3,1.5c0.5,0.8,1.2,1.7,1.7,2.5c-0.1,0.6-0.5,1.2-0.9,1.7
		c-0.3,0.2-0.5,0-0.5-0.2c-0.8-1.1-1.6-2.3-2.3-3.4C86.9,59,86.9,58.9,87,58.8z"/>
	<path class="st68" d="M92.3,57.3c-0.6,0-0.7-0.5-1-0.9c-0.8-1-1.4-2.3-2.3-3.2c0.2-0.6,0.4-1.3,0.5-1.9c1,0.8,1.5,2,2.3,3
		c0.4,0.5,0.5,0.9,1,1.3C92.7,56.2,92.5,56.8,92.3,57.3z"/>
	<path class="st71" d="M67.4,81.9c1,1.4,2,2.9,2.9,4.2c0.1,0.2,0.2,0.5,0.3,0.6c-1.1-0.3-2.1-0.7-3-1.4c-0.5-0.8-1.1-1.5-1.5-2.3
		c-0.2-0.3-0.5-0.6-0.2-1C66.3,82,66.9,81.9,67.4,81.9z"/>
	<path class="st72" d="M89.3,87c-0.3,0-0.5-0.2-0.5-0.4c-1.1-1.6-2.3-3.3-3.3-5c-0.1-0.1-0.1-0.3-0.1-0.5c0.4-0.1,0.7-0.3,1.1-0.4
		c1.1,1.6,2.3,3.3,3.3,5c0.1,0.2,0.3,0.3,0.5,0.3C89.9,86.5,89.5,86.8,89.3,87z"/>
	<path class="st66" d="M88.7,77.1c-1.1-1.3-1.8-2.7-2.8-4c-0.1-0.1,0-0.3-0.1-0.5c0.4-0.4,0.7-0.7,1.1-1c0.9,1.4,1.8,3,3.1,4.2
		C89.6,76.3,89.3,76.7,88.7,77.1z"/>
	<path class="st63" d="M91.5,78.2c0.7-0.5,1.4-0.9,2.1-1.4c0.6,0.5,0.8,1.4,1.6,1.8c-0.4,0.9-0.9,1.8-1.4,2.6
		c-0.3,0.2-0.5,0-0.5-0.2c-0.6-0.8-1.2-1.6-1.7-2.5C91.4,78.4,91.4,78.3,91.5,78.2z"/>
	<path class="st73" d="M87,58.8c0.8,1.1,1.5,2.2,2.3,3.3c0.2,0.3,0.3,0.5,0.6,0.5c-0.2,0.5-0.5,1-0.9,1.4c-0.1,0-0.2,0-0.2,0
		c-0.9-1.3-1.9-2.4-2.6-3.8C86.5,59.7,86.8,59.2,87,58.8z"/>
	<path class="st70" d="M84.8,80.2c-0.4,0.5-1,0.6-1.4,0.9c-1.2-1.2-1.9-2.6-2.9-4c-0.1-0.1-0.1-0.3,0.1-0.4c0.4-0.3,0.8-0.5,1.2-0.8
		c0.9,0.9,1.4,2.1,2.3,3.1C84.2,79.4,84.6,79.8,84.8,80.2z"/>
	<path class="st74" d="M80.5,76.7c0.7,1.1,1.4,2.2,2.2,3.2c0.3,0.4,0.5,0.6,0.6,1.1c-0.3,0.3-0.6,0.5-1,0.5
		c-0.3,0.1-0.5-0.1-0.6-0.3c-0.9-1.1-1.6-2.3-2.4-3.4c-0.1-0.1-0.1-0.3,0-0.4C79.7,77.2,80.1,77,80.5,76.7z"/>
	<path class="st75" d="M91.5,78.2c0.5,0.9,1.2,1.7,1.7,2.6c0.1,0.2,0.3,0.4,0.5,0.5c-0.4,0.5-0.7,1.1-1.1,1.5
		c-0.9-1.2-1.9-2.3-2.5-3.8C90.5,78.8,91,78.5,91.5,78.2z"/>
	<path class="st76" d="M79.6,73.9c-1.1,0.3-2.1,0.4-3.2,0.3c-0.3-0.5-0.7-0.8-0.7-1.4c0.7-0.5,1.4-1.2,2.1-1.7
		C78.7,71.9,79.4,72.8,79.6,73.9z"/>
	<path class="st51" d="M79.3,77.5c1,1.4,1.7,3,3.1,4.1c-0.2,0.3-0.6,0.2-0.7,0.5c-0.1,0.1-0.3,0.1-0.4,0.2c-1.3-1.3-2.1-2.8-3-4.2
		C78.6,77.9,78.9,77.7,79.3,77.5z"/>
	<path class="st77" d="M95.1,78.7c-0.2,0.1-0.4,0.3-0.5,0c-0.4-0.6-0.9-1.1-1.1-1.8c1.1-0.8,2.2-1.6,3.2-2.4
		C96.5,76,95.9,77.3,95.1,78.7z"/>
	<path class="st78" d="M84.8,80.2c-1.3-1.3-2.3-2.7-3.1-4.3c0.3-0.2,0.6-0.5,0.9-0.6c0.9,1.5,2,2.9,3,4.4
		C85.3,79.9,85,80.1,84.8,80.2z"/>
	<path class="st79" d="M79.6,73.9C79,73,78.5,72,77.8,71.1c0.4-0.4,0.7-0.7,1.1-1c0.6,1.3,1.4,2.4,2.3,3.5
		C80.7,73.8,80.2,74,79.6,73.9z"/>
	<path class="st80" d="M65.9,82.2c0.2,0.9,0.8,1.4,1.3,2.3c0.2,0.4,0.6,0.6,0.5,1.2c-1.5-0.7-2.9-1.9-4.2-3.2
		C64.2,82.3,65.1,82.2,65.9,82.2z"/>
	<path class="st81" d="M90.8,60.8c-0.2,0-0.4-0.1-0.5-0.3c-0.8-1.3-1.7-2.5-2.5-3.8c0-0.4,0.2-0.6,0.4-0.9c1.1,0.9,1.6,2.2,2.4,3.3
		c0.2,0.3,0.3,0.6,0.6,0.7C91.3,60.3,91,60.6,90.8,60.8z"/>
	<path class="st82" d="M76.6,88c0.2,0,0.4,0.1,0.5,0.3c1.1,1.6,2.3,3.2,3.2,4.8c-0.6,0.4-0.9-0.1-1.2-0.5c-0.9-1.3-1.8-2.6-2.6-3.9
		c-0.3-0.4-0.5-0.6-0.9-0.5C75.9,88,76.3,88,76.6,88z"/>
	<path class="st83" d="M85.4,46.4c0-1.1,0.8-1.9,1.2-3c0.3-0.8,0.6-1.6,1-2.4C87.8,43.1,87.2,45,85.4,46.4z"/>
	<path class="st84" d="M74.8,94.9c-0.5,0.3-0.6,0.3-0.8-0.1c-1.3-1.8-2.4-3.6-3.7-5.4c-0.1-0.2-0.2-0.4-0.2-0.5c0.2,0,0.4,0,0.5,0
		c0,0.5,0.5,0.8,0.7,1.2c1,1.4,2,2.9,3,4.3C74.3,94.5,74.5,94.7,74.8,94.9z"/>
	<path class="st85" d="M75.8,72.8c0.2,0.5,0.7,0.8,0.7,1.4c-0.7,0.1-1.4,0-2.3-0.2C74.7,73.5,75.2,73.3,75.8,72.8z"/>
	<path class="st82" d="M81.9,93.6c-0.2-0.4-0.5-0.5-0.9-0.6c1-0.7,1.2-0.7,1.8,0.1C82.5,93.2,82.2,93.4,81.9,93.6z"/>
	<path class="st84" d="M76.8,96.6c0.1-0.5-0.6-0.5-0.7-1c0.5,0.1,0.8,0.7,1.4,0.7C77.3,96.4,77.1,96.6,76.8,96.6z"/>
	<path class="st86" d="M15.3,70.2c0.1-0.1,0.1-0.3,0.2-0.4c0.3,0.4,0.2,0.7,0.2,1.1C15.5,70.8,15.4,70.5,15.3,70.2z"/>
	<path class="st38" d="M42,74.6c0.3,0.4,0.1,0.7,0.1,1.1C41.9,75.3,41.9,75,42,74.6z"/>
	<path class="st14" d="M33.4,66.3c-0.3-0.4-0.1-0.7-0.1-1.1C33.4,65.5,33.4,65.9,33.4,66.3z"/>
	<path class="st47" d="M31.8,37.8c-0.2,0-0.4,0-0.5,0.2c-0.5,0.2-1.1,0.4-1.5,0.5c-0.4-0.5-0.5-1-0.4-1.4c0.2-3.2,0.5-6.4,1.2-9.5
		c0.4-1.5,0.9-3,1.3-4.5c0.9-0.6,1.8-1.2,2.8-1.6c0.6,0.2,0.4,0.6,0.3,1c-0.4,1.1-0.8,2.2-1.1,3.2c-1,3.2-1.5,6.5-1.7,9.8
		C32,36.2,32,37,31.8,37.8z"/>
	<path class="st21" d="M31.8,23c0.3,0.3,0.2,0.5,0.1,0.8c-1.1,3.1-1.7,6.2-2,9.5c-0.1,1.7-0.4,3.5-0.2,5.2c-0.1,0.1-0.1,0.1-0.2,0.2
		c-0.5,0.2-0.9,0.4-1.4,0.5c-0.5-0.3-0.5-0.8-0.5-1.3c-0.1-2.8,0.2-5.6,0.7-8.3c0.3-1.7,0.7-3.4,1.1-5.1C30.2,23.9,31,23.4,31.8,23z
		"/>
	<path class="st66" d="M31.8,37.8c-0.5-1.4,0-2.7,0.1-4.1c0.1-2.3,0.5-4.5,1.2-6.8c0.5-1.6,1-3.2,1.6-4.8c0.1-0.3,0.3-0.6,0-0.9
		c0.8-0.5,1.7-1,2.6-1.3c0.3,0.4,0.1,0.7-0.1,1.1c-0.6,1.5-1.4,3.1-1.7,4.7c-0.1,0.3-0.3,0.5-0.5,0.6c-0.9,0.8-1.4,1.8-1.1,3.1
		c0,0.2,0,0.4-0.1,0.5c-0.6,1-0.5,2.2-0.6,3.2c-0.1,1.4-0.4,2.7-0.2,4.1C32.6,37.5,32.2,37.7,31.8,37.8z"/>
	<path class="st87" d="M21.8,44.7c-0.1,0.1-0.3,0.2-0.4,0.4c-0.5-0.2-0.5-0.6-0.5-1c-0.3-2.8-0.7-5.6-0.4-8.5c0.1-0.7,0-1.5,0.1-2.3
		c0.6-1,1.3-1.8,2.1-2.6c0.7,0.3,0.5,0.9,0.4,1.4c-0.2,1.8-0.3,3.6-0.3,5.4c0,1.6,0.2,3.3,0.3,5c0,0.3,0,0.5,0,0.8
		c-0.1,0.1-0.1,0.2-0.2,0.4C22.6,43.9,22.2,44.4,21.8,44.7z"/>
	<path class="st49" d="M25.4,41.1c-0.2,0.3-0.4,0.5-0.5,0.7c-0.3,0.2-0.5,0.4-0.8,0.5c-0.4-0.1-0.4-0.5-0.5-0.7
		c-0.3-2.5-0.3-5-0.1-7.5c0.1-1.6,0.3-3.2,0.5-4.8c0.6-0.7,1.3-1.4,1.9-1.9c0.6,0.3,0.4,0.7,0.4,1.2c-0.2,1.6-0.5,3.2-0.6,4.9
		c-0.2,2.3-0.1,4.5-0.1,6.7C25.4,40.5,25.5,40.9,25.4,41.1z"/>
	<path class="st33" d="M29.5,24.5c0.3,0.2,0.3,0.5,0.2,0.7c-0.7,2.4-1.2,5-1.4,7.5c-0.3,2.2-0.5,4.3-0.1,6.6
		c-0.1,0.1-0.1,0.3-0.2,0.4c-0.4,0-0.6,0.3-0.9,0.5c-0.1,0.1-0.3,0.1-0.4,0.2c-0.4-0.3-0.4-0.6-0.5-1c-0.2-4.5,0.3-9,1.4-13.3
		C28.3,25.4,28.9,24.8,29.5,24.5z"/>
	<path class="st88" d="M27.8,25.9c0.3,1.1-0.3,2-0.5,3c-0.2,1.7-0.5,3.3-0.6,5c-0.1,1.3-0.2,2.5-0.2,3.8c0,0.8-0.1,1.7,0.2,2.5
		c-0.3,0.3-0.7,0.4-0.9,0.7c-0.2,0.1-0.4,0.1-0.5,0.2c-0.1-0.5-0.1-1-0.1-1.4c-0.1-3.8,0.1-7.7,0.8-11.3c0.1-0.3,0.1-0.5-0.2-0.8
		C26.4,26.9,27.1,26.3,27.8,25.9z"/>
	<path class="st89" d="M20.7,33.5c0.4,0.8,0.3,1.7,0.1,2.5c-0.4,1.9,0.2,3.7,0.1,5.5c0,0.8,0.2,1.6,0.3,2.4c0,0.5,0.2,0.8,0.4,1.3
		c-0.2,0.3-0.4,0.5-0.5,0.7c-0.2,0.3-0.4,0.5-0.5,0.7c-0.1,0.1-0.1,0.1-0.2,0.2c-0.5-0.4-0.5-1-0.5-1.4c-0.5-3.1-0.6-6-0.5-9.1
		c0-0.1,0-0.3,0-0.4C19.6,34.9,20,34.1,20.7,33.5z"/>
	<path class="st90" d="M19.1,35.7c0.5,0.3,0.3,0.6,0.3,1c-0.1,3.2,0.2,6.3,0.7,9.5c0,0.2,0.1,0.4,0.2,0.5c-0.4,0.3-0.4,0.7-0.6,1.1
		c-0.1,0.1-0.3,0.3-0.4,0.4c-0.5,0-0.5-0.5-0.6-0.8c-0.5-2.5-0.8-5-0.9-7.6c0-0.5-0.1-1-0.1-1.4C18.1,37.4,18.5,36.5,19.1,35.7z"/>
	<path class="st91" d="M17.6,38.3c0.3,0.2,0.4,0.5,0.4,0.8c0,2.8,0.5,5.5,0.9,8.2c0,0.3,0.1,0.5,0.4,0.7c-0.3,0.5-0.5,0.9-0.7,1.4
		c-0.1,0.1-0.2,0.2-0.4,0.4c-0.7-1.5-0.7-3.2-1-4.8c-0.2-1.2-0.4-2.3-0.4-3.5c0-0.3-0.1-0.5-0.4-0.7C16.8,39.9,17.2,39.1,17.6,38.3z
		"/>
	<path class="st92" d="M23.9,29.4c0.5,0.9,0,1.8-0.1,2.7c-0.3,2.8-0.5,5.6-0.1,8.4c0.1,0.6-0.2,1.3,0.2,1.9c0,0.1,0,0.1,0,0.2
		c-0.3,0.3-0.5,0.5-0.9,0.7c-0.5-1.1-0.4-2.3-0.5-3.3c-0.2-1.7-0.1-3.5,0-5.3c0.1-1.3,0.5-2.5,0.1-3.8
		C23.1,30.3,23.5,29.8,23.9,29.4z"/>
	<path class="st55" d="M35.4,25.9c0-1.4,0.7-2.4,1.1-3.6c0.3-0.7,0.7-1.4,0.8-2.2c0.7-0.5,1.4-0.7,2.3-0.9c0.4,0.4,0.5,0.4,0.2,0.9
		c-0.5,0.9-0.8,1.7-1.2,2.6c-0.3,0.6-0.5,1.3-0.7,2C37.1,25.3,36.3,25.9,35.4,25.9z"/>
	<path class="st36" d="M45.6,17.7c0.5-0.3,1.1-0.2,1.5-0.2c0.5,0.1,0.5,0.2,0.3,0.6c-0.5,0.8-1.2,1.5-1.6,2.3
		c-0.7,1.3-1.5,2.5-2.1,3.9c-0.1,0.2-0.2,0.5-0.4,0.5c-0.6,0.1-1.3,0-1.7-0.5c0.9-1.4,1.6-3.2,2.5-4.6
		C44.6,19.2,45.1,18.4,45.6,17.7z"/>
	<path class="st93" d="M37.6,24.8c0.1-1.3,0.9-2.3,1.4-3.5c0.2-0.5,0.4-0.8,0.6-1.3c0.1-0.3,0.3-0.5,0-0.7c0.7-0.4,1.4-0.6,2.3-0.7
		c0.5,0.1,0.6,0.2,0.3,0.8c-0.5,1.2-1.3,2.2-1.7,3.3c-0.2,0.5-0.3,0.9-0.5,1.3C39.1,24.5,38.4,24.8,37.6,24.8z"/>
	<path class="st51" d="M43.4,24.9c0.8-2.3,2.2-4.3,3.5-6.3c0.2-0.3,0.4-0.5,0.5-0.8c0.1-0.3-0.1-0.3-0.3-0.3
		c0.5-0.4,1.2-0.1,1.7-0.2c0.1,0,0.3,0,0.4,0c0.3,0.4,0,0.5-0.2,0.7c-1.7,2-3.1,4.2-4.2,6.6c-0.1,0.3-0.3,0.5-0.5,0.6
		C43.9,25.4,43.5,25.4,43.4,24.9z"/>
	<path class="st50" d="M45.6,17.7c-0.2,1-1,1.6-1.4,2.5c-0.7,1.2-1.4,2.4-2,3.7c-0.2,0.3-0.3,0.5-0.6,0.5c-0.5,0.3-0.9,0.1-1.3-0.3
		c1-1.6,1.7-3.4,2.8-5c0.3-0.4,0.5-0.7,0.7-1.1C44.4,17.8,45.1,17.9,45.6,17.7z"/>
	<path class="st94" d="M43.9,18.1c-0.3,0.9-0.8,1.5-1.3,2.3c-0.5,1-1.1,2-1.5,3c-0.2,0.4-0.4,0.6-0.7,0.6c-0.2,0.2-0.4,0.2-0.5,0
		c-0.3-0.4,0-0.6,0.1-0.9c0.5-1.4,1.3-2.6,2-3.9c0.2-0.3,0.3-0.5-0.2-0.6C42.4,18.3,43.2,18.2,43.9,18.1z"/>
	<path class="st31" d="M50.5,41c-0.5-0.3-1.1-0.5-1.6-0.8c-0.6-1.5-0.5-3.2-0.4-4.8c0-0.5,0.1-0.8-0.2-1.2c-0.1-0.1-0.1-0.3,0-0.4
		c0.6-0.2,1.2-0.5,1.4-1.2c0.2-0.3,0.3-0.7,0.6-0.8c0.3,0.3,0.2,0.6,0.2,1c-0.5,2.5-0.7,5-0.2,7.6C50.6,40.4,50.5,40.7,50.5,41z"/>
	<path class="st95" d="M50.5,31.7c-0.2,0.3-0.3,0.6-0.5,0.9c-0.4-0.4-0.3-0.8-0.2-1.2c0.5-1.4,0.7-2.7,1.2-4.1
		c0.5,0.1,0.8,0.3,1.3,0.4C51.9,29.2,51.1,30.3,50.5,31.7z"/>
	<path class="st10" d="M69.9,26.6c5.3-0.1,9.7,4.4,9.7,10c0,5.4-4.5,10.3-10.2,10.1c-5.4-0.2-9.5-4.4-9.5-9.9
		C60,31.1,64.2,26.7,69.9,26.6z"/>
	<path class="st96" d="M45.4,25.6c0.4,0.1,0.7,0.3,1.1,0.4c0.1,0.2,0.2,0.2,0.4,0.2c0.3,0.3,0.1,0.6,0,0.9c-0.5,2.1-1.2,4.1-1.8,6.1
		c-0.1,0.5-0.3,0.9-0.7,1.2c-0.6,0.2-1.2,0.2-1.8,0c-0.3-0.3-0.2-0.6-0.1-0.9c0.6-2.3,1.4-4.6,2-6.9c0.1-0.4,0.2-0.7,0.5-0.9
		C45.2,25.5,45.3,25.5,45.4,25.6z"/>
	<path class="st97" d="M44.4,34.1c0.8-1.8,1.1-3.7,1.7-5.5c0.3-0.8,0.5-1.6,0.7-2.5c0.4,0,0.7,0.1,1.1,0.4c0.1,0.2,0.2,0.4,0.1,0.5
		c-0.6,2.3-1.3,4.7-2.1,7c-0.2,0.2-0.4,0.3-0.6,0.4c-0.3,0.1-0.5,0.1-0.8,0C44.4,34.2,44.4,34.1,44.4,34.1z"/>
	<path class="st98" d="M45.8,33.9c0.5-2.5,1.4-5,2.1-7.5c0.1,0,0.3,0,0.4,0c0.1,0.1,0.1,0.1,0.2,0.2c0.2,0.3,0.2,0.5,0.1,0.7
		c-0.6,2-1.2,4.1-1.8,6c-0.1,0.3-0.2,0.5-0.4,0.6C46.2,34.1,46,34.1,45.8,33.9z"/>
	<path class="st99" d="M51,27.4c0.3,0.7-0.2,1.3-0.4,1.9c-0.2,1.2-0.8,2.2-0.7,3.3c-0.2,0.7-0.5,1.4-1.4,1.3
		c-0.2-0.2-0.2-0.5-0.1-0.7c0.5-1.9,1-3.8,1.6-5.6c0-0.1,0.1-0.2,0.2-0.3c0.1,0,0.3,0,0.4,0C50.7,27.3,50.8,27.4,51,27.4z"/>
	<path class="st0" d="M39.9,23.9c0.2,0,0.4,0,0.5,0c0.4,0.3,0.8,0.4,1.2,0.4c0.5,0.4,1.2,0.5,1.8,0.5c0.3,0.3,0.6,0.4,1.1,0.4
		c0.1,0.1,0.1,0.2,0.1,0.3c-0.7,2.8-1.5,5.5-2.3,8.3c-0.1,0.2-0.2,0.5-0.4,0.6c-0.3,0.2-0.6,0.2-1,0.2c-0.1,0-0.2,0-0.3,0
		c-0.5,0-1.1-0.1-1.6,0.1c-0.8,0.1-1.5,0.1-2.3,0c-0.7-0.3-0.9-0.9-1.4-1.4c-0.4-0.5-0.7-1.2-0.9-1.9c-0.2-0.5-0.4-0.8-0.5-1.3
		c-0.5-1.8,0.1-3.2,1.5-4.2c0.7-0.4,1.5-0.8,2.3-1.2C38.3,24.5,39.1,24.2,39.9,23.9z"/>
	<path class="st22" d="M35.3,33.1c0.4,0.5,0.7,0.9,1.1,1.4c1.1,0.2,1.1,0.2,1.1,1.4c0,0.5,0.3,0.8,0.3,1.3c-0.3,0-0.5,0-0.7,0
		c-0.5,0-1.2,0-1.7,0c-0.1,0-0.3,0-0.4,0C34.5,36,34.6,33.8,35.3,33.1z"/>
	<path class="st55" d="M35.3,33.1c-0.5,1.3-0.3,2.6-0.4,4c-0.2,0.1-0.5,0.1-0.6,0.2c-0.5,0.1-0.7-0.1-0.7-0.5
		c0.1-1.6,0.3-3.2,0.4-4.8c0-0.2,0.2-0.5,0.3-0.6C34.7,31.9,35,32.6,35.3,33.1z"/>
	<path class="st100" d="M37.8,37.1c-0.6-0.2-0.5-0.7-0.5-1.2c0.1-0.7,0-1.3-0.9-1.4c0.9,0,1.7,0,2.6,0c0.1-0.1,0.2-0.1,0.3,0.1
		c0.1,0.9,0.1,1.7-0.3,2.6C38.6,37.1,38.1,37.1,37.8,37.1z"/>
	<path class="st101" d="M39,37.1c0-0.9,0-1.7,0.2-2.6c0.5-0.3,0.9,0,1.4-0.2c0.1,0,0.1,0,0.2,0c0.5,1.1,0.3,2.1,0,3.2
		c-0.1,0-0.3,0-0.4,0C39.9,37.2,39.4,37.4,39,37.1z"/>
	<path class="st102" d="M50.3,27.2c-0.2,1.4-0.7,2.6-1.1,3.9c-0.2,0.9-0.6,1.8-0.7,2.7c-0.1,0.1-0.1,0.1-0.2,0.2S48,34.1,48,34.1
		c-0.3,0-0.6,0-0.8-0.2c-0.2-0.3-0.1-0.5,0-0.7c0.5-2,1.2-3.9,1.7-5.8c0.1-0.3,0.2-0.5,0.4-0.6c0.1,0,0.3,0,0.4,0
		C49.8,26.9,50.1,27,50.3,27.2z"/>
	<path class="st103" d="M49.3,26.8c-0.7,2.3-1.4,4.8-2.1,7.1c-0.3,0.3-0.5,0.3-0.9,0c0.7-2.4,1.4-4.9,2.1-7.3
		C48.7,26.6,49,26.6,49.3,26.8z"/>
	<path class="st37" d="M44.4,25.4c0-0.1,0-0.1,0-0.2c1.3-2.7,2.7-5.2,4.8-7.5c0.1-0.1,0.1-0.3,0.2-0.4c0.5,0,1.1-0.2,1.3,0.1
		c0.3,0.5-0.4,0.7-0.6,1c-1.4,1.6-2.5,3.3-3.6,5.2c-0.4,0.6-0.5,1.3-0.9,1.9c-0.1,0-0.3,0-0.4,0C44.9,25.5,44.5,25.7,44.4,25.4z"/>
	<path class="st84" d="M76.1,95.6c-0.4,0-0.5-0.3-0.7-0.5C75.8,95.1,76,95.3,76.1,95.6z"/>
	<path class="st25" d="M42.5,34.1c0.6,0,1.3,0,1.9,0l0,0c0.1,0.1,0.1,0.1,0.2,0.2c0.2,1.4,0.1,2.7-0.3,4c-0.3,0-0.5-0.1-0.7-0.2
		c-0.5-0.2-0.9-0.4-1.4-0.5c-0.5-1.1-0.2-2.2-0.1-3.3C42.1,34.1,42.2,33.9,42.5,34.1z"/>
	<path class="st51" d="M42.1,34.3c0,1.1,0,2.3,0,3.3c-0.5-0.1-0.9-0.1-1.4-0.2c0-1.1,0-2.1,0-3.2c0.4,0,0.7,0,1.1-0.1
		C41.9,34.2,42,34.2,42.1,34.3z"/>
	<path class="st104" d="M44.2,38.3c-0.1-1.4,0.3-2.8,0.2-4.1c0.3,0,0.5,0,0.9,0c0.1,0,0.1-0.1,0.2-0.1c1.4-0.1,1.4-0.1,1.5,1.4
		c0,0.9,0,1.7,0,2.6c0,0.4,0,0.8-0.5,1.1C45.7,38.9,44.9,38.7,44.2,38.3z"/>
	<path class="st105" d="M46.5,39.1c0.5-1.5,0.1-3.2,0.2-4.7c0-0.2-0.2-0.3-0.4-0.3c-0.4,0-0.6,0-1,0c0.1-0.2,0.4-0.2,0.5-0.2
		c0.2,0,0.4,0,0.5,0c0.3,0,0.5,0,0.9,0c0.3,0,0.5,0,0.9,0c0.3,0.5,0.1,1.1,0.1,1.6c0,1,0,2.1,0,3.1c0,0.4,0,0.7-0.3,1.1
		C47.4,39.4,46.9,39.4,46.5,39.1z"/>
	<path class="st106" d="M47.9,39.7c0-1.4,0-2.9,0-4.3c0-0.5,0-1,0.2-1.4c0.1,0,0.3,0,0.4,0c0.5,0,0.6,0.2,0.5,0.5
		c-0.4,1.9-0.1,3.7,0,5.6C48.6,40,48.2,39.8,47.9,39.7z"/>
	<path class="st20" d="M62.8,31.9c-0.2-0.3,0-0.5,0.2-0.7c3.8-4.8,10.4-4.6,13.8-0.1c3.3,4.4,2,10.2-2.3,13.1
		c-5.1,3.5-12,0.5-13.2-5.6c-0.4-2-0.2-3.9,0.6-5.7c0.1-0.3,0.2-0.6,0.6-0.5c0.1,0.1,0.1,0.1,0.1,0.2c-0.1,0.3-0.1,0.6,0.1,0.9
		c0.1,0.3,0.4,0.6,0.3,1c-1.6,4.6,1.7,9.5,6.5,9.8c3.9,0.2,7.6-3.2,7.7-7.2c0.2-4-2.3-7.1-6.2-7.8c-2-0.4-3.7,0.3-5.3,1.4
		c-0.3,0.2-0.5,0.5-0.7,0.6C64.2,31.4,63.4,31.6,62.8,31.9z"/>
	<path class="st107" d="M62.8,31.9c0.5-0.7,1.3-0.7,2-0.7s1.1,0.4,1.4,0.9c0.8,1.4-0.3,3.2-2.1,3.2c-0.5-0.2-1.1-0.3-1.3-0.9
		c-0.1-0.3-0.3-0.6-0.4-0.9c-0.1-0.3-0.1-0.5,0-0.9c0-0.1,0-0.1,0-0.2C62.6,32.2,62.7,32,62.8,31.9z"/>
	<path class="st38" d="M42.1,34.3c-0.1,0-0.3,0-0.4,0c0.7-2.5,1.4-5,2.2-7.5c0.2-0.5,0.1-1.1,0.5-1.4c0.3,0,0.5-0.1,0.7,0.2
		c-0.8,1.8-1.1,3.7-1.7,5.5c-0.4,1-0.6,2.1-0.9,3.1C42.3,34.1,42.2,34.2,42.1,34.3z"/>
	<path class="st51" d="M40.6,34.3c-0.5,0.3-0.9,0.1-1.4,0.2c-0.1,0-0.1,0-0.2,0C39.5,34.2,40,34.4,40.6,34.3z"/>
	<path class="st3" d="M66,32c-0.3-0.5-0.8-0.6-1.3-0.9c0.9-1.3,2.3-1.7,3.7-2.1c2.9-0.6,5.3,0.4,7.1,2.6c1.9,2.3,2.3,5,1.2,7.8
		c-1.3,3.2-4.1,5-7.2,5c-4-0.1-7.2-3.4-7.2-7.3c0-1-0.3-2,0.5-2.8c0.4,0.3,0.7,0.6,1.3,0.6c0.3,0.3,0.2,0.6,0.2,1
		c-0.4,3.1,1.6,5.9,4.7,6.4c2.7,0.5,5.8-1.6,6.3-4.5c0.8-4.2-2.3-7-5.5-7c-1,0-1.9,0.4-2.8,0.8C66.8,31.9,66.5,32.1,66,32z"/>
	<path class="st10" d="M62.5,32.6c0,0.3,0,0.5,0,0.9C62.3,33.1,62.3,32.9,62.5,32.6z"/>
	<path class="st1" d="M66,32c1.3-0.8,2.5-1.4,4.1-1.4c3,0.1,5.5,2.7,5.5,5.6c0,3-1.3,5-3.8,6c-3.4,1.4-6.9-1-7.7-4.2c-0.3-1,0-2,0-3
		C66,34.7,66.6,33.8,66,32z"/>
	<path class="st4" d="M67.4,36.6c0-1.4,1.2-2.5,2.4-2.5s2.4,1.2,2.4,2.4s-1.4,2.6-2.5,2.6C68.5,39.2,67.4,38,67.4,36.6z"/>
	<path class="st108" d="M69.7,37.8c-0.6,0-1.1-0.4-1.1-1c0-0.8,0.5-1.3,1.3-1.3c0.6,0,1.2,0.5,1.2,1.1
		C71.1,37.2,70.4,37.8,69.7,37.8z"/>
</g>
</svg>
