<?xml version="1.0" encoding="utf-8"?>
<!-- Generator: Adobe Illustrator 24.1.0, SVG Export Plug-In . SVG Version: 6.00 Build 0)  -->
<svg version="1.1" id="Layer_1" xmlns="http://www.w3.org/2000/svg" xmlns:xlink="http://www.w3.org/1999/xlink" x="0px" y="0px"
	 viewBox="0 0 200 200" style="enable-background:new 0 0 200 200;" xml:space="preserve">
<style type="text/css">
	.st0{fill:#41C029;}
	.st1{fill:#FDFEFD;}
</style>
<g id="NhfVCW.tif">
	<g>
		<path class="st0" d="M11.7,102.7c0-1.9,0-3.7,0-5.6c0.3-0.1,0.2-0.4,0.2-0.6c0.4-2.3,1.1-4.5,2.3-6.5c11.4-19.7,22.7-39.4,34.2-59
			c3.8-6.5,9.7-9.9,17.2-10c22.8-0.1,45.6-0.1,68.4,0c7.6,0,13.5,3.5,17.4,10c11.5,19.7,23,39.5,34.3,59.3c3.6,6.3,3.6,13.1,0,19.5
			c-11.2,19.7-22.6,39.3-33.9,58.9c-2.1,3.7-5.1,6.3-8.8,8.3c-2.1,1.1-4.4,1.7-6.7,2.2c-24.3,0-48.7,0-73,0
			c-0.1-0.2-0.3-0.2-0.5-0.2c-6.3-1.4-11.3-4.5-14.5-10.2c-11.1-19.2-22.2-38.5-33.3-57.7c-0.9-1.5-1.8-3-2.2-4.7
			C12.2,105.2,12,103.9,11.7,102.7z M148,96.6c0-1.4-0.1-3.1-0.2-4.7c-0.1-0.9-0.2-1.8-0.4-2.8c-2.2-12.9-8.5-23.2-18.9-31.1
			c-2.9-2.2-6.8-1.7-9,1.2c-2.1,2.8-1.5,6.7,1.4,9c11.4,9,16.2,20.8,13.9,35.1c-2.5,16.2-17.2,29-33.6,29.5
			c-10.9,0.3-20.2-3.3-27.7-11.2c-7.6-8.1-10.8-17.8-9.5-28.7c1.2-10.1,6-18.3,14-24.5c3.1-2.4,3.6-6.2,1.4-9.1
			c-2.2-2.9-6.1-3.3-9.1-1c-15.6,12.6-22,28.9-18.1,48.7c5,25.7,30.3,42.5,56.2,37.7C131.3,140.3,148,120.3,148,96.6z M92.4,75.5
			c0,7.2,0,14.4,0,21.6c0,4,3.2,7.2,7.2,7.2s7.1-3.3,7.1-7.7c0-14.1,0-28.2,0-42.3c0-0.8-0.1-1.6-0.3-2.3c-1-3.5-4.3-5.7-8-5.2
			c-3.4,0.4-6,3.5-6,7.1C92.4,61.2,92.4,68.3,92.4,75.5z"/>
		<path class="st1" d="M148,96.6c0,23.7-16.7,43.7-39.7,48c-25.8,4.8-51.1-11.9-56.2-37.7c-3.9-19.7,2.5-36,18.1-48.7
			c2.9-2.4,6.9-1.9,9.1,1s1.7,6.7-1.4,9.1c-8.1,6.2-12.9,14.4-14,24.5c-1.3,11,1.9,20.7,9.5,28.7c7.5,8,16.8,11.6,27.7,11.2
			c16.4-0.5,31.1-13.3,33.6-29.5c2.2-14.4-2.5-26.1-13.9-35.1c-2.9-2.3-3.5-6.1-1.4-9c2.2-2.8,6.1-3.4,9-1.2
			c10.4,7.9,16.7,18.3,18.9,31.1c0.2,0.9,0.3,1.8,0.4,2.8C147.9,93.5,148,95.2,148,96.6z"/>
		<path class="st1" d="M92.4,75.5c0-7.2,0-14.4,0-21.5c0-3.6,2.6-6.7,6-7.1c3.7-0.5,6.9,1.7,8,5.2c0.2,0.8,0.3,1.6,0.3,2.3
			c0,14.1,0,28.2,0,42.3c0,4.4-3,7.6-7.1,7.7c-4,0-7.2-3.1-7.2-7.2C92.4,89.9,92.4,82.7,92.4,75.5z"/>
	</g>
</g>
</svg>
