<?xml version="1.0" encoding="utf-8"?>
<!-- Generator: Adobe Illustrator 21.0.0, SVG Export Plug-In . SVG Version: 6.00 Build 0)  -->
<svg version="1.1" id="Layer_1" xmlns="http://www.w3.org/2000/svg" xmlns:xlink="http://www.w3.org/1999/xlink" x="0px" y="0px"
	 viewBox="0 0 107.6 114" style="enable-background:new 0 0 107.6 114;" xml:space="preserve">
<style type="text/css">
	.st0{fill:#237EC8;}
	.st1{fill:#FDFEFE;}
	.st2{fill:#FEFEFE;}
</style>
<g id="HOCrKD.tif">
	<g>
		<path class="st0" d="M53.8,97.4c-13.4,0-26.7,0-40.1,0c-0.3,0-0.3-0.1-0.3-0.3c0-26.7,0-53.4,0-80.2c0-0.3,0.1-0.3,0.3-0.3
			c26.7,0,53.4,0,80.2,0c0.3,0,0.3,0.1,0.3,0.3c0,26.7,0,53.4,0,80.2c0,0.3-0.1,0.3-0.3,0.3C80.5,97.4,67.2,97.4,53.8,97.4z
			 M75.3,90.8c2.4,0.1,4.6-0.3,6.6-1.3c2.5-1.1,4.3-2.8,5.3-5.4c0.6-1.8,0.7-3.6,0.5-5.4c-0.3-2.2-1.1-4.2-2.7-5.8
			c-1.4-1.4-3-2.3-4.7-3.2c-1.9-1-3.9-1.7-5.8-2.7c-0.8-0.4-1.6-0.8-2.2-1.5c-0.9-1-1.1-2.2-0.8-3.4c0.3-1.2,1.2-1.8,2.4-2.1
			c2.1-0.4,3.8,0.2,5.1,1.9c0.2,0.3,0.4,0.6,0.7,0.9c0.1,0.1,0.2,0.2,0.4,0.1c1.8-1.1,3.6-2.3,5.3-3.5c0.2-0.1,0.2-0.2,0.1-0.4
			c-0.3-0.5-0.7-1-1.1-1.5c-1.3-1.7-3-2.9-5-3.6c-1.2-0.4-2.5-0.5-3.8-0.5c-1.6-0.1-3.2,0-4.8,0.6c-3,1-5.1,2.9-6.2,5.9
			c-0.6,1.5-0.5,3-0.5,4.5c0,2,0.7,3.7,1.9,5.3c1.2,1.6,2.7,2.7,4.5,3.7c1.7,0.9,3.6,1.7,5.4,2.5c1.1,0.5,2.2,1,3.1,1.7
			c2,1.4,1.9,4.7-0.7,5.9c-1.3,0.6-2.7,0.7-4.1,0.6c-1.3-0.2-2.5-0.5-3.5-1.3c-1-0.8-1.9-1.8-2.6-2.9c-0.1-0.1-0.1-0.3-0.3-0.1
			c-1.9,1.1-3.8,2.2-5.6,3.3c-0.2,0.1-0.3,0.3-0.1,0.5c1.3,2.3,3,4.1,5.3,5.4C69.7,90.2,72.4,90.9,75.3,90.8z M49.1,75.4
			c0-4.8,0-9.7,0-14.5c0-0.4,0-0.4,0.4-0.4c3.2,0,6.4,0,9.7,0c0.3,0,0.4-0.1,0.4-0.4c0-1.9-0.1-3.9-0.1-5.8c0-0.3-0.1-0.4-0.4-0.4
			c-7.8,0-15.6,0-23.4,0c-1.4,0-2.7,0-4.1,0c-0.5,0-0.5,0-0.5,0.5c-0.1,1.9,0,3.9-0.1,5.8c0,0.3,0.1,0.4,0.4,0.4c3.2,0,6.4,0,9.7,0
			c0.6,0,0.5-0.1,0.5,0.5c0,9.7,0,19.3,0,29c0,0.3,0.1,0.4,0.4,0.4c2.2,0,4.4,0,6.6,0c0.3,0,0.4-0.1,0.4-0.4
			C49.1,85.1,49.1,80.3,49.1,75.4z"/>
		<path class="st1" d="M75.3,90.8c-2.8,0.1-5.6-0.5-8.2-1.9c-2.3-1.2-4-3.1-5.3-5.4c-0.1-0.2-0.1-0.4,0.1-0.5
			c1.9-1.1,3.8-2.2,5.6-3.3c0.2-0.1,0.3,0,0.3,0.1c0.7,1.1,1.6,2.1,2.6,2.9c1,0.8,2.2,1.2,3.5,1.3c1.4,0.2,2.8,0,4.1-0.6
			c2.6-1.2,2.6-4.5,0.7-5.9c-1-0.7-2-1.2-3.1-1.7c-1.8-0.8-3.6-1.6-5.4-2.5c-1.7-0.9-3.3-2.1-4.5-3.7c-1.1-1.6-1.8-3.3-1.9-5.3
			c0-1.5-0.1-3.1,0.5-4.5c1.1-3,3.3-4.9,6.2-5.9c1.6-0.5,3.2-0.6,4.8-0.6c1.3,0.1,2.5,0.1,3.8,0.5c2.1,0.7,3.7,1.9,5,3.6
			c0.4,0.5,0.8,1,1.1,1.5c0.1,0.2,0.1,0.3-0.1,0.4c-1.7,1.2-3.5,2.4-5.3,3.5c-0.2,0.1-0.3,0.1-0.4-0.1c-0.2-0.3-0.4-0.6-0.7-0.9
			c-1.3-1.8-3-2.3-5.1-1.9c-1.2,0.2-2,0.9-2.4,2.1c-0.4,1.3-0.2,2.4,0.8,3.4c0.6,0.7,1.4,1.1,2.2,1.5c1.9,0.9,3.9,1.7,5.8,2.7
			c1.7,0.9,3.3,1.8,4.7,3.2c1.6,1.6,2.4,3.6,2.7,5.8c0.2,1.8,0.1,3.7-0.5,5.4c-0.9,2.6-2.8,4.3-5.3,5.4
			C79.8,90.4,77.6,90.8,75.3,90.8z"/>
		<path class="st2" d="M49.1,75.4c0,4.8,0,9.7,0,14.5c0,0.3-0.1,0.4-0.4,0.4c-2.2,0-4.4,0-6.6,0c-0.3,0-0.4-0.1-0.4-0.4
			c0-9.7,0-19.3,0-29c0-0.6,0.1-0.5-0.5-0.5c-3.2,0-6.4,0-9.7,0c-0.3,0-0.4-0.1-0.4-0.4c0-1.9,0-3.9,0.1-5.8c0-0.4,0-0.5,0.5-0.5
			c1.4,0,2.7,0,4.1,0c7.8,0,15.6,0,23.4,0c0.3,0,0.4,0.1,0.4,0.4c0,1.9,0,3.9,0.1,5.8c0,0.3-0.1,0.4-0.4,0.4c-3.2,0-6.4,0-9.7,0
			c-0.4,0-0.4,0-0.4,0.4C49.1,65.7,49.1,70.6,49.1,75.4z"/>
	</g>
</g>
</svg>
