<?xml version="1.0" encoding="utf-8"?>
<!-- Generator: Adobe Illustrator 21.0.0, SVG Export Plug-In . SVG Version: 6.00 Build 0)  -->
<svg version="1.1" id="Layer_1" xmlns="http://www.w3.org/2000/svg" xmlns:xlink="http://www.w3.org/1999/xlink" x="0px" y="0px"
	 viewBox="0 0 400 400" style="enable-background:new 0 0 400 400;" xml:space="preserve">
<style type="text/css">
	.st0{fill:#FFFFFF;}
	.st1{fill:#F7BB32;}
	.st2{fill:#D9498A;}
	.st3{fill:#46A9B6;}
</style>
<path class="st0" d="M165,389.4l-69.1-69.1c-5.2-5.2-5.2-13.6,0-18.8l68.5-68.5c5.2-5.2,13.6-5.2,18.8,0l69.1,69.1
	c5.2,5.2,5.2,13.6,0,18.8l-68.5,68.5C178.6,394.6,170.2,394.6,165,389.4z"/>
<path class="st0" d="M263.9,286.8L194.2,217c-5.8-5.8-5.8-15.3,0-21.1l70.2-70.2c5.8-5.8,15.3-5.8,21.1,0l69.7,69.7
	c5.8,5.8,5.8,15.3,0,21.1L285,286.8C279.2,292.5,269.7,292.5,263.9,286.8z"/>
<path class="st0" d="M165.8,172.1l-69.2-69.2c-5.8-5.8-5.8-15.3,0-21.1l69.2-69.2c5.8-5.8,15.3-5.8,21.1,0l69.2,69.2
	c5.8,5.8,5.8,15.3,0,21.1l-69.2,69.2C181.1,177.9,171.6,177.9,165.8,172.1z"/>
<g>
	<g>
		<path class="st0" d="M143.9,151.6L143.9,151.6c0.1,0,0.2,0,0.2,0.1c0,0,0,0.1-0.1,0.1h-0.1c-0.1,0-0.3,0-0.3-0.1
			C143.7,151.6,143.8,151.7,143.9,151.6"/>
		<g>
			<path class="st1" d="M124.8,294.2c-2.8,17-5.8,33.1-5.4,49.8c-8.6-8.3-17.4-16.1-25.1-24.9c-3.3-3.7-3.3-8.4-1.3-12.9
				c0.9-2.2,2.5-4,4.2-5.7c21.8-22.1,43.7-44.2,65.6-66.2c7-7.1,14.3-7.2,21.5-0.3c3.1,3,6.3,5.7,9.2,9.5c-4.6-0.8-8.8-0.9-12.9-0.5
				c-7.9,0.9-12.4,5.3-12.8,13.3c-0.3,11,3.2,20.4,11.8,27.8c3.7,3.2,6.1,3.3,10.6,0.9c2.9-1.6,5.9-3.2,8.9-4.6
				c7.5-3.6,8-3.6,15.8-0.9c0.9-0.9,0.4-1.8,0-2.6c-2.9-6.6-10.8-13.5-20.9-8.2c-4.1,2.1-8.3,1.2-12.1-0.3c-3.9-1.6-4.2-6.4-0.7-9.2
				c4-3.2,8.6-3.6,13.5-2.5c0.5,0.1,1.1,0.3,1.6,0.5c12,6.1,20.8,14.7,21.9,29.1c0.3,3.9-0.7,7.7-1.8,11.5
				c-3.6,12.5-9.5,24-16.4,34.9c-4.9,7.5-10.1,14.6-16.1,21.2c-5,5.5-11.2,9.5-18.1,12.3c-4.6,1.8-9.2,1.4-13.9,0.1
				c-9.5-2.6-16.1-8.3-20.4-17.1c-3.8-7.7-5.5-15.9-6-24.5c-0.4-8.4-0.3-16.9-0.2-25.4C125.3,297.9,125.6,296.4,124.8,294.2"/>
			<path class="st2" d="M214.6,144.5c-6.8,7-13.6,13.9-20.4,20.9c-2.5,2.6-5,5.1-7.6,7.6c-5.8,5.5-12.7,5.9-18.9,0.9
				c-1.1-0.9-2-2-3.1-3c-22.5-22.2-44.9-44.5-67.4-66.8c-0.3-0.3-0.6-0.6-0.9-0.9c-6.4-6.4-6.5-13.9-0.2-20.5
				c4.9-5.1,9.9-10,14.8-15c9.7-9.8,19.5-19.7,29.2-29.5c1-1,1.8-2.3,3.5-2.8c0.4,1.4-0.3,2.5-0.7,3.6c-2,7.2-1.4,14,2.2,20.8
				c4,7.5,9.6,13.5,16.5,18.3c5,3.6,10,7.1,15.1,10.6c3.4,2.4,6.6,4.9,9.5,8c2.2,2.4,4.1,5.1,5.2,8.7c-15.8-17.9-35.7-29-56.9-38
				c-4.5-1.9-9.2-3.6-14.7-4c1.4,1.9,3,2.2,4.3,3c8.2,4.3,15.9,9,22.6,15.5c3.7,3.7,6.7,7.7,8.9,12.5c3.9,8.3,6.6,17,10.1,25.5
				c1.6,4,3.4,7.9,6,11.4c7.5,10.4,17.9,15.2,30.5,15.4c4.1,0.1,7.8-1.6,11.6-2.7C214.2,144,214.4,144.3,214.6,144.5"/>
			<path class="st2" d="M227.8,130.2c0.8-3.1,2.3-5.8,2.9-8.9c0.9-4.6,0.6-9-0.9-13.5c-3.8-11-10.9-19-21.5-23.8
				c-8.7-4-17.7-7.3-26.2-11.8c-7.2-3.7-14.2-7.9-20.6-13.1c-7.6-6-12.2-13.9-14.5-23.2c-0.7-2.6-0.2-4.5,1.9-6.5
				c5.5-5.4,11.1-10.8,16.3-16.4c7.3-7.8,15.8-6,21.8,0c18.8,18.7,37.6,37.3,56.5,55.9c4.5,4.4,9,8.8,13.4,13.3
				c5.8,5.9,6.1,13.5,0.3,19.6c-9.2,9.6-18.7,18.9-28.1,28.4c-0.2,0.2-0.5,0.3-0.8,0.3C228.1,130.4,227.9,130.3,227.8,130.2"/>
			<path class="st2" d="M214,143.9c0.3-0.5,0.9-0.9,1.4-0.5c0.5,0.6-0.4,0.8-0.8,1.2C214.4,144.3,214.2,144,214,143.9"/>
			<path class="st2" d="M228.3,130.5c-0.3,0.4-0.4,1.3-0.9,0.9c-0.5-0.3,0-0.9,0.5-1.2C227.9,130.3,228.1,130.4,228.3,130.5"/>
			<path class="st3" d="M265.5,186c1.9,0.9,3.6,1.7,5.2,2.6c1.9,1.1,3.2,0.8,4.4-0.9c0.2-0.3,0.4-0.4,0.6-0.6
				c2.5-2.5,2.5-2.5,4.3,0.3c2.2,3.2,2.2,3.2,6.1,2.5c1.1-0.3,2.3-0.3,3.6-0.4c0.8,2-0.3,3.7-0.3,5.5c-0.2,2.2,0.4,3.6,2.6,4.3
				c1.4,0.4,2.6,1.2,3.8,1.9c0.1,1.6-1.2,2.5-2,3.2c-2.8,2.3-2.7,4.7-0.9,7.5c0.6,0.9,1.3,2,1.4,3.4c-1.1,0.9-2.6,1-3.9,1
				c-3.2,0.1-4.5,1.8-4.9,4.8c-0.1,1-0.4,2-0.7,3c-1.9,0.3-3.2-0.8-4.5-1.4c-2.2-1.2-3.7-0.8-5.2,1.2c-0.9,1.1-2,2.1-3,3.2
				c-1.7-1.4-2.2-3.2-3.2-4.8c-0.9-1.4-1.7-2.1-3.5-1.6c-1.8,0.6-3.7,0.8-5.6,1.1c-1.1-1.8-0.4-3.7-0.3-5.4c0.5-3.9,0.6-3.9-2.8-5.7
				c-0.9-0.5-1.7-0.9-2.8-1.5c0.4-1.6,1.6-2.5,2.6-3.4c3.5-3.3,3-3.1,1.1-6.5c-0.1-0.1-0.2-0.3-0.2-0.3c-1.5-3.1-1.5-3.1,1.6-3.9
				c0.7-0.2,1.4-0.5,2.1-0.5c2.1-0.2,3-1.3,3.1-3.4C264.4,189.3,264.3,187.7,265.5,186"/>
			<path class="st1" d="M232.7,283.1c1.5,0.1,2,0.9,2.6,1.4c5.4,5.4,10.9,10.7,16.3,16.1c6.1,6.2,6.3,13.5,0.6,20
				c-0.7,0.8-1.4,1.4-2,2.1c-21.2,21.4-42.4,42.8-63.7,64.2c-0.6,0.6-1.2,1.2-1.8,1.8c-7.4,7.2-16.4,6.2-22.6-2.6
				c8.6-0.8,15.4-5.1,21.9-10.2c15.8-12.6,27.4-28.6,36.6-46.4c5.1-9.9,9.1-20.2,11.1-31.2C232.4,293.2,232.7,288.3,232.7,283.1"/>
			<path class="st3" d="M289.4,232.8c6.1,3.2,11.6,6,17.1,8.8c1,0.5,1.9,1.4,2.5,2.4c2,3.2,3.8,6.4,6,9.5c1.1,1.6,0.9,2.9-0.5,4.1
				c-0.3,0.2-0.4,0.4-0.6,0.6c-7,7.4-8.1,7.8-18.3,8.3c-1.8,0.1-3.1-0.3-3.8-2c-0.1-0.2-0.2-0.3-0.3-0.3c-6-9-6-9-4-19.6
				C288.1,240.9,288.7,237.3,289.4,232.8"/>
			<path class="st3" d="M260.3,177c-6.4-2.5-12.3-5.2-18.1-7.9c-0.9-0.4-1.5-1.3-2-2.1c-1.9-3.1-3.7-6.2-5.6-9.3
				c-0.9-1.4-0.8-2.3,0.3-3.4c3.1-3,6.1-6.1,9.1-9.2c1-1,2.1-1.4,3.5-1.4c0.4,0,0.9,0.1,1.3,0c4.9-0.4,8.2,1.3,10.6,6
				c2.6,4.9,4.4,9.5,3.1,15.2C261.6,168.7,261.4,172.7,260.3,177"/>
			<path class="st3" d="M303.1,220.1c5.3-1,10.4-1.4,15.1-2.9c6.3-2,11.2,1.1,16.3,3.6c1.2,0.6,1.6,1.5,1.7,2.8
				c0,0.9,0.1,1.7,0.1,2.6c0.3,9.5-0.9,11.8-8.2,17.7c-1,0.9-2,1-3.2,0.4c-3.8-2-7.7-3.8-11.6-5.8c-0.6-0.3-1.1-0.9-1.5-1.4
				c-0.3-0.4-0.5-1-0.8-1.5C308.5,230.5,305.9,225.5,303.1,220.1"/>
			<path class="st3" d="M279.8,174.8c-3.2-5.9-6.4-11.5-9.5-17.1c-0.6-1.1-0.5-2.2-0.3-3.3c0.3-2.4,0.7-4.9,0.9-7.2
				c0.4-4.9,0.4-4.9,5.4-5.9c9.7-2,9.7-1.9,18.3,3c1.3,0.7,2,1.4,1.8,3c-0.5,3.7-0.9,7.4-1.3,11.2c-0.1,0.9-0.4,1.7-1,2.3
				C289.5,165.2,284.8,169.9,279.8,174.8"/>
			<path class="st3" d="M246.9,190.8c-6.9,1.9-13.3,3.2-19.8,3.4c-4.8,0.2-8.6-3-12.4-5.4c-0.5-0.3-0.7-1.2-0.9-1.9
				c-1.7-5.6-2.4-11.1,3.6-14.8c0.3-0.2,0.4-0.4,0.6-0.6c4.9-4.9,4.9-5.1,11.2-2.4c10.4,4.6,7.5,1.8,12.7,11.7
				C243.4,184,245,187.1,246.9,190.8"/>
			<path class="st3" d="M243.6,210.4c-5.2,5.4-9.9,10.2-14.6,15.1c-0.9,0.9-1.9,1.3-3.1,1.4c-2.7,0.3-5.4,0.6-8.1,1.2
				c-2,0.4-3-0.3-3.7-2c-1.3-2.6-2.6-5.1-4-7.7c-0.7-1.3-1-2.6-0.7-4.2c0.5-2,0.8-4,1-6c0.9-6.6,0.8-4.8,6.2-6.2
				c5.8-1.6,11-0.5,16.1,2.6C236.2,206.9,239.9,208.5,243.6,210.4"/>
			<path class="st3" d="M306.4,200.1c4.9-5.2,9.3-9.9,13.6-14.6c0.9-0.9,1.9-1.3,3.1-1.4c1.4-0.3,2.8-0.4,4.3-0.7
				c7.6-1.5,5.9-0.9,9.5,4.6c4.3,6.4,2,12.7,1.1,19.2c-0.2,1-0.8,1.4-1.7,1.6c-3.1,0.6-6.2,1.2-9.3,1.7c-1,0.2-2-0.2-2.9-0.7
				C318.4,206.5,312.7,203.5,306.4,200.1"/>
			<path class="st3" d="M270.4,237.1c2.9,5.3,6,10.8,9,16.3c0.6,1,0.9,2.1,0.6,3.3c-0.5,3.2-1.1,6.2-1.6,9.4
				c-0.3,1.9-1.4,2.8-3.1,3.2c-3,0.6-6,1.1-8.9,1.7c-1.4,0.3-2.6-0.2-3.7-0.8c-2.4-1.4-4.8-2.7-7.2-3.9c-2-0.9-2.4-2.3-2-4.3
				c0.1-0.3,0.1-0.6,0.1-0.9c0.2-6.2,2.8-11.2,7.5-15.4C264.2,243.1,267.2,240.2,270.4,237.1"/>
			<path class="st3" d="M250.1,228.8c1.6-0.2,2.1,0.7,1.9,2.1c-0.9,5.9-1.6,11.7-2.5,17.5c-0.2,1.4-0.9,2.4-1.9,3.3
				c-0.9,0.9-1.6,1.7-2.4,2.5c-4.9,5.3-5.4,5.6-11.2,1.4c-4.3-3.1-8.2-6.7-10.9-11.5c-1.3-2.2-0.9-3.7,0.9-5.3
				c1.9-1.8,3.6-3.7,5.4-5.6c0.8-0.9,1.5-1.7,2.8-1.9C238.2,230.5,244.1,229.6,250.1,228.8"/>
			<path class="st3" d="M297.1,182.2c0.9-6.6,1.8-12.5,2.6-18.5c0.2-1.1,0.7-1.9,1.4-2.6c2.5-2.5,4.9-4.9,7.3-7.3
				c0.9-0.9,1.8-1.3,3.1-0.6c6.6,3.4,11.6,8.3,14.8,15.1c0.7,1.4,0.5,2.5-0.5,3.5c-2,2.1-3.8,4.3-5.8,6.5c-0.8,0.9-1.8,1.4-3,1.5
				C310.6,180.5,304.2,181.3,297.1,182.2"/>
			<path class="st3" d="M277,135.6c-3,0.5-5.1,1-7.2,1.3c-2,0.3-3.1,1-3.2,3.2c-0.2,2.2-0.8,4.4-1.3,7.2c-1.9-1.7-2.7-3.3-3.4-4.9
				c-1.2-3.2-3.6-4.3-6.6-4.5c-0.9-0.1-1.7-0.2-2.8-0.3c0.4-2.3,2.3-3.3,3.7-4.6c2.1-2.1,3.7-5.5,6.6-5.8c2.6-0.2,4.9,2.6,7.3,4.2
				C272.1,132.5,274.1,133.8,277,135.6"/>
			<path class="st3" d="M283.7,288.1c-5.3,3.9-10.5,4.1-15.7,0.9c-4.3-2.6-7.6-6.5-11.2-10.4c4.3-1.6,7.9-2,11.8,0.4
				c3.6,2.4,7.6,4.2,11.3,6.2C281.2,286.1,282.5,286.6,283.7,288.1"/>
			<path class="st3" d="M207,183.9c-1.5,6.9,3.1,9.7,9.2,11.9c-2.6,1.4-4.9,1.5-6.8,1.9c-2.3,0.3-3.1,1.4-3.5,3.6
				c-0.4,1.9-0.1,4.1-1.9,6c-2.5-4.1-4.9-8-7.2-11.9c-0.6-0.9-0.9-1.8,0.1-2.7c3-2.9,5.7-6.1,9-8.8C206,183.5,206.4,183.8,207,183.9
				"/>
			<path class="st3" d="M335.7,214.6c1.4-1.1,2.7-0.9,3.9-0.9c2.2,0,3.4-0.8,3.6-3.2c0.1-2.4,0.7-4.8,1.2-8.1
				c2.3,3.7,4.3,6.8,6.1,9.9c4,6.6,3.9,4.6-1,9.8c-2,2.2-4.2,4.3-6.7,7c-0.9-2.5-0.6-4.5-0.5-6.4c0.2-2.8-0.5-4.7-3.4-5.7
				C337.9,216.6,336.6,216.1,335.7,214.6"/>
			<path class="st3" d="M273.8,275.2c2.7-0.6,4.5-1.2,6.3-1.4c2.1-0.2,2.9-1.4,3.3-3.3c0.4-2,0.3-4,1.5-5.9c1.4,1.2,2,2.9,2.6,4.4
				c1.2,3.4,3.4,4.3,6.7,3.7c1.4-0.3,2.8-0.3,4.3-0.4c0.7,1.2-0.3,1.6-0.9,2.1c-2.4,2.5-4.9,4.9-7.2,7.4c-1.2,1.2-2.2,1.4-3.7,0.7
				C282.4,280.4,278.4,278.3,273.8,275.2"/>
			<path class="st3" d="M357.5,212.6c-1.9-1.7-2.7-4-4-6c-2-3.5-4-7-6-10.5c-1.5-2.8-1.3-5.7,0.1-8.9c3.7,3.5,7.3,6.6,10,10.4
				C361.5,202.5,361.4,207.7,357.5,212.6"/>
			<path class="st3" d="M266.8,122.7c5-3.3,9.4-3.2,13.8-0.9c4.6,2.3,7.7,6.3,11.4,10.1c-3.3,1.8-6.1,2.4-9.4,0.3
				C277.7,129,272.6,126.2,266.8,122.7"/>
			<path class="st3" d="M192.2,198.4c3.5,6.1,6.7,11.7,9.8,17.4c1.1,2,0.9,2.1-0.6,7.7c-3.7-3.3-7.5-6.5-10.2-10.5
				C188.1,208.5,188.4,203.6,192.2,198.4"/>
			<path class="st3" d="M315.3,211.8c-3.9,0.7-7.9,1.3-11.8,2.1c-2.1,0.5-3.4,0.2-4.4-2c-1.8-3.7-1.6-4.5,1.8-7
				c0.9-0.6,1.7-1,2.7-0.3c3.7,2.6,7.8,4.6,12,6.4C315.5,211.3,315.4,211.6,315.3,211.8"/>
			<path class="st3" d="M256.3,243.1c0.2-5.1,0.6-9.1,1.6-13c0.7-2.6,2.4-3.7,5.5-3.4c1.4,0.1,3.4,2.5,3.7,4.3c0.1,1-0.4,1.6-1,2.3
				C263.1,236.2,260.1,239.2,256.3,243.1"/>
			<path class="st3" d="M280.6,244.7c-1.7-3.3-3.5-6.6-5.3-10.1c-1.4-2.8,1.1-6.4,4.3-6.2c3.6,0.2,4.8,1.9,4.1,5.5
				c-0.6,3.1-1.1,6.2-1.7,9.3C281.8,243.7,281.9,244.7,280.6,244.7"/>
			<path class="st3" d="M311.3,186.3c-3.1,4.2-6.6,7.1-9.8,10.3c-0.9,0.9-3.8,0-5.3-1.4c-1.4-1.5-0.3-3.2-0.1-4.9
				c0.2-1.2,0.4-2.2,2-2.4C302.3,187.5,306.5,186.9,311.3,186.3"/>
			<path class="st3" d="M235.4,198.9c4.1-0.7,8.1-1.4,12.2-2.1c1.9-0.3,2.9,0.3,3.7,2c0.9,1.7,1.2,3-0.3,4.6
				c-2.5,2.6-2.6,2.8-5.8,1.3c-3.3-1.6-6.6-3.3-10-5C235.4,199.5,235.4,199.1,235.4,198.9"/>
			<path class="st3" d="M238.8,223.8c3.1-3.2,6.1-6.3,9.2-9.5c1.8-1.8,3.2-0.1,4.6,0.5c2.1,0.9,1,3,1.1,4.6c0,1.2,0,2.8-1.6,3.1
				c-4.3,0.7-8.6,1.3-12.9,1.9C239.1,224.2,239,224.1,238.8,223.8"/>
			<path class="st3" d="M245.6,177c5.2,1.5,8.8,4.1,12.9,5.4c1.2,0.4,1.4,1.2,1.2,2.4c-0.6,3.8-1.4,4.7-4.6,4.9
				c-1.6,0.1-2.7-0.3-3.5-1.8C249.7,184.6,247.8,181.2,245.6,177"/>
			<path class="st3" d="M303,233.3c-4.1-1.3-7.7-3.6-11.6-5.5c-1.4-0.8-1.4-3.9-0.1-5.4c1.7-2,5.8-1.9,7.1,0.4
				c1.9,3.2,3.5,6.6,5.2,9.9C303.4,232.8,303.1,233.1,303,233.3"/>
			<path class="st3" d="M268,166.3c3.4,3.7,5.2,7.7,7.2,11.7c0.4,0.9-1.7,3.5-3.2,4.2c-2,0.9-6.4-2.2-6-4.3
				C266.5,174.2,267.2,170.5,268,166.3"/>
			<path class="st3" d="M292.6,169.4c0.3,4.6-0.7,8.1-0.9,11.7c-0.2,2.2-2.3,3.4-5.2,3.2c-1.4-0.1-3.7-2.5-3.8-4
				c-0.1-0.7,0.3-1.1,0.7-1.5C286.2,175.9,289.1,173,292.6,169.4"/>
			<path class="st3" d="M254.7,272.5c-1.9,1-3.2,1.3-4.4,0c-2.1-2.1-4.3-4.3-6.4-6.4c-1-1-1.1-2,0.1-2.9c1.2-1,2.3-2,3.6-3.1
				c0.9,1.4,0.5,2.5,0.3,3.5c-0.5,4.3-0.6,4.3,3.3,6.6C252.2,271,253.2,271.7,254.7,272.5"/>
			<path class="st3" d="M302.5,143.4c0.4-0.1,0.7-0.2,0.8-0.1c4.9,3.5,4.7,4.5-1.8,8.7C301.1,148.8,302.3,146.1,302.5,143.4"/>
			<path class="st3" d="M212.9,234.5c2.6-0.3,5-0.7,7.5-1.1c0.3,1.3-0.6,1.7-1.2,2.3C215.9,239.1,215.6,239,212.9,234.5"/>
			<path class="st3" d="M341.6,185.8c-1.7-3.2-3.2-5.7-4.5-8.3C339.5,179.5,343.7,180.5,341.6,185.8"/>
			<path class="st3" d="M329,177.2c3.2-4.9,3.6-5,6.7-1.6C333.7,176.9,331.5,177.2,329,177.2"/>
			<path class="st3" d="M207.6,226.5c2,2.1,2.9,4.3,4.2,6.8C206.9,230.4,206.5,229.7,207.6,226.5"/>
			<path class="st3" d="M317.8,247c1.5-0.1,2.5,0.6,3.4,1.2c0.6,0.3,1.3,0.8,0.8,1.6c-0.3,0.6-0.9,1.1-1.4,1.4
				c-0.9,0.4-1.2-0.3-1.5-0.9C318.5,249.3,317.7,248.4,317.8,247"/>
			<path class="st3" d="M300.8,141.2c-2.1-0.9-3.9-1.6-5.5-2.9C297.6,136.8,297.6,136.8,300.8,141.2"/>
			<path class="st3" d="M232.4,163.8c-1.5,0-2.6-0.9-3.6-1.4c-0.9-0.4-0.8-1.1-0.3-1.7c0.6-0.8,1.4-1,2-0.1
				C231.4,161.5,232.1,162.4,232.4,163.8"/>
		</g>
	</g>
</g>
</svg>
