<?xml version="1.0" encoding="utf-8"?>
<!-- Generator: Adobe Illustrator 21.0.0, SVG Export Plug-In . SVG Version: 6.00 Build 0)  -->
<svg version="1.1" id="Layer_1" xmlns="http://www.w3.org/2000/svg" xmlns:xlink="http://www.w3.org/1999/xlink" x="0px" y="0px"
	 viewBox="0 0 200 200" style="enable-background:new 0 0 200 200;" xml:space="preserve">
<style type="text/css">
	.st0{fill:#F6D2A2;}
	.st1{fill:#81D2E1;}
	.st2{fill:#FFFFFF;}
	.st3{fill:#231F20;}
</style>
<g>
	<path class="st0" d="M30.2,108.1c0.3,5.8,6,3.1,8.6,1.3c2.5-1.7,3.2-0.3,3.4-3.6c0.2-2.2,0.4-4.4,0.3-6.7
		c-3.7-0.3-7.8,0.6-10.9,2.8C30.1,103,27.2,106.7,30.2,108.1 M145.1,178.9c4.4,2.7,12.5,11,5.9,15.1c-6.4,5.8-10-6.4-15.6-8.1
		C137.9,182.6,140.9,179.5,145.1,178.9z M66,188.3c-5.2,0.8-8.1,5.5-12.5,7.9c-4.1,2.4-5.7-0.8-6-1.5c-0.6-0.3-0.6,0.3-1.6-0.7
		c-3.8-6,3.9-10.4,7.9-13.3C59.5,179.5,63,184.4,66,188.3L66,188.3z M169.7,107.3c-0.3,5.8-6,3.1-8.6,1.3c-2.5-1.7-3.2-0.3-3.4-3.6
		c-0.2-2.2-0.4-4.4-0.3-6.7c3.7-0.3,7.8,0.6,10.9,2.8C169.8,102.2,172.8,105.9,169.7,107.3"/>
	<path class="st1" d="M154.4,37c20-7.1,4.4-34.4-13-22.3C130,4.9,114.2,3.1,97.7,3.1C81.6,4.4,66.2,7.4,55.4,16.8
		c-17.4-11.2-33.4,15.7-13,22.4c-5.7,22.2,0.8,44.8-0.1,67.3c-0.8,20.3-6.2,47.4,5.1,65.6c9.6,15.6,30.2,21.1,47.1,21.7
		c21.7,0.8,47.9-4.5,58.4-25.5c10.1-20,7.3-44.9,6-66.4C157.7,80.1,160.1,58,154.4,37L154.4,37z"/>
	<path d="M171.2,103.9c-0.6-1.2-1.6-2.5-2.6-3.2c-2.6-1.8-5.9-2.9-9.3-3c-0.1-3.5-0.2-7.3-0.2-12.1v-4.4c-0.1-13.8-0.2-19.8-1-27.4
		c-0.6-5.9-1.6-11.4-2.9-16.6c4.5-1.7,7.5-4.6,8.7-8.3c1.1-3.4,0.6-7.3-1.3-10.7c-2-3.4-5.1-5.9-8.7-6.9c-3.9-1.1-8.2-0.3-12.3,2.5
		c-3.6-3.1-7.8-5.4-12.5-7.2c-8.3-3.1-18-4.3-31.2-4.3V3l-0.1-0.6c-14,1.1-24.5,3.3-33.1,7.5c-3.5,1.7-6.5,3.7-9.2,6
		c-4.1-2.6-8.5-3.2-12.4-2c-3.7,1.1-6.9,3.7-8.8,7.2c-1.9,3.4-2.4,7.3-1.1,10.7c1.3,3.4,4.3,6,8.7,7.6c-1.4,5.7-2.1,11.6-2.2,18.2
		c-0.1,6.4,0.2,11.6,1.2,23.2c0.7,8.7,1,12.6,1.1,17.5c-3.8-0.2-7.6,0.8-10.5,2.9c-1,0.7-2.1,2-2.6,3.2c-0.7,1.6-0.4,3,1,3.8
		c0.2,2.7,1.7,3.9,4,3.7c1.7-0.2,3.7-1.1,5.4-2.3c0.4-0.3,0.8-0.5,1.2-0.7c0.2-0.1,0.3-0.1,0.4-0.2c0,0,0.3-0.1,0.4-0.2
		c0.2-0.1,0.3-0.1,0.4-0.2c-0.1,2.6-0.3,5.4-0.8,11.6c-0.6,7.1-0.8,10.9-1,15.2c-0.5,16,1.4,27.6,7.1,36.9c1.8,2.9,4,5.5,6.5,7.8
		c-0.5,0.3-2.6,1.9-3.3,2.4c-2.4,1.8-4,3.3-4.9,5c-1.2,2.2-1.2,4.4,0.2,6.7l0.1,0.1l0.1,0.1c0.6,0.6,1,0.8,1.4,0.8h0.2
		c0.1,0.1,0.1,0.2,0.2,0.3c0.2,0.3,0.3,0.5,0.5,0.7c1.4,1.6,3.4,2,6,0.4c1.4-0.7,2.4-1.6,4.5-3.4l0.1-0.1c3.4-2.9,5.1-4,7.6-4.4
		l0.9-0.2c0.3,0.2,0.7,0.3,1.1,0.4c7.9,3.2,17.2,4.9,26.5,5.3c12.1,0.4,23.7-1.1,33.6-4.6c2.6-1,5.1-2.1,7.4-3.3
		c1.5,0.6,2.7,1.7,5,4.5c0.1,0.1,0.1,0.1,0.2,0.2c0.1,0.1,0.1,0.2,0.2,0.2c0.1,0.2,0.3,0.3,0.4,0.4c1.8,2.2,3.1,3.2,4.5,3.9
		c1.8,0.8,3.6,0.4,5.5-1.3c3.2-2,3.5-5.1,1.3-8.7c-1.5-2.5-4.1-5.1-6.6-6.8c2.9-2.9,5.4-6.3,7.4-10.1c5.4-10.7,7.4-23.3,7.3-39.4
		c-0.1-5.7-0.3-10.7-0.9-20.2v-0.3c0.3,0.1,0.6,0.3,0.8,0.5c1.7,1.2,3.7,2.1,5.4,2.3c2.3,0.2,3.8-1,4-3.7
		C171.7,106.9,171.9,105.5,171.2,103.9L171.2,103.9z M153.4,12.6c3.4,0.9,6.3,3.2,8.1,6.4c1.8,3.1,2.3,6.7,1.3,9.8
		c-1.1,3.3-3.7,5.9-7.9,7.5c-0.8-3-1.8-5.9-3-8.8c1.6-1.4,2.4-3.1,1.1-5.6c-1.3-2.5-3.5-2.7-5.8-2c-1.5-1.9-3.1-3.6-4.8-5.1
		C146.1,12.4,149.9,11.7,153.4,12.6L153.4,12.6z M34.1,31.6c-1.2-3-0.8-6.6,1-9.7c1.8-3.1,4.7-5.6,8.2-6.6c3.6-1.1,7.4-0.6,11.2,1.7
		c-2.2,2-4.2,4.2-5.8,6.7c-2.9-1.5-5.9-1.8-7.6,1.3c-1.7,3.3,0.3,5.4,3.1,6.9c-0.4,1-0.8,2-1.1,3c-0.4,1.2-0.8,2.5-1.1,3.8
		C38,37,35.3,34.6,34.1,31.6L34.1,31.6z M40.9,107.8c-0.1,0-0.4,0.1-0.4,0.2c-0.2,0.1-0.3,0.1-0.5,0.2c-0.4,0.2-0.9,0.4-1.3,0.8
		c-1.6,1.1-3.5,2-4.9,2.1c-1.7,0.2-2.6-0.6-2.8-2.6c1.2-0.4,1.7-0.7,2.1-1.3l-0.9-0.7c-0.3,0.4-0.7,0.6-1.7,1c-0.1,0-0.1,0-0.1,0.1
		c-0.9-0.5-1.1-1.3-0.6-2.4c0.4-1,1.5-2.2,2.3-2.8c2.7-2,6.3-2.9,9.8-2.7c0,1.4,0.1,2.8,0,4.1c0,0.2,0,0.3-0.1,0.4
		c-0.1,0.8-0.1,1.1-0.1,1.5C41.6,107.3,41.5,107.6,40.9,107.8L40.9,107.8z M57.8,192.3l-0.1,0.1c-2.1,1.8-3.1,2.5-4.4,3.2
		c-2.1,1.3-3.6,1-4.6-0.2c-0.2-0.2-0.3-0.4-0.4-0.6c-0.1-0.1-0.1-0.2-0.2-0.2v-0.1c0.1-1,0.5-1.7,1.5-3.3c0.1-0.1,0.1-0.1,0.1-0.1
		c0.6-0.9,0.9-1.4,1.2-2l-1-0.4c-0.2,0.5-0.5,1-1.1,1.8c-0.1,0.1-0.1,0.1-0.1,0.1c-1,1.5-1.5,2.4-1.7,3.4H47h-0.2
		c-0.1-0.1-0.3-0.2-0.5-0.4c-2.2-3.5-0.4-6.4,4.5-10.1c0.6-0.4,2.7-1.9,3.2-2.4c0.1,0,0.2-0.1,0.3-0.1c3,2.6,6.5,4.8,10.5,6.7
		c0,0.1,0.1,0.1,0.1,0.2C62.7,188.4,60.9,189.6,57.8,192.3L57.8,192.3z M151.7,186.2c1.7,2.9,1.7,5.3-0.5,6.9
		c-0.2-0.3-0.3-0.7-0.5-1.3c0-0.1,0-0.1-0.1-0.1c-0.8-2.1-1.3-3-2.2-4l-0.8,0.8c0.8,0.8,1.2,1.6,2,3.6c0,0.1,0,0.1,0.1,0.1
		c0.3,0.7,0.4,1.2,0.6,1.6c-1.5,1.2-2.7,1.5-4.1,0.8c-1.2-0.5-2.3-1.6-4.1-3.6c-0.1-0.1-0.2-0.3-0.3-0.4c-0.1-0.1-0.1-0.1-0.2-0.2
		c-0.1-0.1-0.1-0.1-0.2-0.2c-2.1-2.4-3.3-3.7-4.6-4.4c3.1-1.8,5.9-3.8,8.5-6.2C147.7,181.2,150.3,183.8,151.7,186.2L151.7,186.2z
		 M152.5,168.1c-4.8,9.7-13.3,16.5-24.7,20.7c-9.7,3.5-21.3,5-33.2,4.5c-20.5-0.7-38.3-7.9-46.7-21.4c-5.6-9-7.4-20.5-6.9-36.3
		c0.2-4.3,0.4-8.2,1-15.2c0.6-7.9,0.8-10.2,1-13.8c0.1-2.6,0.1-5.2,0.1-8c-0.1-4.9-0.4-8.8-1.1-17.6c-1-11.6-1.3-16.7-1.2-23.1
		c0.2-8.4,1.3-15.8,3.6-22.8c3.8-11.4,10.8-19,20.9-24c8.5-4.1,18.7-6.3,32.6-7.4c13,0,22.6,1.2,30.8,4.2c9.8,3.6,17.2,10,22.2,19.8
		c3.2,7.9,5.1,16.5,6.2,26.4c0.8,7.5,1,13.5,1,27.3v4.4c0.1,6.8,0.2,11.5,0.4,16.3c0.1,1.8,0.2,2.6,0.4,7.1
		c0.6,9.5,0.8,14.4,0.9,20.1C159.9,145.1,157.8,157.5,152.5,168.1L152.5,168.1z M169.6,106.8c-0.1,0-0.1-0.1-0.2-0.1
		c-1-0.3-1.3-0.6-1.7-1l-0.9,0.7c0.5,0.7,1,1,2.1,1.3c-0.2,2-1.2,2.7-2.8,2.6c-1.5-0.1-3.4-1-4.9-2.1c-0.4-0.3-0.9-0.6-1.3-0.8
		c-0.1,0-0.1-0.1-0.2-0.1c-0.2-3.1-0.2-3.9-0.3-5.5l-0.2-3c3.1,0.1,6.2,1,8.6,2.7c0.8,0.6,1.8,1.8,2.3,2.8
		C170.7,105.4,170.6,106.3,169.6,106.8L169.6,106.8z"/>
	<path class="st2" d="M106.2,60.8c0.1,2.9,0.6,6,0.1,9c-0.8,1.5-2.2,1.6-3.5,2.2c-1.8-0.3-3.3-1.5-4-3.1c-0.4-3.4,0.1-6.7,0.3-10.1
		c0-0.1,2.1,0.1,4,0.6C104.7,60,106.2,60.8,106.2,60.8L106.2,60.8z M90.4,61.1c-1.6,5.9,2.1,15.6,8.1,7.7c-0.4-3.4,0.1-6.6,0.2-9.9
		C98.7,58.6,90.4,60.7,90.4,61.1L90.4,61.1z"/>
	<path d="M106.9,63.5c-0.1-1.7-0.2-2.4-0.2-3.2v-0.4l-0.4-0.1l-7.1-2.2v-0.4l-0.7,0.2h-0.1v0.1l-7.9,2l-0.3,0.1l-0.1,0.3
		c-1.2,3-1,7.4,0.6,10.2c1.8,3.1,4.7,3.2,7.7-0.4c0.8,1.6,2.4,2.7,4.2,3h0.2l0.2-0.1c0.2-0.1,0.4-0.2,0.8-0.3c0.1,0,0.1,0,0.1-0.1
		c1.6-0.6,2.3-1,2.9-2.1l0.1-0.1v-0.1c0.2-1,0.2-2.1,0.2-3.2C107.1,65.8,107,65,106.9,63.5L106.9,63.5z M97.9,61.4
		c-0.1,1-0.1,1.4-0.2,2c-0.1,2.1-0.1,3.6,0.1,5.2c-2.6,3.4-4.7,3.4-6.1,0.8c-1.3-2.4-1.6-6.3-0.6-9l7.1-1.8
		C98.1,59.4,98,60.1,97.9,61.4z M105.8,69.7c-0.4,0.7-0.9,1-2.2,1.5c-0.1,0-0.1,0-0.1,0.1c-0.3,0.1-0.6,0.2-0.7,0.3
		c-1.5-0.3-2.8-1.3-3.4-2.7c-0.2-1.5-0.2-3.1-0.1-5.1c0.1-0.6,0.1-1,0.2-2c0.1-1.3,0.2-2.1,0.2-2.8l6.1,1.8c0,0.7,0.1,1.4,0.2,2.9
		c0.1,1.5,0.2,2.3,0.2,3.2C106,67.8,105.9,68.8,105.8,69.7z"/>
	<g transform="translate(48.476 21.976)">
		<path class="st2" d="M8.2,14.5c5.1,20,37.2,14.9,36-5.2C42.7-14.8,3.3-10.1,8.2,14.5"/>
		<path d="M44.8,9.2C44.4,3.4,41.8-1.1,37.6-4c-3.8-2.6-8.8-3.6-13.8-3c-5,0.7-9.6,2.9-12.6,6.4c-3.4,3.9-4.6,9.1-3.5,15l0.5-0.1
			l-0.5,0.1C13,35.1,46,30.1,44.8,9.2z M8.7,14.4C7.6,8.7,8.8,3.9,12,0.3c2.9-3.3,7.2-5.5,11.9-6.1C28.6-6.4,33.4-5.5,37-3
			c4,2.7,6.4,6.9,6.7,12.4C44.9,28.9,13.7,33.6,8.7,14.4L8.7,14.4z"/>
		<ellipse cx="17.1" cy="11.2" rx="5.4" ry="5.9"/>
		<ellipse class="st2" cx="19.5" cy="12.5" rx="1.3" ry="1.5"/>
	</g>
	<g transform="translate(129.618 18.098)">
		<path class="st2" d="M-28,14.6c4,23,41.6,16.9,36.2-6.3C3.3-12.5-29.3-6.7-28,14.6"/>
		<path d="M8.7,8.2c-5-21.4-38.6-15.6-37.2,6.4v0.1C-26.7,25.6-17,31.1-6.3,29.3c4.9-0.8,9.2-3.2,12.1-6.7C8.9,18.8,10,13.8,8.7,8.2
			L8.7,8.2z M5,22c-2.7,3.2-6.8,5.5-11.4,6.3c-10.1,1.7-19.2-3.5-21-13.7C-28.7-6.1,3-11.7,7.7,8.5C8.9,13.8,7.9,18.4,5,22z"/>
		<ellipse cx="-18.7" cy="13.6" rx="5.3" ry="5.9"/>
		<ellipse class="st2" cx="-16.3" cy="15" rx="1.2" ry="1.5"/>
	</g>
	<g>
		<path class="st0" d="M91.5,49c-4.4,0.4-8,5.6-5.7,9.7c3,5.5,9.8-0.5,14,0.1c4.9,0.1,8.8,5.1,12.7,0.9c4.3-4.7-1.8-9.3-6.7-11.3
			L91.5,49L91.5,49z"/>
		<path class="st3" d="M113.1,52.7c-1.5-1.9-4.1-3.6-7-4.8l-0.1-0.1h-0.1l-14.3,0.6c-5,0.4-8.6,6.2-6.2,10.6c1,1.7,2.2,2.5,4,2.6
			c1.3,0.1,2.6-0.2,4.7-1c0.2-0.1,0.4-0.1,0.7-0.2c2.8-1,3.9-1.2,5-1.1h0.1c1.3,0,2.5,0.4,4.6,1.2c2.4,1,3.1,1.2,4.3,1.3
			c1.6,0.1,3-0.4,4.3-1.8C115.2,57.7,115,55.1,113.1,52.7L113.1,52.7z M112.1,59.3c-1.1,1.2-2.1,1.6-3.4,1.5c-1-0.1-1.7-0.3-3.9-1.2
			c-2.2-1-3.5-1.3-4.9-1.3c-1.4-0.2-2.6,0.1-5.5,1.1c-0.3,0.1-0.5,0.2-0.7,0.2c-4.1,1.4-6,1.3-7.4-1.2c-2-3.6,1.1-8.6,5.3-9
			l14.2-0.6c2.7,1.1,5.1,2.7,6.5,4.5C113.9,55.4,113.9,57.4,112.1,59.3L112.1,59.3z"/>
		<path d="M106.9,46.6c-1.7-6.4-16.3-5.4-16,2.2C91.7,54.4,108.6,52.9,106.9,46.6z"/>
	</g>
</g>
</svg>
