<?xml version="1.0" encoding="utf-8"?>
<!-- Generator: Adobe Illustrator 24.1.0, SVG Export Plug-In . SVG Version: 6.00 Build 0)  -->
<svg version="1.1" id="Layer_1" xmlns="http://www.w3.org/2000/svg" xmlns:xlink="http://www.w3.org/1999/xlink" x="0px" y="0px"
	 viewBox="0 0 400 400" style="enable-background:new 0 0 400 400;" xml:space="preserve">
<style type="text/css">
	.st0{fill:#FFFFFF;}
	.st1{fill:#FE9401;}
</style>
<g id="_x32_v68sO.tif">
	<g>
		<path class="st0" d="M399.2,207.9c-0.5,1.3-1.5,1.8-2.9,1.8c-3.8,0-7.7,0-11.5,0c-1.7,0-2.6-0.8-2.6-2.6c0-12.8,0-25.5,0-38.3
			c0-2.3-0.1-4.5-0.7-6.8c-0.8-3-2.5-5.2-5.8-5.6c-3.3-0.4-5.8,1-7.6,3.8c-1.4,2.2-2,4.7-2.3,7.2c-0.3,2.1-0.3,4.2-0.3,6.3
			c0,11.1,0,22.2,0,33.2c0,1.8-0.9,2.7-2.7,2.7c-3.9,0-7.7,0-11.6,0c-1.8,0-2.6-0.9-2.6-2.6c0-20.8,0-41.5,0-62.3
			c0-1.8,0.9-2.7,2.7-2.7c3.6,0,7.2,0,10.7,0c1.8,0,2.6,0.9,2.6,2.6c0,2.7,0,5.3,0,8c0,0.2-0.1,0.5,0.2,0.8c0.3-0.7,0.6-1.4,0.9-2
			c1.5-3.1,3.3-6,6.3-8c3.1-2.1,6.5-2.7,10.2-2.6c3.9,0.1,7.5,1.1,10.5,3.6c3.2,2.6,4.9,6,5.7,10c0.4,2.2,0.7,4.4,0.8,6.6
			c0,0.1-0.1,0.3,0.2,0.4C399.2,176.9,399.2,192.4,399.2,207.9z"/>
		<path class="st1" d="M159.8,260.1c-1.4-0.2-2.8-0.1-4.3-0.2c-8.9-0.4-17.7-1.5-26.4-3.3c-11.7-2.5-23-6.3-33.9-11.4
			c-13.5-6.4-25.8-14.6-37-24.6c-0.4-0.3-0.8-0.6-1-1.1c-0.4-0.7-0.5-1.4-0.1-2.1c0.4-0.6,1.2-0.9,2.1-0.7c0.4,0.1,0.8,0.3,1.2,0.5
			c16.6,9.6,34.3,16.6,52.9,21.2c8.5,2.1,17,3.7,25.7,4.8c7.5,0.9,15.1,1.4,22.7,1.6c8,0.1,15.9-0.2,23.8-1.1
			c15.3-1.6,30.3-4.9,44.9-9.8c4.7-1.6,9.3-3.3,13.8-5.2c1-0.4,2.1-0.7,3.2-0.4c2.2,0.6,2.9,2.9,1.6,4.7c-0.4,0.6-1,1-1.6,1.4
			c-8.3,6-17.4,10.8-27,14.5c-10.4,4.1-21.1,7.1-32.1,8.9c-7.6,1.3-15.3,2.1-23.1,2.2c-0.2,0-0.4,0.1-0.5,0.1
			C163.1,260.1,161.5,260.1,159.8,260.1z"/>
		<path class="st0" d="M85.1,152.5c2.8-7.4,7.9-11.6,16-11.7c8.2-0.2,13.1,4.3,16.2,11.5c0.3-0.1,0.3-0.3,0.4-0.5
			c3.1-7.3,9.9-11.5,17.8-10.9c5,0.3,9.3,2.2,12.6,6.1c2.1,2.5,3.1,5.5,3.5,8.6c0.5,3.6,0.4,7.1,0.2,10.7c0,0.3,0,0.5,0,0.8
			c0,13.3,0,26.6,0,39.8c0,2.1-0.8,2.9-2.8,2.9c-3.8,0-7.7,0-11.5,0c-1.7,0-2.6-0.9-2.6-2.6c0-11.5,0-23.1,0-34.6
			c0-3.1,0.2-6.3-0.2-9.4c-0.8-6-6.9-8.5-11.9-4.9c-2.2,1.6-3.2,3.8-3.6,6.4c-0.4,2.7-0.5,5.5-0.5,8.2c0,11.4,0,22.8,0,34.2
			c0,1.9-0.9,2.7-2.7,2.7c-3.9,0-7.8,0-11.7,0c-1.7,0-2.6-0.9-2.6-2.6c0-11.1,0-22.2,0-33.3c0-3,0.2-6-0.1-9.1
			c-0.1-1.1-0.3-2.1-0.6-3.1c-1.3-4.1-4.2-5.5-8.2-5c-3.1,0.4-5,2.4-5.9,5.2c-0.8,2.4-1.1,4.9-1.1,7.4c0,12.5,0,25.1,0,37.6
			c0,2.1-0.8,2.9-2.9,2.9c-3.8,0-7.7,0-11.5,0c-1.7,0-2.6-0.8-2.6-2.6c0-20.8,0-41.6,0-62.4c0-1.8,0.9-2.7,2.7-2.7
			c3.6,0,7.2,0,10.8,0c1.7,0,2.6,0.9,2.6,2.6c0,2.3,0,4.6,0,6.9C84.9,151.9,84.8,152.2,85.1,152.5z"/>
		<path class="st0" d="M39.7,201.7c-1.5,1.5-3,2.9-4.6,4.1c-3.8,3-8.2,4.5-13.1,4.7c-3.5,0.2-6.9,0-10.2-1.2
			C6.9,207.4,3.6,204,2,199c-1.7-5.4-1.7-10.9,0.4-16.3C4.8,177,9,173.2,14.7,171c3.7-1.5,7.6-2.2,11.5-2.8
			c3.4-0.5,6.7-0.8,10.1-1.1c0.8-0.1,1.1-0.3,1-1.2c-0.1-2,0.1-4-0.3-6c-0.7-3.9-2.7-6-6.7-6.6c-3.4-0.5-6.6,0.3-9.1,2.8
			c-1.2,1.2-1.9,2.7-2.3,4.3c-0.4,1.9-1.3,2.5-3.2,2.2c-3.5-0.4-7-0.8-10.6-1.1c-1.6-0.2-2.4-1.3-2.1-2.8
			c1.7-8.3,6.7-13.7,14.6-16.6c3.8-1.4,7.8-2,11.9-2.1c4.8-0.1,9.4,0.5,13.8,2.4c6.4,2.7,10.2,7.4,11,14.4c0.2,1.7,0.3,3.5,0.3,5.3
			c0,7.9,0.1,15.8,0,23.8c0,3.9,1,7.4,3.4,10.4c0.5,0.6,1,1.2,1.4,1.9c0.8,1.3,0.7,2.4-0.5,3.4c-2.9,2.5-5.8,4.9-8.6,7.5
			c-1.2,1.1-2.8,1.3-4.2,0.1c-2.2-2-4.1-4.2-5.7-6.7C40.2,202.3,40,202,39.7,201.7z M37.3,181.6c0-1.6,0-2.9,0-4.1
			c0-0.5-0.1-0.6-0.6-0.6c-2.9,0.1-5.7,0.2-8.5,1c-3,0.8-5.6,2.1-7.4,4.7c-1.8,2.7-2.2,5.8-1.7,8.9c0.9,5.8,6.4,8.4,11.5,5.5
			c2.6-1.5,4.1-3.8,5.2-6.4C37.1,187.6,37.2,184.5,37.3,181.6z"/>
		<path class="st0" d="M216.2,172.7c0,5.1,0.1,9.2,0,13.2s1.1,7.5,3.6,10.6c0.5,0.6,1,1.3,1.4,2c0.6,1.2,0.4,2.1-0.6,3
			c-2.9,2.5-5.8,5-8.7,7.5c-1.2,1.1-2.8,1.4-4.3,0c-2.2-2-4.1-4.3-5.7-6.8c-0.3-0.6-0.5-0.7-1.1-0.1c-2.5,2.5-5.2,4.9-8.5,6.3
			c-4.2,1.9-8.6,2.2-13.1,1.9c-3.4-0.2-6.7-1.2-9.5-3.3c-3.7-2.6-5.7-6.3-6.6-10.6c-1-5-0.7-9.9,1.4-14.7c2.6-5.8,7.2-9.3,13-11.4
			c3.7-1.3,7.6-2,11.5-2.5c3-0.4,6-0.7,9-1c0.7-0.1,0.9-0.3,0.9-1c-0.1-1.9,0.1-3.7-0.1-5.6c-0.5-4.2-3.1-6.8-7.3-7.2
			c-2.4-0.2-4.7,0.2-6.8,1.5s-3.4,3.1-3.9,5.4c-0.1,0.6-0.3,1.1-0.6,1.6c-0.5,0.8-1.2,1.2-2.2,1.1c-3.8-0.4-7.5-0.8-11.3-1.2
			c-1.6-0.2-2.3-1.3-2-2.9c1.3-6.3,4.6-11.2,10.2-14.4c3.8-2.2,8-3.4,12.4-3.8c5.3-0.6,10.5-0.3,15.6,1.3c4.3,1.4,7.9,3.6,10.5,7.4
			c1.7,2.5,2.4,5.4,2.7,8.4C216.4,162.9,216,168.3,216.2,172.7z M198.8,180.8c0-1.1,0-2.3,0-3.4c0-0.4-0.1-0.6-0.5-0.6
			c-2.9,0-5.7,0.2-8.5,1c-3.1,0.8-5.9,2.2-7.6,5.1c-1.5,2.5-1.8,5.3-1.5,8.2c0.7,6.2,6.7,9.1,12,5.7c2.6-1.6,4.1-4.1,5.1-6.9
			C198.8,186.9,198.9,183.9,198.8,180.8z"/>
		<path class="st0" d="M339.4,176.3c0,7.2-1.3,14.1-4.8,20.4c-3.6,6.5-8.7,11.3-16,13.2c-8.8,2.4-17,1-24.1-5
			c-4.3-3.7-7-8.4-8.7-13.7c-2-6-2.6-12.3-2.3-18.6c0.3-5.5,1.4-10.9,3.6-15.9c2.5-5.5,6.1-10,11.4-12.9c4.5-2.5,9.4-3.4,14.5-3
			c9.5,0.6,16.5,5.3,21.1,13.5c2.6,4.6,4,9.6,4.7,14.8C339.2,171.5,339.4,173.9,339.4,176.3z M301.6,174.9c0.1,3.9,0.1,7.9,0.8,11.7
			c0.5,2.7,1.1,5.4,2.6,7.7c0.9,1.5,2.1,2.6,3.8,3.2c3.8,1.3,7.8-0.4,9.7-4.2c1.8-3.5,2.3-7.3,2.5-11.1c0.3-5.1,0.3-10.2-0.3-15.3
			c-0.3-3-0.8-5.9-2-8.6c-2.4-5.7-10.7-5.9-13.7-1.3c-1.2,1.9-2,3.9-2.5,6.1C301.7,166.9,301.7,170.9,301.6,174.9z"/>
		<path class="st0" d="M254.5,155.6c-0.3-0.1-0.6-0.1-0.8-0.1c-6.6,0-13.2,0-19.7,0c-1.9,0-2.8-0.8-2.8-2.7c0-2.8,0-5.6,0-8.4
			c0-1.7,0.9-2.5,2.5-2.5c13.4,0,26.7,0,40.1,0c1.7,0,2.5,0.9,2.5,2.5c0,2.2-0.1,4.5,0,6.7c0,1.3-0.3,2.4-1,3.5
			c-2,3.2-4.3,6.2-6.5,9.3c-5.3,7.6-10.7,15.2-16,22.9c-0.1,0.2-0.4,0.4-0.3,0.7c2.1,0,4.1,0,6.2,0.2c5.8,0.5,11.3,1.8,16.4,4.6
			c1.6,0.9,2.4,2.2,2.4,4c0,3,0,6.1,0,9.1c0,2.1-1.5,3-3.4,2.1c-14-6.6-27.9-6.7-41.9,0c-1.9,0.9-3.4,0-3.4-2.1c0-3.2,0-6.5,0-9.7
			c0-2.2,0.6-4.2,1.9-6c7.8-11.2,15.6-22.4,23.4-33.6C254.3,156,254.5,155.9,254.5,155.6z"/>
		<path class="st1" d="M247.1,220.7c-4.8,0-9.7,0.5-14.5,1.1c-0.8,0.1-1.6,0.2-2.4,0.2c-0.6,0-1.1-0.1-1.4-0.6
			c-0.3-0.6-0.1-1.1,0.2-1.6s0.8-0.9,1.3-1.2c4.4-2.9,9.2-4.6,14.3-5.4c5.7-1,11.5-1.1,17.2,0c1.5,0.3,2.9,0.6,4.2,1.2
			c1.2,0.5,1.9,1.4,2,2.7c0.4,2.9,0.1,5.7-0.5,8.6c-1.4,7.1-4,13.7-8.2,19.6c-1.4,1.9-3,3.6-4.8,5.2c-0.5,0.5-1.1,0.9-1.8,1
			c-1,0.2-1.5-0.4-1.5-1.3c0-0.5,0.2-1,0.4-1.4c1.9-4.9,3.9-9.8,5.3-14.8c0.8-2.8,1.5-5.6,1.4-8.5c-0.1-1.8-0.9-3.1-2.7-3.7
			c-2.3-0.8-4.7-0.9-7.1-1C248.1,220.7,247.6,220.7,247.1,220.7z"/>
	</g>
</g>
</svg>
