<?xml version="1.0" encoding="UTF-8" standalone="no" ?>
<!DOCTYPE svg PUBLIC "-//W3C//DTD SVG 1.1//EN" "http://www.w3.org/Graphics/SVG/1.1/DTD/svg11.dtd">
<svg xmlns="http://www.w3.org/2000/svg" xmlns:xlink="http://www.w3.org/1999/xlink" version="1.1" width="500" height="500" viewBox="0 0 500 500" xml:space="preserve">
<desc>Created with Fabric.js 4.6.0</desc>
<defs>
</defs>
<g transform="matrix(1.9 0 0 1.73 248.79 250)" id="1R8u0ale1053UOWCI8xn9"  >
<g style="" vector-effect="non-scaling-stroke"   >
		<g transform="matrix(1 0 0 1.13 0 107.16)" id="J7z6JWVUgN7YJhJwatgjp"  >
<path style="stroke: none; stroke-width: 1; stroke-dasharray: none; stroke-linecap: butt; stroke-dashoffset: 0; stroke-linejoin: miter; stroke-miterlimit: 4; fill: rgb(255,153,0); fill-rule: nonzero; opacity: 1;" vector-effect="non-scaling-stroke"  transform=" translate(-128.19, -222.83)" d="M 221.503 210.324 C 116.26799999999999 260.40700000000004 50.958 218.50400000000002 9.150999999999982 193.053 C 6.563999999999982 191.44899999999998 2.166999999999982 193.428 5.9819999999999816 197.81 C 19.909999999999982 214.698 65.55499999999998 255.40300000000002 125.13499999999999 255.40300000000002 C 184.756 255.40300000000002 220.225 222.87100000000004 224.66199999999998 217.19600000000003 C 229.069 211.56900000000002 225.956 208.46500000000003 221.50199999999998 210.324 z M 251.058 194.002 C 248.232 190.322 233.874 189.63600000000002 224.838 190.746 C 215.78799999999998 191.824 202.204 197.35500000000002 203.385 200.67600000000002 C 203.99099999999999 201.92000000000002 205.22799999999998 201.36200000000002 211.445 200.80300000000003 C 217.679 200.181 235.143 197.97700000000003 238.78199999999998 202.73400000000004 C 242.438 207.52400000000003 233.212 230.34200000000004 231.527 234.02200000000005 C 229.899 237.70200000000006 232.149 238.65100000000004 235.207 236.20000000000005 C 238.22299999999998 233.75000000000006 243.683 227.40500000000006 247.34699999999998 218.42600000000004 C 250.986 209.39800000000005 253.20499999999998 196.80400000000003 251.057 194.00200000000004 z" stroke-linecap="round" />
</g>
		<g transform="matrix(1 0 0 1.13 3.8 -35.05)" id="vOjE-GX_KASSUrfeY_HVL"  >
<path style="stroke: none; stroke-width: 1; stroke-dasharray: none; stroke-linecap: butt; stroke-dashoffset: 0; stroke-linejoin: miter; stroke-miterlimit: 4; fill: rgb(255,255,255); fill-rule: evenodd; opacity: 1;" vector-effect="non-scaling-stroke"  transform=" translate(-131.98, -96.81)" d="M 150.744 108.13 C 150.744 121.271 151.076 132.23 144.434 143.9 C 139.073 153.389 130.581 159.22400000000002 121.09299999999999 159.22400000000002 C 108.14099999999999 159.22400000000002 100.59799999999998 149.35600000000002 100.59799999999998 134.79200000000003 C 100.59799999999998 106.04200000000003 126.35799999999999 100.82400000000003 150.74399999999997 100.82400000000003 z M 184.75900000000001 190.346 C 182.52900000000002 192.338 179.30300000000003 192.481 176.78900000000002 191.15200000000002 C 165.59300000000002 181.854 163.60000000000002 177.537 157.43300000000002 168.66500000000002 C 138.931 187.54700000000003 125.83700000000002 193.192 101.83200000000002 193.192 C 73.46200000000002 193.192 51.35400000000002 175.686 51.35400000000002 140.627 C 51.35400000000002 113.254 66.20400000000002 94.60900000000001 87.31400000000002 85.501 C 105.62700000000002 77.435 131.19800000000004 76.012 150.74400000000003 73.783 L 150.74400000000003 69.418 C 150.74400000000003 61.400000000000006 151.36000000000004 51.912000000000006 146.66400000000002 44.986000000000004 C 142.536 38.771 134.661 36.209 127.73400000000001 36.209 C 114.87800000000001 36.209 103.397 42.803000000000004 100.59800000000001 56.46600000000001 C 100.02800000000002 59.50300000000001 97.799 62.492000000000004 94.76300000000002 62.63400000000001 L 62.02800000000002 59.12400000000001 C 59.27700000000002 58.50600000000001 56.24100000000002 56.27700000000001 57.00000000000002 52.05400000000001 C 64.54300000000002 12.394000000000013 100.36000000000001 0.4380000000000095 132.43000000000004 0.4380000000000095 C 148.84500000000003 0.4380000000000095 170.28800000000004 4.80300000000001 183.24000000000004 17.23300000000001 C 199.65500000000003 32.55600000000001 198.08900000000003 53.003000000000014 198.08900000000003 75.25300000000001 L 198.08900000000003 127.81800000000001 C 198.08900000000003 143.616 204.63600000000002 150.542 210.80300000000003 159.08200000000002 C 212.985 162.11800000000002 213.46000000000004 165.77200000000002 210.70800000000003 168.04800000000003 C 203.82900000000004 173.78800000000004 191.58900000000003 184.46300000000002 184.85300000000004 190.44100000000003 L 184.75800000000004 190.34600000000003" stroke-linecap="round" />
</g>
</g>
</g>
</svg>