<?xml version="1.0" encoding="utf-8"?>
<!-- Generator: Adobe Illustrator 23.1.0, SVG Export Plug-In . SVG Version: 6.00 Build 0)  -->
<svg version="1.1" id="Layer_1" xmlns="http://www.w3.org/2000/svg" xmlns:xlink="http://www.w3.org/1999/xlink" x="0px" y="0px"
	 viewBox="0 0 400 400" style="enable-background:new 0 0 400 400;" xml:space="preserve">
<style type="text/css">
	.st0{enable-background:new    ;}
	.st1{fill:#5BC99F;}
</style>
<g>
	<g class="st0">
		<path class="st1" d="M42.6,113.5l32-4.3l-10.4,48.7c8.9-5.4,13.4-6.1,17.7-6.1c15.1,0,25.5,9.5,25.5,37
			c0,25.3-13.4,73.1-59.3,73.1c-19.9,0-30.3-10.4-30.3-27.7c0-3.7,0.4-7.8,1.5-12.3L42.6,113.5z M74.2,167.1c-3,0-10.4,1.1-12.8,3.9
			l-11.9,55c-0.4,1.7-0.6,3.5-0.6,5c0,6.3,3.7,10,11.5,10c14.1,0,25.3-30.3,25.3-53C85.7,177.3,82,167.1,74.2,167.1z"/>
		<path class="st1" d="M170.7,109.2L145.8,226c-0.6,2.8-0.9,5-0.9,6.9c0,6.1,2.8,8,8.9,8c8.4,0,16.2-8.2,19.5-19h9.1
			c-12.3,35.3-33.8,40-45.4,40c-13,0-23.1-7.8-23.1-26c0-4.1,0.6-8.9,1.7-14.1l23.1-108.4L170.7,109.2z"/>
		<path class="st1" d="M219.1,152.4L203.6,226c-0.6,2.8-0.9,5-0.9,6.9c0,6.1,2.8,8,8.9,8c8.4,0,16.2-8.2,19.5-19h9.1
			c-12.3,35.3-33.8,40-45.4,40c-13,0-23.1-7.8-23.1-26c0-4.1,0.6-8.9,1.7-14.1l14.7-69.4H219.1z M209.4,106.4
			c9.5,0,17.3,7.8,17.3,17.3s-7.8,17.1-17.3,17.1s-17.1-7.6-17.1-17.1S199.9,106.4,209.4,106.4z"/>
		<path class="st1" d="M322.8,221.9c-11.3,13-23.2,21.2-33.1,27c-9.1,9.5-22.9,13-34,13c-22.1,0-31.6-14.5-31.6-27.7
			c0-10,5.6-17.3,11.5-20.1c12.1-21.4,19.9-42.8,26.6-64l32-4.3c2.6,56,4.8,64.5,4.8,78.8c0,3-0.2,5.6-0.9,8.2
			c5.8-3.5,11.5-7.4,15.6-10.8L322.8,221.9L322.8,221.9z M241.4,232.5c-2.2,0-4.8-0.6-5.8-2.8c0,10.2,3.7,15.1,13.2,15.1
			s18.8-5,18.8-20.1c0-11.2-1.9-18-4.1-51.3c-4.3,14.1-10.4,27-17.5,40.9c2.8,1.3,5,3.9,5,7.6C251,227.1,247.1,232.5,241.4,232.5z"
			/>
		<path class="st1" d="M376.9,145.7c2.6,56,4.8,64.5,4.8,78.8c0,28.1-25.5,37.4-43.3,37.4c-22.1,0-31.6-14.5-31.6-27.7
			c0-10,5.6-17.3,11.5-20.1c12.1-21.4,19.9-42.8,26.6-64L376.9,145.7z M324.1,232.5c-2.2,0-4.8-0.6-5.8-2.8
			c0,10.2,3.7,15.1,13.2,15.1s18.8-5,18.8-20.1c0-11.2-1.9-18-4.1-51.3c-4.3,14.1-10.4,27-17.5,40.9c2.8,1.3,5,3.9,5,7.6
			C333.6,227.1,329.7,232.5,324.1,232.5z"/>
	</g>
</g>
</svg>
