<?xml version="1.0" encoding="utf-8"?>
<!-- Generator: Adobe Illustrator 21.0.0, SVG Export Plug-In . SVG Version: 6.00 Build 0)  -->
<svg version="1.1" id="Layer_1" xmlns="http://www.w3.org/2000/svg" xmlns:xlink="http://www.w3.org/1999/xlink" x="0px" y="0px"
	 viewBox="0 0 400 400" style="enable-background:new 0 0 400 400;" xml:space="preserve">
<style type="text/css">
	.st0{clip-path:url(#SVGID_2_);}
	.st1{fill:#267FC1;}
	.st2{clip-path:url(#SVGID_2_);fill:#267FC1;}
</style>
<g>
	<defs>
		<rect id="SVGID_1_" x="0" width="400" height="400"/>
	</defs>
	<clipPath id="SVGID_2_">
		<use xlink:href="#SVGID_1_"  style="overflow:visible;"/>
	</clipPath>
	<g class="st0">
		<path class="st1" d="M102.1,330.4c0.2-4.9-3.8-8.3-3.8-12.7c0-3.1-3-2.4-5.1-2.4c-10.3-0.1-20.6,0-30.9,0
			c-27.3,0-54.6-0.1-81.8,0.1c-4.4,0-6.5-0.5-6.6-4.9c0-4.4,2.5-4.5,6.3-4.5c37.8,0.1,75.6,0,113.5,0c11.6,0,23.2,0,34.9,0
			c-3.9-8.4-10.8-12.5-20.4-12.5c-42.4,0-84.8-0.1-127.2,0.1c-6,0-7.1-1.6-7.1-6.3c0-4.5,1.4-5.8,6.9-5.8
			c38.3,0.2,76.6,0.1,114.8,0.1c2.5,0,5,0,8.5,0c-3.7-5.5-6.9-9.4-14.7-9.3c-36,0.2-72,0-108,0.2c-6.1,0-8.4-1.3-7.4-6.4
			c0.3-1.3,0.2-2.7,0-4.1c-0.7-4.1,1.6-4.8,5.9-4.8c29.1,0.1,58.2,0.1,87.3,0.1c2.5,0,5,0,8.2,0c-2.8-5.2-5.4-8.4-12.8-8.3
			c-27.5,0.4-55,0.1-82.5,0.3c-4.8,0-6.2-1.2-6.1-5.2c0.1-12.8-0.1-12.8,15-12.8c17.6,0,35.3,0.1,52.9-0.1c2.5,0,6.9,1.7,7.1-2.3
			c0.2-4.4-4.4-3.6-7.7-3.6c-20.2-0.1-40.3-0.2-60.5,0.1c-5.5,0.1-6.9-1.3-6.8-5.9c0.2-14.8,0-14.8,17.4-14.8c13.1,0,26.1,0,39.4,0
			c-1.8-4.7-5.5-5.6-10.6-5.5c-13.5,0.2-27,0-40.6,0.1c-4,0-5.8-0.8-5.6-4.5c0.3-5.6,0.2-11.3,0-16.9c-0.1-2.8,1.2-3.9,4.4-3.6
			c1.4,0.1,2.7,0,4.1,0c170.5,0,341.1,0,511.6,0c9.8,0,8.5-1.1,8.6,7.5c0.1,4.7-0.1,9.3,0,14c0.1,2.5-1.1,3.6-4,3.4
			c-2.1-0.1-4.1,0-6.2,0c-146.5,0-292.9,0-439.4,0c-2.5,0-4.9,0-7.9,0c2.8,5.1,7.3,5.5,12.5,5.5c145.3-0.1,290.6-0.1,436,0
			c10.2,0,9-1.2,9,7.8c0.1,12.8,0,12.8-15,12.8c-132,0-264.1,0-396.1,0c-2.7,0-5.3,0-9.2,0c4.6,4.6,9,6.1,14.9,6.1
			c132-0.1,264.1-0.1,396.1-0.1c10.7,0,9.2-1.2,9.3,8.2c0.1,9.8,0,9.8-11.6,9.8c-121.7,0-243.4,0-365.1,0c-2.5,0-4.9,0-8.3,0
			c4.3,5.4,8.5,8.3,16.3,8.3c120.1-0.2,240.2-0.2,360.3-0.1c2.7,0,7.1-1.5,7.9,1.4c1.1,4,0.3,8.5,0.1,12.7c0,0.3-1.9,0.8-3,0.9
			c-2,0.1-4.1,0.1-6.2,0.1c-113.7,0-227.4,0-341.1,0c-2.4,0-4.9,0-8,0c3.8,6.2,7.8,9.5,16.5,9.4c111.4-0.3,222.8-0.2,334.2-0.2
			c7.3,0,10.9,4.9,7.9,10.4c-0.8,1.4-2,1.4-3.4,1.4c-2.1,0-4.1,0-6.2,0c-106.4,0-212.7,0-319.1,0c-2.2,0-4.4,0-7.2,0
			c3.2,3.6,6.9,2.5,10.1,1.6c6.9-1.9,11.8,0.2,17.5,3.6c6.1,3.6,12.2,7.5,21,7.5c93.3-0.3,186.6-0.2,279.9-0.3
			c5.1,0,8.3,0.3,7.5,5.8c-0.4,2.8-1.4,3.8-4.6,3.6c-1.6-0.1-3.2,0-4.8,0c-88.2,0-176.5,0-264.7,0c-2.7,0-5.4,0-8.1,0
			c-0.1,0.4-0.2,0.7-0.3,1.1c10.9,3.1,22.1,5.8,32.7,9.6c11.8,4.2,23.9,4.5,36.3,4.5c68.3-0.1,136.6-0.1,204.9-0.1
			c2.1,0,4.1,0,6.2,0.1c2.3,0.1,2.3,1.6,2.3,3c0,1.4,0,2.8-2.3,2.9c-2.1,0.1-4.1,0.1-6.2,0.1c-68.3,0-136.6,0-205,0.4
			c17.5,7,34.2,15.7,54.6,15.7c50.2,0,100.4,0,150.6,0c2.6,0,5.5-0.7,9.6,1.9c-52.1,0-102.5,0-152.9,0c6.8,3.8,14.2,2.6,21.4,3
			c3.8,0.2,9.1-0.7,9.6,3.5c0.6,4.7-5.3,4.6-8.9,5.5c-2.3,0.6-5,0.2-7.5,0.2c-9.6,0.1-19.5,1.4-28.7-0.2c-6.7-1.2-13.5,0.4-19.9-2
			c-3.8-1.4-7.1-1.6-11.4,0.8c-3.9,2.1-9.1-1.4-13.9-1.6c-1.3-0.1-2.6-0.8-3.7-1.4c-11.6-6.2-25.1-6-37.7-6.6
			c-23.7-1.2-47.6-0.4-71.9-0.4c1.8,4.5,0.6,6.7-5,7.6c-5.7,0.9-10.9,0.7-16.4-0.7c-11.6-2.9-22.4-8.9-35.5-6.1
			c-3.5,0.7-7.6-0.6-11.5-0.6c-42.6-0.1-85.3,0-127.9-0.1c-2.6,0-5.3,0.5-8.3-0.9c2.4-2.5,5.3-1.6,7.8-1.6
			c41.9-0.1,83.9,0,125.8-0.2c2.4,0,6.7,2.1,7.4-1.5c0.7-4,1.5-8.6-3.6-11.7c-3.5-2.2-7.1-2.8-11.4-2.8c-39.7,0.1-79.3,0.1-119,0
			c-2.2,0-4.9,0.9-6.3-1c-0.7-1-0.6-2.8,0-3.9c0.9-1.7,3.2-1.1,4.9-1.1c19,0,38,0,57.1,0C58.3,330.4,80.1,330.4,102.1,330.4z
			 M241.1,350.5c-3-1.3-5.9-3-9.1-3.7c-15.7-3.5-31.4-6.9-47.1-10.1c-4.5-0.9-10-1.1-13.2,1.3c-2.6,2,1.5,5.4,2.3,8.2
			c0.5,1.8,1.8,3.5,2.7,5.3c0.7,1.4,2.2,1.2,3.5,1.2c22,0,44.1,0,67.6,0C244.6,351.7,242.9,351.1,241.1,350.5z M202.8,308.2
			c-1.8-5-8.3-3.4-10.5-6.3c-3.8-5.1-9.6-5-14.6-3.6c-7.4,2-12.5-0.5-17.4-4.2c-3.6-2.7-6.8-5.7-9.9-8.9
			c-19.4-20.3-40.6-39-65.9-54.2c-18.7-11.2-36.3-23.7-53.1-37c-1.2-1-2.4-3.3-4.2-2c-2.1,1.6,0,3,1.6,4.2
			c7.9,5.5,10.2,14.7,18.3,20.1c-3.7,6.6,10.2,7.8,6.3,14.6c-0.1,0.2,0.5,0.6,0.8,0.9c3.3,2.8,5.6,6.7,11.3,7c2,0.1,3,1.3,4.2,3.1
			c5,7.4,9.4,15,17.7,20.8c5.8,4,12.7,7.5,16.8,13.1c6,8.2,14,14.9,22,21.5c6.2,5.1,7.8,10.9,8.2,17.9c-9.3-2.1-18.1-4.1-26.9-6
			c-3.8-0.8-7.1,2-6.3,5.2c1.1,4.4,5.5,7.9,4.5,12.8c-0.1,0.5,2,1.5,3.1,2c1.9,0.9,4.4,1.1,5.4,3.1c-0.9,1.2-3.5-0.1-3.7,1.9
			c-0.1,1.4,1,2.2,2.4,2.4c7.5,1.4,6.3,6.3,6,10.7c-0.1,1.8-0.6,3.6,1.2,4.9c1.8,1.4,3.6-0.1,5-0.7c4.4-1.9,8.4-3,11.9,1.3
			c0.6,0.7,2.2,1.8,2.8,0.8c3.4-5.8,5.1,0.2,5.9,1c3.9,3.6,6.9,4,9.6-1.1c1,1.9,0.3,3.6,1.8,4.9c3.3,3,8.6-2.7,11.4,2.2
			c0.4,0.7,1.8-0.5,2.8-0.9c3.2-1.1,4.1-2.4,2.6-5.4c-3.1-6-5.6-12.2-8.6-18.7c6.9-1.2,13.8-4.1,19.9-2.5c12.4,3.3,25,5.8,37.6,7.9
			c14.7,2.5,26.7,11,41.6,12.5c4.7,0.5,10.9,5.5,14.8-1.9c3.5,3.6,6.8,6.4,11.4,8.6c4.5,2.1,10.3-2.6,13.5,2.6
			c0.5-0.4,1.2-0.6,1.6-1.1c2.5-2.9,5.5-1.7,8.7-1c3.5,0.8,8,2.7,10.5,1.6c5.4-2.4,10.4,0,15.1,0.1c11.4,0.4,22.9,1.1,34.4,0.8
			c1.3,0,3.2-0.3,3.6-2.2c-1.4-0.1-2.8-0.4-4.1-0.4c-26.2,0.2-50.2-7.1-73.9-15.7c-31.3-11.4-62.8-22.3-96.3-28.5
			c-5.1-0.9-10.5-1.9-13.8-6C193.8,308,198,307.7,202.8,308.2z"/>
	</g>
	<rect x="-20.3" y="-25.7" class="st2" width="447.5" height="194.4"/>
</g>
</svg>
