<?xml version="1.0" encoding="utf-8"?>
<!-- Generator: Adobe Illustrator 21.0.0, SVG Export Plug-In . SVG Version: 6.00 Build 0)  -->
<svg version="1.1" id="Layer_1" xmlns="http://www.w3.org/2000/svg" xmlns:xlink="http://www.w3.org/1999/xlink" x="0px" y="0px"
	 viewBox="0 0 400 400" style="enable-background:new 0 0 400 400;" xml:space="preserve">
<style type="text/css">
	.st0{fill-rule:evenodd;clip-rule:evenodd;fill:#8B633D;}
	.st1{fill-rule:evenodd;clip-rule:evenodd;fill:#573719;}
	.st2{fill-rule:evenodd;clip-rule:evenodd;fill:#C46E32;}
</style>
<g>
	<path class="st0" d="M250.9,111.8c-5.3,0.7-10.5,2.5-15.4,4.8c-14.8,6.9-29.4,7.6-44.1,0.2c-2.6-1.3-5.4-2.3-8.2-3.3
		c-15.7-5.2-30.3-0.6-38.2,11.1l64.2,64.2c4.9,4.9,12.7,4.9,17.6,0l57.5-57.5C279.2,117.5,266.2,109.7,250.9,111.8"/>
	<path class="st0" d="M304.3,93.7l-77.5-77.5c-4.9-4.9-12.7-4.9-17.6,0l-77.5,77.5c-4.9,4.9-4.9,12.7,0,17.6l5.8,5.8
		c8.5-11.7,23-18,38.3-16.2c6.6,0.8,12.8,2.5,18.6,5.5c11.9,6.1,23.7,6.6,35.9,0.4c10.9-5.6,22.6-7.9,34.9-5
		c12.3,2.9,21.9,10.5,27.4,21.2l11.7-11.7C309.2,106.5,309.2,98.6,304.3,93.7"/>
	<path class="st1" d="M205,191.2l-62.4-62.4c-1.2,2.5-2.1,5.3-2.8,8.3c-2.7,13.1-2,26.4,2.8,38.9c2.6,6.9,6.6,13.3,10.1,19.8
		c3.2,6,5.2,12.2,5.3,19.1c0.2,12.6,0.3,25.2,1,37.7c0,0.6,0.1,1.2,0.1,1.9l45.8-45.8C209.9,203.9,209.9,196.1,205,191.2"/>
	<path class="st1" d="M147.9,231.1C147.8,231.1,147.8,231.1,147.9,231.1c0-4.6-0.2-9.1,0-13.7c0.3-5.9-1.2-11.2-3.9-16.3
		c-3.4-6.3-7.4-12.4-9.9-19.1c-6.7-17.3-8-35.3-2.4-53.1c0.9-2.7,2-5.3,3.4-7.7l-7.5-7.5c-4.9-4.9-12.7-4.9-17.6,0l-77.5,77.5
		c-4.9,4.9-4.9,12.7,0,17.6l77.5,77.5c4.9,4.9,12.7,4.9,17.6,0l22.4-22.4C148.8,253,148,242.1,147.9,231.1"/>
	<path class="st2" d="M304.3,288.7L277,261.3c-0.6,5.7-1.4,11.5-2.4,17.2c-2.4,13.2-5.6,26.1-13,37.5c-2.6,4-5.8,7.5-9.9,10
		c-5.5,3.3-11.3,1.9-14.6-3.6c-2.3-3.8-2.5-8.2-2.9-12.5c-1.9-19.4-5-38.5-11.1-57.1c-1.2-3.7-2.9-7.2-4.6-10.7
		c-1.1-2.1-2.3-4.7-5.2-4.6c-2.7,0-4,2.5-5,4.6c-2.1,4.5-4.1,9.1-5.6,13.8c-5.5,17.8-8.5,36.1-10.3,54.7c-0.3,3.3-0.8,6.7-1.9,9.9
		c-2.3,7-10.8,10-17.3,4.5c-7.5-6.2-11.8-14.5-15.1-23.3c-3.8-10.3-6.1-21-7.5-31.9l-18.8,18.8c-4.9,4.9-4.9,12.7,0,17.6l77.5,77.5
		c4.9,4.9,12.7,4.9,17.6,0l77.5-77.5C309.2,301.4,309.2,293.5,304.3,288.7"/>
	<path class="st2" d="M175.8,313.2c1.3,1.5,2.9,2.6,4.7,4.3c0.4-1.7,0.7-2.7,0.9-3.6c2-13.7,3.8-27.4,6.2-41.1
		c2.1-11.6,5-23,10.9-33.3c2-3.6,4.8-7,7.9-9.7c4.1-3.6,9.6-3.5,13.8,0c2.6,2.2,5.2,4.8,6.7,7.8c3.1,6.2,6.1,12.7,8.2,19.3
		c5.4,17.1,8,34.7,9.8,52.4c0.2,2.5,0.6,4.9,0.9,8.1c3.8-2.1,5.9-4.7,7.8-7.5c5.1-7.9,7.6-16.7,9.6-25.7c2.3-10.6,3.8-21.3,4.7-32.1
		l-40.8-40.8c-4.9-4.9-12.7-4.9-17.6,0l-49.5,49.5c1.1,11,3.1,21.9,6.3,32.6C168.2,300.5,170.8,307.4,175.8,313.2"/>
</g>
</svg>
