<?xml version="1.0" encoding="UTF-8" standalone="no" ?>
<!DOCTYPE svg PUBLIC "-//W3C//DTD SVG 1.1//EN" "http://www.w3.org/Graphics/SVG/1.1/DTD/svg11.dtd">
<svg xmlns="http://www.w3.org/2000/svg" xmlns:xlink="http://www.w3.org/1999/xlink" version="1.1" width="505" height="327" viewBox="0 0 505 327" xml:space="preserve">
<desc>Created with Fabric.js 4.6.0</desc>
<defs>
</defs>
<g transform="matrix(9.62 0 0 9.62 300.09 1048.85)" id="L6uOhhYd7RBhiMELjZqO4"  >
<path style="stroke: none; stroke-width: 1; stroke-dasharray: none; stroke-linecap: butt; stroke-dashoffset: 0; stroke-linejoin: miter; stroke-miterlimit: 4; fill: rgb(255,153,0); fill-rule: nonzero; opacity: 1;" vector-effect="non-scaling-stroke"  transform=" translate(-128.19, -222.83)" d="M 221.503 210.324 C 116.26799999999999 260.40700000000004 50.958 218.50400000000002 9.150999999999982 193.053 C 6.563999999999982 191.44899999999998 2.166999999999982 193.428 5.9819999999999816 197.81 C 19.909999999999982 214.698 65.55499999999998 255.40300000000002 125.13499999999999 255.40300000000002 C 184.756 255.40300000000002 220.225 222.87100000000004 224.66199999999998 217.19600000000003 C 229.069 211.56900000000002 225.956 208.46500000000003 221.50199999999998 210.324 z M 251.058 194.002 C 248.232 190.322 233.874 189.63600000000002 224.838 190.746 C 215.78799999999998 191.824 202.204 197.35500000000002 203.385 200.67600000000002 C 203.99099999999999 201.92000000000002 205.22799999999998 201.36200000000002 211.445 200.80300000000003 C 217.679 200.181 235.143 197.97700000000003 238.78199999999998 202.73400000000004 C 242.438 207.52400000000003 233.212 230.34200000000004 231.527 234.02200000000005 C 229.899 237.70200000000006 232.149 238.65100000000004 235.207 236.20000000000005 C 238.22299999999998 233.75000000000006 243.683 227.40500000000006 247.34699999999998 218.42600000000004 C 250.986 209.39800000000005 253.20499999999998 196.80400000000003 251.057 194.00200000000004 z" stroke-linecap="round" />
</g>
<g transform="matrix(9.62 0 0 9.62 300.09 1048.85)" id="chT6B1Ash3_FOtTn5dd8-"  >
<path style="stroke: none; stroke-width: 1; stroke-dasharray: none; stroke-linecap: butt; stroke-dashoffset: 0; stroke-linejoin: miter; stroke-miterlimit: 4; fill: rgb(255,153,0); fill-rule: nonzero; opacity: 1;" vector-effect="non-scaling-stroke"  transform=" translate(-128.19, -222.83)" d="M 221.503 210.324 C 116.26799999999999 260.40700000000004 50.958 218.50400000000002 9.150999999999982 193.053 C 6.563999999999982 191.44899999999998 2.166999999999982 193.428 5.9819999999999816 197.81 C 19.909999999999982 214.698 65.55499999999998 255.40300000000002 125.13499999999999 255.40300000000002 C 184.756 255.40300000000002 220.225 222.87100000000004 224.66199999999998 217.19600000000003 C 229.069 211.56900000000002 225.956 208.46500000000003 221.50199999999998 210.324 z M 251.058 194.002 C 248.232 190.322 233.874 189.63600000000002 224.838 190.746 C 215.78799999999998 191.824 202.204 197.35500000000002 203.385 200.67600000000002 C 203.99099999999999 201.92000000000002 205.22799999999998 201.36200000000002 211.445 200.80300000000003 C 217.679 200.181 235.143 197.97700000000003 238.78199999999998 202.73400000000004 C 242.438 207.52400000000003 233.212 230.34200000000004 231.527 234.02200000000005 C 229.899 237.70200000000006 232.149 238.65100000000004 235.207 236.20000000000005 C 238.22299999999998 233.75000000000006 243.683 227.40500000000006 247.34699999999998 218.42600000000004 C 250.986 209.39800000000005 253.20499999999998 196.80400000000003 251.057 194.00200000000004 z" stroke-linecap="round" />
</g>
<g transform="matrix(1.25 0 0 1.15 252.21 163.75)" id="95TLtgSpkJV6sszloVzvA"  >
<path style="stroke: none; stroke-width: 1; stroke-dasharray: none; stroke-linecap: butt; stroke-dashoffset: 0; stroke-linejoin: miter; stroke-miterlimit: 4; fill: rgb(0,159,223); fill-rule: nonzero; opacity: 1;" vector-effect="non-scaling-stroke"  transform=" translate(-200.1, -144.75)" d="M 98.4 4.7 C 102.4 4.7 106.4 4.7 110.4 4.7 C 110.60000000000001 4.8 110.80000000000001 5 111 5 C 115.7 5.4 120.4 6.2 125 7.4 C 141.2 11.8 154.5 20.6 165.1 33.6 C 166.1 34.800000000000004 166.6 35.2 167.9 33.9 C 186.20000000000002 16.5 207.8 10 232.5 15.299999999999997 C 252.4 19.599999999999998 267.3 31.199999999999996 277.9 48.5 C 278.59999999999997 49.7 279.09999999999997 50.1 280.59999999999997 49.4 C 297.99999999999994 42.1 315.9 40.7 334.2 45.1 C 352.5 49.5 367.7 59.2 379.8 73.6 C 390.3 86.19999999999999 396.7 100.6 399.1 116.8 C 399.40000000000003 118.8 399.20000000000005 120.89999999999999 400.1 122.8 C 400.1 127.39999999999999 400.1 132 400.1 136.6 C 399.70000000000005 136.79999999999998 399.8 137.2 399.8 137.5 C 399.40000000000003 140.2 399.2 143 398.7 145.7 C 394.5 166.79999999999998 384.3 184.39999999999998 367.4 197.79999999999998 C 347.09999999999997 213.89999999999998 323.9 219.49999999999997 298.29999999999995 215.2 C 297.09999999999997 215 296.69999999999993 215.29999999999998 296.09999999999997 216.2 C 285.29999999999995 233.79999999999998 269.7 244.2 249.19999999999996 246.7 C 237.59999999999997 248.2 226.39999999999995 246.39999999999998 215.79999999999995 241.5 C 214.59999999999997 240.9 214.09999999999997 241.1 213.59999999999997 242.3 C 210.59999999999997 249.20000000000002 206.39999999999998 255.5 201.29999999999995 261.1 C 190.49999999999994 272.90000000000003 177.29999999999995 280.40000000000003 161.59999999999997 283.5 C 158.99999999999997 284 156.39999999999998 284 153.89999999999998 284.8 C 149.99999999999997 284.8 146.09999999999997 284.8 142.29999999999998 284.8 C 142.2 284.5 141.79999999999998 284.5 141.6 284.5 C 138.29999999999998 284.2 135.1 283.7 131.9 282.9 C 107.80000000000001 276.79999999999995 91 262.2 81.4 239.29999999999998 C 80.80000000000001 237.99999999999997 80.2 237.7 78.9 237.99999999999997 C 72.60000000000001 239.29999999999998 66.2 239.39999999999998 59.800000000000004 238.69999999999996 C 45.2 237.19999999999996 32.5 231.29999999999995 21.800000000000004 221.29999999999995 C 11 211.3 4.3 199 1.4 184.6 C 0.8999999999999999 182.2 0.9999999999999999 179.6 0.09999999999999987 177.29999999999998 C 0.09999999999999987 173.7 0.09999999999999987 169.99999999999997 0.09999999999999987 166.39999999999998 C 0.4999999999999999 166.2 0.39999999999999986 165.79999999999998 0.39999999999999986 165.49999999999997 C 0.7999999999999998 162.79999999999998 0.9999999999999998 160.09999999999997 1.5999999999999999 157.49999999999997 C 5.8 138.99999999999997 15.799999999999999 124.49999999999997 31.900000000000002 114.39999999999998 C 33.1 113.59999999999998 33.400000000000006 113.09999999999998 32.800000000000004 111.69999999999997 C 27.100000000000005 97.79999999999997 25.700000000000003 83.29999999999998 28.300000000000004 68.59999999999997 C 31.000000000000004 53.599999999999966 37.7 40.39999999999996 48.2 29.29999999999997 C 59.8 16.9 73.9 9.2 90.6 6 C 93.2 5.5 95.9 5.6 98.4 4.7 z M 228.7 124.3 C 229.2 124.3 229.79999999999998 124.2 230.29999999999998 124.3 C 232.1 124.5 233.1 124.1 233.39999999999998 121.89999999999999 C 233.89999999999998 117.99999999999999 234.09999999999997 118.1 230.2 118.1 C 225.29999999999998 118.1 225.29999999999998 118.1 226.79999999999998 113.39999999999999 C 227.79999999999998 110.3 230.29999999999998 108.6 233.49999999999997 108.89999999999999 C 234.59999999999997 108.99999999999999 235.99999999999997 109.89999999999999 236.79999999999998 109.19999999999999 C 237.6 108.49999999999999 237.79999999999998 106.99999999999999 238.2 105.89999999999999 C 238.39999999999998 105.49999999999999 238.5 104.99999999999999 238.7 104.6 C 239 103.89999999999999 238.7 103.5 238 103.3 C 233.3 102.1 228.8 102.2 224.6 104.89999999999999 C 221 107.3 219.7 111.1 218.7 114.99999999999999 C 217.89999999999998 118.09999999999998 218 118.19999999999999 214.79999999999998 118.09999999999998 C 212.89999999999998 117.99999999999999 211.99999999999997 118.49999999999999 211.7 120.59999999999998 C 211.1 124.39999999999998 211 124.39999999999998 214.89999999999998 124.39999999999998 C 217.2 124.39999999999998 217.09999999999997 124.39999999999998 216.7 126.59999999999998 C 215.29999999999998 134.2 214 141.79999999999998 212.6 149.39999999999998 C 211.9 152.99999999999997 211.5 156.7 210.1 160.2 C 208.5 164.1 206.2 165.39999999999998 202.2 164.29999999999998 C 200.29999999999998 163.79999999999998 199.89999999999998 164.6 199.5 165.99999999999997 C 198.1 170.19999999999996 198 170.39999999999998 202.5 170.79999999999998 C 207.8 171.29999999999998 212.6 170.2 215.6 165.2 C 217.2 162.7 218.1 159.89999999999998 218.6 157 C 220.4 147.3 222.1 137.7 223.9 128 C 224.6 124.3 224.5 124.3 228.7 124.3 z M 119.8 140.7 C 119.7 135.89999999999998 119.89999999999999 132.1 119.6 128.2 C 119.19999999999999 123.19999999999999 116.6 119.6 111.8 118.19999999999999 C 106 116.49999999999999 100.3 117.1 94.69999999999999 119.1 C 91.39999999999999 120.3 91.39999999999999 120.3 92.6 123.5 C 92.8 123.9 92.89999999999999 124.4 93.1 124.8 C 93.39999999999999 125.89999999999999 93.89999999999999 126.3 95.1 125.7 C 98 124.2 101.19999999999999 123.7 104.39999999999999 123.60000000000001 C 109.69999999999999 123.4 112.1 125.50000000000001 112.3 130.10000000000002 C 112.39999999999999 131.3 112.1 131.70000000000002 110.7 131.50000000000003 C 107.10000000000001 131.00000000000003 103.4 130.80000000000004 99.8 131.60000000000002 C 93.3 133.00000000000003 89 137.70000000000002 89.7 144.8 C 90.2 150.10000000000002 94.3 153.8 100.4 154.5 C 106.4 155.2 112.2 154.1 118 152.9 C 119.2 152.6 119.6 152.1 119.6 150.9 C 119.8 147.3 119.8 143.5 119.8 140.7 z M 161.2 138.1 C 164.6 138.1 168 138.1 171.39999999999998 138.1 C 172.59999999999997 138.1 173.2 137.9 173.29999999999998 136.5 C 173.39999999999998 134.8 173.29999999999998 133.2 173.2 131.6 C 172.79999999999998 124.39999999999999 168.1 118 159.5 117.39999999999999 C 152.6 116.89999999999999 146 120.39999999999999 143.3 126.39999999999999 C 141.10000000000002 131.39999999999998 140.9 136.6 141.9 141.89999999999998 C 143 147.39999999999998 146.1 151.49999999999997 151.4 153.39999999999998 C 157.5 155.7 163.70000000000002 155.29999999999998 169.8 153.29999999999998 C 172.20000000000002 152.49999999999997 172.20000000000002 152.39999999999998 171.3 149.89999999999998 C 171.10000000000002 149.2 170.8 148.59999999999997 170.60000000000002 147.89999999999998 C 170.3 146.79999999999998 169.70000000000002 146.59999999999997 168.60000000000002 146.99999999999997 C 166.00000000000003 148.09999999999997 163.3 148.39999999999998 160.50000000000003 148.49999999999997 C 153.80000000000004 148.69999999999996 150.00000000000003 145.49999999999997 149.30000000000004 139.49999999999997 C 149.20000000000005 138.29999999999998 149.40000000000003 137.99999999999997 150.60000000000005 137.99999999999997 C 154.3 138.1 157.7 138.1 161.2 138.1 z M 346.9 138.1 C 350.4 138.1 354 138.1 357.5 138.1 C 358.6 138.1 359 137.7 359.1 136.7 C 359.1 135.29999999999998 359.20000000000005 133.89999999999998 359.20000000000005 132.5 C 358.6 123.9 353.80000000000007 118 345.20000000000005 117.4 C 337.6 116.9 331.00000000000006 121 328.6 128 C 327.1 132.3 326.8 136.7 327.70000000000005 141.2 C 328.6 146 330.80000000000007 150.1 335.30000000000007 152.39999999999998 C 342.4000000000001 155.99999999999997 349.70000000000005 155.49999999999997 356.9000000000001 152.79999999999998 C 357.80000000000007 152.49999999999997 358.1000000000001 151.99999999999997 357.6000000000001 151.1 C 357.1000000000001 150.1 356.80000000000007 149 356.50000000000006 148 C 356.20000000000005 146.9 355.70000000000005 146.7 354.6000000000001 147.1 C 351.80000000000007 148.2 348.80000000000007 148.6 345.80000000000007 148.6 C 339.70000000000005 148.6 336.30000000000007 145.7 335.4000000000001 140.1 C 335.2000000000001 138.79999999999998 335.2000000000001 137.9 337.0000000000001 138 C 340.1 138.2 343.5 138.1 346.9 138.1 z M 267.9 135.8 C 267.9 135.20000000000002 267.79999999999995 134.3 267.7 133.3 C 267.2 123.9 261.2 117.9 251.79999999999998 117.30000000000001 C 243.79999999999998 116.80000000000001 237.2 121.70000000000002 235.29999999999998 129.4 C 234.29999999999998 133.3 234.29999999999998 137.20000000000002 234.99999999999997 141.1 C 236.09999999999997 147.4 239.39999999999998 152.2 245.79999999999998 154 C 252.39999999999998 155.9 258.7 155 263.59999999999997 149.7 C 267 146 267.8 141.2 267.9 135.8 z M 192.4 155 C 194.8 155.1 197.4 154.7 199.8 153.5 C 203.4 151.8 205.3 148.9 205.70000000000002 144.9 C 206.10000000000002 140.6 204.50000000000003 137.5 200.8 135.4 C 199 134.4 197.10000000000002 133.70000000000002 195.10000000000002 133 C 192.60000000000002 132.1 190.00000000000003 131.6 187.8 130 C 185.8 128.6 185.8 126.2 187.60000000000002 124.6 C 188.50000000000003 123.8 189.50000000000003 123.5 190.70000000000002 123.39999999999999 C 193.60000000000002 123.19999999999999 196.3 123.8 199.00000000000003 124.6 C 200.30000000000004 125 201.70000000000002 126.6 202.80000000000004 125.8 C 203.80000000000004 125.1 204.00000000000003 123.3 204.60000000000005 121.89999999999999 C 204.60000000000005 121.8 204.60000000000005 121.8 204.60000000000005 121.69999999999999 C 204.90000000000006 120.89999999999999 204.70000000000005 120.39999999999999 204.00000000000006 119.99999999999999 C 198.50000000000006 117.19999999999999 192.70000000000005 116.09999999999998 186.70000000000005 117.99999999999999 C 182.20000000000005 119.39999999999999 179.50000000000006 122.99999999999999 179.20000000000005 127.79999999999998 C 178.90000000000003 131.99999999999997 180.90000000000003 134.99999999999997 185.30000000000004 137.1 C 186.20000000000005 137.6 187.20000000000005 137.9 188.20000000000005 138.2 C 190.70000000000005 139.1 193.20000000000005 139.79999999999998 195.70000000000005 140.79999999999998 C 197.90000000000003 141.7 198.80000000000004 143.1 198.60000000000005 144.7 C 198.40000000000006 146.6 197.20000000000005 147.89999999999998 195.00000000000006 148.5 C 191.10000000000005 149.4 187.50000000000006 148.3 184.00000000000006 146.8 C 182.70000000000005 146.20000000000002 181.60000000000005 144.60000000000002 180.30000000000007 145.10000000000002 C 179.10000000000008 145.70000000000002 179.20000000000007 147.70000000000002 178.50000000000006 149.00000000000003 C 177.90000000000006 150.20000000000002 178.30000000000007 150.80000000000004 179.40000000000006 151.40000000000003 C 183.2 153.9 187.5 155.1 192.4 155 z M 72.4 155 C 74.80000000000001 155.1 77.60000000000001 154.6 80.10000000000001 153.3 C 83.9 151.3 85.50000000000001 147.9 85.7 143.8 C 85.8 139.9 83.8 137.3 80.60000000000001 135.4 C 78.50000000000001 134.20000000000002 76.30000000000001 133.5 74.10000000000001 132.8 C 72.00000000000001 132.10000000000002 69.9 131.60000000000002 68.10000000000001 130.4 C 66.9 129.6 66.2 128.6 66.4 127 C 66.60000000000001 125.5 67.5 124.6 68.80000000000001 124 C 69.60000000000001 123.6 70.50000000000001 123.5 71.4 123.5 C 74.9 123.4 78.10000000000001 124.3 81.30000000000001 125.7 C 81.9 126 82.60000000000001 126.7 83.20000000000002 125.60000000000001 C 84.30000000000001 123.80000000000001 84.90000000000002 120.9 84.20000000000002 120.30000000000001 C 84.20000000000002 120.30000000000001 84.10000000000002 120.20000000000002 84.00000000000001 120.20000000000002 C 78.00000000000001 117.10000000000002 71.70000000000002 115.90000000000002 65.20000000000002 118.60000000000002 C 61.000000000000014 120.40000000000002 59.000000000000014 123.80000000000003 59.000000000000014 128.40000000000003 C 59.000000000000014 132.90000000000003 61.500000000000014 135.50000000000003 65.30000000000001 137.30000000000004 C 66.50000000000001 137.90000000000003 67.80000000000001 138.20000000000005 69.10000000000001 138.70000000000005 C 71.30000000000001 139.40000000000003 73.50000000000001 140.10000000000005 75.60000000000001 140.90000000000003 C 77.80000000000001 141.80000000000004 78.60000000000001 143.00000000000003 78.50000000000001 144.80000000000004 C 78.40000000000002 146.60000000000005 77.10000000000001 148.10000000000005 74.90000000000002 148.60000000000005 C 71.10000000000002 149.50000000000006 67.50000000000001 148.40000000000006 64.00000000000001 146.90000000000006 C 62.70000000000002 146.30000000000007 61.500000000000014 144.60000000000005 60.20000000000002 145.20000000000007 C 58.90000000000002 145.8000000000001 59.100000000000016 147.90000000000006 58.40000000000002 149.20000000000007 C 57.90000000000002 150.20000000000007 58.20000000000002 150.80000000000007 59.10000000000002 151.30000000000007 C 62.9 153.8 67.2 155 72.4 155 z M 316.9 148.4 C 310 148.6 306.29999999999995 146 305 140.20000000000002 C 304.3 137.10000000000002 304.4 134.00000000000003 305.3 131.00000000000003 C 306.40000000000003 127.50000000000003 308.40000000000003 124.80000000000003 312.2 124.00000000000003 C 314.3 123.60000000000002 316.4 123.80000000000003 318.5 123.90000000000003 C 319.9 124.00000000000003 321.5 125.30000000000004 322.6 124.30000000000004 C 323.6 123.40000000000003 323.70000000000005 121.60000000000004 324.20000000000005 120.30000000000004 C 324.70000000000005 119.20000000000005 324.30000000000007 118.90000000000003 323.30000000000007 118.50000000000004 C 321.00000000000006 117.80000000000004 318.6000000000001 117.50000000000004 316.20000000000005 117.30000000000004 C 307.50000000000006 116.50000000000004 300.70000000000005 120.70000000000005 297.90000000000003 128.50000000000003 C 296.6 132.20000000000002 296.40000000000003 136.00000000000003 296.90000000000003 139.80000000000004 C 297.90000000000003 146.80000000000004 301.8 152.70000000000005 309.40000000000003 154.30000000000004 C 313.40000000000003 155.10000000000005 317.3 155.00000000000003 321.3 154.10000000000005 C 325 153.30000000000004 325 153.20000000000005 323.7 149.60000000000005 C 323.5 149.10000000000005 323.4 148.60000000000005 323.2 148.10000000000005 C 322.9 147.40000000000006 322.59999999999997 147.00000000000006 321.59999999999997 147.40000000000006 C 320 148.2 318 148.4 316.9 148.4 z M 127.3 128.7 C 127.3 135.39999999999998 127.3 142.1 127.3 148.79999999999998 C 127.3 150.49999999999997 126.6 152.6 127.6 153.7 C 128.7 154.89999999999998 130.9 153.89999999999998 132.7 154.2 C 134.39999999999998 154.39999999999998 134.7 153.7 134.7 152.1 C 134.6 137.6 134.7 123.1 134.7 108.6 C 134.7 106.89999999999999 135.39999999999998 104.69999999999999 134.39999999999998 103.69999999999999 C 133.2 102.49999999999999 130.89999999999998 103.39999999999999 129.09999999999997 103.19999999999999 C 127.59999999999997 102.99999999999999 127.19999999999996 103.6 127.19999999999996 105.1 C 127.4 113 127.3 120.8 127.3 128.7 z M 281.7 121.3 C 281.2 118.2 281.2 118.2 278 118.2 C 277.5 118.2 276.9 118.3 276.4 118.2 C 274.7 118 274.09999999999997 118.60000000000001 274.09999999999997 120.4 C 274.2 130.8 274.09999999999997 141.20000000000002 274.09999999999997 151.6 C 274.09999999999997 154.2 274.09999999999997 154.2 276.79999999999995 154.2 C 277.69999999999993 154.2 278.59999999999997 154.1 279.4 154.2 C 281.2 154.39999999999998 281.59999999999997 153.6 281.7 151.89999999999998 C 281.7 145.59999999999997 281.5 139.29999999999998 281.9 133.09999999999997 C 282.2 127.99999999999997 285.09999999999997 124.89999999999996 289.59999999999997 124.59999999999997 C 290.99999999999994 124.49999999999997 292.79999999999995 125.39999999999996 293.79999999999995 124.29999999999997 C 294.69999999999993 123.29999999999997 294.79999999999995 121.59999999999997 295.4 120.29999999999997 C 295.9 119.19999999999997 295.7 118.59999999999997 294.4 118.39999999999996 C 289.6 117.3 285.3 117.8 281.7 121.3 z" stroke-linecap="round" />
</g>
<g transform="matrix(1.25 0 0 1.15 275.56 154.43)" id="ZYDTizxQtQFrerVwzUIBd"  >
<path style="stroke: none; stroke-width: 1; stroke-dasharray: none; stroke-linecap: butt; stroke-dashoffset: 0; stroke-linejoin: miter; stroke-miterlimit: 4; fill: rgb(250,252,253); fill-rule: nonzero; opacity: 1;" vector-effect="non-scaling-stroke"  transform=" translate(-218.83, -136.62)" d="M 228.7 124.3 C 224.6 124.3 224.6 124.3 224 127.89999999999999 C 222.3 137.6 220.5 147.2 218.7 156.89999999999998 C 218.2 159.79999999999998 217.2 162.59999999999997 215.7 165.09999999999997 C 212.7 170.09999999999997 207.89999999999998 171.19999999999996 202.6 170.69999999999996 C 198.1 170.29999999999995 198.2 170.09999999999997 199.6 165.89999999999995 C 200.1 164.49999999999994 200.5 163.69999999999996 202.29999999999998 164.19999999999996 C 206.29999999999998 165.29999999999995 208.7 163.99999999999997 210.2 160.09999999999997 C 211.6 156.69999999999996 212 152.99999999999997 212.7 149.29999999999995 C 214.1 141.69999999999996 215.39999999999998 134.09999999999997 216.79999999999998 126.49999999999996 C 217.2 124.29999999999995 217.29999999999998 124.29999999999995 214.99999999999997 124.29999999999995 C 211.09999999999997 124.29999999999995 211.19999999999996 124.29999999999995 211.79999999999998 120.49999999999996 C 212.1 118.39999999999996 212.99999999999997 117.99999999999996 214.89999999999998 117.99999999999996 C 218.09999999999997 118.09999999999995 217.99999999999997 117.99999999999996 218.79999999999998 114.89999999999996 C 219.79999999999998 110.99999999999996 221.1 107.19999999999996 224.7 104.79999999999997 C 228.79999999999998 101.99999999999997 233.39999999999998 101.99999999999997 238.1 103.19999999999997 C 238.79999999999998 103.39999999999998 239.1 103.79999999999997 238.79999999999998 104.49999999999997 C 238.6 104.89999999999998 238.49999999999997 105.39999999999998 238.29999999999998 105.79999999999997 C 237.89999999999998 106.89999999999996 237.7 108.39999999999996 236.89999999999998 109.09999999999997 C 236.09999999999997 109.79999999999997 234.7 108.89999999999996 233.59999999999997 108.79999999999997 C 230.39999999999998 108.49999999999997 227.99999999999997 110.19999999999997 226.89999999999998 113.29999999999997 C 225.29999999999998 118.09999999999997 225.29999999999998 118.09999999999997 230.29999999999998 117.99999999999997 C 234.2 117.99999999999997 233.99999999999997 117.99999999999997 233.49999999999997 121.79999999999997 C 233.19999999999996 123.99999999999997 232.29999999999998 124.39999999999996 230.39999999999998 124.19999999999997 C 229.8 124.2 229.2 124.3 228.7 124.3 z" stroke-linecap="round" />
</g>
<g transform="matrix(1.25 0 0 1.15 133.46 153.79)" id="_GDNhblx3yvVtMk9mZ5qi"  >
<path style="stroke: none; stroke-width: 1; stroke-dasharray: none; stroke-linecap: butt; stroke-dashoffset: 0; stroke-linejoin: miter; stroke-miterlimit: 4; fill: rgb(250,252,253); fill-rule: nonzero; opacity: 1;" vector-effect="non-scaling-stroke"  transform=" translate(-104.83, -136.06)" d="M 119.8 140.7 C 119.8 143.5 119.8 147.2 119.8 151 C 119.8 152.2 119.39999999999999 152.8 118.2 153 C 112.4 154.2 106.60000000000001 155.3 100.6 154.6 C 94.5 153.9 90.39999999999999 150.2 89.89999999999999 144.9 C 89.19999999999999 137.70000000000002 93.49999999999999 133.1 99.99999999999999 131.70000000000002 C 103.59999999999998 130.9 107.19999999999999 131.00000000000003 110.89999999999999 131.60000000000002 C 112.19999999999999 131.8 112.49999999999999 131.40000000000003 112.49999999999999 130.20000000000002 C 112.29999999999998 125.60000000000002 109.89999999999999 123.50000000000001 104.59999999999998 123.70000000000002 C 101.39999999999998 123.80000000000001 98.19999999999997 124.30000000000001 95.29999999999998 125.80000000000001 C 94.09999999999998 126.4 93.59999999999998 126.00000000000001 93.29999999999998 124.9 C 93.19999999999999 124.5 92.99999999999999 124 92.79999999999998 123.60000000000001 C 91.59999999999998 120.4 91.59999999999998 120.4 94.89999999999998 119.2 C 100.49999999999997 117.2 106.19999999999997 116.60000000000001 111.99999999999997 118.3 C 116.79999999999997 119.7 119.39999999999998 123.3 119.79999999999997 128.3 C 119.9 132.1 119.7 135.9 119.8 140.7 z M 112.5 142.9 C 112.4 142.9 112.4 142.9 112.5 142.9 C 112.5 141.5 112.5 140.1 112.5 138.70000000000002 C 112.5 138.10000000000002 112.5 137.50000000000003 111.7 137.4 C 108.3 137.1 104.8 136.5 101.4 137.70000000000002 C 98.4 138.70000000000002 97.2 140.60000000000002 97.4 143.9 C 97.5 146.4 99.10000000000001 148 102 148.6 C 104.6 149.2 107.3 148.79999999999998 109.9 148.5 C 112.50000000000001 148.20000000000002 112.5 148.1 112.5 145.3 C 112.5 144.6 112.5 143.8 112.5 142.9 z" stroke-linecap="round" />
</g>
<g transform="matrix(1.25 0 0 1.15 199.15 154.02)" id="JkdWzQFvhG1lG-AnJF2ln"  >
<path style="stroke: none; stroke-width: 1; stroke-dasharray: none; stroke-linecap: butt; stroke-dashoffset: 0; stroke-linejoin: miter; stroke-miterlimit: 4; fill: rgb(250,252,253); fill-rule: nonzero; opacity: 1;" vector-effect="non-scaling-stroke"  transform=" translate(-157.53, -136.26)" d="M 161.2 138.1 C 157.7 138.1 154.29999999999998 138.1 150.79999999999998 138.1 C 149.6 138.1 149.29999999999998 138.4 149.49999999999997 139.6 C 150.09999999999997 145.7 153.99999999999997 148.9 160.69999999999996 148.6 C 163.49999999999997 148.5 166.19999999999996 148.2 168.79999999999995 147.1 C 169.89999999999995 146.6 170.39999999999995 146.9 170.79999999999995 148 C 170.99999999999994 148.7 171.29999999999995 149.3 171.49999999999994 150 C 172.39999999999995 152.4 172.39999999999995 152.6 169.99999999999994 153.4 C 163.89999999999995 155.4 157.69999999999993 155.8 151.59999999999994 153.5 C 146.29999999999993 151.5 143.19999999999993 147.5 142.09999999999994 142 C 141.09999999999994 136.7 141.29999999999993 131.5 143.49999999999994 126.5 C 146.09999999999994 120.5 152.79999999999995 117 159.69999999999993 117.5 C 168.29999999999993 118.1 172.99999999999994 124.5 173.39999999999992 131.7 C 173.49999999999991 133.29999999999998 173.5999999999999 135 173.49999999999991 136.6 C 173.39999999999992 138 172.79999999999993 138.2 171.5999999999999 138.2 C 168 138 164.6 138.1 161.2 138.1 z M 157.5 132.4 C 159.9 132.4 162.3 132.4 164.7 132.4 C 165.2 132.4 165.7 132.6 165.79999999999998 131.70000000000002 C 166.1 128.8 163.6 124.90000000000002 160.7 124.00000000000001 C 155.2 122.30000000000001 150.29999999999998 125.60000000000001 149.5 131.4 C 149.4 132.4 149.8 132.5 150.6 132.4 C 153 132.4 155.2 132.4 157.5 132.4 z" stroke-linecap="round" />
</g>
<g transform="matrix(1.25 0 0 1.15 430.5 153.86)" id="w3W7Osg_6z8KslE9mLL-G"  >
<path style="stroke: none; stroke-width: 1; stroke-dasharray: none; stroke-linecap: butt; stroke-dashoffset: 0; stroke-linejoin: miter; stroke-miterlimit: 4; fill: rgb(250,252,253); fill-rule: nonzero; opacity: 1;" vector-effect="non-scaling-stroke"  transform=" translate(-343.14, -136.12)" d="M 346.9 138.1 C 343.59999999999997 138.1 340.2 138.2 336.9 138 C 335 137.9 335 138.8 335.29999999999995 140.1 C 336.19999999999993 145.79999999999998 339.59999999999997 148.6 345.69999999999993 148.6 C 348.69999999999993 148.6 351.69999999999993 148.29999999999998 354.49999999999994 147.1 C 355.59999999999997 146.7 356.09999999999997 146.9 356.3999999999999 148 C 356.69999999999993 149.1 357.0999999999999 150.1 357.49999999999994 151.1 C 357.8999999999999 152 357.59999999999997 152.5 356.79999999999995 152.79999999999998 C 349.49999999999994 155.39999999999998 342.29999999999995 155.89999999999998 335.19999999999993 152.39999999999998 C 330.69999999999993 150.09999999999997 328.49999999999994 145.99999999999997 327.5999999999999 141.2 C 326.7999999999999 136.7 326.9999999999999 132.29999999999998 328.4999999999999 127.99999999999999 C 330.9999999999999 120.89999999999999 337.4999999999999 116.89999999999999 345.0999999999999 117.39999999999999 C 353.69999999999993 117.99999999999999 358.5999999999999 123.8 359.0999999999999 132.5 C 359.19999999999993 133.9 359.0999999999999 135.3 358.9999999999999 136.7 C 358.9999999999999 137.7 358.4999999999999 138.1 357.39999999999986 138.1 C 353.9 138 350.4 138.1 346.9 138.1 z M 343.4 132.4 C 345.7 132.4 348.09999999999997 132.4 350.4 132.4 C 350.9 132.4 351.59999999999997 132.6 351.59999999999997 131.6 C 351.59999999999997 128.2 349.2 124.89999999999999 346.09999999999997 123.89999999999999 C 340.79999999999995 122.3 336.29999999999995 125.3 335.29999999999995 131.1 C 335.09999999999997 132.1 335.19999999999993 132.4 336.29999999999995 132.4 C 338.7 132.4 341.1 132.4 343.4 132.4 z" stroke-linecap="round" />
</g>
<g transform="matrix(1.25 0 0 1.15 315.87 153.82)" id="lgpAWusix7YksV4XaNfAe"  >
<path style="stroke: none; stroke-width: 1; stroke-dasharray: none; stroke-linecap: butt; stroke-dashoffset: 0; stroke-linejoin: miter; stroke-miterlimit: 4; fill: rgb(250,252,253); fill-rule: nonzero; opacity: 1;" vector-effect="non-scaling-stroke"  transform=" translate(-251.17, -136.09)" d="M 267.9 135.8 C 267.79999999999995 141.10000000000002 267 145.9 263.5 149.70000000000002 C 258.6 155.00000000000003 252.3 155.9 245.7 154.00000000000003 C 239.39999999999998 152.20000000000002 236.1 147.40000000000003 234.89999999999998 141.10000000000002 C 234.2 137.20000000000002 234.29999999999998 133.3 235.2 129.40000000000003 C 237.1 121.70000000000003 243.7 116.80000000000004 251.7 117.30000000000004 C 261.09999999999997 117.90000000000003 267.09999999999997 123.90000000000003 267.59999999999997 133.30000000000004 C 267.8 134.3 267.9 135.3 267.9 135.8 z M 260 136.1 C 260.1 133.79999999999998 259.8 131.29999999999998 258.9 128.9 C 257.59999999999997 125.5 254.99999999999997 123.7 251.39999999999998 123.7 C 247.79999999999998 123.60000000000001 245.09999999999997 125.2 243.79999999999998 128.6 C 241.7 134.1 241.7 139.7 244.29999999999998 145.1 C 245.7 147.9 248.2 148.79999999999998 251.2 148.79999999999998 C 254.29999999999998 148.79999999999998 256.7 147.79999999999998 258.2 144.99999999999997 C 259.7 142.3 260.1 139.3 260 136.1 z" stroke-linecap="round" />
</g>
<g transform="matrix(1.25 0 0 1.15 241.91 153.84)" id="444LMh2-eMwUweD-2WdzW"  >
<path style="stroke: none; stroke-width: 1; stroke-dasharray: none; stroke-linecap: butt; stroke-dashoffset: 0; stroke-linejoin: miter; stroke-miterlimit: 4; fill: rgb(250,252,253); fill-rule: nonzero; opacity: 1;" vector-effect="non-scaling-stroke"  transform=" translate(-191.84, -136.11)" d="M 192.4 155 C 187.5 155.1 183.20000000000002 153.9 179.20000000000002 151.5 C 178.20000000000002 150.9 177.8 150.3 178.3 149.1 C 178.9 147.79999999999998 178.9 145.79999999999998 180.10000000000002 145.2 C 181.3 144.6 182.50000000000003 146.29999999999998 183.8 146.89999999999998 C 187.3 148.39999999999998 190.9 149.59999999999997 194.8 148.59999999999997 C 197 148.09999999999997 198.20000000000002 146.69999999999996 198.4 144.79999999999995 C 198.6 143.19999999999996 197.70000000000002 141.79999999999995 195.5 140.89999999999995 C 193.1 139.89999999999995 190.5 139.19999999999996 188 138.29999999999995 C 187 137.99999999999994 186 137.59999999999997 185.1 137.19999999999996 C 180.7 135.09999999999997 178.7 132.09999999999997 179 127.89999999999996 C 179.3 123.09999999999997 182 119.49999999999996 186.5 118.09999999999997 C 192.5 116.29999999999997 198.3 117.29999999999997 203.8 120.09999999999997 C 204.60000000000002 120.49999999999997 204.8 120.99999999999997 204.4 121.79999999999997 C 204.4 121.89999999999996 204.4 121.89999999999996 204.4 121.99999999999997 C 203.8 123.29999999999997 203.6 125.19999999999997 202.6 125.89999999999998 C 201.5 126.69999999999997 200.1 125.09999999999998 198.79999999999998 124.69999999999997 C 196.1 123.89999999999998 193.39999999999998 123.29999999999997 190.49999999999997 123.49999999999997 C 189.29999999999998 123.59999999999997 188.29999999999998 123.89999999999998 187.39999999999998 124.69999999999997 C 185.49999999999997 126.29999999999997 185.59999999999997 128.59999999999997 187.59999999999997 130.09999999999997 C 189.79999999999995 131.69999999999996 192.39999999999998 132.19999999999996 194.89999999999998 133.09999999999997 C 196.79999999999998 133.79999999999995 198.79999999999998 134.49999999999997 200.59999999999997 135.49999999999997 C 204.29999999999995 137.59999999999997 205.99999999999997 140.69999999999996 205.49999999999997 144.99999999999997 C 205.09999999999997 148.89999999999998 203.19999999999996 151.79999999999998 199.59999999999997 153.59999999999997 C 197.4 154.7 194.8 155.1 192.4 155 z" stroke-linecap="round" />
</g>
<g transform="matrix(1.25 0 0 1.15 92.31 153.85)" id="XsZij5NHUIO31f37pQsmK"  >
<path style="stroke: none; stroke-width: 1; stroke-dasharray: none; stroke-linecap: butt; stroke-dashoffset: 0; stroke-linejoin: miter; stroke-miterlimit: 4; fill: rgb(250,252,253); fill-rule: nonzero; opacity: 1;" vector-effect="non-scaling-stroke"  transform=" translate(-71.81, -136.11)" d="M 72.4 155 C 67.30000000000001 155 63.00000000000001 153.8 59.00000000000001 151.4 C 58.10000000000001 150.9 57.70000000000001 150.3 58.300000000000004 149.3 C 59.00000000000001 148 58.900000000000006 145.9 60.1 145.3 C 61.4 144.70000000000002 62.6 146.4 63.9 147 C 67.4 148.5 71 149.6 74.8 148.7 C 77 148.2 78.3 146.7 78.39999999999999 144.89999999999998 C 78.49999999999999 143.09999999999997 77.8 141.89999999999998 75.49999999999999 140.99999999999997 C 73.39999999999999 140.09999999999997 71.19999999999999 139.49999999999997 68.99999999999999 138.79999999999998 C 67.69999999999999 138.39999999999998 66.39999999999999 137.99999999999997 65.19999999999999 137.39999999999998 C 61.39999999999999 135.7 58.89999999999999 132.99999999999997 58.89999999999999 128.49999999999997 C 58.89999999999999 123.99999999999997 60.99999999999999 120.49999999999997 65.1 118.69999999999997 C 71.5 115.99999999999997 77.8 117.19999999999997 83.89999999999999 120.29999999999997 C 83.99999999999999 120.29999999999997 83.99999999999999 120.39999999999996 84.1 120.39999999999996 C 84.8 120.99999999999996 84.19999999999999 123.89999999999996 83.1 125.69999999999996 C 82.39999999999999 126.79999999999995 81.8 125.99999999999996 81.19999999999999 125.79999999999995 C 78.1 124.39999999999995 74.79999999999998 123.49999999999996 71.29999999999998 123.59999999999995 C 70.39999999999998 123.59999999999995 69.49999999999999 123.69999999999995 68.69999999999999 124.09999999999995 C 67.39999999999999 124.69999999999995 66.49999999999999 125.59999999999995 66.29999999999998 127.09999999999995 C 66.09999999999998 128.69999999999996 66.79999999999998 129.69999999999996 67.99999999999999 130.49999999999994 C 69.89999999999999 131.69999999999993 71.99999999999999 132.19999999999993 73.99999999999999 132.89999999999995 C 76.19999999999999 133.59999999999994 78.39999999999999 134.39999999999995 80.49999999999999 135.49999999999994 C 83.79999999999998 137.39999999999995 85.79999999999998 139.99999999999994 85.59999999999998 143.89999999999995 C 85.49999999999999 147.99999999999994 83.89999999999998 151.39999999999995 79.99999999999999 153.39999999999995 C 77.5 154.6 74.8 155.1 72.4 155 z" stroke-linecap="round" />
</g>
<g transform="matrix(1.25 0 0 1.15 390.16 153.89)" id="KLKNJnERyXXL0dGWq_CB6"  >
<path style="stroke: none; stroke-width: 1; stroke-dasharray: none; stroke-linecap: butt; stroke-dashoffset: 0; stroke-linejoin: miter; stroke-miterlimit: 4; fill: rgb(250,252,253); fill-rule: nonzero; opacity: 1;" vector-effect="non-scaling-stroke"  transform=" translate(-310.77, -136.15)" d="M 316.9 148.4 C 318 148.4 320 148.20000000000002 321.79999999999995 147.5 C 322.69999999999993 147.1 323.09999999999997 147.5 323.4 148.2 C 323.59999999999997 148.7 323.7 149.2 323.9 149.7 C 325.2 153.29999999999998 325.2 153.29999999999998 321.5 154.2 C 317.6 155.1 313.6 155.29999999999998 309.6 154.39999999999998 C 301.90000000000003 152.79999999999998 298 146.89999999999998 297.1 139.89999999999998 C 296.6 136.09999999999997 296.8 132.29999999999998 298.1 128.59999999999997 C 300.90000000000003 120.79999999999997 307.70000000000005 116.69999999999996 316.40000000000003 117.39999999999996 C 318.8 117.59999999999997 321.20000000000005 117.89999999999996 323.50000000000006 118.59999999999997 C 324.50000000000006 118.89999999999996 324.90000000000003 119.29999999999997 324.40000000000003 120.39999999999996 C 323.8 121.69999999999996 323.70000000000005 123.49999999999996 322.8 124.39999999999996 C 321.7 125.39999999999996 320.1 124.09999999999997 318.7 123.99999999999996 C 316.59999999999997 123.89999999999996 314.5 123.69999999999996 312.4 124.09999999999995 C 308.59999999999997 124.89999999999995 306.5 127.59999999999995 305.5 131.09999999999997 C 304.6 134.09999999999997 304.5 137.29999999999995 305.2 140.29999999999995 C 306.3 146 309.9 148.6 316.9 148.4 z" stroke-linecap="round" />
</g>
<g transform="matrix(1.25 0 0 1.15 166.18 145.35)" id="IOYVchc9CxmRYf2XXcDma"  >
<path style="stroke: none; stroke-width: 1; stroke-dasharray: none; stroke-linecap: butt; stroke-dashoffset: 0; stroke-linejoin: miter; stroke-miterlimit: 4; fill: rgb(253,254,254); fill-rule: nonzero; opacity: 1;" vector-effect="non-scaling-stroke"  transform=" translate(-131.08, -128.7)" d="M 127.3 128.7 C 127.3 120.79999999999998 127.3 112.99999999999999 127.3 105.1 C 127.3 103.6 127.7 103 129.2 103.19999999999999 C 131 103.39999999999999 133.29999999999998 102.39999999999999 134.5 103.69999999999999 C 135.5 104.79999999999998 134.8 106.99999999999999 134.8 108.6 C 134.8 123.1 134.8 137.6 134.8 152.1 C 134.8 153.7 134.4 154.4 132.8 154.2 C 131.10000000000002 154 128.9 155 127.70000000000002 153.7 C 126.60000000000002 152.6 127.40000000000002 150.39999999999998 127.40000000000002 148.79999999999998 C 127.3 142.1 127.3 135.4 127.3 128.7 z" stroke-linecap="round" />
</g>
<g transform="matrix(1.25 0 0 1.15 357.75 153.71)" id="NgIBd5XYxp3Fm724rP0g-"  >
<path style="stroke: none; stroke-width: 1; stroke-dasharray: none; stroke-linecap: butt; stroke-dashoffset: 0; stroke-linejoin: miter; stroke-miterlimit: 4; fill: rgb(250,252,253); fill-rule: nonzero; opacity: 1;" vector-effect="non-scaling-stroke"  transform=" translate(-284.78, -135.99)" d="M 281.7 121.3 C 285.3 117.8 289.59999999999997 117.3 294.3 118.3 C 295.6 118.6 295.8 119.1 295.3 120.2 C 294.7 121.5 294.6 123.2 293.7 124.2 C 292.7 125.4 291 124.4 289.5 124.5 C 285 124.8 282.2 127.9 281.8 133 C 281.40000000000003 139.3 281.6 145.6 281.6 151.8 C 281.6 153.5 281.20000000000005 154.3 279.3 154.10000000000002 C 278.40000000000003 154.00000000000003 277.5 154.10000000000002 276.7 154.10000000000002 C 274 154.10000000000002 274 154.10000000000002 274 151.50000000000003 C 274 141.10000000000002 274 130.70000000000002 274 120.30000000000003 C 274 118.50000000000003 274.6 117.80000000000003 276.3 118.10000000000002 C 276.8 118.20000000000002 277.40000000000003 118.10000000000002 277.90000000000003 118.10000000000002 C 281.2 118.2 281.2 118.2 281.7 121.3 z" stroke-linecap="round" />
</g>
<g transform="matrix(1.25 0 0 1.15 133.6 161.8)" id="Owz-c2Go7xytSOgZcv08b"  >
<path style="stroke: none; stroke-width: 1; stroke-dasharray: none; stroke-linecap: butt; stroke-dashoffset: 0; stroke-linejoin: miter; stroke-miterlimit: 4; fill: rgb(0,159,223); fill-rule: nonzero; opacity: 1;" vector-effect="non-scaling-stroke"  transform=" translate(-104.94, -143.05)" d="M 112.5 142.9 C 112.5 143.70000000000002 112.5 144.5 112.5 145.4 C 112.5 148.1 112.5 148.20000000000002 109.9 148.6 C 107.30000000000001 148.9 104.7 149.29999999999998 102 148.7 C 99.1 148 97.5 146.39999999999998 97.4 144 C 97.2 140.7 98.4 138.8 101.4 137.8 C 104.80000000000001 136.60000000000002 108.30000000000001 137.20000000000002 111.7 137.5 C 112.5 137.6 112.5 138.2 112.5 138.8 C 112.4 140.1 112.4 141.5 112.5 142.9 C 112.4 142.9 112.4 142.9 112.5 142.9 z" stroke-linecap="round" />
</g>
<g transform="matrix(1.25 0 0 1.15 199.31 144.54)" id="sjbLjju6cRYEzWOMgC_aa"  >
<path style="stroke: none; stroke-width: 1; stroke-dasharray: none; stroke-linecap: butt; stroke-dashoffset: 0; stroke-linejoin: miter; stroke-miterlimit: 4; fill: rgb(0,159,223); fill-rule: nonzero; opacity: 1;" vector-effect="non-scaling-stroke"  transform=" translate(-157.65, -127.99)" d="M 157.5 132.4 C 155.2 132.4 152.9 132.4 150.6 132.4 C 149.79999999999998 132.4 149.4 132.3 149.5 131.4 C 150.3 125.60000000000001 155.2 122.30000000000001 160.7 124 C 163.6 124.9 166.1 128.8 165.79999999999998 131.7 C 165.7 132.6 165.1 132.39999999999998 164.7 132.39999999999998 C 162.4 132.4 159.9 132.4 157.5 132.4 z" stroke-linecap="round" />
</g>
<g transform="matrix(1.25 0 0 1.15 430.96 144.49)" id="oKN4-oTefPrxgi8nOs10q"  >
<path style="stroke: none; stroke-width: 1; stroke-dasharray: none; stroke-linecap: butt; stroke-dashoffset: 0; stroke-linejoin: miter; stroke-miterlimit: 4; fill: rgb(0,159,223); fill-rule: nonzero; opacity: 1;" vector-effect="non-scaling-stroke"  transform=" translate(-343.51, -127.94)" d="M 343.4 132.4 C 341.09999999999997 132.4 338.7 132.4 336.4 132.4 C 335.29999999999995 132.4 335.2 132.1 335.4 131.1 C 336.5 125.3 340.9 122.3 346.2 123.89999999999999 C 349.3 124.8 351.59999999999997 128.2 351.7 131.6 C 351.7 132.6 351.09999999999997 132.4 350.5 132.4 C 348.1 132.4 345.8 132.4 343.4 132.4 z" stroke-linecap="round" />
</g>
<g transform="matrix(1.25 0 0 1.15 315.84 154.01)" id="cGYYYf3lUx-7Lc69i1naz"  >
<path style="stroke: none; stroke-width: 1; stroke-dasharray: none; stroke-linecap: butt; stroke-dashoffset: 0; stroke-linejoin: miter; stroke-miterlimit: 4; fill: rgb(0,159,223); fill-rule: nonzero; opacity: 1;" vector-effect="non-scaling-stroke"  transform=" translate(-251.15, -136.25)" d="M 260 136.1 C 260.1 139.29999999999998 259.7 142.29999999999998 258.2 145 C 256.7 147.8 254.2 148.8 251.2 148.8 C 248.2 148.8 245.7 147.9 244.29999999999998 145.10000000000002 C 241.7 139.70000000000002 241.7 134.10000000000002 243.79999999999998 128.60000000000002 C 245.1 125.20000000000002 247.79999999999998 123.70000000000002 251.39999999999998 123.70000000000002 C 255.09999999999997 123.80000000000001 257.59999999999997 125.50000000000001 258.9 128.9 C 259.8 131.3 260.1 133.8 260 136.1 z" stroke-linecap="round" />
</g>
<g transform="matrix(1.25 0 0 1.15 252.6 146.69)" id="iOvlHBU2brIGQpyoq5tSO"  >
<path style="stroke: rgb(0,0,0); stroke-width: 0; stroke-dasharray: none; stroke-linecap: butt; stroke-dashoffset: 0; stroke-linejoin: miter; stroke-miterlimit: 4; fill: rgb(0,159,223); fill-rule: nonzero; opacity: 1;" vector-effect="non-scaling-stroke"  transform=" translate(0, 0)" d="M -98.37398 -62.80488 C -114.22764000000001 -59.55285 -142.89601 -18.08943 -142.89601 -18.08943 L -171.54470999999998 13.184149999999999 L -162.60161999999997 38.008129999999994 L -45.93494999999997 59.146339999999995 L 102.84554000000001 62.80488 L 165.85367000000002 22.56098 L 171.54473000000002 -34.34959 L 54.87806000000002 -57.52032 L -98.37396999999997 -62.80487" stroke-linecap="round" />
</g>
</svg>