<?xml version="1.0" encoding="utf-8"?>
<!-- Generator: Adobe Illustrator 21.0.0, SVG Export Plug-In . SVG Version: 6.00 Build 0)  -->
<svg version="1.1" id="Layer_1" xmlns="http://www.w3.org/2000/svg" xmlns:xlink="http://www.w3.org/1999/xlink" x="0px" y="0px"
	 viewBox="0 0 400 400" style="enable-background:new 0 0 400 400;" xml:space="preserve">
<style type="text/css">
	.st0{fill:#BE3C4A;}
	.st1{fill:#010101;}
	.st2{fill:#9F9FA2;}
	.st3{fill:#9E9EA1;}
	.st4{fill:#FCFCFC;}
	.st5{fill:#FEFEFE;}
	.st6{fill:none;stroke:#D14445;stroke-width:6;stroke-miterlimit:10;}
	.st7{clip-path:url(#SVGID_2_);}
	.st8{fill:#D34546;}
	.st9{fill:#47555F;}
	.st10{fill:#D24546;}
	.st11{fill:#B1B7BB;}
	.st12{fill:#B1B6BA;}
	.st13{fill:#495660;}
	.st14{fill:#D34849;}
	.st15{fill:#FDFBFC;}
	.st16{fill:#FEFDFD;}
	.st17{fill:#FDFCFC;}
	.st18{fill:#B6B0B5;}
	.st19{fill:#B8ACB1;}
	.st20{fill:#D34748;}
</style>
<g>
	<g id="e7kLQc.tif">
		<g>
			<g>
				<path class="st0" d="M286.3,122.7c0.2,0,0.5,0,0.7,0c2.2-0.4,4.4-0.2,6.6-0.3c2.8-0.1,5.7,0.1,8.5,0.4c3,0.3,5.9,0.7,8.8,1.2
					c3.5,0.7,6.9,1.4,10.3,2.4c1.8,0.5,3.7,1,5.5,1.7c2.8,1.2,5.7,2.2,8.5,3.5c3.6,1.6,7.1,3.5,10.6,5.5c2.8,1.6,5.5,3.4,8.1,5.4
					c3.6,2.8,7.3,5.7,10.6,9c1.2,1.1,2.3,2.3,3.4,3.5c3.1,3.2,5.9,6.8,8.5,10.4c1.1,1.4,2,3,3,4.5c1.9,3,3.7,6.1,5.3,9.3
					c0.7,1.4,1.4,2.8,2.1,4.3c1.2,2.6,2.2,5.2,3.1,7.9c0.6,1.6,1.2,3.2,1.6,4.9c0.7,2.8,1.5,5.5,2.1,8.3c0.5,2.2,0.9,4.4,1.1,6.7
					c0.3,2.9,0.8,5.9,0.8,8.9c0,1,0.2,1.9,0.2,2.9c0,2.9,0,5.8-0.4,8.6c-0.2,1.2-0.3,2.4-0.4,3.6c-0.4,3.3-0.7,6.6-1.1,9.8
					c-0.4,3.4-1.4,6.8-2.4,10.1c-0.5,1.8-1,3.6-1.7,5.3c-0.9,2-1.4,4.2-2.5,6.2c-1.1,2.1-1.9,4.4-3.1,6.6c-1.4,2.4-2.6,5-4.2,7.3
					c-2.3,3.4-4.5,6.8-7.1,9.9c-1.7,2-3.4,4-5.2,5.9c-2.2,2.4-4.6,4.6-7,6.8c-2.3,2.1-4.8,4-7.3,5.8c-2.7,1.9-5.4,3.6-8.1,5.3
					c-1.8,1.1-3.6,2-5.5,3c-2,1-4,2-6,2.9c-3.1,1.3-6.2,2.4-9.4,3.5c-2.1,0.7-4.3,1.3-6.5,1.9c-2.3,0.6-4.7,1.1-7.1,1.5
					c-2.3,0.4-4.7,0.7-7.1,1c-2.6,0.2-5.2,0.4-7.7,0.5c-2.8,0.1-5.5,0.1-8.3-0.1c-3-0.2-6.1-0.4-9.1-0.9c-3.2-0.5-6.5-1-9.6-1.8
					c-1.7-0.4-3.3-0.7-5-1.3c-3.9-1.3-7.7-2.5-11.5-4.1c-2.2-0.9-4.3-1.9-6.4-3c-2.5-1.3-5-2.6-7.3-4.1c-3-2-6.1-3.9-9-6.2
					c-2.5-2-5-4.2-7.4-6.4c-3.1-2.8-6-5.9-8.6-9.1c-2-2.5-4-5-5.8-7.6c-1.8-2.6-3.5-5.4-5-8.2c-1.6-2.8-3.1-5.7-4.4-8.7
					c-1-2.3-2-4.6-2.7-7.1c-0.3-1.1-0.8-2.2-1.2-3.3c-0.9-2.9-1.7-5.9-2.4-8.9c-0.6-2.4-1-4.8-1.4-7.3c-0.3-2.4-0.6-4.8-0.8-7.2
					c-0.2-2.7-0.3-5.3-0.3-8c0-2.9,0.1-5.8,0.4-8.7c0.3-3,0.6-6,1.2-8.9c0.6-3.4,1.4-6.7,2.3-10c1-3.4,2.1-6.8,3.4-10.1
					c1-2.5,2-5.1,3.3-7.5c1.2-2.3,2.2-4.7,3.6-6.8c2.2-3.2,4-6.8,6.7-9.8c1.3-1.4,2.4-3,3.6-4.5c2.5-3.1,5.2-5.9,8.1-8.6
					c2.3-2.2,4.8-4.2,7.3-6.1c2.3-1.8,4.8-3.6,7.2-5.2c2.9-1.9,5.9-3.6,9-5.2c2.8-1.4,5.6-2.7,8.5-3.9c3.2-1.3,6.5-2.4,9.8-3.4
					c2.2-0.7,4.4-1.2,6.6-1.7c3.7-0.8,7.5-1.4,11.3-1.8C283.6,122.9,285,122.6,286.3,122.7z M390.4,220.4
					c-1.8-24.9-10.9-46-28.1-63.4c-19.8-20-44.1-29.7-72.1-29.1c-24.7,0.5-46.2,9.5-64.2,26.4c-21.3,20.1-31.5,45.1-30.8,74.2
					c0.7,25.8,10.5,48.1,28.8,66.2c21.7,21.4,48.2,30.6,78.5,27.9c23-2.1,42.8-11.6,59-27.9C382.2,274.1,391.5,248.9,390.4,220.4z"
					/>
				<path class="st1" d="M390.4,220.4c1.1,28.5-8.2,53.8-28.8,74.4c-16.2,16.3-36,25.8-59,27.9c-30.3,2.8-56.8-6.5-78.5-27.9
					c-18.3-18.1-28.2-40.4-28.8-66.2c-0.7-29.1,9.5-54.2,30.8-74.2c17.9-16.9,39.5-25.9,64.2-26.4c28.1-0.6,52.3,9.1,72.1,29.1
					C379.5,174.3,388.6,195.5,390.4,220.4z M271.7,262.4c0.9,0.2,1.3-0.2,1.8-0.9c1.4-1.8,2.7-3.7,4.7-5c1.9-1.2,3.5-2.7,5.3-4
					c0.1-0.1,0.3-0.1,0.2-0.2c-0.1-1,0.7-1.8,0.8-2.7c0.1-0.5,0.3-0.7,0.8-0.7c0.8-0.1,1.5-0.3,2.1-1.1c0.9-1.4,2.1-2.5,3-3.9
					c0.2-0.3,0.4-0.3,0.6-0.4c1.4-0.6,2.8-0.9,4.2-1.5c1.5-0.6,3-1.2,4.6-1.5c0.8-0.1,1.2-0.6,1.5-1.3c0.4-0.9,1.6-1.7,2.5-1.4
					c1.1,0.3,1.8-0.1,2.6-0.7c0.4-0.3,0.7-0.4,1.1-0.2c1,0.4,1.9,0.6,3,0.1c0.4-0.2,0.9-0.3,1.3-0.3c0.5-0.1,1.2,0,1.4-0.8
					c0.3-1.1,0.9-1.5,2-1.8c1.3-0.3,2.9,0.1,3.8-1.3c0.4-0.5,0.9-0.5,1.6-0.2c0.6,0.3,1.4,0.7,2.2,0.5c0.7-0.2,1.4-0.4,2.1-0.6
					c2.6-0.8,5.3-1.3,8-1.2c0.7,0,0.9-0.3,0.9-0.9c-0.2-1.7,0.1-3.5,0.1-5.2c0.1-2.5,0-5-0.2-7.5c-0.1-1.5-0.2-1.5-1.6-1.5
					c-0.1,0-0.1,0-0.2,0c-1.7-0.4-3.5-0.1-5.3-0.1c-1.3,0-2.6,0.5-3.9,0.8c-0.8,0.2-1.5,0.3-2.3,0.1c-0.9-0.3-1.9-0.3-2.9-0.4
					c-0.9-0.1-1.8-0.1-2.6-0.6c-0.1-0.1-0.3-0.1-0.4,0c-1.2,1-2.8,1.2-3.9,2.3c-0.4,0.4-0.8,0.4-1.4,0.4c-1.3-0.1-2.6-0.2-3.8,0.5
					c-1.4,0.8-2.7,1.6-4.2,2.3c-1,0.4-2.1,0.3-2.9,1c0,0-0.1,0-0.2,0c-0.9-0.3-1.9-0.1-2.8-0.7c-0.4-0.2-0.9-0.3-1.2,0.2
					c-0.6,0.7-1.3,1.3-2,1.9c-2,1.9-4.2,3.7-6.3,5.6c-0.3,0.2-0.6,0.4-0.9,0.4c-1.3,0-2.6,0.3-3.9,0.2c-0.2,0-0.5,0-0.7,0.2
					c-1.4,0.8-3,1.3-4.4,1.9c-0.6,0.2-1.2,0.6-1.8,0.5c-1.5-0.3-2.9-0.5-4.4-0.8c-0.3-0.1-0.6-0.1-0.9,0.2c-0.6,0.6-1.3,1.1-1.9,1.7
					c-0.6,0.6-1.3,0.7-2,0.5c-0.8-0.2-1.6-0.1-2.1,0.2c-1.9,1.2-4,2-5.9,3.3c-0.3,0.2-0.7,0.4-1,0.6c-0.7,0.4-1.6,0.7-2.1,1.5
					c-1.3,2.2-2.5,4.5-3.7,6.8c-0.1,0.2-0.3,0.2-0.4,0.2c-0.9,0-1.9,0.2-2.7,0c-1.4-0.4-2.2,0.3-3.1,1.1c-0.4,0.3-0.4,0.6-0.1,1
					c0.7,1.2,1.5,2.4,2.1,3.7c0.8,2,1.9,3.7,3.2,5.3c0.1,0.2,0.3,0.3,0.3,0.5c0.2,0.5,0.5,0.8,1,0.9c2.3,0.7,4.2,2.2,6.3,3.3
					c0.3,0.1,0.5,0.1,0.6,0c1-0.6,1.9-0.5,2.9,0c1.8,0.9,3.5,0.9,5.3-0.1c0.3-0.2,0.6-0.3,0.9-0.2C268.3,262.6,270,262,271.7,262.4z
					 M238.7,226.4c1.8-1.5,3.6-2.9,5.4-4.3c1.3-1.1,2.6-2.2,4-3.3c1.5-1.1,3.3-1.6,5.2-1.3c0.6,0.1,1.1,0,1.6-0.5
					c1.1-1.2,2.4-1.5,3.9-1.2c1.1,0.2,2.2-0.1,3.3,0c0.2,0,0.3-0.1,0.5-0.2c0.7-0.6,1.5-0.9,2.3-1.3c1.2-0.5,2.3-1.4,3.7-0.9
					c0.8,0.3,1.7,0.3,2.5,0.3c0.9,0.1,1.8,0.3,2.7,0.6c0.9,0.3,2,0.3,2.8-0.2c1.5-0.9,2.8-2.1,4.1-3.2c1.2-1,2.3-1.4,3.8-1.3
					c0.7,0,1.4-0.3,2,0.1c1.1,0.8,2.3,1,3.7,0.8c1.2-0.2,2.3,0,2.9,1.2c0.1,0.2,0.2,0.3,0.4,0.3c1.1,0,2.3,0.2,3.4,0.2
					c1.2,0,2.3,0.1,3.4,0.3c0.2,0,0.4,0.1,0.7,0c1.2-0.4,2.5-0.8,3.6-1.2c1.6-0.7,3.4-0.8,5-1.4c0.2-0.1,0.5-0.3,0.7,0
					c0.5,0.5,1.2,0.7,1.7,1.1c0.8,0.6,1.4,0.5,2.2,0.1c0.5-0.3,1-0.3,1.6,0.1c0.5,0.4,1.2,0.5,1.8,0.6c1.2,0.3,2.4,0.5,3.4,1.2
					c0.3,0.2,0.6,0.3,1,0.4c1.6,0.2,3.3,0.1,4.9,0.1c1.9,0,3.8,0.3,5.7,0.1c0.3,0,0.7,0.1,0.7-0.5c-0.1-1.6-0.5-3.1-0.9-4.7
					c-0.5-2.2-1.1-4.3-1.8-6.4c-0.3-0.9-0.7-1.4-1.8-1.3c-0.3,0.1-0.7,0.1-1,0c-2-0.3-4.1-0.4-6-1.1c-1.7-0.6-3.4-0.9-4.9-2
					c-0.7-0.5-1.4-0.7-2.2-0.8c-0.9-0.1-2,0-2.7-0.7c-0.9-0.7-1.8-1.3-2.4-2.3c-0.3-0.4-0.6-0.6-1.1-0.7c-1.1-0.1-2.1-0.7-3.3-0.7
					c-0.8,0-1.5-0.4-2.2-0.8c-0.2-0.1-0.5-0.3-0.7-0.3c-1.6,0.1-3.2-0.4-4.9-0.3c-0.6,0-1.2,0-1.8-0.2c-0.6-0.2-1.2-0.3-1.8-0.1
					c-0.7,0.3-1.4,0.2-2,0.1c-1.1-0.2-2.1-0.3-3.1,0.3c-1,0.5-2,1-3,1.4c-0.6,0.2-1.2,0.8-1.9,0.6c-2.2-0.3-4.5-0.8-6.8-0.9
					c-0.2,0-0.4-0.2-0.6-0.2c-0.6,0-1.1-0.6-1.8-0.2c-1.9,1.2-3.9,2.2-5.6,3.6c-0.7,0.6-1.3,0.5-1.9-0.1c-0.5-0.5-1.2-0.9-2-0.7
					c-2,0.5-3.9,0.2-5.7-0.4c-0.4-0.1-0.7,0-1.1,0.2c-1,0.4-1.8,1.1-2.7,1.6c-2.4,1.4-4.8,2.7-7.3,4c-1.4,0.8-2.8,1.8-4.3,2.4
					c-0.2,0.1-0.4,0.2-0.4,0.5c-0.4,1.5-1.2,2.8-1.6,4.3c-0.7,2.1-1.2,4.2-1.8,6.3c-0.4,1.2-0.5,2.6-0.7,3.8
					C239,220.5,238.4,223.3,238.7,226.4z M280.1,279.2c0.5,0.2,0.7,0.5,1.1,0.6c1.6,0.2,3.1,0.5,4.7,0.7c2,0.2,3.9,0.4,5.9,0.2
					c3.2-0.2,6.3-0.5,9.3-1.5c2.2-0.7,4.3-1.7,6.2-3c1.5-1,3-1.9,4.3-3.1c1-0.8,1.9-1.7,2.9-2.6c0.9-0.7,1.8-1.4,2.5-2.2
					c2.3-2.4,4.1-5.2,6.1-7.8c1.8-2.4,2.9-5.2,4.4-7.8c1.1-1.9,1.5-4,2.3-6c1.2-2.9,1.8-6,2.6-9c0.3-1.1,0.3-2.3,0.8-3.4
					c0.2-0.5-0.1-0.9-0.7-0.8c-1.7,0.2-3.5,0.1-5.2,0.6c-1.4,0.4-2.7,1-4.1,1.4c-1.1,0.3-2,0.8-2.8,1.5c-0.1,0.1-0.4,0.3-0.5,0.3
					c-1-0.1-1.9,0.5-2.9,0.5c-0.6,0-1,0.4-1.3,0.9c-0.7,1.1-1.4,2.4-2.5,3c-1.4,0.7-2.8,1.5-4.4,2.1c-0.9,0.3-1.9,0.8-2.2,1.7
					c-0.7,1.7-1.8,3.1-2.2,4.9c-0.1,0.4-0.4,0.8-0.5,1.2c-0.5,1.3-1.5,2.6-1.2,4.2c0,0.1,0.1,0.2-0.1,0.3c-1.1,0.4-2.1,0.8-3.2,1
					c-0.4,0.1-0.6,0.2-0.6,0.5c-0.4,1.2-0.7,2.5-1.5,3.5c-0.2,0.3-0.3,0.7-0.4,1.2c-0.2,1.2-0.4,2.4-1.3,3.4
					c-1.1,1.2-2.2,2.3-3.2,3.5c-1.1,1.3-2.2,2.6-3.2,3.9c-0.3,0.4-0.7,0.6-1.1,0.8c-1.1,0.5-2.5,0.7-2.2,2.4c0,0.2,0,0.3-0.2,0.3
					c-0.9,0.3-1.7,0.9-2.6,1.1C282.1,278,281.2,278.6,280.1,279.2z M262.1,180.3c0.7,0,1.2,0,1.6-0.1c1.5-0.4,3-0.7,4.5-1.1
					c2.5-0.6,5-1.2,7.5-1.7c0.4-0.1,0.8-0.2,1.3-0.2c2.9,0.3,5.6,1.2,8.5,1.5c0.9,0.1,2,0.2,2.6,0.7c0.9,0.7,1.8,1.3,2.3,2.4
					c0.2,0.4,0.6,0.6,1.1,0.6c2,0.2,3.9,0.5,5.9,0.8c0.3,0,0.6,0.2,0.9,0.4c1.7,1.3,3.7,2.4,5.5,3.6c0.8,0.5,1.6,0.7,2.4,0.4
					c0.5-0.2,1-0.3,1.5,0c1.1,0.6,2.6,0.8,3.2,2.2c0,0.1,0.2,0.2,0.3,0.2c1.2,0.1,1.6,1.1,2.1,1.9c0.5,0.6,0.9,1.2,1.8,1.4
					c1.1,0.2,1.9,0.7,2.3,1.8c0.1,0.2,0.2,0.4,0.4,0.5c1.1,0.6,2.2,1.2,3.4,1.6c2.2,0.8,4.5,1.2,6.8,1.3c1,0,1.1-0.1,0.7-1
					c-0.9-2-2.1-4-3.1-5.9c-0.7-1.2-1.4-2.3-2.2-3.4c-1.5-2.2-3.2-4.2-4.9-6.2c-1.7-1.9-3.8-3.3-5.8-4.8c-3-2.4-6.4-4-10.1-5.2
					c-0.9-0.3-1.9-0.6-2.9-0.8c-2.1-0.5-4.2-0.8-6.3-0.6c-0.6,0.1-1.2,0-1.8-0.1c-2-0.4-3.9,0.2-5.8,0.4c-1.7,0.2-3.4,0.8-5,1.4
					c-1.6,0.6-3.3,0.8-4.9,1.4c-2.1,0.8-4,1.9-6.2,2.6c-1.5,0.5-2.7,1.4-4.1,2.1C264.5,178.7,263.5,179.6,262.1,180.3z M306.8,279.1
					c0.4,0.3,0.8,0.1,1.2,0.1c1.6-0.1,3-0.9,4.5-1.4c2.1-0.6,4.1-1.5,6-2.5c2.8-1.5,5.7-2.8,8.1-4.9c2.6-2.1,5.2-4.3,7.6-6.6
					c3.2-3.2,5.6-6.9,7.9-10.6c1.8-2.9,3-6.1,4.2-9.3c0.1-0.2,0.2-0.3,0.1-0.5c-0.4-1-0.6-2.1-1.3-3c-0.7-1-1.6-1.8-2.4-2.7
					c-1.6-1.6-3.6-2.6-5.6-3.5c-0.8-0.4-1.2-0.2-1.3,0.8c-0.7,3.5-1.2,7-2.5,10.3c-0.7,1.8-0.9,3.8-2,5.4c-0.7,1.1-1,2.5-1.5,3.8
					c-0.9,2.1-2.4,3.9-3.4,6c-0.5,1-1,1.9-1.7,2.7c-1.6,1.7-3,3.6-4.4,5.4c-1.9,2.4-4.2,4.3-6.6,6.1c-0.8,0.6-1.6,1.5-2.6,1.9
					C309.6,277.3,308.5,278.8,306.8,279.1z M330.4,156.5c-0.4,2-0.1,4-0.4,6c-0.2,2.3-0.2,4.5-0.3,6.8c0,0.6-0.1,1.1-0.1,1.6
					c-0.1,0.6-0.4,1.4,0.2,2c1,0.8,2.1,1.4,3.3,1.9c0.3,0.2,0.5,0.2,0.7-0.2c1.4-2.8,3.1-5.5,4.6-8.3c1.4-2.7,3.1-5.3,4.6-8.1
					c0.9-1.8,1.9-3.5,2.9-5.1c0.2-0.3,0.4-0.5-0.1-0.8c-1.2-0.6-2.4-1.3-3.6-1.9c-0.4-0.2-0.5-0.1-0.7,0.3c-1.5,2.7-3,5.4-4.5,8.1
					c-0.5,0.9-1,1.9-1.5,2.8c-0.1-1.6,0.2-3.1,0.3-4.7c0.2-2.4,0.7-4.9,0.7-7.3c0-0.2,0.1-0.4,0.2-0.6c0.4-1.3,0.2-1.6-0.9-2.3
					c-1.2-0.7-2.6-1.2-3.7-2.2c-0.2-0.2-0.4-0.1-0.5,0.1c-0.8,1.1-1.4,2.2-2,3.4c-1.4,2.8-3.2,5.3-4.6,8.1c-1.8,3.4-3.9,6.6-5.6,10
					c-0.3,0.5-0.1,0.7,0.3,1c1.2,0.6,2.5,1.1,3.5,1.9C325.6,164.9,327.7,160.5,330.4,156.5z M352.3,199.5c0.3,0.8,0.5,1.8,0.8,2.6
					c0.8,1.8,1.3,3.6,1.9,5.5c0.1,0.5,0.3,0.9,0.9,1.1c1.2,0.5,2.4,1.1,3.6,1.7c0.2,0.1,0.4,0.2,0.7,0.1c3.3-1.3,6.6-2.3,10-3.4
					c1.7-0.5,3.3-1.2,5-1.8c0.2-0.1,0.5-0.1,0.7-0.2c0.7-0.2,1.6-0.2,2-1c0.6-1.3,1.2-2.6,1.8-3.9c0.1-0.3,0-0.4-0.1-0.6
					c-0.6-1.8-1.3-3.6-1.9-5.5c0-0.1,0-0.3-0.1-0.4c-0.4-1.5-0.8-3-2.6-3.4c-0.7-0.2-1.4-0.6-2.1-0.9c-0.3-0.1-0.5-0.1-0.8,0
					c-1.5,0.2-2.9,0.9-4.2,1.4c-3.9,1.4-8,2.6-11.9,4.1c-0.4,0.2-1,0-1.2,0.4C353.7,196.4,353,197.9,352.3,199.5z M311.4,313.3
					c0.1,0,0.4,0,0.6-0.1c1.6-0.6,3.3-0.9,5-1.4c0.4-0.1,0.9-0.2,1.4-0.3c1-0.2,2-0.3,2.5-1.5c0.4-1,1-1.9,1.5-2.9
					c0.1-0.2,0.1-0.4,0-0.6c-0.1-1.5-0.7-2.9-1-4.4c-0.4-2.3-1.2-4.6-1.7-6.9c-0.4-1.8-1-3.6-1.4-5.3c-0.1-0.3-0.2-0.5-0.1-0.8
					c0.1-0.5-0.2-0.7-0.6-0.9c-1-0.6-2.1-1.1-3-1.7c-0.6-0.4-1-0.5-1.6-0.3c-1.8,0.5-3.6,1.2-5.4,1.4c-2,0.3-3.7,0.8-4.3,2.9
					c-0.1,0.3-0.3,0.7-0.5,0.9c-0.7,0.8-0.5,1.7-0.3,2.5c0.6,1.8,0.8,3.7,1.5,5.5c0,0.1,0.1,0.2,0.1,0.3c0.3,1.9,0.9,3.7,1.3,5.6
					c0.4,1.7,1,3.4,1.2,5.1c0,0.3,0.2,0.5,0.5,0.6c0.9,0.5,1.8,1,2.7,1.5C310.3,312.9,310.7,313.3,311.4,313.3z M294,156.5
					c-0.5,1.2,0.2,2.4,1.3,3.5c0.3,0.3,0.6,0.7,0.8,1.1c0.4,0.7,1,1,1.8,1.1c2.5,0,5,0.7,7.5,0.7c0.1,0,0.3,0,0.3,0
					c0.4,0.4,0.6,0.1,0.9-0.2c0.8-0.6,1.5-1.3,2.4-1.8c0.4-0.3,1-0.5,1-1.1c0-0.8,0.2-1.7,0.3-2.5c0.2-2,0.5-4,0.7-6
					c0.2-2.2,0.6-4.3,0.7-6.5c0-0.2,0.1-0.3,0.1-0.5c0.2-1.4,0.7-2.8-0.4-4c-0.7-0.8-1.5-1.6-2-2.6c-0.1-0.2-0.3-0.2-0.5-0.2
					c-2.2-0.1-4.4-0.6-6.6-0.7c-0.4,0-0.7-0.1-1.1-0.2c-0.5-0.1-1.1-0.4-1.6,0c-1.1,0.8-2.1,1.7-3.2,2.5c-0.3,0.2-0.3,0.4-0.4,0.7
					c-0.5,1.9-0.5,3.9-0.7,5.8C294.8,149.1,294.4,152.6,294,156.5z M243.7,153.5C243.7,153.5,243.7,153.5,243.7,153.5
					c-0.2,0-0.3,0-0.4,0c-1.4-0.4-2.3,0.2-3.4,1.1c-1.7,1.6-3.6,2.9-5.4,4.5c-0.2,0.2-0.4,0.2-0.4,0.6c0,1.3-0.4,2.5-0.4,3.8
					c0,0.4,0,0.7,0.3,1c1.3,1.6,2.6,3.2,3.9,4.8c2.4,3,4.8,6,7.2,9c0.4,0.5,0.8,0.6,1.4,0.7c1.1,0,2.2,0,3.2,0.3
					c0.6,0.1,1,0,1.4-0.4c1.4-1.2,2.9-2.3,4.2-3.5c1.3-1.1,3.1-2,2.6-4.3c0-0.1,0.1-0.3,0.1-0.4c0-0.8,0.5-1.7-0.1-2.4
					c-1-1.3-2-2.6-3-3.9c-1.8-2.2-3.6-4.3-5.4-6.6c-0.7-0.9-1.6-1.7-2.2-2.7c-0.7-1.1-1.5-1.6-2.7-1.5
					C244.3,153.6,244,153.5,243.7,153.5z M279.8,150.6c-0.2-0.6-0.2-1.3-0.4-2c-0.7-1.9-1.2-3.9-1.7-5.9c-0.1-0.5-0.2-1-0.6-1.3
					c-1.3-0.9-2.7-1.7-4.1-2.4c-0.2-0.1-0.4,0-0.7,0.1c-1.4,0.4-2.8,0.9-4.2,1.3c-2.2,0.6-4.2,1.3-6.3,2c-0.3,0.1-0.3,0.2-0.3,0.6
					c0.3,1.6,0.9,3.1,1.3,4.7c0.5,2.1,1.3,4.1,1.9,6.2c0.7,2.5,1.5,4.9,2.2,7.3c0.6,1.8,1.1,3.7,1.6,5.5c0.1,0.3,0.2,0.5,0.5,0.3
					c1.3-0.5,2.7-0.9,4-1.2c0.4-0.1,0.4-0.3,0.3-0.6c-0.7-2.1-1.3-4.3-2-6.4c-0.4-1.3-0.4-1.3,0.9-1.7c0.8-0.3,1.4-0.3,2,0.5
					c1.5,2,3.1,4,4.7,5.9c0.1,0.2,0.3,0.5,0.6,0.3c1.4-0.6,3-0.8,4.4-1.5c0.5-0.2,0.5-0.4,0.2-0.8c-1.8-2.2-3.6-4.3-5.5-6.5
					c-0.3-0.4-0.4-0.6-0.2-1.1C279,152.8,279.4,151.7,279.8,150.6z M213.7,265.9c2.1-2,4.1-3.9,6.2-5.9c0.7-0.6,1.3-0.9,2.2-0.5
					c0.8,0.4,1.8,0.5,2.6,0.8c0.3,0.1,0.5,0.1,0.8,0c2.5-1.2,5.2-2.1,7.8-3.1c0.5-0.2,0.8-0.5,1-1c0.5-1.1,0.8-2.4,1.6-3.4
					c0.2-0.2,0.1-0.4,0-0.6c-0.5-1-0.8-2.1-1.2-3.2c-0.7-1.6-1.2-3.3-2-4.9c-0.4-0.7-0.5-1.6-0.9-2.4c-0.2-0.4-0.3-0.4-0.7-0.3
					c-1.5,0.3-2.8,1.2-4.2,1.6c-2.1,0.7-4.2,1.5-6.3,2.3c-2.1,0.8-4.3,1.7-6.4,2.5c-1.9,0.7-3.8,1.5-5.7,2.2c-0.5,0.2-0.7,0.5-0.5,1
					c0.5,1.2,1,2.4,1.3,3.6c0.1,0.2,0.1,0.4,0.5,0.3c2-0.8,4-1.5,6-2.3c1.6-0.7,1.6-0.8,2.3,0.8c0.4,0.8,0.3,1.3-0.5,1.8
					c-2.1,1.5-3.7,3.5-5.6,5.1c-0.2,0.2-0.4,0.3-0.3,0.7C212.5,262.6,212.8,264.3,213.7,265.9z M352.1,294.2c-1.6-1-3.1-2-4.6-3
					c-1.1-0.7-2.2-1.5-3.2-2.3c-0.2-0.1-0.4-0.2-0.4-0.5c0.1-1.2-0.1-2.3,0.2-3.4c0.1-0.4,0.1-0.6-0.1-0.9c-0.9-1.3-1.9-2.7-2.7-4
					c-0.6-1-1.4-2-2-3c-0.3-0.5-0.6-0.6-1-0.7c-1.4-0.3-2.8-0.3-4.1-0.8c-0.2-0.1-0.4,0.1-0.6,0.2c-1.2,0.8-2.4,1.7-3.7,2.5
					c-1.8,1.2-3.6,2.4-5.4,3.6c-0.2,0.1-0.6,0.2-0.3,0.7c1.1,1.7,2.2,3.4,3.4,5.1c1.4,2.1,2.9,4.1,4.3,6.3c0.7,1,1.4,2,2,3
					c1.4,2.1,2.8,4.2,4.1,6.3c0.2,0.3,0.4,0.3,0.7,0.1c1.2-0.6,2.1-1.6,3.3-2.3c0.4-0.2,0.1-0.4,0-0.5c-1.3-2-2.6-4-4-5.9
					c-0.3-0.5-0.4-0.8,0.2-1.1c0.2-0.1,0.4-0.3,0.6-0.5c0.6-0.5,1-0.5,1.7-0.1c2.2,1.5,4.5,2.7,6.5,4.4c0.2,0.2,0.4,0.2,0.6,0.1
					C349.1,296,350.7,295.3,352.1,294.2z M361.3,279.7c1.3,0.1,2.4-0.6,3.6-0.6c0.8,0,1-0.4,1.4-0.9c1.4-2,2.6-4.2,4.1-6.1
					c0.4-0.5,0.8-1.1,0.6-1.9c-0.3-0.8-0.4-1.6-0.4-2.4c0-0.6,0-1.3-0.6-1.7c-0.8-0.5-1.5-1-2.3-1.5c-1.3-0.8-2.6-1.6-3.8-2.6
					c-0.5-0.4-1-0.6-1.7-0.4c-0.8,0.2-1.6,0.4-2.5,0.4c-0.6,0-1.3,0-1.8,0.6c-1,1.5-2,2.9-3,4.4c-0.7,1-1.7,1.2-2.6,0.5
					c-0.4-0.3-0.9-0.7-1.2-1.1c-0.3-0.4-0.6-1-0.3-1.6c0.5-0.8,0.9-1.6,1.5-2.3c0.8-1.1,0.9-1.1,2-0.4c0.4,0.2,0.6,0.3,0.9-0.2
					c0.7-1.2,1.5-2.3,2.3-3.4c0.3-0.5,0.2-0.7-0.2-1c-0.7-0.4-1.5-0.8-2.1-1.4c-0.5-0.5-0.8-0.5-1.4-0.4c-1,0.2-1.9,0.5-3,0.5
					c-0.6,0-1.2,0.1-1.6,0.7c-1.5,2.4-3.1,4.7-4.7,7.1c-0.3,0.4-0.3,0.7-0.2,1.1c0.2,1,0.6,2,0.6,3.1c0,0.5,0.2,1,0.7,1.4
					c2.1,1.3,4.2,2.7,6.3,4c0.6,0.4,1.2,0.4,1.8,0.3c1.1-0.2,2.1-0.6,3.2-0.5c0.4,0,0.6-0.3,0.8-0.6c0.8-1.4,1.7-2.7,2.5-4
					c0.2-0.3,0.4-0.6,0.7-0.8c0.9-0.4,2.5,0,3.1,0.8c0.5,0.5,0.4,1.8-0.2,2.7c-0.3,0.4-0.6,0.8-0.9,1.2c-1.1,1.6-1.1,1.6-2.6,0.4
					c-0.3-0.2-0.4-0.2-0.5,0.1c-0.8,1.3-1.7,2.6-2.5,3.8c-0.2,0.3-0.1,0.4,0.1,0.7c0.9,0.7,1.9,1.2,2.8,1.8
					C360.8,279.7,361.1,279.8,361.3,279.7z M233.5,292.8c1.1-1.4,1.8-2.8,2.8-4.1c1.8-2.6,3.4-5.4,5.1-8c2-3,3.8-6.2,5.9-9.2
					c0.9-1.4,0.9-1.4-0.2-2.7c-0.1-0.1-0.2-0.3-0.3-0.4c-0.7-0.8-1.4-1.7-2.2-2.3c-0.4-0.3-1.3,0.6-2,0.9c-0.2,0.1-0.5,0.1-0.7,0.2
					c-2.3,1.2-4.7,2.1-7.1,3.2c-1.6,0.8-3.2,1.5-4.9,2.2c-3.2,1.3-6.2,2.8-9.4,4.2c-0.6,0.3-0.6,0.6-0.2,1c0.9,1.1,1.8,2.1,2.7,3.2
					c0.3,0.3,0.5,0.3,0.8,0.2c1.1-0.4,2.1-0.9,3.1-1.4c0.1-0.1,0.3-0.3,0.5,0c1.4,1.6,2.8,3.2,4.2,4.9c0.4,0.4,0.4,0.9,0,1.4
					c-0.5,0.7-0.9,1.6-1.5,2.3c-0.2,0.2-0.3,0.5-0.1,0.8C231.3,290.3,232.6,291.3,233.5,292.8z M261.4,298.8
					c0.7-0.1,1.3-0.4,1.9-0.6c0.7-0.2,1.7-0.3,2.1-1c1.5-2.5,2.8-5,4.2-7.5c0.1-0.2,0.2-0.4,0.1-0.7c-0.3-1.2-0.7-2.5-1-3.7
					c-0.2-0.7-0.6-1.2-1.3-1.5c-0.8-0.4-1.6-0.8-2.4-1.2c-2.2-1-4.2-2.4-6.3-3.6c-0.2-0.1-0.5-0.3-0.6,0.1c-0.4,1.2-1.4,2.2-2,3.3
					c-1.3,2.4-2.7,4.8-4,7.3c-2,3.7-4.2,7.3-6.1,11.1c-0.2,0.5-0.2,0.7,0.3,0.9c1.1,0.5,2.1,1.1,3.2,1.7c0.2,0.1,0.4,0.2,0.6-0.1
					c0.4-0.6,0.8-1.2,1.2-1.9c1-1.9,2-3.7,3-5.6c0.2-0.5,0.5-0.5,0.9-0.3c1.8,0.9,3.4,2.1,5.3,3
					C260.8,298.5,261.1,298.6,261.4,298.8z M347.6,240.4c0.4-1.5,0.7-2.8,1-4.2c0.6-2.9,1-5.9,1.1-8.9c0-2.2,0-4.4-0.3-6.5
					c-0.1-0.8-0.5-1.4-1.2-1.6c-1.9-0.7-3.7-1.8-5.7-2c-1.7-0.2-3.3-0.8-5.1-0.8c-0.6,0-1,0-1,0.8c-0.1,1.8,0.2,3.5,0.3,5.3
					c0.1,2.5-0.2,4.9-0.2,7.3c0,0.3-0.2,0.6-0.2,0.8c-0.1,0.6,0,1,0.6,1.2c2.1,0.7,4,1.4,5.7,2.9c1.5,1.2,2.8,2.5,3.8,4.1
					C346.8,239.3,347,239.9,347.6,240.4z M348.9,217.1c-0.4-2.4-0.7-4.6-1.5-6.7c-0.5-1.2-0.9-2.4-1.2-3.7c-0.4-1.8-1.4-3.3-2-5
					c-0.4-1.1-1.2-2.1-1.9-3.1c-0.6-0.9-1-2-1.6-2.9c-0.5-0.7-0.8-0.5-1.2,0c-0.5,0.7-1,1.5-1.8,2c-1.4,1-2.8,1.8-4.4,2.4
					c-0.7,0.3-0.8,0.7-0.5,1.3c0.1,0.4,0.3,0.7,0.4,1.1c0.6,1.5,1.1,3.1,1.5,4.6c0.5,2,0.8,4,1.1,6c0.1,0.4,0.1,0.7,0.6,0.7
					c0.8,0,1.6,0.2,2.4,0.3c1.6,0.2,3.1,0.3,4.6,0.9C345.2,215.6,347,216,348.9,217.1z M287.9,307c0.6-2.4,0.4-5,0.8-7.4
					c0.3-1.4,0.1-2.9,0.5-4.3c0.1-0.4,0.2-0.5,0.6-0.5c1.1,0.2,2.3,0,3.4,0.4c0.5,0.2,0.7,0,0.8-0.6c0-1.1,0.1-2.2,0.3-3.2
					c0.3-1.5,0.2-1.5-1.3-1.8c-0.3,0-0.6-0.2-0.9-0.2c-2.4-0.1-4.8-0.5-7.1-0.7c-1.5-0.1-3-0.4-4.6-0.5c-0.4,0-0.6-0.1-0.6,0.4
					c0,1.4-0.3,2.7-0.4,4c-0.1,1,0,1.1,1.1,1.2c1,0,2,0.1,2.9,0.1c0.4,0,0.5,0.1,0.5,0.5c0,0.8-0.3,1.6-0.4,2.4
					c-0.2,2.9-0.6,5.7-0.8,8.5c-0.2,2.2-0.6,4.4-0.7,6.7c0,0.6,0,1.1-0.2,1.7c-0.2,0.3,0.1,0.4,0.3,0.4c1.6,0.1,3.1,0.4,4.7,0.4
					c0.2,0,0.5,0,0.4-0.3c0-0.4,0.2-0.8,0.3-1.2C287.5,311.1,287.7,309.1,287.9,307z M225.6,176.9c0.1-0.3-0.2-0.3-0.4-0.4
					c-1.2-0.9-2.8-1.4-3.9-2.4c-0.2-0.2-0.4-0.1-0.5,0.2c-0.6,1.2-1.4,2.3-2.1,3.4c-1.1,1.6-2.1,3.4-3,5.1c-0.6,1.1-1.4,2.2-2.1,3.3
					c-0.2,0.2-0.4,0.5,0.1,0.7c1.4,0.7,2.8,1.6,4,2.5c0.4,0.3,0.6,0.2,0.8-0.2c0.5-1,1.2-2,1.7-3c0.3-0.6,0.5-0.6,1-0.3
					c1,0.6,2.1,1.3,3.1,1.9c2.9,1.8,6,3.4,8.9,5.2c1.4,0.9,2.8,1.6,4.2,2.4c0.3,0.2,0.5,0.2,0.8-0.2c0.7-1.2,1.5-2.5,2.3-3.7
					c0.2-0.3,0.2-0.5-0.2-0.7c-1.7-0.8-3.2-2.1-4.9-3c-2.8-1.4-5.3-3.2-8-4.7c-1.2-0.7-2.4-1.4-3.6-2.1c-0.3-0.2-0.4-0.3-0.2-0.7
					c0.5-0.8,0.9-1.5,1.3-2.3C225.1,177.7,225.3,177.3,225.6,176.9z M367.6,174.5c-0.7-1.5-1.9-2.6-2.9-3.9
					c-1.9-2.5-3.8-4.9-5.8-7.4c-0.1-0.2-0.3-0.5-0.6-0.2c-1.3,1.1-2.5,2.1-3.8,3.2c-0.3,0.2-0.1,0.3,0,0.6c0.5,0.8,1.2,1.5,1.8,2.2
					c0.8,1,0.8,1-0.1,1.8c-2.5,2.1-5,4.1-7.5,6.1c-2.4,1.9-4.6,3.8-7,5.7c-0.3,0.2-0.2,0.3,0,0.4c1,1.2,1.9,2.3,2.9,3.5
					c0.3,0.4,0.5,0.3,0.9,0c1.6-1.4,3.3-2.7,5-4.1c2.2-1.8,4.3-3.6,6.6-5.4c1.1-0.8,2-1.8,3.1-2.5c0.3-0.2,0.3-0.3,0.6,0.1
					c0.7,1,1.6,1.7,2.2,2.8c0.2,0.3,0.4,0.5,0.8,0.2C365,176.5,366.5,175.6,367.6,174.5z M310,173.1c0.1,0.2,0.3,0.3,0.4,0.4
					c1.5,0.8,2.9,1.5,4.4,2.4c3,1.9,5.4,4.5,7.7,7.2c1.8,2,3.3,4.3,4.8,6.6c1.6,2.5,3,5.1,4.3,7.8c0.2,0.4,0.4,0.5,0.8,0.4
					c2.5-0.5,4.3-2,5.6-4.1c0.2-0.3,0.3-0.6,0.1-1c-0.3-1-0.8-1.8-1.5-2.5c-1-1-2-2-3-3c-1-1.1-1.9-2.3-3-3.2
					c-2.8-2.3-5.9-4.2-8.9-6.2c-1.2-0.8-2.6-1.3-4-2c-2.1-1-4.1-2.3-6.5-2.7C310.8,173.1,310.5,172.8,310,173.1z"/>
				<path class="st2" d="M271.7,262.4c-1.7-0.4-3.5,0.2-5.2-0.2c-0.3-0.1-0.7,0-0.9,0.2c-1.7,1.1-3.5,1-5.3,0.1
					c-1-0.5-1.9-0.6-2.9,0c-0.2,0.1-0.4,0.2-0.6,0c-2.1-1.1-4-2.5-6.3-3.3c-0.5-0.2-0.8-0.4-1-0.9c-0.1-0.2-0.2-0.4-0.3-0.5
					c-1.3-1.6-2.4-3.4-3.2-5.3c-0.5-1.3-1.3-2.5-2.1-3.7c-0.3-0.4-0.3-0.7,0.1-1c0.9-0.8,1.8-1.4,3.1-1.1c0.9,0.2,1.8,0,2.7,0
					c0.2,0,0.3,0,0.4-0.2c1.2-2.3,2.4-4.6,3.7-6.8c0.4-0.8,1.3-1.1,2.1-1.5c0.3-0.2,0.7-0.3,1-0.6c1.9-1.3,4-2.1,5.9-3.3
					c0.5-0.3,1.4-0.5,2.1-0.2c0.7,0.2,1.4,0.1,2-0.5c0.6-0.6,1.3-1.1,1.9-1.7c0.3-0.3,0.6-0.2,0.9-0.2c1.5,0.3,2.9,0.5,4.4,0.8
					c0.7,0.1,1.3-0.2,1.8-0.5c1.5-0.7,3-1.1,4.4-1.9c0.2-0.1,0.5-0.2,0.7-0.2c1.3,0.2,2.6-0.2,3.9-0.2c0.4,0,0.7-0.1,0.9-0.4
					c2.1-1.9,4.3-3.7,6.3-5.6c0.7-0.6,1.4-1.2,2-1.9c0.3-0.5,0.8-0.4,1.2-0.2c0.9,0.5,1.9,0.3,2.8,0.7c0.1,0,0.1,0,0.2,0
					c0.8-0.7,1.9-0.5,2.9-1c1.4-0.7,2.8-1.4,4.2-2.3c1.1-0.7,2.5-0.6,3.8-0.5c0.5,0,1,0,1.4-0.4c1.1-1.1,2.7-1.3,3.9-2.3
					c0.1-0.1,0.3-0.1,0.4,0c0.8,0.5,1.7,0.5,2.6,0.6c1,0.1,1.9,0.1,2.9,0.4c0.7,0.2,1.5,0.2,2.3-0.1c1.3-0.4,2.6-0.8,3.9-0.8
					c1.7,0,3.5-0.3,5.3,0.1c0.1,0,0.1,0,0.2,0c1.5,0,1.5,0,1.6,1.5c0.2,2.5,0.3,5,0.2,7.5c-0.1,1.7-0.4,3.5-0.1,5.2
					c0.1,0.6-0.2,1-0.9,0.9c-2.8-0.2-5.4,0.4-8,1.2c-0.7,0.2-1.4,0.4-2.1,0.6c-0.8,0.2-1.5-0.2-2.2-0.5c-0.7-0.3-1.2-0.3-1.6,0.2
					c-1,1.4-2.5,1-3.8,1.3c-1.1,0.3-1.7,0.7-2,1.8c-0.2,0.7-0.9,0.7-1.4,0.8c-0.5,0.1-0.9,0.2-1.3,0.3c-1,0.5-2,0.3-3-0.1
					c-0.5-0.2-0.8-0.1-1.1,0.2c-0.8,0.6-1.5,1-2.6,0.7c-0.9-0.3-2.2,0.5-2.5,1.4c-0.3,0.7-0.6,1.2-1.5,1.3c-1.6,0.3-3.1,0.9-4.6,1.5
					c-1.4,0.6-2.9,0.9-4.2,1.5c-0.2,0.1-0.5,0.2-0.6,0.4c-0.9,1.4-2.1,2.5-3,3.9c-0.5,0.8-1.2,1.1-2.1,1.1c-0.5,0-0.8,0.2-0.8,0.7
					c-0.1,1-1,1.7-0.8,2.7c0,0.1-0.2,0.1-0.2,0.2c-1.8,1.3-3.4,2.8-5.3,4c-2,1.3-3.3,3.1-4.7,5C273,262.2,272.6,262.6,271.7,262.4z"
					/>
				<path class="st2" d="M238.7,226.4c-0.3-3,0.3-5.9,0.7-8.7c0.2-1.3,0.3-2.6,0.7-3.8c0.7-2.1,1.2-4.2,1.8-6.3
					c0.5-1.5,1.2-2.8,1.6-4.3c0.1-0.3,0.2-0.4,0.4-0.5c1.5-0.6,2.9-1.6,4.3-2.4c2.4-1.3,4.9-2.6,7.3-4c0.9-0.5,1.7-1.1,2.7-1.6
					c0.4-0.2,0.7-0.3,1.1-0.2c1.9,0.6,3.8,0.9,5.7,0.4c0.8-0.2,1.4,0.1,2,0.7c0.6,0.6,1.1,0.7,1.9,0.1c1.8-1.4,3.8-2.4,5.6-3.6
					c0.7-0.4,1.2,0.2,1.8,0.2c0.2,0,0.4,0.2,0.6,0.2c2.3,0,4.5,0.5,6.8,0.9c0.8,0.1,1.3-0.4,1.9-0.6c1.1-0.3,2.1-0.9,3-1.4
					c1-0.5,2-0.5,3.1-0.3c0.6,0.1,1.3,0.2,2-0.1c0.6-0.2,1.3-0.1,1.8,0.1c0.6,0.2,1.2,0.2,1.8,0.2c1.6-0.1,3.2,0.3,4.9,0.3
					c0.3,0,0.5,0.1,0.7,0.3c0.7,0.4,1.4,0.9,2.2,0.8c1.2-0.1,2.1,0.6,3.3,0.7c0.4,0,0.8,0.3,1.1,0.7c0.6,1,1.6,1.6,2.4,2.3
					c0.8,0.6,1.8,0.5,2.7,0.7c0.8,0.1,1.6,0.3,2.2,0.8c1.5,1,3.3,1.3,4.9,2c2,0.7,4,0.8,6,1.1c0.3,0.1,0.7,0,1,0
					c1-0.2,1.5,0.4,1.8,1.3c0.7,2.1,1.3,4.3,1.8,6.4c0.3,1.5,0.8,3.1,0.9,4.7c0,0.6-0.3,0.5-0.7,0.5c-1.9,0.2-3.8-0.1-5.7-0.1
					c-1.6,0-3.3,0.1-4.9-0.1c-0.4-0.1-0.7-0.2-1-0.4c-1-0.6-2.2-0.9-3.4-1.2c-0.6-0.1-1.3-0.3-1.8-0.6c-0.5-0.4-1-0.4-1.6-0.1
					c-0.7,0.4-1.4,0.6-2.2-0.1c-0.5-0.4-1.2-0.6-1.7-1.1c-0.2-0.3-0.5-0.1-0.7,0c-1.6,0.6-3.4,0.7-5,1.4c-1.2,0.5-2.4,0.8-3.6,1.2
					c-0.3,0.1-0.5,0-0.7,0c-1.1-0.2-2.3-0.3-3.4-0.3c-1.1,0-2.3-0.2-3.4-0.2c-0.2,0-0.4-0.1-0.4-0.3c-0.6-1.2-1.7-1.4-2.9-1.2
					c-1.3,0.2-2.6,0-3.7-0.8c-0.6-0.4-1.3-0.1-2-0.1c-1.4-0.1-2.6,0.3-3.8,1.3c-1.3,1.1-2.6,2.3-4.1,3.2c-0.9,0.5-1.9,0.6-2.8,0.2
					c-0.9-0.3-1.7-0.5-2.7-0.6c-0.8-0.1-1.7-0.1-2.5-0.3c-1.4-0.5-2.6,0.4-3.7,0.9c-0.8,0.3-1.6,0.7-2.3,1.3
					c-0.1,0.1-0.3,0.2-0.5,0.2c-1.1-0.2-2.2,0.2-3.3,0c-1.6-0.3-2.9,0-3.9,1.2c-0.5,0.5-1,0.6-1.6,0.5c-1.9-0.3-3.7,0.2-5.2,1.3
					c-1.4,1-2.6,2.2-4,3.3C242.3,223.5,240.6,224.9,238.7,226.4z"/>
				<path class="st2" d="M280.1,279.2c1.1-0.6,2-1.2,3.1-1.4c1-0.2,1.7-0.8,2.6-1.1c0.2-0.1,0.2-0.1,0.2-0.3c-0.4-1.8,1.1-2,2.2-2.4
					c0.5-0.2,0.8-0.4,1.1-0.8c1-1.3,2.1-2.6,3.2-3.9c1-1.2,2.1-2.3,3.2-3.5c0.9-1,1.1-2.2,1.3-3.4c0.1-0.4,0.1-0.8,0.4-1.2
					c0.8-1.1,1.2-2.3,1.5-3.5c0.1-0.3,0.3-0.4,0.6-0.5c1.1-0.2,2.1-0.7,3.2-1c0.2-0.1,0.1-0.2,0.1-0.3c-0.2-1.6,0.7-2.8,1.2-4.2
					c0.2-0.4,0.4-0.8,0.5-1.2c0.4-1.8,1.6-3.2,2.2-4.9c0.4-0.9,1.3-1.3,2.2-1.7c1.5-0.6,2.9-1.3,4.4-2.1c1.2-0.6,1.9-1.8,2.5-3
					c0.3-0.5,0.6-0.9,1.3-0.9c1-0.1,1.8-0.6,2.9-0.5c0.2,0,0.4-0.2,0.5-0.3c0.8-0.8,1.7-1.2,2.8-1.5c1.4-0.4,2.7-1,4.1-1.4
					c1.7-0.5,3.4-0.4,5.2-0.6c0.5-0.1,0.9,0.3,0.7,0.8c-0.5,1.1-0.5,2.3-0.8,3.4c-0.8,3-1.4,6.1-2.6,9c-0.8,2-1.3,4.1-2.3,6
					c-1.5,2.6-2.6,5.4-4.4,7.8c-2,2.6-3.8,5.4-6.1,7.8c-0.8,0.8-1.7,1.5-2.5,2.2c-1,0.8-1.9,1.7-2.9,2.6c-1.4,1.2-2.8,2.1-4.3,3.1
					c-1.9,1.2-4,2.3-6.2,3c-3,1-6.2,1.3-9.3,1.5c-2,0.1-4,0-5.9-0.2c-1.6-0.2-3.2-0.5-4.7-0.7C280.8,279.7,280.5,279.4,280.1,279.2z
					"/>
				<path class="st3" d="M262.1,180.3c1.4-0.7,2.3-1.6,3.6-2.2c1.4-0.6,2.6-1.6,4.1-2.1c2.1-0.7,4.1-1.8,6.2-2.6
					c1.6-0.6,3.3-0.8,4.9-1.4c1.6-0.7,3.3-1.2,5-1.4c1.9-0.2,3.8-0.9,5.8-0.4c0.6,0.1,1.2,0.1,1.8,0.1c2.1-0.2,4.3,0.2,6.3,0.6
					c0.9,0.2,1.9,0.5,2.9,0.8c3.6,1.2,7.1,2.8,10.1,5.2c2,1.5,4.1,2.9,5.8,4.8c1.7,2,3.4,4,4.9,6.2c0.8,1.1,1.6,2.2,2.2,3.4
					c1.1,2,2.2,3.9,3.1,5.9c0.4,0.9,0.3,1.1-0.7,1c-2.4,0-4.6-0.5-6.8-1.3c-1.2-0.4-2.3-1.1-3.4-1.6c-0.2-0.1-0.3-0.3-0.4-0.5
					c-0.4-1.1-1.2-1.6-2.3-1.8c-0.9-0.1-1.3-0.7-1.8-1.4c-0.6-0.8-0.9-1.8-2.1-1.9c-0.1,0-0.2-0.1-0.3-0.2c-0.6-1.4-2.1-1.5-3.2-2.2
					c-0.5-0.3-1-0.2-1.5,0c-0.9,0.3-1.6,0.2-2.4-0.4c-1.8-1.2-3.7-2.3-5.5-3.6c-0.2-0.2-0.5-0.3-0.9-0.4c-2-0.3-3.9-0.6-5.9-0.8
					c-0.5-0.1-0.9-0.2-1.1-0.6c-0.5-1.1-1.5-1.7-2.3-2.4c-0.7-0.5-1.7-0.6-2.6-0.7c-2.8-0.3-5.6-1.2-8.5-1.5c-0.5,0-0.9,0.1-1.3,0.2
					c-2.5,0.6-5,1.2-7.5,1.7c-1.5,0.4-3,0.7-4.5,1.1C263.3,180.3,262.8,180.3,262.1,180.3z"/>
				<path class="st3" d="M306.8,279.1c1.7-0.4,2.8-1.8,4.4-2.4c1-0.4,1.7-1.2,2.6-1.9c2.4-1.8,4.7-3.8,6.6-6.1
					c1.5-1.8,2.9-3.7,4.4-5.4c0.7-0.8,1.2-1.7,1.7-2.7c1-2.1,2.5-3.9,3.4-6c0.5-1.2,0.8-2.6,1.5-3.8c1.1-1.7,1.3-3.6,2-5.4
					c1.3-3.3,1.9-6.8,2.5-10.3c0.2-0.9,0.5-1.1,1.3-0.8c2,0.9,3.9,1.9,5.6,3.5c0.9,0.8,1.7,1.7,2.4,2.7c0.7,0.9,0.9,2,1.3,3
					c0.1,0.2,0,0.3-0.1,0.5c-1.2,3.2-2.4,6.4-4.2,9.3c-2.4,3.7-4.8,7.4-7.9,10.6c-2.4,2.4-5,4.5-7.6,6.6c-2.4,2-5.3,3.4-8.1,4.9
					c-1.9,1-3.9,1.9-6,2.5c-1.5,0.4-2.9,1.2-4.5,1.4C307.6,279.3,307.2,279.4,306.8,279.1z"/>
				<path class="st4" d="M330.4,156.5c-2.7,4.1-4.8,8.5-7.4,12.6c-1.1-0.8-2.3-1.3-3.5-1.9c-0.5-0.2-0.6-0.4-0.3-1
					c1.7-3.4,3.9-6.6,5.6-10c1.4-2.7,3.2-5.3,4.6-8.1c0.6-1.2,1.2-2.3,2-3.4c0.2-0.2,0.3-0.4,0.5-0.1c1.1,1,2.5,1.4,3.7,2.2
					c1.1,0.7,1.4,1,0.9,2.3c-0.1,0.2-0.2,0.4-0.2,0.6c0,2.5-0.5,4.9-0.7,7.3c-0.1,1.5-0.4,3.1-0.3,4.7c0.5-0.9,1-1.9,1.5-2.8
					c1.5-2.7,3-5.4,4.5-8.1c0.2-0.4,0.3-0.5,0.7-0.3c1.2,0.7,2.4,1.3,3.6,1.9c0.5,0.2,0.3,0.5,0.1,0.8c-1,1.7-2,3.4-2.9,5.1
					c-1.4,2.7-3.1,5.3-4.6,8.1c-1.5,2.8-3.2,5.4-4.6,8.3c-0.2,0.4-0.4,0.3-0.7,0.2c-1.1-0.6-2.3-1.1-3.3-1.9c-0.7-0.5-0.3-1.3-0.2-2
					c0.1-0.6,0.1-1.1,0.1-1.6c0.1-2.3,0.1-4.5,0.3-6.8C330.3,160.5,330,158.5,330.4,156.5z"/>
				<path class="st4" d="M352.3,199.5c0.7-1.6,1.3-3,2.2-4.4c0.3-0.4,0.8-0.3,1.2-0.4c3.9-1.5,7.9-2.7,11.9-4.1
					c1.4-0.5,2.7-1.1,4.2-1.4c0.3,0,0.6-0.1,0.8,0c0.7,0.3,1.4,0.8,2.1,0.9c1.8,0.4,2.2,1.9,2.6,3.4c0,0.1,0,0.3,0.1,0.4
					c0.6,1.8,1.3,3.6,1.9,5.5c0.1,0.2,0.3,0.3,0.1,0.6c-0.6,1.3-1.2,2.6-1.8,3.9c-0.4,0.8-1.3,0.8-2,1c-0.2,0.1-0.5,0.1-0.7,0.2
					c-1.7,0.6-3.3,1.3-5,1.8c-3.3,1.1-6.7,2.1-10,3.4c-0.2,0.1-0.4,0-0.7-0.1c-1.2-0.6-2.4-1.2-3.6-1.7c-0.6-0.2-0.7-0.6-0.9-1.1
					c-0.5-1.9-1.1-3.7-1.9-5.5C352.8,201.2,352.6,200.3,352.3,199.5z M360.8,204.4c0.1,0,0.2-0.1,0.3-0.1c1.7-0.6,3.5-1.2,5.2-1.8
					c1.8-0.6,3.6-1.4,5.5-1.9c1.2-0.4,1.7-1.1,1.2-2.3c-0.2-0.4-0.3-0.8-0.3-1.3c-0.3-1.7-1.6-2.1-2.3-1.7c-0.7,0.3-1.5,0.6-2.3,0.8
					c-2.7,1-5.6,1.8-8.3,3c-1,0.5-1.4,1.3-1,2.4c0.2,0.6,0.5,1.3,0.7,1.9C359.7,204.1,360.4,204,360.8,204.4z"/>
				<path class="st4" d="M311.4,313.3c-0.7,0-1.1-0.4-1.6-0.6c-0.9-0.5-1.8-1-2.7-1.5c-0.3-0.1-0.4-0.3-0.5-0.6
					c-0.3-1.7-0.8-3.4-1.2-5.1c-0.5-1.9-1-3.7-1.3-5.6c0-0.1,0-0.2-0.1-0.3c-0.7-1.8-0.9-3.7-1.5-5.5c-0.3-0.9-0.4-1.7,0.3-2.5
					c0.2-0.3,0.4-0.6,0.5-0.9c0.7-2.1,2.3-2.6,4.3-2.9c1.8-0.3,3.6-0.9,5.4-1.4c0.6-0.2,1-0.1,1.6,0.3c0.9,0.7,2,1.2,3,1.7
					c0.4,0.2,0.6,0.4,0.6,0.9c0,0.2,0.1,0.5,0.1,0.8c0.5,1.8,1.1,3.5,1.4,5.3c0.5,2.3,1.3,4.6,1.7,6.9c0.3,1.5,0.9,2.8,1,4.4
					c0,0.2,0.1,0.4,0,0.6c-0.5,1-1.1,1.9-1.5,2.9c-0.5,1.2-1.5,1.3-2.5,1.5c-0.5,0.1-0.9,0.1-1.4,0.3c-1.6,0.5-3.4,0.8-5,1.4
					C311.8,313.3,311.5,313.3,311.4,313.3z M312.4,292.4c-1.2,0.2-2.4,0.3-3.4,0.8c-0.5,0.3-0.9,0.8-0.8,1.6
					c0.4,1.9,0.8,3.7,1.4,5.6c0.5,1.8,0.8,3.7,1.4,5.5c0.3,1,1,1.4,2,1.1c0.5-0.1,0.9-0.3,1.4-0.3c1.5-0.1,2.6-1.5,1.8-2.8
					c-0.3-0.4-0.2-1-0.3-1.5c-0.8-3-1.6-6-2.3-9C313.5,292.8,312.9,292.6,312.4,292.4z"/>
				<path class="st4" d="M294,156.5c0.5-3.9,0.8-7.4,1.3-10.8c0.2-1.9,0.2-3.9,0.7-5.8c0.1-0.3,0.1-0.5,0.4-0.7
					c1.1-0.8,2.1-1.7,3.2-2.5c0.5-0.4,1.1-0.2,1.6,0c0.4,0.1,0.7,0.2,1.1,0.2c2.2,0.1,4.4,0.6,6.6,0.7c0.2,0,0.4,0,0.5,0.2
					c0.5,1,1.3,1.7,2,2.6c1.1,1.3,0.5,2.7,0.4,4c0,0.2-0.1,0.3-0.1,0.5c0,2.2-0.5,4.3-0.7,6.5c-0.2,2-0.5,4-0.7,6
					c-0.1,0.8-0.3,1.7-0.3,2.5c0,0.7-0.6,0.9-1,1.1c-0.8,0.5-1.6,1.2-2.4,1.8c-0.3,0.2-0.5,0.5-0.9,0.2c-0.1-0.1-0.2,0-0.3,0
					c-2.5-0.1-5-0.7-7.5-0.7c-0.8,0-1.4-0.4-1.8-1.1c-0.2-0.4-0.5-0.8-0.8-1.1C294.2,158.9,293.5,157.7,294,156.5z M300.5,147
					c-0.1,2.1-0.6,3.8-0.6,5.6c0,0.5-0.1,1-0.2,1.5c-0.4,1.6,0.3,2.4,1.6,2.8c0.7,0.2,1.5,0.2,2.3,0.2c0.6,0,1.3-0.5,1.4-1.1
					c0.2-1.1,0.3-2.1,0.4-3.2c0.2-2.6,0.7-5.1,0.8-7.6c0-0.2,0.1-0.3,0.1-0.5c0.3-0.8-0.4-1.9-1.2-2c-0.9-0.1-1.8-0.2-2.7-0.2
					c-0.7,0-1.3,0.4-1.4,1.1C300.9,144.7,300.4,145.9,300.5,147z"/>
				<path class="st4" d="M243.7,153.5c0.3,0,0.7,0.1,1,0.1c1.2-0.1,2.1,0.4,2.7,1.5c0.6,1,1.4,1.8,2.2,2.7c1.7,2.2,3.6,4.4,5.4,6.6
					c1,1.3,2.1,2.6,3,3.9c0.5,0.7,0.1,1.6,0.1,2.4c0,0.1-0.2,0.3-0.1,0.4c0.5,2.3-1.3,3.2-2.6,4.3c-1.4,1.2-2.8,2.3-4.2,3.5
					c-0.4,0.4-0.8,0.5-1.4,0.4c-1-0.2-2.1-0.2-3.2-0.3c-0.6,0-1-0.2-1.4-0.7c-2.4-3-4.8-6-7.2-9c-1.3-1.6-2.6-3.2-3.9-4.8
					c-0.3-0.3-0.3-0.6-0.3-1c0-1.3,0.4-2.5,0.4-3.8c0-0.4,0.2-0.4,0.4-0.6c1.7-1.6,3.6-2.9,5.4-4.5c1-0.9,2-1.5,3.4-1.1
					C243.4,153.5,243.5,153.5,243.7,153.5C243.7,153.5,243.7,153.5,243.7,153.5z M243.4,159.6c-0.6-0.2-1.1,0-1.6,0.5
					c-0.4,0.5-1,0.9-1.4,1.3c-0.6,0.6-0.7,1.5-0.2,2.1c1.4,1.7,2.8,3.4,4.1,5.1c0.8,1.1,1.8,2,2.5,3.1c1,1.5,2.1,1.6,3.5,0.4
					c0.4-0.3,0.7-0.6,1.1-0.9c0.7-0.5,0.8-1.6,0.3-2.3c-1.5-1.8-3-3.6-4.4-5.5c-0.8-1.1-1.8-2-2.5-3.2
					C244.5,159.8,244.1,159.5,243.4,159.6z"/>
				<path class="st4" d="M279.8,150.6c-0.4,1.1-0.8,2.2-1.2,3.2c-0.2,0.5-0.2,0.7,0.2,1.1c1.8,2.2,3.6,4.3,5.5,6.5
					c0.4,0.4,0.3,0.6-0.2,0.8c-1.4,0.7-3,0.8-4.4,1.5c-0.3,0.1-0.4-0.2-0.6-0.3c-1.6-2-3.2-3.9-4.7-5.9c-0.6-0.8-1.2-0.8-2-0.5
					c-1.3,0.4-1.3,0.4-0.9,1.7c0.7,2.1,1.3,4.3,2,6.4c0.1,0.4,0.1,0.6-0.3,0.6c-1.4,0.3-2.7,0.7-4,1.2c-0.3,0.1-0.4,0-0.5-0.3
					c-0.5-1.8-1-3.7-1.6-5.5c-0.7-2.4-1.6-4.8-2.2-7.3c-0.6-2.1-1.4-4.1-1.9-6.2c-0.4-1.6-1.1-3.1-1.3-4.7c-0.1-0.3,0-0.5,0.3-0.6
					c2.1-0.7,4.2-1.4,6.3-2c1.4-0.4,2.8-0.9,4.2-1.3c0.2-0.1,0.4-0.2,0.7-0.1c1.4,0.7,2.8,1.4,4.1,2.4c0.4,0.3,0.5,0.9,0.6,1.3
					c0.5,2,1,4,1.7,5.9C279.6,149.3,279.6,150,279.8,150.6z M267.7,146.6c0,0.2,0,0.3,0,0.3c0.6,1.4,1,2.9,1.4,4.4
					c0.1,0.4,0.4,0.3,0.6,0.2c0.9-0.3,1.8-0.7,2.8-0.9c1.2-0.2,1.9-1.5,1.3-2.7c-0.2-0.4-0.5-0.8-0.5-1.2c0-0.9-0.5-1.1-1.2-1.4
					c-0.4-0.2-0.8-0.2-1.3-0.1c-0.9,0.3-1.8,0.8-2.8,1C267.8,146.2,267.6,146.4,267.7,146.6z"/>
				<path class="st4" d="M213.7,265.9c-0.9-1.5-1.2-3.3-2-4.8c-0.2-0.3,0.1-0.5,0.3-0.7c1.9-1.6,3.5-3.6,5.6-5.1
					c0.7-0.5,0.9-1,0.5-1.8c-0.8-1.6-0.7-1.6-2.3-0.8c-2,0.8-4,1.5-6,2.3c-0.4,0.1-0.4-0.1-0.5-0.3c-0.3-1.3-0.9-2.4-1.3-3.6
					c-0.2-0.5,0-0.8,0.5-1c1.9-0.7,3.8-1.5,5.7-2.2c2.2-0.8,4.3-1.7,6.4-2.5c2.1-0.8,4.1-1.6,6.3-2.3c1.5-0.5,2.7-1.4,4.2-1.6
					c0.4-0.1,0.5,0,0.7,0.3c0.4,0.8,0.5,1.6,0.9,2.4c0.8,1.6,1.3,3.3,2,4.9c0.4,1,0.8,2.1,1.2,3.2c0.1,0.2,0.2,0.4,0,0.6
					c-0.8,1-1.1,2.3-1.6,3.4c-0.2,0.5-0.5,0.8-1,1c-2.6,1-5.2,1.9-7.8,3.1c-0.3,0.1-0.5,0.1-0.8,0c-0.9-0.3-1.8-0.4-2.6-0.8
					c-0.9-0.4-1.6-0.1-2.2,0.5C217.9,262,215.8,263.9,213.7,265.9z M229.8,252c0-0.1,0-0.3,0-0.4c-0.5-1.1-0.9-2.3-1.4-3.4
					c-0.1-0.3-0.3-0.2-0.5-0.2c-1.5,0.2-2.7,1.4-4.2,1.6c-0.4,0.1-0.4,0.2-0.3,0.6c0.3,1.1,0.8,2.1,1.2,3.1c0.4,1.1,1.2,1.4,2.3,0.9
					c0.5-0.2,0.9-0.4,1.5-0.5C229.1,253.6,229.6,252.9,229.8,252z"/>
				<path class="st4" d="M352.1,294.2c-1.4,1.1-3,1.8-4.3,2.9c-0.2,0.2-0.4,0.1-0.6-0.1c-2.1-1.6-4.4-2.9-6.5-4.4
					c-0.7-0.5-1.2-0.4-1.7,0.1c-0.2,0.2-0.4,0.4-0.6,0.5c-0.5,0.3-0.5,0.6-0.2,1.1c1.4,2,2.7,4,4,5.9c0.1,0.2,0.3,0.3,0,0.5
					c-1.2,0.6-2.1,1.7-3.3,2.3c-0.3,0.2-0.5,0.2-0.7-0.1c-1.4-2.1-2.7-4.2-4.1-6.3c-0.7-1-1.4-2-2-3c-1.4-2.1-2.9-4.2-4.3-6.3
					c-1.1-1.7-2.2-3.4-3.4-5.1c-0.3-0.5,0.1-0.6,0.3-0.7c1.8-1.2,3.6-2.4,5.4-3.6c1.2-0.8,2.4-1.7,3.7-2.5c0.2-0.1,0.3-0.3,0.6-0.2
					c1.3,0.5,2.7,0.5,4.1,0.8c0.4,0.1,0.7,0.2,1,0.7c0.6,1,1.4,2,2,3c0.9,1.4,1.8,2.7,2.7,4c0.2,0.3,0.2,0.5,0.1,0.9
					c-0.3,1.1-0.2,2.3-0.2,3.4c0,0.3,0.2,0.4,0.4,0.5c1.1,0.8,2.1,1.6,3.2,2.3C349,292.2,350.5,293.2,352.1,294.2z M334.3,288.5
					c1-0.7,2.1-1.5,3.1-2.2c0.9-0.7,0.9-1.3,0.3-2.2c-0.4-0.6-0.9-1.2-1.1-1.9c-0.2-0.5-1.6-0.9-2-0.6c-1,0.7-1.9,1.4-3,2
					c-0.3,0.2-0.4,0.3-0.1,0.6C332.5,285.6,333.2,287.2,334.3,288.5z"/>
				<path class="st4" d="M361.3,279.7c-0.3,0.1-0.5,0-0.8-0.2c-0.9-0.6-1.9-1.1-2.8-1.8c-0.3-0.2-0.4-0.4-0.1-0.7
					c0.9-1.3,1.7-2.6,2.5-3.8c0.2-0.2,0.2-0.3,0.5-0.1c1.6,1.2,1.6,1.2,2.6-0.4c0.3-0.4,0.6-0.8,0.9-1.2c0.6-0.9,0.6-2.2,0.2-2.7
					c-0.7-0.8-2.3-1.2-3.1-0.8c-0.3,0.1-0.5,0.5-0.7,0.8c-0.8,1.3-1.7,2.7-2.5,4c-0.2,0.3-0.4,0.6-0.8,0.6c-1.1-0.1-2.1,0.3-3.2,0.5
					c-0.7,0.1-1.3,0.1-1.8-0.3c-2.1-1.4-4.2-2.7-6.3-4c-0.5-0.3-0.7-0.9-0.7-1.4c0-1.1-0.4-2.1-0.6-3.1c-0.1-0.4-0.1-0.7,0.2-1.1
					c1.6-2.3,3.2-4.7,4.7-7.1c0.4-0.7,1-0.7,1.6-0.7c1,0,2-0.3,3-0.5c0.6-0.1,0.9-0.1,1.4,0.4c0.6,0.6,1.4,1,2.1,1.4
					c0.4,0.3,0.6,0.5,0.2,1c-0.8,1.1-1.6,2.3-2.3,3.4c-0.3,0.5-0.5,0.4-0.9,0.2c-1.2-0.7-1.2-0.7-2,0.4c-0.5,0.7-1,1.5-1.5,2.3
					c-0.3,0.6,0,1.1,0.3,1.6c0.3,0.4,0.7,0.8,1.2,1.1c0.9,0.7,1.9,0.5,2.6-0.5c1-1.5,2-2.9,3-4.4c0.4-0.6,1.2-0.6,1.8-0.6
					c0.9,0,1.7-0.2,2.5-0.4c0.7-0.2,1.2,0,1.7,0.4c1.2,1,2.5,1.8,3.8,2.6c0.8,0.5,1.5,1,2.3,1.5c0.7,0.4,0.6,1.2,0.6,1.7
					c0,0.8,0.1,1.6,0.4,2.4c0.3,0.8-0.1,1.4-0.6,1.9c-1.5,1.9-2.8,4-4.1,6.1c-0.3,0.5-0.6,0.9-1.4,0.9
					C363.7,279.1,362.6,279.7,361.3,279.7z"/>
				<path class="st4" d="M233.5,292.8c-0.9-1.5-2.2-2.5-3.2-3.8c-0.3-0.4-0.1-0.6,0.1-0.8c0.6-0.7,0.9-1.6,1.5-2.3
					c0.4-0.5,0.3-0.9,0-1.4c-1.4-1.6-2.8-3.2-4.2-4.9c-0.2-0.3-0.4,0-0.5,0c-1,0.6-2.1,1-3.1,1.4c-0.4,0.2-0.6,0.1-0.8-0.2
					c-0.9-1.1-1.8-2.1-2.7-3.2c-0.4-0.4-0.4-0.7,0.2-1c3.1-1.4,6.2-2.9,9.4-4.2c1.7-0.7,3.3-1.5,4.9-2.2c2.3-1.1,4.8-2,7.1-3.2
					c0.2-0.1,0.5-0.1,0.7-0.2c0.7-0.3,1.6-1.2,2-0.9c0.8,0.6,1.5,1.5,2.2,2.3c0.1,0.1,0.2,0.3,0.3,0.4c1.1,1.3,1.1,1.3,0.2,2.7
					c-2,3-3.9,6.2-5.9,9.2c-1.8,2.6-3.3,5.4-5.1,8C235.4,290,234.6,291.4,233.5,292.8z M239.4,274.2c-0.9,0.4-1.6,0.8-2.4,1.1
					c-1.5,0.6-2.9,1.3-4.4,1.9c-0.3,0.1-0.3,0.3-0.1,0.5c1,0.9,1.6,2.1,2.7,2.9C236.5,278.6,237.9,276.4,239.4,274.2z"/>
				<path class="st4" d="M261.4,298.8c-0.3-0.2-0.6-0.3-0.8-0.5c-1.8-0.9-3.4-2.1-5.3-3c-0.5-0.2-0.7-0.2-0.9,0.3
					c-1,1.9-2,3.8-3,5.6c-0.3,0.6-0.8,1.2-1.2,1.9c-0.2,0.3-0.3,0.3-0.6,0.1c-1.1-0.6-2.1-1.1-3.2-1.7c-0.5-0.2-0.5-0.5-0.3-0.9
					c1.9-3.8,4.1-7.3,6.1-11.1c1.3-2.4,2.7-4.8,4-7.3c0.6-1.2,1.5-2.1,2-3.3c0.1-0.4,0.4-0.2,0.6-0.1c2.1,1.2,4.1,2.5,6.3,3.6
					c0.8,0.4,1.5,0.9,2.4,1.2c0.7,0.3,1.1,0.8,1.3,1.5c0.3,1.2,0.7,2.5,1,3.7c0.1,0.3,0,0.5-0.1,0.7c-1.4,2.5-2.8,5.1-4.2,7.5
					c-0.4,0.7-1.4,0.8-2.1,1C262.7,298.3,262.1,298.6,261.4,298.8z M263.8,289.1c-0.4-0.5-0.2-1.1-0.8-1.6c-0.8-0.6-1.8-0.9-2.6-1.5
					c-0.2-0.1-0.4-0.2-0.6,0.1c-0.9,1.4-1.7,2.8-2.4,4.3c-0.2,0.4-0.1,0.5,0.2,0.7c0.8,0.4,1.6,0.9,2.4,1.3c0.4,0.2,0.7,0.2,1.2,0.1
					C262.8,292,262.8,290.2,263.8,289.1z"/>
				<path class="st3" d="M347.6,240.4c-0.6-0.5-0.8-1.1-1.1-1.7c-1-1.6-2.4-2.9-3.8-4.1c-1.7-1.4-3.7-2.2-5.7-2.9
					c-0.6-0.2-0.7-0.6-0.6-1.2c0.1-0.3,0.2-0.6,0.2-0.8c0-2.4,0.3-4.9,0.2-7.3c-0.1-1.8-0.4-3.5-0.3-5.3c0-0.7,0.5-0.8,1-0.8
					c1.7,0,3.4,0.6,5.1,0.8c2.1,0.3,3.8,1.3,5.7,2c0.7,0.3,1.1,0.8,1.2,1.6c0.3,2.2,0.3,4.4,0.3,6.5c0,3-0.5,6-1.1,8.9
					C348.3,237.6,348,238.9,347.6,240.4z"/>
				<path class="st3" d="M348.9,217.1c-1.9-1-3.7-1.5-5.5-2.1c-1.5-0.5-3-0.7-4.6-0.9c-0.8-0.1-1.6-0.3-2.4-0.3
					c-0.5,0-0.6-0.3-0.6-0.7c-0.4-2-0.7-4-1.1-6c-0.4-1.6-0.8-3.1-1.5-4.6c-0.1-0.4-0.3-0.7-0.4-1.1c-0.3-0.6-0.1-1,0.5-1.3
					c1.6-0.6,3-1.4,4.4-2.4c0.7-0.5,1.2-1.3,1.8-2c0.4-0.5,0.7-0.7,1.2,0c0.7,0.9,1.1,2,1.6,2.9c0.6,1,1.4,2,1.9,3.1
					c0.7,1.7,1.6,3.2,2,5c0.3,1.3,0.7,2.5,1.2,3.7C348.2,212.5,348.4,214.7,348.9,217.1z"/>
				<path class="st4" d="M287.9,307c-0.2,2-0.4,4-0.5,6.1c0,0.4-0.3,0.8-0.3,1.2c0,0.3-0.2,0.3-0.4,0.3c-1.6,0-3.1-0.4-4.7-0.4
					c-0.2,0-0.4,0-0.3-0.4c0.2-0.5,0.2-1.1,0.2-1.7c0.1-2.2,0.5-4.5,0.7-6.7c0.3-2.8,0.7-5.7,0.8-8.5c0.1-0.8,0.4-1.6,0.4-2.4
					c0-0.4-0.1-0.5-0.5-0.5c-1,0-2-0.1-2.9-0.1c-1.1-0.1-1.2-0.1-1.1-1.2c0.1-1.3,0.4-2.7,0.4-4c0-0.5,0.3-0.5,0.6-0.4
					c1.5,0.1,3,0.3,4.6,0.5c2.4,0.2,4.7,0.6,7.1,0.7c0.3,0,0.6,0.2,0.9,0.2c1.6,0.2,1.7,0.3,1.3,1.8c-0.2,1.1-0.3,2.2-0.3,3.2
					c0,0.6-0.3,0.8-0.8,0.6c-1.1-0.4-2.3-0.2-3.4-0.4c-0.4-0.1-0.5,0.1-0.6,0.5c-0.3,1.4-0.2,2.9-0.5,4.3
					C288.3,302.1,288.5,304.6,287.9,307z"/>
				<path class="st4" d="M225.6,176.9c-0.2,0.4-0.5,0.8-0.7,1.2c-0.4,0.8-0.9,1.5-1.3,2.3c-0.2,0.3-0.1,0.5,0.2,0.7
					c1.2,0.7,2.4,1.4,3.6,2.1c2.7,1.5,5.2,3.3,8,4.7c1.7,0.9,3.2,2.1,4.9,3c0.3,0.2,0.4,0.3,0.2,0.7c-0.8,1.2-1.5,2.4-2.3,3.7
					c-0.2,0.4-0.4,0.4-0.8,0.2c-1.4-0.8-2.8-1.6-4.2-2.4c-2.9-1.9-6-3.4-8.9-5.2c-1-0.6-2-1.3-3.1-1.9c-0.5-0.3-0.8-0.3-1,0.3
					c-0.5,1-1.2,2-1.7,3c-0.2,0.4-0.4,0.5-0.8,0.2c-1.3-0.9-2.6-1.8-4-2.5c-0.4-0.2-0.2-0.5-0.1-0.7c0.7-1.1,1.5-2.1,2.1-3.3
					c0.9-1.7,1.9-3.5,3-5.1c0.8-1.1,1.5-2.3,2.1-3.4c0.1-0.2,0.3-0.4,0.5-0.2c1.1,1.1,2.6,1.5,3.9,2.4
					C225.4,176.6,225.6,176.6,225.6,176.9z"/>
				<path class="st4" d="M367.6,174.5c-1.1,1.2-2.6,2-3.8,3.1c-0.4,0.4-0.6,0.1-0.8-0.2c-0.6-1-1.5-1.8-2.2-2.8
					c-0.3-0.4-0.4-0.2-0.6-0.1c-1.2,0.7-2.1,1.7-3.1,2.5c-2.3,1.7-4.4,3.6-6.6,5.4c-1.7,1.3-3.4,2.6-5,4.1c-0.3,0.3-0.6,0.3-0.9,0
					c-0.9-1.2-1.9-2.3-2.9-3.5c-0.1-0.2-0.2-0.2,0-0.4c2.3-1.9,4.6-3.8,7-5.7c2.5-2,5-4,7.5-6.1c1-0.8,1-0.8,0.1-1.8
					c-0.6-0.7-1.3-1.3-1.8-2.2c-0.1-0.2-0.3-0.4,0-0.6c1.3-1.1,2.5-2.1,3.8-3.2c0.4-0.3,0.5,0.1,0.6,0.2c1.9,2.4,3.9,4.8,5.8,7.4
					C365.6,171.9,366.8,173,367.6,174.5z"/>
				<path class="st3" d="M310,173.1c0.5-0.3,0.8,0,1.2,0.1c2.4,0.5,4.4,1.7,6.5,2.7c1.3,0.6,2.7,1.2,4,2c3,2,6.1,3.9,8.9,6.2
					c1.1,0.9,2,2.1,3,3.2c1,1,2.1,1.9,3,3c0.7,0.8,1.2,1.6,1.5,2.5c0.1,0.4,0.1,0.7-0.1,1c-1.4,2.1-3.2,3.5-5.6,4.1
					c-0.4,0.1-0.6,0-0.8-0.4c-1.3-2.7-2.7-5.3-4.3-7.8c-1.5-2.3-3-4.6-4.8-6.6c-2.3-2.6-4.6-5.3-7.7-7.2c-1.4-0.9-2.9-1.6-4.4-2.4
					C310.3,173.4,310.1,173.3,310,173.1z"/>
				<path class="st1" d="M360.8,204.4c-0.4-0.3-1.1-0.3-1.3-1c-0.2-0.7-0.5-1.3-0.7-1.9c-0.4-1.1,0-1.9,1-2.4c2.7-1.2,5.5-1.9,8.3-3
					c0.8-0.3,1.5-0.5,2.3-0.8c0.8-0.4,2,0.1,2.3,1.7c0.1,0.4,0.2,0.8,0.3,1.3c0.4,1.2,0,1.9-1.2,2.3c-1.8,0.6-3.7,1.3-5.5,1.9
					c-1.7,0.6-3.5,1.2-5.2,1.8C361.1,204.3,361,204.3,360.8,204.4z"/>
				<path class="st1" d="M312.4,292.4c0.5,0.2,1.1,0.4,1.2,1.1c0.8,3,1.6,6,2.3,9c0.1,0.5,0,1,0.3,1.5c0.8,1.3-0.3,2.7-1.8,2.8
					c-0.5,0-1,0.2-1.4,0.3c-1,0.3-1.7-0.1-2-1.1c-0.6-1.8-0.9-3.7-1.4-5.5c-0.5-1.8-0.9-3.7-1.4-5.6c-0.2-0.8,0.3-1.3,0.8-1.6
					C310,292.7,311.2,292.6,312.4,292.4z"/>
				<path class="st1" d="M300.5,147c-0.1-1,0.4-2.2,0.5-3.5c0.1-0.7,0.7-1.1,1.4-1.1c0.9,0,1.8,0.1,2.7,0.2c0.8,0.1,1.4,1.2,1.2,2
					c-0.1,0.2-0.1,0.3-0.1,0.5c-0.1,2.6-0.6,5.1-0.8,7.6c-0.1,1.1-0.2,2.2-0.4,3.2c-0.1,0.6-0.7,1-1.4,1.1c-0.8,0-1.6,0-2.3-0.2
					c-1.3-0.3-2-1.2-1.6-2.8c0.1-0.5,0.2-1,0.2-1.5C300,150.8,300.4,149,300.5,147z"/>
				<path class="st1" d="M243.4,159.6c0.6-0.1,1.1,0.2,1.4,0.7c0.7,1.2,1.7,2.1,2.5,3.2c1.4,1.9,3,3.7,4.4,5.5
					c0.5,0.6,0.4,1.8-0.3,2.3c-0.4,0.3-0.7,0.6-1.1,0.9c-1.4,1.2-2.5,1.1-3.5-0.4c-0.8-1.1-1.7-2.1-2.5-3.1
					c-1.3-1.7-2.8-3.4-4.1-5.1c-0.5-0.7-0.4-1.6,0.2-2.1c0.5-0.4,1-0.8,1.4-1.3C242.3,159.7,242.8,159.4,243.4,159.6z"/>
				<path class="st1" d="M267.7,146.6c0-0.2,0.1-0.4,0.4-0.4c1-0.2,1.9-0.6,2.8-1c0.5-0.2,0.8-0.1,1.3,0.1c0.6,0.3,1.2,0.5,1.2,1.4
					c0,0.4,0.3,0.8,0.5,1.2c0.6,1.3,0,2.5-1.3,2.7c-1,0.2-1.9,0.6-2.8,0.9c-0.3,0.1-0.5,0.2-0.6-0.2c-0.4-1.5-0.8-2.9-1.4-4.4
					C267.6,146.9,267.7,146.8,267.7,146.6z"/>
				<path class="st1" d="M229.8,252c-0.2,0.9-0.6,1.6-1.6,1.7c-0.5,0.1-1,0.3-1.5,0.5c-1.1,0.4-1.8,0.1-2.3-0.9
					c-0.4-1-0.9-2-1.2-3.1c-0.1-0.4,0-0.6,0.3-0.6c1.5-0.2,2.7-1.3,4.2-1.6c0.3,0,0.4-0.1,0.5,0.2c0.5,1.1,0.9,2.3,1.4,3.4
					C229.8,251.7,229.8,251.9,229.8,252z"/>
				<path class="st1" d="M334.3,288.5c-1.1-1.3-1.8-2.9-2.8-4.3c-0.2-0.3-0.1-0.5,0.1-0.6c1.1-0.6,2-1.3,3-2c0.4-0.3,1.8,0.1,2,0.6
					c0.3,0.7,0.7,1.3,1.1,1.9c0.6,0.9,0.6,1.5-0.3,2.2C336.4,287,335.4,287.8,334.3,288.5z"/>
				<path class="st1" d="M239.4,274.2c-1.5,2.3-2.8,4.4-4.2,6.5c-1.1-0.8-1.7-2-2.7-2.9c-0.2-0.2-0.3-0.4,0.1-0.5
					c1.5-0.6,3-1.3,4.4-1.9C237.7,275,238.5,274.6,239.4,274.2z"/>
				<path class="st1" d="M263.8,289.1c-1,1.1-0.9,2.9-2.6,3.4c-0.4,0.1-0.8,0.1-1.2-0.1c-0.8-0.5-1.6-0.9-2.4-1.3
					c-0.3-0.2-0.4-0.3-0.2-0.7c0.7-1.5,1.5-2.9,2.4-4.3c0.2-0.3,0.4-0.3,0.6-0.1c0.8,0.6,1.8,0.9,2.6,1.5
					C263.5,288,263.3,288.7,263.8,289.1z"/>
			</g>
		</g>
	</g>
	<g>
		
			<image style="overflow:visible;" width="97" height="148" xlink:href="A466F10F5A5722DE.png"  transform="matrix(1 0 0 1 155 125)">
		</image>
	</g>
	<g>
		
			<image style="overflow:visible;" width="97" height="148" xlink:href="A466F10F5A5722DD.png"  transform="matrix(1 0 0 1 155 125)">
		</image>
	</g>
	<g>
		<g>
			
				<ellipse transform="matrix(0.9982 -5.915935e-02 5.915935e-02 0.9982 -9.8975 6.6356)" class="st5" cx="107.1" cy="170.5" rx="102.8" ry="102.8"/>
			
				<ellipse transform="matrix(0.9982 -5.915935e-02 5.915935e-02 0.9982 -9.8975 6.6356)" class="st6" cx="107.1" cy="170.5" rx="102.8" ry="102.8"/>
		</g>
		<g>
			<defs>
				
					<ellipse id="SVGID_1_" transform="matrix(0.9982 -5.915935e-02 5.915935e-02 0.9982 -9.8752 6.6088)" cx="106.7" cy="170.1" rx="95.1" ry="95.1"/>
			</defs>
			<clipPath id="SVGID_2_">
				<use xlink:href="#SVGID_1_"  style="overflow:visible;"/>
			</clipPath>
			<g id="PjtBNQ.tif" class="st7">
				<g>
					<path class="st5" d="M110.7,253.4c-30.4,1.8-60.8,3.6-91.2,5.4c-0.6,0-0.7-0.1-0.7-0.7c-3.4-56.8-6.7-113.6-10.1-170.4
						c0-0.6,0.1-0.7,0.7-0.7c60.8-3.6,121.6-7.2,182.4-10.8c0.6,0,0.7,0.1,0.7,0.7c3.4,56.8,6.7,113.6,10.1,170.4
						c0,0.6-0.1,0.7-0.7,0.7C171.5,249.8,141.1,251.6,110.7,253.4z M90.8,100.7c-0.2-0.1-0.4-0.2-0.6-0.3c-2.1-1.3-4.2-2.7-6.3-4
						c-0.4-0.3-0.6-0.3-0.7,0.3c-0.2,0.9-0.5,1.9-0.7,2.8c-0.1,0.4-0.3,0.8-0.7,1.1c-2.5,2-5,4.1-7.5,6.1c-0.7,0.5-0.7,1-0.4,1.7
						c1.1,2.8,2.2,5.7,3.3,8.6c0.3,0.6,0.1,0.8-0.5,0.8c-1.5,0.2-2.9,0.4-4.4,0.6c-4.5,0.7-9,1.4-13.4,2.3c-2.7,0.5-5.4,1.1-8.1,1.6
						c-0.5,0.1-0.6,0.3-0.6,0.8c0.1,1.3,0.2,2.6,0.2,3.9c0,0.6,0.2,0.7,0.7,0.5c6.1-1.3,12.2-2.4,18.3-3.4c7.5-1.2,15-2.2,22.5-2.9
						c0.5,0,0.8,0,1.2,0.3c3.2,2,6.3,4.1,9.5,6.1c0.4,0.3,0.7,0.3,1.1,0c2.9-2.4,5.8-4.8,8.7-7.2c0.4-0.3,0.8-0.5,1.3-0.5
						c6.2-0.2,12.4-0.1,18.5,0.1c3.7,0.1,7.4,0.3,11.1,0.5c3.9,0.2,7.7,0.5,11.5,0.9c0.5,0.1,0.7-0.1,0.7-0.7
						c-0.1-1.2-0.2-2.3-0.2-3.5c-0.1-1.1-0.1-1.1-1.1-1.1c-3.2-0.2-6.4-0.5-9.5-0.7c-5.5-0.4-10.9-0.6-16.4-0.7
						c-0.6,0-0.8-0.1-0.6-0.8c0.8-3.1,1.5-6.2,2.3-9.3c0.1-0.5,0-0.8-0.5-1.1c-2.8-1.7-5.5-3.5-8.2-5.2c-0.5-0.3-0.9-0.7-1.1-1.3
						c-0.3-1-0.8-2-1.2-3.1c-2.3,1.9-4.5,3.7-6.9,5.6c0.1-0.5,0.2-0.8,0.2-1.1c0.6-2.2,1.1-4.5,1.8-6.7c0.2-0.7,0-0.8-0.7-0.8
						c-0.8,0.1-1.6,0.1-2.4,0.2c-0.5,0.1-1-0.1-1.4-0.4c-2.8-1.8-5.6-3.6-8.4-5.4c-0.5-0.3-0.8-0.3-1.2,0.1c-1.8,1.5-3.8,3-5.5,4.6
						c-1.7,1.6-3.6,2.7-6.1,2.4c-0.6-0.1-0.7,0.2-0.5,0.8c0.9,2.2,1.8,4.5,2.7,6.8C90.7,100.2,90.9,100.4,90.8,100.7
						C90.8,100.7,90.8,100.7,90.8,100.7z M175.9,188.6c0-0.2,0-0.3-0.1-0.4c-1.3-4.6-2.6-9.2-3.9-13.8c-0.1-0.4-0.1-0.8,0-1.3
						c0.8-3.7,1.6-7.4,2.4-11.2c0.1-0.5,0-0.7-0.5-0.8c-1.4-0.2-2.9-0.6-4.3-0.8c-13.8-2.3-27.6-3.2-41.6-3.4
						c-6.1-0.1-12.2,0.1-18.2,0.3c-9.3,0.4-18.6,1.2-27.8,2.4c-3.6,0.5-7.2,1-10.8,1.6c-4.9,0.8-9.9,1.7-14.7,2.8
						c-6.5,1.4-12.9,3-19.2,5.1c-0.6,0.2-0.7,0.4-0.5,1c1.2,3.6,2.4,7.1,3.7,10.7c0.1,0.4,0.2,0.8,0.1,1.2c-0.5,2.9-0.9,5.8-1.4,8.7
						c-0.3,2-0.6,3.9-0.9,5.9c22.4-6.9,45.2-10.3,68.4-11.7C129.7,183.6,152.9,184.3,175.9,188.6z M148.3,151.8c0-0.1,0-0.2,0-0.2
						c-0.4-6.3-0.8-12.7-1.1-19c0-0.4-0.2-0.5-0.6-0.6c-1.7-0.1-3.4-0.2-5-0.3c-5.3-0.3-10.7-0.5-16-0.5c-4.5-0.1-9.1,0-13.6,0.1
						c-7.1,0.2-14.2,0.7-21.3,1.4c-6.2,0.6-12.4,1.4-18.5,2.4c-3.8,0.6-7.7,1.3-11.5,2c-0.5,0.1-0.7,0.2-0.7,0.9
						c0.4,6.1,0.7,12.3,1.1,18.4c0,0.2,0,0.4,0,0.8c0.2-0.4,0.3-0.5,0.5-0.7c1.3-2.1,2.6-4.1,3.8-6.2c0.3-0.4,0.6-0.6,1.1-0.7
						c3.4-0.6,6.9-1.2,10.4-1.7c6-0.9,12-1.6,18-2.1c0.5,0,0.7,0.1,0.7,0.6c0.1,2.8,0.3,5.6,0.5,8.4c0,0.6,0.1,0.8,0.8,0.7
						c5.4-0.4,10.7-0.7,16.1-1c0.6,0,0.7-0.2,0.7-0.7c-0.2-2.8-0.3-5.5-0.5-8.3c0-0.7,0.1-0.9,0.8-0.9c5.7-0.2,11.5-0.2,17.2,0
						c3.7,0.1,7.4,0.3,11.1,0.4c0.5,0,0.8,0.2,1.1,0.6c1.5,1.9,3,3.8,4.5,5.6C147.9,151.4,148,151.7,148.3,151.8z M124.1,234.2
						c-1.9-1.4-3.6-2.7-5.4-4c-0.5-0.4-0.7-0.8-0.8-1.4c-0.8-13.5-1.6-27-2.4-40.5c-0.1-1.2,0.1-1-1.1-1c-5.2,0.2-10.4,0.6-15.6,0.9
						c-0.7,0-0.9,0.2-0.9,1c0.8,13.6,1.6,27.2,2.4,40.8c0,0.5-0.1,0.9-0.5,1.3c-1.6,1.4-3.1,2.8-4.6,4.3c-0.1,0.1-0.4,0.2-0.3,0.5
						c4.7,2,9.5,3.7,14.4,5.1c0.4,0.1,0.6,0,1-0.1c2.1-0.9,4.1-1.8,6.1-2.8C119.1,237,121.6,235.7,124.1,234.2z M160,196.3
						c-0.2-2.5-0.3-4.7-0.4-6.8c0-0.5-0.2-0.7-0.7-0.7c-1.5-0.1-2.9-0.3-4.4-0.5c-0.6-0.1-0.8,0.1-0.7,0.7c0.2,3.3,0.4,6.7,0.6,10
						c0.5,5.9-1,11.3-4.1,16.3c-3.3,5.4-7.8,9.7-12.8,13.6c-8.2,6.3-17.3,11.1-26.9,15c-0.3,0.1-0.6,0.1-1,0
						c-9.3-2.5-18.2-5.9-26.6-10.6c-5.4-3-10.5-6.6-14.7-11.2c-4.5-4.9-7.3-10.6-7.6-17.3c-0.2-3.4-0.4-6.8-0.6-10.3
						c0-0.7-0.3-0.8-0.9-0.6c-1.4,0.4-2.8,0.7-4.2,1c-0.6,0.1-0.7,0.4-0.6,0.9c0.2,3.2,0.4,6.4,0.6,9.6c0.3,6.2,2.4,11.8,6.1,16.8
						c4.1,5.6,9.3,10,15.1,13.7c10.4,6.6,21.8,11,33.7,14.1c0.4,0.1,0.8,0,1.2-0.1c10-3.9,19.4-8.7,28-15.1
						c6.1-4.4,11.5-9.5,15.6-15.8c2.8-4.3,4.6-8.8,5.3-13.9C160.4,202,160.1,198.9,160,196.3z M107,128.3c0,0.1,0,0.1,0.1,0.2
						c0.3,0,0.5,0,0.8,0c4.4-0.2,8.8-0.3,13.2-0.3c4.9,0,9.8,0.1,14.7,0.3c4.6,0.2,9.2,0.5,13.8,0.8c0.5,0,0.6,0.2,0.6,0.7
						c0,1,0.1,1.9,0.2,2.9c0.4,7.3,0.9,14.6,1.3,21.9c0,0.6,0.2,0.8,0.8,0.8c1.4,0.1,2.8,0.2,4.3,0.4c0.7,0.1,0.8-0.2,0.8-0.8
						c-0.4-6.6-0.8-13.2-1.2-19.7c-0.2-3.6-0.4-7.1-0.6-10.7c0-0.4,0-0.7-0.6-0.8c-4.1-0.4-8.3-0.7-12.4-0.9
						c-4.5-0.3-9-0.4-13.5-0.5c-4.9-0.1-9.7-0.1-14.6,0c-0.3,0-0.5,0-0.7,0.2C111.6,124.5,109.3,126.4,107,128.3z M99.4,129
						c0-0.1,0-0.2,0-0.3c-2.4-1.6-4.9-3.1-7.3-4.7c-0.3-0.2-0.6-0.2-0.9-0.2c-2.5,0.3-5.1,0.5-7.6,0.8c-5.8,0.7-11.5,1.5-17.2,2.5
						c-5.1,0.9-10.2,1.8-15.3,2.9c-0.4,0.1-0.5,0.3-0.5,0.7c0.6,10.3,1.2,20.6,1.8,30.8c0,0.5,0.2,0.6,0.7,0.5
						c1.4-0.3,2.8-0.6,4.2-0.9c0.6-0.1,0.8-0.4,0.8-1c-0.5-8.2-1-16.4-1.5-24.6c0-0.6,0.2-0.8,0.7-0.9c4.6-0.8,9.2-1.7,13.8-2.4
						c7.7-1.2,15.5-2.2,23.3-2.9C96.1,129.2,97.7,129.1,99.4,129z M50.3,206.1c-0.3-0.1-0.4-0.2-0.6-0.2c-4.8-1.6-9.6-3.2-14.5-4.8
						c-0.5-0.2-0.6-0.4-0.5-0.9c0.9-5.2,1.7-10.4,2.6-15.6c0.3-1.7,0.6-3.4-0.2-5c-0.2-0.5-0.4-0.7-0.9-0.5c-2,0.6-4,1.1-6.1,1.6
						c-0.4,0.1-0.6,0.3-0.5,0.7c0.1,1.1,0.1,2.2,0.2,3.3c0,0.5-0.1,0.9-0.4,1.3c-3.2,3.8-6.3,7.6-9.5,11.4c-0.4,0.5-0.3,0.6,0.2,0.9
						c3.5,2.1,6.9,4.3,10.4,6.5c0.4,0.2,0.6,0.5,0.6,1c0,1.3,0.2,2.6,0.2,3.8c0,0.7,0.3,0.8,0.8,0.6c1.4-0.4,2.8-0.7,4.2-1
						C40.9,208.1,45.5,207.1,50.3,206.1z M165.1,199.3c0.1,0,0.2,0,0.2,0c3.4,0.3,6.8,0.6,10.1,0.9c2.7,0.3,5.3,0.5,8,0.9
						c0.7,0.1,1,0,0.9-0.8c-0.1-1.1-0.1-2.2-0.2-3.4c-0.1-0.7,0.1-1.1,0.7-1.6c3.1-2.4,6.2-4.9,9.3-7.4c0.5-0.4,0.6-0.6,0.1-1.1
						c-3.6-3.4-7.2-6.8-10.8-10.1c-0.4-0.3-0.5-0.7-0.5-1.2c0-1.1-0.1-2.2-0.2-3.4c0-0.3,0-0.5-0.4-0.6c-2.2-0.3-4.4-0.6-6.6-0.9
						c-0.2,0-0.5-0.1-0.5,0.2c-0.1,1.1-0.7,2.1-0.4,3.3c1.7,5.8,3.3,11.6,4.9,17.4c0.2,0.6,0,0.8-0.5,1c-4.5,2.1-8.9,4.2-13.4,6.3
						C165.5,199,165.2,199,165.1,199.3z M78.9,216.1c0-0.1,0.1-0.2,0.1-0.3c-0.5-8.2-1-16.4-1.4-24.6c0-0.5-0.3-0.5-0.7-0.4
						c-1.3,0.2-2.7,0.4-4,0.7c-3.1,0.5-6.2,1.1-9.2,1.6c-0.3,0-0.4,0.1-0.4,0.4c0.2,1.8,0.1,3.7,0.4,5.5c0.4,2.1,1.5,4,2.7,5.8
						c2.5,3.5,5.7,6.4,9.1,9C76.6,214.6,77.7,215.4,78.9,216.1z M137.7,212.6c0.3-0.2,0.4-0.2,0.5-0.3c3.3-2.8,6.2-6,8.8-9.5
						c3.1-4.3,4.5-9,3.6-14.3c0-0.3,0-0.5-0.4-0.5c-1.7-0.1-3.3-0.2-5-0.3c-2.7-0.1-5.4-0.3-8.2-0.4c-0.8,0-0.9,0.2-0.8,0.9
						c0.5,7.9,0.9,15.8,1.4,23.7C137.6,212.1,137.6,212.3,137.7,212.6z M97.8,229.7c-5.6-2-10.8-4.3-15.9-7.3
						c0.1,2.4,0.3,4.6,0.4,6.9c0,0.4,0.3,0.5,0.6,0.6c2.8,1.7,5.7,3.2,8.6,4.6c0.6,0.3,1,0.3,1.5-0.3c0.4-0.5,0.9-0.8,1.3-1.2
						C95.4,231.9,96.5,230.9,97.8,229.7z M135.5,219.3c-0.2,0.1-0.3,0.2-0.4,0.3c-4.4,3.3-9.1,6.1-14,8.5c-0.5,0.3-0.2,0.4,0,0.6
						c1.7,1.3,3.4,2.6,5.2,3.8c0.3,0.2,0.5,0.2,0.8,0c2.9-1.8,5.8-3.8,8.5-5.9c0.2-0.2,0.4-0.4,0.4-0.7
						C135.7,223.8,135.6,221.6,135.5,219.3z M79.7,227.9c-0.1-2.2-0.3-4.2-0.4-6.2c0-0.7-0.3-1.1-0.8-1.5c-5.3-3.5-10.2-7.5-14-12.6
						c-0.1-0.1-0.1-0.2-0.3-0.1C66,216.8,72.3,222.6,79.7,227.9z M151.2,202.4c-3.1,5.1-6.9,9.5-11.5,13.3c-1.4,1.2-2,2.3-1.7,4.1
						c0.3,1.5,0.2,3,0.3,4.6c1.8-1.6,3.3-3.1,4.8-4.7c3.2-3.6,5.8-7.4,7.2-12C150.9,205.9,151.2,204.2,151.2,202.4z M63.2,159.9
						c1.4-0.3,2.6-0.5,3.8-0.7c2.7-0.4,5.4-0.9,8.1-1.3c0.4-0.1,0.4-0.2,0.4-0.6c-0.1-2-0.3-4.1-0.4-6.1c0-0.5-0.2-0.6-0.6-0.5
						c-1.6,0.3-3.2,0.5-4.7,0.7c-0.6,0.1-1.2,0.3-1.5,0.9c-0.6,1.1-1.4,2.1-2.1,3.1C65.2,157,64.3,158.4,63.2,159.9z M146.5,155
						c-0.1-0.1-0.1-0.2-0.1-0.3c-2-2.3-3.9-4.5-5.9-6.8c-0.2-0.2-0.5-0.4-0.8-0.4c-1.8-0.1-3.6-0.2-5.4-0.2c-0.3,0-0.5,0.1-0.4,0.5
						c0.1,2.1,0.3,4.2,0.4,6.3c0,0.3,0.1,0.5,0.5,0.5c0.6,0,1.2,0,1.8,0c2.3,0.1,4.6,0.2,6.9,0.3C144.4,154.9,145.4,154.9,146.5,155
						z M175.4,191.4c-0.2-0.1-0.3-0.1-0.3-0.1c-4.1-0.8-8.1-1.4-12.2-2c-0.6-0.1-0.5,0.2-0.5,0.6c0.1,2.3,0.3,4.6,0.4,7
						c0,0.1-0.1,0.3,0.2,0.4C167,195.3,171.1,193.4,175.4,191.4z M39.1,199.5c4.3,1.4,8.7,2.9,13.1,4.3c-0.2-2.6-0.3-5.2-0.4-7.7
						c0-0.4-0.2-0.3-0.5-0.3C47.2,196.9,43.1,198.1,39.1,199.5z M131.5,196.2c0-0.8-0.1-1.4-0.1-1.9c0-0.3-0.2-0.4-0.5-0.4
						c-2.4,0.2-4.7,0.2-7.1,0.5c-1.8,0.2-2.8,1.4-2.6,3.2c0,0.7,0.1,1.4,0.1,2.1c0.1,1,0.6,1.7,1.5,2.2c0.7,0.3,1.4,0.4,2.1,0.4
						c2.1-0.1,4.1-0.3,6.2-0.3c0.9,0,0.8-0.4,0.7-1c0-0.6-0.1-1-0.9-0.9c-2,0.2-4.1,0.3-6.1,0.4c-1,0.1-1.2-0.1-1.3-1.1
						c0-0.6-0.1-1.2-0.1-1.8c-0.1-1.1,0.1-1.3,1.2-1.3c1.7-0.1,3.4-0.2,5.1-0.3C130.3,195.7,130.9,195.7,131.5,196.2z M82.9,196.7
						c0.6,0.4,0.6,1,0.6,1.6c0.1,1.4,0.2,2.8,0.2,4.2c0,0.7,0.3,1.5-0.5,2.1c1.2-0.1,2.3-0.1,3.4-0.2c-0.7-0.4-0.5-1.1-0.6-1.7
						c-0.1-1.3-0.1-1.3,1.3-1.4c1.3-0.1,2.6-0.2,3.9-0.2c0.7,0,0.9-0.3,0.7-0.9c0-0.1,0-0.3,0-0.4c0.1-0.6-0.2-0.7-0.7-0.6
						c-1.6,0.1-3.2,0.2-4.7,0.3c-0.5,0-0.6-0.1-0.6-0.6c0-0.4,0-0.6,0.5-0.7c1.3,0,2.6-0.2,3.8-0.2c1.1,0,2.3-0.4,3.5,0.2
						c0-0.3,0-0.4,0-0.6c-0.1-1.7-0.1-1.7-1.8-1.6C88.9,196.4,85.9,196.5,82.9,196.7z"/>
					<path class="st8" d="M175.9,188.6c-23-4.2-46.2-4.9-69.4-3.5c-23.2,1.4-46.1,4.8-68.4,11.7c0.3-2,0.6-4,0.9-5.9
						c0.5-2.9,0.9-5.8,1.4-8.7c0.1-0.4,0-0.8-0.1-1.2c-1.2-3.6-2.4-7.2-3.7-10.7c-0.2-0.6-0.1-0.8,0.5-1c6.3-2,12.7-3.6,19.2-5.1
						c4.9-1.1,9.8-2,14.7-2.8c3.6-0.6,7.2-1.1,10.8-1.6c9.2-1.2,18.5-2,27.8-2.4c6.1-0.3,12.2-0.4,18.2-0.3
						c13.9,0.2,27.8,1.1,41.6,3.4c1.4,0.2,2.9,0.6,4.3,0.8c0.5,0.1,0.6,0.3,0.5,0.8c-0.8,3.7-1.6,7.4-2.4,11.2
						c-0.1,0.4-0.1,0.9,0,1.3c1.3,4.6,2.6,9.2,3.9,13.8C175.9,188.2,175.9,188.4,175.9,188.6z M92.5,172.9c0.9-0.7,1.5-1.6,1.4-2.7
						c0-0.8-0.1-1.5-0.1-2.3c-0.2-1.9-1.8-3.2-3.7-3c-3.2,0.4-6.4,0.8-9.6,1.2c-0.8,0.1-1.6,0.2-2.4,0.3c1.2,0.6,1.1,1.7,1.1,2.7
						c0.2,2.7,0.3,5.5,0.5,8.2c0.1,1,0.1,1.9-0.7,2.6c0,0,0,0.1,0,0.2c1.5-0.2,3.1-0.4,4.6-0.6c0-0.1,0.1-0.1,0.1-0.2
						c-0.3-0.2-0.5-0.4-0.8-0.6c-0.2-0.2-0.4-0.3-0.4-0.6c0-0.7-0.1-1.5-0.1-2.2c0-0.3,0-0.5,0.4-0.5c2.5-0.3,5-0.6,7.5-0.9
						c0.6-0.1,0.9,0.2,1,0.8c0.1,1.2,0.4,2.4-0.8,3.3c0,0,0,0.1,0,0.1c1.6-0.3,3.2-0.2,5-0.6c-1.2-0.5-1.4-1.4-1.3-2.3
						C94.3,174.6,94,173.5,92.5,172.9z M127.6,173c-0.3-0.1-0.4-0.3-0.6-0.5c-2.2-2.6-4.5-5.1-6.7-7.8c-0.9-1.1-1.8-1.7-3.2-1.5
						c-0.9,0.1-1.8,0.1-3,0.2c1.3,0.6,1.3,1.6,1.4,2.6c0.1,2.6,0.3,5.3,0.5,7.9c0.1,1.1,0.4,2.3-0.8,3.1c1.7,0,3.3,0.1,4.9-0.1
						c-1.1-1.2-1.1-1.2-1.2-2.7c-0.1-2.1-0.3-4.3-0.4-6.4c0-0.2-0.1-0.4,0.1-0.7c0.1,0.1,0.2,0.2,0.3,0.3c2.6,3,5.1,5.9,7.7,8.9
						c0.2,0.2,0.3,0.6,0.7,0.6c1.5,0,3,0,4.6,0c-1.1-1.3-1.1-1.3-1.2-2.9c-0.2-2.6-0.3-5.2-0.5-7.7c-0.1-1.1-0.2-2.2,0.8-3
						c0,0,0,0,0-0.1c-1.6,0-3.2,0-4.8,0c0.3,0.6,1,0.7,1.1,1.3C127.3,167.3,127.5,170.1,127.6,173z M165.7,172.6
						c-0.1-1.1-0.1-2.2-0.2-3.4c-0.2-2.1-1.7-3.7-3.8-4c-2.5-0.3-5-0.5-7.5-0.8c-2-0.2-3.5,1-3.4,3.1c0.1,2.3,0.2,4.5,0.4,6.8
						c0.2,2,1.6,3.6,3.7,3.9c2.6,0.3,5.2,0.6,7.8,0.9c2.2,0.2,3.4-1.1,3.3-3.3C165.8,174.7,165.7,173.7,165.7,172.6z M61.6,176.1
						C61.6,176.1,61.6,176.1,61.6,176.1c0.1,1.2,0.1,2.4,0.2,3.6c0,0.1,0,0.2,0,0.2c0.2,1.7,1.7,2.8,3.4,2.5
						c2.5-0.4,4.9-0.8,7.4-1.3c2.4-0.4,3.7-2.1,3.6-4.5c-0.1-2.1-0.2-4.2-0.4-6.3c-0.2-2.3-1.6-3.4-3.8-3.1
						c-2.4,0.4-4.9,0.8-7.3,1.2c-2.1,0.4-3.4,2.1-3.3,4.2C61.4,173.9,61.5,175,61.6,176.1z M105.2,177.6c1.3-0.1,2.6-0.1,3.9-0.2
						c2-0.2,3.3-1.7,3.2-3.7c-0.1-2.3-0.3-4.6-0.4-6.9c-0.1-2-1.7-3.4-3.6-3.3c-2.6,0.1-5.1,0.3-7.7,0.5c-2,0.1-3.4,1.7-3.3,3.7
						c0.1,2.3,0.3,4.5,0.4,6.8c0.1,2,1.7,3.4,3.7,3.3C102.7,177.8,104,177.7,105.2,177.6z M54.7,184.7c-0.3-0.6-1-0.6-1.1-1.4
						c-0.1-3-0.3-5.9-0.5-8.9c0-0.4,0.2-0.6,0.5-0.7c0.9-0.2,1.8-0.4,2.7-0.7c0.9-0.3,1.7-0.3,2.4,0.4c0,0,0.1,0,0.2,0
						c-0.1-1.1-0.1-2.1-0.2-3.2c0-0.5-0.3-0.4-0.6-0.3c-4.5,1.1-8.9,2.2-13.4,3.2c-0.2,0.1-0.4,0.1-0.4,0.4c0.1,1.1,0.1,2.2,0.2,3.3
						c0.6-0.5,0.8-1.2,1.6-1.4c1.1-0.2,2.2-0.5,3.3-0.8c0.6-0.2,0.8,0,0.8,0.6c0.1,2.2,0.3,4.4,0.4,6.7c0.1,1.3,0.5,2.6-0.8,3.6
						c0.1,0,0.1,0.1,0.2,0.1C51.6,185.4,53.2,185.1,54.7,184.7z M133.7,166.9c0.1,0,0.1,0.1,0.2,0.1c0.5-0.9,1.3-1.1,2.2-0.9
						c0.9,0.1,1.7,0.2,2.6,0.1c0.8,0,0.9,0.3,0.9,0.9c0.1,2.4,0.3,4.8,0.4,7.2c0.1,1,0.3,2.1-0.8,2.8c0,0,0,0,0,0.1
						c1.6,0.1,3.1,0.2,4.8,0.2c-0.3-0.6-1-0.8-1-1.5c-0.2-3-0.4-6.1-0.5-9.1c0-0.3,0.1-0.5,0.4-0.4c0.9,0,1.8,0.1,2.7,0.1
						c1.1-0.1,2,0.2,2.6,1c0,0,0.1,0,0.2,0c-0.1-1-0.1-1.9-0.2-2.9c0-0.5-0.2-0.7-0.7-0.7c-2-0.1-3.9-0.2-5.9-0.3
						c-2.5-0.1-5-0.2-7.6-0.4c-0.3,0-0.6,0-0.5,0.4C133.6,164.7,133.7,165.8,133.7,166.9z M76.6,169.6c0,0.2,0,0.2,0,0.2
						c0.1,2.4,0.3,4.7,0.4,7.1c0.1,2.4-1.4,4.5-3.7,5c-1.7,0.4-3.4,0.6-5,0.9c-1.1,0.2-2.1,0.4-3.3,0.6c0.8,0.5,1.4,0.5,2.1,0.4
						c2.4-0.4,4.8-0.8,7.2-1.3c2-0.4,3.6-2.5,3.6-4.4c0-2.4-0.1-4.7-0.4-7.1C77.4,170.6,77.2,170,76.6,169.6z M166.4,168.8
						c0.1,2.5,0.3,4.8,0.4,7.1c0.1,2.7-1.7,4.4-4.3,4.1c-1.6-0.2-3.2-0.4-4.8-0.6c-1-0.1-2-0.2-3.2-0.3c0.8,0.7,1.6,1,2.4,1.1
						c2.2,0.3,4.4,0.5,6.5,0.7c2.6,0.2,4.4-1.5,4.2-4.1c-0.1-1.9-0.2-3.8-0.3-5.7C167.3,170.3,167,169.6,166.4,168.8z M101,178.7
						c0.8,0.5,1.4,0.7,2.1,0.6c2.3-0.1,4.6-0.3,7-0.4c2.3-0.2,4.1-2.1,4-4.4c-0.1-2.1-0.2-4.2-0.4-6.4c0-0.7-0.3-1.3-0.7-1.8
						c-0.1,0.1-0.1,0.1-0.1,0.1c0.1,2.3,0.3,4.7,0.4,7c0.1,2.5-1.6,4.5-4.2,4.7C106.4,178.4,103.8,178.6,101,178.7z M144.6,176.6
						c0.2-0.3,0.1-0.5,0.1-0.8c-0.1-2.3-0.2-4.6-0.4-6.9c0-0.6,0.2-0.8,0.7-0.8c0.8,0.1,1.7,0.1,2.7,0.2c-0.5-0.5-0.8-0.9-1.5-0.9
						c-0.7,0.1-1.4,0-2.1-0.1c-0.6-0.1-0.7,0.1-0.7,0.7c0.2,2.4,0.3,4.8,0.4,7.2C143.8,175.8,144,176.3,144.6,176.6z M58.1,174.4
						c-0.4-0.5-0.8-0.7-1.4-0.5c-0.7,0.2-1.4,0.4-2.1,0.5c-0.5,0.1-0.7,0.4-0.6,0.9c0.2,2.2,0.3,4.4,0.4,6.6c0,0.4,0,0.7,0.1,1.1
						c0.1,0.4,0.4,0.6,0.7,0.6c0.3,0,0.2-0.4,0.1-0.7c-0.1-2.3-0.2-4.6-0.4-7c0-0.6,0.2-0.9,0.7-1C56.5,174.8,57.2,174.6,58.1,174.4
						z M132.3,176.1c0-0.3,0-0.6,0-0.8c-0.1-2.4-0.3-4.8-0.4-7.2c-0.1-1.1-0.4-2.3,0.9-3.1c-0.4-0.2-0.7-0.2-0.9-0.2c-1,0-1,0-0.9,1
						c0.2,3,0.4,6,0.5,8.9C131.5,175.3,131.6,175.8,132.3,176.1z M84.4,178.6c0-0.3,0-0.5,0-0.7c-0.2-0.8,0.2-1,0.9-1
						c1.4-0.1,2.8-0.3,4.3-0.4c0.2,0,0.4-0.1,0.6-0.1c0.3,0,0.5-0.2,0.4-0.5c-0.1-0.3-0.3-0.3-0.5-0.3c-0.5,0.1-1.1,0.2-1.6,0.2
						c-1.5,0.2-2.9,0.4-4.4,0.5c-0.2,0-0.4,0-0.5,0.2C83.3,177.2,83.7,178.2,84.4,178.6z M94.7,167.6c-0.1,0.5,0,0.9,0,1.3
						c0.1,1.2,0.3,2.5-0.5,3.6c-0.2,0.2,0,0.4,0.1,0.5c0.2,0.2,0.3,0,0.4-0.2C96,171.8,96,168.9,94.7,167.6z M119.5,169.7
						c0.1,1.8,0.2,3.6,0.3,5.3c0,0.6,0.3,0.8,0.8,1.1c-0.1-1.6-0.2-3.2-0.3-4.7C120.3,170.7,120.1,170.2,119.5,169.7z M128.2,177.8
						c0.7,1.2,1.8,0.8,2.6,0.8c0.9,0,1.8,0.2,2.8,0c-0.3-0.5-0.8-0.7-1.3-0.7C131,177.9,129.7,177.8,128.2,177.8z M92.3,180.3
						c1.7-0.2,3.3-0.3,5-0.5C96.3,178.8,93.1,179.1,92.3,180.3z M85.6,181.1c-0.4-0.5-0.7-0.7-1.2-0.6c-0.9,0.2-1.8,0.2-2.7,0.3
						c-0.6,0.1-0.8,0.4-1,0.9C82.4,181.5,83.9,181.3,85.6,181.1z M145.8,179.2c-0.3-0.7-0.8-0.9-1.4-0.9c-0.8,0-1.5,0-2.3-0.1
						c-0.6-0.1-0.9,0.2-1.2,0.7C142.6,179,144.1,179.1,145.8,179.2z M116.8,178.9c1.7-0.1,3.3-0.2,4.9-0.3
						C120.9,177.6,117.5,177.7,116.8,178.9z M56.5,185.9c-0.4-0.6-0.9-0.6-1.4-0.5c-0.7,0.2-1.5,0.4-2.2,0.5c-0.7,0.1-1,0.4-1.2,1.1
						C53.3,186.7,54.9,186.3,56.5,185.9z M135.6,168.8c0.7-1.1,1.7-1.1,2.7-0.9c0.3,0,0.5,0,0.5-0.3c0-0.3,0-0.5-0.4-0.5
						c-0.5,0-1-0.1-1.4-0.1C135.3,166.9,135.3,166.9,135.6,168.8z M46.3,178.2c0.6-1.2,1.6-1.6,2.8-1.7c0.3,0,0.4-0.3,0.3-0.6
						c-0.1-0.4-0.3-0.2-0.5-0.1c-0.5,0.1-0.9,0.2-1.4,0.3C46.1,176.5,46.1,176.5,46.3,178.2z M60.6,173c0-0.5-0.1-1-0.1-1.4
						c0-0.2,0-0.5-0.3-0.4c-0.2,0-0.5,0-0.5,0.3c0,0.9,0.1,1.9,0.2,2.8c0,0.3,0.4,0.5,0.7,0.5c0.3-0.1,0.1-0.4,0.1-0.6
						C60.7,173.7,60.6,173.4,60.6,173z M150.2,169.5c-0.1-1.2-0.1-2.3-0.2-3.4c0-0.3-0.3-0.4-0.5-0.4c-0.3,0-0.2,0.3-0.2,0.5
						c0,0.7,0.1,1.5,0.1,2.2C149.3,168.9,149.6,169.1,150.2,169.5z M96,177.4c0-1.4-0.2-1.9-1-2.4C95.2,175.9,94.8,176.9,96,177.4z"
						/>
					<path class="st9" d="M148.3,151.8c-0.3-0.1-0.4-0.3-0.5-0.5c-1.5-1.9-3-3.7-4.5-5.6c-0.3-0.4-0.6-0.6-1.1-0.6
						c-3.7-0.1-7.4-0.4-11.1-0.4c-5.7-0.1-11.5-0.1-17.2,0c-0.7,0-0.9,0.3-0.8,0.9c0.2,2.8,0.3,5.5,0.5,8.3c0,0.6-0.1,0.7-0.7,0.7
						c-5.4,0.2-10.7,0.5-16.1,1c-0.6,0-0.7-0.2-0.8-0.7c-0.1-2.8-0.3-5.6-0.5-8.4c0-0.5-0.2-0.7-0.7-0.6c-6,0.5-12,1.3-18,2.1
						c-3.5,0.5-6.9,1.1-10.4,1.7c-0.5,0.1-0.8,0.3-1.1,0.7c-1.3,2.1-2.5,4.1-3.8,6.2c-0.1,0.2-0.2,0.4-0.5,0.7c0-0.4,0-0.6,0-0.8
						c-0.4-6.2-0.7-12.3-1.1-18.4c0-0.6,0.2-0.8,0.7-0.9c3.8-0.6,7.6-1.3,11.5-2c6.2-1,12.3-1.8,18.5-2.4c7.1-0.7,14.2-1.2,21.3-1.4
						c4.5-0.1,9.1-0.2,13.6-0.1c5.3,0.1,10.7,0.2,16,0.5c1.7,0.1,3.4,0.2,5,0.3c0.4,0,0.6,0.1,0.6,0.6c0.4,6.3,0.7,12.7,1.1,19
						C148.3,151.6,148.3,151.7,148.3,151.8z"/>
					<path class="st10" d="M90.8,100.7c0.1-0.3,0-0.5-0.1-0.7c-0.9-2.3-1.8-4.5-2.7-6.8c-0.2-0.6-0.2-0.8,0.5-0.8
						c2.4,0.3,4.3-0.8,6.1-2.4c1.7-1.6,3.7-3.1,5.5-4.6c0.4-0.3,0.7-0.4,1.2-0.1c2.8,1.8,5.6,3.6,8.4,5.4c0.5,0.3,0.9,0.4,1.4,0.4
						c0.8-0.1,1.6-0.1,2.4-0.2c0.6-0.1,0.9,0,0.7,0.8c-0.6,2.2-1.2,4.5-1.8,6.7c-0.1,0.3-0.1,0.6-0.2,1.1c2.4-2,4.6-3.8,6.9-5.6
						c0.4,1.1,0.8,2.1,1.2,3.1c0.2,0.6,0.6,1,1.1,1.3c2.8,1.7,5.5,3.5,8.2,5.2c0.5,0.3,0.6,0.6,0.5,1.1c-0.8,3.1-1.5,6.2-2.3,9.3
						c-0.2,0.7,0,0.7,0.6,0.8c5.5,0.1,10.9,0.3,16.4,0.7c3.2,0.2,6.4,0.5,9.5,0.7c1.1,0.1,1.1,0.1,1.1,1.1c0.1,1.2,0.1,2.4,0.2,3.5
						c0.1,0.6-0.1,0.7-0.7,0.7c-3.8-0.4-7.7-0.7-11.5-0.9c-3.7-0.2-7.4-0.4-11.1-0.5c-6.2-0.2-12.4-0.2-18.5-0.1
						c-0.5,0-0.9,0.2-1.3,0.5c-2.9,2.4-5.8,4.8-8.7,7.2c-0.4,0.3-0.7,0.3-1.1,0c-3.1-2-6.3-4.1-9.5-6.1c-0.4-0.3-0.8-0.3-1.2-0.3
						c-7.5,0.7-15,1.7-22.5,2.9c-6.1,1-12.2,2.1-18.3,3.4c-0.5,0.1-0.7,0-0.7-0.5c0-1.3-0.1-2.6-0.2-3.9c0-0.5,0.1-0.7,0.6-0.8
						c2.7-0.5,5.4-1.1,8.1-1.6c4.5-0.9,9-1.6,13.4-2.3c1.5-0.2,2.9-0.5,4.4-0.6c0.6-0.1,0.8-0.2,0.5-0.8c-1.1-2.9-2.1-5.7-3.3-8.6
						c-0.3-0.8-0.2-1.2,0.4-1.7c2.5-2,5-4.1,7.5-6.1c0.4-0.3,0.6-0.6,0.7-1.1c0.2-0.9,0.5-1.9,0.7-2.8c0.1-0.5,0.3-0.5,0.7-0.3
						c2.1,1.3,4.2,2.7,6.3,4C90.4,100.5,90.6,100.6,90.8,100.7c0,0,0.1,0,0.1,0c0,0,0,0,0-0.1C90.8,100.7,90.8,100.7,90.8,100.7z
						 M83.4,116.7c2.3-0.3,4.5-0.5,6.8-0.8c0.4,0,0.5-0.3,0.6-0.6c0.6-2.2,1.1-4.4,1.8-6.6c0.1-0.5,0-0.7-0.4-0.9
						c-1.9-1.2-3.8-2.4-5.7-3.7c-0.4-0.2-0.6-0.2-0.9,0.1c-1.7,1.5-3.5,2.9-5.3,4.3c-0.3,0.3-0.4,0.5-0.3,0.9c0.9,2.3,1.8,4.6,2.7,7
						C82.8,116.7,83,116.9,83.4,116.7z M121.5,114.5c0.4,0.1,0.6-0.1,0.7-0.5c0.6-2.4,1.2-4.8,1.9-7.3c0.1-0.4,0-0.5-0.3-0.7
						c-2-1.2-3.9-2.5-5.9-3.8c-0.4-0.2-0.6-0.2-0.9,0.1c-1.7,1.5-3.4,2.9-5.2,4.3c-0.3,0.3-0.4,0.5-0.3,0.9c0.8,2.2,1.7,4.3,2.5,6.5
						c0.1,0.4,0.3,0.5,0.7,0.5C117,114.5,119.2,114.5,121.5,114.5z M102,109.3c-1.1,0.1-2.2,0.2-3.4,0.2c-0.5,0-0.7,0.2-0.8,0.6
						c-0.5,2.2-1.1,4.4-1.7,6.6c-0.1,0.4-0.1,0.6,0.3,0.9c2,1.2,3.9,2.4,5.8,3.7c0.3,0.2,0.6,0.2,0.9-0.1c1.8-1.5,3.6-2.9,5.4-4.3
						c0.3-0.2,0.4-0.4,0.2-0.8c-0.9-2.1-1.7-4.3-2.5-6.4c-0.2-0.5-0.4-0.6-0.9-0.5C104.3,109.2,103.2,109.2,102,109.3z M101.7,103.7
						c1.1-0.1,2.2-0.2,3.4-0.2c0.5,0,0.7-0.1,0.8-0.6c0.5-2.2,1.1-4.4,1.7-6.6c0.1-0.4,0.1-0.6-0.3-0.8c-2-1.2-3.9-2.5-5.9-3.7
						c-0.4-0.2-0.6-0.2-0.9,0.1c-1.8,1.5-3.5,2.9-5.3,4.4c-0.3,0.2-0.4,0.4-0.2,0.8c0.9,2.1,1.7,4.3,2.5,6.4
						c0.2,0.4,0.3,0.5,0.8,0.5C99.4,103.8,100.5,103.7,101.7,103.7z"/>
					<path class="st9" d="M124.1,234.2c-2.5,1.5-5,2.8-7.6,4c-2,1-4.1,1.9-6.1,2.8c-0.3,0.1-0.6,0.2-1,0.1
						c-4.9-1.4-9.7-3.1-14.4-5.1c-0.1-0.3,0.2-0.4,0.3-0.5c1.5-1.4,3-2.9,4.6-4.3c0.4-0.4,0.5-0.7,0.5-1.3
						c-0.8-13.6-1.6-27.2-2.4-40.8c0-0.7,0.1-0.9,0.9-1c5.2-0.4,10.4-0.7,15.6-0.9c1.1,0,1-0.2,1.1,1c0.8,13.5,1.6,27,2.4,40.5
						c0,0.7,0.2,1.1,0.8,1.4C120.5,231.5,122.3,232.8,124.1,234.2z"/>
					<path class="st10" d="M160,196.3c0.1,2.7,0.4,5.7,0,8.8c-0.7,5.1-2.5,9.7-5.3,13.9c-4.1,6.4-9.6,11.4-15.6,15.8
						c-8.6,6.3-18.1,11.2-28,15.1c-0.4,0.2-0.8,0.2-1.2,0.1c-11.9-3.1-23.3-7.5-33.7-14.1c-5.8-3.7-11-8-15.1-13.7
						c-3.6-5-5.8-10.6-6.1-16.8c-0.1-3.2-0.4-6.4-0.6-9.6c0-0.5,0.1-0.8,0.6-0.9c1.4-0.3,2.8-0.6,4.2-1c0.6-0.1,0.8-0.1,0.9,0.6
						c0.2,3.4,0.4,6.8,0.6,10.3c0.3,6.7,3.1,12.4,7.6,17.3c4.2,4.6,9.2,8.2,14.7,11.2c8.4,4.7,17.3,8.1,26.6,10.6
						c0.3,0.1,0.6,0.1,1,0c9.6-3.9,18.7-8.7,26.9-15c5-3.8,9.5-8.2,12.8-13.6c3.1-5,4.6-10.4,4.1-16.3c-0.3-3.3-0.4-6.7-0.6-10
						c0-0.6,0.1-0.8,0.7-0.7c1.5,0.2,2.9,0.4,4.4,0.5c0.5,0,0.7,0.2,0.7,0.7C159.7,191.6,159.8,193.7,160,196.3z"/>
					<path class="st10" d="M107,128.3c2.3-1.9,4.6-3.8,6.8-5.6c0.2-0.2,0.5-0.2,0.7-0.2c4.9-0.1,9.7-0.1,14.6,0
						c4.5,0.1,9,0.2,13.5,0.5c4.2,0.2,8.3,0.5,12.4,0.9c0.6,0.1,0.6,0.4,0.6,0.8c0.2,3.6,0.4,7.1,0.6,10.7
						c0.4,6.6,0.8,13.2,1.2,19.7c0,0.7,0,0.9-0.8,0.8c-1.4-0.2-2.8-0.3-4.3-0.4c-0.6,0-0.7-0.3-0.8-0.8c-0.4-7.3-0.9-14.6-1.3-21.9
						c-0.1-1-0.1-1.9-0.2-2.9c0-0.5-0.2-0.7-0.6-0.7c-4.6-0.3-9.2-0.6-13.8-0.8c-4.9-0.2-9.8-0.3-14.7-0.3c-4.4,0-8.8,0.1-13.2,0.3
						c-0.3,0-0.5,0-0.8,0C107.1,128.4,107.1,128.3,107,128.3z"/>
					<path class="st10" d="M99.4,129c-1.6,0.1-3.3,0.2-4.9,0.3c-7.8,0.7-15.6,1.7-23.3,2.9c-4.6,0.7-9.2,1.6-13.8,2.4
						c-0.6,0.1-0.8,0.3-0.7,0.9c0.5,8.2,1,16.4,1.5,24.6c0,0.7-0.1,0.9-0.8,1c-1.4,0.3-2.8,0.6-4.2,0.9c-0.5,0.1-0.7,0-0.7-0.5
						c-0.6-10.3-1.2-20.6-1.8-30.8c0-0.4,0.1-0.6,0.5-0.7c5.1-1.1,10.2-2,15.3-2.9c5.7-1,11.5-1.8,17.2-2.5c2.5-0.3,5.1-0.5,7.6-0.8
						c0.3,0,0.6,0,0.9,0.2c2.4,1.6,4.9,3.2,7.3,4.7C99.4,128.8,99.4,128.9,99.4,129z"/>
					<path class="st10" d="M50.3,206.1c-4.8,1-9.4,2-14,3.1c-1.4,0.3-2.8,0.6-4.2,1c-0.6,0.1-0.8,0-0.8-0.6c0-1.3-0.2-2.6-0.2-3.8
						c0-0.5-0.2-0.7-0.6-1c-3.5-2.1-6.9-4.3-10.4-6.5c-0.5-0.3-0.5-0.5-0.2-0.9c3.2-3.8,6.3-7.6,9.5-11.4c0.3-0.4,0.5-0.8,0.4-1.3
						c-0.1-1.1-0.1-2.2-0.2-3.3c0-0.4,0.1-0.6,0.5-0.7c2-0.5,4.1-1,6.1-1.6c0.5-0.1,0.7,0,0.9,0.5c0.8,1.7,0.5,3.3,0.2,5
						c-0.9,5.2-1.7,10.4-2.6,15.6c-0.1,0.6,0,0.7,0.5,0.9c4.8,1.6,9.6,3.2,14.5,4.8C49.9,205.9,50,206,50.3,206.1z"/>
					<path class="st10" d="M165.1,199.3c0.2-0.3,0.5-0.3,0.7-0.4c4.5-2.1,8.9-4.2,13.4-6.3c0.5-0.2,0.7-0.4,0.5-1
						c-1.7-5.8-3.3-11.6-4.9-17.4c-0.3-1.2,0.3-2.2,0.4-3.3c0-0.3,0.3-0.2,0.5-0.2c2.2,0.3,4.4,0.6,6.6,0.9c0.4,0.1,0.4,0.3,0.4,0.6
						c0.1,1.1,0.2,2.2,0.2,3.4c0,0.5,0.2,0.8,0.5,1.2c3.6,3.4,7.2,6.8,10.8,10.1c0.5,0.5,0.4,0.7-0.1,1.1c-3.1,2.5-6.2,5-9.3,7.4
						c-0.6,0.5-0.8,0.9-0.7,1.6c0.1,1.1,0.1,2.2,0.2,3.4c0.1,0.8-0.2,0.9-0.9,0.8c-2.7-0.3-5.3-0.6-8-0.9c-3.4-0.3-6.8-0.6-10.1-0.9
						C165.2,199.4,165.2,199.3,165.1,199.3z"/>
					<path class="st11" d="M78.9,216.1c-1.2-0.7-2.3-1.5-3.4-2.4c-3.4-2.6-6.6-5.5-9.1-9c-1.2-1.8-2.3-3.6-2.7-5.8
						c-0.4-1.8-0.3-3.7-0.4-5.5c0-0.3,0.2-0.4,0.4-0.4c3.1-0.5,6.2-1.1,9.2-1.6c1.3-0.2,2.7-0.4,4-0.7c0.4-0.1,0.6-0.1,0.7,0.4
						c0.5,8.2,1,16.4,1.4,24.6C79,215.9,79,216,78.9,216.1z"/>
					<path class="st12" d="M137.7,212.6c0-0.3,0-0.6,0-0.8c-0.5-7.9-0.9-15.8-1.4-23.7c0-0.7,0-0.9,0.8-0.9c2.7,0.1,5.4,0.2,8.2,0.4
						c1.7,0.1,3.3,0.2,5,0.3c0.4,0,0.4,0.3,0.4,0.5c0.9,5.3-0.4,10-3.6,14.3c-2.6,3.5-5.5,6.7-8.8,9.5
						C138,212.4,137.9,212.5,137.7,212.6z"/>
					<path class="st11" d="M97.8,229.7c-1.2,1.2-2.4,2.3-3.5,3.3c-0.4,0.4-0.9,0.8-1.3,1.2c-0.4,0.5-0.8,0.6-1.5,0.3
						c-2.9-1.4-5.8-2.9-8.6-4.6c-0.3-0.1-0.6-0.2-0.6-0.6c-0.1-2.2-0.3-4.5-0.4-6.9C87,225.3,92.2,227.7,97.8,229.7z"/>
					<path class="st11" d="M135.5,219.3c0.1,2.3,0.3,4.5,0.4,6.7c0,0.3-0.1,0.5-0.4,0.7c-2.7,2.1-5.6,4-8.5,5.9
						c-0.3,0.2-0.6,0.2-0.8,0c-1.7-1.3-3.4-2.6-5.2-3.8c-0.2-0.2-0.6-0.3,0-0.6c4.9-2.4,9.6-5.3,14-8.5
						C135.1,219.5,135.3,219.4,135.5,219.3z"/>
					<path class="st13" d="M79.7,227.9c-7.4-5.3-13.7-11.1-15.5-20.4c0.2-0.1,0.3,0,0.3,0.1c3.9,5.1,8.7,9.2,14,12.6
						c0.6,0.4,0.8,0.8,0.8,1.5C79.4,223.7,79.6,225.7,79.7,227.9z"/>
					<path class="st13" d="M151.2,202.4c0.1,1.8-0.3,3.5-0.8,5.2c-1.4,4.6-4,8.5-7.2,12c-1.5,1.6-3,3.2-4.8,4.7
						c-0.1-1.6-0.1-3.2-0.3-4.6c-0.3-1.8,0.3-2.9,1.7-4.1C144.2,211.9,148.1,207.5,151.2,202.4z"/>
					<path class="st11" d="M63.2,159.9c1-1.5,2-2.9,2.9-4.3c0.7-1,1.5-2,2.1-3.1c0.4-0.6,0.9-0.8,1.5-0.9c1.6-0.3,3.2-0.5,4.7-0.7
						c0.4-0.1,0.6,0,0.6,0.5c0.1,2,0.2,4.1,0.4,6.1c0,0.3,0,0.5-0.4,0.6c-2.7,0.4-5.4,0.8-8.1,1.3C65.8,159.4,64.6,159.7,63.2,159.9
						z"/>
					<path class="st11" d="M146.5,155c-1.1-0.1-2.1-0.1-3.1-0.2c-2.3-0.1-4.6-0.2-6.9-0.3c-0.6,0-1.2,0-1.8,0
						c-0.3,0-0.4-0.1-0.5-0.5c-0.1-2.1-0.2-4.2-0.4-6.3c0-0.3,0.1-0.5,0.4-0.5c1.8,0.1,3.6,0.2,5.4,0.2c0.3,0,0.6,0.1,0.8,0.4
						c2,2.3,3.9,4.5,5.9,6.8C146.4,154.8,146.4,154.8,146.5,155z"/>
					<path class="st13" d="M175.4,191.4c-4.2,2-8.4,3.9-12.4,5.8c-0.3-0.1-0.2-0.3-0.2-0.4c-0.1-2.3-0.3-4.6-0.4-7
						c0-0.4-0.1-0.6,0.5-0.6c4.1,0.6,8.2,1.2,12.2,2C175.1,191.3,175.1,191.3,175.4,191.4z"/>
					<path class="st13" d="M39.1,199.5c4-1.4,8.1-2.6,12.1-3.6c0.3-0.1,0.5-0.2,0.5,0.3c0.1,2.5,0.3,5,0.4,7.7
						C47.8,202.4,43.4,200.9,39.1,199.5z"/>
					<path class="st14" d="M131.5,196.2c-0.6-0.5-1.2-0.5-1.8-0.4c-1.7,0.1-3.4,0.2-5.1,0.3c-1.1,0.1-1.3,0.3-1.2,1.3
						c0,0.6,0.1,1.2,0.1,1.8c0.1,1,0.3,1.2,1.3,1.1c2-0.1,4.1-0.2,6.1-0.4c0.8-0.1,0.8,0.3,0.9,0.9c0,0.6,0.1,1-0.7,1
						c-2.1,0-4.1,0.2-6.2,0.3c-0.7,0-1.4,0-2.1-0.4c-0.9-0.4-1.4-1.1-1.5-2.2c0-0.7-0.1-1.4-0.1-2.1c-0.1-1.8,0.8-3,2.6-3.2
						c2.4-0.2,4.7-0.3,7.1-0.5c0.3,0,0.5,0.1,0.5,0.4C131.4,194.9,131.5,195.4,131.5,196.2z"/>
					<path class="st14" d="M82.9,196.7c3-0.2,6-0.4,8.9-0.5c1.7-0.1,1.7-0.1,1.8,1.6c0,0.2,0,0.4,0,0.6c-1.2-0.7-2.3-0.3-3.5-0.2
						c-1.3,0-2.6,0.2-3.8,0.2c-0.5,0-0.6,0.2-0.5,0.7c0,0.5,0.1,0.6,0.6,0.6c1.6-0.1,3.2-0.2,4.7-0.3c0.5,0,0.8,0.1,0.7,0.6
						c0,0.1,0,0.3,0,0.4c0.1,0.6-0.1,0.9-0.7,0.9c-1.3,0-2.6,0.1-3.9,0.2c-1.3,0.1-1.3,0.1-1.3,1.4c0,0.6-0.1,1.3,0.6,1.7
						c-1.1,0.1-2.2,0.1-3.4,0.2c0.8-0.6,0.6-1.4,0.5-2.1c-0.1-1.4-0.2-2.8-0.2-4.2C83.5,197.7,83.5,197.2,82.9,196.7z"/>
					<path class="st15" d="M92.5,172.9c1.4,0.5,1.8,1.7,1.8,3c0,1,0.1,1.8,1.3,2.3c-1.8,0.4-3.4,0.4-5,0.6c0-0.1,0-0.1,0-0.1
						c1.2-0.9,0.8-2.1,0.8-3.3c0-0.6-0.4-0.9-1-0.8c-2.5,0.3-5,0.6-7.5,0.9c-0.3,0-0.4,0.2-0.4,0.5c0.1,0.7,0.1,1.5,0.1,2.2
						c0,0.3,0.1,0.5,0.4,0.6c0.3,0.2,0.5,0.4,0.8,0.6c0,0.1-0.1,0.1-0.1,0.2c-1.5,0.2-3.1,0.4-4.6,0.6c0-0.1-0.1-0.2,0-0.2
						c0.8-0.7,0.8-1.6,0.7-2.6c-0.2-2.7-0.3-5.5-0.5-8.2c-0.1-1,0.1-2.1-1.1-2.7c0.8-0.1,1.6-0.2,2.4-0.3c3.2-0.4,6.4-0.8,9.6-1.2
						c1.9-0.2,3.5,1.1,3.7,3c0.1,0.8,0.1,1.5,0.1,2.3C94,171.4,93.5,172.2,92.5,172.9z M82.2,170.7c0,0.6,0.1,1.1,0.1,1.7
						c0,0.3,0.1,0.5,0.5,0.5c2.5-0.3,5-0.6,7.4-0.9c0.6-0.1,1-0.4,0.9-1.1c-0.1-0.7-0.1-1.5-0.1-2.2c-0.1-0.9-0.2-1.1-1.1-1
						c-1.9,0.2-3.8,0.4-5.7,0.6C82.1,168.6,82.1,168.6,82.2,170.7z"/>
					<path class="st16" d="M127.6,173c-0.2-2.9-0.3-5.7-0.5-8.5c0-0.6-0.8-0.8-1.1-1.3c1.6,0,3.2,0,4.8,0c0,0.1,0,0.1,0,0.1
						c-1,0.8-0.9,1.9-0.8,3c0.2,2.6,0.3,5.2,0.5,7.7c0.1,1.7,0.1,1.7,1.2,2.9c-1.6,0-3.1,0-4.6,0c-0.3,0-0.5-0.3-0.7-0.6
						c-2.6-2.9-5.1-5.9-7.7-8.9c-0.1-0.1-0.2-0.2-0.3-0.3c-0.2,0.2-0.1,0.5-0.1,0.7c0.1,2.1,0.2,4.3,0.4,6.4
						c0.1,1.5,0.1,1.5,1.2,2.7c-1.6,0.2-3.2,0.1-4.9,0.1c1.3-0.8,0.9-2,0.8-3.1c-0.1-2.6-0.3-5.3-0.5-7.9c0-1-0.1-2-1.4-2.6
						c1.2-0.1,2.1-0.1,3-0.2c1.4-0.2,2.3,0.4,3.2,1.5c2.2,2.7,4.5,5.2,6.7,7.8C127.2,172.7,127.3,172.9,127.6,173z"/>
					<path class="st15" d="M165.7,172.6c0.1,1,0.1,2.1,0.2,3.1c0.1,2.2-1.1,3.5-3.3,3.3c-2.6-0.2-5.2-0.5-7.8-0.9
						c-2-0.3-3.5-1.8-3.7-3.9c-0.2-2.3-0.3-4.5-0.4-6.8c-0.1-2,1.3-3.3,3.4-3.1c2.5,0.3,5,0.5,7.5,0.8c2.1,0.2,3.6,1.8,3.8,4
						C165.6,170.4,165.6,171.5,165.7,172.6z M162.8,172.3c-0.1-1.1-0.1-2.2-0.2-3.3c0-0.7-0.3-1-1-1c-2.4-0.3-4.7-0.5-7.1-0.8
						c-0.6-0.1-1,0.2-0.9,0.8c0.1,2.2,0.3,4.4,0.4,6.6c0,0.5,0.3,0.9,0.8,0.9c2.4,0.3,4.9,0.5,7.3,0.8c0.6,0.1,0.9-0.2,0.8-0.9
						C162.9,174.4,162.9,173.3,162.8,172.3z"/>
					<path class="st15" d="M61.6,176.1c-0.1-1.1-0.1-2.2-0.2-3.3c-0.1-2.1,1.2-3.8,3.3-4.2c2.4-0.4,4.9-0.8,7.3-1.2
						c2.3-0.3,3.7,0.8,3.8,3.1c0.1,2.1,0.3,4.2,0.4,6.3c0.1,2.4-1.2,4.1-3.6,4.5c-2.5,0.4-4.9,0.8-7.4,1.3c-1.7,0.3-3.2-0.8-3.4-2.5
						c0-0.1,0-0.2,0-0.2C61.7,178.5,61.6,177.3,61.6,176.1C61.6,176.1,61.6,176.1,61.6,176.1z M64.4,175.6c0.1,1.1,0.1,2.2,0.2,3.3
						c0,0.5,0.2,0.9,0.8,0.8c2.4-0.4,4.8-0.8,7.2-1.2c0.6-0.1,0.9-0.5,0.8-1.1c-0.1-2.1-0.3-4.2-0.4-6.3c-0.1-0.8-0.2-1-1.1-0.9
						c-2.3,0.4-4.5,0.8-6.8,1.1c-0.8,0.1-1,0.5-0.9,1.2C64.3,173.5,64.3,174.6,64.4,175.6z"/>
					<path class="st17" d="M105.2,177.6c-1.3,0.1-2.5,0.2-3.8,0.2c-2,0.1-3.5-1.3-3.7-3.3c-0.2-2.3-0.3-4.5-0.4-6.8
						c-0.1-2,1.2-3.6,3.3-3.7c2.5-0.2,5.1-0.3,7.7-0.5c2-0.1,3.5,1.3,3.6,3.3c0.2,2.3,0.3,4.6,0.4,6.9c0.1,2-1.2,3.5-3.2,3.7
						C107.8,177.5,106.5,177.5,105.2,177.6z M104.6,166.5c-1.1,0.1-2.3,0.1-3.4,0.2c-0.7,0-1,0.3-1,1.1c0.2,2.1,0.3,4.3,0.4,6.4
						c0.1,0.8,0.3,1,1.1,1c2.2-0.1,4.5-0.3,6.7-0.4c0.8-0.1,1-0.3,1-1.1c-0.1-2.1-0.2-4.2-0.4-6.3c-0.1-0.8-0.3-1-1.1-1
						C106.9,166.3,105.8,166.4,104.6,166.5z"/>
					<path class="st17" d="M54.7,184.7c-1.6,0.4-3.1,0.7-4.6,1.1c-0.1,0-0.1-0.1-0.2-0.1c1.3-1,0.9-2.4,0.8-3.6
						c-0.1-2.2-0.3-4.4-0.4-6.7c0-0.6-0.2-0.8-0.8-0.6c-1.1,0.3-2.2,0.6-3.3,0.8c-0.8,0.1-1,0.9-1.6,1.4c-0.1-1.2-0.1-2.3-0.2-3.3
						c0-0.3,0.2-0.4,0.4-0.4c4.5-1.1,8.9-2.1,13.4-3.2c0.3-0.1,0.6-0.2,0.6,0.3c0,1.1,0.1,2.1,0.2,3.2c-0.1,0-0.2,0-0.2,0
						c-0.7-0.7-1.5-0.7-2.4-0.4c-0.9,0.3-1.8,0.5-2.7,0.7c-0.4,0.1-0.6,0.2-0.5,0.7c0.2,3,0.4,5.9,0.5,8.9
						C53.7,184,54.4,184.1,54.7,184.7z"/>
					<path class="st15" d="M133.7,166.9c-0.1-1.1-0.1-2.1-0.2-3.2c0-0.4,0.2-0.4,0.5-0.4c2.5,0.1,5,0.2,7.6,0.4
						c2,0.1,3.9,0.2,5.9,0.3c0.5,0,0.7,0.2,0.7,0.7c0,1,0.1,1.9,0.2,2.9c-0.1,0-0.2,0-0.2,0c-0.7-0.9-1.6-1.1-2.6-1
						c-0.9,0.1-1.8,0-2.7-0.1c-0.3,0-0.4,0.1-0.4,0.4c0.2,3,0.4,6.1,0.5,9.1c0,0.7,0.8,0.8,1,1.5c-1.6-0.1-3.2-0.2-4.8-0.2
						c0-0.1,0-0.1,0-0.1c1.1-0.7,0.9-1.8,0.8-2.8c-0.2-2.4-0.3-4.8-0.4-7.2c0-0.6-0.1-1-0.9-0.9c-0.9,0.1-1.7,0-2.6-0.1
						c-0.9-0.1-1.7,0-2.2,0.9C133.8,166.9,133.8,166.9,133.7,166.9z"/>
					<path class="st18" d="M76.6,169.6c0.5,0.4,0.7,1,0.8,1.5c0.3,2.4,0.5,4.7,0.4,7.1c0,1.9-1.7,3.9-3.6,4.4
						c-2.4,0.5-4.8,0.9-7.2,1.3c-0.7,0.1-1.3,0.1-2.1-0.4c1.2-0.2,2.3-0.4,3.3-0.6c1.7-0.3,3.4-0.5,5-0.9c2.3-0.5,3.8-2.6,3.7-5
						c-0.1-2.4-0.3-4.7-0.4-7.1C76.6,169.8,76.6,169.8,76.6,169.6z"/>
					<path class="st18" d="M166.4,168.8c0.6,0.8,0.9,1.5,0.9,2.3c0.1,1.9,0.2,3.8,0.3,5.7c0.1,2.6-1.6,4.3-4.2,4.1
						c-2.2-0.2-4.4-0.4-6.5-0.7c-0.8-0.1-1.6-0.3-2.4-1.1c1.2,0.1,2.2,0.2,3.2,0.3c1.6,0.2,3.2,0.4,4.8,0.6c2.6,0.3,4.4-1.4,4.3-4.1
						C166.7,173.6,166.5,171.3,166.4,168.8z"/>
					<path class="st18" d="M101,178.7c2.8-0.2,5.4-0.3,8-0.5c2.6-0.2,4.3-2.2,4.2-4.7c-0.1-2.3-0.3-4.7-0.4-7c0,0,0,0,0.1-0.1
						c0.5,0.5,0.7,1.1,0.7,1.8c0.1,2.1,0.3,4.2,0.4,6.4c0.1,2.3-1.7,4.3-4,4.4c-2.3,0.2-4.6,0.3-7,0.4
						C102.4,179.4,101.8,179.3,101,178.7z"/>
					<path class="st19" d="M144.6,176.6c-0.6-0.3-0.8-0.7-0.9-1.4c-0.1-2.4-0.3-4.8-0.4-7.2c0-0.6,0.1-0.8,0.7-0.7
						c0.7,0.1,1.4,0.1,2.1,0.1c0.7-0.1,1,0.3,1.5,0.9c-1-0.1-1.8-0.1-2.7-0.2c-0.6,0-0.8,0.1-0.7,0.8c0.2,2.3,0.3,4.6,0.4,6.9
						C144.7,176,144.8,176.3,144.6,176.6z"/>
					<path class="st18" d="M58.1,174.4c-0.9,0.2-1.7,0.4-2.5,0.6c-0.6,0.1-0.8,0.3-0.7,1c0.2,2.3,0.3,4.6,0.4,7
						c0,0.2,0.2,0.6-0.1,0.7c-0.3,0-0.6-0.2-0.7-0.6c-0.1-0.3-0.1-0.7-0.1-1.1c-0.1-2.2-0.2-4.4-0.4-6.6c0-0.5,0.1-0.8,0.6-0.9
						c0.7-0.1,1.4-0.3,2.1-0.5C57.3,173.7,57.7,173.9,58.1,174.4z"/>
					<path class="st18" d="M132.3,176.1c-0.7-0.3-0.8-0.8-0.9-1.4c-0.2-3-0.3-6-0.5-8.9c-0.1-1-0.1-1,0.9-1c0.3,0,0.5,0,0.9,0.2
						c-1.4,0.7-1,1.9-0.9,3.1c0.1,2.4,0.3,4.8,0.4,7.2C132.3,175.5,132.3,175.7,132.3,176.1z"/>
					<path class="st18" d="M84.4,178.6c-0.7-0.4-1.1-1.5-0.9-2.1c0.1-0.3,0.3-0.2,0.5-0.2c1.5-0.2,2.9-0.4,4.4-0.5
						c0.5-0.1,1.1-0.1,1.6-0.2c0.2,0,0.5-0.1,0.5,0.3c0.1,0.3-0.1,0.5-0.4,0.5c-0.2,0-0.4,0.1-0.6,0.1c-1.4,0.1-2.8,0.3-4.3,0.4
						c-0.7,0-1.1,0.2-0.9,1C84.4,178.1,84.3,178.3,84.4,178.6z"/>
					<path class="st18" d="M94.7,167.6c1.3,1.3,1.3,4.2,0.1,5.3c-0.1,0.1-0.2,0.3-0.4,0.2c-0.2-0.1-0.3-0.3-0.1-0.5
						c0.8-1.1,0.6-2.4,0.5-3.6C94.7,168.5,94.6,168.1,94.7,167.6z"/>
					<path class="st18" d="M119.5,169.7c0.6,0.5,0.9,1,0.9,1.6c0.1,1.6,0.2,3.1,0.3,4.7c-0.5-0.2-0.8-0.5-0.8-1.1
						C119.7,173.3,119.6,171.6,119.5,169.7z"/>
					<path class="st18" d="M128.2,177.8c1.5,0,2.8,0,4.1,0c0.5,0,0.9,0.2,1.3,0.7c-1,0.2-1.9,0-2.8,0
						C129.9,178.6,128.9,179,128.2,177.8z"/>
					<path class="st19" d="M92.3,180.3c0.8-1.2,4-1.5,5-0.5C95.6,180,94,180.2,92.3,180.3z"/>
					<path class="st18" d="M85.6,181.1c-1.6,0.2-3.2,0.4-4.9,0.7c0.2-0.5,0.4-0.9,1-0.9c0.9-0.1,1.8-0.2,2.7-0.3
						C84.9,180.4,85.2,180.6,85.6,181.1z"/>
					<path class="st18" d="M145.8,179.2c-1.7-0.1-3.2-0.2-4.9-0.2c0.3-0.5,0.6-0.8,1.2-0.7c0.7,0.1,1.5,0.1,2.3,0.1
						C145,178.3,145.5,178.5,145.8,179.2z"/>
					<path class="st18" d="M116.8,178.9c0.7-1.2,4-1.3,4.9-0.3C120.1,178.7,118.5,178.8,116.8,178.9z"/>
					<path class="st18" d="M56.5,185.9c-1.6,0.4-3.2,0.8-4.8,1.2c0.2-0.7,0.6-1,1.2-1.1c0.8-0.1,1.5-0.3,2.2-0.5
						C55.6,185.4,56.1,185.3,56.5,185.9z"/>
					<path class="st18" d="M135.6,168.8c-0.3-1.9-0.3-1.9,1.3-1.8c0.5,0,1,0.1,1.4,0.1c0.4,0,0.4,0.3,0.4,0.5c0,0.3-0.2,0.4-0.5,0.3
						C137.3,167.7,136.3,167.7,135.6,168.8z"/>
					<path class="st19" d="M46.3,178.2c-0.3-1.7-0.3-1.7,1.2-2.1c0.5-0.1,0.9-0.2,1.4-0.3c0.2,0,0.4-0.2,0.5,0.1
						c0,0.3,0,0.5-0.3,0.6C47.9,176.7,46.9,177.1,46.3,178.2z"/>
					<path class="st19" d="M60.6,173c0,0.4,0.1,0.8,0.1,1.1c0,0.2,0.2,0.6-0.1,0.6c-0.3,0.1-0.7-0.2-0.7-0.5
						c-0.1-0.9-0.2-1.9-0.2-2.8c0-0.3,0.3-0.3,0.5-0.3c0.3,0,0.3,0.2,0.3,0.4C60.6,172,60.6,172.5,60.6,173z"/>
					<path class="st19" d="M150.2,169.5c-0.5-0.3-0.8-0.6-0.8-1.2c0-0.7-0.1-1.5-0.1-2.2c0-0.2-0.1-0.4,0.2-0.5
						c0.3,0,0.5,0.1,0.5,0.4C150,167.1,150.1,168.2,150.2,169.5z"/>
					<path class="st18" d="M96,177.4c-1.2-0.5-0.8-1.5-1-2.4C95.8,175.5,96.1,176,96,177.4z"/>
					<path class="st16" d="M83.4,116.7c-0.4,0.1-0.5-0.1-0.7-0.4c-0.9-2.3-1.8-4.7-2.7-7c-0.2-0.4-0.1-0.6,0.3-0.9
						c1.8-1.4,3.5-2.9,5.3-4.3c0.3-0.3,0.6-0.3,0.9-0.1c1.9,1.2,3.8,2.5,5.7,3.7c0.4,0.2,0.5,0.5,0.4,0.9c-0.6,2.2-1.2,4.4-1.8,6.6
						c-0.1,0.3-0.2,0.6-0.6,0.6C87.9,116.2,85.6,116.5,83.4,116.7z"/>
					<path class="st16" d="M121.5,114.5c-2.3,0-4.5,0-6.7,0c-0.4,0-0.6-0.1-0.7-0.5c-0.8-2.2-1.7-4.3-2.5-6.5
						c-0.2-0.4-0.1-0.6,0.3-0.9c1.7-1.4,3.5-2.9,5.2-4.3c0.3-0.3,0.5-0.3,0.9-0.1c1.9,1.3,3.9,2.5,5.9,3.8c0.3,0.2,0.4,0.4,0.3,0.7
						c-0.7,2.4-1.3,4.8-1.9,7.3C122,114.4,121.9,114.6,121.5,114.5z"/>
					<path class="st17" d="M102,109.3c1.1-0.1,2.2-0.1,3.4-0.2c0.4,0,0.7,0.1,0.9,0.5c0.8,2.1,1.6,4.3,2.5,6.4
						c0.2,0.4,0.1,0.6-0.2,0.8c-1.8,1.4-3.6,2.9-5.4,4.3c-0.3,0.2-0.5,0.3-0.9,0.1c-1.9-1.2-3.9-2.5-5.8-3.7
						c-0.4-0.2-0.4-0.5-0.3-0.9c0.6-2.2,1.2-4.4,1.7-6.6c0.1-0.5,0.3-0.6,0.8-0.6C99.8,109.4,100.9,109.3,102,109.3z"/>
					<path class="st17" d="M101.7,103.7c-1.1,0.1-2.2,0.1-3.4,0.2c-0.4,0-0.6-0.1-0.8-0.5c-0.8-2.1-1.7-4.3-2.5-6.4
						c-0.2-0.4-0.1-0.6,0.2-0.8c1.8-1.4,3.6-2.9,5.3-4.4c0.3-0.2,0.5-0.3,0.9-0.1c1.9,1.3,3.9,2.5,5.9,3.7c0.3,0.2,0.4,0.4,0.3,0.8
						c-0.6,2.2-1.2,4.4-1.7,6.6c-0.1,0.5-0.4,0.6-0.8,0.6C103.9,103.5,102.8,103.6,101.7,103.7z"/>
					<path class="st5" d="M90.8,100.7c0,0,0.1,0,0.1,0c0,0,0,0,0,0.1C90.8,100.7,90.8,100.7,90.8,100.7
						C90.8,100.7,90.8,100.7,90.8,100.7z"/>
					<path class="st14" d="M82.2,170.7c-0.1-2.1-0.1-2.1,2-2.3c1.9-0.2,3.8-0.4,5.7-0.6c0.9-0.1,1.1,0,1.1,1
						c0.1,0.7,0.1,1.5,0.1,2.2c0.1,0.7-0.3,1-0.9,1.1c-2.5,0.3-5,0.6-7.4,0.9c-0.4,0-0.5-0.1-0.5-0.5
						C82.3,171.8,82.2,171.2,82.2,170.7z M89.5,168.7c-0.7,0.1-1.4,0.2-2,0.2c-1.2,0.1-2.5,0.3-3.7,0.4c-0.3,0-0.7,0-0.7,0.5
						c0,0.6,0.1,1.1,0.1,1.7c0,0.2,0.1,0.3,0.4,0.3c0.2,0,0.4,0,0.4-0.3c0-0.3,0-0.5,0-0.8c-0.1-0.5,0.1-0.6,0.6-0.7
						c1.7-0.2,3.3-0.4,5-0.6c0.3,0,0.7,0,0.6-0.5C90,168.5,89.7,168.7,89.5,168.7z"/>
					<path class="st20" d="M162.8,172.3c0.1,1.1,0.1,2.1,0.2,3.2c0,0.6-0.2,0.9-0.8,0.9c-2.4-0.3-4.9-0.5-7.3-0.8
						c-0.5-0.1-0.8-0.4-0.8-0.9c-0.1-2.2-0.3-4.4-0.4-6.6c0-0.6,0.3-0.9,0.9-0.8c2.4,0.3,4.7,0.5,7.1,0.8c0.6,0.1,0.9,0.4,1,1
						C162.7,170.1,162.7,171.2,162.8,172.3z M154.8,171.6c0.1,0.9,0.1,1.8,0.2,2.7c0,0.3,0.1,0.5,0.5,0.5c0.4,0,0.3-0.3,0.3-0.5
						c-0.1-1.1-0.1-2.2-0.2-3.3c-0.1-2-0.1-2,1.9-1.7c1.3,0.2,2.5,0.3,3.8,0.4c0.2,0,0.5,0.1,0.5-0.3c0-0.3-0.1-0.5-0.4-0.5
						c-0.1,0-0.2-0.1-0.4-0.1c-1.8-0.2-3.6-0.4-5.4-0.6c-0.7-0.1-0.9,0.2-0.9,0.9C154.7,169.9,154.7,170.7,154.8,171.6z"/>
					<path class="st20" d="M64.4,175.6c-0.1-1-0.1-2.1-0.2-3.1c0-0.7,0.2-1.1,0.9-1.2c2.3-0.4,4.5-0.8,6.8-1.1c0.8-0.1,1,0,1.1,0.9
						c0.1,2.1,0.2,4.2,0.4,6.3c0,0.6-0.2,1-0.8,1.1c-2.4,0.4-4.8,0.8-7.2,1.2c-0.6,0.1-0.7-0.3-0.8-0.8
						C64.5,177.8,64.4,176.7,64.4,175.6z M65.3,175.7c0,0.8,0.1,1.6,0.2,2.4c0,0.2-0.2,0.6,0.3,0.6c0.5,0,0.5-0.3,0.4-0.7
						c-0.1-1.4-0.2-2.7-0.2-4.1c0-0.9,0.2-1.2,1-1.3c1.5-0.3,3.1-0.5,4.6-0.7c0.3,0,0.6,0,0.6-0.5c-0.1-0.5-0.4-0.3-0.7-0.3
						c-1.9,0.3-3.7,0.6-5.6,1c-0.6,0.1-0.8,0.5-0.7,1.1C65.2,174,65.2,174.8,65.3,175.7z"/>
					<path class="st14" d="M104.6,166.5c1.1-0.1,2.2-0.1,3.4-0.2c0.8,0,1,0.1,1.1,1c0.1,2.1,0.3,4.2,0.4,6.3c0,0.8-0.2,1.1-1,1.1
						c-2.2,0.1-4.5,0.3-6.7,0.4c-0.8,0-1.1-0.1-1.1-1c-0.1-2.1-0.2-4.3-0.4-6.4c-0.1-0.7,0.3-1,1-1.1
						C102.4,166.6,103.5,166.5,104.6,166.5z M104.9,167.3c-0.9,0.1-1.7,0.1-2.6,0.2c-0.9,0.1-1.2,0.3-1.2,1.2c0.1,1.7,0.2,3.3,0.3,5
						c0,0.3,0.1,0.6,0.5,0.6c0.5,0,0.4-0.4,0.3-0.7c-0.1-1.3-0.2-2.7-0.2-4c-0.1-1.1,0.1-1.2,1.2-1.3c1.5-0.1,3-0.2,4.4-0.3
						c0.3,0,0.6,0,0.6-0.4c0-0.5-0.4-0.4-0.7-0.4C106.7,167.2,105.8,167.2,104.9,167.3z"/>
					<path class="st18" d="M89.5,168.7c0.2,0,0.5-0.2,0.6,0.3c0.1,0.5-0.3,0.4-0.6,0.5c-1.7,0.2-3.3,0.4-5,0.6
						c-0.5,0-0.6,0.2-0.6,0.7c0,0.3,0,0.5,0,0.8c0,0.3-0.2,0.3-0.4,0.3c-0.2,0-0.3-0.1-0.4-0.3c0-0.6-0.1-1.1-0.1-1.7
						c0-0.5,0.5-0.4,0.7-0.5c1.2-0.2,2.5-0.3,3.7-0.4C88.2,168.9,88.8,168.8,89.5,168.7z"/>
					<path class="st18" d="M154.8,171.6c-0.1-0.8-0.1-1.7-0.1-2.5c0-0.7,0.2-0.9,0.9-0.9c1.8,0.2,3.6,0.4,5.4,0.6
						c0.1,0,0.3,0.1,0.4,0.1c0.3,0,0.4,0.2,0.4,0.5c0,0.4-0.3,0.3-0.5,0.3c-1.3-0.1-2.5-0.3-3.8-0.4c-2-0.3-2-0.3-1.9,1.7
						c0.1,1.1,0.1,2.2,0.2,3.3c0,0.2,0.1,0.5-0.3,0.5c-0.3,0-0.4-0.2-0.5-0.5C154.9,173.3,154.8,172.4,154.8,171.6z"/>
					<path class="st18" d="M65.3,175.7c0-0.8-0.1-1.7-0.2-2.5c0-0.6,0.2-1,0.7-1.1c1.8-0.3,3.7-0.7,5.6-1c0.2,0,0.6-0.2,0.7,0.3
						c0.1,0.5-0.2,0.5-0.6,0.5c-1.5,0.2-3.1,0.5-4.6,0.7c-0.8,0.1-1.1,0.4-1,1.3c0.1,1.4,0.2,2.7,0.2,4.1c0,0.4,0,0.7-0.4,0.7
						c-0.5,0-0.3-0.4-0.3-0.6C65.4,177.3,65.3,176.5,65.3,175.7z"/>
					<path class="st19" d="M104.9,167.3c0.9-0.1,1.8-0.1,2.7-0.2c0.3,0,0.6-0.1,0.7,0.4c0,0.4-0.3,0.4-0.6,0.4
						c-1.5,0.1-3,0.2-4.4,0.3c-1.1,0.1-1.2,0.2-1.2,1.3c0.1,1.3,0.2,2.7,0.2,4c0,0.3,0.2,0.6-0.3,0.7c-0.5,0-0.5-0.3-0.5-0.6
						c-0.1-1.7-0.2-3.3-0.3-5c0-0.9,0.2-1.2,1.2-1.2C103.2,167.4,104,167.3,104.9,167.3z"/>
				</g>
			</g>
		</g>
	</g>
</g>
</svg>
