<?xml version="1.0" encoding="utf-8"?>
<!-- Generator: Adobe Illustrator 23.1.0, SVG Export Plug-In . SVG Version: 6.00 Build 0)  -->
<svg version="1.1" id="Layer_1" xmlns="http://www.w3.org/2000/svg" xmlns:xlink="http://www.w3.org/1999/xlink" x="0px" y="0px"
	 viewBox="0 0 400 203" style="enable-background:new 0 0 400 203;" xml:space="preserve">
<style type="text/css">
	.st0{fill:#E33540;}
	.st1{fill:#FFFFFF;}
	.st2{fill:#FDFDFD;}
</style>
<g>
	<g>
		<path class="st0" d="M294.7,90.5c9.6,0,19.2,0.3,28.8,1.1c15.7,1.2,31.4,3.2,46.8,7c0.8,0.2,1.7,0.5,2.5,0.6
			c0.6,0.1,0.7,0.3,0.6,1c-1.2,4.1-2.3,8.4-3.4,12.5c-0.1,0.5-0.2,1,0,1.6c1.2,5.2,2.3,10.4,3.4,15.7c0.1,0.6,0.2,0.8-0.6,0.6
			c-8.3-2.2-16.7-3.7-25.2-4.9c-9.9-1.5-20-2.5-29.9-3.1c-10.6-0.7-21.3-0.8-32-0.6c-9.4,0.2-19,0.8-28.4,1.7
			c-13.5,1.4-26.8,3.3-40,6.6c-1.6,0.4-1.6,0.4-1.2-1.2c1.1-5,2.2-9.9,3.3-15c0.1-0.5,0.1-1-0.1-1.5c-1.1-4-2.3-8.2-3.3-12.2
			c-0.2-0.8-0.2-1.1,0.7-1.3c7.2-1.9,14.6-3.2,21.9-4.4c6.8-1.1,13.7-1.9,20.5-2.6c4.9-0.5,9.9-0.9,15-1.1
			C280.9,90.7,287.8,90.5,294.7,90.5z M319.5,109.7c-3-3.9-5.8-7.6-8.7-11.2c-0.2-0.2-0.3-0.6-0.6-0.6c-1.7,0-3.3,0-5.3,0
			c1.6,0.8,1.3,2.1,1.3,3.2c0,3.1,0,6.3,0,9.4c0,1,0,2-1,2.6c-0.1,0.1-0.1,0.2,0,0.4c1.7,0,3.4,0,5.5,0c-1.4-0.8-1.4-2-1.4-3.1
			c0.1-2.4,0-4.7,0-7.1c0-0.3-0.1-0.6,0.1-0.8c0.3,0.1,0.5,0.4,0.6,0.6c2.7,3.4,5.3,6.9,8,10.3c0.2,0.2,0.3,0.6,0.6,0.6
			c1.7,0.1,3.3,0.2,5.2,0.4c-1.2-1.7-1.2-1.7-1.2-3.7c0-3,0-5.9,0-8.9c0-1.2,0-2.3,1.1-3.1c0,0,0-0.1,0-0.2
			c-1.8-0.1-3.4-0.2-5.2-0.3c-0.1,0.1-0.1,0.1-0.2,0.2c1.4,0.8,1.1,2.1,1.1,3.2c0,1.1,0,2.1,0,3.1
			C319.5,106.3,319.5,107.9,319.5,109.7z M279.5,107c1.6-1,1.9-2.4,1.8-3.9c0-0.5,0-0.9,0-1.4c0-2.5-1.7-3.9-4.1-3.8
			c-3,0.2-5.8,0.4-8.8,0.6c-1.6,0.1-3.1,0.2-4.7,0.3c1.4,0.9,1.1,2.3,1.1,3.5c0,3.1,0,6,0,9.1c0,1.1,0.1,2.2-1,2.9c0,0,0,0.2,0,0.3
			c1.8-0.1,3.4-0.3,5.2-0.4c-0.3-0.7-1.1-0.9-1.1-1.7c0-0.8,0-1.7,0-2.5c0-0.4,0.1-0.6,0.5-0.6c2.9-0.2,5.7-0.3,8.6-0.5
			c0.7,0,1.1,0.3,1.1,1.1c0,1.3,0.3,2.7-1.1,3.5c0,0,0,0.1,0,0.2c1.8-0.1,3.6,0,5.5-0.4c-1.4-0.7-1.2-1.9-1.2-3.1
			C281.4,108.9,281,107.8,279.5,107z M293.7,113.2c1.5,0,3,0,4.4,0c2.3,0,3.9-1.7,3.9-3.9c0-2.7,0-5.3,0-8c0-2.3-1.7-3.8-3.9-3.9
			c-3,0-5.9,0-8.9,0c-2.2,0-3.8,1.5-3.8,3.6c-0.1,2.9-0.1,5.7,0,8.6c0.1,2.2,1.8,3.5,3.9,3.6C290.8,113.2,292.2,113.2,293.7,113.2z
			 M260.6,106.8C260.6,106.8,260.5,106.8,260.6,106.8c0-1.5,0-3,0-4.3c-0.1-1.8-1.5-3.1-3.2-3.1c-0.5,0-0.9,0-1.4,0.1
			c-2.6,0.3-5.1,0.6-7.7,0.8c-2.6,0.3-4.2,2.1-4.3,4.6c0,2.5,0,4.9,0,7.5s1.5,3.9,4,3.7c2.8-0.3,5.6-0.6,8.4-0.9
			c2.6-0.3,4.2-2.1,4.2-4.6C260.6,109.3,260.6,108.1,260.6,106.8z M346.3,108.7c0,1.3,0,2.7,0,3.9c0,1.2,0.4,2.2,1.2,3.1
			c0.9,1,1.9,1.5,3.1,1.7c2.7,0.5,5.4,0.9,8.1,1.4c2.4,0.4,4.1-0.9,4.2-3.2c0-2.7,0-5.3,0-8c0-2.2-1.6-4.1-3.6-4.5
			c-3.1-0.6-6.1-1.1-9.3-1.6c-2.1-0.3-3.7,1.2-3.7,3.2C346.2,106.1,346.3,107.4,346.3,108.7z M343.3,104.9c0.1-0.1,0.1-0.1,0.2-0.2
			c0-1-0.1-2.1,0-3.1c0.1-0.9-0.3-1.1-1.1-1.2c-2.7-0.2-5.3-0.6-8-0.8c-2.3-0.2-4.6-0.5-6.9-0.7c-0.3,0-0.8-0.3-0.8,0.3
			c-0.1,1.3,0,2.6,0,3.8c0.8-0.3,1.1-1.1,1.9-1c1.4,0.2,2.8,0.4,4.1,0.5c0.6,0,0.7,0.3,0.7,0.8c0,2.9,0,5.8,0,8.7c0,1.1,0.1,2.3-1,3
			c0,0,0,0.1,0,0.2c1.8,0.2,3.5,0.4,5.3,0.6c-0.3-0.8-1.1-1.1-1.1-1.9c0-3.4,0-6.8,0-10.2c0-0.5,0.1-0.7,0.6-0.6
			c0.7,0.1,1.4,0.1,2,0.2C340.9,103.4,342.4,103.1,343.3,104.9z M241.2,105.5c0-0.1,0.1-0.1,0.1-0.2c0-0.6,0-1.2,0-1.9
			s0.3-1.7-0.1-2.1c-0.5-0.5-1.4,0.1-2.2,0.2c-0.1,0-0.1,0-0.2,0c-4.5,0.8-9.1,1.6-13.5,2.5c-0.3,0.1-0.7,0-0.7,0.5
			c0,1.3,0,2.5,0,3.7c0.4-0.1,0.6-0.4,0.7-0.6c0.3-0.5,0.8-0.7,1.4-0.8c1.3-0.2,2.5-0.4,3.7-0.7c0.7-0.1,0.9,0,0.9,0.8
			c0,2.7,0,5.3,0,8c0,1.3,0.2,2.7-1,3.7c0,0,0,0.1,0,0.2c1.8-0.3,3.4-0.6,5.2-0.9c-1.4-1-1-2.3-1-3.5c0-2.2,0-4.2,0-6.4
			c0-0.8-0.2-1.8,0.1-2.3c0.4-0.6,1.5-0.4,2.2-0.6c0.3-0.1,0.5-0.1,0.8-0.1C238.8,104.8,240.1,104.2,241.2,105.5z M261.6,102.1
			c0,0.5,0,0.8,0,1.1c0,2.5,0,4.9,0,7.4c0,2.7-2,5-4.6,5.5c-0.9,0.2-1.8,0.2-2.6,0.3c-2.3,0.3-4.5,0.5-7,0.8
			c0.7,0.7,1.5,0.7,2.2,0.7c2.8-0.3,5.6-0.5,8.4-1c2.6-0.4,4.4-2.8,4.5-5.4c0-2.4,0-4.7,0-7.1C262.5,103.6,262.3,102.9,261.6,102.1z
			 M349.9,118.3c0.7,0.9,1.6,1.2,2.6,1.4c2.5,0.4,4.9,0.8,7.3,1.2c2.9,0.5,5-1.4,5-4.2c0-2.3,0-4.5,0-6.7c0-0.9-0.2-1.7-0.9-2.5
			c0,2.9,0,5.5,0,8.2c0,2.9-2.2,4.7-5,4.3c-1.5-0.2-2.9-0.5-4.3-0.8C353.1,118.8,351.5,118.5,349.9,118.3z M303.2,101
			c0,0.3,0,0.5,0,0.6c0,2.5,0,4.8,0,7.3c0,3.3-2.2,5.4-5.4,5.4c-2.7,0-5.3,0-8,0c-0.2,0-0.5-0.1-0.6,0.2c0.7,0.4,1.4,0.7,2.2,0.7
			c2.7,0,5.2,0,7.9,0c2.5,0,4.5-1.9,4.8-4.2c0.3-2.6,0.1-5.2,0.1-7.8C304,102.4,303.8,101.7,303.2,101z M325.9,100.7
			c-0.5-0.3-0.8-0.2-1.2-0.2c-0.9-0.2-1.1,0.2-1.1,1.1c0,3.4,0,7,0,10.4c0,0.7,0.3,1.1,1,1.5c0-0.4,0-0.7,0-1c0-2.9,0-5.6,0-8.5
			C324.6,102.8,324.4,101.4,325.9,100.7z M342.5,105.5c-0.3-0.7-0.7-1-1.4-1.1c-0.9,0-1.8-0.2-2.6-0.3c-0.6-0.1-0.8,0.1-0.8,0.7
			c0,2.8,0,5.6,0,8.4c0,0.7,0.4,1.1,1,1.5c0-3,0-5.8,0-8.7c0-0.8,0.3-1,1-0.9C340.6,105.3,341.5,105.4,342.5,105.5z M236.2,116.7
			c0.2-0.4,0.1-0.7,0.1-1c0-2.6,0-5.2,0-7.8c0-0.7,0.2-0.9,0.8-1c0.8-0.1,1.5-0.2,2.3-0.4c0.2,0,0.5,0,0.6-0.3
			c0-0.3-0.3-0.4-0.5-0.5c-0.2-0.1-0.5,0-0.7,0c-0.8,0.1-1.7,0.4-2.5,0.5c-0.6,0.1-0.8,0.3-0.8,0.9c0,2.8,0,5.6,0,8.4
			C235.4,116.1,235.6,116.5,236.2,116.7z M269.7,112.9c0.2-0.2,0.1-0.5,0.1-0.7c-0.1-0.9,0.3-1.1,1.2-1.2c1.8,0,3.5-0.2,5.3-0.3
			c0.3,0,0.8,0.1,0.8-0.5s-0.5-0.4-0.8-0.4c-2.2,0.1-4.4,0.2-6.6,0.4c-0.2,0-0.5,0-0.6,0.3C268.6,111.2,269.1,112.5,269.7,112.9z
			 M282.3,101c0,1,0,1.9,0,2.7c0,1-0.2,1.9-0.7,2.7c-0.1,0.2-0.5,0.5-0.1,0.8c0.4,0.3,0.6-0.1,0.9-0.3c1-1,1-2.3,0.9-3.5
			C283.2,102.6,283.1,101.7,282.3,101z M325.8,116.4c-0.4-0.6-0.7-1-1.3-1c-1.3,0-2.5-0.2-3.7-0.2c-0.3,0-0.7-0.2-0.7,0.2
			c0,0.3,0.2,0.6,0.7,0.7C322.4,116.1,324,116.3,325.8,116.4z M278.8,115.5c2-0.1,3.7-0.2,5.6-0.3
			C283.5,114,279.6,114.2,278.8,115.5z M339.9,117.9c-0.4-0.8-0.9-1.1-1.6-1.1c-0.9,0-1.8-0.1-2.6-0.3c-0.7-0.1-1.1,0.1-1.5,0.8
			C336.1,117.5,337.9,117.7,339.9,117.9z M237.6,119.4c-1.1-1.1-5-0.3-5.6,1C233.9,120.1,235.6,119.8,237.6,119.4z M310.5,105.4
			c0,0.1-0.1,0.2-0.1,0.2c0,2,0,3.9,0,5.9c0,0.5,0.3,0.7,0.8,0.9c0-2.1,0-4,0-5.9C311.2,106,310.9,105.7,310.5,105.4z M265.5,116.3
			c1.7-0.1,3.2-0.2,4.8-0.3c0.2,0,0.5,0,0.6-0.3c0-0.3-0.2-0.4-0.4-0.5c-0.2-0.2-0.4-0.1-0.7-0.1c-1,0.1-1.9,0.2-2.9,0.3
			C266.3,115.3,265.9,115.6,265.5,116.3z M312.4,115.5c-0.1-0.4-0.4-0.8-0.7-0.8c-1.3-0.1-2.7-0.1-4-0.1c-0.3,0-0.6,0.3-0.6,0.6
			c0,0.3,0.4,0.3,0.6,0.3C309.3,115.5,310.7,115.5,312.4,115.5z M328.8,105.4c0.9-1.3,2-1.1,3.1-1c0.3,0,0.5,0.2,0.6-0.3
			c0-0.4,0-0.6-0.5-0.7c-0.5,0-1.1-0.1-1.6-0.2C328.7,103.2,328.7,103.2,328.8,105.4z M226.5,110.2c0.7-1.4,1.7-1.8,3-1.9
			c0.1,0,0.2,0,0.3-0.1c0.3-0.1,0.4-0.3,0.4-0.6c-0.1-0.4-0.3-0.2-0.5-0.2c-0.6,0.1-1.1,0.2-1.7,0.2c-1.8,0.3-1.8,0.3-1.7,2.1
			C226.4,109.8,226.4,109.9,226.5,110.2z M243.1,105c0-0.5,0-1,0-1.5c0-0.3,0.1-0.7-0.4-0.6c-0.4,0-0.6,0.2-0.6,0.7
			c0,0.9,0,1.8,0,2.6c0,0.4,0.2,0.6,0.5,0.8c0.4,0.2,0.5,0.2,0.5-0.3C243.1,106,243.1,105.5,243.1,105z M345.4,106.9
			c0-1.4,0-2.6,0-3.8c0-0.3-0.1-0.5-0.5-0.5c-0.4,0-0.4,0.2-0.4,0.5c0,0.8,0,1.6,0,2.4C344.5,106.1,344.8,106.5,345.4,106.9z
			 M282.3,109.6c0,0.6,0,1.1,0,1.6c0,0.5,0.2,0.9,0.6,1.1c0.2,0.1,0.4,0.2,0.4-0.1C283.5,111.5,283,110.2,282.3,109.6z"/>
		<path class="st0" d="M344.3,86.7c-1.7-2.4-3.3-4.6-4.9-7c-0.5-0.7-1.1-1-1.9-1.1c-4-0.4-8.1-0.9-12.1-1.2
			c-6.6-0.6-13.1-0.9-19.7-1.2c-0.8,0-1,0.2-1,1c0,3.1,0,6.3,0,9.4c0,0.6-0.2,0.8-0.8,0.8c-6.2-0.1-12.3-0.1-18.5,0
			c-0.7,0-0.8-0.2-0.8-0.9c0-3.2,0-6.4,0-9.6c0-0.6-0.2-0.8-0.8-0.8c-6.9,0.2-13.7,0.6-20.6,1.2c-4,0.4-8.1,0.8-12.1,1.2
			c-0.5,0.1-0.8,0.3-1.1,0.7c-1.6,2.3-3.1,4.5-4.7,6.7c-0.2,0.2-0.3,0.5-0.6,0.7c-0.2-0.3-0.1-0.6-0.1-1c0-6.9,0-13.7,0-20.6
			c0-0.8,0.3-1,1-1.1c5.8-0.7,11.6-1.3,17.4-1.9c9.1-0.8,18.2-1.3,27.3-1.4c9.3-0.1,18.6,0.1,27.9,0.8c8.5,0.6,16.8,1.4,25.3,2.5
			c0.8,0.1,1,0.4,1,1.2c0,6.8,0,13.7,0,20.5c0,0.3,0,0.6,0,0.9C344.5,86.7,344.4,86.7,344.3,86.7z"/>
		<path class="st0" d="M282.4,24.5c0.1-0.3-0.1-0.6-0.2-0.9c-0.9-2.6-1.7-5.1-2.6-7.8c-0.2-0.6-0.2-0.9,0.6-0.8h0.1
			c2.7,0.4,4.9-0.5,6.9-2.3c2.2-1.8,4.5-3.3,6.8-5c0.5-0.4,0.8-0.4,1.3,0c3.1,2.3,6.1,4.4,9.2,6.7c0.6,0.4,1.1,0.6,1.8,0.6
			c1,0,2,0,3,0c0.6,0,0.7,0.2,0.5,0.7c-0.9,2.6-1.7,5.1-2.5,7.7c-0.1,0.3-0.3,0.6-0.2,1c0.4,0,0.6-0.2,0.8-0.4
			c2.2-1.6,4.3-3.1,6.5-4.7c0.5-0.4,0.9-0.5,1,0.3c0.4,2.9,2.2,4.7,4.5,6.2c2.3,1.4,4.2,3.1,6.4,4.5c0.6,0.4,0.7,0.7,0.5,1.4
			c-1.1,3.4-2.2,6.9-3.2,10.3c-0.3,0.8-0.1,0.9,0.7,1c6.7,0.5,13.3,1.2,20,2.1c3.1,0.4,6.4,0.9,9.5,1.3c0.9,0.1,1.3,0.4,1.2,1.4
			c-0.1,1.4,0,2.8,0,4.1c0,0.6-0.2,0.8-0.8,0.7c-3.1-0.5-6.1-0.9-9.2-1.3c-5-0.7-10.1-1.2-15.3-1.7c-6.4-0.6-12.8-1-19.2-1.3
			c-1.2-0.1-2.4-0.1-3.5-0.1c-0.5,0-0.8,0.2-1.1,0.4c-3.4,2.6-7,5-10.4,7.6c-0.5,0.4-0.9,0.4-1.4,0c-3.4-2.6-6.8-5-10.2-7.5
			c-0.5-0.4-0.9-0.5-1.5-0.5c-9.2,0.3-18.4,1-27.6,2c-6.5,0.7-12.9,1.5-19.4,2.5c-0.6,0.1-0.8,0-0.8-0.7c0-1.5,0-3,0-4.4
			c0-0.7,0.2-0.9,0.9-1c3.5-0.5,7.1-1,10.5-1.5c5.4-0.7,10.9-1.2,16.3-1.7c1-0.1,2-0.2,3-0.2c0.8,0,0.8-0.3,0.6-0.9
			c-1.1-3.3-2.1-6.8-3.1-10.1c-0.3-0.9-0.1-1.3,0.7-1.9c3-2.1,5.9-4.2,8.9-6.3c0.5-0.3,0.8-0.7,1-1.3c0.3-1,0.7-2,0.9-3.1
			c0.2-0.6,0.4-0.6,0.9-0.3c2.3,1.7,4.6,3.3,6.9,5C282,24.3,282.1,24.5,282.4,24.5z M272.9,42.4c2.6-0.1,5-0.3,7.6-0.4
			c0.4,0,0.7-0.2,0.8-0.6c0.8-2.6,1.7-5,2.5-7.6c0.2-0.5,0.1-0.7-0.3-1c-2.2-1.5-4.2-3.1-6.3-4.5c-0.4-0.3-0.7-0.3-1.1,0
			c-2.1,1.6-4.2,3.1-6.3,4.5c-0.4,0.3-0.5,0.6-0.3,1c0.9,2.7,1.8,5.3,2.6,8C272.3,42.4,272.5,42.6,272.9,42.4z M316.5,42.4
			c0.5,0.1,0.7-0.2,0.8-0.6c0.9-2.7,1.7-5.4,2.6-8.1c0.2-0.5,0-0.7-0.3-1c-2.2-1.6-4.2-3.1-6.4-4.6c-0.3-0.2-0.6-0.3-0.9,0
			c-2.2,1.6-4.3,3.1-6.4,4.7c-0.3,0.2-0.4,0.5-0.3,0.8c0.9,2.6,1.7,5.2,2.5,7.8c0.1,0.4,0.3,0.5,0.7,0.5
			C311.2,42.1,313.9,42.3,316.5,42.4z M294.6,35.2c-1.3,0-2.6,0-3.8,0c-0.5,0-0.8,0.2-0.9,0.7c-0.8,2.5-1.6,4.9-2.4,7.3
			c-0.2,0.5-0.1,0.8,0.3,1.1c2.2,1.5,4.2,3.1,6.3,4.5c0.4,0.3,0.7,0.3,1.1,0c2.1-1.6,4.2-3.1,6.3-4.5c0.4-0.3,0.5-0.6,0.3-1
			c-0.8-2.5-1.7-4.9-2.4-7.4c-0.2-0.5-0.4-0.7-1-0.7C297.3,35.2,295.9,35.2,294.6,35.2z M294.6,28.8c1.3,0,2.6,0,3.7,0
			c0.6,0,0.9-0.1,1.1-0.8c0.8-2.5,1.6-4.8,2.4-7.3c0.2-0.5,0.1-0.8-0.4-1.1c-2.1-1.5-4.1-3-6.2-4.5c-0.4-0.3-0.7-0.4-1.2,0
			c-2.1,1.6-4.2,3.1-6.3,4.6c-0.4,0.3-0.5,0.6-0.3,1c0.8,2.5,1.6,4.9,2.4,7.3c0.2,0.6,0.5,0.7,1,0.7
			C292.1,28.8,293.4,28.8,294.6,28.8z"/>
		<path class="st0" d="M304.7,149.4c0,7.7,0,15.5,0,23.1c0,0.7,0.2,1.1,0.7,1.6c1.8,1.5,3.5,3,5.3,4.4c0.5,0.4,0.6,0.6-0.1,0.9
			c-5,2.5-10.1,4.6-15.5,6.4c-0.4,0.1-0.8,0.1-1.2,0c-5.3-1.8-10.4-3.9-15.5-6.4c-0.6-0.3-0.6-0.5-0.1-0.9c1.8-1.5,3.6-3,5.4-4.4
			c0.5-0.4,0.7-0.9,0.7-1.6c0-15.5,0-31,0-46.5c0-1.4-0.1-1.2,1.2-1.2c6-0.1,11.9-0.1,17.9,0c0.9,0,1.1,0.3,1.1,1.1
			C304.7,133.8,304.7,141.7,304.7,149.4z"/>
		<path class="st0" d="M354.8,138.8c0,3.1,0,7-0.9,10.9c-1.5,6.3-4.5,11.7-8.7,16.6c-5.3,6.3-11.7,11.3-18.8,15.6
			c-9.7,5.9-20.1,10.5-31,14c-0.6,0.2-1.2,0.2-1.8,0c-12.2-3.9-23.8-9.2-34.4-16.3c-6.5-4.3-12.4-9.4-17-15.7
			c-4.1-5.5-6.8-11.7-7.5-18.6c-0.2-2.2-0.2-4.3-0.2-6.6c0-2.8,0-5.5,0-8.3c0-0.6,0.1-0.8,0.8-0.9c1.7-0.2,3.2-0.5,4.9-0.8
			c0.7-0.1,1,0,1,0.8c0,3.5,0.1,7.2,0,10.7c-0.3,8.3,2.7,15.3,7.8,21.6c4.4,5.3,9.7,9.5,15.6,13.4c5.3,3.4,11,6.4,16.8,9
			c4.1,1.8,8.4,3.4,12.7,4.9c0.4,0.1,0.8,0.2,1.3,0.1c12.1-4,23.6-9.3,34-16.8c5.7-4.1,10.8-8.9,14.6-15c3.1-4.9,4.6-10.2,4.5-16
			c-0.1-3.8,0-7.8,0-11.6c0-0.8,0.2-1.1,1-0.9c1.7,0.3,3.2,0.6,4.9,0.9c0.6,0.1,0.7,0.3,0.7,0.9C354.8,133,354.8,135.5,354.8,138.8z
			"/>
		<path class="st0" d="M299,57.2c1.3-1,2.7-2,4-3c1.3-1,2.7-1.9,3.9-2.9c0.4-0.3,0.7-0.4,1.1-0.4c5.5,0.2,11.1,0.6,16.6,1
			c5.5,0.4,11.1,1,16.6,1.7c4.2,0.5,8.5,1.1,12.7,1.7c0.6,0.1,0.8,0.3,0.8,0.9c0,3.7,0,7.6,0,11.3c0,7.9,0,15.7,0,23.5
			c0,0.8-0.3,1-1,0.9c-1.6-0.3-3.1-0.6-4.7-0.8c-0.7-0.1-0.9-0.4-0.9-1.1c0-9.3,0-18.6,0-27.9c0-1.2,0-1.2-1.2-1.4
			c-6-0.8-12-1.5-18-2.1c-5-0.5-10.1-0.9-15.2-1.1c-4.8-0.3-9.6-0.4-14.5-0.5C299.3,57.3,299.1,57.4,299,57.2z"/>
		<path class="st0" d="M290.3,57.4c-1.5,0-3,0-4.4,0c-8.5,0.2-16.8,0.7-25.3,1.5c-6.2,0.6-12.5,1.3-18.7,2.1c-0.7,0.1-0.8,0.4-0.8,1
			c0,9.4,0,18.7,0,28.1c0,0.8-0.2,1.1-1,1.2c-1.6,0.2-3.1,0.5-4.7,0.8c-0.6,0.1-0.8,0-0.8-0.7c0-11.7,0-23.4,0-35.1
			c0-0.5,0.1-0.8,0.7-0.9c5.8-0.9,11.7-1.6,17.5-2.3c6.6-0.7,13.2-1.3,19.8-1.7c2.9-0.2,5.8-0.3,8.7-0.4c0.4,0,0.7,0,1,0.2
			c2.7,2,5.4,3.9,8.1,5.9C290.3,57.2,290.3,57.3,290.3,57.4z"/>
		<path class="st0" d="M360.4,142c0.3-0.4,0.6-0.4,0.9-0.5c5.1-2.1,10.3-4.1,15.5-6.2c0.6-0.2,0.8-0.4,0.6-1.1
			c-1.5-6.7-3-13.4-4.4-20.2c-0.3-1.4,0.5-2.5,0.7-3.7c0.1-0.3,0.3-0.2,0.5-0.1c2.5,0.5,5,1,7.5,1.5c0.4,0.1,0.5,0.3,0.5,0.7
			c0,1.3,0,2.7,0,3.9c0,0.6,0.2,0.9,0.5,1.3c3.9,4.1,7.8,8.3,11.6,12.4c0.5,0.5,0.5,0.7-0.1,1.1c-3.8,2.7-7.6,5.3-11.4,8
			c-0.5,0.3-0.7,0.7-0.7,1.3c0,1.5,0,3,0,4.4c0,0.5,0,0.7-0.6,0.6c-6.9-1.2-13.8-2.3-20.8-3.2C360.7,142.1,360.6,142.1,360.4,142z"
			/>
		<path class="st0" d="M228.8,142.1c-1.9,0.3-3.8,0.5-5.7,0.9c-5,0.8-10.1,1.6-15.2,2.5c-0.7,0.1-0.9,0-0.8-0.7c0-1.5,0-2.9,0-4.3
			c0-0.6-0.2-1-0.7-1.4c-3.7-2.7-7.5-5.3-11.3-7.9c-0.6-0.4-0.6-0.7-0.1-1.2c3.8-4.1,7.8-8.2,11.6-12.3c0.4-0.4,0.5-0.7,0.5-1.3
			c0-1.3,0-2.6,0-3.8c0-0.5,0.1-0.8,0.7-0.9c2.4-0.4,4.6-0.9,7-1.4c0.7-0.2,0.9,0.1,1.1,0.7c0.5,1.7,0.5,3.1,0.1,4.9
			c-1.5,6.1-2.8,12.2-4.1,18.2c-0.2,0.7-0.1,1,0.7,1.3c5.1,2,10.2,4,15.4,6.1c0.3,0.1,0.6,0.3,1,0.4
			C228.8,142,228.8,142,228.8,142.1z"/>
		<path class="st0" d="M261.2,140.9c0,4.4,0,9,0,13.4c0,0.3,0.2,0.8-0.2,1c-0.3,0.2-0.5-0.3-0.8-0.5c-2.8-2.1-5.4-4.4-7.8-6.9
			c-3-3.2-5.7-6.7-7.1-10.9c-0.4-1.3-0.7-2.6-0.7-3.8c0-1.2,0-2.3,0-3.4c0-1.6,0-1.5,1.6-1.7c4.6-0.6,9.4-1.1,14-1.6
			c0.7-0.1,1,0,0.9,0.8C261.2,131.7,261.2,136.4,261.2,140.9z"/>
		<path class="st0" d="M328.2,140.8c0-4.5,0-9,0-13.5c0-0.8,0.3-1,1-0.9c3.1,0.4,6.3,0.7,9.4,1c1.8,0.2,3.5,0.5,5.3,0.7
			c0.3,0,0.5,0.1,0.5,0.5c-0.1,3.1,0.4,6.3-1,9.4c-1.3,3.1-3.1,5.8-5.3,8.4c-2.7,3.1-5.7,5.9-9,8.5c-0.3,0.2-0.6,0.7-0.9,0.5
			c-0.3-0.2-0.1-0.7-0.1-1C328.2,149.7,328.2,145.2,328.2,140.8z"/>
		<path class="st0" d="M264.1,166.9c0-1.1,0-2.3,0-3.3c0-0.2-0.1-0.5,0.1-0.6c0.2-0.1,0.4,0.1,0.5,0.2c4,2.7,8.3,4.9,12.6,7
			c1.2,0.6,2.4,1.1,3.5,1.6c0.6,0.2,0.7,0.5,0.2,0.9c-1.9,1.6-3.7,3.1-5.6,4.7c-0.3,0.2-0.5,0.2-0.8,0c-3.4-1.9-6.9-3.9-10.1-6.2
			c-0.4-0.2-0.4-0.5-0.4-0.9C264.1,169.1,264.1,168,264.1,166.9z"/>
		<path class="st0" d="M325.2,162.8c0,2.7,0,5.2,0,7.8c0,0.4-0.2,0.5-0.5,0.7c-3.2,2.2-6.5,4.2-9.9,6.1c-0.5,0.2-0.8,0.2-1.2-0.1
			c-1.7-1.5-3.4-2.9-5.1-4.3c-0.9-0.7-0.9-0.8,0.2-1.3c5.5-2.4,10.7-5.1,15.7-8.4C324.6,163.1,324.9,163,325.2,162.8z"/>
		<path class="st0" d="M245,144.6c1.3,1.7,2.5,3.3,3.8,4.9c3.4,4,7.4,7.6,11.7,10.6c0.5,0.4,0.8,0.8,0.7,1.5c0,2.4,0,4.6,0,7.2
			c-4.1-3.1-7.7-6.6-10.7-10.6C247.6,154.2,245.5,149.7,245,144.6z"/>
		<path class="st0" d="M344.5,144.3c-0.3,3.3-1.3,6.3-2.7,9.2c-2.4,4.7-5.8,8.6-9.6,12.1c-1.2,1.1-2.4,2.2-3.8,3.1
			c0-0.6,0-1.1,0-1.5c0-1.9,0-3.8,0-5.7c0-0.6,0.2-1,0.7-1.4c4.7-3.4,9-7.3,12.6-11.8C342.4,147.1,343.3,145.8,344.5,144.3z"/>
		<path class="st0" d="M261.2,84.7c0,1.1,0,2.3,0,3.3c0,0.6-0.2,0.8-0.8,0.9c-4.2,0.3-8.4,0.8-12.6,1.3c-0.2,0-0.4,0.2-0.6,0
			c-0.2-0.2,0.1-0.4,0.2-0.6c2-2.6,3.8-5,5.8-7.6c0.4-0.5,0.9-0.8,1.5-0.9c1.9-0.1,3.6-0.3,5.5-0.5c0.6-0.1,1,0,0.9,0.8
			C261.2,82.5,261.2,83.6,261.2,84.7z"/>
		<path class="st0" d="M342.2,90.2c-2.2-0.2-4.3-0.5-6.5-0.7c-2.2-0.2-4.4-0.5-6.6-0.7c-0.7-0.1-1-0.2-1-1c0-2.2,0-4.3,0-6.5
			c0-0.7,0.2-0.9,0.9-0.8c1.8,0.2,3.5,0.4,5.4,0.5c0.7,0.1,1.1,0.2,1.6,0.8c2,2.7,4,5.2,6.1,7.9C342.1,89.9,342.1,90.1,342.2,90.2z"
			/>
		<path class="st0" d="M372.5,133.7c-2.6,1.1-5.2,2.1-7.8,3.1c-2,0.8-4,1.6-6,2.5c-0.7,0.3-0.8,0.1-0.8-0.6c0-2.5,0-5,0-7.5
			c0-0.7,0.1-0.8,0.8-0.7c3.4,0.7,7,1.5,10.4,2.3C370.2,133.1,371.3,133.3,372.5,133.7C372.5,133.6,372.5,133.7,372.5,133.7z"/>
		<path class="st0" d="M216.7,133.6c2-0.6,3.8-1,5.8-1.4c2.8-0.6,5.5-1.2,8.3-1.8c0.5-0.1,0.7-0.1,0.7,0.6c0,2.6,0,5.2,0,7.8
			c0,0.5,0,0.7-0.6,0.5c-4.6-1.9-9.2-3.6-13.8-5.5C216.9,133.8,216.9,133.7,216.7,133.6z"/>
		<path class="st0" d="M270.9,142.6c-1.5,0-2.7,0-4.1,0c1-0.6,0.8-1.4,0.8-2.2c0-1.7,0-3.2,0-4.9c0-0.7,0-1.4-0.6-1.9
			c0.2-0.2,0.5-0.2,0.7-0.2c3.5,0,7.1,0,10.6,0c0.7,0,1,0.2,0.9,0.9c0,0.2,0,0.4,0,0.6c0,0.7,0.1,1.4-0.9,0.7
			c-0.1-0.1-0.4-0.1-0.6-0.1c-2.3,0-4.4,0-6.7,0c-0.5,0-0.8,0-0.8,0.7s0.3,0.7,0.8,0.7c1.8,0,3.5,0,5.2,0c0.6,0,0.9,0.1,0.9,0.8
			c-0.1,1.5,0.1,1.3-1.3,1.4c-1.7,0-3.2,0-4.9,0c-0.5,0-0.8,0.2-0.7,0.7C270.2,140.7,269.8,141.7,270.9,142.6z"/>
		<path class="st0" d="M322.4,136.2c-0.7-0.6-1.4-0.6-2-0.6c-2,0-3.9,0-5.9,0c-1.1,0-1.3,0.3-1.4,1.4c0,0.7,0,1.4,0,2.1
			c0,1.2,0.2,1.4,1.4,1.4c2.3,0,4.6,0,6.9,0c0.3,0,0.8-0.2,0.9,0.2c0.1,0.6,0.2,1.2,0,1.8c-0.1,0.2-0.4,0.1-0.6,0.1
			c-2.6,0-5.2,0-7.8,0c-2.3,0-3.4-1.3-3.4-3.5c0-0.7,0-1.5,0-2.2c0-1.7,0.9-2.8,2.6-3.1c0.8-0.2,1.7-0.1,2.5-0.1c2,0,4,0,6,0
			c0.7,0,0.9,0.2,0.8,0.9C322.3,134.9,322.4,135.4,322.4,136.2z"/>
		<path class="st1" d="M319.5,109.7c0-1.8,0-3.3,0-4.8c0-1.1,0-2.1,0-3.1c0-1.2,0.3-2.5-1.1-3.2c0.1-0.1,0.1-0.1,0.2-0.2
			c1.8,0.1,3.5,0.2,5.2,0.3c0,0.1,0,0.2,0,0.2c-1.1,0.8-1.1,1.9-1.1,3.1c0,3,0,5.9,0,8.9c0,2.1,0,2.1,1.2,3.7
			c-1.8-0.1-3.5-0.2-5.2-0.4c-0.3,0-0.4-0.4-0.6-0.6c-2.7-3.4-5.3-6.9-8-10.3c-0.2-0.2-0.3-0.5-0.6-0.6c-0.2,0.3-0.1,0.6-0.1,0.8
			c0,2.4,0,4.7,0,7.1c0,1.2,0,2.4,1.4,3.1c-2.1,0-3.7,0-5.5,0c-0.1-0.2-0.1-0.3,0-0.4c1-0.6,1-1.6,1-2.6c0-3.1,0-6.3,0-9.4
			c0-1.2,0.3-2.5-1.3-3.2c2,0,3.6,0,5.3,0c0.3,0,0.4,0.4,0.6,0.6C313.7,102.1,316.5,105.7,319.5,109.7z"/>
		<path class="st1" d="M279.5,107c1.5,0.7,1.9,1.9,1.8,3.2c-0.1,1.2-0.2,2.4,1.2,3.1c-1.9,0.4-3.7,0.3-5.5,0.4c0-0.1,0-0.2,0-0.2
			c1.3-0.9,1.1-2.3,1.1-3.5c0-0.8-0.4-1.1-1.1-1.1c-2.9,0.2-5.7,0.3-8.6,0.5c-0.4,0-0.5,0.2-0.5,0.6c0,0.8,0,1.7,0,2.5
			c0,0.8,0.8,1,1.1,1.7c-1.8,0.1-3.4,0.3-5.2,0.4c0-0.1,0-0.3,0-0.3c1.1-0.7,1-1.8,1-2.9c0-3.1,0-6,0-9.1c0-1.3,0.3-2.7-1.1-3.5
			c1.6-0.1,3.1-0.2,4.7-0.3c3-0.2,5.8-0.4,8.8-0.6c2.5-0.1,4,1.4,4.1,3.8c0,0.5,0,1,0,1.4C281.4,104.7,281.1,106,279.5,107z
			 M272.6,106L272.6,106c1.4-0.1,2.9-0.1,4.2-0.2c1-0.1,1.2-0.3,1.3-1.3c0-0.9,0-1.8,0-2.7c0-0.7-0.3-1-1-1
			c-2.9,0.2-5.7,0.3-8.6,0.5c-0.5,0-0.7,0.2-0.7,0.7c0,1.2,0,2.4,0,3.5c0,0.6,0.2,0.7,0.7,0.7C269.9,106.1,271.3,106.1,272.6,106z"
			/>
		<path class="st1" d="M293.7,113.2c-1.5,0-3,0-4.4,0c-2.2,0-3.8-1.5-3.9-3.6c-0.1-2.9-0.1-5.7,0-8.6c0.1-2.2,1.8-3.6,3.8-3.6
			c3,0,5.9,0,8.9,0c2.3,0,3.8,1.7,3.9,3.9c0,2.7,0,5.3,0,8c0,2.3-1.7,3.9-3.9,3.9C296.6,113.2,295.2,113.2,293.7,113.2z
			 M293.7,110.2c1.3,0,2.7,0,3.9,0c0.8,0,1.2-0.3,1.1-1.1c0-2.5,0-4.9,0-7.5c0-0.7-0.3-1.1-1-1.1c-2.7,0-5.4,0-8.1,0
			c-0.7,0-1.1,0.4-1.1,1.1c0,2.5,0,4.9,0,7.5c0,0.8,0.4,1.1,1.1,1.1C291.1,110.1,292.4,110.2,293.7,110.2z"/>
		<path class="st1" d="M260.6,106.8c0,1.2,0,2.5,0,3.6c0,2.6-1.8,4.4-4.2,4.6c-2.8,0.3-5.6,0.6-8.4,0.9c-2.5,0.2-4-1.2-4-3.7
			c0-2.5,0-4.9,0-7.5s1.8-4.4,4.3-4.6c2.6-0.3,5.1-0.6,7.7-0.8c0.5,0,0.9-0.1,1.4-0.1c1.8,0,3.1,1.3,3.2,3.1
			C260.6,103.9,260.5,105.4,260.6,106.8C260.5,106.8,260.6,106.8,260.6,106.8z M257.4,107.1c0-1.3,0-2.6,0-3.7c0-0.7-0.3-1-1-0.9
			c-2.7,0.3-5.4,0.6-8.1,0.9c-0.7,0.1-1.1,0.5-1.1,1.2c0,2.6,0,5,0,7.6c0,0.7,0.3,1,1,0.9c2.7-0.3,5.4-0.6,8.1-0.9
			c0.8-0.1,1.1-0.5,1.1-1.2C257.4,109.6,257.4,108.4,257.4,107.1z"/>
		<path class="st1" d="M346.3,108.7c0-1.3,0-2.7,0-3.9c0-2.2,1.7-3.5,3.7-3.2c3.1,0.5,6.2,1,9.3,1.6c2.1,0.4,3.6,2.4,3.6,4.5
			c0,2.7,0,5.3,0,8c0,2.4-1.8,3.6-4.2,3.2c-2.7-0.5-5.4-0.9-8.1-1.4c-1.3-0.2-2.4-0.8-3.1-1.7c-0.8-0.9-1.2-1.9-1.2-3.1
			C346.3,111.4,346.3,110.1,346.3,108.7z M359.7,111.1c0-1.3,0-2.6,0-3.7c0-0.7-0.3-1.1-1-1.2c-2.7-0.5-5.3-0.9-8-1.4
			c-0.9-0.1-1.2,0.1-1.2,0.9c0,2.5,0,4.9,0,7.5c0,0.7,0.3,1.1,1,1.3c2.7,0.5,5.3,1,8,1.4c0.9,0.2,1.1-0.1,1.1-1
			C359.7,113.5,359.7,112.2,359.7,111.1z"/>
		<path class="st1" d="M343.3,104.9c-0.9-1.8-2.5-1.4-3.9-1.6c-0.7-0.1-1.4-0.1-2-0.2c-0.5-0.1-0.6,0.1-0.6,0.6c0,3.4,0,6.8,0,10.2
			c0,0.8,0.8,1.1,1.1,1.9c-1.9-0.2-3.6-0.4-5.3-0.6c0-0.1-0.1-0.2,0-0.2c1.1-0.7,1-1.8,1-3c0-2.9,0-5.8,0-8.7c0-0.6-0.1-0.8-0.7-0.8
			c-1.4-0.1-2.8-0.2-4.1-0.5c-0.9-0.1-1.1,0.7-1.9,1c0-1.3,0-2.6,0-3.8c0-0.5,0.5-0.3,0.8-0.3c2.3,0.2,4.6,0.5,6.9,0.7
			c2.7,0.3,5.3,0.6,8,0.8c0.8,0.1,1.2,0.3,1.1,1.2c-0.1,1,0,2.1,0,3.1C343.4,104.7,343.3,104.8,343.3,104.9z"/>
		<path class="st1" d="M241.2,105.5c-1-1.5-2.3-0.9-3.5-0.6c-0.3,0.1-0.5,0.1-0.8,0.1c-0.8,0.2-1.8,0-2.2,0.6
			c-0.4,0.6-0.1,1.5-0.1,2.3c0,2.2,0,4.2,0,6.4c0,1.3-0.4,2.6,1,3.5c-1.8,0.3-3.4,0.6-5.2,0.9c0-0.1-0.1-0.2,0-0.2
			c1.2-1,1-2.4,1-3.7c0-2.7,0-5.3,0-8c0-0.8-0.3-0.9-0.9-0.8c-1.2,0.3-2.5,0.5-3.7,0.7c-0.6,0.1-1.1,0.3-1.4,0.8
			c-0.2,0.2-0.3,0.5-0.7,0.6c0-1.3,0-2.6,0-3.7c0-0.5,0.4-0.4,0.7-0.5c4.5-0.8,9.1-1.6,13.5-2.5c0.1,0,0.1,0,0.2,0
			c0.8-0.1,1.7-0.7,2.2-0.2c0.5,0.4,0.1,1.4,0.1,2.1c0,0.6,0,1.2,0,1.9C241.2,105.5,241.2,105.5,241.2,105.5z"/>
		<path class="st0" d="M261.6,102.1c0.7,0.8,0.9,1.5,0.9,2.3c0,2.4,0,4.7,0,7.1c0,2.7-1.9,5-4.5,5.4c-2.8,0.4-5.5,0.7-8.4,1
			c-0.8,0.1-1.5,0-2.2-0.7c2.5-0.3,4.7-0.5,7-0.8c0.9-0.1,1.8-0.2,2.6-0.3c2.7-0.5,4.6-2.8,4.6-5.5c0-2.5,0-4.9,0-7.4
			C261.6,102.9,261.6,102.7,261.6,102.1z"/>
		<path class="st0" d="M349.9,118.3c1.6,0.3,3.1,0.6,4.7,0.8c1.5,0.3,2.9,0.5,4.3,0.8c2.9,0.4,5-1.4,5-4.3c0-2.7,0-5.3,0-8.2
			c0.7,0.8,0.9,1.7,0.9,2.5c0,2.3,0,4.5,0,6.7c0,2.9-2.2,4.7-5,4.2c-2.5-0.4-4.9-0.8-7.3-1.2C351.5,119.5,350.7,119.1,349.9,118.3z"
			/>
		<path class="st0" d="M303.2,101c0.6,0.7,0.8,1.4,0.8,2.1c0,2.6,0.2,5.2-0.1,7.8c-0.3,2.5-2.4,4.2-4.8,4.2c-2.7,0-5.2,0-7.9,0
			c-0.8,0-1.5-0.3-2.2-0.7c0.2-0.3,0.4-0.2,0.6-0.2c2.7,0,5.3,0,8,0c3.2,0,5.4-2.1,5.4-5.4c0-2.5,0-4.8,0-7.3
			C303.2,101.4,303.2,101.3,303.2,101z"/>
		<path class="st0" d="M325.9,100.7c-1.5,0.8-1.2,2.1-1.2,3.2c0,2.9,0,5.6,0,8.5c0,0.3,0,0.6,0,1c-0.7-0.4-1-0.8-1-1.5
			c0-3.4,0-7,0-10.4c0-0.8,0.2-1.2,1.1-1.1C325,100.5,325.4,100.4,325.9,100.7z"/>
		<path class="st0" d="M342.5,105.5c-1-0.1-2-0.2-2.9-0.3c-0.7-0.1-1,0.1-1,0.9c0.1,2.9,0,5.7,0,8.7c-0.6-0.4-1-0.7-1-1.5
			c0-2.8,0-5.6,0-8.4c0-0.7,0.2-0.8,0.8-0.7c0.9,0.1,1.8,0.3,2.6,0.3C341.8,104.5,342.2,104.8,342.5,105.5z"/>
		<path class="st0" d="M236.2,116.7c-0.6-0.2-0.8-0.6-0.8-1.2c0-2.8,0-5.6,0-8.4c0-0.6,0.2-0.8,0.8-0.9c0.9-0.1,1.7-0.3,2.5-0.5
			c0.2,0,0.5-0.1,0.7,0c0.2,0.1,0.6,0.2,0.5,0.5c0,0.3-0.4,0.2-0.6,0.3c-0.8,0.1-1.5,0.3-2.3,0.4c-0.6,0.1-0.8,0.3-0.8,1
			c0,2.6,0,5.2,0,7.8C236.3,116,236.4,116.4,236.2,116.7z"/>
		<path class="st0" d="M269.7,112.9c-0.7-0.4-1.1-1.8-0.7-2.4c0.1-0.2,0.4-0.2,0.6-0.3c2.2-0.1,4.4-0.3,6.6-0.4
			c0.3,0,0.8-0.2,0.8,0.4c0,0.6-0.4,0.5-0.8,0.5c-1.8,0.1-3.5,0.3-5.3,0.3c-0.9,0-1.3,0.2-1.2,1.2
			C269.9,112.4,269.9,112.7,269.7,112.9z"/>
		<path class="st0" d="M282.3,101c0.8,0.7,0.9,1.6,1,2.4c0.1,1.3,0.1,2.6-0.9,3.5c-0.2,0.2-0.4,0.7-0.9,0.3c-0.4-0.3,0-0.6,0.1-0.8
			c0.5-0.8,0.7-1.7,0.7-2.7C282.3,102.9,282.3,102,282.3,101z"/>
		<path class="st0" d="M325.8,116.4c-1.8-0.1-3.4-0.2-5.1-0.3c-0.4,0-0.7-0.3-0.7-0.7s0.5-0.2,0.7-0.2c1.3,0,2.5,0.2,3.7,0.2
			C325.1,115.4,325.4,115.8,325.8,116.4z"/>
		<path class="st0" d="M278.8,115.5c0.9-1.3,4.7-1.5,5.6-0.3C282.5,115.3,280.7,115.4,278.8,115.5z"/>
		<path class="st0" d="M339.9,117.9c-2-0.2-3.7-0.4-5.7-0.6c0.4-0.6,0.8-0.9,1.5-0.8c0.9,0.1,1.8,0.2,2.6,0.3
			C339,116.8,339.5,117.1,339.9,117.9z"/>
		<path class="st0" d="M237.6,119.4c-2,0.4-3.7,0.7-5.6,1C232.6,119.1,236.5,118.3,237.6,119.4z"/>
		<path class="st0" d="M310.5,105.4c0.4,0.4,0.7,0.7,0.7,1.1c0,2,0,3.9,0,5.9c-0.5-0.2-0.8-0.4-0.8-0.9c0-2,0-3.9,0-5.9
			C310.4,105.5,310.5,105.5,310.5,105.4z"/>
		<path class="st0" d="M265.5,116.3c0.4-0.7,0.8-1,1.5-1c1,0,1.9-0.2,2.9-0.3c0.2,0,0.5-0.1,0.7,0.1c0.2,0.2,0.5,0.3,0.4,0.5
			c-0.1,0.3-0.4,0.3-0.6,0.3C268.7,116.1,267.1,116.2,265.5,116.3z"/>
		<path class="st0" d="M312.4,115.5c-1.6,0-3.1,0-4.7,0c-0.2,0-0.6,0.1-0.6-0.3c0-0.3,0.3-0.6,0.6-0.6c1.4,0,2.7,0,4,0.1
			C312,114.7,312.2,115,312.4,115.5z"/>
		<path class="st0" d="M328.8,105.4c-0.1-2.2-0.1-2.2,1.6-2.1c0.5,0,1.1,0.1,1.6,0.2c0.5,0,0.5,0.3,0.5,0.7c0,0.4-0.3,0.3-0.6,0.3
			C330.8,104.3,329.6,104,328.8,105.4z"/>
		<path class="st0" d="M226.5,110.2c-0.1-0.3-0.1-0.4-0.1-0.4c-0.1-1.8-0.1-1.8,1.7-2.1c0.6-0.1,1.1-0.2,1.7-0.2
			c0.2,0,0.5-0.2,0.5,0.2c0,0.3,0,0.5-0.4,0.6c-0.1,0-0.2,0.1-0.3,0.1C228.3,108.3,227.2,108.8,226.5,110.2z"/>
		<path class="st0" d="M243.1,105c0,0.6,0,1.1,0,1.7c0,0.4-0.2,0.5-0.5,0.3c-0.3-0.2-0.5-0.4-0.5-0.8c0-0.9,0-1.8,0-2.6
			c0-0.5,0.2-0.7,0.6-0.7c0.5,0,0.4,0.4,0.4,0.6C243.1,104,243.1,104.5,243.1,105z"/>
		<path class="st0" d="M345.4,106.9c-0.6-0.4-0.9-0.9-0.9-1.5c0-0.8,0-1.6,0-2.4c0-0.3,0-0.6,0.4-0.5c0.3,0,0.5,0.2,0.5,0.5
			C345.4,104.4,345.4,105.5,345.4,106.9z"/>
		<path class="st0" d="M282.3,109.6c0.7,0.6,1.2,1.9,1,2.5c-0.1,0.3-0.2,0.3-0.4,0.1c-0.4-0.3-0.6-0.6-0.6-1.1
			C282.3,110.7,282.3,110.2,282.3,109.6z"/>
		<path class="st0" d="M272.6,106c-1.3,0.1-2.7,0.1-3.9,0.2c-0.5,0-0.8-0.1-0.7-0.7c0-1.2,0-2.4,0-3.5c0-0.5,0.2-0.7,0.7-0.7
			c2.9-0.1,5.7-0.3,8.6-0.5c0.7,0,1,0.3,1,1c0,0.9,0,1.8,0,2.7c0,1-0.3,1.3-1.3,1.3C275.4,105.9,273.9,105.9,272.6,106L272.6,106z
			 M268.9,103.8c0,0.3,0,0.7,0,1c0,0.3,0.1,0.4,0.4,0.4s0.5-0.1,0.5-0.4c0-0.3,0-0.6,0-0.9c0-0.5,0.2-0.7,0.7-0.7
			c1.9-0.1,3.8-0.2,5.7-0.3c0.3,0,0.8,0.1,0.8-0.5s-0.5-0.4-0.8-0.4c-2,0.1-3.9,0.2-5.9,0.3C268.9,102.4,268.9,102.4,268.9,103.8z"
			/>
		<path class="st0" d="M293.7,110.2c-1.3,0-2.7,0-3.9,0c-0.8,0-1.1-0.3-1.1-1.1c0-2.5,0-4.9,0-7.5c0-0.7,0.3-1.1,1.1-1.1
			c2.7,0,5.4,0,8.1,0c0.7,0,1.1,0.4,1,1.1c0,2.5,0,4.9,0,7.5c0,0.8-0.4,1.1-1.1,1.1C296.4,110.2,295,110.2,293.7,110.2z
			 M293.9,101.5c-1,0-2.1,0-3.1,0c-0.8,0-1.2,0.3-1.2,1.2c0,2,0,3.8,0,5.8c0,0.3-0.1,0.7,0.4,0.7c0.6,0,0.5-0.4,0.5-0.8
			c0-1.6,0-3.1,0-4.7c0-1,0.3-1.3,1.3-1.3c1.8,0,3.4,0,5.2,0c0.3,0,0.7,0.1,0.7-0.4c0-0.6-0.4-0.5-0.7-0.5
			C296,101.5,295,101.5,293.9,101.5z"/>
		<path class="st0" d="M257.4,107.1c0,1.2,0,2.5,0,3.6c0,0.7-0.3,1.2-1.1,1.2c-2.7,0.3-5.4,0.6-8.1,0.9c-0.7,0.1-1-0.3-1-0.9
			c0-2.6,0-5,0-7.6c0-0.7,0.3-1.1,1.1-1.2c2.7-0.3,5.4-0.6,8.1-0.9c0.7-0.1,1,0.2,1,0.9C257.4,104.7,257.4,105.8,257.4,107.1z
			 M248.2,108.3c0,1,0,2,0,2.9c0,0.3-0.1,0.7,0.4,0.7s0.4-0.4,0.4-0.7c0-1.6,0-3.2,0-4.8c0-1,0.3-1.3,1.2-1.4
			c1.8-0.2,3.5-0.4,5.3-0.5c0.3,0,0.7,0,0.7-0.5c0-0.5-0.4-0.4-0.7-0.4c-2.2,0.2-4.3,0.5-6.4,0.7c-0.6,0.1-0.9,0.5-0.9,1.1
			C248.2,106.3,248.2,107.3,248.2,108.3z"/>
		<path class="st0" d="M359.7,111.1c0,1.2,0,2.5,0,3.6c0,0.9-0.2,1.1-1.1,1c-2.7-0.4-5.3-0.9-8-1.4c-0.7-0.1-1-0.6-1-1.3
			c0-2.5,0-4.9,0-7.5c0-0.8,0.4-1.1,1.2-0.9c2.7,0.5,5.3,0.9,8,1.4c0.7,0.1,1,0.5,1,1.2C359.7,108.5,359.7,109.8,359.7,111.1z
			 M350.5,109.7c0,1,0,2,0,2.9c0,0.4,0.1,0.7,0.5,0.8c0.6,0,0.5-0.4,0.5-0.8c0-1.6,0-3.1,0-4.7c0-0.9,0.2-1.1,1.1-0.9
			c1.8,0.3,3.5,0.6,5.2,0.9c0.3,0,0.6,0.3,0.7-0.2c0.1-0.5-0.2-0.6-0.6-0.7c-2.2-0.4-4.2-0.7-6.4-1.1c-0.7-0.1-1.1,0.2-1.1,1
			C350.5,107.8,350.5,108.8,350.5,109.7z"/>
		<path class="st0" d="M268.9,103.8c0-1.4,0-1.4,1.4-1.4c2-0.1,3.9-0.2,5.9-0.3c0.3,0,0.8-0.2,0.8,0.4c0,0.5-0.5,0.4-0.8,0.5
			c-1.9,0.1-3.8,0.3-5.7,0.3c-0.5,0-0.7,0.2-0.7,0.7c0,0.3,0,0.6,0,0.9c0,0.3-0.2,0.4-0.5,0.4s-0.4-0.1-0.4-0.4
			C268.9,104.5,268.9,104.1,268.9,103.8z"/>
		<path class="st0" d="M293.9,101.5c1,0,2.1,0,3.1,0c0.3,0,0.8-0.1,0.7,0.5c0,0.5-0.4,0.4-0.7,0.4c-1.8,0-3.4,0-5.2,0
			c-1.1,0-1.3,0.3-1.3,1.3c0,1.6,0,3.1,0,4.7c0,0.3,0.1,0.8-0.5,0.8c-0.5,0-0.4-0.4-0.4-0.7c0-2,0-3.8,0-5.8c0-0.8,0.4-1.2,1.2-1.2
			C291.8,101.5,292.9,101.5,293.9,101.5z"/>
		<path class="st0" d="M248.2,108.3c0-1,0-2,0-2.9c0-0.6,0.3-1,0.9-1.1c2.2-0.3,4.3-0.5,6.4-0.7c0.3,0,0.7-0.2,0.7,0.4
			c0,0.5-0.4,0.5-0.7,0.5c-1.8,0.2-3.5,0.4-5.3,0.5c-0.9,0.1-1.2,0.4-1.2,1.4c0,1.6,0,3.2,0,4.8c0,0.3,0,0.7-0.4,0.7
			c-0.5,0-0.4-0.4-0.4-0.7C248.2,110.2,248.2,109.2,248.2,108.3z"/>
		<path class="st0" d="M350.5,109.7c0-1,0-2,0-2.9c0-0.8,0.4-1.1,1.1-1c2.2,0.4,4.2,0.7,6.4,1.1c0.4,0.1,0.7,0.2,0.6,0.7
			c-0.1,0.5-0.5,0.2-0.7,0.2c-1.8-0.3-3.5-0.6-5.2-0.9c-0.9-0.2-1.1,0-1.1,0.9c0,1.6,0,3.1,0,4.7c0,0.3,0.1,0.8-0.5,0.8
			c-0.5,0-0.5-0.4-0.5-0.8C350.5,111.7,350.5,110.7,350.5,109.7z"/>
	</g>
	<g>
		<path class="st0" d="M9.3,97.7c0.3-0.9,0.2-1.8,0.3-2.7c0.8-10,3.1-19.7,7.1-28.9c3.4-8.1,8-15.6,13.6-22.2
			c6.9-8.4,15.1-15.3,24.4-20.8c7.4-4.3,15.4-7.6,23.6-9.7c5.1-1.3,10.3-2.2,15.6-2.6c4.3-0.3,8.7-0.4,13-0.1
			c11.1,0.8,21.9,3.3,32,8.1c11,5,20.7,12,28.9,20.8c11.2,12,18.6,26,22.4,41.8c1,4.1,1.7,8.3,2,12.5c0.1,1.9,0,3.7,0,5.6
			c0,3.1,0,6,0,9.1c0,3.7-0.7,7.3-1.4,10.9c-1.6,8.3-4.2,16.1-8.1,23.7c-3.9,7.9-9,15.1-15.1,21.6c-7.8,8.3-16.8,15-27,19.9
			c-8.1,3.9-16.5,6.6-25.4,8c-6.1,1-12.3,1.4-18.4,1.1c-18.4-0.9-35.1-6.6-50.1-17.5c-14.3-10.4-24.6-23.8-31.2-40.2
			c-2.6-6.6-4.4-13.7-5.4-21c-0.3-2.6-0.6-5-0.8-7.6c0-0.2,0-0.4-0.1-0.5C9.3,103.9,9.3,100.7,9.3,97.7z M14,100.7
			c-0.7,49.1,38.8,88.3,86.8,88.4c47.7,0.2,86.9-38.7,87.1-86.4c0.2-48-38.3-87.2-86.5-87.5C53.6,15,14.8,53.4,14,100.7z"/>
		<path class="st0" d="M18.3,100.4c0.8-45.3,37.7-81.9,83.5-81.6c46,0.3,82.8,37.6,82.5,83.5c-0.2,45.6-37.6,82.6-83.2,82.5
			C55.3,184.7,17.6,147.3,18.3,100.4z M96.3,125c0.2-0.7,0.4-1.4,0.5-2.1c0.1-0.4,0.3-0.6,0.7-0.6c0.8-0.1,1.3-0.5,1.7-1.3
			c0.6-1.2,1.6-2.2,2.1-3.4c0.1-0.2,0.3-0.3,0.4-0.4c0.6-0.3,1.2-0.6,1.8-0.9c1.9-0.9,3.6-1.9,5.6-2.7c0.6-0.2,0.9-0.5,1-1.1
			c0.3-1,0.9-1.5,2-1.5c0.8,0,1.5-0.2,2.1-0.8c0.3-0.3,0.7-0.3,1.1-0.3c0.6,0.1,1.3,0.3,2,0c0.8-0.3,1.5-0.6,2.2-0.9
			c0.3-0.1,0.4-0.3,0.5-0.6c0.2-0.8,0.6-1.5,1.6-1.6c0.6-0.1,1.1-0.3,1.7-0.4c0.4-0.1,0.8-0.3,1-0.6c0.6-0.8,1.3-1,2.2-0.7
			c0.7,0.3,1.4,0.2,2.1-0.2c2.2-1.1,4.4-1.9,6.9-2.2c1.5-0.2,1.4-0.2,1.3-1.7c-0.3-3.2-0.5-6.5-1.2-9.7c-0.3-1.5-0.3-1.5-1.8-1.4
			c-0.1,0-0.1,0-0.2,0c-2.2,0.2-4.4,0.3-6.5,1.3c-0.6,0.3-1.2,0.6-1.8,0.6c-2-0.2-3.8,0.1-5.8-0.3c-0.1,0-0.2,0-0.3,0
			c-0.8,0.6-1.7,1-2.3,1.7c-0.8,0.8-1.7,1.2-2.8,1.2c-0.8,0-1.6,0-2.2,0.6c-1.2,1-2.4,1.9-3.7,2.6c-1.3,0.6-2.6,1.2-4,0.8
			c-0.3-0.1-0.6,0-0.9-0.1c-0.4-0.1-0.6,0.1-0.9,0.4c-2,2.5-4.1,4.7-6.2,7.1c-0.1,0.2-0.3,0.3-0.5,0.3c-0.8,0-1.6,0.2-2.3,0.4
			c-0.6,0.1-1.1,0.1-1.6,0.4c-1.5,0.8-3,1.7-4.4,2.5c-0.2,0.1-0.3,0.2-0.5,0.2c-1.1-0.2-2.2,0-3.1-0.2c-1-0.1-1.7,0.1-2.2,0.9
			c-0.1,0.1-0.2,0.2-0.2,0.3c-0.6,1-1.6,1.3-2.7,1.3c-0.5,0-1.1,0.1-1.5,0.4c-1.1,0.7-2.1,1.6-3.1,2.3c-1.2,0.8-2.2,1.7-3.2,2.6
			c-0.2,0.2-0.4,0.3-0.5,0.6c-0.6,1.4-1.2,2.8-1.7,4.1c-0.3,0.7-0.4,1.7-1,2.1c-0.6,0.4-1.6,0.3-2.4,0.3c-1.1,0-1.9,0.3-2.6,1.1
			c-0.4,0.4-0.4,0.7-0.1,1.1c0.8,1.1,1.7,2.1,2.4,3.2c1,1.8,2.5,3.1,3.7,4.5c0.1,0.1,0.3,0.1,0.4,0.2c2.1,0.6,4,1.3,5.9,2.3
			c0.2,0.1,0.3,0,0.5-0.1c0.8-0.7,1.7-0.7,2.7-0.3c0.5,0.2,1,0.2,1.4,0.4c0.5,0.2,0.8,0.1,1.3-0.1c0.8-0.4,1.5-1,2.4-1.1
			c1.6-0.2,3.1-0.3,4.8-0.4c0.5,0,0.7-0.2,0.9-0.6c1.1-1.7,2.1-3.5,3.6-4.9c1.4-1.2,2.7-2.5,3.9-3.7C96.3,125.6,96.5,125.4,96.3,125
			z M55.6,107.8c0.1,0,0.1,0.1,0.2,0.1c0.2-0.3,0.4-0.5,0.6-0.8c2.2-2.3,4.3-4.4,6.5-6.7c1-1,2.2-1.5,3.5-1.5c1.3,0,2.1-0.4,2.7-1.4
			c0.2-0.3,0.4-0.4,0.8-0.5c1.5-0.1,2.9-0.4,4.3-0.4c0.2,0,0.4,0,0.6-0.1c1-1,2.3-1.5,3.3-2.3c0.2-0.2,0.5-0.2,0.8-0.2
			c2,0,3.8,0,5.8,0.2c0.9,0.1,1.7-0.1,2.4-0.8c1-1.1,2.1-2,3.1-3.1c0.8-0.8,1.6-1.2,2.7-1.2c0.9,0,1.7-0.4,2.5,0.2
			c0.5,0.4,1.1,0.3,1.7,0.2c0.4-0.1,0.8-0.1,1.2-0.2c0.7-0.2,1.3-0.1,1.8,0.5c0.4,0.5,0.9,0.6,1.5,0.5c1.7,0,3.4-0.5,5.1-0.1
			c0.1,0,0.2,0,0.3,0c0.7-0.4,1.4-0.6,2.1-1c1.7-0.9,3.3-1.6,5.1-2.2c0.2-0.1,0.4-0.2,0.6-0.1c0.6,0.4,1.4,0.4,2,0.9
			c0.3,0.2,0.5,0.2,0.8,0c0.5-0.3,1-0.7,1.5-0.5c1.6,0.5,3.1,0.4,4.6,1c0.7,0.3,1.5,0.4,2.1,0.3c2.8-0.3,5.5-0.5,8.3-0.8
			c0.3,0,0.5-0.1,0.4-0.5c-1-3.1-2-6.2-3.4-9.2c-0.4-0.8-0.9-1-1.8-0.9c-3.1,0.4-6.3-0.1-9.4-1.1c-1.1-0.4-2.2-0.8-3.3-0.8
			c-0.7,0-1.4,0.1-2-0.2c-0.7-0.4-1.4-0.9-2.1-1.5c-0.5-0.4-0.9-0.7-1.5-0.6c-0.2,0-0.3-0.1-0.5-0.1c-1.7-0.1-3.3-0.7-5-0.7
			c-3.1,0-6.2,0.2-9.4,0.6c-0.4,0-0.8,0-1.1,0.2c-1.2,0.7-2.4,1.3-3.4,2.1c-0.5,0.4-1,0.4-1.5,0.4c-1.7-0.2-3.3-0.1-5-0.1
			c-0.5,0-1,0-1.5-0.1c-0.4-0.1-0.6,0-0.9,0.2c-1.5,1.2-3,2.3-4.3,3.5c-0.4,0.4-0.8,0.4-1.3,0.1c-0.8-0.5-1.7-0.6-2.6-0.3
			c-1.4,0.5-2.8,0.4-4.2,0.1c-0.3-0.1-0.6-0.2-0.8,0c-0.5,0.6-1.4,0.8-2,1.4c-3,2.5-6.2,4.5-9.3,6.9c-0.2,0.2-0.5,0.3-0.6,0.6
			c-0.7,2-1,3.9-1.4,5.9C55.4,98.5,55.1,103.1,55.6,107.8z M100.8,148.9c1.6,0.1,3.2,0,5-0.3c4.1-0.7,8.1-1.9,11.5-4.4
			c3.9-2.9,7.2-6.4,9.8-10.3c3.3-4.9,5.7-10.1,7.2-15.9c0.9-3.6,1.6-7.3,1.9-10.9c0-0.4,0-0.8,0.1-1.2c0.2-0.7,0.1-0.9-0.7-0.9
			c-1.8,0.2-3.4,0.6-4.9,1.3c-1.8,0.9-3.7,1.4-5,3.1c-0.1,0.1-0.2,0.1-0.2,0.1c-0.7,0-1.4,0.4-2,0.5c-0.6,0.1-0.9,0.5-1.2,1
			c-0.8,1.6-1.8,3-3.4,3.7c-1,0.5-1.9,1.1-2.8,1.7c-0.3,0.2-0.7,0.4-0.8,0.7c-0.1,1.3-0.9,2.3-1.2,3.4c-0.4,1.6-0.8,3.1-1.3,4.5
			c-0.1,0.4-0.3,0.8-0.1,1.3c0.1,0.2,0,0.4-0.2,0.5c-0.8,0.3-1.5,0.8-2.4,1c-0.4,0.1-0.5,0.3-0.5,0.6c-0.2,1.2-0.6,2.3-1,3.3
			c-0.1,0.2-0.1,0.4-0.2,0.6c-0.1,1.4-0.4,2.7-1.3,3.7c-0.8,1.1-1.6,2.2-2.3,3.3c-1,1.6-1.9,3.3-3.6,4.1c-0.8,0.4-0.9,1-0.8,1.7
			c0.1,0.4-0.1,0.5-0.3,0.6c-1.3,0.7-2.5,1.4-3.7,2.1c-0.2,0.1-0.5,0.3-0.5,0.5c0.1,0.3,0.4,0.2,0.6,0.2
			C97.9,148.8,99.3,149,100.8,148.9z M71.1,66.8c2.1-0.5,3.8-1.3,5.7-2c2-0.8,4-1.4,6-2.2c0.2-0.1,0.3-0.1,0.5-0.1
			c2.6,0,5.1,0.5,7.7,0.5c1.1,0,2.1,0.2,2.9,1c0.3,0.3,0.8,0.6,1.1,1c0.3,0.4,0.6,0.5,1.1,0.5c1.7,0,3.3,0.1,5,0.2
			c0.3,0,0.7,0,1,0.2c1.6,1.1,3.3,1.8,5,2.7c0.5,0.3,0.9,0.3,1.4,0c0.8-0.5,1.6-0.4,2.4,0c0.7,0.4,1.7,0.2,2.1,1.2
			c0.1,0.2,0.3,0.3,0.5,0.2c0.6-0.1,0.9,0.2,1.3,0.6c0.8,0.9,1.6,1.9,3,2c0.7,0,1.1,0.4,1.4,1c0.1,0.3,0.3,0.5,0.6,0.6
			c0.8,0.3,1.5,0.6,2.3,0.8c2.3,0.6,4.5,0.9,6.8,0.6c0.6-0.1,0.7-0.2,0.4-0.8c-1.3-2.3-2.8-4.3-4.4-6.3c-3.1-3.7-6.7-7.1-11-9.4
			c-2.8-1.5-5.6-2.7-8.7-3.3c-0.8-0.2-1.6-0.2-2.4-0.4c-1.5-0.2-3-0.4-4.5-0.2c-0.7,0.1-1.4,0.2-2.1,0.2c-3.1,0-6,0.8-8.9,2.1
			c-2.9,1.3-5.8,2.5-8.6,4.1c-2.2,1.3-4.2,2.7-6.2,4.1C72,66,71.6,66.3,71.1,66.8z M118.3,145.8c0.5,0.2,0.9,0,1.3-0.1
			c1.8-0.7,3.5-1.5,5.1-2.4c4.5-2.6,8.8-5.5,12.2-9.5c2.4-2.8,4.7-5.6,6.5-8.9c2.2-4,3.7-8.2,4.8-12.6c0-0.2,0.2-0.4,0-0.6
			c-0.4-0.7-0.7-1.4-1.2-2c-2.1-2.5-4.7-4-7.9-4.8c-0.5-0.1-0.7,0-0.8,0.6c-0.1,1.2-0.2,2.4-0.3,3.6c-0.2,3.1-0.8,6-1.6,9
			c-0.9,3.2-1.9,6.5-3.3,9.5c-1.7,3.4-3.5,6.6-5.8,9.6c-1.9,2.6-4.2,4.7-6.7,6.7C120.1,144.6,119.3,145.3,118.3,145.8z M130.9,43.9
			c-0.2-0.3-0.1-0.6-0.1-0.8c0-3.6-0.1-7.2-0.1-10.8c0-0.5-0.1-0.7-0.6-0.9c-1.3-0.5-2.5-1-3.6-1.6c-0.4-0.2-0.5-0.1-0.7,0.3
			c-2.7,6.4-5.4,12.8-8.1,19.2c-0.2,0.4-0.1,0.5,0.3,0.7c1,0.4,1.9,0.7,2.9,1.2c0.5,0.2,0.6,0,0.8-0.3c1.5-3.4,2.9-6.9,4.3-10.2
			c0.1-0.2,0.1-0.5,0.4-0.6c0.1,1.1,0.1,2.1,0.2,3.1c0.2,3.4,0.4,6.9,0.6,10.3c0,0.4,0.2,0.6,0.5,0.8c0.9,0.3,1.8,0.7,2.7,1.1
			c0.4,0.2,0.5,0.1,0.7-0.3c2.7-6.4,5.3-12.8,8.1-19.2c0.2-0.4,0.1-0.5-0.3-0.6c-1-0.4-2-0.8-3.1-1.3c-0.4-0.2-0.5-0.1-0.7,0.3
			c-0.6,1.4-1.2,2.8-1.8,4.1C132.5,40.1,131.7,42,130.9,43.9z M172,72.3c0.1-0.4,0-0.6-0.1-0.8c-0.6-1.3-1.2-2.6-1.9-3.8
			c-0.5-1-0.7-2.2-1.5-2.9s-2.1-0.8-3.1-1.2c-0.5-0.2-0.9-0.1-1.3,0.1c-3.5,1.7-7.1,3.3-10.6,5.1c-1.1,0.5-2.4,0.8-3.1,1.6
			c-0.7,0.8-0.9,2.2-1.3,3.2c-0.2,0.4-0.1,0.7,0.1,1.1c0.6,1.2,1.2,2.5,1.8,3.6c0.5,1,0.8,2.3,1.6,3c0.8,0.7,2.1,0.8,3.1,1.3
			c0.5,0.2,0.8,0.1,1.3-0.1c4.4-2.2,9-4.2,13.4-6.4c0.2-0.1,0.4-0.1,0.5-0.4C171.3,74.5,171.7,73.3,172,72.3z M59,67
			c0.3,0,0.6,0,1,0c0.8,0.1,1.3-0.2,1.9-0.8c1.5-1.6,3-3.1,4.5-4.6c0.3-0.3,0.4-0.7,0.4-1.1c-0.1-1-0.1-2-0.1-3
			c0-0.4-0.1-0.6-0.4-0.9c-3.5-3.5-7.1-7-10.6-10.5c-0.3-0.3-0.5-0.4-0.9-0.4c-1.1,0.1-2.1,0.1-3.1,0.1c-0.4,0-0.6,0.1-0.9,0.4
			c-1.2,1.3-2.4,2.7-3.7,3.8c-1.2,1.1-1.9,2.3-1.5,3.9c0.1,0.4,0.1,0.9,0,1.4c0,0.4,0.1,0.6,0.4,0.8c3.2,3.1,6.5,6.2,9.6,9.4
			C56.4,66.7,57.4,67.4,59,67z M134.4,167.7c-0.1-0.1-0.1-0.3-0.1-0.4c-1.8-4.7-3.5-9.4-5.3-14.3c-0.1-0.3-0.3-0.5-0.6-0.6
			c-0.9-0.4-1.9-0.8-2.8-1.3c-0.4-0.2-0.7-0.2-1,0c-1.3,0.5-2.5,1-3.7,1.5c-1.1,0.4-2.5,0.6-3.2,1.4s-1.1,2.1-1.5,3.1c0,0,0,0,0,0.1
			c-0.2,0.3-0.1,0.5,0,0.8c1.8,4.7,3.6,9.4,5.4,14.2c0.1,0.3,0.3,0.5,0.6,0.6c1,0.4,1.9,0.8,2.9,1.3c0.4,0.2,0.7,0.2,1,0
			c1.4-0.5,2.8-1.1,4.1-1.6c1-0.4,2.2-0.6,2.9-1.2c0.7-0.7,0.9-1.8,1.3-2.8C134.1,168.2,134.3,168,134.4,167.7z M109.4,37
			c0-2.5,0-5,0-7.5c0-0.4-0.1-0.7-0.4-1c-0.7-0.7-1.4-1.4-2.1-2.1c-0.3-0.3-0.6-0.4-1-0.4c-1.4,0-2.8,0-4,0c-1.2,0-2.4-0.3-3.3,0.1
			c-1,0.4-1.7,1.6-2.5,2.3c-0.3,0.3-0.5,0.6-0.5,1.1c0,4,0,8,0,12c0,1.2-0.3,2.5,0.1,3.4c0.4,1,1.6,1.7,2.4,2.6
			c0.3,0.3,0.6,0.4,1,0.4c2.4,0,4.6,0,7,0c0.4,0,0.6-0.1,0.9-0.3c0.7-0.7,1.5-1.5,2.2-2.2c0.3-0.2,0.3-0.5,0.3-0.8
			C109.4,42.1,109.4,39.5,109.4,37z M88.2,49.2c-2-1.9-3.8-3.7-5.7-5.5c-0.3-0.3-0.4-0.5-0.3-0.9c0.3-0.8,0.5-1.6,0.7-2.4
			c0.1-0.4,0.1-0.7-0.1-1.1c-0.9-2.2-1.9-4.3-2.8-6.5c-0.1-0.3-0.3-0.6-0.7-0.7c-1.1-0.4-2.1-0.8-3.1-1.3c-0.3-0.1-0.6-0.1-0.9,0
			c-2.9,1.3-5.7,2.5-8.5,3.7c-0.3,0.1-0.5,0.3-0.3,0.6c2.8,6.4,5.6,12.8,8.4,19.1c0.2,0.4,0.4,0.4,0.7,0.2c1-0.4,1.9-0.9,2.9-1.2
			c0.5-0.2,0.5-0.4,0.3-0.8c-0.7-1.6-1.4-3.1-2.1-4.6c-0.6-1.4-0.6-1.4,0.8-2.1c0.5-0.2,0.8-0.2,1.1,0.2c1.6,1.6,3.1,3.1,4.8,4.6
			c0.2,0.2,0.3,0.4,0.7,0.2C85.5,50.3,86.8,49.8,88.2,49.2z M38.4,143.6c0.2-0.2,0.3-0.4,0.5-0.5c1.6-1.8,3.1-3.6,4.6-5.4
			c0.3-0.3,0.6-0.5,1-0.4c0.8,0.2,1.6,0.3,2.4,0.5c0.4,0.1,0.7,0,1-0.1c2.1-1.1,4.2-2.3,6.4-3.3c0.3-0.2,0.5-0.4,0.6-0.7
			c0.3-1,0.6-2,1-3c0.1-0.4,0.1-0.7-0.1-1.1c-1.3-2.3-2.5-4.6-3.6-6.9c-0.3-0.5-0.5-1.3-0.9-1.5c-0.5-0.2-1.1,0.4-1.6,0.7
			c-5.7,3-11.4,6-17.1,9c-0.5,0.2-0.5,0.4-0.3,0.9c0.5,0.9,1,1.9,1.4,2.8c0.2,0.4,0.3,0.4,0.7,0.2c1.6-0.8,3.1-1.6,4.6-2.4
			c1.4-0.7,1.4-0.7,2.2,0.7c0.2,0.5,0.2,0.7-0.1,1.2c-1.5,1.7-2.9,3.3-4.2,5c-0.2,0.2-0.4,0.3-0.2,0.7
			C37.1,141.1,37.7,142.4,38.4,143.6z M164.3,141c1-0.3,2.1-0.7,3.1-1c0.4-0.1,0.6-0.3,0.7-0.6c0.6-1.3,1.3-2.5,2-3.7
			c0.5-1,1.4-2,1.5-3.1c0-1.1-0.6-2.3-0.9-3.3c-0.1-0.4-0.3-0.6-0.6-0.7c-1.9-1-3.7-2-5.7-3c-0.3-0.2-0.6-0.2-1-0.1
			c-1,0.3-2.1,0.7-3.1,0.9c-0.3,0.1-0.5,0.3-0.7,0.6c-0.7,1.4-1.5,2.7-2.2,4c-0.1,0.3-0.3,0.4-0.6,0.6c-0.8,0.4-1.4-0.1-2-0.5
			c-1-0.5-1.2-1.2-0.7-2.2c0.3-0.5,0.5-1.1,0.8-1.6c0.6-1.2,0.6-1.2,1.7-0.6c0.3,0.1,0.5,0.3,0.7-0.1c0.6-1.1,1.2-2.3,1.8-3.3
			c0.1-0.3,0.2-0.4-0.1-0.6c-0.9-0.4-1.7-0.9-2.5-1.3c-0.2-0.1-0.5-0.1-0.7,0c-1.1,0.3-2.1,0.6-3.1,0.9c-0.3,0.1-0.5,0.3-0.7,0.6
			c-1.1,2.2-2.2,4.2-3.2,6.4c-0.1,0.3-0.2,0.5-0.1,0.8c0.4,1.1,0.7,2.1,1,3.1c0.1,0.3,0.3,0.5,0.5,0.6c2,1,3.8,2,5.8,3
			c0.3,0.2,0.6,0.2,0.9,0.1c1.1-0.3,2.1-0.7,3.1-0.9c0.4-0.1,0.6-0.3,0.7-0.6c0.6-1.2,1.3-2.4,1.8-3.5c0.3-0.6,0.6-0.8,1.2-1
			c0.6-0.2,1,0.2,1.5,0.4c1.1,0.5,1.3,1.3,0.8,2.3c-0.3,0.5-0.5,1-0.8,1.4c-0.7,1.2-0.7,1.3-1.9,0.6c-0.3-0.2-0.5-0.1-0.7,0.2
			c-0.6,1.1-1.2,2.2-1.8,3.2c-0.2,0.4-0.1,0.5,0.2,0.6c0.8,0.4,1.7,0.9,2.5,1.3C163.8,140.9,164,141.1,164.3,141z M157.9,154.2
			c-0.1-0.2-0.3-0.3-0.4-0.3c-2.2-1.2-4.3-2.3-6.5-3.4c-0.4-0.2-0.6-0.4-0.6-0.9c0-0.8-0.1-1.6-0.1-2.4c0-0.4-0.1-0.7-0.4-1.1
			c-1.2-1.4-2.4-2.7-3.4-4.1c-0.9-1.2-1.9-2-3.3-1.8c-0.6,0.1-1.2-0.1-1.8-0.1c-0.4,0-0.6,0.1-0.9,0.3c-2.3,2-4.6,3.9-7,5.8
			c-0.3,0.3-0.4,0.4-0.1,0.8c1.7,2,3.3,3.8,4.9,5.8c2.9,3.3,5.6,6.6,8.5,9.9c0.4,0.4,0.6,0.4,0.9,0.1c0.7-0.7,1.5-1.4,2.3-2
			c0.3-0.3,0.4-0.5,0.1-0.8c-1.1-1.3-2.2-2.6-3.2-3.8c-1.1-1.3-1-1.2,0.1-2.3c0.4-0.3,0.6-0.4,1.1-0.1c2,1.1,3.9,2.1,5.9,3.1
			c0.3,0.1,0.5,0.2,0.8,0C155.8,155.9,156.9,155.1,157.9,154.2z M67.9,143.8c0-0.2-0.1-0.3-0.2-0.4c-1-0.9-1.9-1.8-2.9-2.7
			c-0.3-0.2-0.4-0.2-0.7,0c-6.3,3.7-12.6,7.6-18.9,11.3c-0.4,0.2-0.4,0.3-0.1,0.6c0.9,0.9,1.9,1.7,2.8,2.6c0.3,0.3,0.4,0.2,0.7,0
			c0.8-0.5,1.6-1,2.4-1.5c0.3-0.2,0.5-0.2,0.7,0c1.3,1.3,2.7,2.5,4,3.7c0.3,0.3,0.3,0.5,0.1,0.9c-0.4,0.7-0.7,1.5-1.1,2.2
			c-0.2,0.4-0.1,0.6,0.2,0.9c0.9,0.7,1.7,1.5,2.5,2.3c0.4,0.4,0.6,0.4,0.8-0.1c3.1-6.5,6.4-13.1,9.5-19.6
			C67.8,144.1,67.9,144,67.9,143.8z M76.1,164.4c0.1,0.1,0.3,0.1,0.4,0.2c1,0.4,2,0.8,3,1.2c0.9,0.3,1.7,1,2.6,1s1.7-0.8,2.5-1.2
			c0.4-0.2,0.7-0.5,0.8-0.9c0.5-1.2,1-2.4,1.4-3.4c0.5-1.1,1.3-2.3,1.3-3.3c0-1.1-0.8-2.3-1.2-3.3c0,0,0,0,0-0.1
			c-0.1-0.3-0.3-0.5-0.6-0.6c-2.8-1.2-5.5-2.3-8.3-3.4c-0.4-0.2-0.5-0.1-0.7,0.3c-2.7,6.4-5.3,12.9-8,19.3c-0.2,0.4-0.1,0.5,0.3,0.6
			c0.9,0.4,1.9,0.7,2.8,1.1c0.5,0.2,0.7,0.1,0.9-0.4c0.9-2.2,1.8-4.2,2.7-6.4C75.8,164.6,75.7,164.3,76.1,164.4z M148.9,109.1
			c0.4-2.3,0.5-4.4,0.6-6.6c0.1-3.3-0.3-6.6-0.9-9.8c-0.1-0.9-0.7-1.3-1.5-1.6c-2.9-1.1-5.9-1.3-9-1.3c-1.1,0-1.3,0.1-1,1.2
			c0.8,3.6,1.2,7.3,1.2,11c0,0.6,0.3,0.8,0.8,0.9c3.2,0.7,6.1,2.1,8.3,4.6C148,108,148.3,108.6,148.9,109.1z M147.8,89
			c-0.1-0.4-0.3-0.8-0.4-1.1c-0.7-2.8-2.1-5.3-3.2-7.9c-0.9-2-2.2-3.7-3.4-5.4c-0.7-0.9-1.3-1.8-2-2.7c-0.3-0.4-0.5-0.4-0.8,0.1
			c-1.1,1.9-2.7,3.2-4.5,4.2c-1,0.6-1,0.6-0.6,1.7c0.1,0.2,0.2,0.4,0.3,0.6c1.4,2.7,2.4,5.4,3.1,8.4c0.2,0.7,0.4,1,1.2,0.9
			c3.3-0.2,6.6,0.1,9.7,1.4c0.1,0,0.2,0.1,0.3,0.1C147.7,89.2,147.8,89.1,147.8,89z M102.8,155.8L102.8,155.8
			c-1.9,0.1-3.8,0.1-5.7,0.1c-0.5,0-0.6,0.1-0.6,0.6c0.1,1.3,0.1,2.5,0,3.7c0,0.4,0.1,0.6,0.5,0.5c0.9-0.1,1.8,0,2.7-0.1
			c0.6,0,0.7,0.1,0.7,0.7c0,5.2,0.1,10.5,0.1,15.7c0,0.5,0.1,0.7,0.7,0.7c1.1-0.1,2.2-0.1,3.2-0.1c0.6,0,0.7-0.1,0.7-0.7
			c-0.1-5.2-0.1-10.4-0.2-15.6c0-0.5,0.1-0.8,0.7-0.7c0.9,0,1.8,0,2.7,0c0.5,0,0.6-0.2,0.6-0.7c0-1.2-0.1-2.3,0-3.4
			c0-0.5-0.1-0.7-0.7-0.7C106.5,155.8,104.6,155.8,102.8,155.8z M34.7,78.7c0.2,0,0.2-0.2,0.3-0.4c0.4-0.8,0.8-1.7,1.1-2.6
			c0.2-0.6,0.5-0.7,1.1-0.4c4.8,2.2,9.5,4.2,14.4,6.4c0.5,0.2,0.7,0.1,0.8-0.3c0.4-1,0.8-2,1.3-2.9c0.3-0.6,0.2-0.8-0.4-1.1
			c-4.8-2.1-9.5-4.2-14.4-6.4c-0.5-0.2-0.5-0.4-0.3-0.8c0.4-0.8,0.8-1.7,1.2-2.6c0.2-0.4,0.2-0.6-0.3-0.8c-1.1-0.5-2.3-1-3.3-1.5
			c-0.4-0.2-0.5-0.1-0.7,0.3c-1.6,3.5-3.1,7-4.8,10.4c-0.2,0.4-0.1,0.5,0.3,0.7c1.2,0.5,2.3,1.1,3.4,1.6
			C34.5,78.6,34.6,78.7,34.7,78.7z M141.4,64.2c0.2-0.2,0.4-0.3,0.5-0.5c3.6-3.7,7.4-7.5,11-11.2c0.4-0.4,0.6-0.4,1,0
			c0.7,0.7,1.4,1.4,2.1,2.1c0.3,0.3,0.4,0.2,0.6,0c0.9-0.9,1.8-1.8,2.7-2.7c0.3-0.3,0.3-0.4,0-0.7c-2.8-2.8-5.5-5.4-8.3-8.2
			c-0.3-0.3-0.4-0.3-0.7,0c-0.9,0.9-1.8,1.9-2.7,2.7c-0.3,0.3-0.2,0.5,0,0.7c0.7,0.6,1.3,1.3,2,1.9c0.5,0.4,0.4,0.6,0,1.1
			c-3.7,3.7-7.4,7.6-11.1,11.3c-0.3,0.3-0.4,0.5,0,0.9c0.9,0.8,1.7,1.6,2.5,2.4C141.2,64,141.3,64.1,141.4,64.2z M110.6,55.9
			L110.6,55.9c0.3,0.2,0.5,0.3,0.7,0.3c2.4,0.8,4.6,1.9,6.6,3.3c2.1,1.5,3.9,3.1,5.7,4.9c2.8,3,5.3,6.1,7.4,9.5
			c0.3,0.5,0.7,0.7,1.3,0.4c1.9-0.8,3.1-2.2,4.1-3.9c0.1-0.3,0.2-0.5,0-0.8c-0.5-0.8-1-1.6-1.8-2.2c-0.9-0.6-1.7-1.3-2.5-2
			c-0.9-0.7-1.7-1.6-2.7-2.2c-2.8-1.8-5.5-3.4-8.6-4.6c-3.1-1.3-6.3-2.6-9.6-3.1C111.1,55.8,110.8,55.6,110.6,55.9z"/>
		<path class="st1" d="M96.3,125c0.2,0.4,0,0.6-0.2,0.8c-1.3,1.3-2.6,2.7-3.9,3.7c-1.7,1.4-2.6,3.1-3.6,4.9
			c-0.2,0.4-0.5,0.5-0.9,0.6c-1.6,0.1-3.1,0.3-4.8,0.4c-0.9,0.1-1.6,0.7-2.4,1.1c-0.4,0.2-0.8,0.3-1.3,0.1c-0.5-0.2-1-0.2-1.4-0.4
			c-1-0.4-1.8-0.4-2.7,0.3c-0.1,0.1-0.3,0.2-0.5,0.1c-1.9-0.9-3.9-1.7-5.9-2.3c-0.1,0-0.3-0.1-0.4-0.2c-1.3-1.5-2.8-2.9-3.7-4.5
			c-0.7-1.2-1.5-2.2-2.4-3.2c-0.4-0.4-0.3-0.7,0.1-1.1c0.7-0.8,1.5-1.2,2.6-1.1c0.8,0,1.8,0.1,2.4-0.3c0.5-0.4,0.7-1.4,1-2.1
			c0.6-1.4,1.2-2.8,1.7-4.1c0.1-0.3,0.3-0.4,0.5-0.6c1.1-0.9,2.2-1.8,3.2-2.6c1.1-0.7,2.1-1.6,3.1-2.3c0.4-0.3,1-0.4,1.5-0.4
			c1.1,0,2.1-0.3,2.7-1.3c0.1-0.1,0.2-0.2,0.2-0.3c0.5-0.8,1.2-1,2.2-0.9c1.1,0.1,2.1-0.1,3.1,0.2c0.2,0,0.4-0.1,0.5-0.2
			c1.5-0.8,3-1.7,4.4-2.5c0.5-0.3,1.1-0.3,1.6-0.4c0.8-0.1,1.5-0.4,2.3-0.4c0.3,0,0.4-0.2,0.5-0.3c2.1-2.4,4.2-4.6,6.2-7.1
			c0.2-0.3,0.5-0.5,0.9-0.4c0.3,0.1,0.6,0,0.9,0.1c1.5,0.4,2.8-0.2,4-0.8c1.4-0.7,2.6-1.6,3.7-2.6c0.7-0.6,1.5-0.6,2.2-0.6
			c1.1-0.1,2-0.4,2.8-1.2c0.7-0.7,1.5-1.1,2.3-1.7c0.1-0.1,0.2-0.1,0.3,0c1.9,0.4,3.8,0.2,5.8,0.3c0.6,0,1.2-0.3,1.8-0.6
			c2.1-1,4.3-1.1,6.5-1.3c0.1,0,0.1,0,0.2,0c1.5-0.1,1.5-0.1,1.8,1.4c0.7,3.2,0.9,6.5,1.2,9.7c0.1,1.5,0.2,1.5-1.3,1.7
			c-2.5,0.3-4.7,1.1-6.9,2.2c-0.7,0.4-1.4,0.4-2.1,0.2c-0.9-0.3-1.7-0.1-2.2,0.7c-0.3,0.4-0.6,0.5-1,0.6c-0.6,0.1-1.1,0.4-1.7,0.4
			c-1,0.1-1.4,0.8-1.6,1.6c-0.1,0.3-0.2,0.5-0.5,0.6c-0.8,0.3-1.5,0.7-2.2,0.9c-0.6,0.2-1.3,0-2,0c-0.4,0-0.8,0-1.1,0.3
			c-0.6,0.6-1.3,0.8-2.1,0.8c-1.1,0-1.7,0.6-2,1.5c-0.2,0.6-0.4,0.9-1,1.1c-1.9,0.8-3.7,1.8-5.6,2.7c-0.6,0.3-1.2,0.6-1.8,0.9
			c-0.2,0.1-0.3,0.2-0.4,0.4c-0.5,1.3-1.5,2.3-2.1,3.4c-0.3,0.7-0.9,1.2-1.7,1.3c-0.4,0.1-0.6,0.2-0.7,0.6
			C96.7,123.7,96.5,124.3,96.3,125z"/>
		<path class="st1" d="M55.6,107.8c-0.5-4.7-0.2-9.4,0.7-14c0.4-2,0.7-4,1.4-5.9c0.1-0.3,0.4-0.4,0.6-0.6c3.1-2.4,6.3-4.4,9.3-6.9
			c0.6-0.5,1.4-0.7,2-1.4c0.2-0.2,0.5-0.1,0.8,0c1.4,0.3,2.9,0.4,4.2-0.1c0.9-0.3,1.8-0.2,2.6,0.3c0.5,0.3,0.8,0.3,1.3-0.1
			c1.4-1.3,2.9-2.4,4.3-3.5c0.3-0.2,0.5-0.3,0.9-0.2c0.5,0.1,1,0.1,1.5,0.1c1.7,0,3.3-0.1,5,0.1c0.6,0.1,1,0,1.5-0.4
			c1.1-0.8,2.4-1.4,3.4-2.1c0.4-0.2,0.8-0.2,1.1-0.2c3.1-0.4,6.2-0.6,9.4-0.6c1.7,0,3.3,0.6,5,0.7c0.2,0,0.3,0.1,0.5,0.1
			c0.6,0,1.1,0.2,1.5,0.6c0.6,0.6,1.3,1.1,2.1,1.5c0.6,0.3,1.3,0.2,2,0.2c1.2,0,2.3,0.5,3.3,0.8c3.1,1,6.1,1.5,9.4,1.1
			c0.9-0.1,1.4,0.1,1.8,0.9c1.5,3,2.5,6,3.4,9.2c0.1,0.4-0.1,0.5-0.4,0.5c-2.8,0.3-5.5,0.5-8.3,0.8c-0.7,0.1-1.4,0-2.1-0.3
			c-1.5-0.6-3.1-0.6-4.6-1c-0.5-0.2-1,0.3-1.5,0.5c-0.3,0.2-0.5,0.2-0.8,0c-0.6-0.5-1.4-0.4-2-0.9c-0.2-0.2-0.4,0-0.6,0.1
			c-1.8,0.6-3.4,1.3-5.1,2.2c-0.7,0.4-1.5,0.5-2.1,1c-0.1,0-0.2,0.1-0.3,0c-1.7-0.3-3.4,0.1-5.1,0.1c-0.6,0-1.1-0.1-1.5-0.5
			c-0.5-0.6-1.1-0.7-1.8-0.5c-0.4,0.1-0.8,0.1-1.2,0.2c-0.6,0.1-1.2,0.1-1.7-0.2c-0.8-0.6-1.7-0.2-2.5-0.2c-1.1,0-2,0.3-2.7,1.2
			c-1,1.1-2.1,2-3.1,3.1c-0.7,0.8-1.5,0.9-2.4,0.8c-2-0.2-3.8-0.2-5.8-0.2c-0.3,0-0.5,0-0.8,0.2c-1.1,0.8-2.4,1.3-3.3,2.3
			c-0.2,0.2-0.4,0.1-0.6,0.1c-1.5,0-2.9,0.3-4.3,0.4c-0.4,0-0.6,0.2-0.8,0.5c-0.6,1-1.5,1.4-2.7,1.4c-1.3,0-2.6,0.6-3.5,1.5
			c-2.2,2.2-4.3,4.4-6.5,6.7c-0.2,0.2-0.4,0.5-0.6,0.8C55.7,107.9,55.7,107.8,55.6,107.8z"/>
		<path class="st1" d="M100.8,148.9c-1.6,0.1-3-0.1-4.2-0.2c-0.2,0-0.6,0-0.6-0.2c-0.1-0.3,0.2-0.4,0.5-0.5c1.3-0.7,2.5-1.4,3.7-2.1
			c0.2-0.1,0.4-0.2,0.3-0.6c-0.1-0.7,0-1.3,0.8-1.7c1.9-0.8,2.7-2.6,3.6-4.1c0.7-1.2,1.5-2.3,2.3-3.3c0.9-1.1,1.2-2.4,1.3-3.7
			c0-0.2,0.1-0.4,0.2-0.6c0.4-1.1,0.8-2.2,1-3.3c0-0.3,0.2-0.4,0.5-0.6c0.8-0.3,1.6-0.7,2.4-1c0.2-0.1,0.3-0.2,0.2-0.5
			c-0.2-0.4,0-0.9,0.1-1.3c0.4-1.5,0.9-3.1,1.3-4.5c0.3-1.2,1.1-2.2,1.2-3.4c0-0.4,0.5-0.5,0.8-0.7c0.9-0.6,1.8-1.3,2.8-1.7
			c1.7-0.8,2.7-2.2,3.4-3.7c0.3-0.5,0.6-0.9,1.2-1c0.7-0.1,1.3-0.6,2-0.5c0.1,0,0.2-0.1,0.2-0.1c1.3-1.7,3.2-2.2,5-3.1
			c1.6-0.8,3.2-1.2,4.9-1.3c0.8-0.1,0.9,0.2,0.7,0.9c-0.1,0.4-0.1,0.8-0.1,1.2c-0.3,3.7-1,7.3-1.9,10.9c-1.4,5.8-3.8,11-7.2,15.9
			c-2.8,4-5.9,7.5-9.8,10.3c-3.4,2.6-7.4,3.7-11.5,4.4C104.1,148.9,102.4,149,100.8,148.9z"/>
		<path class="st1" d="M71.1,66.8c0.4-0.6,0.8-0.9,1.2-1.2c2-1.6,4-2.9,6.2-4.1c2.8-1.7,5.7-2.9,8.6-4.1c2.8-1.3,5.7-2.2,8.9-2.1
			c0.7,0,1.4-0.1,2.1-0.2c1.5-0.2,3,0,4.5,0.2c0.8,0.1,1.6,0.2,2.4,0.4c3.1,0.7,5.8,1.9,8.7,3.3c4.4,2.4,7.9,5.7,11,9.4
			c1.7,2,3.1,4,4.4,6.3c0.3,0.6,0.2,0.8-0.4,0.8c-2.4,0.2-4.6,0-6.8-0.6c-0.8-0.2-1.5-0.5-2.3-0.8c-0.3-0.1-0.4-0.4-0.6-0.6
			c-0.3-0.6-0.7-0.9-1.4-1c-1.4,0-2.2-1.1-3-2c-0.4-0.4-0.7-0.7-1.3-0.6c-0.2,0-0.4,0-0.5-0.2c-0.4-1-1.4-0.8-2.1-1.2
			c-0.8-0.4-1.6-0.4-2.4,0c-0.5,0.3-0.9,0.2-1.4,0c-1.7-0.9-3.4-1.6-5-2.7c-0.3-0.2-0.7-0.2-1-0.2c-1.7-0.1-3.3-0.2-5-0.2
			c-0.5,0-0.8-0.2-1.1-0.5c-0.3-0.4-0.8-0.6-1.1-1c-0.8-0.8-1.8-1-2.9-1c-2.6,0-5.1-0.5-7.7-0.5c-0.2,0-0.3,0-0.5,0.1
			c-2,0.8-4,1.4-6,2.2C75,65.5,73.1,66.3,71.1,66.8z"/>
		<path class="st1" d="M118.3,145.8c0.9-0.6,1.7-1.3,2.6-1.9c2.5-2,4.8-4.1,6.7-6.7c2.3-3.1,4.1-6.2,5.8-9.6
			c1.5-3.1,2.5-6.3,3.3-9.5c0.8-3,1.3-5.9,1.6-9c0.1-1.2,0.2-2.4,0.3-3.6c0-0.5,0.3-0.7,0.8-0.6c3.1,0.8,5.8,2.4,7.9,4.8
			c0.5,0.6,0.8,1.3,1.2,2c0.1,0.2,0,0.4,0,0.6c-1.1,4.4-2.7,8.7-4.8,12.6c-1.8,3.2-4.1,6.1-6.5,8.9c-3.4,3.9-7.7,6.9-12.2,9.5
			c-1.7,1-3.3,1.7-5.1,2.4C119.2,145.8,118.8,146,118.3,145.8z"/>
		<path class="st2" d="M130.9,43.9c0.8-2,1.6-3.8,2.4-5.7c0.6-1.4,1.2-2.8,1.8-4.1c0.2-0.4,0.3-0.4,0.7-0.3c1,0.5,2,0.9,3.1,1.3
			c0.3,0.1,0.4,0.3,0.3,0.6c-2.7,6.4-5.4,12.8-8.1,19.2c-0.2,0.4-0.3,0.5-0.7,0.3c-0.9-0.4-1.8-0.8-2.7-1.1
			c-0.4-0.1-0.5-0.3-0.5-0.8c-0.2-3.4-0.4-6.9-0.6-10.3c-0.1-1-0.1-2-0.2-3.1c-0.3,0.2-0.3,0.4-0.4,0.6c-1.5,3.4-3,6.9-4.3,10.2
			c-0.2,0.4-0.3,0.6-0.8,0.3c-0.9-0.4-1.9-0.8-2.9-1.2c-0.4-0.1-0.5-0.3-0.3-0.7c2.8-6.4,5.4-12.8,8.1-19.2c0.2-0.4,0.3-0.4,0.7-0.3
			c1.2,0.5,2.5,1.1,3.6,1.6c0.4,0.2,0.6,0.4,0.6,0.9c0,3.6,0,7.2,0.1,10.8C130.8,43.3,130.7,43.6,130.9,43.9z"/>
		<path class="st2" d="M172,72.3c-0.4,1.1-0.8,2.3-1.2,3.4c-0.1,0.2-0.3,0.3-0.5,0.4c-4.4,2.2-9,4.2-13.4,6.4
			c-0.4,0.2-0.8,0.2-1.3,0.1c-1.1-0.4-2.4-0.6-3.1-1.3s-1.1-2-1.6-3c-0.6-1.2-1.2-2.5-1.8-3.6c-0.2-0.4-0.2-0.7-0.1-1.1
			c0.4-1.1,0.6-2.5,1.3-3.2c0.7-0.8,2-1.1,3.1-1.6c3.5-1.7,7.1-3.3,10.6-5.1c0.5-0.2,0.8-0.3,1.3-0.1c1,0.4,2.3,0.5,3.1,1.2
			c0.8,0.7,1,1.9,1.5,2.9c0.6,1.3,1.3,2.6,1.9,3.8C172,71.7,172.1,71.9,172,72.3z M166.6,71.7c-0.1-0.2-0.1-0.3-0.2-0.5
			c-0.3-0.6-0.6-1.1-0.8-1.7c-0.4-0.8-1.1-1.1-2-0.7c-2.8,1.4-5.5,2.7-8.4,4c-0.9,0.5-1.2,1.2-0.7,2.1c0.2,0.5,0.4,1,0.7,1.5
			c0.3,0.7,1.2,1,1.9,0.7c2.9-1.4,5.7-2.8,8.6-4.1C166.5,72.8,166.5,72.2,166.6,71.7z"/>
		<path class="st2" d="M59,67c-1.5,0.4-2.6-0.4-3.5-1.4c-3.1-3.1-6.4-6.3-9.6-9.4c-0.2-0.2-0.4-0.5-0.4-0.8c0-0.5,0.1-1,0-1.4
			c-0.4-1.7,0.3-2.9,1.5-3.9c1.3-1.2,2.5-2.6,3.7-3.8c0.3-0.3,0.5-0.4,0.9-0.4c1.1,0,2.1,0,3.1-0.1c0.4,0,0.6,0.1,0.9,0.4
			c3.5,3.5,7.1,7,10.6,10.5c0.3,0.3,0.4,0.5,0.4,0.9c0,1,0,2,0.1,3c0,0.5-0.1,0.8-0.4,1.1c-1.5,1.6-3.1,3.1-4.5,4.6
			c-0.5,0.6-1.1,0.9-1.9,0.8C59.6,67,59.3,67,59,67z M53.3,51.1c-0.5-0.1-0.8,0.1-1.1,0.5c-0.4,0.5-0.8,0.9-1.3,1.3
			c-0.6,0.6-0.6,1.4,0,2c2.3,2.2,4.4,4.3,6.7,6.5c0.8,0.8,1.6,0.8,2.3,0c0.4-0.4,0.8-0.8,1.1-1.1c0.6-0.6,0.6-1.6,0-2.2
			c-2.3-2.2-4.4-4.3-6.7-6.6C54,51.2,53.8,51,53.3,51.1z"/>
		<path class="st2" d="M134.4,167.7c-0.1,0.3-0.2,0.6-0.4,0.9c-0.4,0.9-0.6,2.1-1.3,2.8c-0.7,0.7-1.9,0.9-2.9,1.2
			c-1.4,0.5-2.8,1.1-4.1,1.6c-0.4,0.1-0.7,0.2-1,0c-0.9-0.5-1.9-0.9-2.9-1.3c-0.3-0.1-0.5-0.3-0.6-0.6c-1.8-4.7-3.6-9.4-5.4-14.2
			c-0.1-0.3-0.1-0.6,0-0.8c0,0,0,0,0-0.1c0.5-1.1,0.7-2.4,1.5-3.1c0.8-0.8,2.2-0.9,3.2-1.4c1.3-0.5,2.5-1,3.7-1.5
			c0.4-0.1,0.7-0.2,1,0c0.9,0.4,1.9,0.9,2.8,1.3c0.3,0.1,0.5,0.3,0.6,0.6c1.8,4.7,3.5,9.4,5.3,14.3
			C134.3,167.5,134.3,167.6,134.4,167.7z M125.8,168.9c0.7-0.3,1.5-0.6,2.3-0.8c0.8-0.3,1.2-1.1,0.9-1.9c-1.1-2.9-2.2-5.7-3.2-8.6
			c-0.4-1.1-1.1-1.4-2.1-1c-0.5,0.2-1.1,0.4-1.6,0.6c-0.8,0.3-1.1,1.1-0.9,1.9c1.1,3,2.3,5.9,3.2,8.9
			C124.7,168.6,125.3,168.6,125.8,168.9z"/>
		<path class="st2" d="M109.4,37c0,2.6,0,5,0,7.6c0,0.3-0.1,0.6-0.3,0.8c-0.8,0.7-1.5,1.4-2.2,2.2c-0.3,0.3-0.5,0.4-0.9,0.3
			c-2.4,0-4.6,0-7,0c-0.4,0-0.7-0.1-1-0.4c-0.8-0.9-2-1.6-2.4-2.6c-0.4-1-0.1-2.3-0.1-3.4c0-4,0-8,0-12c0-0.5,0.1-0.8,0.5-1.1
			c0.8-0.8,1.5-1.9,2.5-2.3c1-0.4,2.3-0.1,3.3-0.1c1.4,0,2.8,0,4,0c0.4,0,0.7,0.1,1,0.4c0.7,0.7,1.4,1.4,2.1,2.1
			c0.3,0.3,0.4,0.6,0.4,1C109.4,32,109.4,34.5,109.4,37z M100.2,36.8c0,1.6,0,3.1,0,4.6c0,1.1,0.6,1.6,1.6,1.7c0.5,0,1,0,1.5,0
			c1,0,1.6-0.5,1.6-1.5c0-3.1,0-6.2,0-9.4c0-0.9-0.6-1.5-1.5-1.6c-0.5,0-1,0-1.6,0c-1,0-1.6,0.6-1.6,1.6
			C100.2,33.8,100.2,35.4,100.2,36.8z"/>
		<path class="st2" d="M88.2,49.2c-1.4,0.6-2.7,1.2-3.9,1.8c-0.4,0.2-0.5,0-0.7-0.2c-1.6-1.6-3.2-3.1-4.8-4.6
			c-0.4-0.4-0.6-0.5-1.1-0.2c-1.4,0.7-1.4,0.7-0.8,2.1c0.7,1.6,1.4,3.1,2.1,4.6c0.2,0.4,0.1,0.6-0.3,0.8c-1,0.4-2,0.8-2.9,1.2
			c-0.4,0.2-0.5,0.2-0.7-0.2c-2.8-6.4-5.5-12.8-8.4-19.1c-0.2-0.4,0-0.5,0.3-0.6c2.9-1.2,5.7-2.5,8.5-3.7c0.3-0.1,0.6-0.2,0.9,0
			c1,0.4,2.1,0.9,3.1,1.3c0.3,0.1,0.5,0.4,0.7,0.7c0.9,2.2,1.8,4.3,2.8,6.5c0.2,0.4,0.2,0.7,0.1,1.1c-0.2,0.8-0.4,1.6-0.7,2.4
			c-0.1,0.4,0,0.6,0.3,0.9C84.4,45.4,86.2,47.3,88.2,49.2z M78,39.2c-0.3-0.6-0.5-1.3-0.8-1.9c-0.5-1.1-1.2-1.4-2.3-0.9
			c-0.8,0.4-1.6,0.7-2.3,1.1c-0.3,0.1-0.4,0.3-0.2,0.6c0.5,1.1,1.1,2.3,1.6,3.4c0.2,0.4,0.3,0.4,0.7,0.2c0.8-0.4,1.7-0.8,2.5-1.2
			C77.8,40.3,77.8,39.7,78,39.2z"/>
		<path class="st2" d="M38.4,143.6c-0.7-1.3-1.4-2.6-2.1-3.8c-0.2-0.3,0.1-0.5,0.2-0.7c1.4-1.7,2.9-3.3,4.2-5
			c0.3-0.4,0.4-0.7,0.1-1.2c-0.8-1.4-0.7-1.4-2.2-0.7c-1.6,0.8-3.1,1.6-4.6,2.4c-0.3,0.2-0.5,0.2-0.7-0.2c-0.5-1-0.9-1.9-1.4-2.8
			c-0.2-0.4-0.2-0.6,0.3-0.9c5.7-3,11.4-6,17.1-9c0.5-0.3,1.1-0.9,1.6-0.7c0.4,0.2,0.6,0.9,0.9,1.5c1.2,2.3,2.5,4.6,3.6,6.9
			c0.2,0.4,0.2,0.7,0.1,1.1c-0.4,1-0.7,2-1,3c-0.1,0.4-0.3,0.6-0.6,0.7c-2.2,1.1-4.2,2.2-6.4,3.3c-0.3,0.2-0.7,0.2-1,0.1
			c-0.8-0.2-1.6-0.3-2.4-0.5c-0.4-0.1-0.7,0-1,0.4c-1.5,1.9-3.1,3.6-4.6,5.4C38.8,143.2,38.6,143.4,38.4,143.6z M50.7,130.4
			c0-0.1,0-0.2-0.1-0.3c-0.5-1-1-1.9-1.5-2.9c-0.2-0.3-0.3-0.2-0.5-0.1c-1.2,0.6-2.3,1.2-3.4,1.8c-0.4,0.2-0.3,0.4-0.2,0.7
			c0.4,0.8,0.8,1.5,1.2,2.3c0.5,1,1.3,1.2,2.3,0.7c0.4-0.2,0.8-0.5,1.3-0.7C50.5,131.6,50.5,131,50.7,130.4z"/>
		<path class="st2" d="M164.3,141c-0.4,0.1-0.5-0.1-0.7-0.2c-0.8-0.4-1.6-0.9-2.5-1.3c-0.3-0.2-0.4-0.3-0.2-0.6
			c0.6-1.1,1.2-2.2,1.8-3.2c0.2-0.3,0.3-0.4,0.7-0.2c1.3,0.6,1.3,0.6,1.9-0.6c0.3-0.5,0.5-1,0.8-1.4c0.5-1,0.3-1.8-0.8-2.3
			c-0.5-0.2-0.8-0.6-1.5-0.4c-0.6,0.2-1,0.4-1.2,1c-0.6,1.2-1.2,2.4-1.8,3.5c-0.2,0.3-0.4,0.5-0.7,0.6c-1.1,0.3-2.1,0.6-3.1,0.9
			c-0.3,0.1-0.6,0.1-0.9-0.1c-2-1-3.8-2-5.8-3c-0.3-0.1-0.5-0.3-0.5-0.6c-0.3-1.1-0.7-2.2-1-3.1c-0.1-0.3-0.1-0.5,0.1-0.8
			c1.1-2.2,2.2-4.2,3.2-6.4c0.2-0.3,0.4-0.5,0.7-0.6c1.1-0.3,2.1-0.6,3.1-0.9c0.2-0.1,0.5-0.1,0.7,0c0.8,0.5,1.7,0.9,2.5,1.3
			c0.3,0.2,0.3,0.3,0.1,0.6c-0.6,1.1-1.2,2.2-1.8,3.3c-0.2,0.4-0.4,0.3-0.7,0.1c-1.2-0.6-1.2-0.6-1.7,0.6c-0.3,0.5-0.5,1.1-0.8,1.6
			c-0.5,1-0.3,1.7,0.7,2.2c0.6,0.3,1.2,0.9,2,0.5c0.3-0.1,0.5-0.3,0.6-0.6c0.7-1.4,1.5-2.7,2.2-4c0.2-0.3,0.4-0.5,0.7-0.6
			c1-0.3,2.1-0.6,3.1-0.9c0.4-0.1,0.7-0.1,1,0.1c1.9,1,3.7,2,5.7,3c0.3,0.2,0.5,0.4,0.6,0.7c0.3,1.1,0.9,2.3,0.9,3.3
			c0,1.1-1,2.1-1.5,3.1c-0.6,1.3-1.3,2.5-2,3.7c-0.2,0.3-0.4,0.5-0.7,0.6C166.4,140.3,165.3,140.7,164.3,141z"/>
		<path class="st2" d="M157.9,154.2c-1.1,0.9-2.2,1.8-3.1,2.7c-0.3,0.3-0.5,0.2-0.8,0c-2-1-3.9-2-5.9-3.1c-0.4-0.2-0.7-0.2-1.1,0.1
			c-1.2,1.1-1.2,1.1-0.1,2.3c1.1,1.3,2.2,2.6,3.2,3.8c0.3,0.3,0.3,0.5-0.1,0.8c-0.8,0.6-1.5,1.3-2.3,2c-0.4,0.4-0.6,0.4-0.9-0.1
			c-2.8-3.3-5.6-6.7-8.5-9.9c-1.7-2-3.2-3.8-4.9-5.8c-0.3-0.3-0.3-0.5,0.1-0.8c2.4-2,4.6-3.9,7-5.8c0.3-0.2,0.5-0.3,0.9-0.3
			c0.6,0.1,1.2,0.2,1.8,0.1c1.6-0.2,2.5,0.6,3.3,1.8c1.1,1.5,2.3,2.8,3.4,4.1c0.3,0.3,0.4,0.6,0.4,1.1c0,0.8,0.1,1.6,0.1,2.4
			c0,0.5,0.2,0.7,0.6,0.9c2.2,1.2,4.3,2.3,6.5,3.4C157.7,154,157.9,154,157.9,154.2z M142.8,145c-0.3-0.1-0.5,0-0.7,0.1
			c-0.8,0.7-1.6,1.4-2.4,2c-0.3,0.2-0.3,0.3,0,0.6c0.8,1,1.7,2,2.5,3c0.2,0.3,0.4,0.3,0.6,0.1c0.7-0.6,1.4-1.2,2-1.8
			c0.8-0.7,0.8-1.4,0.2-2.1c-0.4-0.4-0.7-0.9-1.1-1.3C143.6,145.2,143.3,144.9,142.8,145z"/>
		<path class="st2" d="M67.9,143.8c-0.1,0.1-0.1,0.3-0.2,0.4c-3.1,6.5-6.4,13.1-9.5,19.6c-0.3,0.6-0.4,0.5-0.8,0.1
			c-0.8-0.8-1.6-1.6-2.5-2.3c-0.3-0.3-0.4-0.5-0.2-0.9c0.4-0.7,0.7-1.5,1.1-2.2c0.2-0.3,0.2-0.6-0.1-0.9c-1.4-1.2-2.7-2.5-4-3.7
			c-0.3-0.3-0.5-0.2-0.7,0c-0.8,0.5-1.6,1-2.4,1.5c-0.3,0.2-0.4,0.2-0.7,0c-0.9-0.9-1.8-1.8-2.8-2.6c-0.3-0.3-0.3-0.4,0.1-0.6
			c6.3-3.7,12.6-7.6,18.9-11.3c0.3-0.2,0.4-0.2,0.7,0c0.9,0.9,1.9,1.8,2.9,2.7C67.8,143.6,68,143.7,67.9,143.8z M60.9,148.4
			L60.9,148.4c-1.9,1-3.5,2-5.3,3.1c-0.3,0.2-0.3,0.3-0.1,0.5c0.8,0.7,1.7,1.5,2.5,2.3C59,152.2,60,150.3,60.9,148.4z"/>
		<path class="st2" d="M76.1,164.4c-0.4,0-0.3,0.3-0.4,0.5c-0.9,2.2-1.8,4.2-2.7,6.4c-0.2,0.5-0.4,0.6-0.9,0.4
			c-0.9-0.4-1.9-0.8-2.8-1.1c-0.3-0.1-0.4-0.2-0.3-0.6c2.7-6.4,5.3-12.9,8-19.3c0.2-0.4,0.3-0.4,0.7-0.3c2.8,1.2,5.5,2.4,8.3,3.4
			c0.3,0.1,0.5,0.3,0.6,0.6c0,0,0,0,0,0.1c0.4,1.1,1.2,2.3,1.2,3.3c0,1.1-0.8,2.3-1.3,3.3c-0.5,1.2-1,2.4-1.4,3.4
			c-0.2,0.4-0.4,0.7-0.8,0.9c-0.8,0.4-1.7,1.1-2.5,1.2c-0.8,0-1.7-0.6-2.6-1c-1-0.4-2-0.8-3-1.2C76.4,164.5,76.3,164.4,76.1,164.4z
			 M83,158.4c-0.3-0.4-0.2-1.1-0.9-1.3c-0.8-0.2-1.5-0.6-2.2-0.9c-0.3-0.1-0.5-0.1-0.6,0.2c-0.5,1.3-1,2.5-1.5,3.6
			c-0.1,0.1-0.3,0.3,0,0.4c0.9,0.4,1.9,0.8,2.8,1.2c0.1,0,0.3,0,0.4-0.1C81.6,161.4,82.9,159.2,83,158.4z"/>
		<path class="st1" d="M148.9,109.1c-0.6-0.5-0.9-1.1-1.3-1.6c-2.2-2.6-5-3.9-8.3-4.6c-0.5-0.1-0.8-0.3-0.8-0.9
			c0-3.7-0.4-7.4-1.2-11c-0.2-1.1-0.1-1.2,1-1.2c3.1,0,6,0.2,9,1.3c0.8,0.3,1.3,0.7,1.5,1.6c0.5,3.2,1,6.5,0.9,9.8
			C149.5,104.7,149.3,106.8,148.9,109.1z"/>
		<path class="st1" d="M147.8,89c0,0.2-0.1,0.3-0.3,0.2c-0.1,0-0.2,0-0.3-0.1c-3.1-1.2-6.4-1.6-9.7-1.4c-0.7,0.1-1-0.2-1.2-0.9
			c-0.8-2.9-1.7-5.7-3.1-8.4c-0.1-0.2-0.2-0.4-0.3-0.6c-0.5-1.1-0.5-1.1,0.6-1.7c1.9-1.1,3.5-2.4,4.5-4.2c0.3-0.5,0.5-0.5,0.8-0.1
			c0.7,0.9,1.3,1.8,2,2.7c1.4,1.7,2.6,3.4,3.4,5.4c1.2,2.6,2.5,5.1,3.2,7.9C147.5,88.2,147.6,88.5,147.8,89z"/>
		<path class="st2" d="M102.8,155.8c1.9,0,3.7,0,5.6,0c0.5,0,0.7,0.2,0.7,0.7c0,1.2,0,2.3,0,3.4c0,0.5-0.1,0.7-0.6,0.7
			c-0.9,0-1.8,0.1-2.7,0c-0.6,0-0.7,0.2-0.7,0.7c0.1,5.2,0.1,10.4,0.2,15.6c0,0.6-0.1,0.7-0.7,0.7c-1.1,0-2.2,0-3.2,0.1
			c-0.6,0-0.7-0.2-0.7-0.7c0-5.2-0.1-10.5-0.1-15.7c0-0.6-0.2-0.7-0.7-0.7c-0.9,0.1-1.8,0-2.7,0.1c-0.4,0-0.5-0.1-0.5-0.5
			c0-1.3,0-2.5,0-3.7c0-0.5,0.1-0.6,0.6-0.6c1.9,0,3.8,0,5.7,0C102.8,155.9,102.8,155.8,102.8,155.8z"/>
		<path class="st2" d="M34.7,78.7c-0.1-0.1-0.2-0.1-0.4-0.2c-1.2-0.5-2.3-1.1-3.4-1.6c-0.4-0.2-0.5-0.3-0.3-0.7
			c1.6-3.4,3.2-7,4.8-10.4c0.2-0.4,0.3-0.4,0.7-0.3c1.1,0.5,2.2,1,3.3,1.5c0.5,0.2,0.4,0.4,0.3,0.8c-0.4,0.9-0.8,1.8-1.2,2.6
			c-0.2,0.5-0.2,0.6,0.3,0.8c4.8,2.1,9.5,4.2,14.4,6.4c0.6,0.3,0.7,0.5,0.4,1.1c-0.5,0.9-0.9,1.9-1.3,2.9c-0.2,0.4-0.3,0.6-0.8,0.3
			c-4.8-2.2-9.5-4.2-14.4-6.4c-0.6-0.3-0.9-0.2-1.1,0.4c-0.3,0.9-0.8,1.7-1.1,2.6C35,78.5,34.9,78.7,34.7,78.7z"/>
		<path class="st2" d="M141.4,64.2c-0.1-0.1-0.2-0.2-0.3-0.3c-0.8-0.8-1.6-1.6-2.5-2.4c-0.4-0.3-0.3-0.5,0-0.9
			c3.7-3.7,7.4-7.6,11.1-11.3c0.4-0.4,0.5-0.6,0-1.1c-0.7-0.6-1.3-1.3-2-1.9c-0.3-0.3-0.4-0.4,0-0.7c0.9-0.9,1.8-1.8,2.7-2.7
			c0.3-0.3,0.4-0.3,0.7,0c2.8,2.8,5.5,5.4,8.3,8.2c0.3,0.3,0.3,0.4,0,0.7c-0.9,0.9-1.8,1.8-2.7,2.7c-0.2,0.2-0.4,0.3-0.6,0
			c-0.7-0.7-1.4-1.4-2.1-2.1c-0.4-0.4-0.6-0.4-1,0c-3.6,3.7-7.4,7.5-11,11.2C141.7,63.8,141.5,64,141.4,64.2z"/>
		<path class="st1" d="M110.6,55.9c0.2-0.3,0.5-0.1,0.7-0.1c3.3,0.6,6.5,1.9,9.6,3.1c3.1,1.2,5.8,2.9,8.6,4.6c1,0.6,1.8,1.5,2.7,2.2
			c0.8,0.7,1.6,1.3,2.5,2c0.8,0.6,1.2,1.4,1.8,2.2c0.2,0.2,0.1,0.5,0,0.8c-1,1.8-2.3,3.1-4.1,3.9c-0.6,0.3-0.9,0.1-1.3-0.4
			c-2.1-3.4-4.6-6.6-7.4-9.5c-1.8-1.9-3.6-3.4-5.7-4.9s-4.2-2.6-6.6-3.3c-0.2-0.1-0.4-0.2-0.6-0.2C110.7,56,110.7,55.9,110.6,55.9z"
			/>
		<path class="st0" d="M166.6,71.7c-0.3,0.5-0.3,1.1-0.9,1.4c-2.9,1.4-5.7,2.8-8.6,4.1c-0.7,0.3-1.5,0-1.9-0.7
			c-0.2-0.5-0.5-1-0.7-1.5c-0.5-1-0.2-1.7,0.7-2.1c2.8-1.4,5.5-2.7,8.4-4c0.9-0.4,1.6-0.2,2,0.7c0.3,0.6,0.6,1.1,0.8,1.7
			C166.5,71.4,166.6,71.6,166.6,71.7z"/>
		<path class="st0" d="M53.3,51.1c0.5-0.1,0.8,0.1,1.1,0.4c2.3,2.2,4.4,4.3,6.7,6.6c0.6,0.6,0.6,1.6,0,2.2c-0.4,0.4-0.8,0.8-1.1,1.1
			c-0.8,0.8-1.5,0.8-2.3,0c-2.3-2.2-4.4-4.3-6.7-6.5c-0.6-0.6-0.6-1.4,0-2c0.4-0.4,0.9-0.9,1.3-1.3C52.5,51.2,52.8,50.9,53.3,51.1z"
			/>
		<path class="st0" d="M125.8,168.9c-0.5-0.3-1.1-0.3-1.4-1c-1.1-3-2.2-5.9-3.2-8.9c-0.3-0.8,0.1-1.6,0.9-1.9
			c0.5-0.2,1.1-0.4,1.6-0.6c1-0.4,1.7-0.1,2.1,1c1.1,2.9,2.2,5.7,3.2,8.6c0.3,0.8-0.1,1.6-0.9,1.9
			C127.3,168.3,126.6,168.6,125.8,168.9z"/>
		<path class="st0" d="M100.2,36.8c0-1.6,0-3.1,0-4.6c0-1,0.6-1.6,1.6-1.6c0.5,0,1,0,1.6,0c0.9,0,1.5,0.6,1.5,1.6c0,3.1,0,6.2,0,9.4
			c0,1-0.5,1.5-1.6,1.5c-0.5,0-1,0-1.5,0c-1.1,0-1.6-0.6-1.6-1.7C100.2,39.9,100.2,38.4,100.2,36.8z"/>
		<path class="st0" d="M78,39.2c-0.2,0.5-0.3,1.1-0.9,1.4c-0.9,0.3-1.7,0.8-2.5,1.2c-0.3,0.2-0.5,0.1-0.7-0.2
			c-0.5-1.2-1-2.3-1.6-3.4c-0.2-0.3-0.1-0.5,0.2-0.6c0.8-0.3,1.6-0.7,2.3-1.1c1.1-0.5,1.8-0.2,2.3,0.9C77.5,37.9,77.8,38.5,78,39.2z
			"/>
		<path class="st0" d="M50.7,130.4c-0.2,0.6-0.2,1.3-1,1.5c-0.5,0.2-0.9,0.5-1.3,0.7c-1,0.5-1.8,0.3-2.3-0.7
			c-0.4-0.8-0.8-1.5-1.2-2.3c-0.2-0.3-0.2-0.5,0.2-0.7c1.2-0.6,2.3-1.2,3.4-1.8c0.2-0.1,0.4-0.3,0.5,0.1c0.5,1,1,1.9,1.5,2.9
			C50.6,130.2,50.7,130.4,50.7,130.4z"/>
		<path class="st0" d="M142.8,145c0.5-0.1,0.8,0.2,1.1,0.6c0.3,0.5,0.7,0.9,1.1,1.3c0.6,0.8,0.6,1.5-0.2,2.1c-0.7,0.6-1.4,1.2-2,1.8
			c-0.3,0.3-0.4,0.2-0.6-0.1c-0.8-1-1.6-2-2.5-3c-0.2-0.2-0.2-0.4,0-0.6c0.8-0.7,1.6-1.3,2.4-2C142.3,145,142.5,145,142.8,145z"/>
		<path class="st0" d="M60.9,148.4c-1,1.9-1.9,3.7-2.9,5.7c-0.9-0.8-1.7-1.5-2.5-2.3c-0.2-0.2-0.2-0.3,0.1-0.5
			c1.8-1,3.4-2.1,5.2-3.1C60.8,148.4,60.8,148.4,60.9,148.4z"/>
		<path class="st0" d="M83,158.4c0,0.9-1.4,3-2,3.2c-0.1,0.1-0.3,0.1-0.4,0.1c-1-0.4-1.9-0.8-2.8-1.2c-0.3-0.1-0.1-0.3,0-0.4
			c0.5-1.2,1-2.5,1.5-3.6c0.1-0.3,0.3-0.4,0.6-0.2c0.7,0.3,1.5,0.7,2.2,0.9C82.8,157.3,82.7,158,83,158.4z"/>
	</g>
</g>
</svg>
