<?xml version="1.0" encoding="utf-8"?>
<!-- Generator: Adobe Illustrator 23.1.0, SVG Export Plug-In . SVG Version: 6.00 Build 0)  -->
<svg version="1.1" id="Layer_1" xmlns="http://www.w3.org/2000/svg" xmlns:xlink="http://www.w3.org/1999/xlink" x="0px" y="0px"
	 viewBox="0 0 400 400" style="enable-background:new 0 0 400 400;" xml:space="preserve">
<style type="text/css">
	.st0{fill:#E33540;}
	.st1{fill:#FFFFFF;}
	.st2{fill:#FDFDFD;}
</style>
<g>
	<g>
		<path class="st0" d="M294.1,208.8c9.8,0,19.5,0.3,29.3,1.1c16,1.2,31.9,3.3,47.5,7.1c0.8,0.2,1.7,0.5,2.5,0.6
			c0.6,0.1,0.7,0.3,0.6,1c-1.2,4.2-2.3,8.5-3.5,12.7c-0.1,0.5-0.2,1,0,1.6c1.2,5.3,2.3,10.6,3.5,16c0.1,0.6,0.2,0.8-0.6,0.6
			c-8.4-2.2-17-3.8-25.6-5c-10.1-1.5-20.3-2.5-30.4-3.1c-10.8-0.7-21.6-0.8-32.5-0.6c-9.6,0.2-19.3,0.8-28.9,1.7
			c-13.7,1.4-27.2,3.4-40.6,6.7c-1.6,0.4-1.6,0.4-1.2-1.2c1.1-5.1,2.2-10.1,3.4-15.2c0.1-0.5,0.1-1-0.1-1.5
			c-1.1-4.1-2.3-8.3-3.4-12.4c-0.2-0.8-0.2-1.1,0.7-1.3c7.3-1.9,14.8-3.3,22.2-4.5c6.9-1.1,13.9-1.9,20.8-2.6
			c5-0.5,10.1-0.9,15.2-1.1C280.1,209,287.1,208.8,294.1,208.8z M319.3,228.3c-3-4-5.9-7.7-8.8-11.4c-0.2-0.2-0.3-0.6-0.6-0.6
			c-1.7,0-3.4,0-5.4,0c1.6,0.8,1.3,2.1,1.3,3.3c0,3.2,0,6.4,0,9.6c0,1,0,2-1,2.6c-0.1,0.1-0.1,0.2,0,0.4c1.7,0,3.5,0,5.6,0
			c-1.4-0.8-1.4-2-1.4-3.2c0.1-2.4,0-4.8,0-7.2c0-0.3-0.1-0.6,0.1-0.8c0.3,0.1,0.5,0.4,0.6,0.6c2.7,3.5,5.4,7,8.1,10.5
			c0.2,0.2,0.3,0.6,0.6,0.6c1.7,0.1,3.4,0.2,5.3,0.4c-1.2-1.7-1.2-1.7-1.2-3.8c0-3,0-6,0-9c0-1.2,0-2.3,1.1-3.1c0,0,0-0.1,0-0.2
			c-1.8-0.1-3.5-0.2-5.3-0.3c-0.1,0.1-0.1,0.1-0.2,0.2c1.4,0.8,1.1,2.1,1.1,3.3c0,1.1,0,2.1,0,3.2
			C319.3,224.9,319.3,226.5,319.3,228.3z M278.7,225.6c1.6-1,1.9-2.4,1.8-4c0-0.5,0-0.9,0-1.4c0-2.5-1.7-4-4.2-3.9
			c-3,0.2-5.9,0.4-8.9,0.6c-1.6,0.1-3.2,0.2-4.8,0.3c1.4,0.9,1.1,2.3,1.1,3.6c0,3.1,0,6.1,0,9.2c0,1.1,0.1,2.2-1,2.9
			c0,0,0,0.2,0,0.3c1.8-0.1,3.5-0.3,5.3-0.4c-0.3-0.7-1.1-0.9-1.1-1.7c0-0.8,0-1.7,0-2.5c0-0.4,0.1-0.6,0.5-0.6
			c2.9-0.2,5.8-0.3,8.7-0.5c0.7,0,1.1,0.3,1.1,1.1c0,1.3,0.3,2.7-1.1,3.6c0,0,0,0.1,0,0.2c1.8-0.1,3.7,0,5.6-0.4
			c-1.4-0.7-1.2-1.9-1.2-3.1C280.6,227.5,280.2,226.4,278.7,225.6z M293.1,231.9c1.5,0,3,0,4.5,0c2.3,0,4-1.7,4-4c0-2.7,0-5.4,0-8.1
			c0-2.3-1.7-3.9-4-4c-3,0-6,0-9,0c-2.2,0-3.9,1.5-3.9,3.7c-0.1,2.9-0.1,5.8,0,8.7c0.1,2.2,1.8,3.6,4,3.7
			C290.1,231.9,291.6,231.9,293.1,231.9z M259.5,225.4C259.5,225.4,259.4,225.4,259.5,225.4c0-1.5,0-3,0-4.4
			c-0.1-1.8-1.5-3.1-3.3-3.2c-0.5,0-0.9,0-1.4,0.1c-2.6,0.3-5.2,0.6-7.8,0.8c-2.6,0.3-4.3,2.1-4.4,4.7c0,2.5,0,5,0,7.6
			c0,2.6,1.5,4,4.1,3.8c2.8-0.3,5.7-0.6,8.5-0.9c2.6-0.3,4.3-2.1,4.3-4.7C259.5,227.9,259.5,226.7,259.5,225.4z M346.5,227.3
			c0,1.3,0,2.7,0,4c0,1.2,0.4,2.2,1.2,3.1c0.9,1,1.9,1.5,3.2,1.7c2.7,0.5,5.5,0.9,8.2,1.4c2.4,0.4,4.2-0.9,4.3-3.3
			c0-2.7,0-5.4,0-8.1c0-2.2-1.6-4.2-3.7-4.6c-3.1-0.6-6.2-1.1-9.4-1.6c-2.1-0.3-3.8,1.2-3.8,3.3C346.4,224.7,346.5,226,346.5,227.3z
			 M343.5,223.4c0.1-0.1,0.1-0.1,0.2-0.2c0-1-0.1-2.1,0-3.1c0.1-0.9-0.3-1.1-1.1-1.2c-2.7-0.2-5.4-0.6-8.1-0.8
			c-2.3-0.2-4.7-0.5-7-0.7c-0.3,0-0.8-0.3-0.8,0.3c-0.1,1.3,0,2.6,0,3.9c0.8-0.3,1.1-1.1,1.9-1c1.4,0.2,2.8,0.4,4.2,0.5
			c0.6,0,0.7,0.3,0.7,0.8c0,2.9,0,5.9,0,8.8c0,1.1,0.1,2.3-1,3c0,0,0,0.1,0,0.2c1.8,0.2,3.6,0.4,5.4,0.6c-0.3-0.8-1.1-1.1-1.1-1.9
			c0-3.5,0-6.9,0-10.4c0-0.5,0.1-0.7,0.6-0.6c0.7,0.1,1.4,0.1,2,0.2C341,221.9,342.6,221.6,343.5,223.4z M239.7,224.1
			c0-0.1,0.1-0.1,0.1-0.2c0-0.6,0-1.2,0-1.9c0-0.7,0.3-1.7-0.1-2.1c-0.5-0.5-1.4,0.1-2.2,0.2c-0.1,0-0.1,0-0.2,0
			c-4.6,0.8-9.2,1.6-13.7,2.5c-0.3,0.1-0.7,0-0.7,0.5c0,1.3,0,2.5,0,3.8c0.4-0.1,0.6-0.4,0.7-0.6c0.3-0.5,0.8-0.7,1.4-0.8
			c1.3-0.2,2.5-0.4,3.8-0.7c0.7-0.1,0.9,0,0.9,0.8c0,2.7,0,5.4,0,8.1c0,1.3,0.2,2.7-1,3.8c0,0,0,0.1,0,0.2c1.8-0.3,3.5-0.6,5.3-0.9
			c-1.4-1-1-2.3-1-3.6c0-2.2,0-4.3,0-6.5c0-0.8-0.2-1.8,0.1-2.3c0.4-0.6,1.5-0.4,2.2-0.6c0.3-0.1,0.5-0.1,0.8-0.1
			C237.3,223.3,238.6,222.7,239.7,224.1z M260.5,220.6c0,0.5,0,0.8,0,1.1c0,2.5,0,5,0,7.5c0,2.7-2,5.1-4.7,5.6
			c-0.9,0.2-1.8,0.2-2.6,0.3c-2.3,0.3-4.6,0.5-7.1,0.8c0.7,0.7,1.5,0.7,2.2,0.7c2.8-0.3,5.7-0.5,8.5-1c2.6-0.4,4.5-2.8,4.6-5.5
			c0-2.4,0-4.8,0-7.2C261.4,222.1,261.2,221.4,260.5,220.6z M350.2,237.1c0.7,0.9,1.6,1.2,2.6,1.4c2.5,0.4,5,0.8,7.4,1.2
			c2.9,0.5,5.1-1.4,5.1-4.3c0-2.3,0-4.6,0-6.8c0-0.9-0.2-1.7-0.9-2.5c0,2.9,0,5.6,0,8.3c0,2.9-2.2,4.8-5.1,4.4
			c-1.5-0.2-2.9-0.5-4.4-0.8C353.4,237.6,351.8,237.3,350.2,237.1z M302.7,219.5c0,0.3,0,0.5,0,0.6c0,2.5,0,4.9,0,7.4
			c0,3.4-2.2,5.5-5.5,5.5c-2.7,0-5.4,0-8.1,0c-0.2,0-0.5-0.1-0.6,0.2c0.7,0.4,1.4,0.7,2.2,0.7c2.7,0,5.3,0,8,0
			c2.5,0,4.6-1.9,4.9-4.3c0.3-2.6,0.1-5.3,0.1-7.9C303.5,220.9,303.3,220.2,302.7,219.5z M325.8,219.2c-0.5-0.3-0.8-0.2-1.2-0.2
			c-0.9-0.2-1.1,0.2-1.1,1.1c0,3.5,0,7.1,0,10.6c0,0.7,0.3,1.1,1,1.5c0-0.4,0-0.7,0-1c0-2.9,0-5.7,0-8.6
			C324.5,221.3,324.3,219.9,325.8,219.2z M342.7,224c-0.3-0.7-0.7-1-1.4-1.1c-0.9,0-1.8-0.2-2.6-0.3c-0.6-0.1-0.8,0.1-0.8,0.7
			c0,2.8,0,5.7,0,8.5c0,0.7,0.4,1.1,1,1.5c0-3,0-5.9,0-8.8c0-0.8,0.3-1,1-0.9C340.7,223.8,341.6,223.9,342.7,224z M234.7,235.4
			c0.2-0.4,0.1-0.7,0.1-1c0-2.6,0-5.3,0-7.9c0-0.7,0.2-0.9,0.8-1c0.8-0.1,1.5-0.2,2.3-0.4c0.2,0,0.5,0,0.6-0.3
			c0-0.3-0.3-0.4-0.5-0.5c-0.2-0.1-0.5,0-0.7,0c-0.8,0.1-1.7,0.4-2.5,0.5c-0.6,0.1-0.8,0.3-0.8,0.9c0,2.8,0,5.7,0,8.5
			C233.9,234.8,234.1,235.2,234.7,235.4z M268.7,231.6c0.2-0.2,0.1-0.5,0.1-0.7c-0.1-0.9,0.3-1.1,1.2-1.2c1.8,0,3.6-0.2,5.4-0.3
			c0.3,0,0.8,0.1,0.8-0.5c0-0.6-0.5-0.4-0.8-0.4c-2.2,0.1-4.5,0.2-6.7,0.4c-0.2,0-0.5,0-0.6,0.3
			C267.6,229.8,268.1,231.2,268.7,231.6z M281.5,219.5c0,1,0,1.9,0,2.7c0,1-0.2,1.9-0.7,2.7c-0.1,0.2-0.5,0.5-0.1,0.8
			c0.4,0.3,0.6-0.1,0.9-0.3c1-1,1-2.3,0.9-3.6C282.4,221.1,282.3,220.2,281.5,219.5z M325.7,235.1c-0.4-0.6-0.7-1-1.3-1
			c-1.3,0-2.5-0.2-3.8-0.2c-0.3,0-0.7-0.2-0.7,0.2c0,0.3,0.2,0.6,0.7,0.7C322.2,234.8,323.9,235,325.7,235.1z M277.9,234.2
			c2-0.1,3.8-0.2,5.7-0.3C282.7,232.7,278.8,232.9,277.9,234.2z M340,236.6c-0.4-0.8-0.9-1.1-1.6-1.1c-0.9,0-1.8-0.1-2.6-0.3
			c-0.7-0.1-1.1,0.1-1.5,0.8C336.2,236.2,338,236.4,340,236.6z M236.1,238.2c-1.1-1.1-5.1-0.3-5.7,1
			C232.3,238.9,234.1,238.6,236.1,238.2z M310.2,223.9c0,0.1-0.1,0.2-0.1,0.2c0,2,0,4,0,6c0,0.5,0.3,0.7,0.8,0.9c0-2.1,0-4.1,0-6
			C310.9,224.6,310.6,224.3,310.2,223.9z M264.4,235c1.7-0.1,3.3-0.2,4.9-0.3c0.2,0,0.5,0,0.6-0.3c0-0.3-0.2-0.4-0.4-0.5
			c-0.2-0.2-0.4-0.1-0.7-0.1c-1,0.1-1.9,0.2-2.9,0.3C265.2,234,264.8,234.3,264.4,235z M312.1,234.2c-0.1-0.4-0.4-0.8-0.7-0.8
			c-1.3-0.1-2.7-0.1-4.1-0.1c-0.3,0-0.6,0.3-0.6,0.6c0,0.3,0.4,0.3,0.6,0.3C308.9,234.2,310.4,234.2,312.1,234.2z M328.7,223.9
			c0.9-1.3,2-1.1,3.1-1c0.3,0,0.5,0.2,0.6-0.3c0-0.4,0-0.6-0.5-0.7c-0.5,0-1.1-0.1-1.6-0.2C328.6,221.7,328.6,221.7,328.7,223.9z
			 M224.8,228.8c0.7-1.4,1.7-1.8,3-1.9c0.1,0,0.2,0,0.3-0.1c0.3-0.1,0.4-0.3,0.4-0.6c-0.1-0.4-0.3-0.2-0.5-0.2
			c-0.6,0.1-1.1,0.2-1.7,0.2c-1.8,0.3-1.8,0.3-1.7,2.1C224.7,228.4,224.7,228.5,224.8,228.8z M241.7,223.5c0-0.5,0-1,0-1.5
			c0-0.3,0.1-0.7-0.4-0.6c-0.4,0-0.6,0.2-0.6,0.7c0,0.9,0,1.8,0,2.6c0,0.4,0.2,0.6,0.5,0.8c0.4,0.2,0.5,0.2,0.5-0.3
			C241.7,224.6,241.7,224,241.7,223.5z M345.6,225.5c0-1.4,0-2.6,0-3.9c0-0.3-0.1-0.5-0.5-0.5c-0.4,0-0.4,0.2-0.4,0.5
			c0,0.8,0,1.6,0,2.4C344.7,224.7,345,225.1,345.6,225.5z M281.5,228.2c0,0.6,0,1.1,0,1.6c0,0.5,0.2,0.9,0.6,1.1
			c0.2,0.1,0.4,0.2,0.4-0.1C282.7,230.1,282.2,228.8,281.5,228.2z"/>
		<path class="st0" d="M344.5,204.9c-1.7-2.4-3.4-4.7-5-7.1c-0.5-0.7-1.1-1-1.9-1.1c-4.1-0.4-8.2-0.9-12.3-1.2
			c-6.7-0.6-13.3-0.9-20-1.2c-0.8,0-1,0.2-1,1c0,3.2,0,6.4,0,9.6c0,0.6-0.2,0.8-0.8,0.8c-6.3-0.1-12.5-0.1-18.8,0
			c-0.7,0-0.8-0.2-0.8-0.9c0-3.3,0-6.5,0-9.8c0-0.6-0.2-0.8-0.8-0.8c-7,0.2-13.9,0.6-20.9,1.2c-4.1,0.4-8.2,0.8-12.3,1.2
			c-0.5,0.1-0.8,0.3-1.1,0.7c-1.6,2.3-3.2,4.6-4.8,6.8c-0.2,0.2-0.3,0.5-0.6,0.7c-0.2-0.3-0.1-0.6-0.1-1c0-7,0-13.9,0-20.9
			c0-0.8,0.3-1,1-1.1c5.9-0.7,11.8-1.3,17.7-1.9c9.2-0.8,18.5-1.3,27.7-1.4c9.4-0.1,18.9,0.1,28.3,0.8c8.6,0.6,17.1,1.4,25.7,2.5
			c0.8,0.1,1,0.4,1,1.2c0,6.9,0,13.9,0,20.8c0,0.3,0,0.6,0,0.9C344.7,204.9,344.6,204.9,344.5,204.9z"/>
		<path class="st0" d="M281.6,141.8c0.1-0.3-0.1-0.6-0.2-0.9c-0.9-2.6-1.7-5.2-2.6-7.9c-0.2-0.6-0.2-0.9,0.6-0.8c0,0,0.1,0,0.1,0
			c2.7,0.4,5-0.5,7-2.3c2.2-1.8,4.6-3.4,6.9-5.1c0.5-0.4,0.8-0.4,1.3,0c3.1,2.3,6.2,4.5,9.3,6.8c0.6,0.4,1.1,0.6,1.8,0.6
			c1,0,2,0,3,0c0.6,0,0.7,0.2,0.5,0.7c-0.9,2.6-1.7,5.2-2.5,7.8c-0.1,0.3-0.3,0.6-0.2,1c0.4,0,0.6-0.2,0.8-0.4
			c2.2-1.6,4.4-3.2,6.6-4.8c0.5-0.4,0.9-0.5,1,0.3c0.4,2.9,2.2,4.8,4.6,6.3c2.3,1.4,4.3,3.1,6.5,4.6c0.6,0.4,0.7,0.7,0.5,1.4
			c-1.1,3.5-2.2,7-3.3,10.5c-0.3,0.8-0.1,0.9,0.7,1c6.8,0.5,13.5,1.2,20.3,2.1c3.2,0.4,6.5,0.9,9.7,1.3c0.9,0.1,1.3,0.4,1.2,1.4
			c-0.1,1.4,0,2.8,0,4.2c0,0.6-0.2,0.8-0.8,0.7c-3.1-0.5-6.2-0.9-9.3-1.3c-5.1-0.7-10.3-1.2-15.5-1.7c-6.5-0.6-13-1-19.5-1.3
			c-1.2-0.1-2.4-0.1-3.6-0.1c-0.5,0-0.8,0.2-1.1,0.4c-3.5,2.6-7.1,5.1-10.6,7.7c-0.5,0.4-0.9,0.4-1.4,0c-3.5-2.6-6.9-5.1-10.4-7.6
			c-0.5-0.4-0.9-0.5-1.5-0.5c-9.3,0.3-18.7,1-28,2c-6.6,0.7-13.1,1.5-19.7,2.5c-0.6,0.1-0.8,0-0.8-0.7c0-1.5,0-3,0-4.5
			c0-0.7,0.2-0.9,0.9-1c3.6-0.5,7.2-1,10.7-1.5c5.5-0.7,11.1-1.2,16.6-1.7c1-0.1,2-0.2,3-0.2c0.8,0,0.8-0.3,0.6-0.9
			c-1.1-3.4-2.1-6.9-3.2-10.3c-0.3-0.9-0.1-1.3,0.7-1.9c3-2.1,6-4.3,9-6.4c0.5-0.3,0.8-0.7,1-1.3c0.3-1,0.7-2,0.9-3.1
			c0.2-0.6,0.4-0.6,0.9-0.3c2.3,1.7,4.7,3.4,7,5.1C281.2,141.6,281.3,141.8,281.6,141.8z M272,159.9c2.6-0.1,5.1-0.3,7.7-0.4
			c0.4,0,0.7-0.2,0.8-0.6c0.8-2.6,1.7-5.1,2.5-7.7c0.2-0.5,0.1-0.7-0.3-1c-2.2-1.5-4.3-3.1-6.4-4.6c-0.4-0.3-0.7-0.3-1.1,0
			c-2.1,1.6-4.3,3.1-6.4,4.6c-0.4,0.3-0.5,0.6-0.3,1c0.9,2.7,1.8,5.4,2.6,8.1C271.3,159.9,271.5,160.1,272,159.9z M316.2,159.9
			c0.5,0.1,0.7-0.2,0.8-0.6c0.9-2.7,1.7-5.5,2.6-8.2c0.2-0.5,0-0.7-0.3-1c-2.2-1.6-4.3-3.1-6.5-4.7c-0.3-0.2-0.6-0.3-0.9,0
			c-2.2,1.6-4.4,3.2-6.5,4.8c-0.3,0.2-0.4,0.5-0.3,0.8c0.9,2.6,1.7,5.3,2.5,7.9c0.1,0.4,0.3,0.5,0.7,0.5
			C310.9,159.6,313.6,159.8,316.2,159.9z M294,152.6c-1.3,0-2.6,0-3.9,0c-0.5,0-0.8,0.2-0.9,0.7c-0.8,2.5-1.6,5-2.4,7.4
			c-0.2,0.5-0.1,0.8,0.3,1.1c2.2,1.5,4.3,3.1,6.4,4.6c0.4,0.3,0.7,0.3,1.1,0c2.1-1.6,4.3-3.1,6.4-4.6c0.4-0.3,0.5-0.6,0.3-1
			c-0.8-2.5-1.7-5-2.4-7.5c-0.2-0.5-0.4-0.7-1-0.7C296.7,152.6,295.3,152.6,294,152.6z M294,146.1c1.3,0,2.6,0,3.8,0
			c0.6,0,0.9-0.1,1.1-0.8c0.8-2.5,1.6-4.9,2.4-7.4c0.2-0.5,0.1-0.8-0.4-1.1c-2.1-1.5-4.2-3-6.3-4.6c-0.4-0.3-0.7-0.4-1.2,0
			c-2.1,1.6-4.3,3.1-6.4,4.7c-0.4,0.3-0.5,0.6-0.3,1c0.8,2.5,1.6,5,2.4,7.4c0.2,0.6,0.5,0.7,1,0.7
			C291.5,146.1,292.8,146.1,294,146.1z"/>
		<path class="st0" d="M304.3,268.7c0,7.8,0,15.7,0,23.5c0,0.7,0.2,1.1,0.7,1.6c1.8,1.5,3.6,3,5.4,4.5c0.5,0.4,0.6,0.6-0.1,0.9
			c-5.1,2.5-10.3,4.7-15.7,6.5c-0.4,0.1-0.8,0.1-1.2,0c-5.4-1.8-10.6-4-15.7-6.5c-0.6-0.3-0.6-0.5-0.1-0.9c1.8-1.5,3.7-3,5.5-4.5
			c0.5-0.4,0.7-0.9,0.7-1.6c0-15.7,0-31.5,0-47.2c0-1.4-0.1-1.2,1.2-1.2c6.1-0.1,12.1-0.1,18.2,0c0.9,0,1.1,0.3,1.1,1.1
			C304.3,252.8,304.3,260.8,304.3,268.7z"/>
		<path class="st0" d="M355.2,257.9c0,3.1,0,7.1-0.9,11.1c-1.5,6.4-4.6,11.9-8.8,16.9c-5.4,6.4-11.9,11.5-19.1,15.9
			c-9.9,6-20.4,10.7-31.5,14.2c-0.6,0.2-1.2,0.2-1.8,0c-12.4-4-24.2-9.3-35-16.6c-6.6-4.4-12.6-9.5-17.3-16
			c-4.2-5.6-6.9-11.9-7.6-18.9c-0.2-2.2-0.2-4.4-0.2-6.7c0-2.8,0-5.6,0-8.4c0-0.6,0.1-0.8,0.8-0.9c1.7-0.2,3.3-0.5,5-0.8
			c0.7-0.1,1,0,1,0.8c0,3.6,0.1,7.3,0,10.9c-0.3,8.4,2.7,15.5,7.9,21.9c4.5,5.4,9.9,9.7,15.8,13.6c5.4,3.5,11.2,6.5,17.1,9.1
			c4.2,1.8,8.5,3.5,12.9,5c0.4,0.1,0.8,0.2,1.3,0.1c12.3-4.1,24-9.4,34.5-17.1c5.8-4.2,11-9,14.8-15.2c3.1-5,4.7-10.4,4.6-16.3
			c-0.1-3.9,0-7.9,0-11.8c0-0.8,0.2-1.1,1-0.9c1.7,0.3,3.3,0.6,5,0.9c0.6,0.1,0.7,0.3,0.7,0.9C355.2,252,355.2,254.5,355.2,257.9z"
			/>
		<path class="st0" d="M298.5,175c1.3-1,2.7-2,4.1-3c1.3-1,2.7-1.9,4-2.9c0.4-0.3,0.7-0.4,1.1-0.4c5.6,0.2,11.3,0.6,16.9,1
			c5.6,0.4,11.3,1,16.9,1.7c4.3,0.5,8.6,1.1,12.9,1.7c0.6,0.1,0.8,0.3,0.8,0.9c0,3.8,0,7.7,0,11.5c0,8,0,16,0,23.9
			c0,0.8-0.3,1-1,0.9c-1.6-0.3-3.2-0.6-4.8-0.8c-0.7-0.1-0.9-0.4-0.9-1.1c0-9.4,0-18.9,0-28.3c0-1.2,0-1.2-1.2-1.4
			c-6.1-0.8-12.2-1.5-18.3-2.1c-5.1-0.5-10.3-0.9-15.4-1.1c-4.9-0.3-9.8-0.4-14.7-0.5C298.8,175.1,298.6,175.2,298.5,175z"/>
		<path class="st0" d="M289.6,175.2c-1.5,0-3,0-4.5,0c-8.6,0.2-17.1,0.7-25.7,1.5c-6.3,0.6-12.7,1.3-19,2.1c-0.7,0.1-0.8,0.4-0.8,1
			c0,9.5,0,19,0,28.5c0,0.8-0.2,1.1-1,1.2c-1.6,0.2-3.2,0.5-4.8,0.8c-0.6,0.1-0.8,0-0.8-0.7c0-11.9,0-23.8,0-35.7
			c0-0.5,0.1-0.8,0.7-0.9c5.9-0.9,11.9-1.6,17.8-2.3c6.7-0.7,13.4-1.3,20.1-1.7c2.9-0.2,5.9-0.3,8.8-0.4c0.4,0,0.7,0,1,0.2
			c2.7,2,5.5,4,8.2,6C289.6,175,289.6,175.1,289.6,175.2z"/>
		<path class="st0" d="M360.9,261.1c0.3-0.4,0.6-0.4,0.9-0.5c5.2-2.1,10.5-4.2,15.7-6.3c0.6-0.2,0.8-0.4,0.6-1.1
			c-1.5-6.8-3-13.6-4.5-20.5c-0.3-1.4,0.5-2.5,0.7-3.8c0.1-0.3,0.3-0.2,0.5-0.1c2.5,0.5,5.1,1,7.6,1.5c0.4,0.1,0.5,0.3,0.5,0.7
			c0,1.3,0,2.7,0,4c0,0.6,0.2,0.9,0.5,1.3c4,4.2,7.9,8.4,11.8,12.6c0.5,0.5,0.5,0.7-0.1,1.1c-3.9,2.7-7.7,5.4-11.6,8.1
			c-0.5,0.3-0.7,0.7-0.7,1.3c0,1.5,0,3,0,4.5c0,0.5,0,0.7-0.6,0.6c-7-1.2-14-2.3-21.1-3.3C361.2,261.2,361.1,261.2,360.9,261.1z"/>
		<path class="st0" d="M227.1,261.2c-1.9,0.3-3.9,0.5-5.8,0.9c-5.1,0.8-10.3,1.6-15.4,2.5c-0.7,0.1-0.9,0-0.8-0.7c0-1.5,0-2.9,0-4.4
			c0-0.6-0.2-1-0.7-1.4c-3.8-2.7-7.6-5.4-11.5-8c-0.6-0.4-0.6-0.7-0.1-1.2c3.9-4.2,7.9-8.3,11.8-12.5c0.4-0.4,0.5-0.7,0.5-1.3
			c0-1.3,0-2.6,0-3.9c0-0.5,0.1-0.8,0.7-0.9c2.4-0.4,4.7-0.9,7.1-1.4c0.7-0.2,0.9,0.1,1.1,0.7c0.5,1.7,0.5,3.2,0.1,5
			c-1.5,6.2-2.8,12.4-4.2,18.5c-0.2,0.7-0.1,1,0.7,1.3c5.2,2,10.4,4.1,15.6,6.2c0.3,0.1,0.6,0.3,1,0.4
			C227.1,261.1,227.1,261.1,227.1,261.2z"/>
		<path class="st0" d="M260.1,260c0,4.5,0,9.1,0,13.6c0,0.3,0.2,0.8-0.2,1c-0.3,0.2-0.5-0.3-0.8-0.5c-2.8-2.1-5.5-4.5-7.9-7
			c-3-3.3-5.8-6.8-7.2-11.1c-0.4-1.3-0.7-2.6-0.7-3.9c0-1.2,0-2.3,0-3.5c0-1.6,0-1.5,1.6-1.7c4.7-0.6,9.5-1.1,14.2-1.6
			c0.7-0.1,1,0,0.9,0.8C260.1,250.7,260.1,255.4,260.1,260z"/>
		<path class="st0" d="M328.1,259.9c0-4.6,0-9.1,0-13.7c0-0.8,0.3-1,1-0.9c3.2,0.4,6.4,0.7,9.6,1c1.8,0.2,3.6,0.5,5.4,0.7
			c0.3,0,0.5,0.1,0.5,0.5c-0.1,3.2,0.4,6.4-1,9.5c-1.3,3.1-3.2,5.9-5.4,8.5c-2.7,3.2-5.8,6-9.1,8.6c-0.3,0.2-0.6,0.7-0.9,0.5
			c-0.3-0.2-0.1-0.7-0.1-1C328.1,269,328.1,264.4,328.1,259.9z"/>
		<path class="st0" d="M263,286.4c0-1.1,0-2.3,0-3.4c0-0.2-0.1-0.5,0.1-0.6c0.2-0.1,0.4,0.1,0.5,0.2c4.1,2.7,8.4,5,12.8,7.1
			c1.2,0.6,2.4,1.1,3.6,1.6c0.6,0.2,0.7,0.5,0.2,0.9c-1.9,1.6-3.8,3.2-5.7,4.8c-0.3,0.2-0.5,0.2-0.8,0c-3.5-1.9-7-4-10.3-6.3
			c-0.4-0.2-0.4-0.5-0.4-0.9C263,288.7,263,287.6,263,286.4z"/>
		<path class="st0" d="M325.1,282.3c0,2.7,0,5.3,0,7.9c0,0.4-0.2,0.5-0.5,0.7c-3.3,2.2-6.6,4.3-10.1,6.2c-0.5,0.2-0.8,0.2-1.2-0.1
			c-1.7-1.5-3.5-2.9-5.2-4.4c-0.9-0.7-0.9-0.8,0.2-1.3c5.6-2.4,10.9-5.2,16-8.5C324.5,282.6,324.8,282.5,325.1,282.3z"/>
		<path class="st0" d="M243.6,263.8c1.3,1.7,2.5,3.4,3.9,5c3.5,4.1,7.5,7.7,11.9,10.8c0.5,0.4,0.8,0.8,0.7,1.5c0,2.4,0,4.7,0,7.3
			c-4.2-3.2-7.8-6.7-10.9-10.8C246.2,273.5,244.1,269,243.6,263.8z"/>
		<path class="st0" d="M344.7,263.5c-0.3,3.4-1.3,6.4-2.7,9.3c-2.4,4.8-5.9,8.7-9.8,12.3c-1.2,1.1-2.4,2.2-3.9,3.2
			c0-0.6,0-1.1,0-1.5c0-1.9,0-3.9,0-5.8c0-0.6,0.2-1,0.7-1.4c4.8-3.5,9.1-7.4,12.8-12C342.6,266.3,343.5,265,344.7,263.5z"/>
		<path class="st0" d="M260.1,202.9c0,1.1,0,2.3,0,3.4c0,0.6-0.2,0.8-0.8,0.9c-4.3,0.3-8.5,0.8-12.8,1.3c-0.2,0-0.4,0.2-0.6,0
			c-0.2-0.2,0.1-0.4,0.2-0.6c2-2.6,3.9-5.1,5.9-7.7c0.4-0.5,0.9-0.8,1.5-0.9c1.9-0.1,3.7-0.3,5.6-0.5c0.6-0.1,1,0,0.9,0.8
			C260.1,200.7,260.1,201.8,260.1,202.9z"/>
		<path class="st0" d="M342.4,208.5c-2.2-0.2-4.4-0.5-6.6-0.7c-2.2-0.2-4.5-0.5-6.7-0.7c-0.7-0.1-1-0.2-1-1c0-2.2,0-4.4,0-6.6
			c0-0.7,0.2-0.9,0.9-0.8c1.8,0.2,3.6,0.4,5.5,0.5c0.7,0.1,1.1,0.2,1.6,0.8c2,2.7,4.1,5.3,6.2,8
			C342.3,208.2,342.3,208.4,342.4,208.5z"/>
		<path class="st0" d="M373.1,252.7c-2.6,1.1-5.3,2.1-7.9,3.2c-2,0.8-4.1,1.6-6.1,2.5c-0.7,0.3-0.8,0.1-0.8-0.6c0-2.5,0-5.1,0-7.6
			c0-0.7,0.1-0.8,0.8-0.7c3.5,0.7,7.1,1.5,10.6,2.3c1.1,0.3,2.2,0.5,3.3,0.8C373.1,252.6,373.1,252.7,373.1,252.7z"/>
		<path class="st0" d="M214.9,252.6c2-0.6,3.9-1,5.9-1.4c2.8-0.6,5.6-1.2,8.4-1.8c0.5-0.1,0.7-0.1,0.7,0.6c0,2.6,0,5.3,0,7.9
			c0,0.5,0,0.7-0.6,0.5c-4.7-1.9-9.3-3.7-14-5.6C215.1,252.8,215.1,252.7,214.9,252.6z"/>
		<path class="st0" d="M269.9,261.7c-1.5,0-2.7,0-4.2,0c1-0.6,0.8-1.4,0.8-2.2c0-1.7,0-3.3,0-5c0-0.7,0-1.4-0.6-1.9
			c0.2-0.2,0.5-0.2,0.7-0.2c3.6,0,7.2,0,10.8,0c0.7,0,1,0.2,0.9,0.9c0,0.2,0,0.4,0,0.6c0,0.7,0.1,1.4-0.9,0.7
			c-0.1-0.1-0.4-0.1-0.6-0.1c-2.3,0-4.5,0-6.8,0c-0.5,0-0.8,0-0.8,0.7c0,0.7,0.3,0.7,0.8,0.7c1.8,0,3.6,0,5.3,0
			c0.6,0,0.9,0.1,0.9,0.8c-0.1,1.5,0.1,1.3-1.3,1.4c-1.7,0-3.3,0-5,0c-0.5,0-0.8,0.2-0.7,0.7C269.2,259.8,268.8,260.8,269.9,261.7z"
			/>
		<path class="st0" d="M322.2,255.2c-0.7-0.6-1.4-0.6-2-0.6c-2,0-4,0-6,0c-1.1,0-1.3,0.3-1.4,1.4c0,0.7,0,1.4,0,2.1
			c0,1.2,0.2,1.4,1.4,1.4c2.3,0,4.7,0,7,0c0.3,0,0.8-0.2,0.9,0.2c0.1,0.6,0.2,1.2,0,1.8c-0.1,0.2-0.4,0.1-0.6,0.1
			c-2.6,0-5.3,0-7.9,0c-2.3,0-3.5-1.3-3.5-3.6c0-0.7,0-1.5,0-2.2c0-1.7,0.9-2.8,2.6-3.2c0.8-0.2,1.7-0.1,2.5-0.1c2,0,4.1,0,6.1,0
			c0.7,0,0.9,0.2,0.8,0.9C322.1,253.9,322.2,254.4,322.2,255.2z"/>
		<path class="st1" d="M319.3,228.3c0-1.8,0-3.4,0-4.9c0-1.1,0-2.1,0-3.2c0-1.2,0.3-2.5-1.1-3.3c0.1-0.1,0.1-0.1,0.2-0.2
			c1.8,0.1,3.6,0.2,5.3,0.3c0,0.1,0,0.2,0,0.2c-1.1,0.8-1.1,1.9-1.1,3.1c0,3,0,6,0,9c0,2.1,0,2.1,1.2,3.8c-1.8-0.1-3.6-0.2-5.3-0.4
			c-0.3,0-0.4-0.4-0.6-0.6c-2.7-3.5-5.4-7-8.1-10.5c-0.2-0.2-0.3-0.5-0.6-0.6c-0.2,0.3-0.1,0.6-0.1,0.8c0,2.4,0,4.8,0,7.2
			c0,1.2,0,2.4,1.4,3.2c-2.1,0-3.8,0-5.6,0c-0.1-0.2-0.1-0.3,0-0.4c1-0.6,1-1.6,1-2.6c0-3.2,0-6.4,0-9.6c0-1.2,0.3-2.5-1.3-3.3
			c2,0,3.7,0,5.4,0c0.3,0,0.4,0.4,0.6,0.6C313.4,220.6,316.2,224.3,319.3,228.3z"/>
		<path class="st1" d="M278.7,225.6c1.5,0.7,1.9,1.9,1.8,3.3c-0.1,1.2-0.2,2.4,1.2,3.1c-1.9,0.4-3.8,0.3-5.6,0.4c0-0.1,0-0.2,0-0.2
			c1.3-0.9,1.1-2.3,1.1-3.6c0-0.8-0.4-1.1-1.1-1.1c-2.9,0.2-5.8,0.3-8.7,0.5c-0.4,0-0.5,0.2-0.5,0.6c0,0.8,0,1.7,0,2.5
			c0,0.8,0.8,1,1.1,1.7c-1.8,0.1-3.5,0.3-5.3,0.4c0-0.1,0-0.3,0-0.3c1.1-0.7,1-1.8,1-2.9c0-3.1,0-6.1,0-9.2c0-1.3,0.3-2.7-1.1-3.6
			c1.6-0.1,3.2-0.2,4.8-0.3c3-0.2,5.9-0.4,8.9-0.6c2.5-0.1,4.1,1.4,4.2,3.9c0,0.5,0,1,0,1.4C280.6,223.2,280.3,224.6,278.7,225.6z
			 M271.6,224.6C271.6,224.6,271.6,224.6,271.6,224.6c1.4-0.1,2.9-0.1,4.3-0.2c1-0.1,1.2-0.3,1.3-1.3c0-0.9,0-1.8,0-2.7
			c0-0.7-0.3-1-1-1c-2.9,0.2-5.8,0.3-8.7,0.5c-0.5,0-0.7,0.2-0.7,0.7c0,1.2,0,2.4,0,3.6c0,0.6,0.2,0.7,0.7,0.7
			C268.9,224.7,270.3,224.7,271.6,224.6z"/>
		<path class="st1" d="M293.1,231.9c-1.5,0-3,0-4.5,0c-2.2,0-3.9-1.5-4-3.7c-0.1-2.9-0.1-5.8,0-8.7c0.1-2.2,1.8-3.7,3.9-3.7
			c3,0,6,0,9,0c2.3,0,3.9,1.7,4,4c0,2.7,0,5.4,0,8.1c0,2.3-1.7,4-4,4C296,231.9,294.6,231.9,293.1,231.9z M293.1,228.8
			c1.3,0,2.7,0,4,0c0.8,0,1.2-0.3,1.1-1.1c0-2.5,0-5,0-7.6c0-0.7-0.3-1.1-1-1.1c-2.7,0-5.5,0-8.2,0c-0.7,0-1.1,0.4-1.1,1.1
			c0,2.5,0,5,0,7.6c0,0.8,0.4,1.1,1.1,1.1C290.4,228.7,291.8,228.8,293.1,228.8z"/>
		<path class="st1" d="M259.5,225.4c0,1.2,0,2.5,0,3.7c0,2.6-1.8,4.5-4.3,4.7c-2.8,0.3-5.7,0.6-8.5,0.9c-2.5,0.2-4.1-1.2-4.1-3.8
			c0-2.5,0-5,0-7.6c0-2.6,1.8-4.5,4.4-4.7c2.6-0.3,5.2-0.6,7.8-0.8c0.5,0,0.9-0.1,1.4-0.1c1.8,0,3.2,1.3,3.3,3.2
			C259.5,222.4,259.4,223.9,259.5,225.4C259.4,225.4,259.5,225.4,259.5,225.4z M256.2,225.7c0-1.3,0-2.6,0-3.8c0-0.7-0.3-1-1-0.9
			c-2.7,0.3-5.5,0.6-8.2,0.9c-0.7,0.1-1.1,0.5-1.1,1.2c0,2.6,0,5.1,0,7.7c0,0.7,0.3,1,1,0.9c2.7-0.3,5.5-0.6,8.2-0.9
			c0.8-0.1,1.1-0.5,1.1-1.2C256.2,228.2,256.2,227,256.2,225.7z"/>
		<path class="st1" d="M346.5,227.3c0-1.3,0-2.7,0-4c0-2.2,1.7-3.6,3.8-3.3c3.1,0.5,6.3,1,9.4,1.6c2.1,0.4,3.7,2.4,3.7,4.6
			c0,2.7,0,5.4,0,8.1c0,2.4-1.8,3.7-4.3,3.3c-2.7-0.5-5.5-0.9-8.2-1.4c-1.3-0.2-2.4-0.8-3.2-1.7c-0.8-0.9-1.2-1.9-1.2-3.1
			C346.5,230,346.5,228.7,346.5,227.3z M360.1,229.7c0-1.3,0-2.6,0-3.8c0-0.7-0.3-1.1-1-1.2c-2.7-0.5-5.4-0.9-8.1-1.4
			c-0.9-0.1-1.2,0.1-1.2,0.9c0,2.5,0,5,0,7.6c0,0.7,0.3,1.1,1,1.3c2.7,0.5,5.4,1,8.1,1.4c0.9,0.2,1.1-0.1,1.1-1
			C360.1,232.2,360.1,230.9,360.1,229.7z"/>
		<path class="st1" d="M343.5,223.4c-0.9-1.8-2.5-1.4-4-1.6c-0.7-0.1-1.4-0.1-2-0.2c-0.5-0.1-0.6,0.1-0.6,0.6c0,3.5,0,6.9,0,10.4
			c0,0.8,0.8,1.1,1.1,1.9c-1.9-0.2-3.7-0.4-5.4-0.6c0-0.1-0.1-0.2,0-0.2c1.1-0.7,1-1.8,1-3c0-2.9,0-5.9,0-8.8c0-0.6-0.1-0.8-0.7-0.8
			c-1.4-0.1-2.8-0.2-4.2-0.5c-0.9-0.1-1.1,0.7-1.9,1c0-1.3,0-2.6,0-3.9c0-0.5,0.5-0.3,0.8-0.3c2.3,0.2,4.7,0.5,7,0.7
			c2.7,0.3,5.4,0.6,8.1,0.8c0.8,0.1,1.2,0.3,1.1,1.2c-0.1,1,0,2.1,0,3.1C343.6,223.2,343.5,223.3,343.5,223.4z"/>
		<path class="st1" d="M239.7,224.1c-1-1.5-2.3-0.9-3.6-0.6c-0.3,0.1-0.5,0.1-0.8,0.1c-0.8,0.2-1.8,0-2.2,0.6
			c-0.4,0.6-0.1,1.5-0.1,2.3c0,2.2,0,4.3,0,6.5c0,1.3-0.4,2.6,1,3.6c-1.8,0.3-3.5,0.6-5.3,0.9c0-0.1-0.1-0.2,0-0.2
			c1.2-1,1-2.4,1-3.8c0-2.7,0-5.4,0-8.1c0-0.8-0.3-0.9-0.9-0.8c-1.2,0.3-2.5,0.5-3.8,0.7c-0.6,0.1-1.1,0.3-1.4,0.8
			c-0.2,0.2-0.3,0.5-0.7,0.6c0-1.3,0-2.6,0-3.8c0-0.5,0.4-0.4,0.7-0.5c4.6-0.8,9.2-1.6,13.7-2.5c0.1,0,0.1,0,0.2,0
			c0.8-0.1,1.7-0.7,2.2-0.2c0.5,0.4,0.1,1.4,0.1,2.1c0,0.6,0,1.2,0,1.9C239.7,224,239.7,224.1,239.7,224.1z"/>
		<path class="st0" d="M260.5,220.6c0.7,0.8,0.9,1.5,0.9,2.3c0,2.4,0,4.8,0,7.2c0,2.7-1.9,5.1-4.6,5.5c-2.8,0.4-5.6,0.7-8.5,1
			c-0.8,0.1-1.5,0-2.2-0.7c2.5-0.3,4.8-0.5,7.1-0.8c0.9-0.1,1.8-0.2,2.6-0.3c2.7-0.5,4.7-2.8,4.7-5.6c0-2.5,0-5,0-7.5
			C260.5,221.4,260.5,221.2,260.5,220.6z"/>
		<path class="st0" d="M350.2,237.1c1.6,0.3,3.2,0.6,4.8,0.8c1.5,0.3,2.9,0.5,4.4,0.8c2.9,0.4,5.1-1.4,5.1-4.4c0-2.7,0-5.4,0-8.3
			c0.7,0.8,0.9,1.7,0.9,2.5c0,2.3,0,4.6,0,6.8c0,2.9-2.2,4.8-5.1,4.3c-2.5-0.4-5-0.8-7.4-1.2C351.8,238.3,351,237.9,350.2,237.1z"/>
		<path class="st0" d="M302.7,219.5c0.6,0.7,0.8,1.4,0.8,2.1c0,2.6,0.2,5.3-0.1,7.9c-0.3,2.5-2.4,4.3-4.9,4.3c-2.7,0-5.3,0-8,0
			c-0.8,0-1.5-0.3-2.2-0.7c0.2-0.3,0.4-0.2,0.6-0.2c2.7,0,5.4,0,8.1,0c3.3,0,5.5-2.1,5.5-5.5c0-2.5,0-4.9,0-7.4
			C302.7,219.9,302.7,219.8,302.7,219.5z"/>
		<path class="st0" d="M325.8,219.2c-1.5,0.8-1.2,2.1-1.2,3.3c0,2.9,0,5.7,0,8.6c0,0.3,0,0.6,0,1c-0.7-0.4-1-0.8-1-1.5
			c0-3.5,0-7.1,0-10.6c0-0.8,0.2-1.2,1.1-1.1C324.9,219,325.3,218.9,325.8,219.2z"/>
		<path class="st0" d="M342.7,224c-1-0.1-2-0.2-2.9-0.3c-0.7-0.1-1,0.1-1,0.9c0.1,2.9,0,5.8,0,8.8c-0.6-0.4-1-0.7-1-1.5
			c0-2.8,0-5.7,0-8.5c0-0.7,0.2-0.8,0.8-0.7c0.9,0.1,1.8,0.3,2.6,0.3C342,223,342.4,223.3,342.7,224z"/>
		<path class="st0" d="M234.7,235.4c-0.6-0.2-0.8-0.6-0.8-1.2c0-2.8,0-5.7,0-8.5c0-0.6,0.2-0.8,0.8-0.9c0.9-0.1,1.7-0.3,2.5-0.5
			c0.2,0,0.5-0.1,0.7,0c0.2,0.1,0.6,0.2,0.5,0.5c0,0.3-0.4,0.2-0.6,0.3c-0.8,0.1-1.5,0.3-2.3,0.4c-0.6,0.1-0.8,0.3-0.8,1
			c0,2.6,0,5.3,0,7.9C234.8,234.7,234.9,235.1,234.7,235.4z"/>
		<path class="st0" d="M268.7,231.6c-0.7-0.4-1.1-1.8-0.7-2.4c0.1-0.2,0.4-0.2,0.6-0.3c2.2-0.1,4.5-0.3,6.7-0.4
			c0.3,0,0.8-0.2,0.8,0.4c0,0.6-0.4,0.5-0.8,0.5c-1.8,0.1-3.6,0.3-5.4,0.3c-0.9,0-1.3,0.2-1.2,1.2
			C268.9,231.1,268.9,231.4,268.7,231.6z"/>
		<path class="st0" d="M281.5,219.5c0.8,0.7,0.9,1.6,1,2.4c0.1,1.3,0.1,2.6-0.9,3.6c-0.2,0.2-0.4,0.7-0.9,0.3
			c-0.4-0.3,0-0.6,0.1-0.8c0.5-0.8,0.7-1.7,0.7-2.7C281.5,221.4,281.5,220.5,281.5,219.5z"/>
		<path class="st0" d="M325.7,235.1c-1.8-0.1-3.5-0.2-5.2-0.3c-0.4,0-0.7-0.3-0.7-0.7c0-0.4,0.5-0.2,0.7-0.2c1.3,0,2.5,0.2,3.8,0.2
			C325,234.1,325.3,234.5,325.7,235.1z"/>
		<path class="st0" d="M277.9,234.2c0.9-1.3,4.8-1.5,5.7-0.3C281.7,234,279.9,234.1,277.9,234.2z"/>
		<path class="st0" d="M340,236.6c-2-0.2-3.8-0.4-5.8-0.6c0.4-0.6,0.8-0.9,1.5-0.8c0.9,0.1,1.8,0.2,2.6,0.3
			C339.1,235.5,339.6,235.8,340,236.6z"/>
		<path class="st0" d="M236.1,238.2c-2,0.4-3.8,0.7-5.7,1C231,237.9,235,237.1,236.1,238.2z"/>
		<path class="st0" d="M310.2,223.9c0.4,0.4,0.7,0.7,0.7,1.1c0,2,0,4,0,6c-0.5-0.2-0.8-0.4-0.8-0.9c0-2,0-4,0-6
			C310.1,224.1,310.2,224,310.2,223.9z"/>
		<path class="st0" d="M264.4,235c0.4-0.7,0.8-1,1.5-1c1,0,1.9-0.2,2.9-0.3c0.2,0,0.5-0.1,0.7,0.1c0.2,0.2,0.5,0.3,0.4,0.5
			c-0.1,0.3-0.4,0.3-0.6,0.3C267.7,234.8,266.1,234.9,264.4,235z"/>
		<path class="st0" d="M312.1,234.2c-1.6,0-3.2,0-4.8,0c-0.2,0-0.6,0.1-0.6-0.3c0-0.3,0.3-0.6,0.6-0.6c1.4,0,2.7,0,4.1,0.1
			C311.7,233.4,311.9,233.7,312.1,234.2z"/>
		<path class="st0" d="M328.7,223.9c-0.1-2.2-0.1-2.2,1.6-2.1c0.5,0,1.1,0.1,1.6,0.2c0.5,0,0.5,0.3,0.5,0.7c0,0.4-0.3,0.3-0.6,0.3
			C330.8,222.8,329.6,222.5,328.7,223.9z"/>
		<path class="st0" d="M224.8,228.8c-0.1-0.3-0.1-0.4-0.1-0.4c-0.1-1.8-0.1-1.8,1.7-2.1c0.6-0.1,1.1-0.2,1.7-0.2
			c0.2,0,0.5-0.2,0.5,0.2c0,0.3,0,0.5-0.4,0.6c-0.1,0-0.2,0.1-0.3,0.1C226.6,226.9,225.5,227.4,224.8,228.8z"/>
		<path class="st0" d="M241.7,223.5c0,0.6,0,1.1,0,1.7c0,0.4-0.2,0.5-0.5,0.3c-0.3-0.2-0.5-0.4-0.5-0.8c0-0.9,0-1.8,0-2.6
			c0-0.5,0.2-0.7,0.6-0.7c0.5,0,0.4,0.4,0.4,0.6C241.7,222.5,241.7,223,241.7,223.5z"/>
		<path class="st0" d="M345.6,225.5c-0.6-0.4-0.9-0.9-0.9-1.5c0-0.8,0-1.6,0-2.4c0-0.3,0-0.6,0.4-0.5c0.3,0,0.5,0.2,0.5,0.5
			C345.6,222.9,345.6,224.1,345.6,225.5z"/>
		<path class="st0" d="M281.5,228.2c0.7,0.6,1.2,1.9,1,2.5c-0.1,0.3-0.2,0.3-0.4,0.1c-0.4-0.3-0.6-0.6-0.6-1.1
			C281.5,229.3,281.5,228.8,281.5,228.2z"/>
		<path class="st0" d="M271.6,224.6c-1.3,0.1-2.7,0.1-4,0.2c-0.5,0-0.8-0.1-0.7-0.7c0-1.2,0-2.4,0-3.6c0-0.5,0.2-0.7,0.7-0.7
			c2.9-0.1,5.8-0.3,8.7-0.5c0.7,0,1,0.3,1,1c0,0.9,0,1.8,0,2.7c0,1-0.3,1.3-1.3,1.3C274.5,224.5,273,224.5,271.6,224.6
			C271.6,224.6,271.6,224.6,271.6,224.6z M267.9,222.3c0,0.3,0,0.7,0,1c0,0.3,0.1,0.4,0.4,0.4c0.3,0,0.5-0.1,0.5-0.4
			c0-0.3,0-0.6,0-0.9c0-0.5,0.2-0.7,0.7-0.7c1.9-0.1,3.9-0.2,5.8-0.3c0.3,0,0.8,0.1,0.8-0.5c0-0.6-0.5-0.4-0.8-0.4
			c-2,0.1-4,0.2-6,0.3C267.9,220.9,267.9,220.9,267.9,222.3z"/>
		<path class="st0" d="M293.1,228.8c-1.3,0-2.7,0-4,0c-0.8,0-1.1-0.3-1.1-1.1c0-2.5,0-5,0-7.6c0-0.7,0.3-1.1,1.1-1.1
			c2.7,0,5.5,0,8.2,0c0.7,0,1.1,0.4,1,1.1c0,2.5,0,5,0,7.6c0,0.8-0.4,1.1-1.1,1.1C295.8,228.8,294.4,228.8,293.1,228.8z M293.3,220
			c-1,0-2.1,0-3.1,0c-0.8,0-1.2,0.3-1.2,1.2c0,2,0,3.9,0,5.9c0,0.3-0.1,0.7,0.4,0.7c0.6,0,0.5-0.4,0.5-0.8c0-1.6,0-3.2,0-4.8
			c0-1,0.3-1.3,1.3-1.3c1.8,0,3.5,0,5.3,0c0.3,0,0.7,0.1,0.7-0.4c0-0.6-0.4-0.5-0.7-0.5C295.4,220,294.4,220,293.3,220z"/>
		<path class="st0" d="M256.2,225.7c0,1.2,0,2.5,0,3.7c0,0.7-0.3,1.2-1.1,1.2c-2.7,0.3-5.5,0.6-8.2,0.9c-0.7,0.1-1-0.3-1-0.9
			c0-2.6,0-5.1,0-7.7c0-0.7,0.3-1.1,1.1-1.2c2.7-0.3,5.5-0.6,8.2-0.9c0.7-0.1,1,0.2,1,0.9C256.2,223.2,256.2,224.4,256.2,225.7z
			 M246.9,226.9c0,1,0,2,0,2.9c0,0.3-0.1,0.7,0.4,0.7c0.5,0,0.4-0.4,0.4-0.7c0-1.6,0-3.3,0-4.9c0-1,0.3-1.3,1.2-1.4
			c1.8-0.2,3.6-0.4,5.4-0.5c0.3,0,0.7,0,0.7-0.5c0-0.5-0.4-0.4-0.7-0.4c-2.2,0.2-4.4,0.5-6.5,0.7c-0.6,0.1-0.9,0.5-0.9,1.1
			C246.9,224.9,246.9,225.9,246.9,226.9z"/>
		<path class="st0" d="M360.1,229.7c0,1.2,0,2.5,0,3.7c0,0.9-0.2,1.1-1.1,1c-2.7-0.4-5.4-0.9-8.1-1.4c-0.7-0.1-1-0.6-1-1.3
			c0-2.5,0-5,0-7.6c0-0.8,0.4-1.1,1.2-0.9c2.7,0.5,5.4,0.9,8.1,1.4c0.7,0.1,1,0.5,1,1.2C360.1,227.1,360.1,228.4,360.1,229.7z
			 M350.8,228.3c0,1,0,2,0,2.9c0,0.4,0.1,0.7,0.5,0.8c0.6,0,0.5-0.4,0.5-0.8c0-1.6,0-3.2,0-4.8c0-0.9,0.2-1.1,1.1-0.9
			c1.8,0.3,3.6,0.6,5.3,0.9c0.3,0,0.6,0.3,0.7-0.2c0.1-0.5-0.2-0.6-0.6-0.7c-2.2-0.4-4.3-0.7-6.5-1.1c-0.7-0.1-1.1,0.2-1.1,1
			C350.8,226.4,350.8,227.4,350.8,228.3z"/>
		<path class="st0" d="M267.9,222.3c0-1.4,0-1.4,1.4-1.4c2-0.1,4-0.2,6-0.3c0.3,0,0.8-0.2,0.8,0.4c0,0.5-0.5,0.4-0.8,0.5
			c-1.9,0.1-3.9,0.3-5.8,0.3c-0.5,0-0.7,0.2-0.7,0.7c0,0.3,0,0.6,0,0.9c0,0.3-0.2,0.4-0.5,0.4c-0.3,0-0.4-0.1-0.4-0.4
			C267.9,223,267.9,222.6,267.9,222.3z"/>
		<path class="st0" d="M293.3,220c1,0,2.1,0,3.1,0c0.3,0,0.8-0.1,0.7,0.5c0,0.5-0.4,0.4-0.7,0.4c-1.8,0-3.5,0-5.3,0
			c-1.1,0-1.3,0.3-1.3,1.3c0,1.6,0,3.2,0,4.8c0,0.3,0.1,0.8-0.5,0.8c-0.5,0-0.4-0.4-0.4-0.7c0-2,0-3.9,0-5.9c0-0.8,0.4-1.2,1.2-1.2
			C291.2,220,292.3,220,293.3,220z"/>
		<path class="st0" d="M246.9,226.9c0-1,0-2,0-2.9c0-0.6,0.3-1,0.9-1.1c2.2-0.3,4.4-0.5,6.5-0.7c0.3,0,0.7-0.2,0.7,0.4
			c0,0.5-0.4,0.5-0.7,0.5c-1.8,0.2-3.6,0.4-5.4,0.5c-0.9,0.1-1.2,0.4-1.2,1.4c0,1.6,0,3.3,0,4.9c0,0.3,0,0.7-0.4,0.7
			c-0.5,0-0.4-0.4-0.4-0.7C246.9,228.8,246.9,227.8,246.9,226.9z"/>
		<path class="st0" d="M350.8,228.3c0-1,0-2,0-2.9c0-0.8,0.4-1.1,1.1-1c2.2,0.4,4.3,0.7,6.5,1.1c0.4,0.1,0.7,0.2,0.6,0.7
			c-0.1,0.5-0.5,0.2-0.7,0.2c-1.8-0.3-3.6-0.6-5.3-0.9c-0.9-0.2-1.1,0-1.1,0.9c0,1.6,0,3.2,0,4.8c0,0.3,0.1,0.8-0.5,0.8
			c-0.5,0-0.5-0.4-0.5-0.8C350.8,230.3,350.8,229.3,350.8,228.3z"/>
	</g>
	<g>
		<path class="st0" d="M4.1,216.1c0.3-0.9,0.2-1.8,0.3-2.7c0.8-10.2,3.2-20,7.2-29.4c3.5-8.2,8.1-15.8,13.8-22.6
			c7-8.5,15.3-15.5,24.8-21.1c7.5-4.4,15.6-7.7,24-9.9c5.2-1.3,10.5-2.2,15.8-2.6c4.4-0.3,8.8-0.4,13.2-0.1
			c11.3,0.8,22.2,3.4,32.5,8.2c11.2,5.1,21,12.2,29.4,21.1c11.4,12.2,18.9,26.4,22.8,42.5c1,4.2,1.7,8.4,2,12.7c0.1,1.9,0,3.8,0,5.7
			c0,3.1,0,6.1,0,9.2c0,3.8-0.7,7.4-1.4,11.1c-1.6,8.4-4.3,16.4-8.2,24.1c-4,8-9.1,15.3-15.3,21.9c-7.9,8.4-17.1,15.2-27.4,20.2
			c-8.2,4-16.8,6.7-25.8,8.1c-6.2,1-12.5,1.4-18.7,1.1c-18.7-0.9-35.7-6.7-50.9-17.8c-14.5-10.6-25-24.2-31.7-40.8
			C7.9,248.3,6,241.1,5,233.7c-0.3-2.6-0.6-5.1-0.8-7.7c0-0.2,0-0.4-0.1-0.5C4.1,222.4,4.1,219.2,4.1,216.1z M8.9,219.2
			c-0.7,49.9,39.4,89.7,88.2,89.8c48.5,0.2,88.3-39.3,88.5-87.8c0.2-48.8-38.9-88.6-87.9-88.9C49.1,132.1,9.7,171.1,8.9,219.2z"/>
		<path class="st0" d="M13.3,218.9c0.8-46,38.3-83.2,84.8-82.9c46.7,0.3,84.1,38.2,83.8,84.8c-0.2,46.3-38.2,83.9-84.5,83.8
			C50.9,304.5,12.6,266.5,13.3,218.9z M92.5,243.9c0.2-0.7,0.4-1.4,0.5-2.1c0.1-0.4,0.3-0.6,0.7-0.6c0.8-0.1,1.3-0.5,1.7-1.3
			c0.6-1.2,1.6-2.2,2.1-3.5c0.1-0.2,0.3-0.3,0.4-0.4c0.6-0.3,1.2-0.6,1.8-0.9c1.9-0.9,3.7-1.9,5.7-2.7c0.6-0.2,0.9-0.5,1-1.1
			c0.3-1,0.9-1.5,2-1.5c0.8,0,1.5-0.2,2.1-0.8c0.3-0.3,0.7-0.3,1.1-0.3c0.6,0.1,1.3,0.3,2,0c0.8-0.3,1.5-0.6,2.2-0.9
			c0.3-0.1,0.4-0.3,0.5-0.6c0.2-0.8,0.6-1.5,1.6-1.6c0.6-0.1,1.1-0.3,1.7-0.4c0.4-0.1,0.8-0.3,1-0.6c0.6-0.8,1.3-1,2.2-0.7
			c0.7,0.3,1.4,0.2,2.1-0.2c2.2-1.1,4.5-1.9,7-2.2c1.5-0.2,1.4-0.2,1.3-1.7c-0.3-3.3-0.5-6.6-1.2-9.9c-0.3-1.5-0.3-1.5-1.8-1.4
			c-0.1,0-0.1,0-0.2,0c-2.2,0.2-4.5,0.3-6.6,1.3c-0.6,0.3-1.2,0.6-1.8,0.6c-2-0.2-3.9,0.1-5.9-0.3c-0.1,0-0.2,0-0.3,0
			c-0.8,0.6-1.7,1-2.3,1.7c-0.8,0.8-1.7,1.2-2.8,1.2c-0.8,0-1.6,0-2.2,0.6c-1.2,1-2.4,1.9-3.8,2.6c-1.3,0.6-2.6,1.2-4.1,0.8
			c-0.3-0.1-0.6,0-0.9-0.1c-0.4-0.1-0.6,0.1-0.9,0.4c-2,2.5-4.2,4.8-6.3,7.2c-0.1,0.2-0.3,0.3-0.5,0.3c-0.8,0-1.6,0.2-2.3,0.4
			c-0.6,0.1-1.1,0.1-1.6,0.4c-1.5,0.8-3,1.7-4.5,2.5c-0.2,0.1-0.3,0.2-0.5,0.2c-1.1-0.2-2.2,0-3.2-0.2c-1-0.1-1.7,0.1-2.2,0.9
			c-0.1,0.1-0.2,0.2-0.2,0.3c-0.6,1-1.6,1.3-2.7,1.3c-0.5,0-1.1,0.1-1.5,0.4c-1.1,0.7-2.1,1.6-3.2,2.3c-1.2,0.8-2.2,1.7-3.3,2.6
			c-0.2,0.2-0.4,0.3-0.5,0.6c-0.6,1.4-1.2,2.8-1.7,4.2c-0.3,0.7-0.4,1.7-1,2.1c-0.6,0.4-1.6,0.3-2.4,0.3c-1.1,0-1.9,0.3-2.6,1.1
			c-0.4,0.4-0.4,0.7-0.1,1.1c0.8,1.1,1.7,2.1,2.4,3.3c1,1.8,2.5,3.1,3.8,4.6c0.1,0.1,0.3,0.1,0.4,0.2c2.1,0.6,4.1,1.3,6,2.3
			c0.2,0.1,0.3,0,0.5-0.1c0.8-0.7,1.7-0.7,2.7-0.3c0.5,0.2,1,0.2,1.4,0.4c0.5,0.2,0.8,0.1,1.3-0.1c0.8-0.4,1.5-1,2.4-1.1
			c1.6-0.2,3.2-0.3,4.9-0.4c0.5,0,0.7-0.2,0.9-0.6c1.1-1.7,2.1-3.6,3.7-5c1.4-1.2,2.7-2.5,4-3.8C92.5,244.5,92.7,244.3,92.5,243.9z
			 M51.2,226.4c0.1,0,0.1,0.1,0.2,0.1c0.2-0.3,0.4-0.5,0.6-0.8c2.2-2.3,4.4-4.5,6.6-6.8c1-1,2.2-1.5,3.6-1.5c1.3,0,2.1-0.4,2.7-1.4
			c0.2-0.3,0.4-0.4,0.8-0.5c1.5-0.1,2.9-0.4,4.4-0.4c0.2,0,0.4,0,0.6-0.1c1-1,2.3-1.5,3.4-2.3c0.2-0.2,0.5-0.2,0.8-0.2
			c2,0,3.9,0,5.9,0.2c0.9,0.1,1.7-0.1,2.4-0.8c1-1.1,2.1-2,3.1-3.1c0.8-0.8,1.6-1.2,2.7-1.2c0.9,0,1.7-0.4,2.5,0.2
			c0.5,0.4,1.1,0.3,1.7,0.2c0.4-0.1,0.8-0.1,1.2-0.2c0.7-0.2,1.3-0.1,1.8,0.5c0.4,0.5,0.9,0.6,1.5,0.5c1.7,0,3.5-0.5,5.2-0.1
			c0.1,0,0.2,0,0.3,0c0.7-0.4,1.4-0.6,2.1-1c1.7-0.9,3.4-1.6,5.2-2.2c0.2-0.1,0.4-0.2,0.6-0.1c0.6,0.4,1.4,0.4,2,0.9
			c0.3,0.2,0.5,0.2,0.8,0c0.5-0.3,1-0.7,1.5-0.5c1.6,0.5,3.2,0.4,4.7,1c0.7,0.3,1.5,0.4,2.1,0.3c2.8-0.3,5.6-0.5,8.4-0.8
			c0.3,0,0.5-0.1,0.4-0.5c-1-3.2-2-6.3-3.5-9.3c-0.4-0.8-0.9-1-1.8-0.9c-3.2,0.4-6.4-0.1-9.5-1.1c-1.1-0.4-2.2-0.8-3.4-0.8
			c-0.7,0-1.4,0.1-2-0.2c-0.7-0.4-1.4-0.9-2.1-1.5c-0.5-0.4-0.9-0.7-1.5-0.6c-0.2,0-0.3-0.1-0.5-0.1c-1.7-0.1-3.4-0.7-5.1-0.7
			c-3.2,0-6.3,0.2-9.5,0.6c-0.4,0-0.8,0-1.1,0.2c-1.2,0.7-2.4,1.3-3.5,2.1c-0.5,0.4-1,0.4-1.5,0.4c-1.7-0.2-3.4-0.1-5.1-0.1
			c-0.5,0-1,0-1.5-0.1c-0.4-0.1-0.6,0-0.9,0.2c-1.5,1.2-3,2.3-4.4,3.6c-0.4,0.4-0.8,0.4-1.3,0.1c-0.8-0.5-1.7-0.6-2.6-0.3
			c-1.4,0.5-2.8,0.4-4.3,0.1c-0.3-0.1-0.6-0.2-0.8,0c-0.5,0.6-1.4,0.8-2,1.4c-3,2.5-6.3,4.6-9.4,7c-0.2,0.2-0.5,0.3-0.6,0.6
			c-0.7,2-1,4-1.4,6C51,216.9,50.7,221.6,51.2,226.4z M97.1,268.1c1.6,0.1,3.3,0,5.1-0.3c4.2-0.7,8.2-1.9,11.7-4.5
			c4-2.9,7.3-6.5,10-10.5c3.4-5,5.8-10.3,7.3-16.2c0.9-3.7,1.6-7.4,1.9-11.1c0-0.4,0-0.8,0.1-1.2c0.2-0.7,0.1-0.9-0.7-0.9
			c-1.8,0.2-3.5,0.6-5,1.3c-1.8,0.9-3.8,1.4-5.1,3.1c-0.1,0.1-0.2,0.1-0.2,0.1c-0.7,0-1.4,0.4-2,0.5c-0.6,0.1-0.9,0.5-1.2,1
			c-0.8,1.6-1.8,3-3.5,3.8c-1,0.5-1.9,1.1-2.8,1.7c-0.3,0.2-0.7,0.4-0.8,0.7c-0.1,1.3-0.9,2.3-1.2,3.5c-0.4,1.6-0.8,3.1-1.3,4.6
			c-0.1,0.4-0.3,0.8-0.1,1.3c0.1,0.2,0,0.4-0.2,0.5c-0.8,0.3-1.5,0.8-2.4,1c-0.4,0.1-0.5,0.3-0.5,0.6c-0.2,1.2-0.6,2.3-1,3.4
			c-0.1,0.2-0.1,0.4-0.2,0.6c-0.1,1.4-0.4,2.7-1.3,3.8c-0.8,1.1-1.6,2.2-2.3,3.4c-1,1.6-1.9,3.4-3.7,4.2c-0.8,0.4-0.9,1-0.8,1.7
			c0.1,0.4-0.1,0.5-0.3,0.6c-1.3,0.7-2.5,1.4-3.8,2.1c-0.2,0.1-0.5,0.3-0.5,0.5c0.1,0.3,0.4,0.2,0.6,0.2
			C94.2,268,95.6,268.2,97.1,268.1z M66.9,184.7c2.1-0.5,3.9-1.3,5.8-2c2-0.8,4.1-1.4,6.1-2.2c0.2-0.1,0.3-0.1,0.5-0.1
			c2.6,0,5.2,0.5,7.8,0.5c1.1,0,2.1,0.2,2.9,1c0.3,0.3,0.8,0.6,1.1,1c0.3,0.4,0.6,0.5,1.1,0.5c1.7,0,3.4,0.1,5.1,0.2
			c0.3,0,0.7,0,1,0.2c1.6,1.1,3.4,1.8,5.1,2.7c0.5,0.3,0.9,0.3,1.4,0c0.8-0.5,1.6-0.4,2.4,0c0.7,0.4,1.7,0.2,2.1,1.2
			c0.1,0.2,0.3,0.3,0.5,0.2c0.6-0.1,0.9,0.2,1.3,0.6c0.8,0.9,1.6,1.9,3,2c0.7,0,1.1,0.4,1.4,1c0.1,0.3,0.3,0.5,0.6,0.6
			c0.8,0.3,1.5,0.6,2.3,0.8c2.3,0.6,4.6,0.9,6.9,0.6c0.6-0.1,0.7-0.2,0.4-0.8c-1.3-2.3-2.8-4.4-4.5-6.4c-3.2-3.8-6.8-7.2-11.2-9.6
			c-2.8-1.5-5.7-2.7-8.8-3.4c-0.8-0.2-1.6-0.2-2.4-0.4c-1.5-0.2-3-0.4-4.6-0.2c-0.7,0.1-1.4,0.2-2.1,0.2c-3.2,0-6.1,0.8-9,2.1
			c-2.9,1.3-5.9,2.5-8.7,4.2c-2.2,1.3-4.3,2.7-6.3,4.2C67.8,183.9,67.4,184.2,66.9,184.7z M114.9,265c0.5,0.2,0.9,0,1.3-0.1
			c1.8-0.7,3.6-1.5,5.2-2.4c4.6-2.6,8.9-5.6,12.4-9.7c2.4-2.8,4.8-5.7,6.6-9c2.2-4.1,3.8-8.3,4.9-12.8c0-0.2,0.2-0.4,0-0.6
			c-0.4-0.7-0.7-1.4-1.2-2c-2.1-2.5-4.8-4.1-8-4.9c-0.5-0.1-0.7,0-0.8,0.6c-0.1,1.2-0.2,2.4-0.3,3.7c-0.2,3.1-0.8,6.1-1.6,9.1
			c-0.9,3.3-1.9,6.6-3.4,9.7c-1.7,3.5-3.6,6.7-5.9,9.8c-1.9,2.6-4.3,4.8-6.8,6.8C116.7,263.8,115.9,264.5,114.9,265z M127.7,161.5
			c-0.2-0.3-0.1-0.6-0.1-0.8c0-3.7-0.1-7.3-0.1-11c0-0.5-0.1-0.7-0.6-0.9c-1.3-0.5-2.5-1-3.7-1.6c-0.4-0.2-0.5-0.1-0.7,0.3
			c-2.7,6.5-5.5,13-8.2,19.5c-0.2,0.4-0.1,0.5,0.3,0.7c1,0.4,1.9,0.7,2.9,1.2c0.5,0.2,0.6,0,0.8-0.3c1.5-3.5,2.9-7,4.4-10.4
			c0.1-0.2,0.1-0.5,0.4-0.6c0.1,1.1,0.1,2.1,0.2,3.1c0.2,3.5,0.4,7,0.6,10.5c0,0.4,0.2,0.6,0.5,0.8c0.9,0.3,1.8,0.7,2.7,1.1
			c0.4,0.2,0.5,0.1,0.7-0.3c2.7-6.5,5.4-13,8.2-19.5c0.2-0.4,0.1-0.5-0.3-0.6c-1-0.4-2-0.8-3.1-1.3c-0.4-0.2-0.5-0.1-0.7,0.3
			c-0.6,1.4-1.2,2.8-1.8,4.2C129.3,157.6,128.5,159.5,127.7,161.5z M169.4,190.3c0.1-0.4,0-0.6-0.1-0.8c-0.6-1.3-1.2-2.6-1.9-3.9
			c-0.5-1-0.7-2.2-1.5-2.9c-0.8-0.7-2.1-0.8-3.1-1.2c-0.5-0.2-0.9-0.1-1.3,0.1c-3.6,1.7-7.2,3.4-10.8,5.2c-1.1,0.5-2.4,0.8-3.1,1.6
			c-0.7,0.8-0.9,2.2-1.3,3.3c-0.2,0.4-0.1,0.7,0.1,1.1c0.6,1.2,1.2,2.5,1.8,3.7c0.5,1,0.8,2.3,1.6,3c0.8,0.7,2.1,0.8,3.2,1.3
			c0.5,0.2,0.8,0.1,1.3-0.1c4.5-2.2,9.1-4.3,13.6-6.5c0.2-0.1,0.4-0.1,0.5-0.4C168.7,192.6,169.1,191.3,169.4,190.3z M54.6,184.9
			c0.3,0,0.6,0,1,0c0.8,0.1,1.3-0.2,1.9-0.8c1.5-1.6,3-3.2,4.6-4.7c0.3-0.3,0.4-0.7,0.4-1.1c-0.1-1-0.1-2-0.1-3
			c0-0.4-0.1-0.6-0.4-0.9c-3.6-3.6-7.2-7.1-10.8-10.7c-0.3-0.3-0.5-0.4-0.9-0.4c-1.1,0.1-2.1,0.1-3.2,0.1c-0.4,0-0.6,0.1-0.9,0.4
			c-1.2,1.3-2.4,2.7-3.8,3.9c-1.2,1.1-1.9,2.3-1.5,4c0.1,0.4,0.1,0.9,0,1.4c0,0.4,0.1,0.6,0.4,0.8c3.3,3.2,6.6,6.3,9.8,9.5
			C52,184.6,53,185.3,54.6,184.9z M131.2,287.2c-0.1-0.1-0.1-0.3-0.1-0.4c-1.8-4.8-3.6-9.6-5.4-14.5c-0.1-0.3-0.3-0.5-0.6-0.6
			c-0.9-0.4-1.9-0.8-2.8-1.3c-0.4-0.2-0.7-0.2-1,0c-1.3,0.5-2.5,1-3.8,1.5c-1.1,0.4-2.5,0.6-3.3,1.4c-0.8,0.8-1.1,2.1-1.5,3.2
			c0,0,0,0,0,0.1c-0.2,0.3-0.1,0.5,0,0.8c1.8,4.8,3.7,9.6,5.5,14.4c0.1,0.3,0.3,0.5,0.6,0.6c1,0.4,1.9,0.8,2.9,1.3
			c0.4,0.2,0.7,0.2,1,0c1.4-0.5,2.8-1.1,4.2-1.6c1-0.4,2.2-0.6,2.9-1.2c0.7-0.7,0.9-1.8,1.3-2.8
			C130.9,287.8,131.1,287.5,131.2,287.2z M105.8,154.5c0-2.5,0-5.1,0-7.6c0-0.4-0.1-0.7-0.4-1c-0.7-0.7-1.4-1.4-2.1-2.1
			c-0.3-0.3-0.6-0.4-1-0.4c-1.4,0-2.8,0-4.1,0c-1.2,0-2.4-0.3-3.4,0.1c-1,0.4-1.7,1.6-2.5,2.3c-0.3,0.3-0.5,0.6-0.5,1.1
			c0,4.1,0,8.1,0,12.2c0,1.2-0.3,2.5,0.1,3.5c0.4,1,1.6,1.7,2.4,2.6c0.3,0.3,0.6,0.4,1,0.4c2.4,0,4.7,0,7.1,0c0.4,0,0.6-0.1,0.9-0.3
			c0.7-0.7,1.5-1.5,2.2-2.2c0.3-0.2,0.3-0.5,0.3-0.8C105.8,159.6,105.8,157,105.8,154.5z M84.3,166.8c-2-1.9-3.9-3.8-5.8-5.6
			c-0.3-0.3-0.4-0.5-0.3-0.9c0.3-0.8,0.5-1.6,0.7-2.4c0.1-0.4,0.1-0.7-0.1-1.1c-0.9-2.2-1.9-4.4-2.8-6.6c-0.1-0.3-0.3-0.6-0.7-0.7
			c-1.1-0.4-2.1-0.8-3.1-1.3c-0.3-0.1-0.6-0.1-0.9,0c-2.9,1.3-5.8,2.5-8.6,3.8c-0.3,0.1-0.5,0.3-0.3,0.6c2.8,6.5,5.7,13,8.5,19.4
			c0.2,0.4,0.4,0.4,0.7,0.2c1-0.4,1.9-0.9,2.9-1.2c0.5-0.2,0.5-0.4,0.3-0.8c-0.7-1.6-1.4-3.1-2.1-4.7c-0.6-1.4-0.6-1.4,0.8-2.1
			c0.5-0.2,0.8-0.2,1.1,0.2c1.6,1.6,3.2,3.2,4.9,4.7c0.2,0.2,0.3,0.4,0.7,0.2C81.6,168,82.9,167.5,84.3,166.8z M33.7,262.8
			c0.2-0.2,0.3-0.4,0.5-0.5c1.6-1.8,3.1-3.7,4.7-5.5c0.3-0.3,0.6-0.5,1-0.4c0.8,0.2,1.6,0.3,2.4,0.5c0.4,0.1,0.7,0,1-0.1
			c2.1-1.1,4.3-2.3,6.5-3.4c0.3-0.2,0.5-0.4,0.6-0.7c0.3-1,0.6-2,1-3c0.1-0.4,0.1-0.7-0.1-1.1c-1.3-2.3-2.5-4.7-3.7-7
			c-0.3-0.5-0.5-1.3-0.9-1.5c-0.5-0.2-1.1,0.4-1.6,0.7c-5.8,3-11.6,6.1-17.4,9.1c-0.5,0.2-0.5,0.4-0.3,0.9c0.5,0.9,1,1.9,1.4,2.8
			c0.2,0.4,0.3,0.4,0.7,0.2c1.6-0.8,3.1-1.6,4.7-2.4c1.4-0.7,1.4-0.7,2.2,0.7c0.2,0.5,0.2,0.7-0.1,1.2c-1.5,1.7-2.9,3.4-4.3,5.1
			c-0.2,0.2-0.4,0.3-0.2,0.7C32.4,260.2,33,261.5,33.7,262.8z M161.6,260.1c1-0.3,2.1-0.7,3.2-1c0.4-0.1,0.6-0.3,0.7-0.6
			c0.6-1.3,1.3-2.5,2-3.8c0.5-1,1.4-2,1.5-3.2c0-1.1-0.6-2.3-0.9-3.4c-0.1-0.4-0.3-0.6-0.6-0.7c-1.9-1-3.8-2-5.8-3
			c-0.3-0.2-0.6-0.2-1-0.1c-1,0.3-2.1,0.7-3.1,0.9c-0.3,0.1-0.5,0.3-0.7,0.6c-0.7,1.4-1.5,2.7-2.2,4.1c-0.1,0.3-0.3,0.4-0.6,0.6
			c-0.8,0.4-1.4-0.1-2-0.5c-1-0.5-1.2-1.2-0.7-2.2c0.3-0.5,0.5-1.1,0.8-1.6c0.6-1.2,0.6-1.2,1.7-0.6c0.3,0.1,0.5,0.3,0.7-0.1
			c0.6-1.1,1.2-2.3,1.8-3.4c0.1-0.3,0.2-0.4-0.1-0.6c-0.9-0.4-1.7-0.9-2.5-1.3c-0.2-0.1-0.5-0.1-0.7,0c-1.1,0.3-2.1,0.6-3.2,0.9
			c-0.3,0.1-0.5,0.3-0.7,0.6c-1.1,2.2-2.2,4.3-3.3,6.5c-0.1,0.3-0.2,0.5-0.1,0.8c0.4,1.1,0.7,2.1,1,3.2c0.1,0.3,0.3,0.5,0.5,0.6
			c2,1,3.9,2,5.9,3c0.3,0.2,0.6,0.2,0.9,0.1c1.1-0.3,2.1-0.7,3.2-0.9c0.4-0.1,0.6-0.3,0.7-0.6c0.6-1.2,1.3-2.4,1.8-3.6
			c0.3-0.6,0.6-0.8,1.2-1c0.6-0.2,1,0.2,1.5,0.4c1.1,0.5,1.3,1.3,0.8,2.3c-0.3,0.5-0.5,1-0.8,1.4c-0.7,1.2-0.7,1.3-1.9,0.6
			c-0.3-0.2-0.5-0.1-0.7,0.2c-0.6,1.1-1.2,2.2-1.8,3.3c-0.2,0.4-0.1,0.5,0.2,0.6c0.8,0.4,1.7,0.9,2.5,1.3
			C161.1,260,161.3,260.2,161.6,260.1z M155.1,273.5c-0.1-0.2-0.3-0.3-0.4-0.3c-2.2-1.2-4.4-2.3-6.6-3.5c-0.4-0.2-0.6-0.4-0.6-0.9
			c0-0.8-0.1-1.6-0.1-2.4c0-0.4-0.1-0.7-0.4-1.1c-1.2-1.4-2.4-2.7-3.5-4.2c-0.9-1.2-1.9-2-3.4-1.8c-0.6,0.1-1.2-0.1-1.8-0.1
			c-0.4,0-0.6,0.1-0.9,0.3c-2.3,2-4.7,4-7.1,5.9c-0.3,0.3-0.4,0.4-0.1,0.8c1.7,2,3.4,3.9,5,5.9c2.9,3.4,5.7,6.7,8.6,10.1
			c0.4,0.4,0.6,0.4,0.9,0.1c0.7-0.7,1.5-1.4,2.3-2c0.3-0.3,0.4-0.5,0.1-0.8c-1.1-1.3-2.2-2.6-3.3-3.9c-1.1-1.3-1-1.2,0.1-2.3
			c0.4-0.3,0.6-0.4,1.1-0.1c2,1.1,4,2.1,6,3.1c0.3,0.1,0.5,0.2,0.8,0C153,275.3,154.1,274.4,155.1,273.5z M63.7,263
			c0-0.2-0.1-0.3-0.2-0.4c-1-0.9-1.9-1.8-2.9-2.7c-0.3-0.2-0.4-0.2-0.7,0c-6.4,3.8-12.8,7.7-19.2,11.5c-0.4,0.2-0.4,0.3-0.1,0.6
			c0.9,0.9,1.9,1.7,2.8,2.6c0.3,0.3,0.4,0.2,0.7,0c0.8-0.5,1.6-1,2.4-1.5c0.3-0.2,0.5-0.2,0.7,0c1.3,1.3,2.7,2.5,4.1,3.8
			c0.3,0.3,0.3,0.5,0.1,0.9c-0.4,0.7-0.7,1.5-1.1,2.2c-0.2,0.4-0.1,0.6,0.2,0.9c0.9,0.7,1.7,1.5,2.5,2.3c0.4,0.4,0.6,0.4,0.8-0.1
			c3.2-6.6,6.5-13.3,9.7-19.9C63.6,263.3,63.7,263.2,63.7,263z M72,283.9c0.1,0.1,0.3,0.1,0.4,0.2c1,0.4,2,0.8,3,1.2
			c0.9,0.3,1.7,1,2.6,1c0.9,0,1.7-0.8,2.5-1.2c0.4-0.2,0.7-0.5,0.8-0.9c0.5-1.2,1-2.4,1.4-3.5c0.5-1.1,1.3-2.3,1.3-3.4
			c0-1.1-0.8-2.3-1.2-3.4c0,0,0,0,0-0.1c-0.1-0.3-0.3-0.5-0.6-0.6c-2.8-1.2-5.6-2.3-8.4-3.5c-0.4-0.2-0.5-0.1-0.7,0.3
			c-2.7,6.5-5.4,13.1-8.1,19.6c-0.2,0.4-0.1,0.5,0.3,0.6c0.9,0.4,1.9,0.7,2.8,1.1c0.5,0.2,0.7,0.1,0.9-0.4c0.9-2.2,1.8-4.3,2.7-6.5
			C71.7,284.1,71.6,283.8,72,283.9z M146,227.7c0.4-2.3,0.5-4.5,0.6-6.7c0.1-3.4-0.3-6.7-0.9-10c-0.1-0.9-0.7-1.3-1.5-1.6
			c-2.9-1.1-6-1.3-9.1-1.3c-1.1,0-1.3,0.1-1,1.2c0.8,3.7,1.2,7.4,1.2,11.2c0,0.6,0.3,0.8,0.8,0.9c3.3,0.7,6.2,2.1,8.4,4.7
			C145.1,226.6,145.4,227.2,146,227.7z M144.8,207.3c-0.1-0.4-0.3-0.8-0.4-1.1c-0.7-2.8-2.1-5.4-3.3-8c-0.9-2-2.2-3.8-3.5-5.5
			c-0.7-0.9-1.3-1.8-2-2.7c-0.3-0.4-0.5-0.4-0.8,0.1c-1.1,1.9-2.7,3.3-4.6,4.3c-1,0.6-1,0.6-0.6,1.7c0.1,0.2,0.2,0.4,0.3,0.6
			c1.4,2.7,2.4,5.5,3.2,8.5c0.2,0.7,0.4,1,1.2,0.9c3.4-0.2,6.7,0.1,9.9,1.4c0.1,0,0.2,0.1,0.3,0.1
			C144.7,207.5,144.8,207.4,144.8,207.3z M99.1,275.2c0,0,0,0.1,0,0.1c-1.9,0-3.9,0-5.8,0c-0.5,0-0.6,0.1-0.6,0.6
			c0.1,1.3,0.1,2.5,0,3.8c0,0.4,0.1,0.6,0.5,0.5c0.9-0.1,1.8,0,2.7-0.1c0.6,0,0.7,0.1,0.7,0.7c0,5.3,0.1,10.7,0.1,16
			c0,0.5,0.1,0.7,0.7,0.7c1.1-0.1,2.2-0.1,3.3-0.1c0.6,0,0.7-0.1,0.7-0.7c-0.1-5.3-0.1-10.6-0.2-15.9c0-0.5,0.1-0.8,0.7-0.7
			c0.9,0,1.8,0,2.7,0c0.5,0,0.6-0.2,0.6-0.7c0-1.2-0.1-2.3,0-3.5c0-0.5-0.1-0.7-0.7-0.7C102.9,275.2,101,275.2,99.1,275.2z
			 M29.9,196.8c0.2,0,0.2-0.2,0.3-0.4c0.4-0.8,0.8-1.7,1.1-2.6c0.2-0.6,0.5-0.7,1.1-0.4c4.9,2.2,9.7,4.3,14.6,6.5
			c0.5,0.2,0.7,0.1,0.8-0.3c0.4-1,0.8-2,1.3-2.9c0.3-0.6,0.2-0.8-0.4-1.1c-4.9-2.1-9.7-4.3-14.6-6.5c-0.5-0.2-0.5-0.4-0.3-0.8
			c0.4-0.8,0.8-1.7,1.2-2.6c0.2-0.4,0.2-0.6-0.3-0.8c-1.1-0.5-2.3-1-3.4-1.5c-0.4-0.2-0.5-0.1-0.7,0.3c-1.6,3.6-3.2,7.1-4.9,10.6
			c-0.2,0.4-0.1,0.5,0.3,0.7c1.2,0.5,2.3,1.1,3.5,1.6C29.7,196.7,29.8,196.8,29.9,196.8z M138.3,182.1c0.2-0.2,0.4-0.3,0.5-0.5
			c3.7-3.8,7.5-7.6,11.2-11.4c0.4-0.4,0.6-0.4,1,0c0.7,0.7,1.4,1.4,2.1,2.1c0.3,0.3,0.4,0.2,0.6,0c0.9-0.9,1.8-1.8,2.7-2.7
			c0.3-0.3,0.3-0.4,0-0.7c-2.8-2.8-5.6-5.5-8.4-8.3c-0.3-0.3-0.4-0.3-0.7,0c-0.9,0.9-1.8,1.9-2.7,2.7c-0.3,0.3-0.2,0.5,0,0.7
			c0.7,0.6,1.3,1.3,2,1.9c0.5,0.4,0.4,0.6,0,1.1c-3.8,3.8-7.5,7.7-11.3,11.5c-0.3,0.3-0.4,0.5,0,0.9c0.9,0.8,1.7,1.6,2.5,2.4
			C138.1,181.9,138.2,182,138.3,182.1z M107.1,173.7c0,0,0.1,0.1,0.1,0.1c0.2,0.1,0.4,0.2,0.6,0.2c2.4,0.8,4.7,1.9,6.7,3.4
			c2.1,1.5,4,3.1,5.8,5c2.8,3,5.4,6.2,7.5,9.7c0.3,0.5,0.7,0.7,1.3,0.4c1.9-0.8,3.2-2.2,4.2-4c0.1-0.3,0.2-0.5,0-0.8
			c-0.5-0.8-1-1.6-1.8-2.2c-0.9-0.6-1.7-1.3-2.5-2c-0.9-0.7-1.7-1.6-2.7-2.2c-2.8-1.8-5.6-3.5-8.7-4.7c-3.2-1.3-6.4-2.6-9.8-3.2
			C107.6,173.6,107.3,173.4,107.1,173.7z"/>
		<path class="st1" d="M92.5,243.9c0.2,0.4,0,0.6-0.2,0.8c-1.3,1.3-2.6,2.7-4,3.8c-1.7,1.4-2.6,3.2-3.7,5c-0.2,0.4-0.5,0.5-0.9,0.6
			c-1.6,0.1-3.2,0.3-4.9,0.4c-0.9,0.1-1.6,0.7-2.4,1.1c-0.4,0.2-0.8,0.3-1.3,0.1c-0.5-0.2-1-0.2-1.4-0.4c-1-0.4-1.8-0.4-2.7,0.3
			c-0.1,0.1-0.3,0.2-0.5,0.1c-1.9-0.9-4-1.7-6-2.3c-0.1,0-0.3-0.1-0.4-0.2c-1.3-1.5-2.8-2.9-3.8-4.6c-0.7-1.2-1.5-2.2-2.4-3.3
			c-0.4-0.4-0.3-0.7,0.1-1.1c0.7-0.8,1.5-1.2,2.6-1.1c0.8,0,1.8,0.1,2.4-0.3c0.5-0.4,0.7-1.4,1-2.1c0.6-1.4,1.2-2.8,1.7-4.2
			c0.1-0.3,0.3-0.4,0.5-0.6c1.1-0.9,2.2-1.8,3.3-2.6c1.1-0.7,2.1-1.6,3.2-2.3c0.4-0.3,1-0.4,1.5-0.4c1.1,0,2.1-0.3,2.7-1.3
			c0.1-0.1,0.2-0.2,0.2-0.3c0.5-0.8,1.2-1,2.2-0.9c1.1,0.1,2.1-0.1,3.2,0.2c0.2,0,0.4-0.1,0.5-0.2c1.5-0.8,3-1.7,4.5-2.5
			c0.5-0.3,1.1-0.3,1.6-0.4c0.8-0.1,1.5-0.4,2.3-0.4c0.3,0,0.4-0.2,0.5-0.3c2.1-2.4,4.3-4.7,6.3-7.2c0.2-0.3,0.5-0.5,0.9-0.4
			c0.3,0.1,0.6,0,0.9,0.1c1.5,0.4,2.8-0.2,4.1-0.8c1.4-0.7,2.6-1.6,3.8-2.6c0.7-0.6,1.5-0.6,2.2-0.6c1.1-0.1,2-0.4,2.8-1.2
			c0.7-0.7,1.5-1.1,2.3-1.7c0.1-0.1,0.2-0.1,0.3,0c1.9,0.4,3.9,0.2,5.9,0.3c0.6,0,1.2-0.3,1.8-0.6c2.1-1,4.4-1.1,6.6-1.3
			c0.1,0,0.1,0,0.2,0c1.5-0.1,1.5-0.1,1.8,1.4c0.7,3.3,0.9,6.6,1.2,9.9c0.1,1.5,0.2,1.5-1.3,1.7c-2.5,0.3-4.8,1.1-7,2.2
			c-0.7,0.4-1.4,0.4-2.1,0.2c-0.9-0.3-1.7-0.1-2.2,0.7c-0.3,0.4-0.6,0.5-1,0.6c-0.6,0.1-1.1,0.4-1.7,0.4c-1,0.1-1.4,0.8-1.6,1.6
			c-0.1,0.3-0.2,0.5-0.5,0.6c-0.8,0.3-1.5,0.7-2.2,0.9c-0.6,0.2-1.3,0-2,0c-0.4,0-0.8,0-1.1,0.3c-0.6,0.6-1.3,0.8-2.1,0.8
			c-1.1,0-1.7,0.6-2,1.5c-0.2,0.6-0.4,0.9-1,1.1c-1.9,0.8-3.8,1.8-5.7,2.7c-0.6,0.3-1.2,0.6-1.8,0.9c-0.2,0.1-0.3,0.2-0.4,0.4
			c-0.5,1.3-1.5,2.3-2.1,3.5c-0.3,0.7-0.9,1.2-1.7,1.3c-0.4,0.1-0.6,0.2-0.7,0.6C92.9,242.5,92.7,243.2,92.5,243.9z"/>
		<path class="st1" d="M51.2,226.4c-0.5-4.8-0.2-9.5,0.7-14.2c0.4-2,0.7-4.1,1.4-6c0.1-0.3,0.4-0.4,0.6-0.6c3.1-2.4,6.4-4.5,9.4-7
			c0.6-0.5,1.4-0.7,2-1.4c0.2-0.2,0.5-0.1,0.8,0c1.4,0.3,2.9,0.4,4.3-0.1c0.9-0.3,1.8-0.2,2.6,0.3c0.5,0.3,0.8,0.3,1.3-0.1
			c1.4-1.3,2.9-2.4,4.4-3.6c0.3-0.2,0.5-0.3,0.9-0.2c0.5,0.1,1,0.1,1.5,0.1c1.7,0,3.4-0.1,5.1,0.1c0.6,0.1,1,0,1.5-0.4
			c1.1-0.8,2.4-1.4,3.5-2.1c0.4-0.2,0.8-0.2,1.1-0.2c3.1-0.4,6.3-0.6,9.5-0.6c1.7,0,3.4,0.6,5.1,0.7c0.2,0,0.3,0.1,0.5,0.1
			c0.6,0,1.1,0.2,1.5,0.6c0.6,0.6,1.3,1.1,2.1,1.5c0.6,0.3,1.3,0.2,2,0.2c1.2,0,2.3,0.5,3.4,0.8c3.1,1,6.2,1.5,9.5,1.1
			c0.9-0.1,1.4,0.1,1.8,0.9c1.5,3,2.5,6.1,3.5,9.3c0.1,0.4-0.1,0.5-0.4,0.5c-2.8,0.3-5.6,0.5-8.4,0.8c-0.7,0.1-1.4,0-2.1-0.3
			c-1.5-0.6-3.2-0.6-4.7-1c-0.5-0.2-1,0.3-1.5,0.5c-0.3,0.2-0.5,0.2-0.8,0c-0.6-0.5-1.4-0.4-2-0.9c-0.2-0.2-0.4,0-0.6,0.1
			c-1.8,0.6-3.5,1.3-5.2,2.2c-0.7,0.4-1.5,0.5-2.1,1c-0.1,0-0.2,0.1-0.3,0c-1.7-0.3-3.5,0.1-5.2,0.1c-0.6,0-1.1-0.1-1.5-0.5
			c-0.5-0.6-1.1-0.7-1.8-0.5c-0.4,0.1-0.8,0.1-1.2,0.2c-0.6,0.1-1.2,0.1-1.7-0.2c-0.8-0.6-1.7-0.2-2.5-0.2c-1.1,0-2,0.3-2.7,1.2
			c-1,1.1-2.1,2-3.1,3.1c-0.7,0.8-1.5,0.9-2.4,0.8c-2-0.2-3.9-0.2-5.9-0.2c-0.3,0-0.5,0-0.8,0.2c-1.1,0.8-2.4,1.3-3.4,2.3
			c-0.2,0.2-0.4,0.1-0.6,0.1c-1.5,0-2.9,0.3-4.4,0.4c-0.4,0-0.6,0.2-0.8,0.5c-0.6,1-1.5,1.4-2.7,1.4c-1.3,0-2.6,0.6-3.6,1.5
			c-2.2,2.2-4.4,4.5-6.6,6.8c-0.2,0.2-0.4,0.5-0.6,0.8C51.3,226.5,51.3,226.4,51.2,226.4z"/>
		<path class="st1" d="M97.1,268.1c-1.6,0.1-3-0.1-4.3-0.2c-0.2,0-0.6,0-0.6-0.2c-0.1-0.3,0.2-0.4,0.5-0.5c1.3-0.7,2.5-1.4,3.8-2.1
			c0.2-0.1,0.4-0.2,0.3-0.6c-0.1-0.7,0-1.3,0.8-1.7c1.9-0.8,2.7-2.6,3.7-4.2c0.7-1.2,1.5-2.3,2.3-3.4c0.9-1.1,1.2-2.4,1.3-3.8
			c0-0.2,0.1-0.4,0.2-0.6c0.4-1.1,0.8-2.2,1-3.4c0-0.3,0.2-0.4,0.5-0.6c0.8-0.3,1.6-0.7,2.4-1c0.2-0.1,0.3-0.2,0.2-0.5
			c-0.2-0.4,0-0.9,0.1-1.3c0.4-1.5,0.9-3.1,1.3-4.6c0.3-1.2,1.1-2.2,1.2-3.5c0-0.4,0.5-0.5,0.8-0.7c0.9-0.6,1.8-1.3,2.8-1.7
			c1.7-0.8,2.7-2.2,3.5-3.8c0.3-0.5,0.6-0.9,1.2-1c0.7-0.1,1.3-0.6,2-0.5c0.1,0,0.2-0.1,0.2-0.1c1.3-1.7,3.3-2.2,5.1-3.1
			c1.6-0.8,3.3-1.2,5-1.3c0.8-0.1,0.9,0.2,0.7,0.9c-0.1,0.4-0.1,0.8-0.1,1.2c-0.3,3.8-1,7.4-1.9,11.1c-1.4,5.9-3.9,11.2-7.3,16.2
			c-2.8,4.1-6,7.6-10,10.5c-3.5,2.6-7.5,3.8-11.7,4.5C100.5,268.1,98.7,268.2,97.1,268.1z"/>
		<path class="st1" d="M66.9,184.7c0.4-0.6,0.8-0.9,1.2-1.2c2-1.6,4.1-2.9,6.3-4.2c2.8-1.7,5.8-2.9,8.7-4.2c2.8-1.3,5.8-2.2,9-2.1
			c0.7,0,1.4-0.1,2.1-0.2c1.5-0.2,3,0,4.6,0.2c0.8,0.1,1.6,0.2,2.4,0.4c3.1,0.7,5.9,1.9,8.8,3.4c4.5,2.4,8,5.8,11.2,9.6
			c1.7,2,3.2,4.1,4.5,6.4c0.3,0.6,0.2,0.8-0.4,0.8c-2.4,0.2-4.7,0-6.9-0.6c-0.8-0.2-1.5-0.5-2.3-0.8c-0.3-0.1-0.4-0.4-0.6-0.6
			c-0.3-0.6-0.7-0.9-1.4-1c-1.4,0-2.2-1.1-3-2c-0.4-0.4-0.7-0.7-1.3-0.6c-0.2,0-0.4,0-0.5-0.2c-0.4-1-1.4-0.8-2.1-1.2
			c-0.8-0.4-1.6-0.4-2.4,0c-0.5,0.3-0.9,0.2-1.4,0c-1.7-0.9-3.5-1.6-5.1-2.7c-0.3-0.2-0.7-0.2-1-0.2c-1.7-0.1-3.4-0.2-5.1-0.2
			c-0.5,0-0.8-0.2-1.1-0.5c-0.3-0.4-0.8-0.6-1.1-1c-0.8-0.8-1.8-1-2.9-1c-2.6,0-5.2-0.5-7.8-0.5c-0.2,0-0.3,0-0.5,0.1
			c-2,0.8-4.1,1.4-6.1,2.2C70.9,183.4,69,184.2,66.9,184.7z"/>
		<path class="st1" d="M114.9,265c0.9-0.6,1.7-1.3,2.6-1.9c2.5-2,4.9-4.2,6.8-6.8c2.3-3.1,4.2-6.3,5.9-9.8c1.5-3.1,2.5-6.4,3.4-9.7
			c0.8-3,1.3-6,1.6-9.1c0.1-1.2,0.2-2.4,0.3-3.7c0-0.5,0.3-0.7,0.8-0.6c3.2,0.8,5.9,2.4,8,4.9c0.5,0.6,0.8,1.3,1.2,2
			c0.1,0.2,0,0.4,0,0.6c-1.1,4.5-2.7,8.8-4.9,12.8c-1.8,3.3-4.2,6.2-6.6,9c-3.5,4-7.8,7-12.4,9.7c-1.7,1-3.4,1.7-5.2,2.4
			C115.8,265,115.4,265.2,114.9,265z"/>
		<path class="st2" d="M127.7,161.5c0.8-2,1.6-3.9,2.4-5.8c0.6-1.4,1.2-2.8,1.8-4.2c0.2-0.4,0.3-0.4,0.7-0.3c1,0.5,2,0.9,3.1,1.3
			c0.3,0.1,0.4,0.3,0.3,0.6c-2.7,6.5-5.5,13-8.2,19.5c-0.2,0.4-0.3,0.5-0.7,0.3c-0.9-0.4-1.8-0.8-2.7-1.1c-0.4-0.1-0.5-0.3-0.5-0.8
			c-0.2-3.5-0.4-7-0.6-10.5c-0.1-1-0.1-2-0.2-3.1c-0.3,0.2-0.3,0.4-0.4,0.6c-1.5,3.5-3,7-4.4,10.4c-0.2,0.4-0.3,0.6-0.8,0.3
			c-0.9-0.4-1.9-0.8-2.9-1.2c-0.4-0.1-0.5-0.3-0.3-0.7c2.8-6.5,5.5-13,8.2-19.5c0.2-0.4,0.3-0.4,0.7-0.3c1.2,0.5,2.5,1.1,3.7,1.6
			c0.4,0.2,0.6,0.4,0.6,0.9c0,3.7,0,7.3,0.1,11C127.6,160.9,127.5,161.2,127.7,161.5z"/>
		<path class="st2" d="M169.4,190.3c-0.4,1.1-0.8,2.3-1.2,3.5c-0.1,0.2-0.3,0.3-0.5,0.4c-4.5,2.2-9.1,4.3-13.6,6.5
			c-0.4,0.2-0.8,0.2-1.3,0.1c-1.1-0.4-2.4-0.6-3.2-1.3c-0.8-0.7-1.1-2-1.6-3c-0.6-1.2-1.2-2.5-1.8-3.7c-0.2-0.4-0.2-0.7-0.1-1.1
			c0.4-1.1,0.6-2.5,1.3-3.3c0.7-0.8,2-1.1,3.1-1.6c3.6-1.7,7.2-3.4,10.8-5.2c0.5-0.2,0.8-0.3,1.3-0.1c1,0.4,2.3,0.5,3.1,1.2
			c0.8,0.7,1,1.9,1.5,2.9c0.6,1.3,1.3,2.6,1.9,3.9C169.4,189.7,169.5,189.9,169.4,190.3z M164,189.7c-0.1-0.2-0.1-0.3-0.2-0.5
			c-0.3-0.6-0.6-1.1-0.8-1.7c-0.4-0.8-1.1-1.1-2-0.7c-2.8,1.4-5.6,2.7-8.5,4.1c-0.9,0.5-1.2,1.2-0.7,2.1c0.2,0.5,0.4,1,0.7,1.5
			c0.3,0.7,1.2,1,1.9,0.7c2.9-1.4,5.8-2.8,8.7-4.2C163.8,190.8,163.8,190.2,164,189.7z"/>
		<path class="st2" d="M54.6,184.9c-1.5,0.4-2.6-0.4-3.6-1.4c-3.2-3.2-6.5-6.4-9.8-9.5c-0.2-0.2-0.4-0.5-0.4-0.8c0-0.5,0.1-1,0-1.4
			c-0.4-1.7,0.3-2.9,1.5-4c1.3-1.2,2.5-2.6,3.8-3.9c0.3-0.3,0.5-0.4,0.9-0.4c1.1,0,2.1,0,3.2-0.1c0.4,0,0.6,0.1,0.9,0.4
			c3.6,3.6,7.2,7.1,10.8,10.7c0.3,0.3,0.4,0.5,0.4,0.9c0,1,0,2,0.1,3c0,0.5-0.1,0.8-0.4,1.1c-1.5,1.6-3.1,3.1-4.6,4.7
			c-0.5,0.6-1.1,0.9-1.9,0.8C55.2,184.9,54.9,184.9,54.6,184.9z M48.8,168.8c-0.5-0.1-0.8,0.1-1.1,0.5c-0.4,0.5-0.8,0.9-1.3,1.3
			c-0.6,0.6-0.6,1.4,0,2c2.3,2.2,4.5,4.4,6.8,6.6c0.8,0.8,1.6,0.8,2.3,0c0.4-0.4,0.8-0.8,1.1-1.1c0.6-0.6,0.6-1.6,0-2.2
			c-2.3-2.2-4.5-4.4-6.8-6.7C49.6,168.9,49.3,168.7,48.8,168.8z"/>
		<path class="st2" d="M131.2,287.2c-0.1,0.3-0.2,0.6-0.4,0.9c-0.4,0.9-0.6,2.1-1.3,2.8c-0.7,0.7-1.9,0.9-2.9,1.2
			c-1.4,0.5-2.8,1.1-4.2,1.6c-0.4,0.1-0.7,0.2-1,0c-0.9-0.5-1.9-0.9-2.9-1.3c-0.3-0.1-0.5-0.3-0.6-0.6c-1.8-4.8-3.7-9.6-5.5-14.4
			c-0.1-0.3-0.1-0.6,0-0.8c0,0,0,0,0-0.1c0.5-1.1,0.7-2.4,1.5-3.2c0.8-0.8,2.2-0.9,3.3-1.4c1.3-0.5,2.5-1,3.8-1.5
			c0.4-0.1,0.7-0.2,1,0c0.9,0.4,1.9,0.9,2.8,1.3c0.3,0.1,0.5,0.3,0.6,0.6c1.8,4.8,3.6,9.6,5.4,14.5
			C131.1,287,131.1,287.1,131.2,287.2z M122.5,288.5c0.7-0.3,1.5-0.6,2.3-0.8c0.8-0.3,1.2-1.1,0.9-1.9c-1.1-2.9-2.2-5.8-3.3-8.7
			c-0.4-1.1-1.1-1.4-2.1-1c-0.5,0.2-1.1,0.4-1.6,0.6c-0.8,0.3-1.1,1.1-0.9,1.9c1.1,3,2.3,6,3.3,9C121.4,288.2,122,288.2,122.5,288.5
			z"/>
		<path class="st2" d="M105.8,154.5c0,2.6,0,5.1,0,7.7c0,0.3-0.1,0.6-0.3,0.8c-0.8,0.7-1.5,1.4-2.2,2.2c-0.3,0.3-0.5,0.4-0.9,0.3
			c-2.4,0-4.7,0-7.1,0c-0.4,0-0.7-0.1-1-0.4c-0.8-0.9-2-1.6-2.4-2.6c-0.4-1-0.1-2.3-0.1-3.5c0-4.1,0-8.1,0-12.2
			c0-0.5,0.1-0.8,0.5-1.1c0.8-0.8,1.5-1.9,2.5-2.3c1-0.4,2.3-0.1,3.4-0.1c1.4,0,2.8,0,4.1,0c0.4,0,0.7,0.1,1,0.4
			c0.7,0.7,1.4,1.4,2.1,2.1c0.3,0.3,0.4,0.6,0.4,1C105.8,149.4,105.8,151.9,105.8,154.5z M96.5,154.3c0,1.6,0,3.1,0,4.7
			c0,1.1,0.6,1.6,1.6,1.7c0.5,0,1,0,1.5,0c1,0,1.6-0.5,1.6-1.5c0-3.2,0-6.3,0-9.5c0-0.9-0.6-1.5-1.5-1.6c-0.5,0-1,0-1.6,0
			c-1,0-1.6,0.6-1.6,1.6C96.5,151.2,96.5,152.8,96.5,154.3z"/>
		<path class="st2" d="M84.3,166.8c-1.4,0.6-2.7,1.2-4,1.8c-0.4,0.2-0.5,0-0.7-0.2c-1.6-1.6-3.3-3.1-4.9-4.7
			c-0.4-0.4-0.6-0.5-1.1-0.2c-1.4,0.7-1.4,0.7-0.8,2.1c0.7,1.6,1.4,3.2,2.1,4.7c0.2,0.4,0.1,0.6-0.3,0.8c-1,0.4-2,0.8-2.9,1.2
			c-0.4,0.2-0.5,0.2-0.7-0.2c-2.8-6.5-5.6-13-8.5-19.4c-0.2-0.4,0-0.5,0.3-0.6c2.9-1.2,5.8-2.5,8.6-3.8c0.3-0.1,0.6-0.2,0.9,0
			c1,0.4,2.1,0.9,3.1,1.3c0.3,0.1,0.5,0.4,0.7,0.7c0.9,2.2,1.8,4.4,2.8,6.6c0.2,0.4,0.2,0.7,0.1,1.1c-0.2,0.8-0.4,1.6-0.7,2.4
			c-0.1,0.4,0,0.6,0.3,0.9C80.4,163,82.3,164.9,84.3,166.8z M73.9,156.7c-0.3-0.6-0.5-1.3-0.8-1.9c-0.5-1.1-1.2-1.4-2.3-0.9
			c-0.8,0.4-1.6,0.7-2.3,1.1c-0.3,0.1-0.4,0.3-0.2,0.6c0.5,1.1,1.1,2.3,1.6,3.5c0.2,0.4,0.3,0.4,0.7,0.2c0.8-0.4,1.7-0.8,2.5-1.2
			C73.7,157.8,73.7,157.2,73.9,156.7z"/>
		<path class="st2" d="M33.7,262.8c-0.7-1.3-1.4-2.6-2.1-3.9c-0.2-0.3,0.1-0.5,0.2-0.7c1.4-1.7,2.9-3.4,4.3-5.1
			c0.3-0.4,0.4-0.7,0.1-1.2c-0.8-1.4-0.7-1.4-2.2-0.7c-1.6,0.8-3.1,1.6-4.7,2.4c-0.3,0.2-0.5,0.2-0.7-0.2c-0.5-1-0.9-1.9-1.4-2.8
			c-0.2-0.4-0.2-0.6,0.3-0.9c5.8-3,11.6-6.1,17.4-9.1c0.5-0.3,1.1-0.9,1.6-0.7c0.4,0.2,0.6,0.9,0.9,1.5c1.2,2.3,2.5,4.7,3.7,7
			c0.2,0.4,0.2,0.7,0.1,1.1c-0.4,1-0.7,2-1,3c-0.1,0.4-0.3,0.6-0.6,0.7c-2.2,1.1-4.3,2.2-6.5,3.4c-0.3,0.2-0.7,0.2-1,0.1
			c-0.8-0.2-1.6-0.3-2.4-0.5c-0.4-0.1-0.7,0-1,0.4c-1.5,1.9-3.1,3.7-4.7,5.5C34.1,262.4,33.9,262.6,33.7,262.8z M46.2,249.3
			c0-0.1,0-0.2-0.1-0.3c-0.5-1-1-1.9-1.5-2.9c-0.2-0.3-0.3-0.2-0.5-0.1c-1.2,0.6-2.3,1.2-3.5,1.8c-0.4,0.2-0.3,0.4-0.2,0.7
			c0.4,0.8,0.8,1.5,1.2,2.3c0.5,1,1.3,1.2,2.3,0.7c0.4-0.2,0.8-0.5,1.3-0.7C46,250.6,46,250,46.2,249.3z"/>
		<path class="st2" d="M161.6,260.1c-0.4,0.1-0.5-0.1-0.7-0.2c-0.8-0.4-1.6-0.9-2.5-1.3c-0.3-0.2-0.4-0.3-0.2-0.6
			c0.6-1.1,1.2-2.2,1.8-3.3c0.2-0.3,0.3-0.4,0.7-0.2c1.3,0.6,1.3,0.6,1.9-0.6c0.3-0.5,0.5-1,0.8-1.4c0.5-1,0.3-1.8-0.8-2.3
			c-0.5-0.2-0.8-0.6-1.5-0.4c-0.6,0.2-1,0.4-1.2,1c-0.6,1.2-1.2,2.4-1.8,3.6c-0.2,0.3-0.4,0.5-0.7,0.6c-1.1,0.3-2.1,0.6-3.2,0.9
			c-0.3,0.1-0.6,0.1-0.9-0.1c-2-1-3.9-2-5.9-3c-0.3-0.1-0.5-0.3-0.5-0.6c-0.3-1.1-0.7-2.2-1-3.2c-0.1-0.3-0.1-0.5,0.1-0.8
			c1.1-2.2,2.2-4.3,3.3-6.5c0.2-0.3,0.4-0.5,0.7-0.6c1.1-0.3,2.1-0.6,3.2-0.9c0.2-0.1,0.5-0.1,0.7,0c0.8,0.5,1.7,0.9,2.5,1.3
			c0.3,0.2,0.3,0.3,0.1,0.6c-0.6,1.1-1.2,2.2-1.8,3.4c-0.2,0.4-0.4,0.3-0.7,0.1c-1.2-0.6-1.2-0.6-1.7,0.6c-0.3,0.5-0.5,1.1-0.8,1.6
			c-0.5,1-0.3,1.7,0.7,2.2c0.6,0.3,1.2,0.9,2,0.5c0.3-0.1,0.5-0.3,0.6-0.6c0.7-1.4,1.5-2.7,2.2-4.1c0.2-0.3,0.4-0.5,0.7-0.6
			c1-0.3,2.1-0.6,3.1-0.9c0.4-0.1,0.7-0.1,1,0.1c1.9,1,3.8,2,5.8,3c0.3,0.2,0.5,0.4,0.6,0.7c0.3,1.1,0.9,2.3,0.9,3.4
			c0,1.1-1,2.1-1.5,3.2c-0.6,1.3-1.3,2.5-2,3.8c-0.2,0.3-0.4,0.5-0.7,0.6C163.7,259.4,162.6,259.8,161.6,260.1z"/>
		<path class="st2" d="M155.1,273.5c-1.1,0.9-2.2,1.8-3.2,2.7c-0.3,0.3-0.5,0.2-0.8,0c-2-1-4-2-6-3.1c-0.4-0.2-0.7-0.2-1.1,0.1
			c-1.2,1.1-1.2,1.1-0.1,2.3c1.1,1.3,2.2,2.6,3.3,3.9c0.3,0.3,0.3,0.5-0.1,0.8c-0.8,0.6-1.5,1.3-2.3,2c-0.4,0.4-0.6,0.4-0.9-0.1
			c-2.8-3.4-5.7-6.8-8.6-10.1c-1.7-2-3.3-3.9-5-5.9c-0.3-0.3-0.3-0.5,0.1-0.8c2.4-2,4.7-4,7.1-5.9c0.3-0.2,0.5-0.3,0.9-0.3
			c0.6,0.1,1.2,0.2,1.8,0.1c1.6-0.2,2.5,0.6,3.4,1.8c1.1,1.5,2.3,2.8,3.5,4.2c0.3,0.3,0.4,0.6,0.4,1.1c0,0.8,0.1,1.6,0.1,2.4
			c0,0.5,0.2,0.7,0.6,0.9c2.2,1.2,4.4,2.3,6.6,3.5C154.9,273.3,155.1,273.3,155.1,273.5z M139.8,264.2c-0.3-0.1-0.5,0-0.7,0.1
			c-0.8,0.7-1.6,1.4-2.4,2c-0.3,0.2-0.3,0.3,0,0.6c0.8,1,1.7,2,2.5,3c0.2,0.3,0.4,0.3,0.6,0.1c0.7-0.6,1.4-1.2,2-1.8
			c0.8-0.7,0.8-1.4,0.2-2.1c-0.4-0.4-0.7-0.9-1.1-1.3C140.6,264.4,140.3,264.1,139.8,264.2z"/>
		<path class="st2" d="M63.7,263c-0.1,0.1-0.1,0.3-0.2,0.4c-3.2,6.6-6.5,13.3-9.7,19.9c-0.3,0.6-0.4,0.5-0.8,0.1
			c-0.8-0.8-1.6-1.6-2.5-2.3c-0.3-0.3-0.4-0.5-0.2-0.9c0.4-0.7,0.7-1.5,1.1-2.2c0.2-0.3,0.2-0.6-0.1-0.9c-1.4-1.2-2.7-2.5-4.1-3.8
			c-0.3-0.3-0.5-0.2-0.7,0c-0.8,0.5-1.6,1-2.4,1.5c-0.3,0.2-0.4,0.2-0.7,0c-0.9-0.9-1.8-1.8-2.8-2.6c-0.3-0.3-0.3-0.4,0.1-0.6
			c6.4-3.8,12.8-7.7,19.2-11.5c0.3-0.2,0.4-0.2,0.7,0c0.9,0.9,1.9,1.8,2.9,2.7C63.6,262.8,63.8,262.9,63.7,263z M56.6,267.6
			c0,0-0.1-0.1-0.1-0.1c-1.8,1.1-3.5,2.1-5.3,3.2c-0.3,0.2-0.3,0.3-0.1,0.5c0.8,0.7,1.7,1.5,2.5,2.3
			C54.6,271.5,55.6,269.6,56.6,267.6z"/>
		<path class="st2" d="M72,283.9c-0.4,0-0.3,0.3-0.4,0.5c-0.9,2.2-1.8,4.3-2.7,6.5c-0.2,0.5-0.4,0.6-0.9,0.4
			c-0.9-0.4-1.9-0.8-2.8-1.1c-0.3-0.1-0.4-0.2-0.3-0.6c2.7-6.5,5.4-13.1,8.1-19.6c0.2-0.4,0.3-0.4,0.7-0.3c2.8,1.2,5.6,2.4,8.4,3.5
			c0.3,0.1,0.5,0.3,0.6,0.6c0,0,0,0,0,0.1c0.4,1.1,1.2,2.3,1.2,3.4c0,1.1-0.8,2.3-1.3,3.4c-0.5,1.2-1,2.4-1.4,3.5
			c-0.2,0.4-0.4,0.7-0.8,0.9c-0.8,0.4-1.7,1.1-2.5,1.2c-0.8,0-1.7-0.6-2.6-1c-1-0.4-2-0.8-3-1.2C72.3,284,72.2,283.9,72,283.9z
			 M79,277.8c-0.3-0.4-0.2-1.1-0.9-1.3c-0.8-0.2-1.5-0.6-2.2-0.9c-0.3-0.1-0.5-0.1-0.6,0.2c-0.5,1.3-1,2.5-1.5,3.7
			c-0.1,0.1-0.3,0.3,0,0.4c0.9,0.4,1.9,0.8,2.8,1.2c0.1,0,0.3,0,0.4-0.1C77.6,280.8,78.9,278.6,79,277.8z"/>
		<path class="st1" d="M146,227.7c-0.6-0.5-0.9-1.1-1.3-1.6c-2.2-2.6-5.1-4-8.4-4.7c-0.5-0.1-0.8-0.3-0.8-0.9
			c0-3.8-0.4-7.5-1.2-11.2c-0.2-1.1-0.1-1.2,1-1.2c3.1,0,6.1,0.2,9.1,1.3c0.8,0.3,1.3,0.7,1.5,1.6c0.5,3.3,1,6.6,0.9,10
			C146.6,223.2,146.4,225.4,146,227.7z"/>
		<path class="st1" d="M144.8,207.3c0,0.2-0.1,0.3-0.3,0.2c-0.1,0-0.2,0-0.3-0.1c-3.2-1.2-6.5-1.6-9.9-1.4c-0.7,0.1-1-0.2-1.2-0.9
			c-0.8-2.9-1.7-5.8-3.2-8.5c-0.1-0.2-0.2-0.4-0.3-0.6c-0.5-1.1-0.5-1.1,0.6-1.7c1.9-1.1,3.6-2.4,4.6-4.3c0.3-0.5,0.5-0.5,0.8-0.1
			c0.7,0.9,1.3,1.8,2,2.7c1.4,1.7,2.6,3.5,3.5,5.5c1.2,2.6,2.5,5.2,3.3,8C144.5,206.5,144.6,206.8,144.8,207.3z"/>
		<path class="st2" d="M99.1,275.2c1.9,0,3.8,0,5.7,0c0.5,0,0.7,0.2,0.7,0.7c0,1.2,0,2.3,0,3.5c0,0.5-0.1,0.7-0.6,0.7
			c-0.9,0-1.8,0.1-2.7,0c-0.6,0-0.7,0.2-0.7,0.7c0.1,5.3,0.1,10.6,0.2,15.9c0,0.6-0.1,0.7-0.7,0.7c-1.1,0-2.2,0-3.3,0.1
			c-0.6,0-0.7-0.2-0.7-0.7c0-5.3-0.1-10.7-0.1-16c0-0.6-0.2-0.7-0.7-0.7c-0.9,0.1-1.8,0-2.7,0.1c-0.4,0-0.5-0.1-0.5-0.5
			c0-1.3,0-2.5,0-3.8c0-0.5,0.1-0.6,0.6-0.6c1.9,0,3.9,0,5.8,0C99.1,275.3,99.1,275.2,99.1,275.2z"/>
		<path class="st2" d="M29.9,196.8c-0.1-0.1-0.2-0.1-0.4-0.2c-1.2-0.5-2.3-1.1-3.5-1.6c-0.4-0.2-0.5-0.3-0.3-0.7
			c1.6-3.5,3.3-7.1,4.9-10.6c0.2-0.4,0.3-0.4,0.7-0.3c1.1,0.5,2.2,1,3.4,1.5c0.5,0.2,0.4,0.4,0.3,0.8c-0.4,0.9-0.8,1.8-1.2,2.6
			c-0.2,0.5-0.2,0.6,0.3,0.8c4.9,2.1,9.7,4.3,14.6,6.5c0.6,0.3,0.7,0.5,0.4,1.1c-0.5,0.9-0.9,1.9-1.3,2.9c-0.2,0.4-0.3,0.6-0.8,0.3
			c-4.9-2.2-9.7-4.3-14.6-6.5c-0.6-0.3-0.9-0.2-1.1,0.4c-0.3,0.9-0.8,1.7-1.1,2.6C30.2,196.6,30.1,196.8,29.9,196.8z"/>
		<path class="st2" d="M138.3,182.1c-0.1-0.1-0.2-0.2-0.3-0.3c-0.8-0.8-1.6-1.6-2.5-2.4c-0.4-0.3-0.3-0.5,0-0.9
			c3.8-3.8,7.5-7.7,11.3-11.5c0.4-0.4,0.5-0.6,0-1.1c-0.7-0.6-1.3-1.3-2-1.9c-0.3-0.3-0.4-0.4,0-0.7c0.9-0.9,1.8-1.8,2.7-2.7
			c0.3-0.3,0.4-0.3,0.7,0c2.8,2.8,5.6,5.5,8.4,8.3c0.3,0.3,0.3,0.4,0,0.7c-0.9,0.9-1.8,1.8-2.7,2.7c-0.2,0.2-0.4,0.3-0.6,0
			c-0.7-0.7-1.4-1.4-2.1-2.1c-0.4-0.4-0.6-0.4-1,0c-3.7,3.8-7.5,7.6-11.2,11.4C138.7,181.7,138.5,181.9,138.3,182.1z"/>
		<path class="st1" d="M107.1,173.7c0.2-0.3,0.5-0.1,0.7-0.1c3.4,0.6,6.6,1.9,9.8,3.2c3.1,1.2,5.9,2.9,8.7,4.7
			c1,0.6,1.8,1.5,2.7,2.2c0.8,0.7,1.6,1.3,2.5,2c0.8,0.6,1.2,1.4,1.8,2.2c0.2,0.2,0.1,0.5,0,0.8c-1,1.8-2.3,3.2-4.2,4
			c-0.6,0.3-0.9,0.1-1.3-0.4c-2.1-3.5-4.7-6.7-7.5-9.7c-1.8-1.9-3.7-3.5-5.8-5c-2.1-1.5-4.3-2.6-6.7-3.4c-0.2-0.1-0.4-0.2-0.6-0.2
			C107.2,173.8,107.2,173.7,107.1,173.7z"/>
		<path class="st0" d="M164,189.7c-0.3,0.5-0.3,1.1-0.9,1.4c-2.9,1.4-5.8,2.8-8.7,4.2c-0.7,0.3-1.5,0-1.9-0.7
			c-0.2-0.5-0.5-1-0.7-1.5c-0.5-1-0.2-1.7,0.7-2.1c2.8-1.4,5.6-2.7,8.5-4.1c0.9-0.4,1.6-0.2,2,0.7c0.3,0.6,0.6,1.1,0.8,1.7
			C163.9,189.4,164,189.6,164,189.7z"/>
		<path class="st0" d="M48.8,168.8c0.5-0.1,0.8,0.1,1.1,0.4c2.3,2.2,4.5,4.4,6.8,6.7c0.6,0.6,0.6,1.6,0,2.2
			c-0.4,0.4-0.8,0.8-1.1,1.1c-0.8,0.8-1.5,0.8-2.3,0c-2.3-2.2-4.5-4.4-6.8-6.6c-0.6-0.6-0.6-1.4,0-2c0.4-0.4,0.9-0.9,1.3-1.3
			C48,168.9,48.3,168.6,48.8,168.8z"/>
		<path class="st0" d="M122.5,288.5c-0.5-0.3-1.1-0.3-1.4-1c-1.1-3-2.2-6-3.3-9c-0.3-0.8,0.1-1.6,0.9-1.9c0.5-0.2,1.1-0.4,1.6-0.6
			c1-0.4,1.7-0.1,2.1,1c1.1,2.9,2.2,5.8,3.3,8.7c0.3,0.8-0.1,1.6-0.9,1.9C124,287.9,123.3,288.2,122.5,288.5z"/>
		<path class="st0" d="M96.5,154.3c0-1.6,0-3.1,0-4.7c0-1,0.6-1.6,1.6-1.6c0.5,0,1,0,1.6,0c0.9,0,1.5,0.6,1.5,1.6c0,3.2,0,6.3,0,9.5
			c0,1-0.5,1.5-1.6,1.5c-0.5,0-1,0-1.5,0c-1.1,0-1.6-0.6-1.6-1.7C96.5,157.4,96.5,155.9,96.5,154.3z"/>
		<path class="st0" d="M73.9,156.7c-0.2,0.5-0.3,1.1-0.9,1.4c-0.9,0.3-1.7,0.8-2.5,1.2c-0.3,0.2-0.5,0.1-0.7-0.2
			c-0.5-1.2-1-2.3-1.6-3.5c-0.2-0.3-0.1-0.5,0.2-0.6c0.8-0.3,1.6-0.7,2.3-1.1c1.1-0.5,1.8-0.2,2.3,0.9
			C73.4,155.4,73.7,156,73.9,156.7z"/>
		<path class="st0" d="M46.2,249.3c-0.2,0.6-0.2,1.3-1,1.5c-0.5,0.2-0.9,0.5-1.3,0.7c-1,0.5-1.8,0.3-2.3-0.7
			c-0.4-0.8-0.8-1.5-1.2-2.3c-0.2-0.3-0.2-0.5,0.2-0.7c1.2-0.6,2.3-1.2,3.5-1.8c0.2-0.1,0.4-0.3,0.5,0.1c0.5,1,1,1.9,1.5,2.9
			C46.1,249.1,46.2,249.3,46.2,249.3z"/>
		<path class="st0" d="M139.8,264.2c0.5-0.1,0.8,0.2,1.1,0.6c0.3,0.5,0.7,0.9,1.1,1.3c0.6,0.8,0.6,1.5-0.2,2.1
			c-0.7,0.6-1.4,1.2-2,1.8c-0.3,0.3-0.4,0.2-0.6-0.1c-0.8-1-1.6-2-2.5-3c-0.2-0.2-0.2-0.4,0-0.6c0.8-0.7,1.6-1.3,2.4-2
			C139.3,264.2,139.5,264.2,139.8,264.2z"/>
		<path class="st0" d="M56.6,267.6c-1,1.9-1.9,3.8-2.9,5.8c-0.9-0.8-1.7-1.5-2.5-2.3c-0.2-0.2-0.2-0.3,0.1-0.5
			c1.8-1,3.5-2.1,5.3-3.2C56.5,267.6,56.5,267.6,56.6,267.6z"/>
		<path class="st0" d="M79,277.8c0,0.9-1.4,3-2,3.3c-0.1,0.1-0.3,0.1-0.4,0.1c-1-0.4-1.9-0.8-2.8-1.2c-0.3-0.1-0.1-0.3,0-0.4
			c0.5-1.2,1-2.5,1.5-3.7c0.1-0.3,0.3-0.4,0.6-0.2c0.7,0.3,1.5,0.7,2.2,0.9C78.8,276.7,78.7,277.4,79,277.8z"/>
	</g>
</g>
</svg>
