<?xml version="1.0" encoding="utf-8"?>
<!-- Generator: Adobe Illustrator 21.0.0, SVG Export Plug-In . SVG Version: 6.00 Build 0)  -->
<svg version="1.1" id="Layer_1" xmlns="http://www.w3.org/2000/svg" xmlns:xlink="http://www.w3.org/1999/xlink" x="0px" y="0px"
	 viewBox="0 0 400 400" style="enable-background:new 0 0 400 400;" xml:space="preserve">
<style type="text/css">
	.st0{fill:#BE3C4A;}
	.st1{fill:#010101;}
	.st2{fill:#FCFCFC;}
	.st3{fill:#FDFCFC;}
	.st4{clip-path:url(#SVGID_2_);}
	.st5{fill:#D34546;}
	.st6{fill:#47555F;}
	.st7{fill:#D24546;}
	.st8{fill:#B1B7BB;}
	.st9{fill:#B1B6BA;}
	.st10{fill:#495660;}
	.st11{fill:#D34849;}
	.st12{fill:#FDFBFC;}
	.st13{fill:#FEFDFD;}
	.st14{fill:#B6B0B5;}
	.st15{fill:#B8ACB1;}
	.st16{fill:#FEFEFE;}
	.st17{fill:#D34748;}
</style>
<g>
	<g id="e7kLQc.tif">
		<g>
			<g>
				<path class="st0" d="M285.4,113.5c0.2,0,0.5,0,0.6,0c2.2-0.4,4.3-0.2,6.6-0.3c2.8-0.1,5.6,0.1,8.4,0.4c3,0.3,5.8,0.6,8.7,1.2
					c3.4,0.6,6.8,1.4,10.1,2.4c1.8,0.5,3.7,1,5.4,1.7c2.8,1.2,5.6,2.2,8.4,3.4c3.5,1.6,7,3.4,10.4,5.4c2.8,1.6,5.4,3.3,8,5.4
					c3.5,2.8,7.2,5.6,10.4,8.9c1.2,1.1,2.3,2.3,3.3,3.4c3,3.1,5.8,6.7,8.4,10.2c1.1,1.4,1.9,3,3,4.4c1.8,3,3.7,6,5.3,9.1
					c0.6,1.4,1.4,2.8,2,4.2c1.2,2.6,2.2,5.2,3,7.7c0.6,1.6,1.2,3.1,1.6,4.8c0.6,2.8,1.5,5.4,2,8.2c0.5,2.2,0.9,4.3,1.1,6.6
					c0.3,2.9,0.8,5.8,0.8,8.8c0,1,0.2,1.8,0.2,2.9c0,2.9,0,5.7-0.4,8.5c-0.2,1.2-0.3,2.4-0.4,3.5c-0.4,3.2-0.6,6.6-1.1,9.7
					c-0.4,3.3-1.4,6.7-2.4,10c-0.5,1.8-1,3.5-1.7,5.3c-0.9,1.9-1.4,4.2-2.5,6.1c-1.1,2-1.8,4.3-3,6.6c-1.4,2.4-2.6,4.9-4.2,7.2
					c-2.3,3.3-4.4,6.7-7,9.8c-1.7,1.9-3.3,4-5.2,5.8c-2.2,2.4-4.5,4.5-6.9,6.7c-2.3,2-4.7,4-7.2,5.7c-2.7,1.8-5.4,3.5-8,5.3
					c-1.8,1.1-3.5,1.9-5.4,3s-4,1.9-5.9,2.9c-3,1.3-6.1,2.4-9.2,3.4c-2,0.6-4.2,1.3-6.4,1.8c-2.3,0.6-4.6,1.1-7,1.5
					c-2.3,0.4-4.6,0.6-7,1c-2.6,0.2-5.2,0.4-7.6,0.5c-2.8,0.1-5.4,0.1-8.2-0.1c-3-0.2-6-0.4-8.9-0.9c-3.1-0.5-6.4-1-9.5-1.8
					c-1.7-0.4-3.2-0.6-4.9-1.3c-3.9-1.3-7.6-2.5-11.3-4.1c-2.2-0.9-4.2-1.8-6.3-3c-2.5-1.3-4.9-2.6-7.2-4.1c-3-1.9-6-3.9-8.9-6.1
					c-2.5-1.9-4.9-4.2-7.3-6.3c-3-2.8-5.9-5.8-8.5-8.9c-1.9-2.5-4-4.9-5.7-7.5c-1.8-2.6-3.4-5.4-4.9-8.1c-1.6-2.8-3-5.6-4.3-8.6
					c-1-2.3-1.9-4.5-2.7-7c-0.3-1.1-0.8-2.2-1.2-3.2c-0.9-2.9-1.7-5.8-2.4-8.8c-0.6-2.4-1-4.7-1.4-7.2c-0.3-2.4-0.6-4.7-0.8-7.1
					c-0.2-2.7-0.3-5.3-0.3-7.8c0-2.9,0.1-5.7,0.4-8.6c0.3-3,0.6-5.9,1.2-8.8c0.6-3.3,1.4-6.6,2.3-9.9c1-3.3,2-6.7,3.3-10
					c1-2.5,1.9-5,3.2-7.4c1.2-2.3,2.2-4.6,3.5-6.7c2.2-3.1,4-6.7,6.6-9.7c1.3-1.4,2.4-3,3.5-4.4c2.5-3,5.2-5.8,8-8.5
					c2.3-2.2,4.7-4.2,7.2-6c2.3-1.8,4.7-3.5,7.1-5.2c2.9-1.8,5.8-3.5,8.9-5.2c2.8-1.4,5.5-2.7,8.4-3.9c3.1-1.3,6.4-2.4,9.7-3.3
					c2.2-0.6,4.3-1.2,6.6-1.7c3.7-0.8,7.4-1.4,11.2-1.8C282.7,113.7,284.1,113.4,285.4,113.5z M388,209.8
					c-1.8-24.5-10.7-45.4-27.7-62.5c-19.6-19.7-43.5-29.2-71-28.7c-24.4,0.5-45.6,9.4-63.3,26c-21,19.8-31.1,44.5-30.4,73.2
					c0.6,25.5,10.3,47.4,28.4,65.2c21.4,21.1,47.5,30.2,77.4,27.5c22.7-2,42.2-11.4,58.1-27.5C379.9,262.8,389.1,237.8,388,209.8z"
					/>
				<path class="st1" d="M388,209.8c1.1,28.1-8.1,53-28.4,73.3c-16,16.1-35.5,25.5-58.1,27.5c-29.9,2.8-56-6.4-77.4-27.5
					c-18.1-17.8-27.8-39.9-28.4-65.2c-0.6-28.7,9.4-53.4,30.4-73.2c17.6-16.7,38.9-25.6,63.3-26c27.7-0.6,51.6,8.9,71,28.7
					C377.3,164.3,386.2,185.3,388,209.8z M271,251.2c0.9,0.2,1.3-0.2,1.8-0.9c1.4-1.8,2.7-3.7,4.6-4.9c1.8-1.2,3.4-2.7,5.3-4
					c0.1-0.1,0.3-0.1,0.2-0.2c-0.1-1,0.6-1.8,0.8-2.7c0.1-0.5,0.3-0.6,0.8-0.6c0.8-0.1,1.5-0.3,2-1.1c0.9-1.4,2-2.5,3-3.9
					c0.2-0.3,0.4-0.3,0.6-0.4c1.4-0.6,2.8-0.9,4.2-1.5c1.5-0.6,3-1.2,4.5-1.5c0.8-0.1,1.2-0.6,1.5-1.3c0.4-0.9,1.6-1.7,2.5-1.4
					c1.1,0.3,1.8-0.1,2.6-0.6c0.4-0.3,0.6-0.4,1.1-0.2c1,0.4,1.8,0.6,3,0.1c0.4-0.2,0.9-0.3,1.3-0.3c0.5-0.1,1.2,0,1.4-0.8
					c0.3-1.1,0.9-1.5,1.9-1.8c1.3-0.3,2.9,0.1,3.8-1.3c0.4-0.5,0.9-0.5,1.6-0.2c0.6,0.3,1.4,0.6,2.2,0.5c0.6-0.2,1.4-0.4,2-0.6
					c2.6-0.8,5.3-1.3,7.8-1.2c0.6,0,0.9-0.3,0.9-0.9c-0.2-1.7,0.1-3.4,0.1-5.2c0.1-2.5,0-4.9-0.2-7.4c-0.1-1.5-0.2-1.5-1.6-1.5
					c-0.1,0-0.1,0-0.2,0c-1.7-0.4-3.4-0.1-5.3-0.1c-1.3,0-2.6,0.5-3.9,0.8c-0.8,0.2-1.5,0.3-2.3,0.1c-0.9-0.3-1.8-0.3-2.9-0.4
					c-0.9-0.1-1.8-0.1-2.6-0.6c-0.1-0.1-0.3-0.1-0.4,0c-1.2,1-2.8,1.2-3.9,2.3c-0.4,0.4-0.8,0.4-1.4,0.4c-1.3-0.1-2.6-0.2-3.8,0.5
					c-1.4,0.8-2.7,1.6-4.2,2.3c-1,0.4-2,0.3-2.9,1c0,0-0.1,0-0.2,0c-0.9-0.3-1.8-0.1-2.8-0.6c-0.4-0.2-0.9-0.3-1.2,0.2
					c-0.6,0.6-1.3,1.3-1.9,1.8c-1.9,1.8-4.2,3.7-6.2,5.5c-0.3,0.2-0.6,0.4-0.9,0.4c-1.3,0-2.6,0.3-3.9,0.2c-0.2,0-0.5,0-0.6,0.2
					c-1.4,0.8-3,1.3-4.3,1.8c-0.6,0.2-1.2,0.6-1.8,0.5c-1.5-0.3-2.9-0.5-4.3-0.8c-0.3-0.1-0.6-0.1-0.9,0.2c-0.6,0.6-1.3,1.1-1.8,1.7
					c-0.6,0.6-1.3,0.6-1.9,0.5c-0.8-0.2-1.6-0.1-2,0.2c-1.8,1.2-4,1.9-5.8,3.2c-0.3,0.2-0.6,0.4-1,0.6c-0.6,0.4-1.6,0.6-2,1.5
					c-1.3,2.2-2.5,4.4-3.7,6.7c-0.1,0.2-0.3,0.2-0.4,0.2c-0.9,0-1.8,0.2-2.7,0c-1.4-0.4-2.2,0.3-3,1.1c-0.4,0.3-0.4,0.6-0.1,1
					c0.6,1.2,1.5,2.4,2,3.7c0.8,1.9,1.8,3.7,3.1,5.3c0.1,0.2,0.3,0.3,0.3,0.5c0.2,0.5,0.5,0.8,1,0.9c2.3,0.6,4.2,2.2,6.2,3.2
					c0.3,0.1,0.5,0.1,0.6,0c1-0.6,1.8-0.5,2.9,0c1.8,0.9,3.4,0.9,5.3-0.1c0.3-0.2,0.6-0.3,0.9-0.2
					C267.7,251.4,269.3,250.8,271,251.2z M238.5,215.7c1.8-1.5,3.5-2.9,5.4-4.2c1.3-1.1,2.6-2.2,4-3.2c1.5-1.1,3.2-1.6,5.2-1.3
					c0.6,0.1,1.1,0,1.6-0.5c1.1-1.2,2.4-1.5,3.9-1.2c1.1,0.2,2.2-0.1,3.2,0c0.2,0,0.3-0.1,0.5-0.2c0.6-0.6,1.5-0.9,2.3-1.3
					c1.2-0.5,2.3-1.4,3.7-0.9c0.8,0.3,1.7,0.3,2.5,0.3c0.9,0.1,1.8,0.3,2.7,0.6c0.9,0.3,1.9,0.3,2.8-0.2c1.5-0.9,2.8-2,4.1-3.1
					c1.2-1,2.3-1.4,3.8-1.3c0.6,0,1.4-0.3,1.9,0.1c1.1,0.8,2.3,1,3.7,0.8c1.2-0.2,2.3,0,2.9,1.2c0.1,0.2,0.2,0.3,0.4,0.3
					c1.1,0,2.3,0.2,3.3,0.2c1.2,0,2.3,0.1,3.3,0.3c0.2,0,0.4,0.1,0.6,0c1.2-0.4,2.5-0.8,3.5-1.2c1.6-0.6,3.3-0.8,4.9-1.4
					c0.2-0.1,0.5-0.3,0.6,0c0.5,0.5,1.2,0.6,1.7,1.1c0.8,0.6,1.4,0.5,2.2,0.1c0.5-0.3,1-0.3,1.6,0.1c0.5,0.4,1.2,0.5,1.8,0.6
					c1.2,0.3,2.4,0.5,3.3,1.2c0.3,0.2,0.6,0.3,1,0.4c1.6,0.2,3.2,0.1,4.8,0.1c1.8,0,3.8,0.3,5.6,0.1c0.3,0,0.6,0.1,0.6-0.5
					c-0.1-1.6-0.5-3-0.9-4.6c-0.5-2.2-1.1-4.2-1.8-6.3c-0.3-0.9-0.6-1.4-1.8-1.3c-0.3,0.1-0.6,0.1-1,0c-1.9-0.3-4.1-0.4-5.9-1.1
					c-1.7-0.6-3.3-0.9-4.8-1.9c-0.6-0.5-1.4-0.6-2.2-0.8c-0.9-0.1-1.9,0-2.7-0.6c-0.9-0.6-1.8-1.3-2.4-2.3c-0.3-0.4-0.6-0.6-1.1-0.6
					c-1.1-0.1-2-0.6-3.2-0.6c-0.8,0-1.5-0.4-2.2-0.8c-0.2-0.1-0.5-0.3-0.6-0.3c-1.6,0.1-3.1-0.4-4.8-0.3c-0.6,0-1.2,0-1.8-0.2
					c-0.6-0.2-1.2-0.3-1.8-0.1c-0.6,0.3-1.4,0.2-1.9,0.1c-1.1-0.2-2-0.3-3,0.3c-1,0.5-1.9,1-3,1.4c-0.6,0.2-1.2,0.8-1.8,0.6
					c-2.2-0.3-4.4-0.8-6.7-0.9c-0.2,0-0.4-0.2-0.6-0.2c-0.6,0-1.1-0.6-1.8-0.2c-1.8,1.2-3.9,2.2-5.5,3.5c-0.6,0.6-1.3,0.5-1.8-0.1
					c-0.5-0.5-1.2-0.9-1.9-0.6c-1.9,0.5-3.9,0.2-5.6-0.4c-0.4-0.1-0.6,0-1.1,0.2c-1,0.4-1.8,1.1-2.7,1.6c-2.4,1.4-4.7,2.7-7.2,4
					c-1.4,0.8-2.8,1.8-4.2,2.4c-0.2,0.1-0.4,0.2-0.4,0.5c-0.4,1.5-1.2,2.8-1.6,4.2c-0.6,2-1.2,4.2-1.8,6.2c-0.4,1.2-0.5,2.6-0.6,3.8
					C238.8,209.9,238.1,212.7,238.5,215.7z M279.3,267.7c0.5,0.2,0.6,0.5,1.1,0.6c1.6,0.2,3,0.5,4.6,0.6c1.9,0.2,3.9,0.4,5.8,0.2
					c3.1-0.2,6.2-0.5,9.1-1.5c2.2-0.6,4.2-1.7,6.1-3c1.5-1,3-1.8,4.2-3c1-0.8,1.8-1.7,2.9-2.6c0.9-0.6,1.8-1.4,2.5-2.2
					c2.3-2.4,4.1-5.2,6-7.7c1.8-2.4,2.9-5.2,4.3-7.7c1.1-1.8,1.5-4,2.3-5.9c1.2-2.9,1.8-5.9,2.6-8.9c0.3-1.1,0.3-2.3,0.8-3.3
					c0.2-0.5-0.1-0.9-0.6-0.8c-1.7,0.2-3.4,0.1-5.2,0.6c-1.4,0.4-2.7,1-4.1,1.4c-1.1,0.3-1.9,0.8-2.8,1.5c-0.1,0.1-0.4,0.3-0.5,0.3
					c-1-0.1-1.8,0.5-2.9,0.5c-0.6,0-1,0.4-1.3,0.9c-0.6,1.1-1.4,2.4-2.5,3c-1.4,0.6-2.8,1.5-4.3,2c-0.9,0.3-1.8,0.8-2.2,1.7
					c-0.6,1.7-1.8,3-2.2,4.8c-0.1,0.4-0.4,0.8-0.5,1.2c-0.5,1.3-1.5,2.6-1.2,4.2c0,0.1,0.1,0.2-0.1,0.3c-1.1,0.4-2,0.8-3.1,1
					c-0.4,0.1-0.6,0.2-0.6,0.5c-0.4,1.2-0.6,2.5-1.5,3.4c-0.2,0.3-0.3,0.6-0.4,1.2c-0.2,1.2-0.4,2.4-1.3,3.3
					c-1.1,1.2-2.2,2.3-3.1,3.4c-1.1,1.3-2.2,2.6-3.1,3.9c-0.3,0.4-0.6,0.6-1.1,0.8c-1.1,0.5-2.5,0.6-2.2,2.4c0,0.2,0,0.3-0.2,0.3
					c-0.9,0.3-1.7,0.9-2.6,1.1C281.2,266.5,280.4,267.2,279.3,267.7z M261.6,170.2c0.6,0,1.2,0,1.6-0.1c1.5-0.4,3-0.6,4.4-1.1
					c2.5-0.6,4.9-1.2,7.4-1.7c0.4-0.1,0.8-0.2,1.3-0.2c2.9,0.3,5.5,1.2,8.4,1.5c0.9,0.1,1.9,0.2,2.6,0.6c0.9,0.6,1.8,1.3,2.3,2.4
					c0.2,0.4,0.6,0.6,1.1,0.6c1.9,0.2,3.9,0.5,5.8,0.8c0.3,0,0.6,0.2,0.9,0.4c1.7,1.3,3.7,2.4,5.4,3.5c0.8,0.5,1.6,0.6,2.4,0.4
					c0.5-0.2,1-0.3,1.5,0c1.1,0.6,2.6,0.8,3.1,2.2c0,0.1,0.2,0.2,0.3,0.2c1.2,0.1,1.6,1.1,2,1.8c0.5,0.6,0.9,1.2,1.8,1.4
					c1.1,0.2,1.8,0.6,2.3,1.8c0.1,0.2,0.2,0.4,0.4,0.5c1.1,0.6,2.2,1.2,3.3,1.6c2.2,0.8,4.4,1.2,6.7,1.3c1,0,1.1-0.1,0.6-1
					c-0.9-1.9-2-4-3-5.8c-0.6-1.2-1.4-2.3-2.2-3.3c-1.5-2.2-3.1-4.2-4.8-6.1c-1.7-1.8-3.8-3.2-5.7-4.7c-3-2.4-6.3-4-10-5.2
					c-0.9-0.3-1.8-0.6-2.9-0.8c-2-0.5-4.2-0.8-6.2-0.6c-0.6,0.1-1.2,0-1.8-0.1c-1.9-0.4-3.9,0.2-5.7,0.4c-1.7,0.2-3.3,0.8-4.9,1.4
					c-1.6,0.6-3.2,0.8-4.8,1.4c-2,0.8-4,1.8-6.1,2.6c-1.5,0.5-2.7,1.4-4.1,2C263.9,168.7,262.9,169.6,261.6,170.2z M305.6,267.6
					c0.4,0.3,0.8,0.1,1.2,0.1c1.6-0.1,3-0.9,4.4-1.4c2-0.6,4.1-1.5,5.9-2.5c2.8-1.5,5.6-2.8,8-4.8c2.6-2,5.2-4.2,7.5-6.6
					c3.1-3.1,5.5-6.8,7.7-10.4c1.8-2.9,3-6,4.2-9.1c0.1-0.2,0.2-0.3,0.1-0.5c-0.4-1-0.6-2-1.3-3c-0.6-1-1.6-1.8-2.4-2.7
					c-1.6-1.6-3.5-2.6-5.5-3.4c-0.8-0.4-1.2-0.2-1.3,0.8c-0.6,3.4-1.2,6.9-2.5,10.1c-0.6,1.8-0.9,3.8-1.9,5.4
					c-0.6,1.1-1,2.5-1.5,3.8c-0.9,2-2.4,3.9-3.3,5.9c-0.5,1-1,1.8-1.7,2.7c-1.6,1.7-3,3.5-4.3,5.4c-1.8,2.4-4.2,4.2-6.6,6
					c-0.8,0.6-1.6,1.5-2.6,1.8C308.3,265.9,307.2,267.4,305.6,267.6z M328.8,146.8c-0.4,1.9-0.1,4-0.4,5.9c-0.2,2.3-0.2,4.4-0.3,6.7
					c0,0.6-0.1,1.1-0.1,1.6c-0.1,0.6-0.4,1.4,0.2,1.9c1,0.8,2,1.4,3.2,1.8c0.3,0.2,0.5,0.2,0.6-0.2c1.4-2.8,3-5.4,4.5-8.2
					c1.4-2.7,3-5.3,4.5-8c0.9-1.8,1.8-3.4,2.9-5c0.2-0.3,0.4-0.5-0.1-0.8c-1.2-0.6-2.4-1.3-3.5-1.8c-0.4-0.2-0.5-0.1-0.6,0.3
					c-1.5,2.7-3,5.4-4.4,8c-0.5,0.9-1,1.8-1.5,2.8c-0.1-1.6,0.2-3,0.3-4.6c0.2-2.4,0.6-4.8,0.6-7.2c0-0.2,0.1-0.4,0.2-0.6
					c0.4-1.3,0.2-1.6-0.9-2.3c-1.2-0.6-2.6-1.2-3.7-2.2c-0.2-0.2-0.4-0.1-0.5,0.1c-0.8,1.1-1.4,2.2-1.9,3.3c-1.4,2.8-3.1,5.3-4.5,8
					c-1.8,3.3-3.9,6.6-5.5,9.9c-0.3,0.5-0.1,0.6,0.3,1c1.2,0.6,2.5,1.1,3.4,1.8C324.1,155.1,326.1,150.8,328.8,146.8z M350.4,189.1
					c0.3,0.8,0.5,1.8,0.8,2.6c0.8,1.8,1.3,3.5,1.8,5.4c0.1,0.5,0.3,0.9,0.9,1.1c1.2,0.5,2.4,1.1,3.5,1.7c0.2,0.1,0.4,0.2,0.6,0.1
					c3.2-1.3,6.6-2.3,9.9-3.3c1.7-0.5,3.2-1.2,4.9-1.8c0.2-0.1,0.5-0.1,0.6-0.2c0.6-0.2,1.6-0.2,1.9-1c0.6-1.3,1.2-2.6,1.8-3.9
					c0.1-0.3,0-0.4-0.1-0.6c-0.6-1.8-1.3-3.5-1.8-5.4c0-0.1,0-0.3-0.1-0.4c-0.4-1.5-0.8-3-2.6-3.3c-0.6-0.2-1.4-0.6-2-0.9
					c-0.3-0.1-0.5-0.1-0.8,0c-1.5,0.2-2.9,0.9-4.2,1.4c-3.9,1.4-7.8,2.6-11.7,4.1c-0.4,0.2-1,0-1.2,0.4
					C351.8,186.1,351.1,187.6,350.4,189.1z M310.1,301.3c0.1,0,0.4,0,0.6-0.1c1.6-0.6,3.2-0.9,4.9-1.4c0.4-0.1,0.9-0.2,1.4-0.3
					c1-0.2,1.9-0.3,2.5-1.5c0.4-1,1-1.8,1.5-2.9c0.1-0.2,0.1-0.4,0-0.6c-0.1-1.5-0.6-2.9-1-4.3c-0.4-2.3-1.2-4.5-1.7-6.8
					c-0.4-1.8-1-3.5-1.4-5.3c-0.1-0.3-0.2-0.5-0.1-0.8c0.1-0.5-0.2-0.6-0.6-0.9c-1-0.6-2-1.1-3-1.7c-0.6-0.4-1-0.5-1.6-0.3
					c-1.8,0.5-3.5,1.2-5.4,1.4c-1.9,0.3-3.7,0.8-4.2,2.9c-0.1,0.3-0.3,0.6-0.5,0.9c-0.6,0.8-0.5,1.7-0.3,2.5
					c0.6,1.8,0.8,3.7,1.5,5.4c0,0.1,0.1,0.2,0.1,0.3c0.3,1.8,0.9,3.7,1.3,5.5c0.4,1.7,1,3.3,1.2,5c0,0.3,0.2,0.5,0.5,0.6
					c0.9,0.5,1.8,1,2.7,1.5C309.1,301,309.4,301.3,310.1,301.3z M292.9,146.8c-0.5,1.2,0.2,2.4,1.3,3.4c0.3,0.3,0.6,0.6,0.8,1.1
					c0.4,0.6,1,1,1.8,1.1c2.5,0,4.9,0.6,7.4,0.6c0.1,0,0.3,0,0.3,0c0.4,0.4,0.6,0.1,0.9-0.2c0.8-0.6,1.5-1.3,2.4-1.8
					c0.4-0.3,1-0.5,1-1.1c0-0.8,0.2-1.7,0.3-2.5c0.2-1.9,0.5-4,0.6-5.9c0.2-2.2,0.6-4.2,0.6-6.4c0-0.2,0.1-0.3,0.1-0.5
					c0.2-1.4,0.6-2.8-0.4-4c-0.6-0.8-1.5-1.6-1.9-2.6c-0.1-0.2-0.3-0.2-0.5-0.2c-2.2-0.1-4.3-0.6-6.6-0.6c-0.4,0-0.6-0.1-1.1-0.2
					s-1.1-0.4-1.6,0c-1.1,0.8-2,1.7-3.1,2.5c-0.3,0.2-0.3,0.4-0.4,0.6c-0.5,1.8-0.5,3.9-0.6,5.7
					C293.8,139.5,293.4,142.9,292.9,146.8z M243.4,143.8L243.4,143.8c-0.2,0-0.3,0-0.4,0c-1.4-0.4-2.3,0.2-3.3,1.1
					c-1.7,1.6-3.5,2.9-5.4,4.4c-0.2,0.2-0.4,0.2-0.4,0.6c0,1.3-0.4,2.5-0.4,3.8c0,0.4,0,0.6,0.3,1c1.3,1.6,2.6,3.1,3.9,4.7
					c2.4,3,4.7,5.9,7.1,8.9c0.4,0.5,0.8,0.6,1.4,0.6c1.1,0,2.2,0,3.1,0.3c0.6,0.1,1,0,1.4-0.4c1.4-1.2,2.9-2.3,4.2-3.4
					c1.3-1.1,3-1.9,2.6-4.2c0-0.1,0.1-0.3,0.1-0.4c0-0.8,0.5-1.7-0.1-2.4c-1-1.3-1.9-2.6-3-3.9c-1.8-2.2-3.5-4.2-5.4-6.6
					c-0.6-0.9-1.6-1.7-2.2-2.7c-0.6-1.1-1.5-1.6-2.7-1.5C243.9,143.9,243.7,143.8,243.4,143.8z M279,141c-0.2-0.6-0.2-1.3-0.4-1.9
					c-0.6-1.8-1.2-3.9-1.7-5.8c-0.1-0.5-0.2-1-0.6-1.3c-1.3-0.9-2.7-1.7-4.1-2.4c-0.2-0.1-0.4,0-0.6,0.1c-1.4,0.4-2.8,0.9-4.2,1.3
					c-2.2,0.6-4.2,1.3-6.2,1.9c-0.3,0.1-0.3,0.2-0.3,0.6c0.3,1.6,0.9,3,1.3,4.6c0.5,2,1.3,4.1,1.8,6.1c0.6,2.5,1.5,4.8,2.2,7.2
					c0.6,1.8,1.1,3.7,1.6,5.4c0.1,0.3,0.2,0.5,0.5,0.3c1.3-0.5,2.7-0.9,4-1.2c0.4-0.1,0.4-0.3,0.3-0.6c-0.6-2-1.3-4.2-1.9-6.3
					c-0.4-1.3-0.4-1.3,0.9-1.7c0.8-0.3,1.4-0.3,1.9,0.5c1.5,1.9,3,4,4.6,5.8c0.1,0.2,0.3,0.5,0.6,0.3c1.4-0.6,3-0.8,4.3-1.5
					c0.5-0.2,0.5-0.4,0.2-0.8c-1.8-2.2-3.5-4.2-5.4-6.4c-0.3-0.4-0.4-0.6-0.2-1.1C278.2,143.2,278.5,142.1,279,141z M213.8,254.6
					c2-1.9,4.1-3.9,6.1-5.8c0.6-0.6,1.3-0.9,2.2-0.5c0.8,0.4,1.8,0.5,2.6,0.8c0.3,0.1,0.5,0.1,0.8,0c2.5-1.2,5.2-2,7.7-3
					c0.5-0.2,0.8-0.5,1-1c0.5-1.1,0.8-2.4,1.6-3.3c0.2-0.2,0.1-0.4,0-0.6c-0.5-1-0.8-2-1.2-3.1c-0.6-1.6-1.2-3.2-1.9-4.8
					c-0.4-0.6-0.5-1.6-0.9-2.4c-0.2-0.4-0.3-0.4-0.6-0.3c-1.5,0.3-2.8,1.2-4.2,1.6c-2,0.6-4.2,1.5-6.2,2.3s-4.2,1.7-6.3,2.5
					c-1.8,0.6-3.8,1.5-5.6,2.2c-0.5,0.2-0.6,0.5-0.5,1c0.5,1.2,1,2.4,1.3,3.5c0.1,0.2,0.1,0.4,0.5,0.3c1.9-0.8,4-1.5,5.9-2.3
					c1.6-0.6,1.6-0.8,2.3,0.8c0.4,0.8,0.3,1.3-0.5,1.8c-2,1.5-3.7,3.4-5.5,5c-0.2,0.2-0.4,0.3-0.3,0.6
					C212.7,251.4,212.9,253.1,213.8,254.6z M350.2,282.5c-1.6-1-3-1.9-4.5-3c-1.1-0.6-2.2-1.5-3.1-2.3c-0.2-0.1-0.4-0.2-0.4-0.5
					c0.1-1.2-0.1-2.3,0.2-3.3c0.1-0.4,0.1-0.6-0.1-0.9c-0.9-1.3-1.8-2.7-2.7-4c-0.6-1-1.4-1.9-1.9-3c-0.3-0.5-0.6-0.6-1-0.6
					c-1.4-0.3-2.8-0.3-4.1-0.8c-0.2-0.1-0.4,0.1-0.6,0.2c-1.2,0.8-2.4,1.7-3.7,2.5c-1.8,1.2-3.5,2.4-5.4,3.5
					c-0.2,0.1-0.6,0.2-0.3,0.6c1.1,1.7,2.2,3.3,3.3,5c1.4,2,2.9,4.1,4.2,6.2c0.6,1,1.4,1.9,1.9,3c1.4,2,2.8,4.2,4.1,6.2
					c0.2,0.3,0.4,0.3,0.6,0.1c1.2-0.6,2-1.6,3.2-2.3c0.4-0.2,0.1-0.4,0-0.5c-1.3-1.9-2.6-4-4-5.8c-0.3-0.5-0.4-0.8,0.2-1.1
					c0.2-0.1,0.4-0.3,0.6-0.5c0.6-0.5,1-0.5,1.7-0.1c2.2,1.5,4.4,2.7,6.4,4.3c0.2,0.2,0.4,0.2,0.6,0.1
					C347.3,284.3,348.8,283.6,350.2,282.5z M359.3,268.2c1.3,0.1,2.4-0.6,3.5-0.6c0.8,0,1-0.4,1.4-0.9c1.4-1.9,2.6-4.2,4.1-6
					c0.4-0.5,0.8-1.1,0.6-1.8c-0.3-0.8-0.4-1.6-0.4-2.4c0-0.6,0-1.3-0.6-1.7c-0.8-0.5-1.5-1-2.3-1.5c-1.3-0.8-2.6-1.6-3.8-2.6
					c-0.5-0.4-1-0.6-1.7-0.4c-0.8,0.2-1.6,0.4-2.5,0.4c-0.6,0-1.3,0-1.8,0.6c-1,1.5-1.9,2.9-3,4.3c-0.6,1-1.7,1.2-2.6,0.5
					c-0.4-0.3-0.9-0.6-1.2-1.1c-0.3-0.4-0.6-1-0.3-1.6c0.5-0.8,0.9-1.6,1.5-2.3c0.8-1.1,0.9-1.1,1.9-0.4c0.4,0.2,0.6,0.3,0.9-0.2
					c0.6-1.2,1.5-2.3,2.3-3.3c0.3-0.5,0.2-0.6-0.2-1c-0.6-0.4-1.5-0.8-2-1.4c-0.5-0.5-0.8-0.5-1.4-0.4c-1,0.2-1.8,0.5-3,0.5
					c-0.6,0-1.2,0.1-1.6,0.6c-1.5,2.4-3,4.6-4.6,7c-0.3,0.4-0.3,0.6-0.2,1.1c0.2,1,0.6,1.9,0.6,3c0,0.5,0.2,1,0.6,1.4
					c2,1.3,4.2,2.7,6.2,4c0.6,0.4,1.2,0.4,1.8,0.3c1.1-0.2,2-0.6,3.1-0.5c0.4,0,0.6-0.3,0.8-0.6c0.8-1.4,1.7-2.7,2.5-4
					c0.2-0.3,0.4-0.6,0.6-0.8c0.9-0.4,2.5,0,3,0.8c0.5,0.5,0.4,1.8-0.2,2.7c-0.3,0.4-0.6,0.8-0.9,1.2c-1.1,1.6-1.1,1.6-2.6,0.4
					c-0.3-0.2-0.4-0.2-0.5,0.1c-0.8,1.3-1.7,2.6-2.5,3.8c-0.2,0.3-0.1,0.4,0.1,0.6c0.9,0.6,1.8,1.2,2.8,1.8
					C358.8,268.2,359.1,268.3,359.3,268.2z M233.3,281.1c1.1-1.4,1.8-2.8,2.8-4.1c1.8-2.6,3.3-5.4,5-7.8c1.9-3,3.8-6.1,5.8-9
					c0.9-1.4,0.9-1.4-0.2-2.7c-0.1-0.1-0.2-0.3-0.3-0.4c-0.6-0.8-1.4-1.7-2.2-2.3c-0.4-0.3-1.3,0.6-1.9,0.9
					c-0.2,0.1-0.5,0.1-0.6,0.2c-2.3,1.2-4.6,2-7,3.1c-1.6,0.8-3.1,1.5-4.8,2.2c-3.1,1.3-6.1,2.8-9.2,4.2c-0.6,0.3-0.6,0.6-0.2,1
					c0.9,1.1,1.8,2,2.7,3.1c0.3,0.3,0.5,0.3,0.8,0.2c1.1-0.4,2-0.9,3-1.4c0.1-0.1,0.3-0.3,0.5,0c1.4,1.6,2.8,3.1,4.2,4.8
					c0.4,0.4,0.4,0.9,0,1.4c-0.5,0.6-0.9,1.6-1.5,2.3c-0.2,0.2-0.3,0.5-0.1,0.8C231.1,278.7,232.4,279.6,233.3,281.1z M260.8,287.1
					c0.6-0.1,1.3-0.4,1.8-0.6c0.6-0.2,1.7-0.3,2-1c1.5-2.5,2.8-4.9,4.2-7.4c0.1-0.2,0.2-0.4,0.1-0.6c-0.3-1.2-0.6-2.5-1-3.7
					c-0.2-0.6-0.6-1.2-1.3-1.5c-0.8-0.4-1.6-0.8-2.4-1.2c-2.2-1-4.2-2.4-6.2-3.5c-0.2-0.1-0.5-0.3-0.6,0.1c-0.4,1.2-1.4,2.2-1.9,3.2
					c-1.3,2.4-2.7,4.7-4,7.2c-1.9,3.7-4.2,7.2-6,11c-0.2,0.5-0.2,0.6,0.3,0.9c1.1,0.5,2,1.1,3.1,1.7c0.2,0.1,0.4,0.2,0.6-0.1
					c0.4-0.6,0.8-1.2,1.2-1.8c1-1.8,1.9-3.7,3-5.5c0.2-0.5,0.5-0.5,0.9-0.3c1.8,0.9,3.3,2,5.3,3
					C260.3,286.7,260.5,286.8,260.8,287.1z M345.8,229.5c0.4-1.5,0.6-2.8,1-4.2c0.6-2.9,1-5.8,1.1-8.8c0-2.2,0-4.3-0.3-6.4
					c-0.1-0.8-0.5-1.4-1.2-1.6c-1.8-0.6-3.7-1.8-5.6-1.9c-1.7-0.2-3.2-0.8-5-0.8c-0.6,0-1,0-1,0.8c-0.1,1.8,0.2,3.4,0.3,5.3
					c0.1,2.5-0.2,4.8-0.2,7.2c0,0.3-0.2,0.6-0.2,0.8c-0.1,0.6,0,1,0.6,1.2c2,0.6,4,1.4,5.6,2.9c1.5,1.2,2.8,2.5,3.8,4.1
					C345.1,228.4,345.2,229,345.8,229.5z M347.1,206.6c-0.4-2.4-0.6-4.5-1.5-6.6c-0.5-1.2-0.9-2.4-1.2-3.7c-0.4-1.8-1.4-3.2-1.9-4.9
					c-0.4-1.1-1.2-2-1.8-3c-0.6-0.9-1-1.9-1.6-2.9c-0.5-0.6-0.8-0.5-1.2,0c-0.5,0.6-1,1.5-1.8,1.9c-1.4,1-2.8,1.8-4.3,2.4
					c-0.6,0.3-0.8,0.6-0.5,1.3c0.1,0.4,0.3,0.6,0.4,1.1c0.6,1.5,1.1,3,1.5,4.5c0.5,1.9,0.8,4,1.1,5.9c0.1,0.4,0.1,0.6,0.6,0.6
					c0.8,0,1.6,0.2,2.4,0.3c1.6,0.2,3,0.3,4.5,0.9C343.4,205.1,345.2,205.5,347.1,206.6z M286.9,295.1c0.6-2.4,0.4-4.9,0.8-7.3
					c0.3-1.4,0.1-2.9,0.5-4.2c0.1-0.4,0.2-0.5,0.6-0.5c1.1,0.2,2.3,0,3.3,0.4c0.5,0.2,0.6,0,0.8-0.6c0-1.1,0.1-2.2,0.3-3.1
					c0.3-1.5,0.2-1.5-1.3-1.8c-0.3,0-0.6-0.2-0.9-0.2c-2.4-0.1-4.7-0.5-7-0.6c-1.5-0.1-3-0.4-4.5-0.5c-0.4,0-0.6-0.1-0.6,0.4
					c0,1.4-0.3,2.7-0.4,4c-0.1,1,0,1.1,1.1,1.2c1,0,1.9,0.1,2.9,0.1c0.4,0,0.5,0.1,0.5,0.5c0,0.8-0.3,1.6-0.4,2.4
					c-0.2,2.9-0.6,5.6-0.8,8.4c-0.2,2.2-0.6,4.3-0.6,6.6c0,0.6,0,1.1-0.2,1.7c-0.2,0.3,0.1,0.4,0.3,0.4c1.6,0.1,3,0.4,4.6,0.4
					c0.2,0,0.5,0,0.4-0.3c0-0.4,0.2-0.8,0.3-1.2C286.6,299.2,286.7,297.3,286.9,295.1z M225.6,166.9c0.1-0.3-0.2-0.3-0.4-0.4
					c-1.2-0.9-2.8-1.4-3.9-2.4c-0.2-0.2-0.4-0.1-0.5,0.2c-0.6,1.2-1.4,2.3-2,3.3c-1.1,1.6-2,3.3-3,5c-0.6,1.1-1.4,2.2-2,3.2
					c-0.2,0.2-0.4,0.5,0.1,0.6c1.4,0.6,2.8,1.6,4,2.5c0.4,0.3,0.6,0.2,0.8-0.2c0.5-1,1.2-1.9,1.7-3c0.3-0.6,0.5-0.6,1-0.3
					c1,0.6,2,1.3,3,1.8c2.9,1.8,5.9,3.3,8.8,5.2c1.4,0.9,2.8,1.6,4.2,2.4c0.3,0.2,0.5,0.2,0.8-0.2c0.6-1.2,1.5-2.5,2.3-3.7
					c0.2-0.3,0.2-0.5-0.2-0.6c-1.7-0.8-3.1-2-4.8-3c-2.8-1.4-5.3-3.1-7.8-4.6c-1.2-0.6-2.4-1.4-3.5-2c-0.3-0.2-0.4-0.3-0.2-0.6
					c0.5-0.8,0.9-1.5,1.3-2.3C225,167.7,225.2,167.3,225.6,166.9z M365.5,164.5c-0.6-1.5-1.8-2.6-2.9-3.9c-1.8-2.5-3.8-4.8-5.7-7.3
					c-0.1-0.2-0.3-0.5-0.6-0.2c-1.3,1.1-2.5,2-3.8,3.1c-0.3,0.2-0.1,0.3,0,0.6c0.5,0.8,1.2,1.5,1.8,2.2c0.8,1,0.8,1-0.1,1.8
					c-2.5,2-4.9,4.1-7.4,6c-2.4,1.8-4.5,3.8-6.9,5.6c-0.3,0.2-0.2,0.3,0,0.4c1,1.2,1.8,2.3,2.9,3.4c0.3,0.4,0.5,0.3,0.9,0
					c1.6-1.4,3.2-2.7,4.9-4.1c2.2-1.8,4.2-3.5,6.6-5.4c1.1-0.8,1.9-1.8,3-2.5c0.3-0.2,0.3-0.3,0.6,0.1c0.6,1,1.6,1.7,2.2,2.8
					c0.2,0.3,0.4,0.5,0.8,0.2C363,166.5,364.4,165.6,365.5,164.5z M308.7,163.1c0.1,0.2,0.3,0.3,0.4,0.4c1.5,0.8,2.9,1.5,4.3,2.4
					c3,1.8,5.4,4.4,7.6,7.1c1.8,1.9,3.2,4.2,4.7,6.6c1.6,2.5,3,5,4.2,7.7c0.2,0.4,0.4,0.5,0.8,0.4c2.5-0.5,4.2-1.9,5.5-4.1
					c0.2-0.3,0.3-0.6,0.1-1c-0.3-1-0.8-1.8-1.5-2.5c-1-1-1.9-1.9-3-3c-1-1.1-1.8-2.3-3-3.1c-2.8-2.3-5.8-4.2-8.8-6.1
					c-1.2-0.8-2.6-1.3-4-1.9c-2-1-4.1-2.3-6.4-2.7C309.5,163.1,309.3,162.8,308.7,163.1z"/>
				<path class="st0" d="M271,251.2c-1.7-0.4-3.4,0.2-5.2-0.2c-0.3-0.1-0.6,0-0.9,0.2c-1.7,1.1-3.4,1-5.3,0.1c-1-0.5-1.8-0.6-2.9,0
					c-0.2,0.1-0.4,0.2-0.6,0c-2-1.1-4-2.5-6.2-3.2c-0.5-0.2-0.8-0.4-1-0.9c-0.1-0.2-0.2-0.4-0.3-0.5c-1.3-1.6-2.4-3.3-3.1-5.3
					c-0.5-1.3-1.3-2.5-2-3.7c-0.3-0.4-0.3-0.6,0.1-1c0.9-0.8,1.8-1.4,3-1.1c0.9,0.2,1.8,0,2.7,0c0.2,0,0.3,0,0.4-0.2
					c1.2-2.3,2.4-4.5,3.7-6.7c0.4-0.8,1.3-1.1,2-1.5c0.3-0.2,0.6-0.3,1-0.6c1.8-1.3,4-2,5.8-3.2c0.5-0.3,1.4-0.5,2-0.2
					c0.6,0.2,1.4,0.1,1.9-0.5c0.6-0.6,1.3-1.1,1.8-1.7c0.3-0.3,0.6-0.2,0.9-0.2c1.5,0.3,2.9,0.5,4.3,0.8c0.6,0.1,1.3-0.2,1.8-0.5
					c1.5-0.6,3-1.1,4.3-1.8c0.2-0.1,0.5-0.2,0.6-0.2c1.3,0.2,2.6-0.2,3.9-0.2c0.4,0,0.6-0.1,0.9-0.4c2-1.8,4.2-3.7,6.2-5.5
					c0.6-0.6,1.4-1.2,1.9-1.8c0.3-0.5,0.8-0.4,1.2-0.2c0.9,0.5,1.8,0.3,2.8,0.6c0.1,0,0.1,0,0.2,0c0.8-0.6,1.8-0.5,2.9-1
					c1.4-0.6,2.8-1.4,4.2-2.3c1.1-0.6,2.5-0.6,3.8-0.5c0.5,0,1,0,1.4-0.4c1.1-1.1,2.7-1.3,3.9-2.3c0.1-0.1,0.3-0.1,0.4,0
					c0.8,0.5,1.7,0.5,2.6,0.6c1,0.1,1.8,0.1,2.9,0.4c0.6,0.2,1.5,0.2,2.3-0.1c1.3-0.4,2.6-0.8,3.9-0.8c1.7,0,3.4-0.3,5.3,0.1
					c0.1,0,0.1,0,0.2,0c1.5,0,1.5,0,1.6,1.5c0.2,2.5,0.3,4.9,0.2,7.4c-0.1,1.7-0.4,3.4-0.1,5.2c0.1,0.6-0.2,1-0.9,0.9
					c-2.8-0.2-5.4,0.4-7.8,1.2c-0.6,0.2-1.4,0.4-2,0.6c-0.8,0.2-1.5-0.2-2.2-0.5c-0.6-0.3-1.2-0.3-1.6,0.2c-1,1.4-2.5,1-3.8,1.3
					c-1.1,0.3-1.7,0.6-1.9,1.8c-0.2,0.6-0.9,0.6-1.4,0.8s-0.9,0.2-1.3,0.3c-1,0.5-1.9,0.3-3-0.1c-0.5-0.2-0.8-0.1-1.1,0.2
					c-0.8,0.6-1.5,1-2.6,0.6c-0.9-0.3-2.2,0.5-2.5,1.4c-0.3,0.6-0.6,1.2-1.5,1.3c-1.6,0.3-3,0.9-4.5,1.5c-1.4,0.6-2.9,0.9-4.2,1.5
					c-0.2,0.1-0.5,0.2-0.6,0.4c-0.9,1.4-2,2.5-3,3.9c-0.5,0.8-1.2,1.1-2,1.1c-0.5,0-0.8,0.2-0.8,0.6c-0.1,1-1,1.7-0.8,2.7
					c0,0.1-0.2,0.1-0.2,0.2c-1.8,1.3-3.3,2.8-5.3,4c-1.9,1.3-3.2,3-4.6,4.9C272.3,251,271.9,251.4,271,251.2z"/>
				<path class="st0" d="M238.5,215.7c-0.3-3,0.3-5.8,0.6-8.6c0.2-1.3,0.3-2.6,0.6-3.8c0.6-2,1.2-4.2,1.8-6.2
					c0.5-1.5,1.2-2.8,1.6-4.2c0.1-0.3,0.2-0.4,0.4-0.5c1.5-0.6,2.9-1.6,4.2-2.4c2.4-1.3,4.8-2.6,7.2-4c0.9-0.5,1.7-1.1,2.7-1.6
					c0.4-0.2,0.6-0.3,1.1-0.2c1.8,0.6,3.8,0.9,5.6,0.4c0.8-0.2,1.4,0.1,1.9,0.6c0.6,0.6,1.1,0.6,1.8,0.1c1.8-1.4,3.8-2.4,5.5-3.5
					c0.6-0.4,1.2,0.2,1.8,0.2c0.2,0,0.4,0.2,0.6,0.2c2.3,0,4.4,0.5,6.7,0.9c0.8,0.1,1.3-0.4,1.8-0.6c1.1-0.3,2-0.9,3-1.4
					s1.9-0.5,3-0.3c0.6,0.1,1.3,0.2,1.9-0.1c0.6-0.2,1.3-0.1,1.8,0.1c0.6,0.2,1.2,0.2,1.8,0.2c1.6-0.1,3.1,0.3,4.8,0.3
					c0.3,0,0.5,0.1,0.6,0.3c0.6,0.4,1.4,0.9,2.2,0.8c1.2-0.1,2,0.6,3.2,0.6c0.4,0,0.8,0.3,1.1,0.6c0.6,1,1.6,1.6,2.4,2.3
					c0.8,0.6,1.8,0.5,2.7,0.6c0.8,0.1,1.6,0.3,2.2,0.8c1.5,1,3.2,1.3,4.8,1.9c1.9,0.6,4,0.8,5.9,1.1c0.3,0.1,0.6,0,1,0
					c1-0.2,1.5,0.4,1.8,1.3c0.6,2,1.3,4.2,1.8,6.3c0.3,1.5,0.8,3,0.9,4.6c0,0.6-0.3,0.5-0.6,0.5c-1.8,0.2-3.8-0.1-5.6-0.1
					c-1.6,0-3.2,0.1-4.8-0.1c-0.4-0.1-0.6-0.2-1-0.4c-1-0.6-2.2-0.9-3.3-1.2c-0.6-0.1-1.3-0.3-1.8-0.6c-0.5-0.4-1-0.4-1.6-0.1
					c-0.6,0.4-1.4,0.6-2.2-0.1c-0.5-0.4-1.2-0.6-1.7-1.1c-0.2-0.3-0.5-0.1-0.6,0c-1.6,0.6-3.3,0.6-4.9,1.4c-1.2,0.5-2.4,0.8-3.5,1.2
					c-0.3,0.1-0.5,0-0.6,0c-1.1-0.2-2.3-0.3-3.3-0.3s-2.3-0.2-3.3-0.2c-0.2,0-0.4-0.1-0.4-0.3c-0.6-1.2-1.7-1.4-2.9-1.2
					c-1.3,0.2-2.6,0-3.7-0.8c-0.6-0.4-1.3-0.1-1.9-0.1c-1.4-0.1-2.6,0.3-3.8,1.3c-1.3,1.1-2.6,2.3-4.1,3.1c-0.9,0.5-1.8,0.6-2.8,0.2
					c-0.9-0.3-1.7-0.5-2.7-0.6c-0.8-0.1-1.7-0.1-2.5-0.3c-1.4-0.5-2.6,0.4-3.7,0.9c-0.8,0.3-1.6,0.6-2.3,1.3
					c-0.1,0.1-0.3,0.2-0.5,0.2c-1.1-0.2-2.2,0.2-3.2,0c-1.6-0.3-2.9,0-3.9,1.2c-0.5,0.5-1,0.6-1.6,0.5c-1.8-0.3-3.7,0.2-5.2,1.3
					c-1.4,1-2.6,2.2-4,3.2C242,212.8,240.3,214.2,238.5,215.7z"/>
				<path class="st0" d="M279.3,267.7c1.1-0.6,1.9-1.2,3-1.4c1-0.2,1.7-0.8,2.6-1.1c0.2-0.1,0.2-0.1,0.2-0.3
					c-0.4-1.8,1.1-1.9,2.2-2.4c0.5-0.2,0.8-0.4,1.1-0.8c1-1.3,2-2.6,3.1-3.9c1-1.2,2-2.3,3.1-3.4c0.9-1,1.1-2.2,1.3-3.3
					c0.1-0.4,0.1-0.8,0.4-1.2c0.8-1.1,1.2-2.3,1.5-3.4c0.1-0.3,0.3-0.4,0.6-0.5c1.1-0.2,2-0.6,3.1-1c0.2-0.1,0.1-0.2,0.1-0.3
					c-0.2-1.6,0.6-2.8,1.2-4.2c0.2-0.4,0.4-0.8,0.5-1.2c0.4-1.8,1.6-3.1,2.2-4.8c0.4-0.9,1.3-1.3,2.2-1.7c1.5-0.6,2.9-1.3,4.3-2
					c1.2-0.6,1.8-1.8,2.5-3c0.3-0.5,0.6-0.9,1.3-0.9c1-0.1,1.8-0.6,2.9-0.5c0.2,0,0.4-0.2,0.5-0.3c0.8-0.8,1.7-1.2,2.8-1.5
					c1.4-0.4,2.7-1,4.1-1.4c1.7-0.5,3.3-0.4,5.2-0.6c0.5-0.1,0.9,0.3,0.6,0.8c-0.5,1.1-0.5,2.3-0.8,3.3c-0.8,3-1.4,6-2.6,8.9
					c-0.8,1.9-1.3,4.1-2.3,5.9c-1.5,2.6-2.6,5.4-4.3,7.7c-1.9,2.6-3.8,5.4-6,7.7c-0.8,0.8-1.7,1.5-2.5,2.2c-1,0.8-1.8,1.7-2.9,2.6
					c-1.4,1.2-2.8,2-4.2,3c-1.8,1.2-4,2.3-6.1,3c-3,1-6.1,1.3-9.1,1.5c-1.9,0.1-4,0-5.8-0.2c-1.6-0.2-3.1-0.5-4.6-0.6
					C279.9,268.2,279.6,267.9,279.3,267.7z"/>
				<path class="st0" d="M261.6,170.2c1.4-0.6,2.3-1.6,3.5-2.2c1.4-0.6,2.6-1.6,4.1-2c2-0.6,4.1-1.8,6.1-2.6
					c1.6-0.6,3.2-0.8,4.8-1.4c1.6-0.6,3.2-1.2,4.9-1.4c1.8-0.2,3.8-0.9,5.7-0.4c0.6,0.1,1.2,0.1,1.8,0.1c2-0.2,4.2,0.2,6.2,0.6
					c0.9,0.2,1.8,0.5,2.9,0.8c3.5,1.2,7,2.8,10,5.2c1.9,1.5,4.1,2.9,5.7,4.7c1.7,1.9,3.3,4,4.8,6.1c0.8,1.1,1.6,2.2,2.2,3.3
					c1.1,1.9,2.2,3.9,3,5.8c0.4,0.9,0.3,1.1-0.6,1c-2.4,0-4.5-0.5-6.7-1.3c-1.2-0.4-2.3-1.1-3.3-1.6c-0.2-0.1-0.3-0.3-0.4-0.5
					c-0.4-1.1-1.2-1.6-2.3-1.8c-0.9-0.1-1.3-0.6-1.8-1.4c-0.6-0.8-0.9-1.8-2-1.8c-0.1,0-0.2-0.1-0.3-0.2c-0.6-1.4-2-1.5-3.1-2.2
					c-0.5-0.3-1-0.2-1.5,0c-0.9,0.3-1.6,0.2-2.4-0.4c-1.8-1.2-3.7-2.3-5.4-3.5c-0.2-0.2-0.5-0.3-0.9-0.4c-1.9-0.3-3.9-0.6-5.8-0.8
					c-0.5-0.1-0.9-0.2-1.1-0.6c-0.5-1.1-1.5-1.7-2.3-2.4c-0.6-0.5-1.7-0.6-2.6-0.6c-2.8-0.3-5.5-1.2-8.4-1.5c-0.5,0-0.9,0.1-1.3,0.2
					c-2.5,0.6-4.9,1.2-7.4,1.7c-1.5,0.4-3,0.6-4.4,1.1C262.7,170.2,262.2,170.2,261.6,170.2z"/>
				<path class="st0" d="M305.6,267.6c1.7-0.4,2.8-1.8,4.3-2.4c1-0.4,1.7-1.2,2.6-1.8c2.4-1.8,4.6-3.8,6.6-6
					c1.5-1.8,2.9-3.7,4.3-5.4c0.6-0.8,1.2-1.7,1.7-2.7c1-2,2.5-3.9,3.3-5.9c0.5-1.2,0.8-2.6,1.5-3.8c1.1-1.7,1.3-3.5,1.9-5.4
					c1.3-3.2,1.8-6.7,2.5-10.1c0.2-0.9,0.5-1.1,1.3-0.8c1.9,0.9,3.9,1.8,5.5,3.4c0.9,0.8,1.7,1.7,2.4,2.7c0.6,0.9,0.9,1.9,1.3,3
					c0.1,0.2,0,0.3-0.1,0.5c-1.2,3.1-2.4,6.3-4.2,9.1c-2.4,3.7-4.7,7.3-7.7,10.4c-2.4,2.4-4.9,4.4-7.5,6.6c-2.4,1.9-5.3,3.3-8,4.8
					c-1.8,1-3.9,1.8-5.9,2.5c-1.5,0.4-2.9,1.2-4.4,1.4C306.4,267.8,305.9,267.9,305.6,267.6z"/>
				<path class="st2" d="M328.8,146.8c-2.7,4.1-4.7,8.4-7.3,12.5c-1.1-0.8-2.3-1.3-3.4-1.8c-0.5-0.2-0.6-0.4-0.3-1
					c1.7-3.3,3.9-6.6,5.5-9.9c1.4-2.7,3.1-5.3,4.5-8c0.6-1.2,1.2-2.3,1.9-3.3c0.2-0.2,0.3-0.4,0.5-0.1c1.1,1,2.5,1.4,3.7,2.2
					c1.1,0.6,1.4,1,0.9,2.3c-0.1,0.2-0.2,0.4-0.2,0.6c0,2.5-0.5,4.8-0.6,7.2c-0.1,1.5-0.4,3-0.3,4.6c0.5-0.9,1-1.8,1.5-2.8
					c1.5-2.7,3-5.4,4.4-8c0.2-0.4,0.3-0.5,0.6-0.3c1.2,0.6,2.4,1.3,3.5,1.8c0.5,0.2,0.3,0.5,0.1,0.8c-1,1.7-1.9,3.3-2.9,5
					c-1.4,2.7-3,5.3-4.5,8c-1.5,2.8-3.1,5.4-4.5,8.2c-0.2,0.4-0.4,0.3-0.6,0.2c-1.1-0.6-2.3-1.1-3.2-1.8c-0.6-0.5-0.3-1.3-0.2-1.9
					c0.1-0.6,0.1-1.1,0.1-1.6c0.1-2.3,0.1-4.4,0.3-6.7C328.7,150.8,328.5,148.7,328.8,146.8z"/>
				<path class="st2" d="M350.4,189.1c0.6-1.6,1.3-3,2.2-4.3c0.3-0.4,0.8-0.3,1.2-0.4c3.9-1.5,7.7-2.7,11.7-4.1
					c1.4-0.5,2.7-1.1,4.2-1.4c0.3,0,0.6-0.1,0.8,0c0.6,0.3,1.4,0.8,2,0.9c1.8,0.4,2.2,1.8,2.6,3.3c0,0.1,0,0.3,0.1,0.4
					c0.6,1.8,1.3,3.5,1.8,5.4c0.1,0.2,0.3,0.3,0.1,0.6c-0.6,1.3-1.2,2.6-1.8,3.9c-0.4,0.8-1.3,0.8-1.9,1c-0.2,0.1-0.5,0.1-0.6,0.2
					c-1.7,0.6-3.2,1.3-4.9,1.8c-3.2,1.1-6.6,2-9.9,3.3c-0.2,0.1-0.4,0-0.6-0.1c-1.2-0.6-2.4-1.2-3.5-1.7c-0.6-0.2-0.6-0.6-0.9-1.1
					c-0.5-1.8-1.1-3.7-1.8-5.4C351,190.9,350.8,190,350.4,189.1z M358.8,194c0.1,0,0.2-0.1,0.3-0.1c1.7-0.6,3.4-1.2,5.2-1.8
					c1.8-0.6,3.5-1.4,5.4-1.8c1.2-0.4,1.7-1.1,1.2-2.3c-0.2-0.4-0.3-0.8-0.3-1.3c-0.3-1.7-1.6-2-2.3-1.7c-0.6,0.3-1.5,0.6-2.3,0.8
					c-2.7,1-5.5,1.8-8.2,3c-1,0.5-1.4,1.3-1,2.4c0.2,0.6,0.5,1.3,0.6,1.8C357.7,193.7,358.4,193.7,358.8,194z"/>
				<path class="st2" d="M310.1,301.3c-0.6,0-1.1-0.4-1.6-0.6c-0.9-0.5-1.8-1-2.7-1.5c-0.3-0.1-0.4-0.3-0.5-0.6
					c-0.3-1.7-0.8-3.3-1.2-5c-0.5-1.8-1-3.7-1.3-5.5c0-0.1,0-0.2-0.1-0.3c-0.6-1.8-0.9-3.7-1.5-5.4c-0.3-0.9-0.4-1.7,0.3-2.5
					c0.2-0.3,0.4-0.6,0.5-0.9c0.6-2,2.3-2.6,4.2-2.9c1.8-0.3,3.5-0.9,5.4-1.4c0.6-0.2,1-0.1,1.6,0.3c0.9,0.6,1.9,1.2,3,1.7
					c0.4,0.2,0.6,0.4,0.6,0.9c0,0.2,0.1,0.5,0.1,0.8c0.5,1.8,1.1,3.4,1.4,5.3c0.5,2.3,1.3,4.5,1.7,6.8c0.3,1.5,0.9,2.8,1,4.3
					c0,0.2,0.1,0.4,0,0.6c-0.5,1-1.1,1.8-1.5,2.9c-0.5,1.2-1.5,1.3-2.5,1.5c-0.5,0.1-0.9,0.1-1.4,0.3c-1.6,0.5-3.3,0.8-4.9,1.4
					C310.6,301.3,310.2,301.3,310.1,301.3z M311.1,280.8c-1.2,0.2-2.4,0.3-3.3,0.8c-0.5,0.3-0.9,0.8-0.8,1.6
					c0.4,1.8,0.8,3.7,1.4,5.5c0.5,1.8,0.8,3.7,1.4,5.4c0.3,1,1,1.4,1.9,1.1c0.5-0.1,0.9-0.3,1.4-0.3c1.5-0.1,2.6-1.5,1.8-2.8
					c-0.3-0.4-0.2-1-0.3-1.5c-0.8-3-1.6-5.9-2.3-8.9C312.2,281.1,311.6,280.9,311.1,280.8z"/>
				<path class="st2" d="M292.9,146.8c0.5-3.9,0.8-7.3,1.3-10.6c0.2-1.8,0.2-3.9,0.6-5.7c0.1-0.3,0.1-0.5,0.4-0.6
					c1.1-0.8,2-1.7,3.1-2.5c0.5-0.4,1.1-0.2,1.6,0c0.4,0.1,0.6,0.2,1.1,0.2c2.2,0.1,4.3,0.6,6.6,0.6c0.2,0,0.4,0,0.5,0.2
					c0.5,1,1.3,1.7,1.9,2.6c1.1,1.3,0.5,2.7,0.4,4c0,0.2-0.1,0.3-0.1,0.5c0,2.2-0.5,4.2-0.6,6.4c-0.2,1.9-0.5,4-0.6,5.9
					c-0.1,0.8-0.3,1.7-0.3,2.5c0,0.6-0.6,0.9-1,1.1c-0.8,0.5-1.6,1.2-2.4,1.8c-0.3,0.2-0.5,0.5-0.9,0.2c-0.1-0.1-0.2,0-0.3,0
					c-2.5-0.1-4.9-0.6-7.4-0.6c-0.8,0-1.4-0.4-1.8-1.1c-0.2-0.4-0.5-0.8-0.8-1.1C293.2,149.2,292.5,148,292.9,146.8z M299.4,137.5
					c-0.1,2-0.6,3.8-0.6,5.5c0,0.5-0.1,1-0.2,1.5c-0.4,1.6,0.3,2.4,1.6,2.8c0.6,0.2,1.5,0.2,2.3,0.2c0.6,0,1.3-0.5,1.4-1.1
					c0.2-1.1,0.3-2,0.4-3.1c0.2-2.6,0.6-5,0.8-7.5c0-0.2,0.1-0.3,0.1-0.5c0.3-0.8-0.4-1.8-1.2-1.9c-0.9-0.1-1.8-0.2-2.7-0.2
					c-0.6,0-1.3,0.4-1.4,1.1C299.8,135.2,299.3,136.4,299.4,137.5z"/>
				<path class="st2" d="M243.4,143.8c0.3,0,0.6,0.1,1,0.1c1.2-0.1,2,0.4,2.7,1.5c0.6,1,1.4,1.8,2.2,2.7c1.7,2.2,3.5,4.3,5.4,6.6
					c1,1.3,2,2.6,3,3.9c0.5,0.6,0.1,1.6,0.1,2.4c0,0.1-0.2,0.3-0.1,0.4c0.5,2.3-1.3,3.1-2.6,4.2c-1.4,1.2-2.8,2.3-4.2,3.4
					c-0.4,0.4-0.8,0.5-1.4,0.4c-1-0.2-2-0.2-3.1-0.3c-0.6,0-1-0.2-1.4-0.6c-2.4-3-4.7-5.9-7.1-8.9c-1.3-1.6-2.6-3.1-3.9-4.7
					c-0.3-0.3-0.3-0.6-0.3-1c0-1.3,0.4-2.5,0.4-3.8c0-0.4,0.2-0.4,0.4-0.6c1.7-1.6,3.5-2.9,5.4-4.4c1-0.9,1.9-1.5,3.3-1.1
					C243.1,143.8,243.2,143.8,243.4,143.8L243.4,143.8z M243.1,149.8c-0.6-0.2-1.1,0-1.6,0.5c-0.4,0.5-1,0.9-1.4,1.3
					c-0.6,0.6-0.6,1.5-0.2,2c1.4,1.7,2.8,3.3,4.1,5c0.8,1.1,1.8,1.9,2.5,3c1,1.5,2,1.6,3.4,0.4c0.4-0.3,0.6-0.6,1.1-0.9
					c0.6-0.5,0.8-1.6,0.3-2.3c-1.5-1.8-3-3.5-4.3-5.4c-0.8-1.1-1.8-1.9-2.5-3.1C244.1,150,243.8,149.7,243.1,149.8z"/>
				<path class="st2" d="M279,141c-0.4,1.1-0.8,2.2-1.2,3.1c-0.2,0.5-0.2,0.6,0.2,1.1c1.8,2.2,3.5,4.2,5.4,6.4
					c0.4,0.4,0.3,0.6-0.2,0.8c-1.4,0.6-3,0.8-4.3,1.5c-0.3,0.1-0.4-0.2-0.6-0.3c-1.6-1.9-3.1-3.9-4.6-5.8c-0.6-0.8-1.2-0.8-1.9-0.5
					c-1.3,0.4-1.3,0.4-0.9,1.7c0.6,2,1.3,4.2,1.9,6.3c0.1,0.4,0.1,0.6-0.3,0.6c-1.4,0.3-2.7,0.6-4,1.2c-0.3,0.1-0.4,0-0.5-0.3
					c-0.5-1.8-1-3.7-1.6-5.4c-0.6-2.4-1.6-4.7-2.2-7.2c-0.6-2-1.4-4.1-1.8-6.1c-0.4-1.6-1.1-3-1.3-4.6c-0.1-0.3,0-0.5,0.3-0.6
					c2-0.6,4.2-1.4,6.2-1.9c1.4-0.4,2.8-0.9,4.2-1.3c0.2-0.1,0.4-0.2,0.6-0.1c1.4,0.6,2.8,1.4,4.1,2.4c0.4,0.3,0.5,0.9,0.6,1.3
					c0.5,1.9,1,4,1.7,5.8C278.8,139.7,278.8,140.4,279,141z M267,137c0,0.2,0,0.3,0,0.3c0.6,1.4,1,2.9,1.4,4.3
					c0.1,0.4,0.4,0.3,0.6,0.2c0.9-0.3,1.8-0.6,2.8-0.9c1.2-0.2,1.8-1.5,1.3-2.7c-0.2-0.4-0.5-0.8-0.5-1.2c0-0.9-0.5-1.1-1.2-1.4
					c-0.4-0.2-0.8-0.2-1.3-0.1c-0.9,0.3-1.8,0.8-2.8,1C267.1,136.6,266.9,136.8,267,137z"/>
				<path class="st2" d="M213.8,254.6c-0.9-1.5-1.2-3.2-1.9-4.7c-0.2-0.3,0.1-0.5,0.3-0.6c1.8-1.6,3.4-3.5,5.5-5
					c0.6-0.5,0.9-1,0.5-1.8c-0.8-1.6-0.6-1.6-2.3-0.8c-1.9,0.8-4,1.5-5.9,2.3c-0.4,0.1-0.4-0.1-0.5-0.3c-0.3-1.3-0.9-2.4-1.3-3.5
					c-0.2-0.5,0-0.8,0.5-1c1.8-0.6,3.8-1.5,5.6-2.2c2.2-0.8,4.2-1.7,6.3-2.5c2-0.8,4.1-1.6,6.2-2.3c1.5-0.5,2.7-1.4,4.2-1.6
					c0.4-0.1,0.5,0,0.6,0.3c0.4,0.8,0.5,1.6,0.9,2.4c0.8,1.6,1.3,3.2,1.9,4.8c0.4,1,0.8,2,1.2,3.1c0.1,0.2,0.2,0.4,0,0.6
					c-0.8,1-1.1,2.3-1.6,3.3c-0.2,0.5-0.5,0.8-1,1c-2.6,1-5.2,1.8-7.7,3c-0.3,0.1-0.5,0.1-0.8,0c-0.9-0.3-1.8-0.4-2.6-0.8
					c-0.9-0.4-1.6-0.1-2.2,0.5C217.9,250.8,215.9,252.7,213.8,254.6z M229.6,240.9c0-0.1,0-0.3,0-0.4c-0.5-1.1-0.9-2.3-1.4-3.3
					c-0.1-0.3-0.3-0.2-0.5-0.2c-1.5,0.2-2.7,1.4-4.2,1.6c-0.4,0.1-0.4,0.2-0.3,0.6c0.3,1.1,0.8,2,1.2,3c0.4,1.1,1.2,1.4,2.3,0.9
					c0.5-0.2,0.9-0.4,1.5-0.5C229,242.6,229.5,241.8,229.6,240.9z"/>
				<path class="st2" d="M350.2,282.5c-1.4,1.1-3,1.8-4.2,2.9c-0.2,0.2-0.4,0.1-0.6-0.1c-2-1.6-4.3-2.9-6.4-4.3
					c-0.6-0.5-1.2-0.4-1.7,0.1c-0.2,0.2-0.4,0.4-0.6,0.5c-0.5,0.3-0.5,0.6-0.2,1.1c1.4,1.9,2.7,4,4,5.8c0.1,0.2,0.3,0.3,0,0.5
					c-1.2,0.6-2,1.7-3.2,2.3c-0.3,0.2-0.5,0.2-0.6-0.1c-1.4-2-2.7-4.2-4.1-6.2c-0.6-1-1.4-1.9-1.9-3c-1.4-2-2.9-4.2-4.2-6.2
					c-1.1-1.7-2.2-3.3-3.3-5c-0.3-0.5,0.1-0.6,0.3-0.6c1.8-1.2,3.5-2.4,5.4-3.5c1.2-0.8,2.4-1.7,3.7-2.5c0.2-0.1,0.3-0.3,0.6-0.2
					c1.3,0.5,2.7,0.5,4.1,0.8c0.4,0.1,0.6,0.2,1,0.6c0.6,1,1.4,1.9,1.9,3c0.9,1.4,1.8,2.7,2.7,4c0.2,0.3,0.2,0.5,0.1,0.9
					c-0.3,1.1-0.2,2.3-0.2,3.3c0,0.3,0.2,0.4,0.4,0.5c1.1,0.8,2,1.6,3.1,2.3C347.2,280.6,348.7,281.6,350.2,282.5z M332.7,276.9
					c1-0.6,2-1.5,3-2.2c0.9-0.6,0.9-1.3,0.3-2.2c-0.4-0.6-0.9-1.2-1.1-1.8c-0.2-0.5-1.6-0.9-1.9-0.6c-1,0.6-1.8,1.4-3,1.9
					c-0.3,0.2-0.4,0.3-0.1,0.6C330.9,274,331.6,275.7,332.7,276.9z"/>
				<path class="st2" d="M359.3,268.2c-0.3,0.1-0.5,0-0.8-0.2c-0.9-0.6-1.8-1.1-2.8-1.8c-0.3-0.2-0.4-0.4-0.1-0.6
					c0.9-1.3,1.7-2.6,2.5-3.8c0.2-0.2,0.2-0.3,0.5-0.1c1.6,1.2,1.6,1.2,2.6-0.4c0.3-0.4,0.6-0.8,0.9-1.2c0.6-0.9,0.6-2.2,0.2-2.7
					c-0.6-0.8-2.3-1.2-3-0.8c-0.3,0.1-0.5,0.5-0.6,0.8c-0.8,1.3-1.7,2.7-2.5,4c-0.2,0.3-0.4,0.6-0.8,0.6c-1.1-0.1-2,0.3-3.1,0.5
					c-0.6,0.1-1.3,0.1-1.8-0.3c-2-1.4-4.2-2.7-6.2-4c-0.5-0.3-0.6-0.9-0.6-1.4c0-1.1-0.4-2-0.6-3c-0.1-0.4-0.1-0.6,0.2-1.1
					c1.6-2.3,3.1-4.6,4.6-7c0.4-0.6,1-0.6,1.6-0.6c1,0,1.9-0.3,3-0.5c0.6-0.1,0.9-0.1,1.4,0.4c0.6,0.6,1.4,1,2,1.4
					c0.4,0.3,0.6,0.5,0.2,1c-0.8,1.1-1.6,2.3-2.3,3.3c-0.3,0.5-0.5,0.4-0.9,0.2c-1.2-0.6-1.2-0.6-1.9,0.4c-0.5,0.6-1,1.5-1.5,2.3
					c-0.3,0.6,0,1.1,0.3,1.6c0.3,0.4,0.6,0.8,1.2,1.1c0.9,0.6,1.8,0.5,2.6-0.5c1-1.5,1.9-2.9,3-4.3c0.4-0.6,1.2-0.6,1.8-0.6
					c0.9,0,1.7-0.2,2.5-0.4c0.6-0.2,1.2,0,1.7,0.4c1.2,1,2.5,1.8,3.8,2.6c0.8,0.5,1.5,1,2.3,1.5c0.6,0.4,0.6,1.2,0.6,1.7
					c0,0.8,0.1,1.6,0.4,2.4s-0.1,1.4-0.6,1.8c-1.5,1.8-2.8,4-4.1,6c-0.3,0.5-0.6,0.9-1.4,0.9C361.7,267.6,360.6,268.2,359.3,268.2z"
					/>
				<path class="st2" d="M233.3,281.1c-0.9-1.5-2.2-2.5-3.1-3.8c-0.3-0.4-0.1-0.6,0.1-0.8c0.6-0.6,0.9-1.6,1.5-2.3
					c0.4-0.5,0.3-0.9,0-1.4c-1.4-1.6-2.8-3.1-4.2-4.8c-0.2-0.3-0.4,0-0.5,0c-1,0.6-2,1-3,1.4c-0.4,0.2-0.6,0.1-0.8-0.2
					c-0.9-1.1-1.8-2-2.7-3.1c-0.4-0.4-0.4-0.6,0.2-1c3-1.4,6.1-2.9,9.2-4.2c1.7-0.6,3.2-1.5,4.8-2.2c2.3-1.1,4.7-1.9,7-3.1
					c0.2-0.1,0.5-0.1,0.6-0.2c0.6-0.3,1.6-1.2,1.9-0.9c0.8,0.6,1.5,1.5,2.2,2.3c0.1,0.1,0.2,0.3,0.3,0.4c1.1,1.3,1.1,1.3,0.2,2.7
					c-1.9,3-3.9,6.1-5.8,9c-1.8,2.6-3.2,5.4-5,7.8C235.2,278.4,234.4,279.7,233.3,281.1z M239.1,262.9c-0.9,0.4-1.6,0.8-2.4,1.1
					c-1.5,0.6-2.9,1.3-4.3,1.8c-0.3,0.1-0.3,0.3-0.1,0.5c1,0.9,1.6,2,2.7,2.9C236.3,267.2,237.7,265,239.1,262.9z"/>
				<path class="st2" d="M260.8,287.1c-0.3-0.2-0.6-0.3-0.8-0.5c-1.8-0.9-3.3-2-5.3-3c-0.5-0.2-0.6-0.2-0.9,0.3
					c-1,1.8-1.9,3.8-3,5.5c-0.3,0.6-0.8,1.2-1.2,1.8c-0.2,0.3-0.3,0.3-0.6,0.1c-1.1-0.6-2-1.1-3.1-1.7c-0.5-0.2-0.5-0.5-0.3-0.9
					c1.8-3.8,4.1-7.2,6-11c1.3-2.4,2.7-4.7,4-7.2c0.6-1.2,1.5-2,1.9-3.2c0.1-0.4,0.4-0.2,0.6-0.1c2,1.2,4.1,2.5,6.2,3.5
					c0.8,0.4,1.5,0.9,2.4,1.2c0.6,0.3,1.1,0.8,1.3,1.5c0.3,1.2,0.6,2.5,1,3.7c0.1,0.3,0,0.5-0.1,0.6c-1.4,2.5-2.8,5-4.2,7.4
					c-0.4,0.6-1.4,0.8-2,1C262.1,286.6,261.6,286.8,260.8,287.1z M263.2,277.5c-0.4-0.5-0.2-1.1-0.8-1.6c-0.8-0.6-1.8-0.9-2.6-1.5
					c-0.2-0.1-0.4-0.2-0.6,0.1c-0.9,1.4-1.7,2.8-2.4,4.2c-0.2,0.4-0.1,0.5,0.2,0.6c0.8,0.4,1.6,0.9,2.4,1.3c0.4,0.2,0.6,0.2,1.2,0.1
					C262.2,280.4,262.2,278.6,263.2,277.5z"/>
				<path class="st0" d="M345.8,229.5c-0.6-0.5-0.8-1.1-1.1-1.7c-1-1.6-2.4-2.9-3.8-4.1c-1.7-1.4-3.7-2.2-5.6-2.9
					c-0.6-0.2-0.6-0.6-0.6-1.2c0.1-0.3,0.2-0.6,0.2-0.8c0-2.4,0.3-4.8,0.2-7.2c-0.1-1.8-0.4-3.4-0.3-5.3c0-0.6,0.5-0.8,1-0.8
					c1.7,0,3.3,0.6,5,0.8c2,0.3,3.8,1.3,5.6,1.9c0.6,0.3,1.1,0.8,1.2,1.6c0.3,2.2,0.3,4.3,0.3,6.4c0,3-0.5,5.9-1.1,8.8
					C346.5,226.8,346.2,228,345.8,229.5z"/>
				<path class="st0" d="M347.1,206.6c-1.8-1-3.7-1.5-5.4-2c-1.5-0.5-3-0.6-4.5-0.9c-0.8-0.1-1.6-0.3-2.4-0.3
					c-0.5,0-0.6-0.3-0.6-0.6c-0.4-1.9-0.6-4-1.1-5.9c-0.4-1.6-0.8-3-1.5-4.5c-0.1-0.4-0.3-0.6-0.4-1.1c-0.3-0.6-0.1-1,0.5-1.3
					c1.6-0.6,3-1.4,4.3-2.4c0.6-0.5,1.2-1.3,1.8-1.9c0.4-0.5,0.6-0.6,1.2,0c0.6,0.9,1.1,1.9,1.6,2.9c0.6,1,1.4,1.9,1.8,3
					c0.6,1.7,1.6,3.1,1.9,4.9c0.3,1.3,0.6,2.5,1.2,3.7C346.4,202,346.6,204.2,347.1,206.6z"/>
				<path class="st2" d="M286.9,295.1c-0.2,1.9-0.4,4-0.5,6c0,0.4-0.3,0.8-0.3,1.2c0,0.3-0.2,0.3-0.4,0.3c-1.6,0-3-0.4-4.6-0.4
					c-0.2,0-0.4,0-0.3-0.4c0.2-0.5,0.2-1.1,0.2-1.7c0.1-2.2,0.5-4.4,0.6-6.6c0.3-2.8,0.6-5.6,0.8-8.4c0.1-0.8,0.4-1.6,0.4-2.4
					c0-0.4-0.1-0.5-0.5-0.5c-1,0-1.9-0.1-2.9-0.1c-1.1-0.1-1.2-0.1-1.1-1.2c0.1-1.3,0.4-2.7,0.4-4c0-0.5,0.3-0.5,0.6-0.4
					c1.5,0.1,3,0.3,4.5,0.5c2.4,0.2,4.6,0.6,7,0.6c0.3,0,0.6,0.2,0.9,0.2c1.6,0.2,1.7,0.3,1.3,1.8c-0.2,1.1-0.3,2.2-0.3,3.1
					c0,0.6-0.3,0.8-0.8,0.6c-1.1-0.4-2.3-0.2-3.3-0.4c-0.4-0.1-0.5,0.1-0.6,0.5c-0.3,1.4-0.2,2.9-0.5,4.2
					C287.3,290.3,287.6,292.7,286.9,295.1z"/>
				<path class="st2" d="M225.6,166.9c-0.2,0.4-0.5,0.8-0.6,1.2c-0.4,0.8-0.9,1.5-1.3,2.3c-0.2,0.3-0.1,0.5,0.2,0.6
					c1.2,0.6,2.4,1.4,3.5,2c2.7,1.5,5.2,3.2,7.8,4.6c1.7,0.9,3.1,2,4.8,3c0.3,0.2,0.4,0.3,0.2,0.6c-0.8,1.2-1.5,2.4-2.3,3.7
					c-0.2,0.4-0.4,0.4-0.8,0.2c-1.4-0.8-2.8-1.6-4.2-2.4c-2.9-1.8-5.9-3.3-8.8-5.2c-1-0.6-1.9-1.3-3-1.8c-0.5-0.3-0.8-0.3-1,0.3
					c-0.5,1-1.2,1.9-1.7,3c-0.2,0.4-0.4,0.5-0.8,0.2c-1.3-0.9-2.6-1.8-4-2.5c-0.4-0.2-0.2-0.5-0.1-0.6c0.6-1.1,1.5-2,2-3.2
					c0.9-1.7,1.8-3.4,3-5c0.8-1.1,1.5-2.3,2-3.3c0.1-0.2,0.3-0.4,0.5-0.2c1.1,1.1,2.6,1.5,3.9,2.4
					C225.3,166.6,225.6,166.6,225.6,166.9z"/>
				<path class="st2" d="M365.5,164.5c-1.1,1.2-2.6,1.9-3.8,3c-0.4,0.4-0.6,0.1-0.8-0.2c-0.6-1-1.5-1.8-2.2-2.8
					c-0.3-0.4-0.4-0.2-0.6-0.1c-1.2,0.6-2,1.7-3,2.5c-2.3,1.7-4.3,3.5-6.6,5.4c-1.7,1.3-3.3,2.6-4.9,4.1c-0.3,0.3-0.6,0.3-0.9,0
					c-0.9-1.2-1.8-2.3-2.9-3.4c-0.1-0.2-0.2-0.2,0-0.4c2.3-1.8,4.5-3.8,6.9-5.6c2.5-1.9,4.9-4,7.4-6c1-0.8,1-0.8,0.1-1.8
					c-0.6-0.6-1.3-1.3-1.8-2.2c-0.1-0.2-0.3-0.4,0-0.6c1.3-1.1,2.5-2,3.8-3.1c0.4-0.3,0.5,0.1,0.6,0.2c1.8,2.4,3.9,4.7,5.7,7.3
					C363.5,162,364.7,163,365.5,164.5z"/>
				<path class="st0" d="M308.7,163.1c0.5-0.3,0.8,0,1.2,0.1c2.4,0.5,4.3,1.7,6.4,2.7c1.3,0.6,2.7,1.2,4,1.9c3,1.9,6,3.9,8.8,6.1
					c1.1,0.9,1.9,2,3,3.1c1,1,2,1.8,3,3c0.6,0.8,1.2,1.6,1.5,2.5c0.1,0.4,0.1,0.6-0.1,1c-1.4,2-3.1,3.4-5.5,4.1
					c-0.4,0.1-0.6,0-0.8-0.4c-1.3-2.7-2.7-5.3-4.2-7.7c-1.5-2.3-3-4.5-4.7-6.6c-2.3-2.6-4.5-5.3-7.6-7.1c-1.4-0.9-2.9-1.6-4.3-2.4
					C309.1,163.5,308.8,163.4,308.7,163.1z"/>
				<path class="st1" d="M358.8,194c-0.4-0.3-1.1-0.3-1.3-1c-0.2-0.6-0.5-1.3-0.6-1.8c-0.4-1.1,0-1.8,1-2.4c2.7-1.2,5.4-1.8,8.2-3
					c0.8-0.3,1.5-0.5,2.3-0.8s1.9,0.1,2.3,1.7c0.1,0.4,0.2,0.8,0.3,1.3c0.4,1.2,0,1.8-1.2,2.3c-1.8,0.6-3.7,1.3-5.4,1.8
					c-1.7,0.6-3.4,1.2-5.2,1.8C359.1,193.9,359,193.9,358.8,194z"/>
				<path class="st1" d="M311.1,280.8c0.5,0.2,1.1,0.4,1.2,1.1c0.8,3,1.6,5.9,2.3,8.9c0.1,0.5,0,1,0.3,1.5c0.8,1.3-0.3,2.7-1.8,2.8
					c-0.5,0-1,0.2-1.4,0.3c-1,0.3-1.7-0.1-1.9-1.1c-0.6-1.8-0.9-3.7-1.4-5.4s-0.9-3.7-1.4-5.5c-0.2-0.8,0.3-1.3,0.8-1.6
					C308.7,281,309.9,280.9,311.1,280.8z"/>
				<path class="st1" d="M299.4,137.5c-0.1-1,0.4-2.2,0.5-3.4c0.1-0.6,0.6-1.1,1.4-1.1c0.9,0,1.8,0.1,2.7,0.2
					c0.8,0.1,1.4,1.2,1.2,1.9c-0.1,0.2-0.1,0.3-0.1,0.5c-0.1,2.6-0.6,5-0.8,7.5c-0.1,1.1-0.2,2.2-0.4,3.1c-0.1,0.6-0.6,1-1.4,1.1
					c-0.8,0-1.6,0-2.3-0.2c-1.3-0.3-1.9-1.2-1.6-2.8c0.1-0.5,0.2-1,0.2-1.5C298.8,141.2,299.3,139.4,299.4,137.5z"/>
				<path class="st1" d="M243.1,149.8c0.6-0.1,1.1,0.2,1.4,0.6c0.6,1.2,1.7,2,2.5,3.1c1.4,1.8,3,3.7,4.3,5.4
					c0.5,0.6,0.4,1.8-0.3,2.3c-0.4,0.3-0.6,0.6-1.1,0.9c-1.4,1.2-2.5,1.1-3.4-0.4c-0.8-1.1-1.7-2-2.5-3c-1.3-1.7-2.8-3.3-4.1-5
					c-0.5-0.6-0.4-1.6,0.2-2c0.5-0.4,1-0.8,1.4-1.3C242,149.9,242.5,149.6,243.1,149.8z"/>
				<path class="st1" d="M267,137c0-0.2,0.1-0.4,0.4-0.4c1-0.2,1.8-0.6,2.8-1c0.5-0.2,0.8-0.1,1.3,0.1c0.6,0.3,1.2,0.5,1.2,1.4
					c0,0.4,0.3,0.8,0.5,1.2c0.6,1.3,0,2.5-1.3,2.7c-1,0.2-1.8,0.6-2.8,0.9c-0.3,0.1-0.5,0.2-0.6-0.2c-0.4-1.5-0.8-2.9-1.4-4.3
					C266.9,137.3,267,137.2,267,137z"/>
				<path class="st1" d="M229.6,240.9c-0.2,0.9-0.6,1.6-1.6,1.7c-0.5,0.1-1,0.3-1.5,0.5c-1.1,0.4-1.8,0.1-2.3-0.9
					c-0.4-1-0.9-1.9-1.2-3c-0.1-0.4,0-0.6,0.3-0.6c1.5-0.2,2.7-1.3,4.2-1.6c0.3,0,0.4-0.1,0.5,0.2c0.5,1.1,0.9,2.3,1.4,3.3
					C229.6,240.6,229.6,240.8,229.6,240.9z"/>
				<path class="st1" d="M332.7,276.9c-1.1-1.3-1.8-2.9-2.8-4.2c-0.2-0.3-0.1-0.5,0.1-0.6c1.1-0.6,1.9-1.3,3-1.9
					c0.4-0.3,1.8,0.1,1.9,0.6c0.3,0.6,0.6,1.3,1.1,1.8c0.6,0.9,0.6,1.5-0.3,2.2C334.7,275.4,333.8,276.2,332.7,276.9z"/>
				<path class="st1" d="M239.1,262.9c-1.5,2.3-2.8,4.3-4.2,6.4c-1.1-0.8-1.7-1.9-2.7-2.9c-0.2-0.2-0.3-0.4,0.1-0.5
					c1.5-0.6,3-1.3,4.3-1.8C237.5,263.6,238.2,263.2,239.1,262.9z"/>
				<path class="st1" d="M263.2,277.5c-1,1.1-0.9,2.9-2.6,3.3c-0.4,0.1-0.8,0.1-1.2-0.1c-0.8-0.5-1.6-0.9-2.4-1.3
					c-0.3-0.2-0.4-0.3-0.2-0.6c0.6-1.5,1.5-2.9,2.4-4.2c0.2-0.3,0.4-0.3,0.6-0.1c0.8,0.6,1.8,0.9,2.6,1.5
					C262.9,276.4,262.7,277.2,263.2,277.5z"/>
			</g>
		</g>
	</g>
	<g>
		<path class="st3" d="M208.7,209.9c-29.4-5.7-59.1-7.2-88.9-6s-59.2,4.6-88,12.5c0.4-2.5,0.9-4.9,1.3-7.2c0.8-3.6,1.3-7,2-10.6
			c0.1-0.5,0-1-0.1-1.5c-1.5-4.4-2.8-8.8-4.4-13.2c-0.3-0.7-0.1-1,0.7-1.2c8.1-2.3,16.4-4.1,24.7-5.7c6.3-1.2,12.6-2.2,18.8-3.1
			c4.6-0.6,9.2-1.2,14-1.7c11.8-1.2,23.7-2,35.6-2.2c7.8-0.3,15.6-0.2,23.3,0.1c17.8,0.5,35.6,2,53.2,5.2c1.8,0.3,3.7,0.8,5.5,1.1
			c0.7,0.1,0.8,0.4,0.7,1c-1.1,4.5-2.2,9-3.3,13.6c-0.1,0.5-0.1,1.1,0,1.6c1.6,5.6,3.1,11.3,4.7,16.9
			C208.8,209.4,208.8,209.6,208.7,209.9z M102.2,188.6c1.2-0.9,2-2,1.9-3.2c0-1-0.1-1.9,0-2.8c-0.3-2.4-2.2-4-4.6-3.7
			c-4.2,0.4-8.2,0.8-12.4,1.2c-1,0.1-2,0.2-3,0.4c1.6,0.7,1.3,2.1,1.3,3.3c0.3,3.3,0.3,6.7,0.5,10c0.1,1.2,0.1,2.4-1,3.1
			c0,0,0,0.1,0,0.2c2-0.2,3.9-0.4,6-0.5c0-0.1,0.1-0.1,0.1-0.2c-0.4-0.2-0.7-0.5-1-0.7s-0.4-0.4-0.4-0.7c0-0.9-0.1-1.9-0.1-2.7
			c0-0.4,0-0.6,0.5-0.6c3.3-0.4,6.4-0.5,9.7-0.9c0.8-0.1,1.2,0.2,1.2,1c0.1,1.5,0.4,2.9-1.1,4v0.1c2-0.4,4.2-0.1,6.4-0.5
			c-1.6-0.6-1.8-1.7-1.6-2.8C104.5,190.7,104.1,189.4,102.2,188.6z M147.2,189.6c-0.4-0.1-0.4-0.4-0.8-0.6c-2.8-3.2-5.7-6.3-8.4-9.7
			c-1.2-1.4-2.2-2.1-4.1-2c-1.2,0.1-2.2,0.1-3.8,0.1c1.7,0.7,1.6,2,1.7,3.2c0,3.1,0.3,6.5,0.5,9.7c0.1,1.4,0.4,2.8-1.1,3.7
			c2.1,0,4.3,0.2,6.3,0c-1.3-1.5-1.3-1.5-1.5-3.3c-0.1-2.6-0.3-5.2-0.4-7.8c0-0.2-0.1-0.5,0.1-0.9c0.1,0.1,0.3,0.2,0.4,0.4
			c3.3,3.7,6.3,7.3,9.6,11c0.3,0.2,0.4,0.7,0.9,0.7c2,0,3.8,0.1,5.9,0.1c-1.3-1.6-1.3-1.6-1.5-3.6c-0.3-3.1-0.3-6.3-0.5-9.3
			c-0.1-1.4-0.3-2.7,1.1-3.6c0,0,0,0,0-0.1c-2,0-4.1-0.1-6.2-0.1c0.4,0.7,1.2,0.9,1.3,1.6C147,182.6,147.2,186.1,147.2,189.6z
			 M196.1,190.2c-0.1-1.4-0.1-2.7-0.2-4.2c-0.3-2.6-2-4.5-4.7-5c-3.2-0.4-6.4-0.7-9.6-1.2c-2.6-0.3-4.5,1.1-4.4,3.6
			c0,2.8,0.2,5.5,0.4,8.3c0.3,2.5,2,4.4,4.6,4.8c3.4,0.4,6.7,0.8,10,1.2c2.8,0.3,4.4-1.3,4.4-3.9C196.2,192.7,196,191.4,196.1,190.2
			z M62.5,191.7L62.5,191.7c0.1,1.5,0,2.9,0.2,4.4c0,0.1,0,0.2,0,0.2c0.3,2,2.1,3.5,4.3,3.1c3.3-0.4,6.3-0.9,9.5-1.4
			c3-0.4,4.8-2.5,4.7-5.4c-0.1-2.6-0.2-5.2-0.4-7.6c-0.3-2.8-2-4.2-4.7-3.8c-3,0.4-6.3,0.9-9.4,1.3c-2.7,0.4-4.4,2.5-4.4,5.1
			C62.4,189,62.5,190.4,62.5,191.7z M118.4,194.7c1.7-0.1,3.4,0,5.1-0.1c2.6-0.2,4.3-2,4.3-4.4c0-2.8-0.3-5.6-0.4-8.4
			c-0.1-2.5-2-4.2-4.5-4.1c-3.4,0-6.5,0.3-9.9,0.4c-2.6,0.1-4.4,2-4.4,4.4c0,2.8,0.3,5.5,0.4,8.3c0.1,2.5,2,4.2,4.6,4.1
			C115.2,194.8,116.9,194.8,118.4,194.7z M53.5,202.1c-0.4-0.7-1.2-0.7-1.3-1.7c0-3.6-0.3-7.2-0.4-10.8c0-0.5,0.3-0.7,0.7-0.9
			c1.2-0.2,2.3-0.4,3.5-0.8c1.2-0.4,2.1-0.4,3,0.5c0,0,0.1,0,0.3,0c-0.1-1.4-0.1-2.6-0.2-3.9c0-0.6-0.4-0.5-0.8-0.4
			c-5.9,1.2-11.5,2.4-17.3,3.6c-0.3,0.1-0.5,0.1-0.5,0.4c0.1,1.4,0.1,2.7,0.2,4c0.8-0.5,1-1.4,2.1-1.6c1.4-0.2,2.8-0.5,4.3-0.9
			c0.8-0.2,1,0,1,0.7c0.1,2.7,0.3,5.4,0.4,8.2c0.1,1.6,0.6,3.2-1.1,4.4c0.1,0,0.1,0.1,0.3,0.1C49.5,202.8,51.6,202.4,53.5,202.1z
			 M155.3,182.4c0.1,0,0.1,0.1,0.3,0.1c0.7-1.1,1.7-1.3,2.8-1.1c1.2,0.1,2.1,0.3,3.4,0.2c1,0,1.2,0.4,1.2,1.1c0,2.9,0.3,5.8,0.4,8.8
			c0.1,1.2,0.4,2.6-1.1,3.5c0,0,0,0,0,0.1c2,0.2,3.9,0.3,6.2,0.4c-0.4-0.7-1.2-1-1.2-1.9c-0.3-3.6-0.4-7.5-0.4-11.1
			c0-0.4,0.1-0.6,0.5-0.4c1.2,0,2.2,0.2,3.5,0.2c1.4-0.1,2.6,0.3,3.3,1.2c0,0,0.1,0,0.3,0c-0.1-1.2-0.1-2.4-0.3-3.6
			c0-0.6-0.3-0.9-0.9-0.9c-2.6-0.2-5-0.3-7.6-0.5c-3.3-0.2-6.4-0.4-9.7-0.7c-0.4,0-0.8,0-0.7,0.4
			C155.1,179.7,155.3,180.9,155.3,182.4z M82,184.1c0,0.2,0,0.2,0,0.2c0,2.9,0.3,5.7,0.4,8.7c0,2.9-1.9,5.5-4.9,6
			c-2.1,0.4-4.4,0.6-6.4,1c-1.4,0.2-2.7,0.4-4.3,0.6c1,0.6,1.8,0.6,2.7,0.5c3-0.4,6.2-0.9,9.2-1.4c2.6-0.4,4.7-2.9,4.7-5.3
			c0.1-2.9,0-5.7-0.4-8.7C83,185.5,82.8,184.7,82,184.1z M197.2,185.5c0,3,0.3,5.8,0.4,8.7c0,3.3-2.3,5.3-5.6,4.9
			c-2-0.3-4.1-0.5-6.2-0.8c-1.2-0.1-2.6-0.3-4.1-0.4c1,0.9,2,1.2,3,1.4c2.8,0.4,5.6,0.7,8.4,1.1c3.4,0.3,5.7-1.8,5.5-4.9
			c-0.1-2.4-0.2-4.6-0.3-7C198.2,187.3,197.8,186.4,197.2,185.5z M113.1,195.9c1,0.6,1.8,0.9,2.7,0.7c2.9,0,6-0.3,9-0.4
			c2.9-0.2,5.2-2.5,5.2-5.3c-0.1-2.6-0.2-5.2-0.4-7.8c0-0.9-0.4-1.6-0.8-2.2c-0.1,0.1-0.1,0.1-0.1,0.1c0,2.8,0.3,5.7,0.4,8.5
			c0,3-2.1,5.5-5.5,5.6C119.9,195.6,116.6,195.9,113.1,195.9z M169,194.4c0.3-0.4,0.1-0.6,0.1-1c0-2.8-0.2-5.6-0.4-8.4
			c0-0.7,0.4-1,0.9-1c1,0.1,2.1,0.2,3.5,0.3c-0.7-0.6-1-1.1-2-1.2c-0.9,0.1-1.8,0-2.7-0.2c-0.8-0.1-0.9,0.1-0.9,0.9
			c0.3,2.9,0.3,5.8,0.4,8.8C167.9,193.4,168.2,194,169,194.4z M58.2,189.6c-0.4-0.6-1-0.9-1.8-0.6c-0.9,0.2-1.8,0.4-2.7,0.5
			c-0.7,0.1-0.9,0.4-0.8,1.1c0.3,2.7,0.3,5.4,0.4,8.1c0,0.5,0,0.9,0.1,1.4s0.4,0.7,0.9,0.7s0.3-0.4,0.1-0.9c0-2.8-0.2-5.6-0.4-8.5
			c0-0.7,0.4-1.1,0.9-1.2C56.1,190,57,189.7,58.2,189.6z M153.2,193.6c0-0.4,0-0.7,0-1c0-2.9-0.3-5.8-0.4-8.8
			c-0.1-1.4-0.4-2.8,1.2-3.7c-0.4-0.2-0.9-0.2-1.2-0.2c-1.2,0-1.2,0-1.2,1.2c0.3,3.6,0.4,7.3,0.4,10.8
			C152.2,192.5,152.3,193.1,153.2,193.6z M91.8,195.3c0-0.4,0-0.6,0-0.9c-0.3-1,0.4-1.2,1.2-1.2c1.8-0.1,3.6-0.4,5.5-0.4
			c0.3,0,0.5-0.1,0.8-0.1c0.4,0,0.7-0.2,0.5-0.6c-0.1-0.4-0.4-0.4-0.7-0.4c-0.7,0.1-1.4,0.2-2,0.2c-2,0.2-3.7,0.4-5.6,0.4
			c-0.3,0-0.5,0-0.7,0.2C90.3,193.6,90.9,194.8,91.8,195.3z M105.3,182.3c-0.1,0.6,0,1.1,0,1.6c0.1,1.5,0.4,3-0.8,4.4
			c-0.3,0.2,0,0.5,0.1,0.6c0.3,0.2,0.4,0,0.5-0.2C106.8,187.3,106.8,183.9,105.3,182.3z M137,185.4c0.1,2.1,0.2,4.4,0.3,6.5
			c0,0.7,0.4,1,1,1.4c-0.1-2-0.2-3.9-0.3-5.7C138,186.6,137.7,186,137,185.4z M147.9,195.5c0.9,1.5,2.2,1.1,3.3,1.1
			c1.2,0,2.2,0.3,3.6,0.1c-0.4-0.6-1-0.9-1.7-0.9C151.5,195.7,149.8,195.5,147.9,195.5z M101.8,197.6c2.1-0.2,4.3-0.3,6.4-0.4
			C107,195.9,103,196.1,101.8,197.6z M93.3,198.4c-0.4-0.6-0.9-0.9-1.6-0.7c-1.2,0.2-2.3,0.2-3.5,0.4c-0.8,0.1-1,0.4-1.3,1.1
			C89.1,198.8,91,198.6,93.3,198.4z M170.4,197.6c-0.4-0.9-1-1.1-1.8-1.2c-1,0-2,0-2.9-0.2c-0.8-0.1-1.2,0.2-1.6,0.9
			C166.3,197.3,168.3,197.5,170.4,197.6z M133.3,196.6c2.1-0.1,4.3-0.1,6.3-0.3C138.6,195.1,134.2,195.1,133.3,196.6z M55.9,203.5
			c-0.4-0.7-1.2-0.7-1.8-0.6c-0.9,0.2-2,0.4-2.8,0.5c-0.9,0.1-1.3,0.4-1.6,1.3C51.7,204.4,53.7,204,55.9,203.5z M157.6,184.7
			c0.9-1.3,2.2-1.3,3.5-1c0.4,0,0.7,0,0.7-0.4s0-0.6-0.4-0.6c-0.7,0-1.2-0.1-1.8-0.2C157.3,182.4,157.3,182.4,157.6,184.7z
			 M42.9,193.9c0.8-1.4,2.1-2,3.6-2c0.4,0,0.5-0.4,0.4-0.7c-0.1-0.5-0.4-0.2-0.7-0.1c-0.7,0.1-1.2,0.2-1.8,0.4
			C42.8,191.8,42.8,191.8,42.9,193.9z M61.4,188c0-0.6-0.1-1.2-0.1-1.7c0-0.2,0-0.6-0.4-0.5c-0.3,0-0.7,0-0.7,0.4
			c0,1.1,0.1,2.4,0.3,3.5c0,0.4,0.4,0.6,0.9,0.6c0.4-0.1,0.1-0.5,0.1-0.7C61.5,188.8,61.4,188.3,61.4,188z M176.3,185.9
			c-0.1-1.5,0-2.8-0.2-4.2c0-0.4-0.4-0.5-0.7-0.5s-0.3,0.4-0.3,0.6c0,0.9,0.1,1.9,0.1,2.7C175.2,185.2,175.6,185.4,176.3,185.9z
			 M106.6,194.2c0-1.7-0.3-2.4-1.2-3C105.6,192.3,105.2,193.6,106.6,194.2z"/>
		<polyline class="st3" points="28.9,223.1 60.1,234.4 182.7,224.5 79.6,196.5 24.9,209.6 		"/>
		<polyline class="st3" points="210.4,208.2 209.6,216.7 181.6,229.8 183.9,208 203.7,205.5 		"/>
		<g>
			<polyline class="st3" points="54.9,141.8 56.1,217.9 57.7,220.9 64.7,244.8 78.1,261.8 124.7,283.5 166.1,259.3 178.3,240.7 
				182.7,224.5 184.3,212.8 182.6,171.3 178.6,134.1 181.1,133.6 181.3,129.3 174.2,127.5 98.5,124.7 52.8,134.4 			"/>
			<g>
				<g>
					<g>
						<g>
							<g>
								<defs>
									<path id="SVGID_1_" d="M114.1,81.6c61.7-2.2,113.8,43.3,116.3,101.7s-45.5,107.5-107.2,109.8S9.4,249.7,6.9,191.3
										S52.4,83.8,114.1,81.6z"/>
								</defs>
								<clipPath id="SVGID_2_">
									<use xlink:href="#SVGID_1_"  style="overflow:visible;"/>
								</clipPath>
								<g id="PjtBNQ.tif" class="st4">
									<g>
										<path class="st5" d="M204.4,212.7c-27.9-5.7-56.3-7.1-84.5-6c-28.3,1.2-56.3,4.7-83.7,12.6c0.4-2.5,0.8-4.9,1.2-7.2
											c0.6-3.6,1.2-7,1.9-10.6c0.1-0.5,0-1-0.1-1.5c-1.4-4.4-2.8-8.8-4.3-13.2c-0.2-0.7-0.1-1,0.6-1.2
											c7.7-2.3,15.6-4.1,23.6-5.8c6-1.2,12-2.2,18-3.1c4.4-0.6,8.8-1.2,13.2-1.7c11.3-1.2,22.6-2,34-2.3
											c7.5-0.3,14.8-0.2,22.2,0.1c16.9,0.5,34,2,50.7,5.2c1.7,0.3,3.6,0.8,5.2,1.1c0.6,0.1,0.7,0.4,0.5,1
											c-1.1,4.5-2.1,9-3.2,13.6c-0.1,0.5-0.1,1.1,0,1.6c1.4,5.6,2.9,11.3,4.4,16.9C204.4,212.1,204.4,212.4,204.4,212.7z
											 M103,191.4c1.1-0.9,1.9-2,1.8-3.2c0-1-0.1-1.9,0-2.8c-0.2-2.4-2-4-4.4-3.7c-3.9,0.4-7.8,0.8-11.7,1.2
											c-1,0.1-2,0.2-2.9,0.4c1.4,0.7,1.3,2.1,1.3,3.3c0.1,3.3,0.3,6.7,0.4,10c0.1,1.2,0.1,2.4-1,3.1c0,0,0,0.1,0,0.2
											c1.9-0.2,3.7-0.4,5.6-0.5c0-0.1,0.1-0.1,0.1-0.2c-0.4-0.2-0.6-0.5-1-0.7c-0.2-0.2-0.4-0.4-0.4-0.7c0-0.9-0.1-1.9-0.1-2.7
											c0-0.4,0-0.6,0.5-0.6c3-0.4,6.1-0.5,9.2-0.9c0.7-0.1,1.1,0.2,1.2,1c0.1,1.5,0.4,2.9-1.1,4v0.1c2-0.4,3.9-0.1,6.1-0.5
											c-1.4-0.6-1.6-1.7-1.5-2.8C105.2,193.6,104.9,192.2,103,191.4z M145.8,192.4c-0.4-0.1-0.4-0.4-0.7-0.6
											c-2.6-3.2-5.4-6.3-8-9.7c-1.1-1.4-2.1-2.1-3.9-2c-1.1,0.1-2.1,0.1-3.6,0.1c1.6,0.7,1.5,2,1.6,3.2c0,3.1,0.3,6.5,0.4,9.7
											c0.1,1.4,0.4,2.8-1.1,3.7c2,0,4,0.2,6,0c-1.3-1.5-1.3-1.5-1.4-3.3c-0.1-2.6-0.3-5.2-0.4-7.8c0-0.2-0.1-0.5,0.1-0.9
											c0.1,0.1,0.2,0.2,0.4,0.4c3.1,3.7,6,7.3,9.2,11c0.2,0.2,0.4,0.7,0.9,0.7c1.9,0,3.6,0.1,5.6,0.1c-1.3-1.6-1.3-1.6-1.4-3.6
											c-0.2-3.1-0.3-6.3-0.4-9.3c-0.1-1.4-0.2-2.7,1.1-3.6c0,0,0,0,0-0.1c-2,0-3.9-0.1-5.8-0.1c0.4,0.7,1.2,0.9,1.3,1.6
											C145.5,185.5,145.8,188.8,145.8,192.4z M192.3,192.8c-0.1-1.4-0.1-2.7-0.1-4.2c-0.2-2.6-2-4.5-4.5-5
											c-3-0.4-6.1-0.7-9.2-1.2c-2.5-0.3-4.3,1.1-4.2,3.6c0,2.8,0.1,5.5,0.4,8.3c0.2,2.5,1.9,4.4,4.4,4.8
											c3.1,0.4,6.3,0.8,9.5,1.2c2.7,0.3,4.2-1.3,4.1-3.9C192.3,195.4,192.3,194.2,192.3,192.8z M65.3,194.6L65.3,194.6
											c0.1,1.5,0,2.9,0.1,4.4c0,0.1,0,0.2,0,0.2c0.2,2,2,3.5,4.1,3.1c3-0.4,6-0.9,9.1-1.4c2.9-0.4,4.6-2.5,4.5-5.4
											c-0.1-2.6-0.1-5.2-0.4-7.6c-0.2-2.8-1.9-4.2-4.5-3.8c-2.9,0.4-6,0.9-8.9,1.3c-2.6,0.4-4.2,2.5-4.2,5.1
											C65.1,192,65.2,193.2,65.3,194.6z M118.3,197.5c1.6-0.1,3.1,0,4.7-0.1c2.5-0.2,4.1-2,4-4.4c0-2.8-0.3-5.6-0.4-8.4
											c-0.1-2.5-2-4.2-4.4-4.1c-3.1,0-6.2,0.3-9.3,0.4c-2.5,0.1-4.2,2-4.1,4.4c0,2.8,0.3,5.5,0.4,8.3c0.1,2.5,2,4.2,4.4,4.1
											C115.3,197.6,117,197.6,118.3,197.5z M56.6,204.8c-0.4-0.7-1.2-0.7-1.3-1.7c0-3.6-0.3-7.2-0.4-10.8c0-0.5,0.2-0.7,0.6-0.9
											c1.1-0.2,2.1-0.4,3.3-0.8c1.1-0.4,2-0.4,2.9,0.5c0,0,0.1,0,0.2,0c-0.1-1.4-0.1-2.6-0.1-3.9c0-0.6-0.4-0.5-0.7-0.4
											c-5.5,1.2-10.8,2.4-16.4,3.6c-0.2,0.1-0.5,0.1-0.5,0.4c0.1,1.4,0.1,2.7,0.1,4c0.7-0.5,1-1.4,2-1.6
											c1.4-0.2,2.7-0.5,4.1-0.9c0.7-0.2,1,0,1,0.7c0.1,2.7,0.3,5.4,0.4,8.2c0.1,1.6,0.5,3.2-1.1,4.4c0.1,0,0.1,0.1,0.2,0.1
											C52.8,205.7,54.8,205.4,56.6,204.8z M153.4,185.1c0.1,0,0.1,0.1,0.2,0.1c0.6-1.1,1.6-1.3,2.7-1.1c1.1,0.1,2,0.3,3.1,0.2
											c1,0,1.1,0.4,1.1,1.1c0,2.9,0.3,5.8,0.4,8.8c0.1,1.2,0.4,2.6-1.1,3.5c0,0,0,0,0,0.1c2,0.2,3.7,0.3,5.8,0.4
											c-0.4-0.7-1.2-1-1.2-1.9c-0.1-3.6-0.4-7.5-0.4-11.1c0-0.4,0.1-0.6,0.5-0.4c1.1,0,2.1,0.2,3.3,0.2c1.4-0.1,2.5,0.3,3.1,1.2
											c0,0,0.1,0,0.2,0c-0.1-1.2-0.1-2.4-0.1-3.6c0-0.6-0.2-0.9-0.9-0.9c-2.5-0.2-4.7-0.3-7.2-0.5c-3-0.2-6.1-0.4-9.2-0.7
											c-0.4,0-0.7,0-0.6,0.4C153.3,182.5,153.4,183.8,153.4,185.1z M83.7,187c0,0.2,0,0.2,0,0.2c0,2.9,0.3,5.7,0.4,8.7
											c0,2.9-1.8,5.5-4.6,6c-2,0.4-4.2,0.6-6.1,1c-1.4,0.2-2.6,0.4-4.1,0.6c1,0.6,1.7,0.6,2.6,0.5c2.9-0.4,5.9-0.9,8.8-1.4
											c2.5-0.4,4.5-2.9,4.5-5.3c0.1-2.9,0-5.7-0.4-8.7C84.6,188.3,84.4,187.5,83.7,187z M193.3,188.2c0,3,0.3,5.8,0.4,8.7
											c0,3.3-2.1,5.3-5.3,4.9c-2-0.3-3.9-0.5-5.8-0.8c-1.2-0.1-2.5-0.3-3.9-0.4c1,0.9,2,1.2,2.9,1.4c2.7,0.4,5.4,0.7,7.9,1.1
											c3.1,0.3,5.4-1.8,5.2-4.9c-0.1-2.4-0.1-4.6-0.3-7C194.3,190.1,193.9,189.2,193.3,188.2z M113.2,198.7
											c1,0.6,1.7,0.9,2.6,0.7c2.8,0,5.6-0.3,8.5-0.4c2.8-0.2,5.1-2.5,5.1-5.3c-0.1-2.6-0.1-5.2-0.4-7.8c0-0.9-0.4-1.6-0.8-2.2
											c-0.1,0.1-0.1,0.1-0.1,0.1c0,2.8,0.3,5.7,0.4,8.5c0,3-2,5.5-5.2,5.6C119.8,198.4,116.6,198.7,113.2,198.7z M166.5,197.2
											c0.2-0.4,0.1-0.6,0.1-1c0-2.8-0.1-5.6-0.4-8.4c0-0.7,0.2-1,0.9-1c1,0.1,2,0.2,3.2,0.3c-0.6-0.6-1-1.1-1.9-1.2
											c-0.9,0.1-1.7,0-2.6-0.2c-0.7-0.1-0.9,0.1-0.9,0.9c0.2,2.9,0.3,5.8,0.4,8.8C165.5,196.2,165.7,196.8,166.5,197.2z
											 M61.1,192.5c-0.4-0.6-1-0.9-1.7-0.6c-0.9,0.2-1.7,0.4-2.6,0.5c-0.6,0.1-0.9,0.4-0.7,1.1c0.2,2.7,0.3,5.4,0.4,8.1
											c0,0.5,0,0.9,0.1,1.4s0.4,0.7,0.9,0.7c0.4,0,0.2-0.4,0.1-0.9c0-2.8-0.1-5.6-0.4-8.5c0-0.7,0.2-1.1,0.9-1.2
											C59.1,192.9,59.9,192.7,61.1,192.5z M151.5,196.3c0-0.4,0-0.7,0-1c0-2.9-0.3-5.8-0.4-8.8c-0.1-1.4-0.4-2.8,1.2-3.7
											c-0.4-0.2-0.9-0.2-1.1-0.2c-1.2,0-1.2,0-1.1,1.2c0.1,3.6,0.4,7.3,0.4,10.8C150.5,195.3,150.7,196,151.5,196.3z M93,198.3
											c0-0.4,0-0.6,0-0.9c-0.2-1,0.2-1.2,1.1-1.2c1.7-0.1,3.5-0.4,5.2-0.4c0.2,0,0.5-0.1,0.7-0.1c0.4,0,0.6-0.2,0.5-0.6
											c-0.1-0.4-0.4-0.4-0.6-0.4c-0.6,0.1-1.4,0.2-2,0.2c-1.9,0.2-3.6,0.4-5.4,0.4c-0.2,0-0.5,0-0.6,0.2
											C91.7,196.4,92.2,197.7,93,198.3z M105.8,185.1c-0.1,0.6,0,1.1,0,1.6c0.1,1.5,0.4,3-0.7,4.4c-0.2,0.2,0,0.5,0.1,0.6
											c0.2,0.2,0.4,0,0.5-0.2C107.3,190.3,107.3,186.7,105.8,185.1z M136,188.2c0.1,2.1,0.1,4.4,0.3,6.5c0,0.7,0.4,1,1,1.4
											c-0.1-2-0.1-3.9-0.3-5.7C137,189.5,136.7,188.8,136,188.2z M146.4,198.3c0.9,1.5,2.1,1.1,3.1,1.1c1.1,0,2.1,0.3,3.5,0.1
											c-0.4-0.6-1-0.9-1.6-0.9C149.8,198.4,148.3,198.4,146.4,198.3z M102.6,200.5c2-0.2,4-0.4,6.1-0.4
											C107.5,198.7,103.6,199.1,102.6,200.5z M94.3,201.3c-0.4-0.6-0.9-0.9-1.4-0.7c-1.1,0.2-2.1,0.2-3.3,0.4
											c-0.7,0.1-1,0.4-1.2,1.1C90.5,201.7,92.3,201.5,94.3,201.3z M167.9,200.4c-0.4-0.9-1-1.1-1.7-1.2c-1,0-1.9,0-2.8-0.2
											c-0.7-0.1-1.1,0.2-1.5,0.9C163.9,200.1,165.9,200.3,167.9,200.4z M132.5,199.4c2-0.1,4-0.1,6-0.3
											C137.5,197.8,133.4,197.9,132.5,199.4z M58.8,206.4c-0.4-0.7-1.1-0.7-1.7-0.6c-0.9,0.2-1.9,0.4-2.7,0.5
											c-0.9,0.1-1.2,0.4-1.5,1.3C54.9,207.3,56.8,206.9,58.8,206.4z M155.7,187.4c0.9-1.3,2.1-1.3,3.3-1c0.4,0,0.6,0,0.6-0.4
											s0-0.6-0.4-0.6c-0.6,0-1.2-0.1-1.7-0.1C155.3,185.2,155.3,185.2,155.7,187.4z M46.5,196.8c0.7-1.4,2-2,3.5-2
											c0.4,0,0.5-0.4,0.4-0.7c-0.1-0.5-0.4-0.2-0.6-0.1c-0.6,0.1-1.1,0.2-1.7,0.4C46.3,194.7,46.3,194.7,46.5,196.8z
											 M64.1,190.8c0-0.6-0.1-1.2-0.1-1.7c0-0.2,0-0.6-0.4-0.5c-0.2,0-0.6,0-0.6,0.4c0,1.1,0.1,2.4,0.1,3.5
											c0,0.4,0.4,0.6,0.9,0.6c0.4-0.1,0.1-0.5,0.1-0.7C64.2,191.7,64.1,191.2,64.1,190.8z M173.4,188.7c-0.1-1.5,0-2.8-0.1-4.2
											c0-0.4-0.4-0.5-0.6-0.5c-0.4,0-0.2,0.4-0.2,0.6c0,0.9,0.1,1.9,0.1,2.7C172.4,188,172.8,188.2,173.4,188.7z M107.1,197
											c0-1.7-0.2-2.4-1.2-2.9C106.2,195.2,105.7,196.4,107.1,197z"/>
										<path class="st6" d="M171.7,167.1c-0.4-0.1-0.4-0.4-0.6-0.6c-1.9-2.4-3.6-4.6-5.3-6.9c-0.4-0.5-0.7-0.7-1.3-0.7
											c-4.5-0.2-9.1-0.7-13.6-0.8c-7-0.3-14-0.4-21-0.4c-0.9,0-1.1,0.4-1,1.1c0.1,3.5,0.3,6.7,0.4,10.1c0,0.7-0.1,0.9-0.9,0.9
											c-6.6,0.1-13.1,0.4-19.7,0.8c-0.7,0-0.9-0.2-1-0.9c0-3.5-0.3-6.8-0.4-10.2c0-0.6-0.2-0.9-0.9-0.7
											c-7.3,0.4-14.7,1.2-22,2.1c-4.3,0.5-8.5,1.2-12.7,1.8c-0.6,0.1-1,0.4-1.4,0.9c-1.6,2.5-3.1,5-4.8,7.5
											c-0.1,0.2-0.2,0.4-0.6,0.9c0-0.5,0-0.7,0-1c-0.4-7.6-0.6-14.9-0.9-22.5c0-0.7,0.2-1,0.9-1.1c4.6-0.6,9.2-1.4,14.1-2.2
											c7.6-1.1,15-1.9,22.6-2.5c8.7-0.7,17.3-1.2,26-1.2c5.5,0,11.1,0,16.6,0.3c6.5,0.3,13.1,0.4,19.5,1c2,0.2,4.1,0.3,6.1,0.5
											c0.5,0,0.7,0.1,0.7,0.7c0.4,7.6,0.6,15.5,0.9,23.1C171.7,166.8,171.7,166.9,171.7,167.1z"/>
										<path class="st7" d="M102.7,103.3c0.1-0.4,0-0.6-0.1-0.9c-1.1-2.8-2-5.5-3.1-8.4c-0.2-0.7-0.2-1,0.6-1
											c2.9,0.4,5.2-0.9,7.6-2.8c2.1-2,4.6-3.6,6.8-5.5c0.5-0.4,0.9-0.4,1.5-0.1c3.4,2.2,6.7,4.5,10.1,6.8
											c0.6,0.4,1.1,0.5,1.7,0.5c1-0.1,2-0.1,2.9-0.2c0.7-0.1,1.1,0,0.9,1c-0.7,2.7-1.6,5.5-2.3,8.1c-0.1,0.4-0.1,0.7-0.3,1.3
											c3-2.4,5.7-4.5,8.6-6.6c0.4,1.4,0.9,2.6,1.4,3.7c0.2,0.7,0.6,1.2,1.3,1.6c3.4,2.1,6.6,4.4,10,6.5c0.6,0.4,0.7,0.7,0.5,1.4
											c-1.1,3.7-2,7.6-3.1,11.3c-0.2,0.9,0,0.9,0.7,1c6.7,0.3,13.2,0.6,20,1.2c3.9,0.3,7.7,0.7,11.6,1.2
											c1.3,0.1,1.3,0.1,1.3,1.4c0.1,1.5,0,2.9,0.1,4.3c0.1,0.7-0.1,0.9-0.9,0.9c-4.6-0.6-9.3-1.1-14-1.3
											c-4.5-0.3-9.1-0.7-13.6-0.9c-7.6-0.4-15.1-0.5-22.6-0.5c-0.6,0-1.1,0.2-1.6,0.5c-3.6,2.8-7.2,5.7-10.8,8.5
											c-0.5,0.4-0.9,0.4-1.3,0c-3.7-2.6-7.6-5.2-11.5-7.7c-0.4-0.4-1-0.4-1.5-0.4c-9.2,0.7-18.3,1.7-27.6,3
											c-7.5,1.1-14.9,2.2-22.4,3.6c-0.6,0.1-0.9,0-0.9-0.6c0-1.6,0-3.1-0.1-4.7c0-0.6,0.1-0.9,0.7-1c3.3-0.5,6.6-1.2,9.9-1.8
											c5.5-1,11-1.8,16.4-2.5c1.9-0.2,3.6-0.5,5.4-0.6c0.7-0.1,1-0.2,0.6-1c-1.3-3.6-2.4-7-3.8-10.6c-0.4-1-0.2-1.5,0.5-2
											c3.1-2.4,6.2-4.9,9.3-7.3c0.5-0.4,0.7-0.7,0.9-1.3c0.2-1.1,0.6-2.3,1-3.5c0.1-0.6,0.4-0.6,0.9-0.4
											c2.5,1.6,5.1,3.4,7.6,5.1C102.2,103.1,102.4,103.3,102.7,103.3L102.7,103.3C102.8,103.3,102.8,103.3,102.7,103.3
											L102.7,103.3z M93.3,122.7c2.8-0.4,5.5-0.4,8.3-0.8c0.5,0,0.6-0.4,0.7-0.7c0.7-2.7,1.5-5.4,2.3-8c0.1-0.6,0-0.9-0.4-1.1
											c-2.3-1.5-4.5-3-6.9-4.6c-0.4-0.2-0.7-0.2-1.1,0.1c-2.1,1.9-4.3,3.5-6.6,5.1c-0.4,0.4-0.5,0.6-0.4,1.1
											c1.1,2.8,2,5.7,3.1,8.6C92.6,122.7,92.7,122.9,93.3,122.7z M139.8,120.9c0.5,0.1,0.7-0.1,0.9-0.5c0.7-2.9,1.6-5.8,2.6-8.8
											c0.1-0.5,0-0.6-0.4-0.9c-2.4-1.5-4.6-3.1-7.1-4.8c-0.4-0.2-0.7-0.2-1.1,0.1c-2.1,1.9-4.2,3.5-6.4,5.1
											c-0.4,0.4-0.5,0.6-0.4,1.1c0.9,2.7,2,5.2,2.9,8c0.1,0.5,0.4,0.6,0.9,0.6C134.3,120.8,137,120.8,139.8,120.9z M116.2,114.1
											c-1.4,0.1-2.7,0.2-4.2,0.1c-0.6,0-0.9,0.2-1,0.7c-0.6,2.7-1.5,5.4-2.2,8c-0.1,0.5-0.1,0.7,0.4,1.1c2.4,1.5,4.6,3,7,4.7
											c0.4,0.2,0.7,0.2,1.1-0.1c2.2-1.9,4.5-3.5,6.7-5.1c0.4-0.2,0.5-0.4,0.2-1c-1.1-2.6-2-5.2-2.9-7.8
											c-0.2-0.6-0.4-0.7-1.1-0.6C119,114.1,117.6,114.1,116.2,114.1z M115.9,107.3c1.4-0.1,2.7-0.2,4.2-0.1c0.6,0,0.9-0.1,1-0.7
											c0.6-2.7,1.5-5.4,2.2-8c0.1-0.5,0.1-0.7-0.4-1c-2.4-1.5-4.6-3.1-7.1-4.7c-0.4-0.2-0.7-0.2-1.1,0.1
											c-2.2,1.9-4.3,3.5-6.6,5.2c-0.4,0.2-0.5,0.4-0.2,1c1.1,2.6,2,5.2,2.9,7.8c0.2,0.5,0.4,0.6,1,0.6
											C113.2,107.3,114.4,107.3,115.9,107.3z"/>
										<path class="st6" d="M140.1,267c-3.1,1.8-6.1,3.3-9.3,4.7c-2.5,1.2-5.1,2.2-7.6,3.3c-0.4,0.1-0.7,0.2-1.2,0.1
											c-6-1.8-11.7-4-17.4-6.6c-0.1-0.4,0.2-0.4,0.4-0.6c1.9-1.6,3.7-3.5,5.7-5.1c0.5-0.4,0.6-0.9,0.6-1.6
											c-0.6-16.6-1.3-33.2-2-49.9c0-0.9,0.1-1.1,1.1-1.2c6.3-0.4,12.7-0.6,19-0.7c1.3,0,1.2-0.2,1.3,1.2c0.6,16.4,1.3,33,2,49.4
											c0,0.9,0.2,1.4,1,1.7C135.8,263.6,137.9,265.3,140.1,267z"/>
										<path class="st7" d="M184.8,221.6c0,3.3,0.4,7-0.2,10.8c-1,6.2-3.3,11.7-6.8,16.8c-5.2,7.6-12,13.6-19.4,18.9
											c-10.7,7.5-22.3,13.2-34.5,17.7c-0.5,0.2-1,0.2-1.5,0.1c-14.4-4-28.3-9.7-40.8-18c-7-4.7-13.2-10-18-17.1
											c-4.3-6.2-6.8-13.1-7.1-20.6c0-3.9-0.4-7.8-0.4-11.7c0-0.6,0.1-1,0.7-1.1c1.7-0.4,3.5-0.6,5.2-1.1c0.7-0.1,1-0.1,1.1,0.7
											c0.1,4.2,0.4,8.3,0.4,12.6c0.3,8.2,3.5,15.2,8.8,21.2c5,5.7,11,10.2,17.6,14c10.1,6,20.9,10.2,32.2,13.5
											c0.4,0.1,0.7,0.1,1.2,0c11.8-4.5,23-10.1,33.2-17.7c6.2-4.5,11.8-9.8,16-16.4c3.8-6,5.9-12.6,5.4-19.8
											c-0.4-4-0.4-8.2-0.4-12.2c0-0.7,0.1-1,0.9-0.9c1.9,0.3,3.6,0.5,5.4,0.7c0.6,0,0.9,0.2,0.9,0.9
											C184.6,215.9,184.6,218.4,184.8,221.6z"/>
										<path class="st7" d="M121.8,137.4c2.9-2.3,5.7-4.5,8.4-6.7c0.2-0.2,0.6-0.2,0.9-0.2c6,0,11.8,0.2,17.8,0.4
											c5.5,0.2,11,0.4,16.4,0.9c5.2,0.3,10.1,0.8,15.1,1.4c0.7,0.1,0.7,0.5,0.7,1c0.1,4.4,0.4,8.7,0.4,13.1
											c0.4,8.1,0.6,16.2,1,24c0,0.9,0,1.1-1,1c-1.7-0.3-3.5-0.4-5.2-0.6c-0.7,0-0.9-0.4-1-1c-0.4-8.9-0.7-17.9-1.1-26.7
											c-0.1-1.2-0.1-2.4-0.1-3.6c0-0.6-0.2-0.9-0.7-0.9c-5.6-0.5-11.2-0.9-16.8-1.3c-6-0.4-11.9-0.6-17.9-0.7
											c-5.4-0.1-10.8-0.1-16.2,0.1c-0.4,0-0.6,0-1,0C121.9,137.6,121.9,137.4,121.8,137.4z"/>
										<path class="st7" d="M112.6,138.1c-2,0.1-4,0.1-6,0.3c-9.6,0.7-19,1.7-28.5,2.9c-5.6,0.8-11.3,1.8-16.9,2.6
											c-0.7,0.1-1,0.4-0.9,1.1c0.4,10,0.8,20,1.2,30c0,0.9-0.1,1.1-1,1.2c-1.7,0.4-3.5,0.6-5.2,1c-0.6,0.1-0.9,0-0.9-0.6
											C54,164,53.4,151.4,53,139c0-0.5,0.1-0.7,0.6-0.9c6.2-1.2,12.4-2.2,18.8-3.2c7-1.1,14.1-1.9,21.1-2.7
											c3-0.4,6.2-0.4,9.2-0.8c0.4,0,0.7,0,1.1,0.2c2.9,2,6,4.1,8.7,5.9C112.6,137.9,112.6,138,112.6,138.1z"/>
										<path class="st7" d="M50.8,231c-5.9,1.1-11.6,2.2-17.2,3.4c-1.7,0.4-3.5,0.6-5.2,1.1c-0.7,0.1-1,0-1-0.7
											c0-1.6-0.2-3.1-0.1-4.6c0-0.6-0.2-0.9-0.6-1.2c-4.2-2.7-8.4-5.4-12.5-8.3c-0.6-0.4-0.6-0.6-0.2-1.1
											c4-4.5,7.8-9.1,11.9-13.7c0.4-0.4,0.6-1,0.5-1.6c-0.1-1.4-0.1-2.7-0.1-4c0-0.5,0.1-0.7,0.6-0.9c2.5-0.5,5.1-1.1,7.6-1.8
											c0.6-0.1,0.9,0,1.1,0.6c1,2,0.5,4.1,0.1,6.1c-1.2,6.3-2.3,12.6-3.6,18.9c-0.1,0.7,0,0.9,0.5,1.1c5.8,2,11.6,4.2,17.6,6.1
											C50.3,230.6,50.3,230.7,50.8,231z"/>
										<path class="st7" d="M191,225.4c0.2-0.4,0.6-0.4,0.9-0.4c5.6-2.5,10.9-4.9,16.5-7.4c0.6-0.2,0.9-0.4,0.6-1.2
											c-2-7.1-3.7-14.2-5.6-21.3c-0.4-1.5,0.4-2.7,0.5-4c0-0.4,0.4-0.2,0.6-0.2c2.7,0.4,5.4,0.8,8.1,1.2
											c0.5,0.1,0.4,0.4,0.4,0.7c0.1,1.4,0.2,2.7,0.1,4.2c0,0.6,0.2,1,0.5,1.5c4.4,4.2,8.6,8.4,13,12.5c0.6,0.6,0.4,0.9-0.1,1.3
											c-3.8,2.9-7.7,6-11.5,8.8c-0.7,0.5-1,1.1-0.9,2c0.1,1.4,0.1,2.7,0.1,4.2c0.1,1-0.2,1.1-1.1,1c-3.2-0.4-6.5-0.8-9.7-1.2
											c-4.1-0.4-8.3-0.9-12.3-1.3C191,225.6,191,225.4,191,225.4z"/>
										<path class="st8" d="M85.4,243.9c-1.4-0.9-2.8-2-4.1-3c-4.1-3.3-7.9-6.8-10.9-11.3c-1.4-2.2-2.8-4.4-3.1-7.1
											c-0.4-2.1-0.3-4.5-0.4-6.7c0-0.4,0.2-0.4,0.5-0.4c3.7-0.5,7.6-1.2,11.3-1.8c1.6-0.2,3.3-0.4,5-0.8
											c0.5-0.1,0.7-0.1,0.9,0.5c0.4,10,0.8,20,1.1,30C85.5,243.6,85.5,243.7,85.4,243.9z"/>
										<path class="st9" d="M157.2,240.9c0-0.4,0-0.7,0-1c-0.4-9.7-0.7-19.3-1.1-29c0-0.9,0-1.1,1-1.1c3.3,0.2,6.6,0.4,10,0.7
											c2,0.2,4,0.3,6.1,0.5c0.5,0,0.4,0.4,0.4,0.6c1,6.5-0.7,12.2-4.8,17.3c-3.2,4.2-6.8,8-10.9,11.4
											C157.5,240.8,157.4,240.8,157.2,240.9z"/>
										<path class="st8" d="M108.1,260.8c-1.5,1.4-3,2.8-4.4,3.9c-0.5,0.4-1.1,1-1.6,1.4c-0.5,0.6-1,0.7-1.9,0.4
											c-3.5-1.8-7-3.6-10.4-5.8c-0.4-0.1-0.7-0.2-0.7-0.7c-0.1-2.7-0.3-5.5-0.4-8.4C95,255.2,101.3,258.3,108.1,260.8z"/>
										<path class="st8" d="M154.3,249c0,2.8,0.3,5.5,0.4,8.2c0,0.4-0.1,0.6-0.5,0.9c-3.3,2.5-6.8,4.8-10.5,7
											c-0.4,0.2-0.7,0.2-1,0c-2-1.6-4.1-3.2-6.2-4.7c-0.2-0.2-0.7-0.4,0-0.7c6-2.8,11.8-6.2,17.3-10
											C153.8,249.4,154.1,249.3,154.3,249z"/>
										<path class="st10" d="M86.1,258.3c-8.9-6.7-16.4-14-18.4-25.2c0.2-0.1,0.4,0,0.4,0.1c4.6,6.3,10.4,11.5,16.8,15.7
											c0.7,0.5,1,1,1,1.9C85.8,253.1,86,255.6,86.1,258.3z"/>
										<path class="st10" d="M174,228.8c0.1,2.1-0.4,4.3-1.1,6.3c-1.8,5.6-5.2,10.2-9.1,14.5c-1.9,2-3.7,3.8-6,5.6
											c-0.1-2,0-3.9-0.3-5.6c-0.4-2.1,0.4-3.6,2.1-5C165.2,240.3,170,235,174,228.8z"/>
										<path class="st8" d="M67.6,174.9c1.2-1.9,2.5-3.5,3.6-5.2c0.9-1.2,2-2.4,2.7-3.6c0.5-0.7,1.1-1,1.9-1.1
											c2-0.4,3.9-0.5,5.7-0.8c0.5-0.1,0.7,0,0.7,0.6c0.1,2.5,0.1,5.1,0.4,7.5c0,0.4,0,0.6-0.5,0.7c-3.3,0.4-6.6,0.9-9.9,1.4
											C70.8,174.4,69.3,174.7,67.6,174.9z"/>
										<path class="st8" d="M169.3,170.9c-1.3-0.1-2.6-0.2-3.7-0.3c-2.8-0.2-5.6-0.3-8.4-0.5c-0.7,0-1.5,0-2.1,0
											c-0.4,0-0.5-0.1-0.6-0.6c-0.1-2.6-0.1-5.2-0.4-7.6c0-0.4,0.1-0.6,0.5-0.6c2.1,0.2,4.4,0.3,6.6,0.4c0.4,0,0.7,0.1,1,0.5
											c2.4,2.9,4.6,5.6,7,8.4C169.2,170.7,169.2,170.7,169.3,170.9z"/>
										<path class="st10" d="M203.7,216c-5.2,2.4-10.3,4.5-15.3,6.8c-0.4-0.1-0.2-0.4-0.2-0.5c0-2.8-0.3-5.6-0.4-8.5
											c0-0.5-0.1-0.7,0.6-0.7c5,0.8,10,1.7,14.8,2.8C203.3,215.9,203.3,215.9,203.7,216z"/>
										<path class="st10" d="M37.2,222.6c5-1.6,9.9-2.9,14.8-4.2c0.4-0.1,0.6-0.2,0.6,0.4c0,3,0.3,6.1,0.3,9.3
											C47.8,226.4,42.4,224.4,37.2,222.6z"/>
										<path class="st11" d="M150,220.8c-0.7-0.6-1.4-0.6-2.1-0.5c-2,0.1-4.2,0.1-6.2,0.3c-1.4,0.1-1.6,0.4-1.5,1.5
											c0,0.7,0.1,1.5,0.1,2.1c0.1,1.2,0.4,1.5,1.5,1.4c2.5-0.1,5.1-0.1,7.5-0.4c1-0.1,1,0.4,1.1,1.1c0,0.7,0.1,1.2-0.9,1.2
											c-2.6-0.1-5.1,0.1-7.6,0.3c-0.9,0-1.7,0-2.6-0.5c-1.1-0.5-1.7-1.4-1.8-2.7c0-0.9-0.1-1.7-0.1-2.6
											c-0.1-2.1,1.1-3.6,3.2-3.9c2.9-0.2,5.7-0.3,8.7-0.4c0.4,0,0.6,0.1,0.6,0.5C149.9,219.2,150,219.9,150,220.8z"/>
										<path class="st11" d="M90.7,220.2c3.6-0.1,7.3-0.4,10.8-0.4c2-0.1,2-0.1,2.1,2c0,0.2,0,0.5,0,0.7
											c-1.4-0.9-2.8-0.4-4.3-0.3c-1.6,0-3.1,0.2-4.6,0.1c-0.6,0-0.7,0.2-0.6,0.9c0,0.6,0.1,0.7,0.7,0.7c2-0.1,3.9-0.1,5.7-0.3
											c0.6,0,1,0.1,0.9,0.7c0,0.1,0,0.4,0,0.5c0.1,0.7-0.1,1.1-0.9,1.1c-1.6,0-3.1,0-4.7,0.1s-1.6,0.1-1.6,1.6
											c0,0.7-0.1,1.6,0.6,2c-1.4,0.1-2.7,0.1-4.2,0.1c1-0.7,0.7-1.7,0.6-2.6c-0.1-1.7-0.1-3.5-0.1-5.2
											C91.4,221.6,91.4,220.8,90.7,220.2z"/>
										<path class="st12" d="M103,191.4c1.7,0.6,2.1,2.1,2.1,3.6c0,1.2,0.1,2.1,1.5,2.8c-2.1,0.4-4.2,0.4-6.1,0.5
											c0-0.1,0-0.1,0-0.1c1.5-1.1,1.1-2.6,1.1-4c0-0.7-0.4-1.1-1.2-1c-3,0.4-6.1,0.5-9.2,0.9c-0.4,0-0.5,0.2-0.5,0.6
											c0.1,0.9,0.1,1.9,0.1,2.7c0,0.4,0.1,0.6,0.4,0.7c0.4,0.2,0.6,0.5,1,0.7c0,0.1-0.1,0.1-0.1,0.2c-1.9,0.2-3.7,0.4-5.6,0.5
											c0-0.1-0.1-0.2,0-0.2c1-0.9,1.1-2,1-3.1c-0.1-3.3-0.3-6.7-0.4-10c-0.1-1.2,0.2-2.6-1.3-3.3c1-0.1,2-0.2,2.9-0.4
											c3.9-0.4,7.8-0.8,11.7-1.2c2.4-0.2,4.2,1.4,4.4,3.7c0.1,1,0.1,1.9,0,2.8C104.9,189.7,104.2,190.7,103,191.4z M90.5,188.5
											c0,0.7,0.1,1.4,0.1,2c0,0.4,0.1,0.6,0.6,0.6c3-0.4,6.1-0.5,9.1-0.9c0.7-0.1,1.2-0.4,1.1-1.3c-0.1-0.9-0.1-1.9-0.1-2.7
											c-0.1-1.1-0.2-1.4-1.3-1.2c-2.4,0.2-4.6,0.4-7,0.5C90.4,186,90.4,186,90.5,188.5z"/>
										<path class="st13" d="M145.8,192.4c-0.1-3.6-0.3-7-0.4-10.3c0-0.7-1-1-1.3-1.6c2,0,3.9,0.1,5.8,0.1c0,0.1,0,0.1,0,0.1
											c-1.2,1-1.2,2.3-1.1,3.6c0.2,3.1,0.3,6.3,0.4,9.3c0.1,2,0.1,2,1.4,3.6c-2,0-3.7-0.1-5.6-0.1c-0.4,0-0.6-0.4-0.9-0.7
											c-3.1-3.6-6-7.3-9.2-11c-0.1-0.1-0.2-0.2-0.4-0.4c-0.2,0.2-0.1,0.6-0.1,0.9c0.1,2.6,0.1,5.2,0.4,7.8
											c0.1,1.9,0.1,1.9,1.4,3.3c-2,0.2-3.9,0-6,0c1.6-1,1.2-2.4,1.1-3.7c0-3.1-0.3-6.5-0.4-9.7c0-1.2-0.1-2.5-1.6-3.2
											c1.5-0.1,2.6-0.1,3.6-0.1c1.7-0.2,2.8,0.5,3.9,2c2.6,3.3,5.4,6.4,8,9.7C145.4,192,145.4,192.3,145.8,192.4z"/>
										<path class="st12" d="M192.3,192.8c0.1,1.2,0.1,2.6,0.1,3.7c0.1,2.7-1.4,4.2-4.1,3.9c-3.1-0.3-6.3-0.7-9.5-1.2
											c-2.5-0.4-4.2-2.2-4.4-4.8c-0.2-2.8-0.3-5.5-0.4-8.3c-0.1-2.5,1.7-4,4.2-3.6c3,0.4,6.1,0.7,9.2,1.2c2.6,0.3,4.4,2.2,4.5,5
											C192.2,190.2,192.2,191.5,192.3,192.8z M188.7,192.5c-0.1-1.4-0.1-2.7-0.1-4c0-0.9-0.4-1.2-1.2-1.2
											c-2.9-0.4-5.7-0.7-8.6-1.2c-0.7-0.1-1.2,0.2-1.1,1c0.1,2.7,0.3,5.4,0.4,8.1c0,0.6,0.4,1.1,1,1.1c2.9,0.4,6,0.7,8.8,1.2
											c0.7,0.1,1.1-0.2,1-1.1C188.9,195,188.9,193.6,188.7,192.5z"/>
										<path class="st12" d="M65.3,194.6c-0.1-1.4-0.1-2.7-0.1-4c-0.1-2.6,1.6-4.6,4.2-5.1c2.9-0.4,6-0.9,8.9-1.3
											c2.8-0.4,4.5,1.1,4.5,3.8c0.1,2.6,0.3,5.2,0.4,7.6c0,2.9-1.6,5-4.5,5.4c-3,0.4-6,0.9-9.1,1.4c-2,0.4-3.9-1.1-4.1-3.1
											c0-0.1,0-0.2,0-0.2C65.3,197.6,65.2,196.1,65.3,194.6L65.3,194.6z M68.7,194.1c0.1,1.4,0.1,2.7,0.1,4c0,0.6,0.2,1.1,1,1
											c2.9-0.4,5.9-0.9,8.8-1.3c0.7-0.1,1.1-0.5,1-1.3c-0.1-2.6-0.3-5.2-0.4-7.6c-0.1-1-0.2-1.2-1.3-1.1
											c-2.8,0.4-5.5,0.9-8.3,1.2c-1,0.1-1.2,0.5-1.2,1.4C68.6,191.5,68.6,192.8,68.7,194.1z"/>
										<path class="st3" d="M118.3,197.5c-1.6,0.1-3,0.2-4.6,0.1c-2.5,0.1-4.2-1.7-4.4-4.1c-0.2-2.8-0.3-5.5-0.4-8.3
											c-0.1-2.5,1.6-4.4,4.1-4.4c3-0.2,6.2-0.3,9.3-0.4c2.5-0.1,4.2,1.7,4.4,4.1c0.2,2.8,0.3,5.6,0.4,8.4c0.1,2.5-1.6,4.2-4,4.4
											C121.6,197.4,119.9,197.4,118.3,197.5z M117.9,184c-1.4,0.1-2.8,0-4.2,0.1c-0.9,0-1.2,0.4-1.2,1.3
											c0.2,2.6,0.3,5.2,0.4,7.8c0.1,1,0.4,1.2,1.3,1.2c2.7-0.1,5.5-0.3,8.2-0.4c1-0.1,1.2-0.4,1.2-1.3c-0.1-2.6-0.1-5.2-0.4-7.6
											c-0.1-1-0.4-1.2-1.3-1.2C120.7,183.7,119.4,183.9,117.9,184z"/>
										<path class="st3" d="M56.6,204.8c-2,0.4-3.7,0.8-5.6,1.2c-0.1,0-0.1-0.1-0.2-0.1c1.6-1.2,1.2-2.9,1.1-4.4
											c-0.1-2.7-0.3-5.4-0.4-8.2c0-0.7-0.2-1-1-0.7c-1.4,0.4-2.7,0.6-4.1,0.9c-1,0.1-1.2,1.1-2,1.6c-0.1-1.5,0-2.8-0.1-4
											c0-0.4,0.2-0.4,0.5-0.4c5.5-1.2,10.8-2.3,16.4-3.6c0.4-0.1,0.7-0.2,0.7,0.4c0,1.3,0.1,2.6,0.1,3.9c-0.1,0-0.2,0-0.2,0
											c-0.9-0.9-1.9-0.9-2.9-0.5s-2.1,0.5-3.3,0.8c-0.5,0.1-0.7,0.2-0.6,0.9c0.1,3.6,0.4,7.2,0.4,10.8
											C55.4,204,56.3,204.2,56.6,204.8z"/>
										<path class="st12" d="M153.4,185.1c-0.1-1.4-0.1-2.6-0.1-3.9c0-0.5,0.2-0.4,0.6-0.4c3,0.2,6.1,0.4,9.2,0.7
											c2.5,0.2,4.7,0.3,7.2,0.5c0.6,0,0.9,0.2,0.9,0.9c0,1.2,0.1,2.4,0.1,3.6c-0.1,0-0.2,0-0.2,0c-0.9-1.1-2-1.4-3.1-1.2
											c-1.1,0.1-2.1,0-3.3-0.2c-0.4,0-0.5,0.1-0.5,0.4c0.1,3.6,0.4,7.5,0.4,11.1c0,0.9,1,1,1.2,1.9c-2-0.2-3.9-0.3-5.8-0.4
											c0-0.1,0-0.1,0-0.1c1.4-0.9,1.2-2.1,1.1-3.5c-0.2-2.9-0.3-5.8-0.4-8.8c0-0.7-0.1-1.2-1.1-1.1c-1.1,0.1-2,0-3.1-0.2
											c-1.1-0.1-2,0-2.7,1.1C153.5,185.2,153.5,185.2,153.4,185.1z"/>
										<path class="st14" d="M83.7,187c0.6,0.5,0.9,1.2,1,1.9c0.4,2.9,0.4,5.7,0.4,8.7c-0.1,2.4-2.1,4.7-4.5,5.3
											c-2.9,0.5-5.9,1-8.8,1.4c-0.9,0.1-1.6,0.1-2.6-0.5c1.5-0.2,2.8-0.4,4.1-0.6c2-0.4,4.2-0.5,6.1-1c2.8-0.5,4.7-3,4.6-6
											c0-2.9-0.3-5.7-0.4-8.7C83.7,187.3,83.7,187.3,83.7,187z"/>
										<path class="st14" d="M193.3,188.2c0.7,1,1.1,1.9,1.1,2.8c0.1,2.4,0.1,4.6,0.3,7c0,3.1-2,5.2-5.2,4.9
											c-2.7-0.3-5.4-0.6-7.9-1.1c-1-0.1-2-0.4-2.9-1.4c1.5,0.1,2.7,0.3,3.9,0.4c2,0.3,3.9,0.5,5.8,0.8c3.1,0.4,5.4-1.6,5.3-4.9
											C193.5,194.1,193.3,191.2,193.3,188.2z"/>
										<path class="st14" d="M113.2,198.7c3.5-0.1,6.6-0.3,9.8-0.4c3.1-0.2,5.2-2.6,5.2-5.6c0-2.8-0.3-5.7-0.4-8.5
											c0,0,0,0,0.1-0.1c0.6,0.6,0.9,1.4,0.8,2.2c0.1,2.6,0.3,5.2,0.4,7.8c0,2.8-2.1,5.2-5.1,5.3c-2.8,0.2-5.6,0.3-8.5,0.4
											C115,199.7,114.2,199.5,113.2,198.7z"/>
										<path class="st15" d="M166.5,197.2c-0.7-0.4-1-0.9-1.1-1.7c0-2.9-0.3-5.8-0.4-8.8c0-0.7,0.1-1,0.9-0.9
											c0.9,0.1,1.7,0.1,2.6,0.2c0.9-0.1,1.2,0.4,1.9,1.2c-1.2-0.1-2.1-0.2-3.2-0.3c-0.7,0-1,0.1-0.9,1c0.2,2.8,0.3,5.6,0.4,8.4
											C166.6,196.6,166.7,196.8,166.5,197.2z"/>
										<path class="st14" d="M61.1,192.5c-1.1,0.2-2,0.4-3,0.6c-0.7,0.1-1,0.4-0.9,1.2c0.2,2.8,0.3,5.6,0.4,8.5
											c0,0.2,0.2,0.7-0.1,0.9c-0.4,0-0.7-0.2-0.9-0.7c-0.1-0.4-0.1-0.9-0.1-1.4c-0.1-2.7-0.1-5.4-0.4-8.1c0-0.6,0.1-1,0.7-1.1
											c0.9-0.1,1.7-0.4,2.6-0.5C60.1,191.6,60.6,191.9,61.1,192.5z"/>
										<path class="st14" d="M151.5,196.3c-0.9-0.4-1-1-1.1-1.7c-0.1-3.6-0.3-7.3-0.4-10.8c-0.1-1.2-0.1-1.2,1.1-1.2
											c0.4,0,0.6,0,1.1,0.2c-1.7,0.9-1.2,2.3-1.2,3.7c0,2.9,0.3,5.8,0.4,8.8C151.5,195.5,151.5,195.9,151.5,196.3z"/>
										<path class="st14" d="M93,198.3c-0.9-0.5-1.3-1.9-1.1-2.6c0.1-0.4,0.4-0.2,0.6-0.2c1.9-0.2,3.6-0.4,5.4-0.4
											c0.6-0.1,1.4-0.1,2-0.2c0.2,0,0.6-0.1,0.6,0.4c0.1,0.4-0.1,0.6-0.5,0.6c-0.2,0-0.5,0.1-0.7,0.1c-1.7,0.1-3.5,0.4-5.2,0.4
											c-0.9,0-1.4,0.2-1.1,1.2C93.1,197.6,92.8,197.8,93,198.3z"/>
										<path class="st14" d="M105.8,185.1c1.5,1.6,1.5,5.2,0,6.5c-0.1,0.1-0.2,0.4-0.5,0.2c-0.2-0.1-0.4-0.4-0.1-0.6
											c1-1.3,0.7-2.9,0.7-4.4C105.8,186.2,105.7,185.6,105.8,185.1z"/>
										<path class="st14" d="M136,188.2c0.7,0.6,1.1,1.2,1.1,2c0.1,2,0.1,3.7,0.3,5.7c-0.6-0.2-1-0.6-1-1.4
											C136.2,192.6,136.1,190.5,136,188.2z"/>
										<path class="st14" d="M146.4,198.3c1.9,0,3.5,0.1,5,0.1c0.6,0,1.1,0.2,1.6,0.9c-1.2,0.2-2.4-0.1-3.5-0.1
											C148.6,199.3,147.2,199.8,146.4,198.3z"/>
										<path class="st15" d="M102.6,200.5c1-1.4,5-1.8,6.1-0.4C106.6,200.1,104.7,200.4,102.6,200.5z"/>
										<path class="st14" d="M94.3,201.3c-2,0.2-3.9,0.4-6,0.8c0.2-0.6,0.5-1.1,1.2-1.1c1.1-0.1,2.1-0.2,3.3-0.4
											C93.6,200.4,94,200.7,94.3,201.3z"/>
										<path class="st14" d="M167.9,200.4c-2-0.2-3.9-0.3-6-0.4c0.4-0.6,0.7-1,1.5-0.9c0.9,0.1,1.9,0.2,2.8,0.2
											C167,199.3,167.5,199.6,167.9,200.4z"/>
										<path class="st14" d="M132.5,199.4c0.9-1.4,5-1.5,6-0.3C136.6,199.2,134.6,199.2,132.5,199.4z"/>
										<path class="st14" d="M58.8,206.4c-2,0.4-4,0.9-5.9,1.3c0.2-0.9,0.7-1.2,1.5-1.3c1-0.1,1.9-0.4,2.7-0.5
											C57.7,205.8,58.3,205.7,58.8,206.4z"/>
										<path class="st14" d="M155.7,187.4c-0.4-2.4-0.4-2.4,1.6-2.1c0.6,0,1.2,0.1,1.7,0.1s0.4,0.4,0.4,0.6
											c0,0.4-0.2,0.4-0.6,0.4C157.8,186.3,156.6,186.2,155.7,187.4z"/>
										<path class="st15" d="M46.5,196.8c-0.4-2-0.4-2,1.5-2.5c0.6-0.1,1.1-0.2,1.7-0.4c0.2,0,0.5-0.2,0.6,0.1
											c0,0.4,0,0.6-0.4,0.7C48.5,195,47.3,195.4,46.5,196.8z"/>
										<path class="st15" d="M64.1,190.8c0,0.5,0.1,1,0.1,1.4c0,0.2,0.2,0.7-0.1,0.7c-0.4,0.1-0.9-0.2-0.9-0.6
											c-0.1-1.1-0.2-2.4-0.1-3.5c0-0.4,0.4-0.4,0.6-0.4c0.4,0,0.4,0.2,0.4,0.5C64.2,189.6,64.1,190.2,64.1,190.8z"/>
										<path class="st15" d="M173.4,188.7c-0.6-0.4-1-0.7-1-1.5c0-0.9-0.1-1.9-0.1-2.7c0-0.2-0.1-0.5,0.2-0.6
											c0.4,0,0.6,0.1,0.6,0.5C173.4,185.7,173.4,187.2,173.4,188.7z"/>
										<path class="st14" d="M107.1,197c-1.4-0.6-1-1.9-1.2-2.9C107,194.6,107.4,195.3,107.1,197z"/>
										<path class="st13" d="M93.3,122.7c-0.5,0.1-0.6-0.1-0.9-0.5c-1.1-2.8-2-5.8-3.1-8.6c-0.2-0.5-0.1-0.7,0.4-1.1
											c2.2-1.6,4.3-3.5,6.6-5.1c0.4-0.4,0.7-0.4,1.1-0.1c2.3,1.5,4.5,3.1,6.9,4.6c0.4,0.2,0.6,0.6,0.4,1.1
											c-0.7,2.7-1.6,5.4-2.3,8c-0.1,0.4-0.2,0.7-0.7,0.7C98.8,122.2,95.9,122.4,93.3,122.7z"/>
										<path class="st13" d="M139.8,120.9c-2.8-0.1-5.5-0.1-8.2-0.2c-0.5,0-0.7-0.1-0.9-0.6c-0.9-2.7-2-5.2-2.9-8
											c-0.2-0.5-0.1-0.7,0.4-1.1c2.1-1.6,4.3-3.5,6.4-5.1c0.4-0.4,0.6-0.4,1.1-0.1c2.3,1.6,4.6,3.1,7.1,4.8
											c0.4,0.2,0.4,0.5,0.4,0.9c-1,2.9-1.7,5.8-2.6,8.8C140.5,120.8,140.3,121.1,139.8,120.9z"/>
										<path class="st3" d="M116.2,114.1c1.4-0.1,2.7-0.1,4.2-0.1c0.5,0,0.9,0.1,1.1,0.6c0.9,2.6,1.9,5.2,2.9,7.8
											c0.2,0.5,0.1,0.7-0.2,1c-2.2,1.6-4.5,3.5-6.7,5.1c-0.4,0.2-0.6,0.4-1.1,0.1c-2.3-1.5-4.6-3.1-7-4.7
											c-0.4-0.2-0.4-0.6-0.4-1.1c0.7-2.7,1.6-5.4,2.2-8c0.1-0.6,0.4-0.7,1-0.7C113.4,114.2,114.8,114.1,116.2,114.1z"/>
										<path class="st3" d="M115.9,107.3c-1.4,0.1-2.7,0.1-4.2,0.1c-0.5,0-0.7-0.1-1-0.6c-0.9-2.6-2-5.2-2.9-7.8
											c-0.2-0.5-0.1-0.7,0.2-1c2.2-1.6,4.5-3.5,6.6-5.2c0.4-0.2,0.6-0.4,1.1-0.1c2.3,1.6,4.6,3.1,7.1,4.7c0.4,0.2,0.4,0.5,0.4,1
											c-0.7,2.7-1.6,5.4-2.2,8c-0.1,0.6-0.5,0.7-1,0.7C118.6,107.1,117.3,107.2,115.9,107.3z"/>
										<path class="st16" d="M102.7,103.3L102.7,103.3C102.8,103.3,102.8,103.3,102.7,103.3L102.7,103.3L102.7,103.3z"/>
										<path class="st11" d="M90.5,188.5c-0.1-2.6-0.1-2.6,2.5-2.8c2.4-0.2,4.6-0.4,7-0.5c1.1-0.1,1.3,0,1.3,1.2
											c0.1,0.9,0.1,1.9,0.1,2.7c0.1,0.9-0.4,1.2-1.1,1.3c-3,0.4-6.1,0.5-9.1,0.9c-0.5,0-0.6-0.1-0.6-0.6
											C90.6,189.9,90.4,189.1,90.5,188.5z M99.5,186.3c-0.9,0.1-1.7,0.2-2.5,0.2c-1.5,0.1-3,0.4-4.5,0.4c-0.4,0-0.9,0-0.9,0.5
											c0,0.7,0.1,1.4,0.1,2c0,0.2,0.1,0.4,0.4,0.4c0.2,0,0.5,0,0.5-0.4s0-0.6,0-1c-0.1-0.6,0.1-0.7,0.7-0.9
											c2-0.2,4.1-0.4,6.1-0.5c0.4,0,0.9,0,0.7-0.5C100.1,186.1,99.7,186.3,99.5,186.3z"/>
										<path class="st17" d="M188.7,192.5c0.1,1.4,0.1,2.6,0.1,3.9c0,0.7-0.2,1.1-1,1.1c-2.9-0.4-6-0.7-8.8-1.2
											c-0.6-0.1-1-0.5-1-1.1c-0.1-2.7-0.3-5.4-0.4-8.1c0-0.7,0.4-1.1,1.1-1c2.9,0.4,5.7,0.7,8.6,1.2c0.7,0.1,1.1,0.5,1.2,1.2
											C188.7,189.7,188.6,191.1,188.7,192.5z M179,191.3c0.1,1.1,0.1,2.1,0.1,3.3c0,0.4,0.1,0.6,0.6,0.6s0.4-0.4,0.4-0.6
											c-0.1-1.4-0.1-2.7-0.1-4c-0.1-2.5-0.1-2.5,2.4-2c1.6,0.3,3,0.4,4.6,0.6c0.2,0,0.6,0.1,0.6-0.4c0-0.4-0.1-0.6-0.4-0.6
											c-0.1,0-0.2-0.1-0.5-0.1c-2.1-0.3-4.4-0.6-6.6-0.8c-0.9-0.1-1.1,0.2-1.1,1.1C179,189.3,179,190.3,179,191.3z"/>
										<path class="st17" d="M68.7,194.1c-0.1-1.2-0.1-2.6-0.1-3.7c0-0.9,0.3-1.3,1.2-1.4c2.8-0.4,5.5-0.9,8.3-1.2
											c1-0.1,1.2,0,1.3,1.1c0.1,2.6,0.1,5.2,0.4,7.6c0,0.7-0.2,1.2-1,1.3c-2.9,0.4-5.9,0.9-8.8,1.3c-0.7,0.1-0.9-0.4-1-1
											C68.7,196.8,68.7,195.4,68.7,194.1z M69.8,194.2c0,1,0.1,2,0.2,2.9c0,0.2-0.2,0.7,0.4,0.7c0.5,0,0.6-0.4,0.5-0.9
											c-0.1-1.7-0.1-3.3-0.1-5.1c0-1.1,0.3-1.5,1.2-1.5c1.9-0.4,3.7-0.5,5.6-0.8c0.4,0,0.7,0,0.7-0.5c-0.1-0.6-0.4-0.4-0.9-0.4
											c-2.4,0.4-4.5,0.6-6.8,1.1c-0.7,0.1-1,0.5-0.9,1.3C69.7,192.1,69.7,193.1,69.8,194.2z"/>
										<path class="st11" d="M117.9,184c1.4-0.1,2.7-0.1,4.2-0.1c1,0,1.2,0.1,1.3,1.2c0.1,2.6,0.3,5.2,0.4,7.6
											c0,1-0.3,1.3-1.2,1.3c-2.7,0.1-5.5,0.3-8.2,0.4c-1,0-1.3-0.1-1.3-1.2c-0.1-2.6-0.1-5.2-0.4-7.8c-0.1-0.9,0.4-1.2,1.2-1.3
											C115.3,184,116.6,184,117.9,184z M118.3,184.9c-1.1,0.1-2,0.1-3.1,0.2c-1.1,0.1-1.5,0.4-1.5,1.4c0.1,2,0.1,4,0.3,6.1
											c0,0.4,0.1,0.7,0.5,0.7c0.6,0,0.5-0.4,0.4-0.9c-0.1-1.6-0.1-3.3-0.1-4.9c-0.1-1.4,0.1-1.5,1.5-1.5
											c1.9-0.1,3.6-0.1,5.4-0.3c0.4,0,0.7,0,0.7-0.4c0-0.6-0.4-0.5-0.9-0.5C120.5,184.9,119.4,184.8,118.3,184.9z"/>
										<path class="st14" d="M99.5,186.3c0.2,0,0.6-0.2,0.7,0.4c0.1,0.6-0.4,0.4-0.7,0.5c-2,0.2-4.1,0.4-6.1,0.5
											c-0.6,0-0.7,0.2-0.7,0.9c0,0.4,0,0.6,0,1s-0.2,0.4-0.5,0.4c-0.2,0-0.4-0.1-0.4-0.4c0-0.7-0.1-1.4-0.1-2s0.6-0.4,0.9-0.5
											c1.5-0.2,3-0.4,4.5-0.4C97.9,186.5,98.6,186.4,99.5,186.3z"/>
										<path class="st14" d="M179,191.3c-0.1-1-0.1-2,0-3c0-0.9,0.2-1.1,1.1-1.1c2.1,0.3,4.4,0.6,6.6,0.8c0.1,0,0.4,0.1,0.5,0.1
											c0.4,0,0.4,0.2,0.4,0.6c0,0.5-0.4,0.4-0.6,0.4c-1.6-0.1-3-0.4-4.6-0.6c-2.5-0.4-2.5-0.4-2.4,2c0.1,1.4,0.1,2.7,0.1,4
											c0,0.2,0.1,0.6-0.4,0.6c-0.4,0-0.4-0.2-0.6-0.6C179,193.5,179,192.4,179,191.3z"/>
										<path class="st14" d="M69.8,194.2c0-1-0.1-2-0.2-3c0-0.7,0.2-1.2,0.9-1.3c2.1-0.4,4.5-0.8,6.8-1.1c0.2,0,0.7-0.2,0.9,0.4
											c0.1,0.6-0.2,0.6-0.7,0.5c-1.9,0.2-3.7,0.5-5.6,0.8c-1,0.1-1.4,0.4-1.2,1.5c0.1,1.7,0.1,3.3,0.1,5.1c0,0.5,0,0.9-0.5,0.9
											c-0.6,0-0.4-0.5-0.4-0.7C69.8,196.2,69.8,195.2,69.8,194.2z"/>
										<path class="st15" d="M118.3,184.9c1.1-0.1,2.1-0.1,3.3-0.1c0.4,0,0.7-0.1,0.9,0.5c0,0.5-0.4,0.4-0.7,0.4
											c-1.9,0.1-3.6,0.1-5.4,0.3c-1.4,0.1-1.5,0.2-1.5,1.5c0.1,1.6,0.1,3.3,0.1,4.9c0,0.4,0.2,0.7-0.4,0.9
											c-0.6,0-0.6-0.4-0.5-0.7c-0.1-2-0.1-4-0.3-6.1c0-1.1,0.3-1.5,1.5-1.4C116.2,185,117.2,184.9,118.3,184.9z"/>
									</g>
								</g>
							</g>
						</g>
					</g>
				</g>
			</g>
		</g>
	</g>
</g>
</svg>
