<?xml version="1.0" encoding="utf-8"?>
<!-- Generator: Adobe Illustrator 21.0.0, SVG Export Plug-In . SVG Version: 6.00 Build 0)  -->
<svg version="1.1" id="Layer_1" xmlns="http://www.w3.org/2000/svg" xmlns:xlink="http://www.w3.org/1999/xlink" x="0px" y="0px"
	 viewBox="0 0 400 400" style="enable-background:new 0 0 400 400;" xml:space="preserve">
<style type="text/css">
	.st0{fill:#BE3C4A;}
	.st1{fill:#010101;}
	.st2{fill:#FCFCFC;}
	.st3{fill:#FDFCFC;}
	.st4{clip-path:url(#SVGID_2_);}
	.st5{fill:#D34546;}
	.st6{fill:#47555F;}
	.st7{fill:#D24546;}
	.st8{fill:#B1B7BB;}
	.st9{fill:#B1B6BA;}
	.st10{fill:#495660;}
	.st11{fill:#D34849;}
	.st12{fill:#FDFBFC;}
	.st13{fill:#FEFDFD;}
	.st14{fill:#B6B0B5;}
	.st15{fill:#B8ACB1;}
	.st16{fill:#FEFEFE;}
	.st17{fill:#D34748;}
</style>
<g>
	<g id="e7kLQc.tif">
		<g>
			<g>
				<path class="st0" d="M282,122.7c0.2,0,0.5,0,0.7,0c2.2-0.4,4.4-0.2,6.6-0.3c2.8-0.1,5.7,0.1,8.5,0.4c3,0.3,5.9,0.7,8.8,1.2
					c3.5,0.7,6.9,1.4,10.3,2.4c1.8,0.5,3.7,1,5.5,1.7c2.8,1.2,5.7,2.2,8.5,3.5c3.6,1.6,7.1,3.5,10.6,5.5c2.8,1.6,5.5,3.4,8.1,5.4
					c3.6,2.8,7.3,5.7,10.6,9c1.2,1.1,2.3,2.3,3.4,3.5c3.1,3.2,5.9,6.8,8.5,10.4c1.1,1.4,2,3,3,4.5c1.9,3,3.7,6.1,5.3,9.3
					c0.7,1.4,1.4,2.8,2.1,4.3c1.2,2.6,2.2,5.2,3.1,7.9c0.6,1.6,1.2,3.2,1.6,4.9c0.7,2.8,1.5,5.5,2.1,8.3c0.5,2.2,0.9,4.4,1.1,6.7
					c0.3,2.9,0.8,5.9,0.8,8.9c0,1,0.2,1.9,0.2,2.9c0,2.9,0,5.8-0.4,8.6c-0.2,1.2-0.3,2.4-0.4,3.6c-0.4,3.3-0.7,6.6-1.1,9.8
					c-0.4,3.4-1.4,6.8-2.4,10.1c-0.5,1.8-1,3.6-1.7,5.3c-0.9,2-1.4,4.2-2.5,6.2c-1.1,2.1-1.9,4.4-3.1,6.6c-1.4,2.4-2.6,5-4.2,7.3
					c-2.3,3.4-4.5,6.8-7.1,9.9c-1.7,2-3.4,4-5.2,5.9c-2.2,2.4-4.6,4.6-7,6.8c-2.3,2.1-4.8,4-7.3,5.8c-2.7,1.9-5.4,3.6-8.1,5.3
					c-1.8,1.1-3.6,2-5.5,3c-2,1-4,2-6,2.9c-3.1,1.3-6.2,2.4-9.4,3.5c-2.1,0.7-4.3,1.3-6.5,1.9c-2.3,0.6-4.7,1.1-7.1,1.5
					c-2.3,0.4-4.7,0.7-7.1,1c-2.6,0.2-5.2,0.4-7.7,0.5c-2.8,0.1-5.5,0.1-8.3-0.1c-3-0.2-6.1-0.4-9.1-0.9c-3.2-0.5-6.5-1-9.6-1.8
					c-1.7-0.4-3.3-0.7-5-1.3c-3.9-1.3-7.7-2.5-11.5-4.1c-2.2-0.9-4.3-1.9-6.4-3c-2.5-1.3-5-2.6-7.3-4.1c-3-2-6.1-3.9-9-6.2
					c-2.5-2-5-4.2-7.4-6.4c-3.1-2.8-6-5.9-8.6-9.1c-2-2.5-4-5-5.8-7.6s-3.5-5.4-5-8.2c-1.6-2.8-3.1-5.7-4.4-8.7
					c-1-2.3-2-4.6-2.7-7.1c-0.3-1.1-0.8-2.2-1.2-3.3c-0.9-2.9-1.7-5.9-2.4-8.9c-0.6-2.4-1-4.8-1.4-7.3c-0.3-2.4-0.6-4.8-0.8-7.2
					c-0.2-2.7-0.3-5.3-0.3-8c0-2.9,0.1-5.8,0.4-8.7c0.3-3,0.6-6,1.2-8.9c0.6-3.4,1.4-6.7,2.3-10c1-3.4,2.1-6.8,3.4-10.1
					c1-2.5,2-5.1,3.3-7.5c1.2-2.3,2.2-4.7,3.6-6.8c2.2-3.2,4-6.8,6.7-9.8c1.3-1.4,2.4-3,3.6-4.5c2.5-3.1,5.2-5.9,8.1-8.6
					c2.3-2.2,4.8-4.2,7.3-6.1c2.3-1.8,4.8-3.6,7.2-5.2c2.9-1.9,5.9-3.6,9-5.2c2.8-1.4,5.6-2.7,8.5-3.9c3.2-1.3,6.5-2.4,9.8-3.4
					c2.2-0.7,4.4-1.2,6.6-1.7c3.7-0.8,7.5-1.4,11.3-1.8C279.3,122.9,280.7,122.6,282,122.7z M386.1,220.4
					c-1.8-24.9-10.9-46-28.1-63.4c-19.8-20-44.1-29.7-72.1-29.1c-24.7,0.5-46.2,9.5-64.2,26.4c-21.3,20.1-31.5,45.1-30.8,74.2
					c0.7,25.8,10.5,48.1,28.8,66.2c21.7,21.4,48.2,30.6,78.5,27.9c23-2.1,42.8-11.6,59-27.9C377.9,274.1,387.2,248.9,386.1,220.4z"
					/>
				<path class="st1" d="M386.1,220.4c1.1,28.5-8.2,53.8-28.8,74.4c-16.2,16.3-36,25.8-59,27.9c-30.3,2.8-56.8-6.5-78.5-27.9
					c-18.3-18.1-28.2-40.4-28.8-66.2c-0.7-29.1,9.5-54.2,30.8-74.2c17.9-16.9,39.5-25.9,64.2-26.4c28.1-0.6,52.3,9.1,72.1,29.1
					C375.2,174.3,384.3,195.5,386.1,220.4z M267.4,262.4c0.9,0.2,1.3-0.2,1.8-0.9c1.4-1.8,2.7-3.7,4.7-5c1.9-1.2,3.5-2.7,5.3-4
					c0.1-0.1,0.3-0.1,0.2-0.2c-0.1-1,0.7-1.8,0.8-2.7c0.1-0.5,0.3-0.7,0.8-0.7c0.8-0.1,1.5-0.3,2.1-1.1c0.9-1.4,2.1-2.5,3-3.9
					c0.2-0.3,0.4-0.3,0.6-0.4c1.4-0.6,2.8-0.9,4.2-1.5c1.5-0.6,3-1.2,4.6-1.5c0.8-0.1,1.2-0.6,1.5-1.3c0.4-0.9,1.6-1.7,2.5-1.4
					c1.1,0.3,1.8-0.1,2.6-0.7c0.4-0.3,0.7-0.4,1.1-0.2c1,0.4,1.9,0.6,3,0.1c0.4-0.2,0.9-0.3,1.3-0.3c0.5-0.1,1.2,0,1.4-0.8
					c0.3-1.1,0.9-1.5,2-1.8c1.3-0.3,2.9,0.1,3.8-1.3c0.4-0.5,0.9-0.5,1.6-0.2c0.6,0.3,1.4,0.7,2.2,0.5c0.7-0.2,1.4-0.4,2.1-0.6
					c2.6-0.8,5.3-1.3,8-1.2c0.7,0,0.9-0.3,0.9-0.9c-0.2-1.7,0.1-3.5,0.1-5.2c0.1-2.5,0-5-0.2-7.5c-0.1-1.5-0.2-1.5-1.6-1.5
					c-0.1,0-0.1,0-0.2,0c-1.7-0.4-3.5-0.1-5.3-0.1c-1.3,0-2.6,0.5-3.9,0.8c-0.8,0.2-1.5,0.3-2.3,0.1c-0.9-0.3-1.9-0.3-2.9-0.4
					c-0.9-0.1-1.8-0.1-2.6-0.6c-0.1-0.1-0.3-0.1-0.4,0c-1.2,1-2.8,1.2-3.9,2.3c-0.4,0.4-0.8,0.4-1.4,0.4c-1.3-0.1-2.6-0.2-3.8,0.5
					c-1.4,0.8-2.7,1.6-4.2,2.3c-1,0.4-2.1,0.3-2.9,1c0,0-0.1,0-0.2,0c-0.9-0.3-1.9-0.1-2.8-0.7c-0.4-0.2-0.9-0.3-1.2,0.2
					c-0.6,0.7-1.3,1.3-2,1.9c-2,1.9-4.2,3.7-6.3,5.6c-0.3,0.2-0.6,0.4-0.9,0.4c-1.3,0-2.6,0.3-3.9,0.2c-0.2,0-0.5,0-0.7,0.2
					c-1.4,0.8-3,1.3-4.4,1.9c-0.6,0.2-1.2,0.6-1.8,0.5c-1.5-0.3-2.9-0.5-4.4-0.8c-0.3-0.1-0.6-0.1-0.9,0.2c-0.6,0.6-1.3,1.1-1.9,1.7
					c-0.6,0.6-1.3,0.7-2,0.5c-0.8-0.2-1.6-0.1-2.1,0.2c-1.9,1.2-4,2-5.9,3.3c-0.3,0.2-0.7,0.4-1,0.6c-0.7,0.4-1.6,0.7-2.1,1.5
					c-1.3,2.2-2.5,4.5-3.7,6.8c-0.1,0.2-0.3,0.2-0.4,0.2c-0.9,0-1.9,0.2-2.7,0c-1.4-0.4-2.2,0.3-3.1,1.1c-0.4,0.3-0.4,0.6-0.1,1
					c0.7,1.2,1.5,2.4,2.1,3.7c0.8,2,1.9,3.7,3.2,5.3c0.1,0.2,0.3,0.3,0.3,0.5c0.2,0.5,0.5,0.8,1,0.9c2.3,0.7,4.2,2.2,6.3,3.3
					c0.3,0.1,0.5,0.1,0.6,0c1-0.6,1.9-0.5,2.9,0c1.8,0.9,3.5,0.9,5.3-0.1c0.3-0.2,0.6-0.3,0.9-0.2C264,262.6,265.7,262,267.4,262.4z
					 M234.4,226.4c1.8-1.5,3.6-2.9,5.4-4.3c1.3-1.1,2.6-2.2,4-3.3c1.5-1.1,3.3-1.6,5.2-1.3c0.6,0.1,1.1,0,1.6-0.5
					c1.1-1.2,2.4-1.5,3.9-1.2c1.1,0.2,2.2-0.1,3.3,0c0.2,0,0.3-0.1,0.5-0.2c0.7-0.6,1.5-0.9,2.3-1.3c1.2-0.5,2.3-1.4,3.7-0.9
					c0.8,0.3,1.7,0.3,2.5,0.3c0.9,0.1,1.8,0.3,2.7,0.6c0.9,0.3,2,0.3,2.8-0.2c1.5-0.9,2.8-2.1,4.1-3.2c1.2-1,2.3-1.4,3.8-1.3
					c0.7,0,1.4-0.3,2,0.1c1.1,0.8,2.3,1,3.7,0.8c1.2-0.2,2.3,0,2.9,1.2c0.1,0.2,0.2,0.3,0.4,0.3c1.1,0,2.3,0.2,3.4,0.2
					c1.2,0,2.3,0.1,3.4,0.3c0.2,0,0.4,0.1,0.7,0c1.2-0.4,2.5-0.8,3.6-1.2c1.6-0.7,3.4-0.8,5-1.4c0.2-0.1,0.5-0.3,0.7,0
					c0.5,0.5,1.2,0.7,1.7,1.1c0.8,0.6,1.4,0.5,2.2,0.1c0.5-0.3,1-0.3,1.6,0.1c0.5,0.4,1.2,0.5,1.8,0.6c1.2,0.3,2.4,0.5,3.4,1.2
					c0.3,0.2,0.6,0.3,1,0.4c1.6,0.2,3.3,0.1,4.9,0.1c1.9,0,3.8,0.3,5.7,0.1c0.3,0,0.7,0.1,0.7-0.5c-0.1-1.6-0.5-3.1-0.9-4.7
					c-0.5-2.2-1.1-4.3-1.8-6.4c-0.3-0.9-0.7-1.4-1.8-1.3c-0.3,0.1-0.7,0.1-1,0c-2-0.3-4.1-0.4-6-1.1c-1.7-0.6-3.4-0.9-4.9-2
					c-0.7-0.5-1.4-0.7-2.2-0.8c-0.9-0.1-2,0-2.7-0.7c-0.9-0.7-1.8-1.3-2.4-2.3c-0.3-0.4-0.6-0.6-1.1-0.7c-1.1-0.1-2.1-0.7-3.3-0.7
					c-0.8,0-1.5-0.4-2.2-0.8c-0.2-0.1-0.5-0.3-0.7-0.3c-1.6,0.1-3.2-0.4-4.9-0.3c-0.6,0-1.2,0-1.8-0.2c-0.6-0.2-1.2-0.3-1.8-0.1
					c-0.7,0.3-1.4,0.2-2,0.1c-1.1-0.2-2.1-0.3-3.1,0.3c-1,0.5-2,1-3,1.4c-0.6,0.2-1.2,0.8-1.9,0.6c-2.2-0.3-4.5-0.8-6.8-0.9
					c-0.2,0-0.4-0.2-0.6-0.2c-0.6,0-1.1-0.6-1.8-0.2c-1.9,1.2-3.9,2.2-5.6,3.6c-0.7,0.6-1.3,0.5-1.9-0.1c-0.5-0.5-1.2-0.9-2-0.7
					c-2,0.5-3.9,0.2-5.7-0.4c-0.4-0.1-0.7,0-1.1,0.2c-1,0.4-1.8,1.1-2.7,1.6c-2.4,1.4-4.8,2.7-7.3,4c-1.4,0.8-2.8,1.8-4.3,2.4
					c-0.2,0.1-0.4,0.2-0.4,0.5c-0.4,1.5-1.2,2.8-1.6,4.3c-0.7,2.1-1.2,4.2-1.8,6.3c-0.4,1.2-0.5,2.6-0.7,3.8
					C234.7,220.5,234.1,223.3,234.4,226.4z M275.8,279.2c0.5,0.2,0.7,0.5,1.1,0.6c1.6,0.2,3.1,0.5,4.7,0.7c2,0.2,3.9,0.4,5.9,0.2
					c3.2-0.2,6.3-0.5,9.3-1.5c2.2-0.7,4.3-1.7,6.2-3c1.5-1,3-1.9,4.3-3.1c1-0.8,1.9-1.7,2.9-2.6c0.9-0.7,1.8-1.4,2.5-2.2
					c2.3-2.4,4.1-5.2,6.1-7.8c1.8-2.4,2.9-5.2,4.4-7.8c1.1-1.9,1.5-4,2.3-6c1.2-2.9,1.8-6,2.6-9c0.3-1.1,0.3-2.3,0.8-3.4
					c0.2-0.5-0.1-0.9-0.7-0.8c-1.7,0.2-3.5,0.1-5.2,0.6c-1.4,0.4-2.7,1-4.1,1.4c-1.1,0.3-2,0.8-2.8,1.5c-0.1,0.1-0.4,0.3-0.5,0.3
					c-1-0.1-1.9,0.5-2.9,0.5c-0.6,0-1,0.4-1.3,0.9c-0.7,1.1-1.4,2.4-2.5,3c-1.4,0.7-2.8,1.5-4.4,2.1c-0.9,0.3-1.9,0.8-2.2,1.7
					c-0.7,1.7-1.8,3.1-2.2,4.9c-0.1,0.4-0.4,0.8-0.5,1.2c-0.5,1.3-1.5,2.6-1.2,4.2c0,0.1,0.1,0.2-0.1,0.3c-1.1,0.4-2.1,0.8-3.2,1
					c-0.4,0.1-0.6,0.2-0.6,0.5c-0.4,1.2-0.7,2.5-1.5,3.5c-0.2,0.3-0.3,0.7-0.4,1.2c-0.2,1.2-0.4,2.4-1.3,3.4
					c-1.1,1.2-2.2,2.3-3.2,3.5c-1.1,1.3-2.2,2.6-3.2,3.9c-0.3,0.4-0.7,0.6-1.1,0.8c-1.1,0.5-2.5,0.7-2.2,2.4c0,0.2,0,0.3-0.2,0.3
					c-0.9,0.3-1.7,0.9-2.6,1.1C277.8,278,276.9,278.6,275.8,279.2z M257.8,180.3c0.7,0,1.2,0,1.6-0.1c1.5-0.4,3-0.7,4.5-1.1
					c2.5-0.6,5-1.2,7.5-1.7c0.4-0.1,0.8-0.2,1.3-0.2c2.9,0.3,5.6,1.2,8.5,1.5c0.9,0.1,2,0.2,2.6,0.7c0.9,0.7,1.8,1.3,2.3,2.4
					c0.2,0.4,0.6,0.6,1.1,0.6c2,0.2,3.9,0.5,5.9,0.8c0.3,0,0.6,0.2,0.9,0.4c1.7,1.3,3.7,2.4,5.5,3.6c0.8,0.5,1.6,0.7,2.4,0.4
					c0.5-0.2,1-0.3,1.5,0c1.1,0.6,2.6,0.8,3.2,2.2c0,0.1,0.2,0.2,0.3,0.2c1.2,0.1,1.6,1.1,2.1,1.9c0.5,0.6,0.9,1.2,1.8,1.4
					c1.1,0.2,1.9,0.7,2.3,1.8c0.1,0.2,0.2,0.4,0.4,0.5c1.1,0.6,2.2,1.2,3.4,1.6c2.2,0.8,4.5,1.2,6.8,1.3c1,0,1.1-0.1,0.7-1
					c-0.9-2-2.1-4-3.1-5.9c-0.7-1.2-1.4-2.3-2.2-3.4c-1.5-2.2-3.2-4.2-4.9-6.2c-1.7-1.9-3.8-3.3-5.8-4.8c-3-2.4-6.4-4-10.1-5.2
					c-0.9-0.3-1.9-0.6-2.9-0.8c-2.1-0.5-4.2-0.8-6.3-0.6c-0.6,0.1-1.2,0-1.8-0.1c-2-0.4-3.9,0.2-5.8,0.4c-1.7,0.2-3.4,0.8-5,1.4
					c-1.6,0.6-3.3,0.8-4.9,1.4c-2.1,0.8-4,1.9-6.2,2.6c-1.5,0.5-2.7,1.4-4.1,2.1C260.2,178.7,259.2,179.6,257.8,180.3z M302.5,279.1
					c0.4,0.3,0.8,0.1,1.2,0.1c1.6-0.1,3-0.9,4.5-1.4c2.1-0.6,4.1-1.5,6-2.5c2.8-1.5,5.7-2.8,8.1-4.9c2.6-2.1,5.2-4.3,7.6-6.6
					c3.2-3.2,5.6-6.9,7.9-10.6c1.8-2.9,3-6.1,4.2-9.3c0.1-0.2,0.2-0.3,0.1-0.5c-0.4-1-0.6-2.1-1.3-3c-0.7-1-1.6-1.8-2.4-2.7
					c-1.6-1.6-3.6-2.6-5.6-3.5c-0.8-0.4-1.2-0.2-1.3,0.8c-0.7,3.5-1.2,7-2.5,10.3c-0.7,1.8-0.9,3.8-2,5.4c-0.7,1.1-1,2.5-1.5,3.8
					c-0.9,2.1-2.4,3.9-3.4,6c-0.5,1-1,1.9-1.7,2.7c-1.6,1.7-3,3.6-4.4,5.4c-1.9,2.4-4.2,4.3-6.6,6.1c-0.8,0.6-1.6,1.5-2.6,1.9
					C305.3,277.3,304.2,278.8,302.5,279.1z M326.1,156.5c-0.4,2-0.1,4-0.4,6c-0.2,2.3-0.2,4.5-0.3,6.8c0,0.6-0.1,1.1-0.1,1.6
					c-0.1,0.6-0.4,1.4,0.2,2c1,0.8,2.1,1.4,3.3,1.9c0.3,0.2,0.5,0.2,0.7-0.2c1.4-2.8,3.1-5.5,4.6-8.3c1.4-2.7,3.1-5.3,4.6-8.1
					c0.9-1.8,1.9-3.5,2.9-5.1c0.2-0.3,0.4-0.5-0.1-0.8c-1.2-0.6-2.4-1.3-3.6-1.9c-0.4-0.2-0.5-0.1-0.7,0.3c-1.5,2.7-3,5.4-4.5,8.1
					c-0.5,0.9-1,1.9-1.5,2.8c-0.1-1.6,0.2-3.1,0.3-4.7c0.2-2.4,0.7-4.9,0.7-7.3c0-0.2,0.1-0.4,0.2-0.6c0.4-1.3,0.2-1.6-0.9-2.3
					c-1.2-0.7-2.6-1.2-3.7-2.2c-0.2-0.2-0.4-0.1-0.5,0.1c-0.8,1.1-1.4,2.2-2,3.4c-1.4,2.8-3.2,5.3-4.6,8.1c-1.8,3.4-3.9,6.6-5.6,10
					c-0.3,0.5-0.1,0.7,0.3,1c1.2,0.6,2.5,1.1,3.5,1.9C321.3,164.9,323.4,160.5,326.1,156.5z M348,199.5c0.3,0.8,0.5,1.8,0.8,2.6
					c0.8,1.8,1.3,3.6,1.9,5.5c0.1,0.5,0.3,0.9,0.9,1.1c1.2,0.5,2.4,1.1,3.6,1.7c0.2,0.1,0.4,0.2,0.7,0.1c3.3-1.3,6.6-2.3,10-3.4
					c1.7-0.5,3.3-1.2,5-1.8c0.2-0.1,0.5-0.1,0.7-0.2c0.7-0.2,1.6-0.2,2-1c0.6-1.3,1.2-2.6,1.8-3.9c0.1-0.3,0-0.4-0.1-0.6
					c-0.6-1.8-1.3-3.6-1.9-5.5c0-0.1,0-0.3-0.1-0.4c-0.4-1.5-0.8-3-2.6-3.4c-0.7-0.2-1.4-0.6-2.1-0.9c-0.3-0.1-0.5-0.1-0.8,0
					c-1.5,0.2-2.9,0.9-4.2,1.4c-3.9,1.4-8,2.6-11.9,4.1c-0.4,0.2-1,0-1.2,0.4C349.4,196.4,348.7,197.9,348,199.5z M307.1,313.3
					c0.1,0,0.4,0,0.6-0.1c1.6-0.6,3.3-0.9,5-1.4c0.4-0.1,0.9-0.2,1.4-0.3c1-0.2,2-0.3,2.5-1.5c0.4-1,1-1.9,1.5-2.9
					c0.1-0.2,0.1-0.4,0-0.6c-0.1-1.5-0.7-2.9-1-4.4c-0.4-2.3-1.2-4.6-1.7-6.9c-0.4-1.8-1-3.6-1.4-5.3c-0.1-0.3-0.2-0.5-0.1-0.8
					c0.1-0.5-0.2-0.7-0.6-0.9c-1-0.6-2.1-1.1-3-1.7c-0.6-0.4-1-0.5-1.6-0.3c-1.8,0.5-3.6,1.2-5.4,1.4c-2,0.3-3.7,0.8-4.3,2.9
					c-0.1,0.3-0.3,0.7-0.5,0.9c-0.7,0.8-0.5,1.7-0.3,2.5c0.6,1.8,0.8,3.7,1.5,5.5c0,0.1,0.1,0.2,0.1,0.3c0.3,1.9,0.9,3.7,1.3,5.6
					c0.4,1.7,1,3.4,1.2,5.1c0,0.3,0.2,0.5,0.5,0.6c0.9,0.5,1.8,1,2.7,1.5C306,312.9,306.4,313.3,307.1,313.3z M289.7,156.5
					c-0.5,1.2,0.2,2.4,1.3,3.5c0.3,0.3,0.6,0.7,0.8,1.1c0.4,0.7,1,1,1.8,1.1c2.5,0,5,0.7,7.5,0.7c0.1,0,0.3,0,0.3,0
					c0.4,0.4,0.6,0.1,0.9-0.2c0.8-0.6,1.5-1.3,2.4-1.8c0.4-0.3,1-0.5,1-1.1c0-0.8,0.2-1.7,0.3-2.5c0.2-2,0.5-4,0.7-6
					c0.2-2.2,0.6-4.3,0.7-6.5c0-0.2,0.1-0.3,0.1-0.5c0.2-1.4,0.7-2.8-0.4-4c-0.7-0.8-1.5-1.6-2-2.6c-0.1-0.2-0.3-0.2-0.5-0.2
					c-2.2-0.1-4.4-0.6-6.6-0.7c-0.4,0-0.7-0.1-1.1-0.2c-0.5-0.1-1.1-0.4-1.6,0c-1.1,0.8-2.1,1.7-3.2,2.5c-0.3,0.2-0.3,0.4-0.4,0.7
					c-0.5,1.9-0.5,3.9-0.7,5.8C290.5,149.1,290.1,152.6,289.7,156.5z M239.4,153.5L239.4,153.5c-0.2,0-0.3,0-0.4,0
					c-1.4-0.4-2.3,0.2-3.4,1.1c-1.7,1.6-3.6,2.9-5.4,4.5c-0.2,0.2-0.4,0.2-0.4,0.6c0,1.3-0.4,2.5-0.4,3.8c0,0.4,0,0.7,0.3,1
					c1.3,1.6,2.6,3.2,3.9,4.8c2.4,3,4.8,6,7.2,9c0.4,0.5,0.8,0.6,1.4,0.7c1.1,0,2.2,0,3.2,0.3c0.6,0.1,1,0,1.4-0.4
					c1.4-1.2,2.9-2.3,4.2-3.5c1.3-1.1,3.1-2,2.6-4.3c0-0.1,0.1-0.3,0.1-0.4c0-0.8,0.5-1.7-0.1-2.4c-1-1.3-2-2.6-3-3.9
					c-1.8-2.2-3.6-4.3-5.4-6.6c-0.7-0.9-1.6-1.7-2.2-2.7c-0.7-1.1-1.5-1.6-2.7-1.5C240,153.6,239.7,153.5,239.4,153.5z M275.5,150.6
					c-0.2-0.6-0.2-1.3-0.4-2c-0.7-1.9-1.2-3.9-1.7-5.9c-0.1-0.5-0.2-1-0.6-1.3c-1.3-0.9-2.7-1.7-4.1-2.4c-0.2-0.1-0.4,0-0.7,0.1
					c-1.4,0.4-2.8,0.9-4.2,1.3c-2.2,0.6-4.2,1.3-6.3,2c-0.3,0.1-0.3,0.2-0.3,0.6c0.3,1.6,0.9,3.1,1.3,4.7c0.5,2.1,1.3,4.1,1.9,6.2
					c0.7,2.5,1.5,4.9,2.2,7.3c0.6,1.8,1.1,3.7,1.6,5.5c0.1,0.3,0.2,0.5,0.5,0.3c1.3-0.5,2.7-0.9,4-1.2c0.4-0.1,0.4-0.3,0.3-0.6
					c-0.7-2.1-1.3-4.3-2-6.4c-0.4-1.3-0.4-1.3,0.9-1.7c0.8-0.3,1.4-0.3,2,0.5c1.5,2,3.1,4,4.7,5.9c0.1,0.2,0.3,0.5,0.6,0.3
					c1.4-0.6,3-0.8,4.4-1.5c0.5-0.2,0.5-0.4,0.2-0.8c-1.8-2.2-3.6-4.3-5.5-6.5c-0.3-0.4-0.4-0.6-0.2-1.1
					C274.7,152.8,275.1,151.7,275.5,150.6z M209.4,265.9c2.1-2,4.1-3.9,6.2-5.9c0.7-0.6,1.3-0.9,2.2-0.5c0.8,0.4,1.8,0.5,2.6,0.8
					c0.3,0.1,0.5,0.1,0.8,0c2.5-1.2,5.2-2.1,7.8-3.1c0.5-0.2,0.8-0.5,1-1c0.5-1.1,0.8-2.4,1.6-3.4c0.2-0.2,0.1-0.4,0-0.6
					c-0.5-1-0.8-2.1-1.2-3.2c-0.7-1.6-1.2-3.3-2-4.9c-0.4-0.7-0.5-1.6-0.9-2.4c-0.2-0.4-0.3-0.4-0.7-0.3c-1.5,0.3-2.8,1.2-4.2,1.6
					c-2.1,0.7-4.2,1.5-6.3,2.3s-4.3,1.7-6.4,2.5c-1.9,0.7-3.8,1.5-5.7,2.2c-0.5,0.2-0.7,0.5-0.5,1c0.5,1.2,1,2.4,1.3,3.6
					c0.1,0.2,0.1,0.4,0.5,0.3c2-0.8,4-1.5,6-2.3c1.6-0.7,1.6-0.8,2.3,0.8c0.4,0.8,0.3,1.3-0.5,1.8c-2.1,1.5-3.7,3.5-5.6,5.1
					c-0.2,0.2-0.4,0.3-0.3,0.7C208.2,262.6,208.5,264.3,209.4,265.9z M347.8,294.2c-1.6-1-3.1-2-4.6-3c-1.1-0.7-2.2-1.5-3.2-2.3
					c-0.2-0.1-0.4-0.2-0.4-0.5c0.1-1.2-0.1-2.3,0.2-3.4c0.1-0.4,0.1-0.6-0.1-0.9c-0.9-1.3-1.9-2.7-2.7-4c-0.6-1-1.4-2-2-3
					c-0.3-0.5-0.6-0.6-1-0.7c-1.4-0.3-2.8-0.3-4.1-0.8c-0.2-0.1-0.4,0.1-0.6,0.2c-1.2,0.8-2.4,1.7-3.7,2.5c-1.8,1.2-3.6,2.4-5.4,3.6
					c-0.2,0.1-0.6,0.2-0.3,0.7c1.1,1.7,2.2,3.4,3.4,5.1c1.4,2.1,2.9,4.1,4.3,6.3c0.7,1,1.4,2,2,3c1.4,2.1,2.8,4.2,4.1,6.3
					c0.2,0.3,0.4,0.3,0.7,0.1c1.2-0.6,2.1-1.6,3.3-2.3c0.4-0.2,0.1-0.4,0-0.5c-1.3-2-2.6-4-4-5.9c-0.3-0.5-0.4-0.8,0.2-1.1
					c0.2-0.1,0.4-0.3,0.6-0.5c0.6-0.5,1-0.5,1.7-0.1c2.2,1.5,4.5,2.7,6.5,4.4c0.2,0.2,0.4,0.2,0.6,0.1
					C344.8,296,346.4,295.3,347.8,294.2z M357,279.7c1.3,0.1,2.4-0.6,3.6-0.6c0.8,0,1-0.4,1.4-0.9c1.4-2,2.6-4.2,4.1-6.1
					c0.4-0.5,0.8-1.1,0.6-1.9c-0.3-0.8-0.4-1.6-0.4-2.4c0-0.6,0-1.3-0.6-1.7c-0.8-0.5-1.5-1-2.3-1.5c-1.3-0.8-2.6-1.6-3.8-2.6
					c-0.5-0.4-1-0.6-1.7-0.4c-0.8,0.2-1.6,0.4-2.5,0.4c-0.6,0-1.3,0-1.8,0.6c-1,1.5-2,2.9-3,4.4c-0.7,1-1.7,1.2-2.6,0.5
					c-0.4-0.3-0.9-0.7-1.2-1.1c-0.3-0.4-0.6-1-0.3-1.6c0.5-0.8,0.9-1.6,1.5-2.3c0.8-1.1,0.9-1.1,2-0.4c0.4,0.2,0.6,0.3,0.9-0.2
					c0.7-1.2,1.5-2.3,2.3-3.4c0.3-0.5,0.2-0.7-0.2-1c-0.7-0.4-1.5-0.8-2.1-1.4c-0.5-0.5-0.8-0.5-1.4-0.4c-1,0.2-1.9,0.5-3,0.5
					c-0.6,0-1.2,0.1-1.6,0.7c-1.5,2.4-3.1,4.7-4.7,7.1c-0.3,0.4-0.3,0.7-0.2,1.1c0.2,1,0.6,2,0.6,3.1c0,0.5,0.2,1,0.7,1.4
					c2.1,1.3,4.2,2.7,6.3,4c0.6,0.4,1.2,0.4,1.8,0.3c1.1-0.2,2.1-0.6,3.2-0.5c0.4,0,0.6-0.3,0.8-0.6c0.8-1.4,1.7-2.7,2.5-4
					c0.2-0.3,0.4-0.6,0.7-0.8c0.9-0.4,2.5,0,3.1,0.8c0.5,0.5,0.4,1.8-0.2,2.7c-0.3,0.4-0.6,0.8-0.9,1.2c-1.1,1.6-1.1,1.6-2.6,0.4
					c-0.3-0.2-0.4-0.2-0.5,0.1c-0.8,1.3-1.7,2.6-2.5,3.8c-0.2,0.3-0.1,0.4,0.1,0.7c0.9,0.7,1.9,1.2,2.8,1.8
					C356.5,279.7,356.8,279.8,357,279.7z M229.2,292.8c1.1-1.4,1.8-2.8,2.8-4.1c1.8-2.6,3.4-5.4,5.1-8c2-3,3.8-6.2,5.9-9.2
					c0.9-1.4,0.9-1.4-0.2-2.7c-0.1-0.1-0.2-0.3-0.3-0.4c-0.7-0.8-1.4-1.7-2.2-2.3c-0.4-0.3-1.3,0.6-2,0.9c-0.2,0.1-0.5,0.1-0.7,0.2
					c-2.3,1.2-4.7,2.1-7.1,3.2c-1.6,0.8-3.2,1.5-4.9,2.2c-3.2,1.3-6.2,2.8-9.4,4.2c-0.6,0.3-0.6,0.6-0.2,1c0.9,1.1,1.8,2.1,2.7,3.2
					c0.3,0.3,0.5,0.3,0.8,0.2c1.1-0.4,2.1-0.9,3.1-1.4c0.1-0.1,0.3-0.3,0.5,0c1.4,1.6,2.8,3.2,4.2,4.9c0.4,0.4,0.4,0.9,0,1.4
					c-0.5,0.7-0.9,1.6-1.5,2.3c-0.2,0.2-0.3,0.5-0.1,0.8C227,290.3,228.3,291.3,229.2,292.8z M257.1,298.8c0.7-0.1,1.3-0.4,1.9-0.6
					c0.7-0.2,1.7-0.3,2.1-1c1.5-2.5,2.8-5,4.2-7.5c0.1-0.2,0.2-0.4,0.1-0.7c-0.3-1.2-0.7-2.5-1-3.7c-0.2-0.7-0.6-1.2-1.3-1.5
					c-0.8-0.4-1.6-0.8-2.4-1.2c-2.2-1-4.2-2.4-6.3-3.6c-0.2-0.1-0.5-0.3-0.6,0.1c-0.4,1.2-1.4,2.2-2,3.3c-1.3,2.4-2.7,4.8-4,7.3
					c-2,3.7-4.2,7.3-6.1,11.1c-0.2,0.5-0.2,0.7,0.3,0.9c1.1,0.5,2.1,1.1,3.2,1.7c0.2,0.1,0.4,0.2,0.6-0.1c0.4-0.6,0.8-1.2,1.2-1.9
					c1-1.9,2-3.7,3-5.6c0.2-0.5,0.5-0.5,0.9-0.3c1.8,0.9,3.4,2.1,5.3,3C256.5,298.5,256.8,298.6,257.1,298.8z M343.3,240.4
					c0.4-1.5,0.7-2.8,1-4.2c0.6-2.9,1-5.9,1.1-8.9c0-2.2,0-4.4-0.3-6.5c-0.1-0.8-0.5-1.4-1.2-1.6c-1.9-0.7-3.7-1.8-5.7-2
					c-1.7-0.2-3.3-0.8-5.1-0.8c-0.6,0-1,0-1,0.8c-0.1,1.8,0.2,3.5,0.3,5.3c0.1,2.5-0.2,4.9-0.2,7.3c0,0.3-0.2,0.6-0.2,0.8
					c-0.1,0.6,0,1,0.6,1.2c2.1,0.7,4,1.4,5.7,2.9c1.5,1.2,2.8,2.5,3.8,4.1C342.5,239.3,342.7,239.9,343.3,240.4z M344.6,217.1
					c-0.4-2.4-0.7-4.6-1.5-6.7c-0.5-1.2-0.9-2.4-1.2-3.7c-0.4-1.8-1.4-3.3-2-5c-0.4-1.1-1.2-2.1-1.9-3.1c-0.6-0.9-1-2-1.6-2.9
					c-0.5-0.7-0.8-0.5-1.2,0c-0.5,0.7-1,1.5-1.8,2c-1.4,1-2.8,1.8-4.4,2.4c-0.7,0.3-0.8,0.7-0.5,1.3c0.1,0.4,0.3,0.7,0.4,1.1
					c0.6,1.5,1.1,3.1,1.5,4.6c0.5,2,0.8,4,1.1,6c0.1,0.4,0.1,0.7,0.6,0.7c0.8,0,1.6,0.2,2.4,0.3c1.6,0.2,3.1,0.3,4.6,0.9
					C340.9,215.6,342.7,216,344.6,217.1z M283.6,307c0.6-2.4,0.4-5,0.8-7.4c0.3-1.4,0.1-2.9,0.5-4.3c0.1-0.4,0.2-0.5,0.6-0.5
					c1.1,0.2,2.3,0,3.4,0.4c0.5,0.2,0.7,0,0.8-0.6c0-1.1,0.1-2.2,0.3-3.2c0.3-1.5,0.2-1.5-1.3-1.8c-0.3,0-0.6-0.2-0.9-0.2
					c-2.4-0.1-4.8-0.5-7.1-0.7c-1.5-0.1-3-0.4-4.6-0.5c-0.4,0-0.6-0.1-0.6,0.4c0,1.4-0.3,2.7-0.4,4c-0.1,1,0,1.1,1.1,1.2
					c1,0,2,0.1,2.9,0.1c0.4,0,0.5,0.1,0.5,0.5c0,0.8-0.3,1.6-0.4,2.4c-0.2,2.9-0.6,5.7-0.8,8.5c-0.2,2.2-0.6,4.4-0.7,6.7
					c0,0.6,0,1.1-0.2,1.7c-0.2,0.3,0.1,0.4,0.3,0.4c1.6,0.1,3.1,0.4,4.7,0.4c0.2,0,0.5,0,0.4-0.3c0-0.4,0.2-0.8,0.3-1.2
					C283.2,311.1,283.4,309.1,283.6,307z M221.3,176.9c0.1-0.3-0.2-0.3-0.4-0.4c-1.2-0.9-2.8-1.4-3.9-2.4c-0.2-0.2-0.4-0.1-0.5,0.2
					c-0.6,1.2-1.4,2.3-2.1,3.4c-1.1,1.6-2.1,3.4-3,5.1c-0.6,1.1-1.4,2.2-2.1,3.3c-0.2,0.2-0.4,0.5,0.1,0.7c1.4,0.7,2.8,1.6,4,2.5
					c0.4,0.3,0.6,0.2,0.8-0.2c0.5-1,1.2-2,1.7-3c0.3-0.6,0.5-0.6,1-0.3c1,0.6,2.1,1.3,3.1,1.9c2.9,1.8,6,3.4,8.9,5.2
					c1.4,0.9,2.8,1.6,4.2,2.4c0.3,0.2,0.5,0.2,0.8-0.2c0.7-1.2,1.5-2.5,2.3-3.7c0.2-0.3,0.2-0.5-0.2-0.7c-1.7-0.8-3.2-2.1-4.9-3
					c-2.8-1.4-5.3-3.2-8-4.7c-1.2-0.7-2.4-1.4-3.6-2.1c-0.3-0.2-0.4-0.3-0.2-0.7c0.5-0.8,0.9-1.5,1.3-2.3
					C220.8,177.7,221,177.3,221.3,176.9z M363.3,174.5c-0.7-1.5-1.9-2.6-2.9-3.9c-1.9-2.5-3.8-4.9-5.8-7.4c-0.1-0.2-0.3-0.5-0.6-0.2
					c-1.3,1.1-2.5,2.1-3.8,3.2c-0.3,0.2-0.1,0.3,0,0.6c0.5,0.8,1.2,1.5,1.8,2.2c0.8,1,0.8,1-0.1,1.8c-2.5,2.1-5,4.1-7.5,6.1
					c-2.4,1.9-4.6,3.8-7,5.7c-0.3,0.2-0.2,0.3,0,0.4c1,1.2,1.9,2.3,2.9,3.5c0.3,0.4,0.5,0.3,0.9,0c1.6-1.4,3.3-2.7,5-4.1
					c2.2-1.8,4.3-3.6,6.6-5.4c1.1-0.8,2-1.8,3.1-2.5c0.3-0.2,0.3-0.3,0.6,0.1c0.7,1,1.6,1.7,2.2,2.8c0.2,0.3,0.4,0.5,0.8,0.2
					C360.7,176.5,362.2,175.6,363.3,174.5z M305.7,173.1c0.1,0.2,0.3,0.3,0.4,0.4c1.5,0.8,2.9,1.5,4.4,2.4c3,1.9,5.4,4.5,7.7,7.2
					c1.8,2,3.3,4.3,4.8,6.6c1.6,2.5,3,5.1,4.3,7.8c0.2,0.4,0.4,0.5,0.8,0.4c2.5-0.5,4.3-2,5.6-4.1c0.2-0.3,0.3-0.6,0.1-1
					c-0.3-1-0.8-1.8-1.5-2.5c-1-1-2-2-3-3c-1-1.1-1.9-2.3-3-3.2c-2.8-2.3-5.9-4.2-8.9-6.2c-1.2-0.8-2.6-1.3-4-2
					c-2.1-1-4.1-2.3-6.5-2.7C306.5,173.1,306.2,172.8,305.7,173.1z"/>
				<path class="st0" d="M267.4,262.4c-1.7-0.4-3.5,0.2-5.2-0.2c-0.3-0.1-0.7,0-0.9,0.2c-1.7,1.1-3.5,1-5.3,0.1
					c-1-0.5-1.9-0.6-2.9,0c-0.2,0.1-0.4,0.2-0.6,0c-2.1-1.1-4-2.5-6.3-3.3c-0.5-0.2-0.8-0.4-1-0.9c-0.1-0.2-0.2-0.4-0.3-0.5
					c-1.3-1.6-2.4-3.4-3.2-5.3c-0.5-1.3-1.3-2.5-2.1-3.7c-0.3-0.4-0.3-0.7,0.1-1c0.9-0.8,1.8-1.4,3.1-1.1c0.9,0.2,1.8,0,2.7,0
					c0.2,0,0.3,0,0.4-0.2c1.2-2.3,2.4-4.6,3.7-6.8c0.4-0.8,1.3-1.1,2.1-1.5c0.3-0.2,0.7-0.3,1-0.6c1.9-1.3,4-2.1,5.9-3.3
					c0.5-0.3,1.4-0.5,2.1-0.2c0.7,0.2,1.4,0.1,2-0.5s1.3-1.1,1.9-1.7c0.3-0.3,0.6-0.2,0.9-0.2c1.5,0.3,2.9,0.5,4.4,0.8
					c0.7,0.1,1.3-0.2,1.8-0.5c1.5-0.7,3-1.1,4.4-1.9c0.2-0.1,0.5-0.2,0.7-0.2c1.3,0.2,2.6-0.2,3.9-0.2c0.4,0,0.7-0.1,0.9-0.4
					c2.1-1.9,4.3-3.7,6.3-5.6c0.7-0.6,1.4-1.2,2-1.9c0.3-0.5,0.8-0.4,1.2-0.2c0.9,0.5,1.9,0.3,2.8,0.7c0.1,0,0.1,0,0.2,0
					c0.8-0.7,1.9-0.5,2.9-1c1.4-0.7,2.8-1.4,4.2-2.3c1.1-0.7,2.5-0.6,3.8-0.5c0.5,0,1,0,1.4-0.4c1.1-1.1,2.7-1.3,3.9-2.3
					c0.1-0.1,0.3-0.1,0.4,0c0.8,0.5,1.7,0.5,2.6,0.6c1,0.1,1.9,0.1,2.9,0.4c0.7,0.2,1.5,0.2,2.3-0.1c1.3-0.4,2.6-0.8,3.9-0.8
					c1.7,0,3.5-0.3,5.3,0.1c0.1,0,0.1,0,0.2,0c1.5,0,1.5,0,1.6,1.5c0.2,2.5,0.3,5,0.2,7.5c-0.1,1.7-0.4,3.5-0.1,5.2
					c0.1,0.6-0.2,1-0.9,0.9c-2.8-0.2-5.4,0.4-8,1.2c-0.7,0.2-1.4,0.4-2.1,0.6c-0.8,0.2-1.5-0.2-2.2-0.5s-1.2-0.3-1.6,0.2
					c-1,1.4-2.5,1-3.8,1.3c-1.1,0.3-1.7,0.7-2,1.8c-0.2,0.7-0.9,0.7-1.4,0.8s-0.9,0.2-1.3,0.3c-1,0.5-2,0.3-3-0.1
					c-0.5-0.2-0.8-0.1-1.1,0.2c-0.8,0.6-1.5,1-2.6,0.7c-0.9-0.3-2.2,0.5-2.5,1.4c-0.3,0.7-0.6,1.2-1.5,1.3c-1.6,0.3-3.1,0.9-4.6,1.5
					c-1.4,0.6-2.9,0.9-4.2,1.5c-0.2,0.1-0.5,0.2-0.6,0.4c-0.9,1.4-2.1,2.5-3,3.9c-0.5,0.8-1.2,1.1-2.1,1.1c-0.5,0-0.8,0.2-0.8,0.7
					c-0.1,1-1,1.7-0.8,2.7c0,0.1-0.2,0.1-0.2,0.2c-1.8,1.3-3.4,2.8-5.3,4c-2,1.3-3.3,3.1-4.7,5C268.7,262.2,268.3,262.6,267.4,262.4
					z"/>
				<path class="st0" d="M234.4,226.4c-0.3-3,0.3-5.9,0.7-8.7c0.2-1.3,0.3-2.6,0.7-3.8c0.7-2.1,1.2-4.2,1.8-6.3
					c0.5-1.5,1.2-2.8,1.6-4.3c0.1-0.3,0.2-0.4,0.4-0.5c1.5-0.6,2.9-1.6,4.3-2.4c2.4-1.3,4.9-2.6,7.3-4c0.9-0.5,1.7-1.1,2.7-1.6
					c0.4-0.2,0.7-0.3,1.1-0.2c1.9,0.6,3.8,0.9,5.7,0.4c0.8-0.2,1.4,0.1,2,0.7c0.6,0.6,1.1,0.7,1.9,0.1c1.8-1.4,3.8-2.4,5.6-3.6
					c0.7-0.4,1.2,0.2,1.8,0.2c0.2,0,0.4,0.2,0.6,0.2c2.3,0,4.5,0.5,6.8,0.9c0.8,0.1,1.3-0.4,1.9-0.6c1.1-0.3,2.1-0.9,3-1.4
					c1-0.5,2-0.5,3.1-0.3c0.6,0.1,1.3,0.2,2-0.1c0.6-0.2,1.3-0.1,1.8,0.1c0.6,0.2,1.2,0.2,1.8,0.2c1.6-0.1,3.2,0.3,4.9,0.3
					c0.3,0,0.5,0.1,0.7,0.3c0.7,0.4,1.4,0.9,2.2,0.8c1.2-0.1,2.1,0.6,3.3,0.7c0.4,0,0.8,0.3,1.1,0.7c0.6,1,1.6,1.6,2.4,2.3
					c0.8,0.6,1.8,0.5,2.7,0.7c0.8,0.1,1.6,0.3,2.2,0.8c1.5,1,3.3,1.3,4.9,2c2,0.7,4,0.8,6,1.1c0.3,0.1,0.7,0,1,0
					c1-0.2,1.5,0.4,1.8,1.3c0.7,2.1,1.3,4.3,1.8,6.4c0.3,1.5,0.8,3.1,0.9,4.7c0,0.6-0.3,0.5-0.7,0.5c-1.9,0.2-3.8-0.1-5.7-0.1
					c-1.6,0-3.3,0.1-4.9-0.1c-0.4-0.1-0.7-0.2-1-0.4c-1-0.6-2.2-0.9-3.4-1.2c-0.6-0.1-1.3-0.3-1.8-0.6c-0.5-0.4-1-0.4-1.6-0.1
					c-0.7,0.4-1.4,0.6-2.2-0.1c-0.5-0.4-1.2-0.6-1.7-1.1c-0.2-0.3-0.5-0.1-0.7,0c-1.6,0.6-3.4,0.7-5,1.4c-1.2,0.5-2.4,0.8-3.6,1.2
					c-0.3,0.1-0.5,0-0.7,0c-1.1-0.2-2.3-0.3-3.4-0.3s-2.3-0.2-3.4-0.2c-0.2,0-0.4-0.1-0.4-0.3c-0.6-1.2-1.7-1.4-2.9-1.2
					c-1.3,0.2-2.6,0-3.7-0.8c-0.6-0.4-1.3-0.1-2-0.1c-1.4-0.1-2.6,0.3-3.8,1.3c-1.3,1.1-2.6,2.3-4.1,3.2c-0.9,0.5-1.9,0.6-2.8,0.2
					c-0.9-0.3-1.7-0.5-2.7-0.6c-0.8-0.1-1.7-0.1-2.5-0.3c-1.4-0.5-2.6,0.4-3.7,0.9c-0.8,0.3-1.6,0.7-2.3,1.3
					c-0.1,0.1-0.3,0.2-0.5,0.2c-1.1-0.2-2.2,0.2-3.3,0c-1.6-0.3-2.9,0-3.9,1.2c-0.5,0.5-1,0.6-1.6,0.5c-1.9-0.3-3.7,0.2-5.2,1.3
					c-1.4,1-2.6,2.2-4,3.3C238,223.5,236.3,224.9,234.4,226.4z"/>
				<path class="st0" d="M275.8,279.2c1.1-0.6,2-1.2,3.1-1.4c1-0.2,1.7-0.8,2.6-1.1c0.2-0.1,0.2-0.1,0.2-0.3c-0.4-1.8,1.1-2,2.2-2.4
					c0.5-0.2,0.8-0.4,1.1-0.8c1-1.3,2.1-2.6,3.2-3.9c1-1.2,2.1-2.3,3.2-3.5c0.9-1,1.1-2.2,1.3-3.4c0.1-0.4,0.1-0.8,0.4-1.2
					c0.8-1.1,1.2-2.3,1.5-3.5c0.1-0.3,0.3-0.4,0.6-0.5c1.1-0.2,2.1-0.7,3.2-1c0.2-0.1,0.1-0.2,0.1-0.3c-0.2-1.6,0.7-2.8,1.2-4.2
					c0.2-0.4,0.4-0.8,0.5-1.2c0.4-1.8,1.6-3.2,2.2-4.9c0.4-0.9,1.3-1.3,2.2-1.7c1.5-0.6,2.9-1.3,4.4-2.1c1.2-0.6,1.9-1.8,2.5-3
					c0.3-0.5,0.6-0.9,1.3-0.9c1-0.1,1.8-0.6,2.9-0.5c0.2,0,0.4-0.2,0.5-0.3c0.8-0.8,1.7-1.2,2.8-1.5c1.4-0.4,2.7-1,4.1-1.4
					c1.7-0.5,3.4-0.4,5.2-0.6c0.5-0.1,0.9,0.3,0.7,0.8c-0.5,1.1-0.5,2.3-0.8,3.4c-0.8,3-1.4,6.1-2.6,9c-0.8,2-1.3,4.1-2.3,6
					c-1.5,2.6-2.6,5.4-4.4,7.8c-2,2.6-3.8,5.4-6.1,7.8c-0.8,0.8-1.7,1.5-2.5,2.2c-1,0.8-1.9,1.7-2.9,2.6c-1.4,1.2-2.8,2.1-4.3,3.1
					c-1.9,1.2-4,2.3-6.2,3c-3,1-6.2,1.3-9.3,1.5c-2,0.1-4,0-5.9-0.2c-1.6-0.2-3.2-0.5-4.7-0.7C276.5,279.7,276.2,279.4,275.8,279.2z
					"/>
				<path class="st0" d="M257.8,180.3c1.4-0.7,2.3-1.6,3.6-2.2c1.4-0.6,2.6-1.6,4.1-2.1c2.1-0.7,4.1-1.8,6.2-2.6
					c1.6-0.6,3.3-0.8,4.9-1.4c1.6-0.7,3.3-1.2,5-1.4c1.9-0.2,3.8-0.9,5.8-0.4c0.6,0.1,1.2,0.1,1.8,0.1c2.1-0.2,4.3,0.2,6.3,0.6
					c0.9,0.2,1.9,0.5,2.9,0.8c3.6,1.2,7.1,2.8,10.1,5.2c2,1.5,4.1,2.9,5.8,4.8c1.7,2,3.4,4,4.9,6.2c0.8,1.1,1.6,2.2,2.2,3.4
					c1.1,2,2.2,3.9,3.1,5.9c0.4,0.9,0.3,1.1-0.7,1c-2.4,0-4.6-0.5-6.8-1.3c-1.2-0.4-2.3-1.1-3.4-1.6c-0.2-0.1-0.3-0.3-0.4-0.5
					c-0.4-1.1-1.2-1.6-2.3-1.8c-0.9-0.1-1.3-0.7-1.8-1.4c-0.6-0.8-0.9-1.8-2.1-1.9c-0.1,0-0.2-0.1-0.3-0.2c-0.6-1.4-2.1-1.5-3.2-2.2
					c-0.5-0.3-1-0.2-1.5,0c-0.9,0.3-1.6,0.2-2.4-0.4c-1.8-1.2-3.7-2.3-5.5-3.6c-0.2-0.2-0.5-0.3-0.9-0.4c-2-0.3-3.9-0.6-5.9-0.8
					c-0.5-0.1-0.9-0.2-1.1-0.6c-0.5-1.1-1.5-1.7-2.3-2.4c-0.7-0.5-1.7-0.6-2.6-0.7c-2.8-0.3-5.6-1.2-8.5-1.5c-0.5,0-0.9,0.1-1.3,0.2
					c-2.5,0.6-5,1.2-7.5,1.7c-1.5,0.4-3,0.7-4.5,1.1C259,180.3,258.5,180.3,257.8,180.3z"/>
				<path class="st0" d="M302.5,279.1c1.7-0.4,2.8-1.8,4.4-2.4c1-0.4,1.7-1.2,2.6-1.9c2.4-1.8,4.7-3.8,6.6-6.1
					c1.5-1.8,2.9-3.7,4.4-5.4c0.7-0.8,1.2-1.7,1.7-2.7c1-2.1,2.5-3.9,3.4-6c0.5-1.2,0.8-2.6,1.5-3.8c1.1-1.7,1.3-3.6,2-5.4
					c1.3-3.3,1.9-6.8,2.5-10.3c0.2-0.9,0.5-1.1,1.3-0.8c2,0.9,3.9,1.9,5.6,3.5c0.9,0.8,1.7,1.7,2.4,2.7c0.7,0.9,0.9,2,1.3,3
					c0.1,0.2,0,0.3-0.1,0.5c-1.2,3.2-2.4,6.4-4.2,9.3c-2.4,3.7-4.8,7.4-7.9,10.6c-2.4,2.4-5,4.5-7.6,6.6c-2.4,2-5.3,3.4-8.1,4.9
					c-1.9,1-3.9,1.9-6,2.5c-1.5,0.4-2.9,1.2-4.5,1.4C303.3,279.3,302.9,279.4,302.5,279.1z"/>
				<path class="st2" d="M326.1,156.5c-2.7,4.1-4.8,8.5-7.4,12.6c-1.1-0.8-2.3-1.3-3.5-1.9c-0.5-0.2-0.6-0.4-0.3-1
					c1.7-3.4,3.9-6.6,5.6-10c1.4-2.7,3.2-5.3,4.6-8.1c0.6-1.2,1.2-2.3,2-3.4c0.2-0.2,0.3-0.4,0.5-0.1c1.1,1,2.5,1.4,3.7,2.2
					c1.1,0.7,1.4,1,0.9,2.3c-0.1,0.2-0.2,0.4-0.2,0.6c0,2.5-0.5,4.9-0.7,7.3c-0.1,1.5-0.4,3.1-0.3,4.7c0.5-0.9,1-1.9,1.5-2.8
					c1.5-2.7,3-5.4,4.5-8.1c0.2-0.4,0.3-0.5,0.7-0.3c1.2,0.7,2.4,1.3,3.6,1.9c0.5,0.2,0.3,0.5,0.1,0.8c-1,1.7-2,3.4-2.9,5.1
					c-1.4,2.7-3.1,5.3-4.6,8.1s-3.2,5.4-4.6,8.3c-0.2,0.4-0.4,0.3-0.7,0.2c-1.1-0.6-2.3-1.1-3.3-1.9c-0.7-0.5-0.3-1.3-0.2-2
					c0.1-0.6,0.1-1.1,0.1-1.6c0.1-2.3,0.1-4.5,0.3-6.8C326,160.5,325.7,158.5,326.1,156.5z"/>
				<path class="st2" d="M348,199.5c0.7-1.6,1.3-3,2.2-4.4c0.3-0.4,0.8-0.3,1.2-0.4c3.9-1.5,7.9-2.7,11.9-4.1
					c1.4-0.5,2.7-1.1,4.2-1.4c0.3,0,0.6-0.1,0.8,0c0.7,0.3,1.4,0.8,2.1,0.9c1.8,0.4,2.2,1.9,2.6,3.4c0,0.1,0,0.3,0.1,0.4
					c0.6,1.8,1.3,3.6,1.9,5.5c0.1,0.2,0.3,0.3,0.1,0.6c-0.6,1.3-1.2,2.6-1.8,3.9c-0.4,0.8-1.3,0.8-2,1c-0.2,0.1-0.5,0.1-0.7,0.2
					c-1.7,0.6-3.3,1.3-5,1.8c-3.3,1.1-6.7,2.1-10,3.4c-0.2,0.1-0.4,0-0.7-0.1c-1.2-0.6-2.4-1.2-3.6-1.7c-0.6-0.2-0.7-0.6-0.9-1.1
					c-0.5-1.9-1.1-3.7-1.9-5.5C348.5,201.2,348.3,200.3,348,199.5z M356.5,204.4c0.1,0,0.2-0.1,0.3-0.1c1.7-0.6,3.5-1.2,5.2-1.8
					c1.8-0.6,3.6-1.4,5.5-1.9c1.2-0.4,1.7-1.1,1.2-2.3c-0.2-0.4-0.3-0.8-0.3-1.3c-0.3-1.7-1.6-2.1-2.3-1.7c-0.7,0.3-1.5,0.6-2.3,0.8
					c-2.7,1-5.6,1.8-8.3,3c-1,0.5-1.4,1.3-1,2.4c0.2,0.6,0.5,1.3,0.7,1.9C355.4,204.1,356.1,204,356.5,204.4z"/>
				<path class="st2" d="M307.1,313.3c-0.7,0-1.1-0.4-1.6-0.6c-0.9-0.5-1.8-1-2.7-1.5c-0.3-0.1-0.4-0.3-0.5-0.6
					c-0.3-1.7-0.8-3.4-1.2-5.1c-0.5-1.9-1-3.7-1.3-5.6c0-0.1,0-0.2-0.1-0.3c-0.7-1.8-0.9-3.7-1.5-5.5c-0.3-0.9-0.4-1.7,0.3-2.5
					c0.2-0.3,0.4-0.6,0.5-0.9c0.7-2.1,2.3-2.6,4.3-2.9c1.8-0.3,3.6-0.9,5.4-1.4c0.6-0.2,1-0.1,1.6,0.3c0.9,0.7,2,1.2,3,1.7
					c0.4,0.2,0.6,0.4,0.6,0.9c0,0.2,0.1,0.5,0.1,0.8c0.5,1.8,1.1,3.5,1.4,5.3c0.5,2.3,1.3,4.6,1.7,6.9c0.3,1.5,0.9,2.8,1,4.4
					c0,0.2,0.1,0.4,0,0.6c-0.5,1-1.1,1.9-1.5,2.9c-0.5,1.2-1.5,1.3-2.5,1.5c-0.5,0.1-0.9,0.1-1.4,0.3c-1.6,0.5-3.4,0.8-5,1.4
					C307.5,313.3,307.2,313.3,307.1,313.3z M308.1,292.4c-1.2,0.2-2.4,0.3-3.4,0.8c-0.5,0.3-0.9,0.8-0.8,1.6
					c0.4,1.9,0.8,3.7,1.4,5.6c0.5,1.8,0.8,3.7,1.4,5.5c0.3,1,1,1.4,2,1.1c0.5-0.1,0.9-0.3,1.4-0.3c1.5-0.1,2.6-1.5,1.8-2.8
					c-0.3-0.4-0.2-1-0.3-1.5c-0.8-3-1.6-6-2.3-9C309.2,292.8,308.6,292.6,308.1,292.4z"/>
				<path class="st2" d="M289.7,156.5c0.5-3.9,0.8-7.4,1.3-10.8c0.2-1.9,0.2-3.9,0.7-5.8c0.1-0.3,0.1-0.5,0.4-0.7
					c1.1-0.8,2.1-1.7,3.2-2.5c0.5-0.4,1.1-0.2,1.6,0c0.4,0.1,0.7,0.2,1.1,0.2c2.2,0.1,4.4,0.6,6.6,0.7c0.2,0,0.4,0,0.5,0.2
					c0.5,1,1.3,1.7,2,2.6c1.1,1.3,0.5,2.7,0.4,4c0,0.2-0.1,0.3-0.1,0.5c0,2.2-0.5,4.3-0.7,6.5c-0.2,2-0.5,4-0.7,6
					c-0.1,0.8-0.3,1.7-0.3,2.5c0,0.7-0.6,0.9-1,1.1c-0.8,0.5-1.6,1.2-2.4,1.8c-0.3,0.2-0.5,0.5-0.9,0.2c-0.1-0.1-0.2,0-0.3,0
					c-2.5-0.1-5-0.7-7.5-0.7c-0.8,0-1.4-0.4-1.8-1.1c-0.2-0.4-0.5-0.8-0.8-1.1C289.9,158.9,289.2,157.7,289.7,156.5z M296.2,147
					c-0.1,2.1-0.6,3.8-0.6,5.6c0,0.5-0.1,1-0.2,1.5c-0.4,1.6,0.3,2.4,1.6,2.8c0.7,0.2,1.5,0.2,2.3,0.2c0.6,0,1.3-0.5,1.4-1.1
					c0.2-1.1,0.3-2.1,0.4-3.2c0.2-2.6,0.7-5.1,0.8-7.6c0-0.2,0.1-0.3,0.1-0.5c0.3-0.8-0.4-1.9-1.2-2c-0.9-0.1-1.8-0.2-2.7-0.2
					c-0.7,0-1.3,0.4-1.4,1.1C296.6,144.7,296.1,145.9,296.2,147z"/>
				<path class="st2" d="M239.4,153.5c0.3,0,0.7,0.1,1,0.1c1.2-0.1,2.1,0.4,2.7,1.5c0.6,1,1.4,1.8,2.2,2.7c1.7,2.2,3.6,4.4,5.4,6.6
					c1,1.3,2.1,2.6,3,3.9c0.5,0.7,0.1,1.6,0.1,2.4c0,0.1-0.2,0.3-0.1,0.4c0.5,2.3-1.3,3.2-2.6,4.3c-1.4,1.2-2.8,2.3-4.2,3.5
					c-0.4,0.4-0.8,0.5-1.4,0.4c-1-0.2-2.1-0.2-3.2-0.3c-0.6,0-1-0.2-1.4-0.7c-2.4-3-4.8-6-7.2-9c-1.3-1.6-2.6-3.2-3.9-4.8
					c-0.3-0.3-0.3-0.6-0.3-1c0-1.3,0.4-2.5,0.4-3.8c0-0.4,0.2-0.4,0.4-0.6c1.7-1.6,3.6-2.9,5.4-4.5c1-0.9,2-1.5,3.4-1.1
					C239.1,153.5,239.2,153.5,239.4,153.5L239.4,153.5z M239.1,159.6c-0.6-0.2-1.1,0-1.6,0.5c-0.4,0.5-1,0.9-1.4,1.3
					c-0.6,0.6-0.7,1.5-0.2,2.1c1.4,1.7,2.8,3.4,4.1,5.1c0.8,1.1,1.8,2,2.5,3.1c1,1.5,2.1,1.6,3.5,0.4c0.4-0.3,0.7-0.6,1.1-0.9
					c0.7-0.5,0.8-1.6,0.3-2.3c-1.5-1.8-3-3.6-4.4-5.5c-0.8-1.1-1.8-2-2.5-3.2C240.2,159.8,239.8,159.5,239.1,159.6z"/>
				<path class="st2" d="M275.5,150.6c-0.4,1.1-0.8,2.2-1.2,3.2c-0.2,0.5-0.2,0.7,0.2,1.1c1.8,2.2,3.6,4.3,5.5,6.5
					c0.4,0.4,0.3,0.6-0.2,0.8c-1.4,0.7-3,0.8-4.4,1.5c-0.3,0.1-0.4-0.2-0.6-0.3c-1.6-2-3.2-3.9-4.7-5.9c-0.6-0.8-1.2-0.8-2-0.5
					c-1.3,0.4-1.3,0.4-0.9,1.7c0.7,2.1,1.3,4.3,2,6.4c0.1,0.4,0.1,0.6-0.3,0.6c-1.4,0.3-2.7,0.7-4,1.2c-0.3,0.1-0.4,0-0.5-0.3
					c-0.5-1.8-1-3.7-1.6-5.5c-0.7-2.4-1.6-4.8-2.2-7.3c-0.6-2.1-1.4-4.1-1.9-6.2c-0.4-1.6-1.1-3.1-1.3-4.7c-0.1-0.3,0-0.5,0.3-0.6
					c2.1-0.7,4.2-1.4,6.3-2c1.4-0.4,2.8-0.9,4.2-1.3c0.2-0.1,0.4-0.2,0.7-0.1c1.4,0.7,2.8,1.4,4.1,2.4c0.4,0.3,0.5,0.9,0.6,1.3
					c0.5,2,1,4,1.7,5.9C275.3,149.3,275.3,150,275.5,150.6z M263.4,146.6c0,0.2,0,0.3,0,0.3c0.6,1.4,1,2.9,1.4,4.4
					c0.1,0.4,0.4,0.3,0.6,0.2c0.9-0.3,1.8-0.7,2.8-0.9c1.2-0.2,1.9-1.5,1.3-2.7c-0.2-0.4-0.5-0.8-0.5-1.2c0-0.9-0.5-1.1-1.2-1.4
					c-0.4-0.2-0.8-0.2-1.3-0.1c-0.9,0.3-1.8,0.8-2.8,1C263.5,146.2,263.3,146.4,263.4,146.6z"/>
				<path class="st2" d="M209.4,265.9c-0.9-1.5-1.2-3.3-2-4.8c-0.2-0.3,0.1-0.5,0.3-0.7c1.9-1.6,3.5-3.6,5.6-5.1
					c0.7-0.5,0.9-1,0.5-1.8c-0.8-1.6-0.7-1.6-2.3-0.8c-2,0.8-4,1.5-6,2.3c-0.4,0.1-0.4-0.1-0.5-0.3c-0.3-1.3-0.9-2.4-1.3-3.6
					c-0.2-0.5,0-0.8,0.5-1c1.9-0.7,3.8-1.5,5.7-2.2c2.2-0.8,4.3-1.7,6.4-2.5c2.1-0.8,4.1-1.6,6.3-2.3c1.5-0.5,2.7-1.4,4.2-1.6
					c0.4-0.1,0.5,0,0.7,0.3c0.4,0.8,0.5,1.6,0.9,2.4c0.8,1.6,1.3,3.3,2,4.9c0.4,1,0.8,2.1,1.2,3.2c0.1,0.2,0.2,0.4,0,0.6
					c-0.8,1-1.1,2.3-1.6,3.4c-0.2,0.5-0.5,0.8-1,1c-2.6,1-5.2,1.9-7.8,3.1c-0.3,0.1-0.5,0.1-0.8,0c-0.9-0.3-1.8-0.4-2.6-0.8
					c-0.9-0.4-1.6-0.1-2.2,0.5C213.6,262,211.5,263.9,209.4,265.9z M225.5,252c0-0.1,0-0.3,0-0.4c-0.5-1.1-0.9-2.3-1.4-3.4
					c-0.1-0.3-0.3-0.2-0.5-0.2c-1.5,0.2-2.7,1.4-4.2,1.6c-0.4,0.1-0.4,0.2-0.3,0.6c0.3,1.1,0.8,2.1,1.2,3.1c0.4,1.1,1.2,1.4,2.3,0.9
					c0.5-0.2,0.9-0.4,1.5-0.5C224.8,253.6,225.3,252.9,225.5,252z"/>
				<path class="st2" d="M347.8,294.2c-1.4,1.1-3,1.8-4.3,2.9c-0.2,0.2-0.4,0.1-0.6-0.1c-2.1-1.6-4.4-2.9-6.5-4.4
					c-0.7-0.5-1.2-0.4-1.7,0.1c-0.2,0.2-0.4,0.4-0.6,0.5c-0.5,0.3-0.5,0.6-0.2,1.1c1.4,2,2.7,4,4,5.9c0.1,0.2,0.3,0.3,0,0.5
					c-1.2,0.6-2.1,1.7-3.3,2.3c-0.3,0.2-0.5,0.2-0.7-0.1c-1.4-2.1-2.7-4.2-4.1-6.3c-0.7-1-1.4-2-2-3c-1.4-2.1-2.9-4.2-4.3-6.3
					c-1.1-1.7-2.2-3.4-3.4-5.1c-0.3-0.5,0.1-0.6,0.3-0.7c1.8-1.2,3.6-2.4,5.4-3.6c1.2-0.8,2.4-1.7,3.7-2.5c0.2-0.1,0.3-0.3,0.6-0.2
					c1.3,0.5,2.7,0.5,4.1,0.8c0.4,0.1,0.7,0.2,1,0.7c0.6,1,1.4,2,2,3c0.9,1.4,1.8,2.7,2.7,4c0.2,0.3,0.2,0.5,0.1,0.9
					c-0.3,1.1-0.2,2.3-0.2,3.4c0,0.3,0.2,0.4,0.4,0.5c1.1,0.8,2.1,1.6,3.2,2.3C344.7,292.2,346.2,293.2,347.8,294.2z M330,288.5
					c1-0.7,2.1-1.5,3.1-2.2c0.9-0.7,0.9-1.3,0.3-2.2c-0.4-0.6-0.9-1.2-1.1-1.9c-0.2-0.5-1.6-0.9-2-0.6c-1,0.7-1.9,1.4-3,2
					c-0.3,0.2-0.4,0.3-0.1,0.6C328.2,285.6,328.9,287.2,330,288.5z"/>
				<path class="st2" d="M357,279.7c-0.3,0.1-0.5,0-0.8-0.2c-0.9-0.6-1.9-1.1-2.8-1.8c-0.3-0.2-0.4-0.4-0.1-0.7
					c0.9-1.3,1.7-2.6,2.5-3.8c0.2-0.2,0.2-0.3,0.5-0.1c1.6,1.2,1.6,1.2,2.6-0.4c0.3-0.4,0.6-0.8,0.9-1.2c0.6-0.9,0.6-2.2,0.2-2.7
					c-0.7-0.8-2.3-1.2-3.1-0.8c-0.3,0.1-0.5,0.5-0.7,0.8c-0.8,1.3-1.7,2.7-2.5,4c-0.2,0.3-0.4,0.6-0.8,0.6c-1.1-0.1-2.1,0.3-3.2,0.5
					c-0.7,0.1-1.3,0.1-1.8-0.3c-2.1-1.4-4.2-2.7-6.3-4c-0.5-0.3-0.7-0.9-0.7-1.4c0-1.1-0.4-2.1-0.6-3.1c-0.1-0.4-0.1-0.7,0.2-1.1
					c1.6-2.3,3.2-4.7,4.7-7.1c0.4-0.7,1-0.7,1.6-0.7c1,0,2-0.3,3-0.5c0.6-0.1,0.9-0.1,1.4,0.4c0.6,0.6,1.4,1,2.1,1.4
					c0.4,0.3,0.6,0.5,0.2,1c-0.8,1.1-1.6,2.3-2.3,3.4c-0.3,0.5-0.5,0.4-0.9,0.2c-1.2-0.7-1.2-0.7-2,0.4c-0.5,0.7-1,1.5-1.5,2.3
					c-0.3,0.6,0,1.1,0.3,1.6c0.3,0.4,0.7,0.8,1.2,1.1c0.9,0.7,1.9,0.5,2.6-0.5c1-1.5,2-2.9,3-4.4c0.4-0.6,1.2-0.6,1.8-0.6
					c0.9,0,1.7-0.2,2.5-0.4c0.7-0.2,1.2,0,1.7,0.4c1.2,1,2.5,1.8,3.8,2.6c0.8,0.5,1.5,1,2.3,1.5c0.7,0.4,0.6,1.2,0.6,1.7
					c0,0.8,0.1,1.6,0.4,2.4s-0.1,1.4-0.6,1.9c-1.5,1.9-2.8,4-4.1,6.1c-0.3,0.5-0.6,0.9-1.4,0.9C359.4,279.1,358.3,279.7,357,279.7z"
					/>
				<path class="st2" d="M229.2,292.8c-0.9-1.5-2.2-2.5-3.2-3.8c-0.3-0.4-0.1-0.6,0.1-0.8c0.6-0.7,0.9-1.6,1.5-2.3
					c0.4-0.5,0.3-0.9,0-1.4c-1.4-1.6-2.8-3.2-4.2-4.9c-0.2-0.3-0.4,0-0.5,0c-1,0.6-2.1,1-3.1,1.4c-0.4,0.2-0.6,0.1-0.8-0.2
					c-0.9-1.1-1.8-2.1-2.7-3.2c-0.4-0.4-0.4-0.7,0.2-1c3.1-1.4,6.2-2.9,9.4-4.2c1.7-0.7,3.3-1.5,4.9-2.2c2.3-1.1,4.8-2,7.1-3.2
					c0.2-0.1,0.5-0.1,0.7-0.2c0.7-0.3,1.6-1.2,2-0.9c0.8,0.6,1.5,1.5,2.2,2.3c0.1,0.1,0.2,0.3,0.3,0.4c1.1,1.3,1.1,1.3,0.2,2.7
					c-2,3-3.9,6.2-5.9,9.2c-1.8,2.6-3.3,5.4-5.1,8C231.1,290,230.3,291.4,229.2,292.8z M235.1,274.2c-0.9,0.4-1.6,0.8-2.4,1.1
					c-1.5,0.6-2.9,1.3-4.4,1.9c-0.3,0.1-0.3,0.3-0.1,0.5c1,0.9,1.6,2.1,2.7,2.9C232.2,278.6,233.6,276.4,235.1,274.2z"/>
				<path class="st2" d="M257.1,298.8c-0.3-0.2-0.6-0.3-0.8-0.5c-1.8-0.9-3.4-2.1-5.3-3c-0.5-0.2-0.7-0.2-0.9,0.3
					c-1,1.9-2,3.8-3,5.6c-0.3,0.6-0.8,1.2-1.2,1.9c-0.2,0.3-0.3,0.3-0.6,0.1c-1.1-0.6-2.1-1.1-3.2-1.7c-0.5-0.2-0.5-0.5-0.3-0.9
					c1.9-3.8,4.1-7.3,6.1-11.1c1.3-2.4,2.7-4.8,4-7.3c0.6-1.2,1.5-2.1,2-3.3c0.1-0.4,0.4-0.2,0.6-0.1c2.1,1.2,4.1,2.5,6.3,3.6
					c0.8,0.4,1.5,0.9,2.4,1.2c0.7,0.3,1.1,0.8,1.3,1.5c0.3,1.2,0.7,2.5,1,3.7c0.1,0.3,0,0.5-0.1,0.7c-1.4,2.5-2.8,5.1-4.2,7.5
					c-0.4,0.7-1.4,0.8-2.1,1C258.4,298.3,257.8,298.6,257.1,298.8z M259.5,289.1c-0.4-0.5-0.2-1.1-0.8-1.6c-0.8-0.6-1.8-0.9-2.6-1.5
					c-0.2-0.1-0.4-0.2-0.6,0.1c-0.9,1.4-1.7,2.8-2.4,4.3c-0.2,0.4-0.1,0.5,0.2,0.7c0.8,0.4,1.6,0.9,2.4,1.3c0.4,0.2,0.7,0.2,1.2,0.1
					C258.5,292,258.5,290.2,259.5,289.1z"/>
				<path class="st0" d="M343.3,240.4c-0.6-0.5-0.8-1.1-1.1-1.7c-1-1.6-2.4-2.9-3.8-4.1c-1.7-1.4-3.7-2.2-5.7-2.9
					c-0.6-0.2-0.7-0.6-0.6-1.2c0.1-0.3,0.2-0.6,0.2-0.8c0-2.4,0.3-4.9,0.2-7.3c-0.1-1.8-0.4-3.5-0.3-5.3c0-0.7,0.5-0.8,1-0.8
					c1.7,0,3.4,0.6,5.1,0.8c2.1,0.3,3.8,1.3,5.7,2c0.7,0.3,1.1,0.8,1.2,1.6c0.3,2.2,0.3,4.4,0.3,6.5c0,3-0.5,6-1.1,8.9
					C344,237.6,343.7,238.9,343.3,240.4z"/>
				<path class="st0" d="M344.6,217.1c-1.9-1-3.7-1.5-5.5-2.1c-1.5-0.5-3-0.7-4.6-0.9c-0.8-0.1-1.6-0.3-2.4-0.3
					c-0.5,0-0.6-0.3-0.6-0.7c-0.4-2-0.7-4-1.1-6c-0.4-1.6-0.8-3.1-1.5-4.6c-0.1-0.4-0.3-0.7-0.4-1.1c-0.3-0.6-0.1-1,0.5-1.3
					c1.6-0.6,3-1.4,4.4-2.4c0.7-0.5,1.2-1.3,1.8-2c0.4-0.5,0.7-0.7,1.2,0c0.7,0.9,1.1,2,1.6,2.9c0.6,1,1.4,2,1.9,3.1
					c0.7,1.7,1.6,3.2,2,5c0.3,1.3,0.7,2.5,1.2,3.7C343.9,212.5,344.1,214.7,344.6,217.1z"/>
				<path class="st2" d="M283.6,307c-0.2,2-0.4,4-0.5,6.1c0,0.4-0.3,0.8-0.3,1.2c0,0.3-0.2,0.3-0.4,0.3c-1.6,0-3.1-0.4-4.7-0.4
					c-0.2,0-0.4,0-0.3-0.4c0.2-0.5,0.2-1.1,0.2-1.7c0.1-2.2,0.5-4.5,0.7-6.7c0.3-2.8,0.7-5.7,0.8-8.5c0.1-0.8,0.4-1.6,0.4-2.4
					c0-0.4-0.1-0.5-0.5-0.5c-1,0-2-0.1-2.9-0.1c-1.1-0.1-1.2-0.1-1.1-1.2c0.1-1.3,0.4-2.7,0.4-4c0-0.5,0.3-0.5,0.6-0.4
					c1.5,0.1,3,0.3,4.6,0.5c2.4,0.2,4.7,0.6,7.1,0.7c0.3,0,0.6,0.2,0.9,0.2c1.6,0.2,1.7,0.3,1.3,1.8c-0.2,1.1-0.3,2.2-0.3,3.2
					c0,0.6-0.3,0.8-0.8,0.6c-1.1-0.4-2.3-0.2-3.4-0.4c-0.4-0.1-0.5,0.1-0.6,0.5c-0.3,1.4-0.2,2.9-0.5,4.3
					C284,302.1,284.2,304.6,283.6,307z"/>
				<path class="st2" d="M221.3,176.9c-0.2,0.4-0.5,0.8-0.7,1.2c-0.4,0.8-0.9,1.5-1.3,2.3c-0.2,0.3-0.1,0.5,0.2,0.7
					c1.2,0.7,2.4,1.4,3.6,2.1c2.7,1.5,5.2,3.3,8,4.7c1.7,0.9,3.2,2.1,4.9,3c0.3,0.2,0.4,0.3,0.2,0.7c-0.8,1.2-1.5,2.4-2.3,3.7
					c-0.2,0.4-0.4,0.4-0.8,0.2c-1.4-0.8-2.8-1.6-4.2-2.4c-2.9-1.9-6-3.4-8.9-5.2c-1-0.6-2-1.3-3.1-1.9c-0.5-0.3-0.8-0.3-1,0.3
					c-0.5,1-1.2,2-1.7,3c-0.2,0.4-0.4,0.5-0.8,0.2c-1.3-0.9-2.6-1.8-4-2.5c-0.4-0.2-0.2-0.5-0.1-0.7c0.7-1.1,1.5-2.1,2.1-3.3
					c0.9-1.7,1.9-3.5,3-5.1c0.8-1.1,1.5-2.3,2.1-3.4c0.1-0.2,0.3-0.4,0.5-0.2c1.1,1.1,2.6,1.5,3.9,2.4
					C221.1,176.6,221.3,176.6,221.3,176.9z"/>
				<path class="st2" d="M363.3,174.5c-1.1,1.2-2.6,2-3.8,3.1c-0.4,0.4-0.6,0.1-0.8-0.2c-0.6-1-1.5-1.8-2.2-2.8
					c-0.3-0.4-0.4-0.2-0.6-0.1c-1.2,0.7-2.1,1.7-3.1,2.5c-2.3,1.7-4.4,3.6-6.6,5.4c-1.7,1.3-3.4,2.6-5,4.1c-0.3,0.3-0.6,0.3-0.9,0
					c-0.9-1.2-1.9-2.3-2.9-3.5c-0.1-0.2-0.2-0.2,0-0.4c2.3-1.9,4.6-3.8,7-5.7c2.5-2,5-4,7.5-6.1c1-0.8,1-0.8,0.1-1.8
					c-0.6-0.7-1.3-1.3-1.8-2.2c-0.1-0.2-0.3-0.4,0-0.6c1.3-1.1,2.5-2.1,3.8-3.2c0.4-0.3,0.5,0.1,0.6,0.2c1.9,2.4,3.9,4.8,5.8,7.4
					C361.3,171.9,362.5,173,363.3,174.5z"/>
				<path class="st0" d="M305.7,173.1c0.5-0.3,0.8,0,1.2,0.1c2.4,0.5,4.4,1.7,6.5,2.7c1.3,0.6,2.7,1.2,4,2c3,2,6.1,3.9,8.9,6.2
					c1.1,0.9,2,2.1,3,3.2c1,1,2.1,1.9,3,3c0.7,0.8,1.2,1.6,1.5,2.5c0.1,0.4,0.1,0.7-0.1,1c-1.4,2.1-3.2,3.5-5.6,4.1
					c-0.4,0.1-0.6,0-0.8-0.4c-1.3-2.7-2.7-5.3-4.3-7.8c-1.5-2.3-3-4.6-4.8-6.6c-2.3-2.6-4.6-5.3-7.7-7.2c-1.4-0.9-2.9-1.6-4.4-2.4
					C306,173.4,305.8,173.3,305.7,173.1z"/>
				<path class="st1" d="M356.5,204.4c-0.4-0.3-1.1-0.3-1.3-1c-0.2-0.7-0.5-1.3-0.7-1.9c-0.4-1.1,0-1.9,1-2.4c2.7-1.2,5.5-1.9,8.3-3
					c0.8-0.3,1.5-0.5,2.3-0.8c0.8-0.4,2,0.1,2.3,1.7c0.1,0.4,0.2,0.8,0.3,1.3c0.4,1.2,0,1.9-1.2,2.3c-1.8,0.6-3.7,1.3-5.5,1.9
					c-1.7,0.6-3.5,1.2-5.2,1.8C356.8,204.3,356.7,204.3,356.5,204.4z"/>
				<path class="st1" d="M308.1,292.4c0.5,0.2,1.1,0.4,1.2,1.1c0.8,3,1.6,6,2.3,9c0.1,0.5,0,1,0.3,1.5c0.8,1.3-0.3,2.7-1.8,2.8
					c-0.5,0-1,0.2-1.4,0.3c-1,0.3-1.7-0.1-2-1.1c-0.6-1.8-0.9-3.7-1.4-5.5s-0.9-3.7-1.4-5.6c-0.2-0.8,0.3-1.3,0.8-1.6
					C305.7,292.7,306.9,292.6,308.1,292.4z"/>
				<path class="st1" d="M296.2,147c-0.1-1,0.4-2.2,0.5-3.5c0.1-0.7,0.7-1.1,1.4-1.1c0.9,0,1.8,0.1,2.7,0.2c0.8,0.1,1.4,1.2,1.2,2
					c-0.1,0.2-0.1,0.3-0.1,0.5c-0.1,2.6-0.6,5.1-0.8,7.6c-0.1,1.1-0.2,2.2-0.4,3.2c-0.1,0.6-0.7,1-1.4,1.1c-0.8,0-1.6,0-2.3-0.2
					c-1.3-0.3-2-1.2-1.6-2.8c0.1-0.5,0.2-1,0.2-1.5C295.7,150.8,296.1,149,296.2,147z"/>
				<path class="st1" d="M239.1,159.6c0.6-0.1,1.1,0.2,1.4,0.7c0.7,1.2,1.7,2.1,2.5,3.2c1.4,1.9,3,3.7,4.4,5.5
					c0.5,0.6,0.4,1.8-0.3,2.3c-0.4,0.3-0.7,0.6-1.1,0.9c-1.4,1.2-2.5,1.1-3.5-0.4c-0.8-1.1-1.7-2.1-2.5-3.1
					c-1.3-1.7-2.8-3.4-4.1-5.1c-0.5-0.7-0.4-1.6,0.2-2.1c0.5-0.4,1-0.8,1.4-1.3C238,159.7,238.5,159.4,239.1,159.6z"/>
				<path class="st1" d="M263.4,146.6c0-0.2,0.1-0.4,0.4-0.4c1-0.2,1.9-0.6,2.8-1c0.5-0.2,0.8-0.1,1.3,0.1c0.6,0.3,1.2,0.5,1.2,1.4
					c0,0.4,0.3,0.8,0.5,1.2c0.6,1.3,0,2.5-1.3,2.7c-1,0.2-1.9,0.6-2.8,0.9c-0.3,0.1-0.5,0.2-0.6-0.2c-0.4-1.5-0.8-2.9-1.4-4.4
					C263.3,146.9,263.4,146.8,263.4,146.6z"/>
				<path class="st1" d="M225.5,252c-0.2,0.9-0.6,1.6-1.6,1.7c-0.5,0.1-1,0.3-1.5,0.5c-1.1,0.4-1.8,0.1-2.3-0.9
					c-0.4-1-0.9-2-1.2-3.1c-0.1-0.4,0-0.6,0.3-0.6c1.5-0.2,2.7-1.3,4.2-1.6c0.3,0,0.4-0.1,0.5,0.2c0.5,1.1,0.9,2.3,1.4,3.4
					C225.5,251.7,225.5,251.9,225.5,252z"/>
				<path class="st1" d="M330,288.5c-1.1-1.3-1.8-2.9-2.8-4.3c-0.2-0.3-0.1-0.5,0.1-0.6c1.1-0.6,2-1.3,3-2c0.4-0.3,1.8,0.1,2,0.6
					c0.3,0.7,0.7,1.3,1.1,1.9c0.6,0.9,0.6,1.5-0.3,2.2C332.1,287,331.1,287.8,330,288.5z"/>
				<path class="st1" d="M235.1,274.2c-1.5,2.3-2.8,4.4-4.2,6.5c-1.1-0.8-1.7-2-2.7-2.9c-0.2-0.2-0.3-0.4,0.1-0.5
					c1.5-0.6,3-1.3,4.4-1.9C233.4,275,234.2,274.6,235.1,274.2z"/>
				<path class="st1" d="M259.5,289.1c-1,1.1-0.9,2.9-2.6,3.4c-0.4,0.1-0.8,0.1-1.2-0.1c-0.8-0.5-1.6-0.9-2.4-1.3
					c-0.3-0.2-0.4-0.3-0.2-0.7c0.7-1.5,1.5-2.9,2.4-4.3c0.2-0.3,0.4-0.3,0.6-0.1c0.8,0.6,1.8,0.9,2.6,1.5
					C259.2,288,259,288.7,259.5,289.1z"/>
			</g>
		</g>
	</g>
	<g>
		<path class="st3" d="M202.3,216.2c-30-5.2-60.2-6.1-90.4-4.3s-60,5.9-89.1,14.5c0.4-2.5,0.8-5,1.2-7.3c0.7-3.6,1.2-7.2,1.8-10.8
			c0.1-0.5,0-1-0.1-1.5c-1.6-4.5-3.1-8.9-4.8-13.3c-0.3-0.7-0.1-1,0.7-1.2c8.2-2.5,16.5-4.5,25-6.3c6.4-1.4,12.8-2.5,19.1-3.5
			c4.7-0.7,9.4-1.4,14.1-2c12-1.5,24.1-2.5,36.2-3c7.9-0.4,15.9-0.5,23.7-0.4c18.1,0.2,36.2,1.4,54.2,4.2c1.8,0.2,3.8,0.7,5.6,1
			c0.7,0.1,0.8,0.4,0.7,1c-1,4.6-2.1,9.2-3.1,13.9c-0.1,0.5-0.1,1.1,0,1.6c1.7,5.7,3.4,11.4,5.1,17.1
			C202.3,215.7,202.3,215.9,202.3,216.2z M93.7,196.7c1.2-0.9,2-2,1.8-3.3c0-1-0.1-1.9-0.1-2.9c-0.3-2.4-2.3-4-4.8-3.7
			c-4.2,0.5-8.3,1-12.5,1.5c-1,0.1-2.1,0.2-3.1,0.4c1.6,0.7,1.4,2.1,1.4,3.3c0.3,3.3,0.4,6.8,0.7,10.2c0.1,1.2,0.1,2.4-0.9,3.2
			c0,0,0,0.1,0,0.2c2-0.2,4-0.5,6-0.7c0-0.1,0.1-0.1,0.1-0.2c-0.4-0.2-0.7-0.5-1-0.7c-0.3-0.2-0.5-0.4-0.5-0.7
			c0-0.9-0.1-1.9-0.1-2.7c0-0.4,0-0.6,0.5-0.6c3.3-0.4,6.5-0.7,9.8-1.1c0.8-0.1,1.2,0.2,1.3,1c0.1,1.5,0.5,3-1,4.1v0.1
			c2.1-0.4,4.2-0.2,6.5-0.7c-1.6-0.6-1.8-1.7-1.7-2.9C96,198.8,95.6,197.5,93.7,196.7z M139.4,196.9c-0.4-0.1-0.5-0.4-0.8-0.6
			c-2.9-3.2-5.9-6.3-8.7-9.7c-1.2-1.4-2.3-2.1-4.2-1.9c-1.2,0.1-2.3,0.1-3.9,0.2c1.7,0.7,1.7,2,1.8,3.2c0.1,3.2,0.4,6.6,0.7,9.8
			c0.1,1.4,0.5,2.9-1,3.8c2.2,0,4.3,0.1,6.4-0.1c-1.4-1.5-1.4-1.5-1.6-3.3c-0.1-2.6-0.4-5.3-0.5-7.9c0-0.2-0.1-0.5,0.1-0.9
			c0.1,0.1,0.3,0.2,0.4,0.4c3.4,3.7,6.6,7.3,10,11c0.3,0.2,0.4,0.7,0.9,0.7c2,0,3.9,0,6,0c-1.4-1.6-1.4-1.6-1.6-3.6
			c-0.3-3.2-0.4-6.4-0.7-9.5c-0.1-1.4-0.3-2.7,1-3.7c0,0,0,0,0-0.1c-2.1,0-4.2,0-6.3,0c0.4,0.7,1.3,0.9,1.4,1.6
			C139,189.8,139.3,193.3,139.4,196.9z M189,196.4c-0.1-1.4-0.1-2.7-0.3-4.2c-0.3-2.6-2.2-4.6-4.9-5c-3.3-0.4-6.5-0.6-9.8-1
			c-2.6-0.2-4.6,1.2-4.4,3.8c0.1,2.9,0.3,5.6,0.5,8.4c0.3,2.5,2.1,4.5,4.8,4.8c3.4,0.4,6.8,0.7,10.2,1.1c2.9,0.2,4.4-1.4,4.3-4.1
			C189.2,199,189,197.7,189,196.4z M53.4,200.7L53.4,200.7c0.1,1.5,0.1,3,0.3,4.5c0,0.1,0,0.2,0,0.2c0.3,2.1,2.2,3.5,4.4,3.1
			c3.3-0.5,6.4-1,9.6-1.6c3.1-0.5,4.8-2.6,4.7-5.6c-0.1-2.6-0.3-5.2-0.5-7.8c-0.3-2.9-2.1-4.2-4.9-3.8c-3.1,0.5-6.4,1-9.5,1.5
			c-2.7,0.5-4.4,2.6-4.3,5.2C53.2,198,53.3,199.3,53.4,200.7z M110.2,202.6c1.7-0.1,3.4-0.1,5.1-0.2c2.6-0.2,4.3-2.1,4.2-4.6
			c-0.1-2.9-0.4-5.7-0.5-8.6c-0.1-2.5-2.2-4.2-4.7-4.1c-3.4,0.1-6.6,0.4-10,0.6c-2.6,0.1-4.4,2.1-4.3,4.6c0.1,2.9,0.4,5.6,0.5,8.4
			c0.1,2.5,2.2,4.2,4.8,4.1C107,202.8,108.7,202.7,110.2,202.6z M44.5,211.4c-0.4-0.7-1.3-0.7-1.4-1.7c-0.1-3.7-0.4-7.3-0.7-11
			c0-0.5,0.3-0.7,0.7-0.9c1.2-0.2,2.3-0.5,3.5-0.9c1.2-0.4,2.2-0.4,3.1,0.5c0,0,0.1,0,0.3,0c-0.1-1.4-0.1-2.6-0.3-4
			c0-0.6-0.4-0.5-0.8-0.4c-5.9,1.4-11.6,2.7-17.5,4c-0.3,0.1-0.5,0.1-0.5,0.5c0.1,1.4,0.1,2.7,0.3,4.1c0.8-0.6,1-1.5,2.1-1.7
			c1.4-0.2,2.9-0.6,4.3-1c0.8-0.2,1,0,1,0.7c0.1,2.7,0.4,5.5,0.5,8.3c0.1,1.6,0.7,3.2-1,4.5c0.1,0,0.1,0.1,0.3,0.1
			C40.4,212.2,42.5,211.8,44.5,211.4z M147.4,189.3c0.1,0,0.1,0.1,0.3,0.1c0.7-1.1,1.7-1.4,2.9-1.1c1.2,0.1,2.2,0.2,3.4,0.1
			c1,0,1.2,0.4,1.2,1.1c0.1,3,0.4,5.9,0.5,8.9c0.1,1.2,0.4,2.6-1,3.5c0,0,0,0,0,0.1c2.1,0.1,4,0.2,6.3,0.2c-0.4-0.7-1.3-1-1.3-1.9
			c-0.3-3.7-0.5-7.6-0.7-11.3c0-0.4,0.1-0.6,0.5-0.5c1.2,0,2.3,0.1,3.5,0.1c1.4-0.1,2.6,0.2,3.4,1.2c0,0,0.1,0,0.3,0
			c-0.1-1.2-0.1-2.4-0.3-3.6c0-0.6-0.3-0.9-0.9-0.9c-2.6-0.1-5.1-0.2-7.7-0.4c-3.3-0.1-6.5-0.2-9.9-0.5c-0.4,0-0.8,0-0.7,0.5
			C147.2,186.6,147.4,187.9,147.4,189.3z M73,192.6c0,0.2,0,0.2,0,0.2c0.1,3,0.4,5.8,0.5,8.8c0.1,3-1.8,5.6-4.8,6.2
			c-2.2,0.5-4.4,0.7-6.5,1.1c-1.4,0.2-2.7,0.5-4.3,0.7c1,0.6,1.8,0.6,2.7,0.5c3.1-0.5,6.3-1,9.4-1.6c2.6-0.5,4.7-3.1,4.7-5.5
			c0-3-0.1-5.8-0.5-8.8C74,193.9,73.8,193.1,73,192.6z M190,191.6c0.1,3.1,0.4,5.9,0.5,8.8c0.1,3.3-2.2,5.5-5.6,5.1
			c-2.1-0.2-4.2-0.5-6.3-0.7c-1.3-0.1-2.6-0.2-4.2-0.4c1,0.9,2.1,1.2,3.1,1.4c2.9,0.4,5.7,0.6,8.5,0.9c3.4,0.2,5.7-1.9,5.5-5.1
			c-0.1-2.4-0.3-4.7-0.4-7.1C191.1,193.5,190.7,192.6,190,191.6z M104.8,203.9c1,0.6,1.8,0.9,2.7,0.7c3-0.1,6-0.4,9.1-0.5
			c3-0.2,5.3-2.6,5.2-5.5c-0.1-2.6-0.3-5.2-0.5-7.9c0-0.9-0.4-1.6-0.9-2.2c-0.1,0.1-0.1,0.1-0.1,0.1c0.1,2.9,0.4,5.8,0.5,8.7
			c0.1,3.1-2.1,5.6-5.5,5.8C111.8,203.5,108.4,203.8,104.8,203.9z M161.6,201.3c0.3-0.4,0.1-0.6,0.1-1c-0.1-2.9-0.3-5.7-0.5-8.6
			c0-0.7,0.3-1,0.9-1c1,0.1,2.2,0.1,3.5,0.2c-0.7-0.6-1-1.1-2-1.1c-0.9,0.1-1.8,0-2.7-0.1c-0.8-0.1-0.9,0.1-0.9,0.9
			c0.3,3,0.4,5.9,0.5,8.9C160.5,200.3,160.8,200.9,161.6,201.3z M48.9,198.6c-0.5-0.6-1-0.9-1.8-0.6c-0.9,0.2-1.8,0.5-2.7,0.6
			c-0.7,0.1-0.9,0.5-0.8,1.1c0.3,2.7,0.4,5.5,0.5,8.2c0,0.5,0,0.9,0.1,1.4c0.1,0.5,0.5,0.7,0.9,0.7s0.3-0.5,0.1-0.9
			c-0.1-2.9-0.3-5.7-0.5-8.7c0-0.7,0.3-1.1,0.9-1.2C46.8,199.1,47.7,198.8,48.9,198.6z M145.5,200.7c0-0.4,0-0.7,0-1
			c-0.1-3-0.4-5.9-0.5-8.9c-0.1-1.4-0.5-2.9,1.2-3.8c-0.5-0.2-0.9-0.2-1.2-0.2c-1.3,0-1.3,0-1.2,1.2c0.3,3.7,0.5,7.4,0.7,11
			C144.5,199.7,144.6,200.3,145.5,200.7z M83.1,203.8c0-0.4,0-0.6,0-0.9c-0.3-1,0.3-1.2,1.2-1.2c1.8-0.1,3.6-0.4,5.6-0.5
			c0.3,0,0.5-0.1,0.8-0.1c0.4,0,0.7-0.2,0.5-0.6c-0.1-0.4-0.4-0.4-0.7-0.4c-0.7,0.1-1.4,0.2-2.1,0.2c-2,0.2-3.8,0.5-5.7,0.6
			c-0.3,0-0.5,0-0.7,0.2C81.7,202.1,82.2,203.3,83.1,203.8z M96.6,190.2c-0.1,0.6,0,1.1,0,1.6c0.1,1.5,0.4,3.1-0.7,4.5
			c-0.3,0.2,0,0.5,0.1,0.6c0.3,0.2,0.4,0,0.5-0.2C98.2,195.4,98.2,191.8,96.6,190.2z M128.9,192.8c0.1,2.2,0.3,4.5,0.4,6.6
			c0,0.7,0.4,1,1,1.4c-0.1-2-0.3-4-0.4-5.8C129.9,194,129.6,193.4,128.9,192.8z M140.2,202.8c0.9,1.5,2.3,1,3.4,1
			c1.2,0,2.3,0.2,3.6,0c-0.4-0.6-1-0.9-1.7-0.9C143.8,202.9,142.1,202.8,140.2,202.8z M93.4,205.9c2.2-0.2,4.3-0.4,6.5-0.6
			C98.6,204,94.5,204.4,93.4,205.9z M84.7,206.9c-0.5-0.6-0.9-0.9-1.6-0.7c-1.2,0.2-2.3,0.2-3.5,0.4c-0.8,0.1-1,0.5-1.3,1.1
			C80.5,207.4,82.5,207.1,84.7,206.9z M163.1,204.5c-0.4-0.9-1-1.1-1.8-1.1c-1,0-2,0-3-0.1c-0.8-0.1-1.2,0.2-1.6,0.9
			C158.9,204.3,160.9,204.4,163.1,204.5z M125.3,204.2c2.2-0.1,4.3-0.2,6.4-0.4C130.7,202.6,126.3,202.7,125.3,204.2z M46.8,212.8
			c-0.5-0.7-1.2-0.7-1.8-0.6c-0.9,0.2-2,0.5-2.9,0.6c-0.9,0.1-1.3,0.5-1.6,1.4C42.6,213.8,44.7,213.3,46.8,212.8z M149.8,191.6
			c0.9-1.4,2.2-1.4,3.5-1.1c0.4,0,0.7,0,0.7-0.4c0-0.4,0-0.6-0.5-0.6c-0.7,0-1.3-0.1-1.8-0.1C149.4,189.3,149.4,189.3,149.8,191.6z
			 M33.5,203.3c0.8-1.5,2.1-2,3.6-2.1c0.4,0,0.5-0.4,0.4-0.7c-0.1-0.5-0.4-0.2-0.7-0.1c-0.7,0.1-1.2,0.2-1.8,0.4
			C33.3,201.2,33.3,201.2,33.5,203.3z M52.1,196.9c0-0.6-0.1-1.2-0.1-1.7c0-0.2,0-0.6-0.4-0.5c-0.3,0-0.7,0-0.7,0.4
			c0,1.1,0.1,2.4,0.3,3.5c0,0.4,0.5,0.6,0.9,0.6c0.4-0.1,0.1-0.5,0.1-0.7C52.3,197.7,52.1,197.3,52.1,196.9z M168.8,192.5
			c-0.1-1.5-0.1-2.9-0.3-4.2c0-0.4-0.4-0.5-0.7-0.5c-0.4,0-0.3,0.4-0.3,0.6c0,0.9,0.1,1.9,0.1,2.7
			C167.7,191.8,168.1,192,168.8,192.5z M98.2,202.3c0-1.7-0.3-2.4-1.3-3C97.2,200.4,96.7,201.7,98.2,202.3z"/>
		<polyline class="st3" points="19.9,233.2 51.8,244.1 176.1,231.6 70.8,205.2 15.5,219.6 		"/>
		<polyline class="st3" points="203.9,214.5 203.3,223.1 175.1,237 177,214.8 197,211.8 		"/>
		<g>
			<polyline class="st3" points="44.6,150.2 47.4,227.4 49.1,230.5 56.7,254.6 70.6,271.6 118.4,292.7 159.9,267.3 172,248.1 
				176.1,231.6 177.5,219.6 174.9,177.6 170.1,139.8 172.6,139.2 172.7,134.9 165.5,133.2 88.6,131.9 42.4,142.7 			"/>
			<g>
				<g>
					<defs>
						
							<ellipse id="SVGID_1_" transform="matrix(0.9982 -5.916222e-02 5.916222e-02 0.9982 -11.4075 6.9752)" cx="112.1" cy="196.1" rx="117.9" ry="117.9"/>
					</defs>
					<clipPath id="SVGID_2_">
						<use xlink:href="#SVGID_1_"  style="overflow:visible;"/>
					</clipPath>
					<g id="PjtBNQ.tif" class="st4">
						<g>
							<path class="st5" d="M197.9,219.1c-28.5-5.2-57.3-6.1-86-4.3s-57.1,5.9-84.8,14.5c0.4-2.5,0.7-5,1.1-7.3
								c0.6-3.6,1.1-7.2,1.7-10.8c0.1-0.5,0-1-0.1-1.5c-1.5-4.5-3-8.9-4.6-13.3c-0.2-0.7-0.1-1,0.6-1.2c7.8-2.5,15.7-4.5,23.8-6.3
								c6.1-1.4,12.1-2.5,18.2-3.5c4.5-0.7,8.9-1.4,13.4-2c11.4-1.5,22.9-2.5,34.5-3c7.6-0.4,15.1-0.5,22.6-0.4
								c17.2,0.2,34.5,1.4,51.6,4.2c1.7,0.2,3.6,0.7,5.3,1c0.6,0.1,0.7,0.4,0.6,1c-1,4.6-2,9.2-3,13.9c-0.1,0.5-0.1,1.1,0,1.6
								c1.6,5.7,3.2,11.4,4.8,17.1C197.9,218.6,197.9,218.8,197.9,219.1z M94.5,199.6c1.1-0.9,1.9-2,1.7-3.3c0-1-0.1-1.9-0.1-2.9
								c-0.2-2.4-2.2-4-4.6-3.7c-4,0.5-7.9,1-11.9,1.5c-1,0.1-2,0.2-3,0.4c1.5,0.7,1.4,2.1,1.4,3.3c0.2,3.3,0.4,6.8,0.6,10.2
								c0.1,1.2,0.1,2.4-0.9,3.2c0,0,0,0.1,0,0.2c1.9-0.2,3.8-0.5,5.7-0.7c0-0.1,0.1-0.1,0.1-0.2c-0.4-0.2-0.6-0.5-1-0.7
								c-0.2-0.2-0.5-0.4-0.5-0.7c0-0.9-0.1-1.9-0.1-2.7c0-0.4,0-0.6,0.5-0.6c3.1-0.4,6.2-0.7,9.3-1.1c0.7-0.1,1.1,0.2,1.2,1
								c0.1,1.5,0.5,3-1,4.1v0.1c2-0.4,4-0.2,6.2-0.7c-1.5-0.6-1.7-1.7-1.6-2.9C96.7,201.7,96.4,200.4,94.5,199.6z M138,199.7
								c-0.4-0.1-0.5-0.4-0.7-0.6c-2.7-3.2-5.6-6.3-8.3-9.7c-1.1-1.4-2.2-2.1-4-1.9c-1.1,0.1-2.2,0.1-3.7,0.2c1.6,0.7,1.6,2,1.7,3.2
								c0.1,3.2,0.4,6.6,0.6,9.8c0.1,1.4,0.5,2.9-1,3.8c2.1,0,4.1,0.1,6.1-0.1c-1.4-1.5-1.4-1.5-1.5-3.3c-0.1-2.6-0.4-5.3-0.5-7.9
								c0-0.2-0.1-0.5,0.1-0.9c0.1,0.1,0.2,0.2,0.4,0.4c3.2,3.7,6.3,7.3,9.5,11c0.2,0.2,0.4,0.7,0.9,0.7c1.9,0,3.7,0,5.7,0
								c-1.4-1.6-1.4-1.6-1.5-3.6c-0.2-3.2-0.4-6.4-0.6-9.5c-0.1-1.4-0.2-2.7,1-3.7c0,0,0,0,0-0.1c-2,0-4,0-5.9,0
								c0.4,0.7,1.2,0.9,1.4,1.6C137.6,192.7,137.9,196.1,138,199.7z M185.2,199.2c-0.1-1.4-0.1-2.7-0.2-4.2c-0.2-2.6-2.1-4.6-4.7-5
								c-3.1-0.4-6.2-0.6-9.3-1c-2.5-0.2-4.3,1.2-4.2,3.8c0.1,2.9,0.2,5.6,0.5,8.4c0.2,2.5,2,4.5,4.6,4.8c3.2,0.4,6.4,0.7,9.7,1.1
								c2.7,0.2,4.2-1.4,4.1-4.1C185.3,201.8,185.2,200.6,185.2,199.2z M56.2,203.6L56.2,203.6c0.1,1.5,0.1,3,0.2,4.5
								c0,0.1,0,0.2,0,0.2c0.2,2.1,2.1,3.5,4.2,3.1c3.1-0.5,6.1-1,9.2-1.6c3-0.5,4.6-2.6,4.5-5.6c-0.1-2.6-0.2-5.2-0.5-7.8
								c-0.2-2.9-2-4.2-4.7-3.8c-3,0.5-6.1,1-9,1.5c-2.6,0.5-4.2,2.6-4.1,5.2C56,200.9,56.1,202.2,56.2,203.6z M110.2,205.4
								c1.6-0.1,3.2-0.1,4.8-0.2c2.5-0.2,4.1-2.1,4-4.6c-0.1-2.9-0.4-5.7-0.5-8.6c-0.1-2.5-2.1-4.2-4.5-4.1
								c-3.2,0.1-6.3,0.4-9.5,0.6c-2.5,0.1-4.2,2.1-4.1,4.6c0.1,2.9,0.4,5.6,0.5,8.4c0.1,2.5,2.1,4.2,4.6,4.1
								C107.1,205.7,108.8,205.6,110.2,205.4z M47.6,214.2c-0.4-0.7-1.2-0.7-1.4-1.7c-0.1-3.7-0.4-7.3-0.6-11c0-0.5,0.2-0.7,0.6-0.9
								c1.1-0.2,2.2-0.5,3.3-0.9c1.1-0.4,2.1-0.4,3,0.5c0,0,0.1,0,0.2,0c-0.1-1.4-0.1-2.6-0.2-4c0-0.6-0.4-0.5-0.7-0.4
								c-5.6,1.4-11,2.7-16.6,4c-0.2,0.1-0.5,0.1-0.5,0.5c0.1,1.4,0.1,2.7,0.2,4.1c0.7-0.6,1-1.5,2-1.7c1.4-0.2,2.7-0.6,4.1-1
								c0.7-0.2,1,0,1,0.7c0.1,2.7,0.4,5.5,0.5,8.3c0.1,1.6,0.6,3.2-1,4.5c0.1,0,0.1,0.1,0.2,0.1C43.8,215.1,45.8,214.7,47.6,214.2z
								 M145.6,192.2c0.1,0,0.1,0.1,0.2,0.1c0.6-1.1,1.6-1.4,2.7-1.1c1.1,0.1,2.1,0.2,3.2,0.1c1,0,1.1,0.4,1.1,1.1
								c0.1,3,0.4,5.9,0.5,8.9c0.1,1.2,0.4,2.6-1,3.5c0,0,0,0,0,0.1c2,0.1,3.8,0.2,5.9,0.2c-0.4-0.7-1.2-1-1.2-1.9
								c-0.2-3.7-0.5-7.6-0.6-11.3c0-0.4,0.1-0.6,0.5-0.5c1.1,0,2.2,0.1,3.3,0.1c1.4-0.1,2.5,0.2,3.2,1.2c0,0,0.1,0,0.2,0
								c-0.1-1.2-0.1-2.4-0.2-3.6c0-0.6-0.2-0.9-0.9-0.9c-2.5-0.1-4.8-0.2-7.3-0.4c-3.1-0.1-6.2-0.2-9.4-0.5c-0.4,0-0.7,0-0.6,0.5
								C145.4,189.5,145.6,190.8,145.6,192.2z M74.8,195.5c0,0.2,0,0.2,0,0.2c0.1,3,0.4,5.8,0.5,8.8c0.1,3-1.7,5.6-4.6,6.2
								c-2.1,0.5-4.2,0.7-6.2,1.1c-1.4,0.2-2.6,0.5-4.1,0.7c1,0.6,1.7,0.6,2.6,0.5c3-0.5,5.9-1,8.9-1.6c2.5-0.5,4.5-3.1,4.5-5.5
								c0-3-0.1-5.8-0.5-8.8C75.8,196.8,75.5,196,74.8,195.5z M186.1,194.5c0.1,3.1,0.4,5.9,0.5,8.8c0.1,3.3-2.1,5.5-5.3,5.1
								c-2-0.2-4-0.5-5.9-0.7c-1.2-0.1-2.5-0.2-4-0.4c1,0.9,2,1.2,3,1.4c2.7,0.4,5.5,0.6,8.1,0.9c3.2,0.2,5.5-1.9,5.2-5.1
								c-0.1-2.4-0.2-4.7-0.4-7.1C187.2,196.4,186.8,195.5,186.1,194.5z M105,206.8c1,0.6,1.7,0.9,2.6,0.7c2.9-0.1,5.7-0.4,8.7-0.5
								c2.9-0.2,5.1-2.6,5-5.5c-0.1-2.6-0.2-5.2-0.5-7.9c0-0.9-0.4-1.6-0.9-2.2c-0.1,0.1-0.1,0.1-0.1,0.1c0.1,2.9,0.4,5.8,0.5,8.7
								c0.1,3.1-2,5.6-5.2,5.8C111.7,206.4,108.5,206.7,105,206.8z M159.1,204.2c0.2-0.4,0.1-0.6,0.1-1c-0.1-2.9-0.2-5.7-0.5-8.6
								c0-0.7,0.2-1,0.9-1c1,0.1,2.1,0.1,3.3,0.2c-0.6-0.6-1-1.1-1.9-1.1c-0.9,0.1-1.7,0-2.6-0.1c-0.7-0.1-0.9,0.1-0.9,0.9
								c0.2,3,0.4,5.9,0.5,8.9C158.1,203.2,158.3,203.8,159.1,204.2z M51.9,201.5c-0.5-0.6-1-0.9-1.7-0.6c-0.9,0.2-1.7,0.5-2.6,0.6
								c-0.6,0.1-0.9,0.5-0.7,1.1c0.2,2.7,0.4,5.5,0.5,8.2c0,0.5,0,0.9,0.1,1.4c0.1,0.5,0.5,0.7,0.9,0.7s0.2-0.5,0.1-0.9
								c-0.1-2.9-0.2-5.7-0.5-8.7c0-0.7,0.2-1.1,0.9-1.2C49.9,202,50.7,201.7,51.9,201.5z M143.8,203.6c0-0.4,0-0.7,0-1
								c-0.1-3-0.4-5.9-0.5-8.9c-0.1-1.4-0.5-2.9,1.1-3.8c-0.5-0.2-0.9-0.2-1.1-0.2c-1.2,0-1.2,0-1.1,1.2c0.2,3.7,0.5,7.4,0.6,11
								C142.8,202.6,143,203.2,143.8,203.6z M84.5,206.7c0-0.4,0-0.6,0-0.9c-0.2-1,0.2-1.2,1.1-1.2c1.7-0.1,3.5-0.4,5.3-0.5
								c0.2,0,0.5-0.1,0.7-0.1c0.4,0,0.6-0.2,0.5-0.6c-0.1-0.4-0.4-0.4-0.6-0.4c-0.6,0.1-1.4,0.2-2,0.2c-1.9,0.2-3.6,0.5-5.5,0.6
								c-0.2,0-0.5,0-0.6,0.2C83.1,204.9,83.6,206.2,84.5,206.7z M97.2,193.1c-0.1,0.6,0,1.1,0,1.6c0.1,1.5,0.4,3.1-0.6,4.5
								c-0.2,0.2,0,0.5,0.1,0.6c0.2,0.2,0.4,0,0.5-0.2C98.8,198.3,98.8,194.7,97.2,193.1z M128,195.7c0.1,2.2,0.2,4.5,0.4,6.6
								c0,0.7,0.4,1,1,1.4c-0.1-2-0.2-4-0.4-5.8C129,196.9,128.7,196.3,128,195.7z M138.7,205.7c0.9,1.5,2.2,1,3.2,1
								c1.1,0,2.2,0.2,3.5,0c-0.4-0.6-1-0.9-1.6-0.9C142.2,205.8,140.6,205.7,138.7,205.7z M94.3,208.8c2.1-0.2,4.1-0.4,6.2-0.6
								C99.2,206.9,95.2,207.3,94.3,208.8z M85.9,209.8c-0.5-0.6-0.9-0.9-1.5-0.7c-1.1,0.2-2.2,0.2-3.3,0.4c-0.7,0.1-1,0.5-1.2,1.1
								C82,210.3,83.8,210,85.9,209.8z M160.6,207.4c-0.4-0.9-1-1.1-1.7-1.1c-1,0-1.9,0-2.9-0.1c-0.7-0.1-1.1,0.2-1.5,0.9
								C156.6,207.2,158.5,207.3,160.6,207.4z M124.6,207.1c2.1-0.1,4.1-0.2,6.1-0.4C129.7,205.4,125.5,205.6,124.6,207.1z
								 M49.9,215.7c-0.5-0.7-1.1-0.7-1.7-0.6c-0.9,0.2-1.9,0.5-2.7,0.6c-0.9,0.1-1.2,0.5-1.5,1.4C45.9,216.7,47.9,216.2,49.9,215.7
								z M147.9,194.5c0.9-1.4,2.1-1.4,3.3-1.1c0.4,0,0.6,0,0.6-0.4c0-0.4,0-0.6-0.5-0.6c-0.6,0-1.2-0.1-1.7-0.1
								C147.5,192.2,147.5,192.2,147.9,194.5z M37.2,206.2c0.7-1.5,2-2,3.5-2.1c0.4,0,0.5-0.4,0.4-0.7c-0.1-0.5-0.4-0.2-0.6-0.1
								c-0.6,0.1-1.1,0.2-1.7,0.4C37,204.1,37,204.1,37.2,206.2z M55,199.7c0-0.6-0.1-1.2-0.1-1.7c0-0.2,0-0.6-0.4-0.5
								c-0.2,0-0.6,0-0.6,0.4c0,1.1,0.1,2.4,0.2,3.5c0,0.4,0.5,0.6,0.9,0.6c0.4-0.1,0.1-0.5,0.1-0.7C55.1,200.6,55,200.2,55,199.7z
								 M166,195.4c-0.1-1.5-0.1-2.9-0.2-4.2c0-0.4-0.4-0.5-0.6-0.5c-0.4,0-0.2,0.4-0.2,0.6c0,0.9,0.1,1.9,0.1,2.7
								C164.9,194.7,165.3,194.9,166,195.4z M98.8,205.2c0-1.7-0.2-2.4-1.2-3C97.8,203.3,97.3,204.6,98.8,205.2z"/>
							<path class="st6" d="M163.7,173.5c-0.4-0.1-0.5-0.4-0.6-0.6c-1.9-2.4-3.7-4.6-5.6-6.9c-0.4-0.5-0.7-0.7-1.4-0.7
								c-4.6-0.1-9.2-0.5-13.8-0.5c-7.1-0.1-14.3-0.1-21.3,0c-0.9,0-1.1,0.4-1,1.1c0.2,3.5,0.4,6.8,0.6,10.3c0,0.7-0.1,0.9-0.9,0.9
								c-6.7,0.2-13.3,0.6-20,1.2c-0.7,0-0.9-0.2-1-0.9c-0.1-3.5-0.4-6.9-0.6-10.4c0-0.6-0.2-0.9-0.9-0.7
								c-7.4,0.6-14.9,1.6-22.3,2.6c-4.3,0.6-8.6,1.4-12.9,2.1c-0.6,0.1-1,0.4-1.4,0.9c-1.6,2.6-3.1,5.1-4.7,7.7
								c-0.1,0.2-0.2,0.5-0.6,0.9c0-0.5,0-0.7,0-1c-0.5-7.7-0.9-15.2-1.4-22.8c0-0.7,0.2-1,0.9-1.1c4.7-0.7,9.4-1.6,14.3-2.5
								c7.7-1.2,15.2-2.2,22.9-3c8.8-0.9,17.6-1.5,26.4-1.7c5.6-0.1,11.3-0.2,16.9-0.1c6.6,0.1,13.3,0.2,19.8,0.6
								c2.1,0.1,4.2,0.2,6.2,0.4c0.5,0,0.7,0.1,0.7,0.7c0.5,7.8,0.9,15.7,1.4,23.5C163.7,173.2,163.7,173.3,163.7,173.5z"/>
							<path class="st7" d="M92.4,110.1c0.1-0.4,0-0.6-0.1-0.9c-1.1-2.9-2.2-5.6-3.3-8.4c-0.2-0.7-0.2-1,0.6-1c3,0.4,5.3-1,7.6-3
								c2.1-2,4.6-3.8,6.8-5.7c0.5-0.4,0.9-0.5,1.5-0.1c3.5,2.2,6.9,4.5,10.4,6.7c0.6,0.4,1.1,0.5,1.7,0.5c1-0.1,2-0.1,3-0.2
								c0.7-0.1,1.1,0,0.9,1c-0.7,2.7-1.5,5.6-2.2,8.3c-0.1,0.4-0.1,0.7-0.2,1.4c3-2.5,5.7-4.7,8.6-6.9c0.5,1.4,1,2.6,1.5,3.8
								c0.2,0.7,0.7,1.2,1.4,1.6c3.5,2.1,6.8,4.3,10.2,6.4c0.6,0.4,0.7,0.7,0.6,1.4c-1,3.8-1.9,7.7-2.9,11.5c-0.2,0.9,0,0.9,0.7,1
								c6.8,0.1,13.5,0.4,20.3,0.9c4,0.2,7.9,0.6,11.8,0.9c1.4,0.1,1.4,0.1,1.4,1.4c0.1,1.5,0.1,3,0.2,4.3c0.1,0.7-0.1,0.9-0.9,0.9
								c-4.7-0.5-9.5-0.9-14.3-1.1c-4.6-0.2-9.2-0.5-13.8-0.6c-7.7-0.2-15.4-0.2-22.9-0.1c-0.6,0-1.1,0.2-1.6,0.6
								c-3.6,3-7.2,5.9-10.8,8.9c-0.5,0.4-0.9,0.4-1.4,0c-3.8-2.5-7.8-5.1-11.8-7.6c-0.5-0.4-1-0.4-1.5-0.4
								c-9.3,0.9-18.6,2.1-27.9,3.6c-7.6,1.2-15.1,2.6-22.7,4.2c-0.6,0.1-0.9,0-0.9-0.6c0-1.6-0.1-3.2-0.2-4.8c0-0.6,0.1-0.9,0.7-1
								c3.3-0.6,6.7-1.4,10-2c5.6-1.1,11.2-2,16.6-2.9c1.9-0.2,3.6-0.6,5.5-0.7c0.7-0.1,1-0.2,0.6-1c-1.4-3.6-2.6-7.1-4.1-10.7
								c-0.4-1-0.2-1.5,0.5-2.1c3.1-2.5,6.2-5.1,9.3-7.6c0.5-0.4,0.7-0.7,0.9-1.4c0.2-1.1,0.6-2.4,0.9-3.5c0.1-0.6,0.4-0.6,0.9-0.4
								c2.6,1.6,5.2,3.3,7.8,5C91.9,109.9,92.1,110,92.4,110.1h0.1c0,0,0,0,0-0.1C92.4,110.1,92.4,110.1,92.4,110.1z M83.2,130
								c2.9-0.4,5.6-0.6,8.4-1c0.5,0,0.6-0.4,0.7-0.7c0.7-2.7,1.4-5.5,2.2-8.2c0.1-0.6,0-0.9-0.5-1.1c-2.4-1.5-4.7-3-7.1-4.6
								c-0.5-0.2-0.7-0.2-1.1,0.1c-2.1,1.9-4.3,3.6-6.6,5.3c-0.4,0.4-0.5,0.6-0.4,1.1c1.1,2.9,2.2,5.7,3.3,8.7
								C82.5,130,82.7,130.2,83.2,130z M130.4,127.2c0.5,0.1,0.7-0.1,0.9-0.6c0.7-3,1.5-5.9,2.4-9c0.1-0.5,0-0.6-0.4-0.9
								c-2.5-1.5-4.8-3.1-7.3-4.7c-0.5-0.2-0.7-0.2-1.1,0.1c-2.1,1.9-4.2,3.6-6.4,5.3c-0.4,0.4-0.5,0.6-0.4,1.1
								c1,2.7,2.1,5.3,3.1,8.1c0.1,0.5,0.4,0.6,0.9,0.6C124.9,127.2,127.6,127.2,130.4,127.2z M106.3,120.8
								c-1.4,0.1-2.7,0.2-4.2,0.2c-0.6,0-0.9,0.2-1,0.7c-0.6,2.7-1.4,5.5-2.1,8.2c-0.1,0.5-0.1,0.7,0.4,1.1c2.5,1.5,4.8,3,7.2,4.6
								c0.4,0.2,0.7,0.2,1.1-0.1c2.2-1.9,4.5-3.6,6.7-5.3c0.4-0.2,0.5-0.5,0.2-1c-1.1-2.6-2.1-5.3-3.1-7.9c-0.2-0.6-0.5-0.7-1.1-0.6
								C109.1,120.7,107.8,120.7,106.3,120.8z M105.9,113.9c1.4-0.1,2.7-0.2,4.2-0.2c0.6,0,0.9-0.1,1-0.7c0.6-2.7,1.4-5.5,2.1-8.2
								c0.1-0.5,0.1-0.7-0.4-1c-2.5-1.5-4.8-3.1-7.3-4.6c-0.5-0.2-0.7-0.2-1.1,0.1c-2.2,1.9-4.3,3.6-6.6,5.5c-0.4,0.2-0.5,0.5-0.2,1
								c1.1,2.6,2.1,5.3,3.1,7.9c0.2,0.5,0.4,0.6,1,0.6C103.1,114,104.4,113.9,105.9,113.9z"/>
							<path class="st6" d="M133.7,275.6c-3.1,1.9-6.2,3.5-9.4,5c-2.5,1.2-5.1,2.4-7.6,3.5c-0.4,0.1-0.7,0.2-1.2,0.1
								c-6.1-1.7-12-3.8-17.8-6.3c-0.1-0.4,0.2-0.5,0.4-0.6c1.9-1.7,3.7-3.6,5.7-5.3c0.5-0.5,0.6-0.9,0.6-1.6c-1-16.9-2-33.7-3-50.6
								c0-0.9,0.1-1.1,1.1-1.2c6.4-0.5,12.9-0.9,19.3-1.1c1.4,0,1.2-0.2,1.4,1.2c1,16.7,2,33.5,3,50.2c0,0.9,0.2,1.4,1,1.7
								C129.2,272.2,131.4,273.9,133.7,275.6z"/>
							<path class="st7" d="M178.2,228.6c0.1,3.3,0.5,7.1,0,10.9c-0.9,6.3-3.1,12-6.6,17.2c-5.1,7.9-11.9,14.1-19.3,19.6
								c-10.7,7.8-22.4,13.9-34.7,18.7c-0.5,0.2-1,0.2-1.5,0.1c-14.7-3.8-28.9-9.3-41.8-17.5c-7.2-4.6-13.6-9.9-18.7-17
								c-4.5-6.2-7.2-13.1-7.6-20.8c-0.1-4-0.5-7.9-0.7-11.9c0-0.6,0.1-1,0.7-1.1c1.7-0.4,3.5-0.7,5.2-1.2c0.7-0.1,1-0.1,1.1,0.7
								c0.2,4.2,0.5,8.4,0.7,12.8c0.4,8.3,3.8,15.4,9.4,21.4c5.2,5.7,11.4,10.2,18.2,13.9c10.4,5.8,21.4,10,33,13.1
								c0.4,0.1,0.7,0.1,1.2,0c11.9-4.8,23.2-10.8,33.3-18.6c6.2-4.7,11.8-10.2,15.9-16.9c3.8-6.2,5.7-12.9,5.1-20.2
								c-0.4-4.1-0.5-8.3-0.7-12.4c0-0.7,0.1-1,0.9-0.9c1.9,0.2,3.6,0.5,5.5,0.6c0.6,0,0.9,0.2,0.9,0.9
								C177.8,222.8,177.9,225.4,178.2,228.6z"/>
							<path class="st7" d="M112.5,144.3c2.9-2.4,5.7-4.7,8.4-6.9c0.2-0.2,0.6-0.2,0.9-0.2c6.1-0.1,12-0.1,18.1,0
								c5.6,0.1,11.2,0.2,16.7,0.6c5.2,0.2,10.3,0.6,15.4,1.1c0.7,0.1,0.7,0.5,0.7,1c0.2,4.5,0.5,8.8,0.7,13.3
								c0.5,8.2,1,16.4,1.5,24.4c0,0.9,0,1.1-1,1c-1.7-0.2-3.5-0.4-5.3-0.5c-0.7,0-0.9-0.4-1-1c-0.5-9-1.1-18.1-1.6-27.1
								c-0.1-1.2-0.1-2.4-0.2-3.6c0-0.6-0.2-0.9-0.7-0.9c-5.7-0.4-11.4-0.7-17.1-1c-6.1-0.2-12.1-0.4-18.2-0.4
								c-5.5,0-10.9,0.1-16.4,0.4c-0.4,0-0.6,0-1,0C112.6,144.5,112.6,144.3,112.5,144.3z"/>
							<path class="st7" d="M103.1,145.2c-2,0.1-4.1,0.2-6.1,0.4c-9.7,0.9-19.3,2.1-28.9,3.6c-5.7,0.9-11.4,2-17.1,3
								c-0.7,0.1-1,0.4-0.9,1.1c0.6,10.2,1.2,20.3,1.9,30.5c0,0.9-0.1,1.1-1,1.2c-1.7,0.4-3.5,0.7-5.2,1.1c-0.6,0.1-0.9,0-0.9-0.6
								c-0.7-12.8-1.5-25.5-2.2-38.2c0-0.5,0.1-0.7,0.6-0.9c6.3-1.4,12.6-2.5,19-3.6c7.1-1.2,14.3-2.2,21.3-3.1
								c3.1-0.4,6.3-0.6,9.4-1c0.4,0,0.7,0,1.1,0.2c3,2,6.1,4,9,5.8C103.1,145,103.1,145.1,103.1,145.2z"/>
							<path class="st7" d="M42.2,240.8c-5.9,1.2-11.7,2.5-17.4,3.8c-1.7,0.4-3.5,0.7-5.2,1.2c-0.7,0.1-1,0-1-0.7
								c0-1.6-0.2-3.2-0.2-4.7c0-0.6-0.2-0.9-0.7-1.2c-4.3-2.6-8.6-5.3-12.9-8.1c-0.6-0.4-0.6-0.6-0.2-1.1c4-4.7,7.8-9.4,11.8-14.1
								c0.4-0.5,0.6-1,0.5-1.6c-0.1-1.4-0.1-2.7-0.2-4.1c0-0.5,0.1-0.7,0.6-0.9c2.5-0.6,5.1-1.2,7.6-2c0.6-0.1,0.9,0,1.1,0.6
								c1,2.1,0.6,4.1,0.2,6.2c-1.1,6.4-2.1,12.9-3.2,19.3c-0.1,0.7,0,0.9,0.6,1.1c5.9,2,11.9,4,18,5.9
								C41.7,240.5,41.8,240.6,42.2,240.8z"/>
							<path class="st7" d="M184.5,232.3c0.2-0.4,0.6-0.4,0.9-0.5c5.6-2.6,11-5.2,16.6-7.8c0.6-0.2,0.9-0.5,0.6-1.2
								c-2.1-7.2-4.1-14.4-6.1-21.6c-0.4-1.5,0.4-2.7,0.5-4.1c0-0.4,0.4-0.2,0.6-0.2c2.7,0.4,5.5,0.7,8.2,1.1
								c0.5,0.1,0.5,0.4,0.5,0.7c0.1,1.4,0.2,2.7,0.2,4.2c0,0.6,0.2,1,0.6,1.5c4.5,4.2,8.9,8.4,13.4,12.5c0.6,0.6,0.5,0.9-0.1,1.4
								c-3.8,3.1-7.7,6.2-11.5,9.2c-0.7,0.6-1,1.1-0.9,2c0.1,1.4,0.1,2.7,0.2,4.2c0.1,1-0.2,1.1-1.1,1c-3.3-0.4-6.6-0.7-9.9-1.1
								c-4.2-0.4-8.4-0.7-12.5-1.1C184.6,232.5,184.6,232.3,184.5,232.3z"/>
							<path class="st8" d="M77.6,253.2c-1.5-0.9-2.9-1.9-4.2-3c-4.2-3.2-8.2-6.8-11.3-11.2c-1.5-2.2-2.9-4.5-3.3-7.2
								c-0.5-2.2-0.4-4.6-0.5-6.8c0-0.4,0.2-0.5,0.5-0.5c3.8-0.6,7.7-1.4,11.4-2c1.6-0.2,3.3-0.5,5-0.9c0.5-0.1,0.7-0.1,0.9,0.5
								c0.6,10.2,1.2,20.3,1.7,30.5C77.8,252.9,77.8,253,77.6,253.2z"/>
							<path class="st9" d="M150.5,248.8c0-0.4,0-0.7,0-1c-0.6-9.8-1.1-19.6-1.7-29.4c0-0.9,0-1.1,1-1.1c3.3,0.1,6.7,0.2,10.2,0.5
								c2.1,0.1,4.1,0.2,6.2,0.4c0.5,0,0.5,0.4,0.5,0.6c1.1,6.6-0.5,12.4-4.5,17.7c-3.2,4.3-6.8,8.3-10.9,11.8
								C150.9,248.6,150.8,248.7,150.5,248.8z"/>
							<path class="st8" d="M101.1,270c-1.5,1.5-3,2.9-4.3,4.1c-0.5,0.5-1.1,1-1.6,1.5c-0.5,0.6-1,0.7-1.9,0.4
								c-3.6-1.7-7.2-3.6-10.7-5.7c-0.4-0.1-0.7-0.2-0.7-0.7c-0.1-2.7-0.4-5.6-0.5-8.6C87.7,264.6,94.1,267.5,101.1,270z"/>
							<path class="st8" d="M147.8,257.1c0.1,2.9,0.4,5.6,0.5,8.3c0,0.4-0.1,0.6-0.5,0.9c-3.3,2.6-6.9,5-10.5,7.3
								c-0.4,0.2-0.7,0.2-1,0c-2.1-1.6-4.2-3.2-6.4-4.7c-0.2-0.2-0.7-0.4,0-0.7c6.1-3,11.9-6.6,17.4-10.5
								C147.3,257.4,147.5,257.3,147.8,257.1z"/>
							<path class="st10" d="M78.6,267.8c-9.2-6.6-17-13.8-19.2-25.3c0.2-0.1,0.4,0,0.4,0.1c4.8,6.3,10.8,11.4,17.4,15.6
								c0.7,0.5,1,1,1,1.9C78.3,262.6,78.5,265.1,78.6,267.8z"/>
							<path class="st10" d="M167.3,236.2c0.1,2.2-0.4,4.3-1,6.4c-1.7,5.7-5,10.5-8.9,14.9c-1.9,2-3.7,4-5.9,5.8
								c-0.1-2-0.1-4-0.4-5.7c-0.4-2.2,0.4-3.6,2.1-5.1C158.6,248,163.4,242.5,167.3,236.2z"/>
							<path class="st8" d="M58.2,183.5c1.2-1.9,2.5-3.6,3.6-5.3c0.9-1.2,1.9-2.5,2.6-3.8c0.5-0.7,1.1-1,1.9-1.1
								c2-0.4,4-0.6,5.8-0.9c0.5-0.1,0.7,0,0.7,0.6c0.1,2.5,0.2,5.1,0.5,7.6c0,0.4,0,0.6-0.5,0.7c-3.3,0.5-6.7,1-10,1.6
								C61.4,182.9,59.9,183.3,58.2,183.5z"/>
							<path class="st8" d="M161.4,177.4c-1.4-0.1-2.6-0.1-3.8-0.2c-2.9-0.1-5.7-0.2-8.6-0.4c-0.7,0-1.5,0-2.2,0
								c-0.4,0-0.5-0.1-0.6-0.6c-0.1-2.6-0.2-5.2-0.5-7.8c0-0.4,0.1-0.6,0.5-0.6c2.2,0.1,4.5,0.2,6.7,0.2c0.4,0,0.7,0.1,1,0.5
								c2.5,2.9,4.8,5.6,7.3,8.4C161.3,177.2,161.3,177.2,161.4,177.4z"/>
							<path class="st10" d="M197.2,222.5c-5.2,2.5-10.4,4.8-15.4,7.2c-0.4-0.1-0.2-0.4-0.2-0.5c-0.1-2.9-0.4-5.7-0.5-8.7
								c0-0.5-0.1-0.7,0.6-0.7c5.1,0.7,10.2,1.5,15.1,2.5C196.9,222.4,196.9,222.4,197.2,222.5z"/>
							<path class="st10" d="M28.3,232.6c5-1.7,10-3.2,15-4.5c0.4-0.1,0.6-0.2,0.6,0.4c0.1,3.1,0.4,6.2,0.5,9.5
								C39.1,236.2,33.6,234.3,28.3,232.6z"/>
							<path class="st11" d="M142.8,228.5c-0.7-0.6-1.5-0.6-2.2-0.5c-2.1,0.1-4.2,0.2-6.3,0.4c-1.4,0.1-1.6,0.4-1.5,1.6
								c0,0.7,0.1,1.5,0.1,2.2c0.1,1.2,0.4,1.5,1.6,1.4c2.5-0.1,5.1-0.2,7.6-0.5c1-0.1,1,0.4,1.1,1.1c0,0.7,0.1,1.2-0.9,1.2
								c-2.6,0-5.1,0.2-7.7,0.4c-0.9,0-1.7,0-2.6-0.5c-1.1-0.5-1.7-1.4-1.9-2.7c0-0.9-0.1-1.7-0.1-2.6c-0.1-2.2,1-3.7,3.2-4
								c3-0.2,5.8-0.4,8.8-0.6c0.4,0,0.6,0.1,0.6,0.5C142.7,226.9,142.8,227.5,142.8,228.5z"/>
							<path class="st11" d="M82.6,229.1c3.7-0.2,7.4-0.5,11-0.6c2.1-0.1,2.1-0.1,2.2,2c0,0.2,0,0.5,0,0.7c-1.5-0.9-2.9-0.4-4.3-0.2
								c-1.6,0-3.2,0.2-4.7,0.2c-0.6,0-0.7,0.2-0.6,0.9c0,0.6,0.1,0.7,0.7,0.7c2-0.1,4-0.2,5.8-0.4c0.6,0,1,0.1,0.9,0.7
								c0,0.1,0,0.4,0,0.5c0.1,0.7-0.1,1.1-0.9,1.1c-1.6,0-3.2,0.1-4.8,0.2c-1.6,0.1-1.6,0.1-1.6,1.7c0,0.7-0.1,1.6,0.7,2.1
								c-1.4,0.1-2.7,0.1-4.2,0.2c1-0.7,0.7-1.7,0.6-2.6c-0.1-1.7-0.2-3.5-0.2-5.2C83.3,230.4,83.3,229.7,82.6,229.1z"/>
							<path class="st12" d="M94.5,199.6c1.7,0.6,2.2,2.1,2.2,3.7c0,1.2,0.1,2.2,1.6,2.9c-2.2,0.5-4.2,0.5-6.2,0.7
								c0-0.1,0-0.1,0-0.1c1.5-1.1,1-2.6,1-4.1c0-0.7-0.5-1.1-1.2-1c-3.1,0.4-6.2,0.7-9.3,1.1c-0.4,0-0.5,0.2-0.5,0.6
								c0.1,0.9,0.1,1.9,0.1,2.7c0,0.4,0.1,0.6,0.5,0.7c0.4,0.2,0.6,0.5,1,0.7c0,0.1-0.1,0.1-0.1,0.2c-1.9,0.2-3.8,0.5-5.7,0.7
								c0-0.1-0.1-0.2,0-0.2c1-0.9,1-2,0.9-3.2c-0.2-3.3-0.4-6.8-0.6-10.2c-0.1-1.2,0.1-2.6-1.4-3.3c1-0.1,2-0.2,3-0.4
								c4-0.5,7.9-1,11.9-1.5c2.4-0.2,4.3,1.4,4.6,3.7c0.1,1,0.1,1.9,0.1,2.9C96.4,197.8,95.7,198.8,94.5,199.6z M81.7,196.9
								c0,0.7,0.1,1.4,0.1,2.1c0,0.4,0.1,0.6,0.6,0.6c3.1-0.4,6.2-0.7,9.2-1.1c0.7-0.1,1.2-0.5,1.1-1.4c-0.1-0.9-0.1-1.9-0.1-2.7
								c-0.1-1.1-0.2-1.4-1.4-1.2c-2.4,0.2-4.7,0.5-7.1,0.7C81.6,194.3,81.6,194.3,81.7,196.9z"/>
							<path class="st13" d="M138,199.7c-0.2-3.6-0.4-7.1-0.6-10.5c0-0.7-1-1-1.4-1.6c2,0,4,0,5.9,0c0,0.1,0,0.1,0,0.1
								c-1.2,1-1.1,2.4-1,3.7c0.2,3.2,0.4,6.4,0.6,9.5c0.1,2.1,0.1,2.1,1.5,3.6c-2,0-3.8,0-5.7,0c-0.4,0-0.6-0.4-0.9-0.7
								c-3.2-3.6-6.3-7.3-9.5-11c-0.1-0.1-0.2-0.2-0.4-0.4c-0.2,0.2-0.1,0.6-0.1,0.9c0.1,2.6,0.2,5.3,0.5,7.9
								c0.1,1.9,0.1,1.9,1.5,3.3c-2,0.2-4,0.1-6.1,0.1c1.6-1,1.1-2.5,1-3.8c-0.1-3.2-0.4-6.6-0.6-9.8c0-1.2-0.1-2.5-1.7-3.2
								c1.5-0.1,2.6-0.1,3.7-0.2c1.7-0.2,2.9,0.5,4,1.9c2.7,3.3,5.6,6.4,8.3,9.7C137.5,199.4,137.6,199.6,138,199.7z"/>
							<path class="st12" d="M185.2,199.2c0.1,1.2,0.1,2.6,0.2,3.8c0.1,2.7-1.4,4.3-4.1,4.1c-3.2-0.2-6.4-0.6-9.7-1.1
								c-2.5-0.4-4.3-2.2-4.6-4.8c-0.2-2.9-0.4-5.6-0.5-8.4c-0.1-2.5,1.6-4.1,4.2-3.8c3.1,0.4,6.2,0.6,9.3,1c2.6,0.2,4.5,2.2,4.7,5
								C185.1,196.5,185.1,197.9,185.2,199.2z M181.6,198.9c-0.1-1.4-0.1-2.7-0.2-4.1c0-0.9-0.4-1.2-1.2-1.2c-3-0.4-5.8-0.6-8.8-1
								c-0.7-0.1-1.2,0.2-1.1,1c0.1,2.7,0.4,5.5,0.5,8.2c0,0.6,0.4,1.1,1,1.1c3,0.4,6.1,0.6,9,1c0.7,0.1,1.1-0.2,1-1.1
								C181.8,201.5,181.8,200.1,181.6,198.9z"/>
							<path class="st12" d="M56.2,203.6c-0.1-1.4-0.1-2.7-0.2-4.1c-0.1-2.6,1.5-4.7,4.1-5.2c3-0.5,6.1-1,9-1.5
								c2.9-0.4,4.6,1,4.7,3.8c0.1,2.6,0.4,5.2,0.5,7.8c0.1,3-1.5,5.1-4.5,5.6c-3.1,0.5-6.1,1-9.2,1.6c-2.1,0.4-4-1-4.2-3.1
								c0-0.1,0-0.2,0-0.2C56.3,206.6,56.2,205.1,56.2,203.6L56.2,203.6z M59.7,203c0.1,1.4,0.1,2.7,0.2,4.1c0,0.6,0.2,1.1,1,1
								c3-0.5,5.9-1,8.9-1.5c0.7-0.1,1.1-0.6,1-1.4c-0.1-2.6-0.4-5.2-0.5-7.8c-0.1-1-0.2-1.2-1.4-1.1c-2.9,0.5-5.6,1-8.4,1.4
								c-1,0.1-1.2,0.6-1.1,1.5C59.5,200.4,59.5,201.7,59.7,203z"/>
							<path class="st3" d="M110.2,205.4c-1.6,0.1-3.1,0.2-4.7,0.2c-2.5,0.1-4.3-1.6-4.6-4.1c-0.2-2.9-0.4-5.6-0.5-8.4
								c-0.1-2.5,1.5-4.5,4.1-4.6c3.1-0.2,6.3-0.4,9.5-0.6c2.5-0.1,4.3,1.6,4.5,4.1c0.2,2.9,0.4,5.7,0.5,8.6c0.1,2.5-1.5,4.3-4,4.6
								C113.5,205.3,111.8,205.3,110.2,205.4z M109.5,191.7c-1.4,0.1-2.9,0.1-4.2,0.2c-0.9,0-1.2,0.4-1.2,1.4
								c0.2,2.6,0.4,5.3,0.5,7.9c0.1,1,0.4,1.2,1.4,1.2c2.7-0.1,5.6-0.4,8.3-0.5c1-0.1,1.2-0.4,1.2-1.4c-0.1-2.6-0.2-5.2-0.5-7.8
								c-0.1-1-0.4-1.2-1.4-1.2C112.3,191.4,111,191.6,109.5,191.7z"/>
							<path class="st3" d="M47.6,214.2c-2,0.5-3.8,0.9-5.7,1.4c-0.1,0-0.1-0.1-0.2-0.1c1.6-1.2,1.1-3,1-4.5
								c-0.1-2.7-0.4-5.5-0.5-8.3c0-0.7-0.2-1-1-0.7c-1.4,0.4-2.7,0.7-4.1,1c-1,0.1-1.2,1.1-2,1.7c-0.1-1.5-0.1-2.9-0.2-4.1
								c0-0.4,0.2-0.5,0.5-0.5c5.6-1.4,11-2.6,16.6-4c0.4-0.1,0.7-0.2,0.7,0.4c0,1.4,0.1,2.6,0.2,4c-0.1,0-0.2,0-0.2,0
								c-0.9-0.9-1.9-0.9-3-0.5c-1.1,0.4-2.2,0.6-3.3,0.9c-0.5,0.1-0.7,0.2-0.6,0.9c0.2,3.7,0.5,7.3,0.6,11
								C46.4,213.4,47.3,213.5,47.6,214.2z"/>
							<path class="st12" d="M145.6,192.2c-0.1-1.4-0.1-2.6-0.2-4c0-0.5,0.2-0.5,0.6-0.5c3.1,0.1,6.2,0.2,9.4,0.5
								c2.5,0.1,4.8,0.2,7.3,0.4c0.6,0,0.9,0.2,0.9,0.9c0,1.2,0.1,2.4,0.2,3.6c-0.1,0-0.2,0-0.2,0c-0.9-1.1-2-1.4-3.2-1.2
								c-1.1,0.1-2.2,0-3.3-0.1c-0.4,0-0.5,0.1-0.5,0.5c0.2,3.7,0.5,7.6,0.6,11.3c0,0.9,1,1,1.2,1.9c-2-0.1-4-0.2-5.9-0.2
								c0-0.1,0-0.1,0-0.1c1.4-0.9,1.1-2.2,1-3.5c-0.2-3-0.4-5.9-0.5-8.9c0-0.7-0.1-1.2-1.1-1.1c-1.1,0.1-2.1,0-3.2-0.1
								c-1.1-0.1-2.1,0-2.7,1.1C145.7,192.2,145.7,192.2,145.6,192.2z"/>
							<path class="st14" d="M74.8,195.5c0.6,0.5,0.9,1.2,1,1.9c0.4,3,0.6,5.8,0.5,8.8c0,2.4-2.1,4.8-4.5,5.5
								c-3,0.6-5.9,1.1-8.9,1.6c-0.9,0.1-1.6,0.1-2.6-0.5c1.5-0.2,2.9-0.5,4.1-0.7c2.1-0.4,4.2-0.6,6.2-1.1c2.9-0.6,4.7-3.2,4.6-6.2
								c-0.1-3-0.4-5.8-0.5-8.8C74.8,195.8,74.8,195.8,74.8,195.5z"/>
							<path class="st14" d="M186.1,194.5c0.7,1,1.1,1.9,1.1,2.9c0.1,2.4,0.2,4.7,0.4,7.1c0.1,3.2-2,5.3-5.2,5.1
								c-2.7-0.2-5.5-0.5-8.1-0.9c-1-0.1-2-0.4-3-1.4c1.5,0.1,2.7,0.2,4,0.4c2,0.2,4,0.5,5.9,0.7c3.2,0.4,5.5-1.7,5.3-5.1
								C186.5,200.5,186.2,197.6,186.1,194.5z"/>
							<path class="st14" d="M105,206.8c3.5-0.2,6.7-0.4,9.9-0.6c3.2-0.2,5.3-2.7,5.2-5.8c-0.1-2.9-0.4-5.8-0.5-8.7c0,0,0,0,0.1-0.1
								c0.6,0.6,0.9,1.4,0.9,2.2c0.1,2.6,0.4,5.2,0.5,7.9c0.1,2.9-2.1,5.3-5,5.5c-2.9,0.2-5.7,0.4-8.7,0.5
								C106.8,207.7,106,207.6,105,206.8z"/>
							<path class="st15" d="M159.1,204.2c-0.7-0.4-1-0.9-1.1-1.7c-0.1-3-0.4-5.9-0.5-8.9c0-0.7,0.1-1,0.9-0.9
								c0.9,0.1,1.7,0.1,2.6,0.1c0.9-0.1,1.2,0.4,1.9,1.1c-1.2-0.1-2.2-0.1-3.3-0.2c-0.7,0-1,0.1-0.9,1c0.2,2.9,0.4,5.7,0.5,8.6
								C159.2,203.5,159.3,203.8,159.1,204.2z"/>
							<path class="st14" d="M51.9,201.5c-1.1,0.2-2.1,0.5-3.1,0.7c-0.7,0.1-1,0.4-0.9,1.2c0.2,2.9,0.4,5.7,0.5,8.7
								c0,0.2,0.2,0.7-0.1,0.9c-0.4,0-0.7-0.2-0.9-0.7c-0.1-0.4-0.1-0.9-0.1-1.4c-0.1-2.7-0.2-5.5-0.5-8.2c0-0.6,0.1-1,0.7-1.1
								c0.9-0.1,1.7-0.4,2.6-0.6C50.9,200.6,51.4,200.9,51.9,201.5z"/>
							<path class="st14" d="M143.8,203.6c-0.9-0.4-1-1-1.1-1.7c-0.2-3.7-0.4-7.4-0.6-11c-0.1-1.2-0.1-1.2,1.1-1.2
								c0.4,0,0.6,0,1.1,0.2c-1.7,0.9-1.2,2.4-1.1,3.8c0.1,3,0.4,5.9,0.5,8.9C143.8,202.8,143.8,203.1,143.8,203.6z"/>
							<path class="st14" d="M84.5,206.7c-0.9-0.5-1.4-1.9-1.1-2.6c0.1-0.4,0.4-0.2,0.6-0.2c1.9-0.2,3.6-0.5,5.5-0.6
								c0.6-0.1,1.4-0.1,2-0.2c0.2,0,0.6-0.1,0.6,0.4c0.1,0.4-0.1,0.6-0.5,0.6c-0.2,0-0.5,0.1-0.7,0.1c-1.7,0.1-3.5,0.4-5.3,0.5
								c-0.9,0-1.4,0.2-1.1,1.2C84.5,206.1,84.3,206.3,84.5,206.7z"/>
							<path class="st14" d="M97.2,193.1c1.6,1.6,1.6,5.2,0.1,6.6c-0.1,0.1-0.2,0.4-0.5,0.2c-0.2-0.1-0.4-0.4-0.1-0.6
								c1-1.4,0.7-3,0.6-4.5C97.2,194.2,97.1,193.7,97.2,193.1z"/>
							<path class="st14" d="M128,195.7c0.7,0.6,1.1,1.2,1.1,2c0.1,2,0.2,3.8,0.4,5.8c-0.6-0.2-1-0.6-1-1.4
								C128.2,200.1,128.1,198,128,195.7z"/>
							<path class="st14" d="M138.7,205.7c1.9,0,3.5,0,5.1,0c0.6,0,1.1,0.2,1.6,0.9c-1.2,0.2-2.4,0-3.5,0
								C140.9,206.7,139.6,207.2,138.7,205.7z"/>
							<path class="st15" d="M94.3,208.8c1-1.5,5-1.9,6.2-0.6C98.3,208.4,96.4,208.7,94.3,208.8z"/>
							<path class="st14" d="M85.9,209.8c-2,0.2-4,0.5-6.1,0.9c0.2-0.6,0.5-1.1,1.2-1.1c1.1-0.1,2.2-0.2,3.3-0.4
								C85.1,208.9,85.5,209.2,85.9,209.8z"/>
							<path class="st14" d="M160.6,207.4c-2.1-0.1-4-0.2-6.1-0.2c0.4-0.6,0.7-1,1.5-0.9c0.9,0.1,1.9,0.1,2.9,0.1
								C159.6,206.3,160.2,206.6,160.6,207.4z"/>
							<path class="st14" d="M124.6,207.1c0.9-1.5,5-1.6,6.1-0.4C128.7,206.8,126.7,206.9,124.6,207.1z"/>
							<path class="st14" d="M49.9,215.7c-2,0.5-4,1-5.9,1.5c0.2-0.9,0.7-1.2,1.5-1.4c1-0.1,1.9-0.4,2.7-0.6
								C48.8,215.1,49.4,215,49.9,215.7z"/>
							<path class="st14" d="M147.9,194.5c-0.4-2.4-0.4-2.4,1.6-2.2c0.6,0,1.2,0.1,1.7,0.1s0.5,0.4,0.5,0.6c0,0.4-0.2,0.5-0.6,0.4
								C150,193.2,148.8,193.2,147.9,194.5z"/>
							<path class="st15" d="M37.2,206.2c-0.4-2.1-0.4-2.1,1.5-2.6c0.6-0.1,1.1-0.2,1.7-0.4c0.2,0,0.5-0.2,0.6,0.1
								c0,0.4,0,0.6-0.4,0.7C39.2,204.3,38,204.8,37.2,206.2z"/>
							<path class="st15" d="M55,199.7c0,0.5,0.1,1,0.1,1.4c0,0.2,0.2,0.7-0.1,0.7c-0.4,0.1-0.9-0.2-0.9-0.6
								c-0.1-1.1-0.2-2.4-0.2-3.5c0-0.4,0.4-0.4,0.6-0.4c0.4,0,0.4,0.2,0.4,0.5C55,198.5,55,199.1,55,199.7z"/>
							<path class="st15" d="M166,195.4c-0.6-0.4-1-0.7-1-1.5c0-0.9-0.1-1.9-0.1-2.7c0-0.2-0.1-0.5,0.2-0.6c0.4,0,0.6,0.1,0.6,0.5
								C165.8,192.4,165.9,193.8,166,195.4z"/>
							<path class="st14" d="M98.8,205.2c-1.5-0.6-1-1.9-1.2-3C98.6,202.8,99,203.5,98.8,205.2z"/>
							<path class="st13" d="M83.2,130c-0.5,0.1-0.6-0.1-0.9-0.5c-1.1-2.9-2.2-5.8-3.3-8.7c-0.2-0.5-0.1-0.7,0.4-1.1
								c2.2-1.7,4.3-3.6,6.6-5.3c0.4-0.4,0.7-0.4,1.1-0.1c2.4,1.5,4.7,3.1,7.1,4.6c0.5,0.2,0.6,0.6,0.5,1.1
								c-0.7,2.7-1.5,5.5-2.2,8.2c-0.1,0.4-0.2,0.7-0.7,0.7C88.8,129.3,85.9,129.7,83.2,130z"/>
							<path class="st13" d="M130.4,127.2c-2.9,0-5.6,0-8.3,0c-0.5,0-0.7-0.1-0.9-0.6c-1-2.7-2.1-5.3-3.1-8.1
								c-0.2-0.5-0.1-0.7,0.4-1.1c2.1-1.7,4.3-3.6,6.4-5.3c0.4-0.4,0.6-0.4,1.1-0.1c2.4,1.6,4.8,3.1,7.3,4.7
								c0.4,0.2,0.5,0.5,0.4,0.9c-0.9,3-1.6,5.9-2.4,9C131.1,127.1,130.9,127.4,130.4,127.2z"/>
							<path class="st3" d="M106.3,120.8c1.4-0.1,2.7-0.1,4.2-0.2c0.5,0,0.9,0.1,1.1,0.6c1,2.6,2,5.3,3.1,7.9c0.2,0.5,0.1,0.7-0.2,1
								c-2.2,1.7-4.5,3.6-6.7,5.3c-0.4,0.2-0.6,0.4-1.1,0.1c-2.4-1.5-4.8-3.1-7.2-4.6c-0.5-0.2-0.5-0.6-0.4-1.1
								c0.7-2.7,1.5-5.5,2.1-8.2c0.1-0.6,0.4-0.7,1-0.7C103.5,120.9,104.9,120.8,106.3,120.8z"/>
							<path class="st3" d="M105.9,113.9c-1.4,0.1-2.7,0.1-4.2,0.2c-0.5,0-0.7-0.1-1-0.6c-1-2.6-2.1-5.3-3.1-7.9
								c-0.2-0.5-0.1-0.7,0.2-1c2.2-1.7,4.5-3.6,6.6-5.5c0.4-0.2,0.6-0.4,1.1-0.1c2.4,1.6,4.8,3.1,7.3,4.6c0.4,0.2,0.5,0.5,0.4,1
								c-0.7,2.7-1.5,5.5-2.1,8.2c-0.1,0.6-0.5,0.7-1,0.7C108.6,113.6,107.3,113.7,105.9,113.9z"/>
							<path class="st16" d="M92.4,110.1h0.1c0,0,0,0,0,0.1C92.4,110.1,92.4,110.1,92.4,110.1L92.4,110.1z"/>
							<path class="st11" d="M81.7,196.9c-0.1-2.6-0.1-2.6,2.5-2.9c2.4-0.2,4.7-0.5,7.1-0.7c1.1-0.1,1.4,0,1.4,1.2
								c0.1,0.9,0.1,1.9,0.1,2.7c0.1,0.9-0.4,1.2-1.1,1.4c-3.1,0.4-6.2,0.7-9.2,1.1c-0.5,0-0.6-0.1-0.6-0.6
								C81.9,198.3,81.7,197.5,81.7,196.9z M90.8,194.4c-0.9,0.1-1.7,0.2-2.5,0.2c-1.5,0.1-3.1,0.4-4.6,0.5c-0.4,0-0.9,0-0.9,0.6
								c0,0.7,0.1,1.4,0.1,2.1c0,0.2,0.1,0.4,0.5,0.4c0.2,0,0.5,0,0.5-0.4c0-0.4,0-0.6,0-1c-0.1-0.6,0.1-0.7,0.7-0.9
								c2.1-0.2,4.1-0.5,6.2-0.7c0.4,0,0.9,0,0.7-0.6C91.4,194.2,91,194.4,90.8,194.4z"/>
							<path class="st17" d="M181.6,198.9c0.1,1.4,0.1,2.6,0.2,4c0,0.7-0.2,1.1-1,1.1c-3-0.4-6.1-0.6-9-1c-0.6-0.1-1-0.5-1-1.1
								c-0.1-2.7-0.4-5.5-0.5-8.2c0-0.7,0.4-1.1,1.1-1c3,0.4,5.8,0.6,8.8,1c0.7,0.1,1.1,0.5,1.2,1.2
								C181.5,196.1,181.5,197.5,181.6,198.9z M171.7,198c0.1,1.1,0.1,2.2,0.2,3.3c0,0.4,0.1,0.6,0.6,0.6c0.5,0,0.4-0.4,0.4-0.6
								c-0.1-1.4-0.1-2.7-0.2-4.1c-0.1-2.5-0.1-2.5,2.4-2.1c1.6,0.2,3.1,0.4,4.7,0.5c0.2,0,0.6,0.1,0.6-0.4c0-0.4-0.1-0.6-0.5-0.6
								c-0.1,0-0.2-0.1-0.5-0.1c-2.2-0.2-4.5-0.5-6.7-0.7c-0.9-0.1-1.1,0.2-1.1,1.1C171.6,195.9,171.6,196.9,171.7,198z"/>
							<path class="st17" d="M59.7,203c-0.1-1.2-0.1-2.6-0.2-3.8c0-0.9,0.2-1.4,1.1-1.5c2.9-0.5,5.6-1,8.4-1.4c1-0.1,1.2,0,1.4,1.1
								c0.1,2.6,0.2,5.2,0.5,7.8c0,0.7-0.2,1.2-1,1.4c-3,0.5-5.9,1-8.9,1.5c-0.7,0.1-0.9-0.4-1-1C59.8,205.7,59.7,204.3,59.7,203z
								 M60.8,203.1c0,1,0.1,2,0.2,3c0,0.2-0.2,0.7,0.4,0.7s0.6-0.4,0.5-0.9c-0.1-1.7-0.2-3.3-0.2-5.1c0-1.1,0.2-1.5,1.2-1.6
								c1.9-0.4,3.8-0.6,5.7-0.9c0.4,0,0.7,0,0.7-0.6c-0.1-0.6-0.5-0.4-0.9-0.4c-2.4,0.4-4.6,0.7-6.9,1.2c-0.7,0.1-1,0.6-0.9,1.4
								C60.7,201,60.7,202,60.8,203.1z"/>
							<path class="st11" d="M109.5,191.7c1.4-0.1,2.7-0.1,4.2-0.2c1,0,1.2,0.1,1.4,1.2c0.1,2.6,0.4,5.2,0.5,7.8
								c0,1-0.2,1.4-1.2,1.4c-2.7,0.1-5.6,0.4-8.3,0.5c-1,0-1.4-0.1-1.4-1.2c-0.1-2.6-0.2-5.3-0.5-7.9c-0.1-0.9,0.4-1.2,1.2-1.4
								C106.8,191.8,108.1,191.7,109.5,191.7z M109.9,192.7c-1.1,0.1-2.1,0.1-3.2,0.2c-1.1,0.1-1.5,0.4-1.5,1.5
								c0.1,2.1,0.2,4.1,0.4,6.2c0,0.4,0.1,0.7,0.6,0.7c0.6,0,0.5-0.5,0.4-0.9c-0.1-1.6-0.2-3.3-0.2-5c-0.1-1.4,0.1-1.5,1.5-1.6
								c1.9-0.1,3.7-0.2,5.5-0.4c0.4,0,0.7,0,0.7-0.5c0-0.6-0.5-0.5-0.9-0.5C112.1,192.6,111,192.6,109.9,192.7z"/>
							<path class="st14" d="M90.8,194.4c0.2,0,0.6-0.2,0.7,0.4c0.1,0.6-0.4,0.5-0.7,0.6c-2.1,0.2-4.1,0.5-6.2,0.7
								c-0.6,0-0.7,0.2-0.7,0.9c0,0.4,0,0.6,0,1c0,0.4-0.2,0.4-0.5,0.4c-0.2,0-0.4-0.1-0.5-0.4c0-0.7-0.1-1.4-0.1-2.1
								c0-0.6,0.6-0.5,0.9-0.6c1.5-0.2,3.1-0.4,4.6-0.5C89.2,194.7,89.9,194.5,90.8,194.4z"/>
							<path class="st14" d="M171.7,198c-0.1-1-0.1-2.1-0.1-3.1c0-0.9,0.2-1.1,1.1-1.1c2.2,0.2,4.5,0.5,6.7,0.7
								c0.1,0,0.4,0.1,0.5,0.1c0.4,0,0.5,0.2,0.5,0.6c0,0.5-0.4,0.4-0.6,0.4c-1.6-0.1-3.1-0.4-4.7-0.5c-2.5-0.4-2.5-0.4-2.4,2.1
								c0.1,1.4,0.1,2.7,0.2,4.1c0,0.2,0.1,0.6-0.4,0.6c-0.4,0-0.5-0.2-0.6-0.6C171.8,200.1,171.7,199,171.7,198z"/>
							<path class="st14" d="M60.8,203.1c0-1-0.1-2.1-0.2-3.1c0-0.7,0.2-1.2,0.9-1.4c2.2-0.4,4.6-0.9,6.9-1.2c0.2,0,0.7-0.2,0.9,0.4
								c0.1,0.6-0.2,0.6-0.7,0.6c-1.9,0.2-3.8,0.6-5.7,0.9c-1,0.1-1.4,0.5-1.2,1.6c0.1,1.7,0.2,3.3,0.2,5.1c0,0.5,0,0.9-0.5,0.9
								c-0.6,0-0.4-0.5-0.4-0.7C60.9,205.1,60.8,204.1,60.8,203.1z"/>
							<path class="st15" d="M109.9,192.7c1.1-0.1,2.2-0.1,3.3-0.2c0.4,0,0.7-0.1,0.9,0.5c0,0.5-0.4,0.5-0.7,0.5
								c-1.9,0.1-3.7,0.2-5.5,0.4c-1.4,0.1-1.5,0.2-1.5,1.6c0.1,1.6,0.2,3.3,0.2,5c0,0.4,0.2,0.7-0.4,0.9c-0.6,0-0.6-0.4-0.6-0.7
								c-0.1-2.1-0.2-4.1-0.4-6.2c0-1.1,0.2-1.5,1.5-1.5C107.8,192.8,108.8,192.7,109.9,192.7z"/>
						</g>
					</g>
				</g>
			</g>
		</g>
	</g>
</g>
</svg>
