<?xml version="1.0" encoding="utf-8"?>
<!-- Generator: Adobe Illustrator 24.1.0, SVG Export Plug-In . SVG Version: 6.00 Build 0)  -->
<svg version="1.1" id="Layer_1" xmlns="http://www.w3.org/2000/svg" xmlns:xlink="http://www.w3.org/1999/xlink" x="0px" y="0px"
	 viewBox="0 0 400 400" style="enable-background:new 0 0 400 400;" xml:space="preserve">
<style type="text/css">
	.st0{fill:#BBA388;}
	.st1{fill:#FDFDFC;}
</style>
<g id="iga6hr_1_">
	<g>
		<path class="st0" d="M199.6,350.9c-57.2,0-114.3,0-171.5,0.1c-3.1,0-4.2-0.5-4.2-4c0.1-98,0.1-196.1,0-294.1c0-3.5,1.1-4,4.2-4
			C142.5,49,257,49,371.4,49c4.6,0,4.1-0.5,4.1,4.2c0,97.8,0,195.7,0,293.5c0,4.8,0.6,4.2-4.4,4.2
			C313.9,351,256.8,350.9,199.6,350.9z M200,75c-13.9,0-27.8,0-41.7,0c-35,0-70.1,0-105.1,0c-1.8,0-3.3-0.3-3.3,2.5
			c0.1,24.8,0.1,49.7,0,74.5c0,2.1,0.9,2.5,2.7,2.5c3.8-0.1,7.6-0.2,11.4,0c2.7,0.2,3.5-0.6,3.5-3.4c-0.1-18.2,0-36.4-0.2-54.7
			c0-3.4,1-4.1,4.2-4.1c85.5,0.1,170.9,0.1,256.4,0c3.4,0,4.1,1,4.1,4.2c-0.2,18.2,0,36.4-0.1,54.7c0,2.5,0.6,3.5,3.2,3.3
			c3.6-0.2,7.2-0.3,10.7,0c2.9,0.2,3.6-0.7,3.6-3.6c-0.1-24-0.1-47.9,0-71.9c0-3.2-0.7-4.1-4.1-4.1C297,75,248.5,75,200,75z
			 M199.7,324.9c3.6,0,7.2,0,10.7,0c45.2,0,90.5,0,135.7,0c1.7,0,3.4,0.4,3.3-2.4c-0.1-24.8-0.1-49.7,0-74.5c0-2.1-0.7-2.6-2.6-2.5
			c-3.8,0.1-7.6,0.2-11.4,0c-3-0.2-3.5,0.9-3.5,3.7c0.1,18.1,0,36.2,0.1,54.3c0,3.3-0.9,4.1-4.1,4.1c-85.5-0.1-170.9-0.1-256.4,0
			c-3.3,0-4.2-0.8-4.1-4.1c0.2-18,0-36,0.2-54c0-3-0.6-4.3-3.9-4c-3.2,0.3-6.5,0.3-9.8,0c-3.1-0.3-4,0.6-4,3.8
			c0.2,23.7,0.1,47.5,0.1,71.3c0,5-0.5,4.4,4.3,4.4C102.8,324.9,151.3,324.9,199.7,324.9z M67.5,191.1c1.4,0.8,1.6,2,2,2.9
			c5.1,10.8,10.1,21.6,15.1,32.4c0.7,1.6,1.5,2.3,3.4,2.2c3.1-0.2,6.3-0.2,9.4,0c2,0.1,2.9-0.7,3.6-2.4c4-8.9,8.2-17.7,12.3-26.5
			c1.4-3.1,2.9-6.1,4.4-9.1c0.2,0.1,0.4,0.1,0.6,0.2c0,1.1,0,2.1,0,3.2c0,10.6,0.1,21.2,0,31.9c0,2.1,0.6,2.8,2.8,2.8
			c4.5-0.1,9.1-0.1,13.7,0c1.9,0,2.7-0.5,2.6-2.5c-0.1-17.3-0.1-34.7,0-52c0-2.2-0.7-2.7-2.8-2.7c-7.2,0.1-14.3,0.2-21.5,0
			c-2.6-0.1-4,0.7-5.1,3.2c-4,9.1-8.3,18.1-12.5,27.1c-0.5,1-0.6,2.3-2,2.8c-0.4-0.7-0.8-1.3-1.1-2c-4.4-9.5-8.8-19.1-13.2-28.6
			c-0.7-1.5-1.3-2.5-3.3-2.5c-7.8,0.1-15.6,0.1-23.4,0c-1.8,0-2.5,0.5-2.5,2.4c0.1,17.6,0.1,35.1,0,52.7c0,1.7,0.6,2.2,2.3,2.2
			c4.2-0.1,8.5-0.1,12.7,0c2.1,0.1,2.6-0.7,2.5-2.7c-0.1-7.7,0-15.4,0-23.1C67.5,199,67.5,195.2,67.5,191.1z M247.2,229.8
			c2.9,0.3,6.1-0.2,9.3-0.6c6.3-0.9,12.3-2.5,17.4-6.5c8.1-6.1,8.9-21.1-2.9-25.4c-2.5-0.9-5.1-1.8-7.7-2.5
			c-7.8-2.2-16-2.5-23.9-4.4c-1.6-0.4-3.8-0.4-3.8-2.7c0-2.4,2.2-2.6,3.9-3.1c0.5-0.2,1.1-0.1,1.6-0.2c7.4-0.4,14.7,0.2,21.9,2
			c3.4,0.8,7.1,4.3,9.8,2.4c2.6-1.7,3.2-6.2,4.9-9.3c1.1-2.1,0.6-2.9-1.5-3.8c-12.1-5-24.7-6.5-37.6-4.7c-6.8,0.9-13.4,3-18.3,8.2
			c-6.7,7.1-5.2,17.6,3.2,22.4c6.2,3.5,13.2,4.5,20.2,5.6c4.8,0.8,9.7,1.2,14.4,2.5c1.3,0.4,2.7,0.7,2.7,2.3
			c0.1,1.5-1.2,2.2-2.4,2.7c-1.5,0.6-3.1,0.9-4.7,1c-11.2,0.7-22-1.1-32.3-5.6c-1.8-0.8-2.6-0.7-3.4,1.2c-1.1,2.9-2.5,5.8-3.9,8.6
			c-1,2-0.4,2.9,1.5,3.6C225.6,227.3,235.9,230,247.2,229.8z M320.6,171.4c-8.7,0-17.3,0-26,0c-2,0-2.9,0.5-2.9,2.7
			c0.1,17.2,0.1,34.5,0,51.7c0,2.1,0.7,2.8,2.8,2.8c17.5-0.1,34.9-0.1,52.4,0c1.9,0,2.8-0.5,2.6-2.5c-0.2-2.6-0.2-5.2,0-7.8
			c0.2-2.7-0.6-3.5-3.4-3.5c-9.8,0.2-19.5,0.1-29.3,0c-6.9-0.1-5.9,1.4-6-6.3c0-2,0.7-2.6,2.7-2.6c5.5,0.1,11.1,0.1,16.6,0
			c3.1-0.1,7.1,1.4,9-0.7c1.9-2,0.3-6,0.6-9.1c0.2-2.4-0.9-2.8-3-2.8c-7.5,0.1-15-0.1-22.4,0.1c-3.2,0.1-3.5-1.3-3.4-3.9
			c0.1-2.5-0.1-4.3,3.4-4.2c10.6,0.3,21.2,0,31.9,0.2c2.8,0,3.6-0.8,3.4-3.5c-0.2-2.6-0.2-5.2,0-7.8c0.1-2.2-0.6-3-2.9-3
			C338,171.4,329.3,171.4,320.6,171.4z M151,200c0,8.7,0,17.3,0,26c0,1.6,0.2,2.6,2.2,2.6c16.7-0.1,33.4-0.1,50.1,0
			c1.7,0,2.3-0.6,2.3-2.3c-0.1-3.6-0.1-7.2,0-10.7c0.1-2.2-0.7-2.7-2.8-2.7c-9.9,0.1-19.7,0-29.6,0.1c-2.5,0-3.3-0.6-3.3-3.2
			c0.1-11.8,0-23.6,0.1-35.4c0-2.1-0.4-3.1-2.8-3c-4.4,0.2-8.9,0.2-13.3,0c-2.4-0.1-2.9,0.9-2.8,3C151,182.9,151,191.4,151,200z"/>
		<path class="st1" d="M200,75c48.5,0,97,0,145.5-0.1c3.3,0,4.1,0.9,4.1,4.1c-0.1,24-0.1,47.9,0,71.9c0,2.9-0.7,3.8-3.6,3.6
			c-3.6-0.3-7.2-0.2-10.7,0c-2.6,0.2-3.3-0.8-3.2-3.3c0.1-18.2,0-36.4,0.1-54.7c0-3.2-0.7-4.2-4.1-4.2c-85.5,0.1-170.9,0.1-256.4,0
			c-3.2,0-4.2,0.6-4.2,4.1c0.2,18.2,0,36.4,0.2,54.7c0,2.8-0.8,3.5-3.5,3.4c-3.8-0.2-7.6-0.1-11.4,0c-1.8,0.1-2.7-0.3-2.7-2.5
			c0.1-24.8,0.1-49.7,0-74.5c0-2.8,1.5-2.5,3.3-2.5c35,0,70.1,0,105.1,0C172.3,75,186.1,75,200,75z"/>
		<path class="st1" d="M199.7,324.9c-48.5,0-97,0-145.5,0c-4.8,0-4.2,0.6-4.3-4.4c0-23.8,0.1-47.5-0.1-71.3c0-3.2,0.9-4.1,4-3.8
			c3.2,0.3,6.5,0.3,9.8,0c3.3-0.3,3.9,1,3.9,4c-0.1,18,0,36-0.2,54c0,3.3,0.9,4.1,4.1,4.1c85.5-0.1,170.9-0.1,256.4,0
			c3.3,0,4.2-0.8,4.1-4.1c-0.2-18.1,0-36.2-0.1-54.3c0-2.7,0.5-3.9,3.5-3.7c3.8,0.3,7.6,0.2,11.4,0c1.9-0.1,2.6,0.5,2.6,2.5
			c-0.1,24.8-0.1,49.7,0,74.5c0,2.9-1.6,2.4-3.3,2.4c-45.2,0-90.5,0-135.7,0C206.9,324.9,203.3,324.9,199.7,324.9z"/>
		<path class="st1" d="M67.5,191.1c0,4.1,0,7.9,0,11.8c0,7.7,0,15.4,0,23.1c0,1.9-0.5,2.7-2.5,2.7c-4.2-0.1-8.5-0.1-12.7,0
			c-1.7,0-2.3-0.5-2.3-2.2c0-17.6,0-35.1,0-52.7c0-1.9,0.7-2.4,2.5-2.4c7.8,0.1,15.6,0.1,23.4,0c2,0,2.6,1,3.3,2.5
			c4.4,9.5,8.8,19.1,13.2,28.6c0.3,0.7,0.7,1.3,1.1,2c1.4-0.5,1.6-1.8,2-2.8c4.2-9,8.5-18,12.5-27.1c1.1-2.5,2.5-3.2,5.1-3.2
			c7.2,0.2,14.3,0.1,21.5,0c2.1,0,2.8,0.5,2.8,2.7c-0.1,17.3-0.1,34.7,0,52c0,2.1-0.7,2.6-2.6,2.5c-4.6-0.1-9.1-0.1-13.7,0
			c-2.1,0.1-2.8-0.6-2.8-2.8c0.1-10.6,0-21.2,0-31.9c0-1.1,0-2.1,0-3.2c-0.2-0.1-0.4-0.1-0.6-0.2c-1.5,3-2.9,6.1-4.4,9.1
			c-4.1,8.8-8.3,17.6-12.3,26.5c-0.8,1.7-1.7,2.5-3.6,2.4c-3.1-0.2-6.3-0.2-9.4,0c-1.8,0.1-2.7-0.7-3.4-2.2
			c-5-10.8-10-21.6-15.1-32.4C69.1,193,68.9,191.9,67.5,191.1z"/>
		<path class="st1" d="M247.2,229.8c-11.3,0.2-21.6-2.6-31.7-6.4c-1.9-0.7-2.5-1.6-1.5-3.6c1.4-2.8,2.8-5.6,3.9-8.6
			c0.8-1.9,1.6-2,3.4-1.2c10.3,4.5,21.1,6.3,32.3,5.6c1.6-0.1,3.2-0.4,4.7-1c1.2-0.5,2.5-1.2,2.4-2.7c-0.1-1.6-1.4-1.9-2.7-2.3
			c-4.7-1.4-9.6-1.8-14.4-2.5c-6.9-1.1-13.9-2.1-20.2-5.6c-8.4-4.8-9.9-15.3-3.2-22.4c5-5.3,11.5-7.3,18.3-8.2
			c12.9-1.8,25.4-0.3,37.6,4.7c2.1,0.9,2.6,1.7,1.5,3.8c-1.7,3.2-2.3,7.6-4.9,9.3c-2.8,1.9-6.5-1.5-9.8-2.4
			c-7.2-1.8-14.5-2.4-21.9-2c-0.5,0-1.1,0-1.6,0.2c-1.7,0.6-4,0.7-3.9,3.1c0,2.3,2.2,2.3,3.8,2.7c7.9,1.9,16.1,2.2,23.9,4.4
			c2.6,0.7,5.2,1.6,7.7,2.5c11.8,4.3,11,19.3,2.9,25.4c-5.2,4-11.2,5.6-17.4,6.5C253.3,229.7,250.1,230.1,247.2,229.8z"/>
		<path class="st1" d="M320.6,171.4c8.7,0,17.3,0.1,26-0.1c2.3,0,3,0.7,2.9,3c-0.2,2.6-0.2,5.2,0,7.8c0.2,2.6-0.6,3.5-3.4,3.5
			c-10.6-0.2-21.3,0.1-31.9-0.2c-3.6-0.1-3.4,1.7-3.4,4.2c-0.1,2.5,0.2,4,3.4,3.9c7.5-0.3,15,0,22.4-0.1c2.1,0,3.3,0.4,3,2.8
			c-0.3,3.1,1.3,7.1-0.6,9.1c-1.9,2.1-5.9,0.6-9,0.7c-5.5,0.1-11.1,0.1-16.6,0c-1.9,0-2.7,0.5-2.7,2.6c0.2,7.7-0.8,6.2,6,6.3
			c9.8,0.1,19.5,0.1,29.3,0c2.8,0,3.6,0.8,3.4,3.5c-0.2,2.6-0.2,5.2,0,7.8c0.1,2.1-0.7,2.5-2.6,2.5c-17.5-0.1-34.9-0.1-52.4,0
			c-2.2,0-2.8-0.7-2.8-2.8c0.1-17.2,0.1-34.5,0-51.7c0-2.2,0.9-2.7,2.9-2.7C303.3,171.4,311.9,171.4,320.6,171.4z"/>
		<path class="st1" d="M151,200c0-8.6,0.1-17.1,0-25.7c0-2.2,0.4-3.1,2.8-3c4.4,0.2,8.9,0.2,13.3,0c2.4-0.1,2.8,0.9,2.8,3
			c-0.1,11.8,0,23.6-0.1,35.4c0,2.6,0.8,3.3,3.3,3.2c9.9-0.1,19.7,0,29.6-0.1c2.1,0,2.9,0.5,2.8,2.7c-0.1,3.6-0.1,7.2,0,10.7
			c0,1.7-0.6,2.3-2.3,2.3c-16.7,0-33.4-0.1-50.1,0c-2.1,0-2.2-1-2.2-2.6C151,217.3,151,208.6,151,200z"/>
	</g>
</g>
</svg>
