<?xml version="1.0" encoding="utf-8"?>
<!-- Generator: Adobe Illustrator 21.0.0, SVG Export Plug-In . SVG Version: 6.00 Build 0)  -->
<svg version="1.1" id="Layer_1" xmlns="http://www.w3.org/2000/svg" xmlns:xlink="http://www.w3.org/1999/xlink" x="0px" y="0px"
	 viewBox="0 0 400 400" style="enable-background:new 0 0 400 400;" xml:space="preserve">
<style type="text/css">
	.st0{fill:#FFFFFF;}
	.st1{clip-path:url(#SVGID_2_);}
	.st2{fill:#F7BB32;}
	.st3{fill:#D9498A;}
	.st4{fill:#46A9B6;}
	.st5{opacity:0.3;clip-path:url(#SVGID_2_);}
</style>
<circle class="st0" cx="200" cy="200" r="188.7"/>
<g>
	<defs>
		<circle id="SVGID_1_" cx="200" cy="200" r="188.7"/>
	</defs>
	<clipPath id="SVGID_2_">
		<use xlink:href="#SVGID_1_"  style="overflow:visible;"/>
	</clipPath>
	<g class="st1">
		<g>
			<path class="st0" d="M119.3,140c0,0,0.1,0,0.1,0c0,0,0.1,0,0.1,0.1c0,0,0,0.1-0.1,0.1c0,0-0.1,0-0.1,0c-0.1,0-0.3,0-0.3-0.1
				C119,140,119.2,140.1,119.3,140"/>
			<g>
				<path class="st2" d="M96.9,307.5c-3.3,20-6.8,38.9-6.4,58.5c-10.1-9.7-20.4-18.9-29.5-29.2c-3.9-4.4-3.9-9.9-1.5-15.2
					c1.1-2.6,2.9-4.7,4.9-6.7C90,289,115.7,263,141.5,237.1c8.2-8.3,16.8-8.4,25.2-0.3c3.6,3.5,7.4,6.7,10.8,11.2
					c-5.4-0.9-10.3-1.1-15.1-0.6c-9.3,1-14.6,6.2-15,15.6c-0.4,12.9,3.8,24,13.8,32.6c4.4,3.8,7.2,3.9,12.4,1.1
					c3.4-1.9,6.9-3.7,10.4-5.4c8.8-4.2,9.4-4.2,18.6-1c1.1-1,0.5-2.1,0-3.1c-3.4-7.8-12.7-15.8-24.5-9.6c-4.8,2.5-9.7,1.4-14.2-0.4
					c-4.6-1.9-4.9-7.5-0.8-10.8c4.7-3.7,10.1-4.2,15.8-2.9c0.6,0.1,1.3,0.3,1.9,0.6c14.1,7.2,24.4,17.3,25.7,34.2
					c0.3,4.6-0.8,9.1-2.1,13.5c-4.2,14.7-11.1,28.2-19.3,41c-5.7,8.8-11.9,17.2-18.9,24.9c-5.9,6.5-13.1,11.2-21.3,14.4
					c-5.4,2.1-10.8,1.7-16.3,0.1c-11.1-3-18.9-9.8-24-20.1c-4.5-9.1-6.5-18.7-7-28.8c-0.5-9.9-0.3-19.9-0.2-29.8
					C97.5,311.8,97.8,310.1,96.9,307.5"/>
				<path class="st3" d="M202.3,131.7c-8,8.2-16,16.3-23.9,24.5c-2.9,3-5.9,6-8.9,8.9c-6.8,6.5-14.9,6.9-22.2,1
					c-1.3-1.1-2.4-2.3-3.6-3.5c-26.4-26.1-52.7-52.3-79.1-78.4c-0.4-0.4-0.7-0.7-1.1-1.1C56,75.6,55.9,66.8,63.3,59
					c5.7-6,11.6-11.7,17.4-17.6C92.1,29.9,103.6,18.3,115,6.8c1.2-1.2,2.1-2.7,4.1-3.3c0.5,1.6-0.4,2.9-0.8,4.2
					c-2.3,8.5-1.6,16.5,2.6,24.4c4.7,8.8,11.3,15.8,19.4,21.5c5.9,4.2,11.8,8.3,17.7,12.4c4,2.8,7.8,5.8,11.1,9.4
					c2.6,2.8,4.8,6,6.1,10.2c-18.6-21-41.9-34.1-66.8-44.6c-5.3-2.2-10.8-4.2-17.3-4.7c1.7,2.2,3.5,2.6,5.1,3.5
					c9.6,5,18.7,10.6,26.5,18.2c4.4,4.3,7.9,9.1,10.5,14.7c4.6,9.8,7.8,20,11.9,29.9c1.9,4.7,4,9.3,7,13.4
					c8.8,12.2,21,17.8,35.8,18.1c4.8,0.1,9.2-1.9,13.6-3.2C201.8,131.1,202.1,131.4,202.3,131.7"/>
				<path class="st3" d="M217.8,114.8c0.9-3.6,2.7-6.8,3.4-10.5c1-5.4,0.7-10.6-1.1-15.8c-4.5-12.9-12.8-22.3-25.3-27.9
					C184.6,55.9,174,52,164,46.8c-8.5-4.4-16.7-9.3-24.2-15.4c-8.9-7.1-14.3-16.3-17-27.3c-0.8-3.1-0.2-5.3,2.2-7.6
					c6.5-6.3,13-12.7,19.2-19.3c8.6-9.2,18.5-7.1,25.6,0C191.9-0.8,214,21,236.1,42.9c5.3,5.2,10.6,10.3,15.7,15.6
					c6.8,6.9,7.2,15.9,0.4,23c-10.8,11.3-22,22.2-33,33.3c-0.2,0.2-0.6,0.3-0.9,0.4C218.2,115.1,218,115,217.8,114.8"/>
				<path class="st3" d="M201.6,130.9c0.4-0.6,1.1-1.1,1.6-0.6c0.6,0.7-0.5,0.9-0.9,1.4C202.1,131.4,201.8,131.1,201.6,130.9"/>
				<path class="st3" d="M218.4,115.2c-0.3,0.5-0.5,1.5-1.1,1c-0.6-0.4,0-1.1,0.6-1.4C218,115,218.2,115.1,218.4,115.2"/>
				<path class="st4" d="M262.1,180.4c2.2,1.1,4.2,2,6.1,3.1c2.2,1.3,3.8,0.9,5.2-1.1c0.2-0.3,0.5-0.5,0.7-0.7
					c2.9-2.9,2.9-2.9,5.1,0.3c2.6,3.8,2.6,3.8,7.2,2.9c1.3-0.3,2.7-0.3,4.2-0.5c0.9,2.3-0.3,4.4-0.4,6.5c-0.2,2.6,0.5,4.2,3,5
					c1.6,0.5,3,1.4,4.5,2.2c0.1,1.9-1.4,2.9-2.4,3.7c-3.3,2.7-3.2,5.5-1,8.8c0.7,1.1,1.5,2.3,1.6,4c-1.3,1-3.1,1.2-4.6,1.2
					c-3.8,0.1-5.3,2.1-5.7,5.6c-0.1,1.2-0.5,2.3-0.8,3.5c-2.2,0.4-3.7-0.9-5.3-1.7c-2.6-1.4-4.4-0.9-6.1,1.4c-1,1.3-2.3,2.5-3.5,3.8
					c-2-1.6-2.6-3.8-3.7-5.6c-1-1.7-2-2.5-4.1-1.9c-2.1,0.7-4.3,0.9-6.6,1.3c-1.3-2.1-0.5-4.3-0.3-6.4c0.6-4.6,0.7-4.6-3.3-6.7
					c-1-0.6-2-1.1-3.3-1.8c0.5-1.9,1.9-2.9,3.1-4c4.1-3.9,3.5-3.6,1.3-7.6c-0.1-0.1-0.2-0.3-0.2-0.4c-1.8-3.6-1.8-3.6,1.9-4.6
					c0.8-0.2,1.6-0.6,2.5-0.6c2.5-0.2,3.5-1.5,3.6-4C260.8,184.3,260.7,182.4,262.1,180.4"/>
				<path class="st2" d="M223.6,294.4c1.8,0.1,2.3,1,3,1.7c6.4,6.3,12.8,12.6,19.1,18.9c7.2,7.3,7.4,15.8,0.7,23.5
					c-0.8,0.9-1.6,1.6-2.4,2.5c-24.9,25.1-49.8,50.3-74.8,75.4c-0.7,0.7-1.4,1.4-2.1,2.1c-8.7,8.5-19.3,7.3-26.6-3.1
					c10.1-0.9,18.1-6,25.7-12c18.6-14.8,32.2-33.6,43-54.5c6-11.6,10.7-23.7,13-36.7C223.2,306.3,223.6,300.5,223.6,294.4"/>
				<path class="st4" d="M290.2,235.4c7.2,3.7,13.6,7,20.1,10.3c1.2,0.6,2.2,1.6,2.9,2.8c2.3,3.8,4.5,7.5,7,11.2
					c1.3,1.9,1.1,3.4-0.6,4.8c-0.3,0.2-0.5,0.5-0.7,0.7c-8.2,8.7-9.5,9.2-21.5,9.8c-2.1,0.1-3.6-0.4-4.5-2.3
					c-0.1-0.2-0.2-0.3-0.3-0.4c-7-10.6-7-10.6-4.7-23C288.7,244.9,289.3,240.6,290.2,235.4"/>
				<path class="st4" d="M256,169.8c-7.5-2.9-14.4-6.1-21.2-9.3c-1.1-0.5-1.8-1.5-2.4-2.5c-2.2-3.6-4.3-7.3-6.6-10.9
					c-1-1.6-0.9-2.7,0.4-4c3.6-3.5,7.2-7.2,10.7-10.8c1.2-1.2,2.5-1.7,4.1-1.6c0.5,0,1,0.1,1.5,0c5.8-0.5,9.6,1.5,12.5,7.1
					c3,5.8,5.2,11.1,3.6,17.8C257.5,160.1,257.3,164.8,256,169.8"/>
				<path class="st4" d="M306.3,220.4c6.2-1.2,12.2-1.7,17.7-3.4c7.4-2.3,13.1,1.3,19.1,4.2c1.4,0.7,1.9,1.8,2,3.3c0,1,0.1,2,0.1,3
					c0.3,11.1-1,13.9-9.6,20.8c-1.2,1-2.3,1.2-3.7,0.5c-4.5-2.3-9.1-4.5-13.6-6.8c-0.7-0.4-1.3-1.1-1.8-1.7
					c-0.4-0.5-0.6-1.2-0.9-1.8C312.6,232.6,309.6,226.8,306.3,220.4"/>
				<path class="st4" d="M278.9,167.2c-3.8-6.9-7.5-13.5-11.2-20.1c-0.7-1.3-0.6-2.6-0.4-3.9c0.4-2.8,0.8-5.7,1.1-8.5
					c0.5-5.7,0.5-5.7,6.3-6.9c11.4-2.3,11.4-2.2,21.5,3.5c1.5,0.8,2.4,1.7,2.1,3.5c-0.6,4.4-1,8.7-1.5,13.1c-0.1,1-0.5,2-1.2,2.7
					C290.3,156,284.8,161.5,278.9,167.2"/>
				<path class="st4" d="M240.2,186c-8.1,2.2-15.6,3.7-23.2,4c-5.6,0.2-10.1-3.5-14.6-6.3c-0.6-0.4-0.8-1.4-1-2.2
					c-2-6.6-2.8-13,4.2-17.4c0.3-0.2,0.5-0.5,0.7-0.7c5.8-5.8,5.8-6,13.1-2.8c12.2,5.4,8.8,2.1,14.9,13.7
					C236.1,178,238,181.7,240.2,186"/>
				<path class="st4" d="M236.4,209.1c-6.1,6.3-11.6,12-17.1,17.7c-1,1-2.2,1.5-3.6,1.7c-3.2,0.4-6.4,0.7-9.5,1.4
					c-2.3,0.5-3.5-0.4-4.4-2.3c-1.5-3.1-3.1-6-4.7-9c-0.8-1.5-1.2-3-0.8-4.9c0.6-2.3,0.9-4.7,1.2-7c1.1-7.7,0.9-5.6,7.3-7.3
					c6.8-1.9,12.9-0.6,18.9,3.1C227.7,204.9,232,206.8,236.4,209.1"/>
				<path class="st4" d="M310.1,196.9c5.7-6.1,10.9-11.6,16-17.2c1-1.1,2.2-1.5,3.6-1.7c1.7-0.3,3.3-0.5,5-0.8
					c8.9-1.8,6.9-1.1,11.2,5.4c5,7.5,2.4,14.9,1.3,22.5c-0.2,1.2-0.9,1.7-2,1.9c-3.6,0.7-7.3,1.4-10.9,2c-1.2,0.2-2.3-0.2-3.4-0.8
					C324.2,204.5,317.5,200.9,310.1,196.9"/>
				<path class="st4" d="M267.8,240.4c3.4,6.2,7,12.7,10.6,19.2c0.7,1.2,1,2.5,0.7,3.9c-0.6,3.7-1.3,7.3-1.9,11
					c-0.3,2.2-1.6,3.3-3.6,3.7c-3.5,0.7-7,1.3-10.5,2c-1.6,0.3-3-0.2-4.4-0.9c-2.8-1.6-5.6-3.2-8.5-4.6c-2.3-1.1-2.8-2.7-2.4-5
					c0.1-0.3,0.1-0.7,0.1-1c0.2-7.3,3.3-13.2,8.8-18.1C260.6,247.4,264.1,244,267.8,240.4"/>
				<path class="st4" d="M244,230.6c1.9-0.2,2.5,0.8,2.2,2.5c-1,6.9-1.9,13.7-2.9,20.6c-0.2,1.6-1.1,2.8-2.2,3.9c-1,1-1.9,2-2.8,2.9
					c-5.8,6.2-6.3,6.6-13.2,1.7c-5-3.6-9.6-7.9-12.8-13.5c-1.5-2.6-1.1-4.3,1-6.2c2.2-2.1,4.2-4.4,6.3-6.6c0.9-1,1.8-2,3.3-2.2
					C230,232.6,237,231.6,244,230.6"/>
				<path class="st4" d="M299.2,175.9c1.1-7.7,2.1-14.7,3-21.7c0.2-1.3,0.8-2.2,1.7-3c2.9-2.9,5.8-5.7,8.6-8.6
					c1.1-1.1,2.1-1.5,3.6-0.7c7.8,4,13.6,9.8,17.4,17.7c0.8,1.6,0.6,2.9-0.6,4.1c-2.3,2.5-4.5,5-6.8,7.6c-0.9,1.1-2.1,1.7-3.5,1.8
					C315.1,173.9,307.6,174.9,299.2,175.9"/>
				<path class="st4" d="M275.6,121.2c-3.5,0.6-6,1.2-8.5,1.5c-2.3,0.3-3.6,1.2-3.8,3.8c-0.2,2.6-0.9,5.2-1.5,8.4
					c-2.2-2-3.2-3.9-4-5.8c-1.4-3.7-4.2-5-7.8-5.3c-1-0.1-2-0.2-3.3-0.4c0.5-2.7,2.7-3.9,4.3-5.4c2.5-2.5,4.4-6.5,7.8-6.8
					c3-0.2,5.8,3.1,8.6,4.9C269.8,117.6,272.2,119.1,275.6,121.2"/>
				<path class="st4" d="M283.5,300.3c-6.2,4.6-12.3,4.8-18.4,1.1c-5.1-3.1-8.9-7.6-13.1-12.2c5-1.9,9.3-2.4,13.8,0.5
					c4.2,2.8,8.9,4.9,13.3,7.3C280.5,297.9,282.1,298.5,283.5,300.3"/>
				<path class="st4" d="M193.4,177.9c-1.8,8.1,3.6,11.4,10.8,14c-3.1,1.7-5.7,1.8-8,2.2c-2.7,0.4-3.6,1.7-4.1,4.2
					c-0.5,2.2-0.1,4.8-2.2,7c-2.9-4.8-5.7-9.4-8.5-14c-0.7-1.1-1-2.1,0.1-3.2c3.5-3.4,6.7-7.2,10.6-10.3
					C192.2,177.5,192.7,177.8,193.4,177.9"/>
				<path class="st4" d="M344.6,214c1.6-1.3,3.2-1.1,4.6-1.1c2.6,0,4-0.9,4.2-3.8c0.1-2.8,0.8-5.6,1.4-9.5c2.7,4.4,5,8,7.2,11.6
					c4.7,7.7,4.6,5.4-1.2,11.5c-2.4,2.6-4.9,5.1-7.9,8.2c-1-2.9-0.7-5.3-0.6-7.5c0.2-3.3-0.6-5.5-4-6.7
					C347.1,216.3,345.6,215.7,344.6,214"/>
				<path class="st4" d="M271.8,285.2c3.2-0.7,5.3-1.4,7.4-1.6c2.5-0.2,3.4-1.7,3.9-3.9c0.5-2.3,0.4-4.7,1.8-6.9
					c1.7,1.4,2.4,3.4,3.1,5.2c1.4,4,4,5,7.9,4.3c1.6-0.3,3.3-0.3,5-0.5c0.8,1.4-0.4,1.9-1,2.5c-2.8,2.9-5.8,5.7-8.5,8.7
					c-1.4,1.4-2.6,1.7-4.4,0.8C282,291.3,277.2,288.8,271.8,285.2"/>
				<path class="st4" d="M370.2,211.6c-2.2-2-3.2-4.7-4.7-7.1c-2.4-4.1-4.7-8.2-7-12.3c-1.8-3.3-1.5-6.7,0.1-10.5
					c4.3,4.1,8.6,7.7,11.8,12.2C374.8,199.8,374.7,205.9,370.2,211.6"/>
				<path class="st4" d="M263.6,106.1c5.9-3.9,11-3.7,16.2-1.1c5.4,2.7,9,7.4,13.4,11.9c-3.9,2.1-7.2,2.8-11,0.4
					C276.4,113.5,270.4,110.2,263.6,106.1"/>
				<path class="st4" d="M176,195c4.1,7.2,7.9,13.7,11.5,20.4c1.3,2.4,1.1,2.5-0.7,9c-4.4-3.9-8.8-7.6-12-12.3
					C171.2,206.8,171.6,201.1,176,195"/>
				<path class="st4" d="M320.6,210.7c-4.6,0.8-9.3,1.5-13.9,2.5c-2.5,0.6-4,0.2-5.2-2.3c-2.1-4.3-1.9-5.3,2.1-8.2
					c1.1-0.7,2-1.2,3.2-0.4c4.4,3,9.2,5.4,14.1,7.5C320.8,210.1,320.7,210.4,320.6,210.7"/>
				<path class="st4" d="M251.3,247.4c0.2-6,0.7-10.7,1.9-15.3c0.8-3.1,2.8-4.3,6.5-4c1.7,0.1,4,2.9,4.3,5c0.1,1.2-0.5,1.9-1.2,2.7
					C259.3,239.4,255.8,242.9,251.3,247.4"/>
				<path class="st4" d="M279.8,249.3c-2-3.9-4.1-7.8-6.2-11.9c-1.7-3.3,1.3-7.5,5.1-7.3c4.2,0.2,5.6,2.2,4.8,6.5
					c-0.7,3.6-1.3,7.3-2,10.9C281.2,248.2,281.4,249.3,279.8,249.3"/>
				<path class="st4" d="M315.9,180.7c-3.6,4.9-7.8,8.3-11.5,12.1c-1.1,1.1-4.5,0-6.2-1.7c-1.7-1.8-0.4-3.8-0.1-5.7
					c0.2-1.4,0.5-2.6,2.3-2.8C305.3,182.1,310.2,181.4,315.9,180.7"/>
				<path class="st4" d="M226.8,195.5c4.8-0.8,9.5-1.6,14.3-2.5c2.2-0.4,3.4,0.3,4.4,2.4c1,2,1.4,3.5-0.4,5.4
					c-2.9,3.1-3,3.3-6.8,1.5c-3.9-1.9-7.8-3.9-11.7-5.9C226.7,196.2,226.7,195.8,226.8,195.5"/>
				<path class="st4" d="M230.8,224.8c3.6-3.7,7.2-7.4,10.8-11.1c2.1-2.1,3.8-0.1,5.4,0.6c2.5,1.1,1.2,3.5,1.3,5.4
					c0,1.4,0,3.3-1.9,3.6c-5,0.8-10.1,1.5-15.2,2.2C231.1,225.3,231,225.1,230.8,224.8"/>
				<path class="st4" d="M238.7,169.8c6.1,1.8,10.3,4.8,15.1,6.4c1.4,0.5,1.6,1.4,1.4,2.8c-0.7,4.5-1.6,5.5-5.4,5.8
					c-1.9,0.1-3.2-0.4-4.1-2.1C243.5,178.7,241.3,174.7,238.7,169.8"/>
				<path class="st4" d="M306.1,235.9c-4.8-1.5-9.1-4.2-13.6-6.5c-1.7-0.9-1.6-4.6-0.1-6.3c2-2.3,6.8-2.2,8.3,0.5
					c2.2,3.8,4.1,7.7,6.1,11.6C306.6,235.4,306.3,235.7,306.1,235.9"/>
				<path class="st4" d="M265,157.3c4,4.3,6.1,9.1,8.5,13.7c0.5,1-2,4.1-3.7,4.9c-2.4,1-7.5-2.6-7.1-5.1
					C263.3,166.5,264.1,162.2,265,157.3"/>
				<path class="st4" d="M293.9,160.9c0.4,5.4-0.8,9.5-1.1,13.7c-0.2,2.6-2.7,4-6.1,3.8c-1.7-0.1-4.3-2.9-4.5-4.7
					c-0.1-0.8,0.3-1.3,0.8-1.8C286.4,168.5,289.8,165.1,293.9,160.9"/>
				<path class="st4" d="M249.4,282c-2.2,1.2-3.7,1.5-5.2,0c-2.5-2.5-5-5-7.5-7.5c-1.2-1.2-1.3-2.3,0.1-3.4c1.4-1.2,2.7-2.4,4.2-3.6
					c1.1,1.6,0.6,2.9,0.4,4.1c-0.6,5.1-0.7,5.1,3.9,7.8C246.5,280.2,247.7,281,249.4,282"/>
				<path class="st4" d="M305.6,130.3c0.5-0.1,0.8-0.2,0.9-0.1c5.7,4.1,5.5,5.3-2.1,10.2C303.9,136.7,305.3,133.5,305.6,130.3"/>
				<path class="st4" d="M200.3,237.3c3-0.4,5.9-0.8,8.8-1.3c0.3,1.5-0.7,2-1.4,2.7C203.8,242.7,203.5,242.6,200.3,237.3"/>
				<path class="st4" d="M351.5,180.1c-2-3.7-3.7-6.7-5.3-9.7C349,172.8,353.9,173.9,351.5,180.1"/>
				<path class="st4" d="M336.7,170c3.8-5.8,4.2-5.9,7.9-1.9C342.2,169.7,339.6,170,336.7,170"/>
				<path class="st4" d="M194.1,227.9c2.3,2.5,3.4,5.1,4.9,8C193.3,232.5,192.8,231.7,194.1,227.9"/>
				<path class="st4" d="M323.5,252c1.8-0.1,2.9,0.7,4,1.4c0.7,0.4,1.5,0.9,0.9,1.9c-0.4,0.7-1,1.3-1.7,1.7c-1,0.5-1.4-0.4-1.8-1.1
					C324.3,254.7,323.4,253.7,323.5,252"/>
				<path class="st4" d="M303.6,127.8c-2.5-1.1-4.6-1.9-6.5-3.4C299.8,122.6,299.8,122.6,303.6,127.8"/>
				<path class="st4" d="M223.2,154.3c-1.8,0-3-1-4.2-1.7c-1-0.5-0.9-1.3-0.3-2c0.7-0.9,1.6-1.2,2.4-0.1
					C222,151.6,222.9,152.7,223.2,154.3"/>
			</g>
		</g>
	</g>
	<g class="st5">
		<g>
			<path class="st0" d="M-122.2,140c0,0,0.1,0,0.1,0c0,0,0.1,0,0.1,0.1c0,0,0,0.1-0.1,0.1c0,0-0.1,0-0.1,0c-0.1,0-0.3,0-0.3-0.1
				C-122.5,140-122.3,140.1-122.2,140"/>
			<g>
				<path class="st2" d="M-144.6,307.5c-3.3,20-6.8,38.9-6.4,58.5c-10.1-9.7-20.4-18.9-29.5-29.2c-3.9-4.4-3.9-9.9-1.5-15.2
					c1.1-2.6,2.9-4.7,4.9-6.7c25.7-25.9,51.4-51.9,77.2-77.8c8.2-8.3,16.8-8.4,25.2-0.3c3.6,3.5,7.4,6.7,10.8,11.2
					c-5.4-0.9-10.3-1.1-15.1-0.6c-9.3,1-14.6,6.2-15,15.6c-0.4,12.9,3.8,24,13.8,32.6c4.4,3.8,7.2,3.9,12.4,1.1
					c3.4-1.9,6.9-3.7,10.4-5.4c8.8-4.2,9.4-4.2,18.6-1c1.1-1,0.5-2.1,0-3.1c-3.4-7.8-12.7-15.8-24.5-9.6c-4.8,2.5-9.7,1.4-14.2-0.4
					c-4.6-1.9-4.9-7.5-0.8-10.8c4.7-3.7,10.1-4.2,15.8-2.9c0.6,0.1,1.3,0.3,1.9,0.6c14.1,7.2,24.4,17.3,25.7,34.2
					c0.3,4.6-0.8,9.1-2.1,13.5c-4.2,14.7-11.1,28.2-19.3,41c-5.7,8.8-11.9,17.2-18.9,24.9c-5.9,6.5-13.1,11.2-21.3,14.4
					c-5.4,2.1-10.8,1.7-16.3,0.1c-11.1-3-18.9-9.8-24-20.1c-4.5-9.1-6.5-18.7-7-28.8c-0.5-9.9-0.3-19.9-0.2-29.8
					C-144,311.8-143.7,310.1-144.6,307.5"/>
				<path class="st3" d="M-39.2,131.7c-8,8.2-16,16.3-23.9,24.5c-2.9,3-5.9,6-8.9,8.9c-6.8,6.5-14.9,6.9-22.2,1
					c-1.3-1.1-2.4-2.3-3.6-3.5c-26.4-26.1-52.7-52.3-79.1-78.4c-0.4-0.4-0.7-0.7-1.1-1.1c-7.4-7.5-7.6-16.3-0.2-24.1
					c5.7-6,11.6-11.7,17.4-17.6c11.5-11.6,22.9-23.2,34.4-34.7c1.2-1.2,2.1-2.7,4.1-3.3c0.5,1.6-0.4,2.9-0.8,4.2
					c-2.3,8.5-1.6,16.5,2.6,24.4c4.7,8.8,11.3,15.8,19.4,21.5c5.9,4.2,11.8,8.3,17.7,12.4c4,2.8,7.8,5.8,11.1,9.4
					c2.6,2.8,4.8,6,6.1,10.2c-18.6-21-41.9-34.1-66.8-44.6c-5.3-2.2-10.8-4.2-17.3-4.7c1.7,2.2,3.5,2.6,5.1,3.5
					c9.6,5,18.7,10.6,26.5,18.2c4.4,4.3,7.9,9.1,10.5,14.7c4.6,9.8,7.8,20,11.9,29.9c1.9,4.7,4,9.3,7,13.4
					c8.8,12.2,21,17.8,35.8,18.1c4.8,0.1,9.2-1.9,13.6-3.2C-39.6,131.1-39.4,131.4-39.2,131.7"/>
				<path class="st3" d="M-23.7,114.8c0.9-3.6,2.7-6.8,3.4-10.5c1-5.4,0.7-10.6-1.1-15.8c-4.5-12.9-12.8-22.3-25.3-27.9
					c-10.2-4.7-20.8-8.6-30.8-13.8c-8.5-4.4-16.7-9.3-24.2-15.4c-8.9-7.1-14.3-16.3-17-27.3c-0.8-3.1-0.2-5.3,2.2-7.6
					c6.5-6.3,13-12.7,19.2-19.3c8.6-9.2,18.5-7.1,25.6,0C-49.6-0.8-27.5,21-5.4,42.9c5.3,5.2,10.6,10.3,15.7,15.6
					c6.8,6.9,7.2,15.9,0.4,23c-10.8,11.3-22,22.2-33,33.3c-0.2,0.2-0.6,0.3-0.9,0.4C-23.3,115.1-23.5,115-23.7,114.8"/>
				<path class="st3" d="M-39.9,130.9c0.4-0.6,1.1-1.1,1.6-0.6c0.6,0.7-0.5,0.9-0.9,1.4C-39.4,131.4-39.6,131.1-39.9,130.9"/>
				<path class="st3" d="M-23.1,115.2c-0.3,0.5-0.5,1.5-1.1,1c-0.6-0.4,0-1.1,0.6-1.4C-23.5,115-23.3,115.1-23.1,115.2"/>
				<path class="st4" d="M20.6,180.4c2.2,1.1,4.2,2,6.1,3.1c2.2,1.3,3.8,0.9,5.2-1.1c0.2-0.3,0.5-0.5,0.7-0.7
					c2.9-2.9,2.9-2.9,5.1,0.3c2.6,3.8,2.6,3.8,7.2,2.9c1.3-0.3,2.7-0.3,4.2-0.5c0.9,2.3-0.3,4.4-0.4,6.5c-0.2,2.6,0.5,4.2,3,5
					c1.6,0.5,3,1.4,4.5,2.2c0.1,1.9-1.4,2.9-2.4,3.7c-3.3,2.7-3.2,5.5-1,8.8c0.7,1.1,1.5,2.3,1.6,4c-1.3,1-3.1,1.2-4.6,1.2
					c-3.8,0.1-5.3,2.1-5.7,5.6c-0.1,1.2-0.5,2.3-0.8,3.5c-2.2,0.4-3.7-0.9-5.3-1.7c-2.6-1.4-4.4-0.9-6.1,1.4c-1,1.3-2.3,2.5-3.5,3.8
					c-2-1.6-2.6-3.8-3.7-5.6c-1-1.7-2-2.5-4.1-1.9c-2.1,0.7-4.3,0.9-6.6,1.3c-1.3-2.1-0.5-4.3-0.3-6.4c0.6-4.6,0.7-4.6-3.3-6.7
					c-1-0.6-2-1.1-3.3-1.8c0.5-1.9,1.9-2.9,3.1-4c4.1-3.9,3.5-3.6,1.3-7.6c-0.1-0.1-0.2-0.3-0.2-0.4c-1.8-3.6-1.8-3.6,1.9-4.6
					c0.8-0.2,1.6-0.6,2.5-0.6c2.5-0.2,3.5-1.5,3.6-4C19.3,184.3,19.2,182.4,20.6,180.4"/>
				<path class="st2" d="M-17.9,294.4c1.8,0.1,2.3,1,3,1.7c6.4,6.3,12.8,12.6,19.1,18.9c7.2,7.3,7.4,15.8,0.7,23.5
					c-0.8,0.9-1.6,1.6-2.4,2.5c-24.9,25.1-49.8,50.3-74.8,75.4c-0.7,0.7-1.4,1.4-2.1,2.1c-8.7,8.5-19.3,7.3-26.6-3.1
					c10.1-0.9,18.1-6,25.7-12c18.6-14.8,32.2-33.6,43-54.5c6-11.6,10.7-23.7,13-36.7C-18.3,306.3-17.8,300.5-17.9,294.4"/>
				<path class="st4" d="M48.7,235.4c7.2,3.7,13.6,7,20.1,10.3c1.2,0.6,2.2,1.6,2.9,2.8c2.3,3.8,4.5,7.5,7,11.2
					c1.3,1.9,1.1,3.4-0.6,4.8c-0.3,0.2-0.5,0.5-0.7,0.7c-8.2,8.7-9.5,9.2-21.5,9.8c-2.1,0.1-3.6-0.4-4.5-2.3
					c-0.1-0.2-0.2-0.3-0.3-0.4c-7-10.6-7-10.6-4.7-23C47.2,244.9,47.9,240.6,48.7,235.4"/>
				<path class="st4" d="M14.5,169.8c-7.5-2.9-14.4-6.1-21.2-9.3c-1.1-0.5-1.8-1.5-2.4-2.5c-2.2-3.6-4.3-7.3-6.6-10.9
					c-1-1.6-0.9-2.7,0.4-4c3.6-3.5,7.2-7.2,10.7-10.8c1.2-1.2,2.5-1.7,4.1-1.6c0.5,0,1,0.1,1.5,0c5.8-0.5,9.6,1.5,12.5,7.1
					c3,5.8,5.2,11.1,3.6,17.8C16.1,160.1,15.9,164.8,14.5,169.8"/>
				<path class="st4" d="M64.8,220.4c6.2-1.2,12.2-1.7,17.7-3.4c7.4-2.3,13.1,1.3,19.1,4.2c1.4,0.7,1.9,1.8,2,3.3c0,1,0.1,2,0.1,3
					c0.3,11.1-1,13.9-9.6,20.8c-1.2,1-2.3,1.2-3.7,0.5c-4.5-2.3-9.1-4.5-13.6-6.8c-0.7-0.4-1.3-1.1-1.8-1.7
					c-0.4-0.5-0.6-1.2-0.9-1.8C71.1,232.6,68.1,226.8,64.8,220.4"/>
				<path class="st4" d="M37.4,167.2c-3.8-6.9-7.5-13.5-11.2-20.1c-0.7-1.3-0.6-2.6-0.4-3.9c0.4-2.8,0.8-5.7,1.1-8.5
					c0.5-5.7,0.5-5.7,6.3-6.9c11.4-2.3,11.4-2.2,21.5,3.5c1.5,0.8,2.4,1.7,2.1,3.5c-0.6,4.4-1,8.7-1.5,13.1c-0.1,1-0.5,2-1.2,2.7
					C48.8,156,43.3,161.5,37.4,167.2"/>
				<path class="st4" d="M-1.3,186c-8.1,2.2-15.6,3.7-23.2,4c-5.6,0.2-10.1-3.5-14.6-6.3c-0.6-0.4-0.8-1.4-1-2.2
					c-2-6.6-2.8-13,4.2-17.4c0.3-0.2,0.5-0.5,0.7-0.7c5.8-5.8,5.8-6,13.1-2.8c12.2,5.4,8.8,2.1,14.9,13.7
					C-5.3,178-3.5,181.7-1.3,186"/>
				<path class="st4" d="M-5,209.1c-6.1,6.3-11.6,12-17.1,17.7c-1,1-2.2,1.5-3.6,1.7c-3.2,0.4-6.4,0.7-9.5,1.4
					c-2.3,0.5-3.5-0.4-4.4-2.3c-1.5-3.1-3.1-6-4.7-9c-0.8-1.5-1.2-3-0.8-4.9c0.6-2.3,0.9-4.7,1.2-7c1.1-7.7,0.9-5.6,7.3-7.3
					c6.8-1.9,12.9-0.6,18.9,3.1C-13.8,204.9-9.4,206.8-5,209.1"/>
				<path class="st4" d="M68.6,196.9c5.7-6.1,10.9-11.6,16-17.2c1-1.1,2.2-1.5,3.6-1.7c1.7-0.3,3.3-0.5,5-0.8
					c8.9-1.8,6.9-1.1,11.2,5.4c5,7.5,2.4,14.9,1.3,22.5c-0.2,1.2-0.9,1.7-2,1.9c-3.6,0.7-7.3,1.4-10.9,2c-1.2,0.2-2.3-0.2-3.4-0.8
					C82.7,204.5,76,200.9,68.6,196.9"/>
				<path class="st4" d="M26.3,240.4c3.4,6.2,7,12.7,10.6,19.2c0.7,1.2,1,2.5,0.7,3.9c-0.6,3.7-1.3,7.3-1.9,11
					c-0.3,2.2-1.6,3.3-3.6,3.7c-3.5,0.7-7,1.3-10.5,2c-1.6,0.3-3-0.2-4.4-0.9c-2.8-1.6-5.6-3.2-8.5-4.6c-2.3-1.1-2.8-2.7-2.4-5
					c0.1-0.3,0.1-0.7,0.1-1c0.2-7.3,3.3-13.2,8.8-18.1C19.1,247.4,22.6,244,26.3,240.4"/>
				<path class="st4" d="M2.5,230.6c1.9-0.2,2.5,0.8,2.2,2.5c-1,6.9-1.9,13.7-2.9,20.6c-0.2,1.6-1.1,2.8-2.2,3.9c-1,1-1.9,2-2.8,2.9
					c-5.8,6.2-6.3,6.6-13.2,1.7c-5-3.6-9.6-7.9-12.8-13.5c-1.5-2.6-1.1-4.3,1-6.2c2.2-2.1,4.2-4.4,6.3-6.6c0.9-1,1.8-2,3.3-2.2
					C-11.5,232.6-4.5,231.6,2.5,230.6"/>
				<path class="st4" d="M57.7,175.9c1.1-7.7,2.1-14.7,3-21.7c0.2-1.3,0.8-2.2,1.7-3c2.9-2.9,5.8-5.7,8.6-8.6
					c1.1-1.1,2.1-1.5,3.6-0.7c7.8,4,13.6,9.8,17.4,17.7c0.8,1.6,0.6,2.9-0.6,4.1c-2.3,2.5-4.5,5-6.8,7.6c-0.9,1.1-2.1,1.7-3.5,1.8
					C73.6,173.9,66.1,174.9,57.7,175.9"/>
				<path class="st4" d="M34.1,121.2c-3.5,0.6-6,1.2-8.5,1.5c-2.3,0.3-3.6,1.2-3.8,3.8c-0.2,2.6-0.9,5.2-1.5,8.4
					c-2.2-2-3.2-3.9-4-5.8c-1.4-3.7-4.2-5-7.8-5.3c-1-0.1-2-0.2-3.3-0.4c0.5-2.7,2.7-3.9,4.3-5.4c2.5-2.5,4.4-6.5,7.8-6.8
					c3-0.2,5.8,3.1,8.6,4.9C28.3,117.6,30.7,119.1,34.1,121.2"/>
				<path class="st4" d="M42,300.3c-6.2,4.6-12.3,4.8-18.4,1.1c-5.1-3.1-8.9-7.6-13.1-12.2c5-1.9,9.3-2.4,13.8,0.5
					c4.2,2.8,8.9,4.9,13.3,7.3C39,297.9,40.6,298.5,42,300.3"/>
				<path class="st4" d="M-48.1,177.9c-1.8,8.1,3.6,11.4,10.8,14c-3.1,1.7-5.7,1.8-8,2.2c-2.7,0.4-3.6,1.7-4.1,4.2
					c-0.5,2.2-0.1,4.8-2.2,7c-2.9-4.8-5.7-9.4-8.5-14c-0.7-1.1-1-2.1,0.1-3.2c3.5-3.4,6.7-7.2,10.6-10.3
					C-49.2,177.5-48.8,177.8-48.1,177.9"/>
				<path class="st4" d="M103.1,214c1.6-1.3,3.2-1.1,4.6-1.1c2.6,0,4-0.9,4.2-3.8c0.1-2.8,0.8-5.6,1.4-9.5c2.7,4.4,5,8,7.2,11.6
					c4.7,7.7,4.6,5.4-1.2,11.5c-2.4,2.6-4.9,5.1-7.9,8.2c-1-2.9-0.7-5.3-0.6-7.5c0.2-3.3-0.6-5.5-4-6.7
					C105.6,216.3,104.1,215.7,103.1,214"/>
				<path class="st4" d="M30.3,285.2c3.2-0.7,5.3-1.4,7.4-1.6c2.5-0.2,3.4-1.7,3.9-3.9c0.5-2.3,0.4-4.7,1.8-6.9
					c1.7,1.4,2.4,3.4,3.1,5.2c1.4,4,4,5,7.9,4.3c1.6-0.3,3.3-0.3,5-0.5c0.8,1.4-0.4,1.9-1,2.5c-2.8,2.9-5.8,5.7-8.5,8.7
					c-1.4,1.4-2.6,1.7-4.4,0.8C40.6,291.3,35.7,288.8,30.3,285.2"/>
				<path class="st4" d="M128.8,211.6c-2.2-2-3.2-4.7-4.7-7.1c-2.4-4.1-4.7-8.2-7-12.3c-1.8-3.3-1.5-6.7,0.1-10.5
					c4.3,4.1,8.6,7.7,11.8,12.2C133.3,199.8,133.2,205.9,128.8,211.6"/>
				<path class="st4" d="M22.1,106.1c5.9-3.9,11-3.7,16.2-1.1c5.4,2.7,9,7.4,13.4,11.9c-3.9,2.1-7.2,2.8-11,0.4
					C34.9,113.5,28.9,110.2,22.1,106.1"/>
				<path class="st4" d="M-65.4,195c4.1,7.2,7.9,13.7,11.5,20.4c1.3,2.4,1.1,2.5-0.7,9c-4.4-3.9-8.8-7.6-12-12.3
					C-70.3,206.8-69.9,201.1-65.4,195"/>
				<path class="st4" d="M79.1,210.7c-4.6,0.8-9.3,1.5-13.9,2.5c-2.5,0.6-4,0.2-5.2-2.3c-2.1-4.3-1.9-5.3,2.1-8.2
					c1.1-0.7,2-1.2,3.2-0.4c4.4,3,9.2,5.4,14.1,7.5C79.3,210.1,79.2,210.4,79.1,210.7"/>
				<path class="st4" d="M9.9,247.4c0.2-6,0.7-10.7,1.9-15.3c0.8-3.1,2.8-4.3,6.5-4c1.7,0.1,4,2.9,4.3,5c0.1,1.2-0.5,1.9-1.2,2.7
					C17.8,239.4,14.3,242.9,9.9,247.4"/>
				<path class="st4" d="M38.3,249.3c-2-3.9-4.1-7.8-6.2-11.9c-1.7-3.3,1.3-7.5,5.1-7.3c4.2,0.2,5.6,2.2,4.8,6.5
					c-0.7,3.6-1.3,7.3-2,10.9C39.7,248.2,39.9,249.3,38.3,249.3"/>
				<path class="st4" d="M74.4,180.7c-3.6,4.9-7.8,8.3-11.5,12.1c-1.1,1.1-4.5,0-6.2-1.7c-1.7-1.8-0.4-3.8-0.1-5.7
					c0.2-1.4,0.5-2.6,2.3-2.8C63.8,182.1,68.7,181.4,74.4,180.7"/>
				<path class="st4" d="M-14.7,195.5c4.8-0.8,9.5-1.6,14.3-2.5c2.2-0.4,3.4,0.3,4.4,2.4c1,2,1.4,3.5-0.4,5.4
					c-2.9,3.1-3,3.3-6.8,1.5c-3.9-1.9-7.8-3.9-11.7-5.9C-14.8,196.2-14.8,195.8-14.7,195.5"/>
				<path class="st4" d="M-10.7,224.8c3.6-3.7,7.2-7.4,10.8-11.1c2.1-2.1,3.8-0.1,5.4,0.6c2.5,1.1,1.2,3.5,1.3,5.4
					c0,1.4,0,3.3-1.9,3.6c-5,0.8-10.1,1.5-15.2,2.2C-10.4,225.3-10.5,225.1-10.7,224.8"/>
				<path class="st4" d="M-2.8,169.8c6.1,1.8,10.3,4.8,15.1,6.4c1.4,0.5,1.6,1.4,1.4,2.8c-0.7,4.5-1.6,5.5-5.4,5.8
					c-1.9,0.1-3.2-0.4-4.1-2.1C2,178.7-0.2,174.7-2.8,169.8"/>
				<path class="st4" d="M64.6,235.9c-4.8-1.5-9.1-4.2-13.6-6.5c-1.7-0.9-1.6-4.6-0.1-6.3c2-2.3,6.8-2.2,8.3,0.5
					c2.2,3.8,4.1,7.7,6.1,11.6C65.1,235.4,64.9,235.7,64.6,235.9"/>
				<path class="st4" d="M23.5,157.3c4,4.3,6.1,9.1,8.5,13.7c0.5,1-2,4.1-3.7,4.9c-2.4,1-7.5-2.6-7.1-5.1
					C21.8,166.5,22.6,162.2,23.5,157.3"/>
				<path class="st4" d="M52.5,160.9c0.4,5.4-0.8,9.5-1.1,13.7c-0.2,2.6-2.7,4-6.1,3.8c-1.7-0.1-4.3-2.9-4.5-4.7
					c-0.1-0.8,0.3-1.3,0.8-1.8C45,168.5,48.4,165.1,52.5,160.9"/>
				<path class="st4" d="M7.9,282c-2.2,1.2-3.7,1.5-5.2,0c-2.5-2.5-5-5-7.5-7.5c-1.2-1.2-1.3-2.3,0.1-3.4c1.4-1.2,2.7-2.4,4.2-3.6
					c1.1,1.6,0.6,2.9,0.4,4.1c-0.6,5.1-0.7,5.1,3.9,7.8C5,280.2,6.3,281,7.9,282"/>
				<path class="st4" d="M64.1,130.3c0.5-0.1,0.8-0.2,0.9-0.1c5.7,4.1,5.5,5.3-2.1,10.2C62.4,136.7,63.8,133.5,64.1,130.3"/>
				<path class="st4" d="M-41.2,237.3c3-0.4,5.9-0.8,8.8-1.3c0.3,1.5-0.7,2-1.4,2.7C-37.7,242.7-38,242.6-41.2,237.3"/>
				<path class="st4" d="M110,180.1c-2-3.7-3.7-6.7-5.3-9.7C107.5,172.8,112.5,173.9,110,180.1"/>
				<path class="st4" d="M95.2,170c3.8-5.8,4.2-5.9,7.9-1.9C100.7,169.7,98.1,170,95.2,170"/>
				<path class="st4" d="M-47.4,227.9c2.3,2.5,3.4,5.1,4.9,8C-48.2,232.5-48.7,231.7-47.4,227.9"/>
				<path class="st4" d="M82,252c1.8-0.1,2.9,0.7,4,1.4c0.7,0.4,1.5,0.9,0.9,1.9c-0.4,0.7-1,1.3-1.7,1.7c-1,0.5-1.4-0.4-1.8-1.1
					C82.8,254.7,81.9,253.7,82,252"/>
				<path class="st4" d="M62.1,127.8c-2.5-1.1-4.6-1.9-6.5-3.4C58.3,122.6,58.3,122.6,62.1,127.8"/>
				<path class="st4" d="M-18.3,154.3c-1.8,0-3-1-4.2-1.7c-1-0.5-0.9-1.3-0.3-2c0.7-0.9,1.6-1.2,2.4-0.1
					C-19.5,151.6-18.6,152.7-18.3,154.3"/>
			</g>
		</g>
	</g>
	<g class="st5">
		<g>
			<path class="st0" d="M362.3-107.5c0,0,0.1,0,0.1,0c0,0,0.1,0,0.1,0.1c0,0,0,0.1-0.1,0.1c0,0-0.1,0-0.1,0c-0.1,0-0.3,0-0.3-0.1
				C362-107.5,362.2-107.4,362.3-107.5"/>
			<g>
				<path class="st2" d="M339.8,60c-3.3,20-6.8,38.9-6.4,58.5c-10.1-9.7-20.4-18.9-29.5-29.2c-3.9-4.4-3.9-9.9-1.5-15.2
					c1.1-2.6,2.9-4.7,4.9-6.7c25.7-25.9,51.4-51.9,77.2-77.8c8.2-8.3,16.8-8.4,25.2-0.3c3.6,3.5,7.4,6.7,10.8,11.2
					c-5.4-0.9-10.3-1.1-15.1-0.6c-9.3,1-14.6,6.2-15,15.6c-0.4,12.9,3.8,24,13.8,32.6c4.4,3.8,7.2,3.9,12.4,1.1
					c3.4-1.9,6.9-3.7,10.4-5.4c8.8-4.2,9.4-4.2,18.6-1c1.1-1,0.5-2.1,0-3.1c-3.4-7.8-12.7-15.8-24.5-9.6c-4.8,2.5-9.7,1.4-14.2-0.4
					c-4.6-1.9-4.9-7.5-0.8-10.8c4.7-3.7,10.1-4.2,15.8-2.9c0.6,0.1,1.3,0.3,1.9,0.6c14.1,7.2,24.4,17.3,25.7,34.2
					c0.3,4.6-0.8,9.1-2.1,13.5c-4.2,14.7-11.1,28.2-19.3,41c-5.7,8.8-11.9,17.2-18.9,24.9c-5.9,6.5-13.1,11.2-21.3,14.4
					c-5.4,2.1-10.8,1.7-16.3,0.1c-11.1-3-18.9-9.8-24-20.1c-4.5-9.1-6.5-18.7-7-28.8c-0.5-9.9-0.3-19.9-0.2-29.8
					C340.5,64.4,340.7,62.6,339.8,60"/>
				<path class="st3" d="M445.3-115.8c-8,8.2-16,16.3-23.9,24.5c-2.9,3-5.9,6-8.9,8.9c-6.8,6.5-14.9,6.9-22.2,1
					c-1.3-1.1-2.4-2.3-3.6-3.5c-26.4-26.1-52.7-52.3-79.1-78.4c-0.4-0.4-0.7-0.7-1.1-1.1c-7.4-7.5-7.6-16.3-0.2-24.1
					c5.7-6,11.6-11.7,17.4-17.6c11.5-11.6,22.9-23.2,34.4-34.7c1.2-1.2,2.1-2.7,4.1-3.3c0.5,1.6-0.4,2.9-0.8,4.2
					c-2.3,8.5-1.6,16.5,2.6,24.4c4.7,8.8,11.3,15.8,19.4,21.5c5.9,4.2,11.8,8.3,17.7,12.4c4,2.8,7.8,5.8,11.1,9.4
					c2.6,2.8,4.8,6,6.1,10.2c-18.6-21-41.9-34.1-66.8-44.6c-5.3-2.2-10.8-4.2-17.3-4.7c1.7,2.2,3.5,2.6,5.1,3.5
					c9.6,5,18.7,10.6,26.5,18.2c4.4,4.3,7.9,9.1,10.5,14.7c4.6,9.8,7.8,20,11.9,29.9c1.9,4.7,4,9.3,7,13.4
					c8.8,12.2,21,17.8,35.8,18.1c4.8,0.1,9.2-1.9,13.6-3.2C444.8-116.4,445.1-116.1,445.3-115.8"/>
				<path class="st3" d="M460.8-132.7c0.9-3.6,2.7-6.8,3.4-10.5c1-5.4,0.7-10.6-1.1-15.8c-4.5-12.9-12.8-22.3-25.3-27.9
					c-10.2-4.7-20.8-8.6-30.8-13.8c-8.5-4.4-16.7-9.3-24.2-15.4c-8.9-7.1-14.3-16.3-17-27.3c-0.8-3.1-0.2-5.3,2.2-7.6
					c6.5-6.3,13-12.7,19.2-19.3c8.6-9.2,18.5-7.1,25.6,0c22.1,21.9,44.2,43.8,66.2,65.7c5.3,5.2,10.6,10.3,15.7,15.6
					c6.8,6.9,7.2,15.9,0.4,23c-10.8,11.3-22,22.2-33,33.3c-0.2,0.2-0.6,0.3-0.9,0.4C461.2-132.4,461-132.5,460.8-132.7"/>
				<path class="st3" d="M444.6-116.6c0.4-0.6,1.1-1.1,1.6-0.6c0.6,0.7-0.5,0.9-0.9,1.4C445.1-116.1,444.8-116.3,444.6-116.6"/>
				<path class="st3" d="M461.4-132.3c-0.3,0.5-0.5,1.5-1.1,1c-0.6-0.4,0-1.1,0.6-1.4C461-132.5,461.2-132.4,461.4-132.3"/>
				<path class="st4" d="M505-67.1c2.2,1.1,4.2,2,6.1,3.1c2.2,1.3,3.8,0.9,5.2-1.1c0.2-0.3,0.5-0.5,0.7-0.7c2.9-2.9,2.9-2.9,5.1,0.3
					c2.6,3.8,2.6,3.8,7.2,2.9c1.3-0.3,2.7-0.3,4.2-0.5c0.9,2.3-0.3,4.4-0.4,6.5c-0.2,2.6,0.5,4.2,3,5c1.6,0.5,3,1.4,4.5,2.2
					c0.1,1.9-1.4,2.9-2.4,3.7c-3.3,2.7-3.2,5.5-1,8.8c0.7,1.1,1.5,2.3,1.6,4c-1.3,1-3.1,1.2-4.6,1.2c-3.8,0.1-5.3,2.1-5.7,5.6
					c-0.1,1.2-0.5,2.3-0.8,3.5c-2.2,0.4-3.7-0.9-5.3-1.7c-2.6-1.4-4.4-0.9-6.1,1.4c-1,1.3-2.3,2.5-3.5,3.8c-2-1.6-2.6-3.8-3.7-5.6
					c-1-1.7-2-2.5-4.1-1.9c-2.1,0.7-4.3,0.9-6.6,1.3c-1.3-2.1-0.5-4.3-0.3-6.4c0.6-4.6,0.7-4.6-3.3-6.7c-1-0.6-2-1.1-3.3-1.8
					c0.5-1.9,1.9-2.9,3.1-4c4.1-3.9,3.5-3.6,1.3-7.6c-0.1-0.1-0.2-0.3-0.2-0.4c-1.8-3.6-1.8-3.6,1.9-4.6c0.8-0.2,1.6-0.6,2.5-0.6
					c2.5-0.2,3.5-1.5,3.6-4C503.8-63.2,503.7-65.1,505-67.1"/>
				<path class="st2" d="M466.5,46.9c1.8,0.1,2.3,1,3,1.7c6.4,6.3,12.8,12.6,19.1,18.9c7.2,7.3,7.4,15.8,0.7,23.5
					c-0.8,0.9-1.6,1.6-2.4,2.5c-24.9,25.1-49.8,50.3-74.8,75.4c-0.7,0.7-1.4,1.4-2.1,2.1c-8.7,8.5-19.3,7.3-26.6-3.1
					c10.1-0.9,18.1-6,25.7-12c18.6-14.8,32.2-33.6,43-54.5c6-11.6,10.7-23.7,13-36.7C466.2,58.8,466.6,53,466.5,46.9"/>
				<path class="st4" d="M533.2-12.1c7.2,3.7,13.6,7,20.1,10.3c1.2,0.6,2.2,1.6,2.9,2.8c2.3,3.8,4.5,7.5,7,11.2
					c1.3,1.9,1.1,3.4-0.6,4.8c-0.3,0.2-0.5,0.5-0.7,0.7c-8.2,8.7-9.5,9.2-21.5,9.8c-2.1,0.1-3.6-0.4-4.5-2.3
					c-0.1-0.2-0.2-0.3-0.3-0.4c-7-10.6-7-10.6-4.7-23C531.7-2.6,532.3-6.9,533.2-12.1"/>
				<path class="st4" d="M499-77.7c-7.5-2.9-14.4-6.1-21.2-9.3c-1.1-0.5-1.8-1.5-2.4-2.5c-2.2-3.6-4.3-7.3-6.6-10.9
					c-1-1.6-0.9-2.7,0.4-4c3.6-3.5,7.2-7.2,10.7-10.8c1.2-1.2,2.5-1.7,4.1-1.6c0.5,0,1,0.1,1.5,0c5.8-0.5,9.6,1.5,12.5,7.1
					c3,5.8,5.2,11.1,3.6,17.8C500.5-87.4,500.3-82.7,499-77.7"/>
				<path class="st4" d="M549.3-27.1c6.2-1.2,12.2-1.7,17.7-3.4c7.4-2.3,13.1,1.3,19.1,4.2c1.4,0.7,1.9,1.8,2,3.3c0,1,0.1,2,0.1,3
					c0.3,11.1-1,13.9-9.6,20.8c-1.2,1-2.3,1.2-3.7,0.5c-4.5-2.3-9.1-4.5-13.6-6.8c-0.7-0.4-1.3-1.1-1.8-1.7
					c-0.4-0.5-0.6-1.2-0.9-1.8C555.6-14.9,552.6-20.7,549.3-27.1"/>
				<path class="st4" d="M521.9-80.3c-3.8-6.9-7.5-13.5-11.2-20.1c-0.7-1.3-0.6-2.6-0.4-3.9c0.4-2.8,0.8-5.7,1.1-8.5
					c0.5-5.7,0.5-5.7,6.3-6.9c11.4-2.3,11.4-2.2,21.5,3.5c1.5,0.8,2.4,1.7,2.1,3.5c-0.6,4.4-1,8.7-1.5,13.1c-0.1,1-0.5,2-1.2,2.7
					C533.2-91.5,527.8-86,521.9-80.3"/>
				<path class="st4" d="M483.2-61.5c-8.1,2.2-15.6,3.7-23.2,4c-5.6,0.2-10.1-3.5-14.6-6.3c-0.6-0.4-0.8-1.4-1-2.2
					c-2-6.6-2.8-13,4.2-17.4c0.3-0.2,0.5-0.5,0.7-0.7c5.8-5.8,5.8-6,13.1-2.8c12.2,5.4,8.8,2.1,14.9,13.7
					C479.1-69.5,481-65.7,483.2-61.5"/>
				<path class="st4" d="M479.4-38.4c-6.1,6.3-11.6,12-17.1,17.7c-1,1-2.2,1.5-3.6,1.7c-3.2,0.4-6.4,0.7-9.5,1.4
					c-2.3,0.5-3.5-0.4-4.4-2.3c-1.5-3.1-3.1-6-4.7-9c-0.8-1.5-1.2-3-0.8-4.9c0.6-2.3,0.9-4.7,1.2-7c1.1-7.7,0.9-5.6,7.3-7.3
					c6.8-1.9,12.9-0.6,18.9,3.1C470.7-42.6,475-40.7,479.4-38.4"/>
				<path class="st4" d="M553.1-50.6c5.7-6.1,10.9-11.6,16-17.2c1-1.1,2.2-1.5,3.6-1.7c1.7-0.3,3.3-0.5,5-0.8
					c8.9-1.8,6.9-1.1,11.2,5.4c5,7.5,2.4,14.9,1.3,22.5c-0.2,1.2-0.9,1.7-2,1.9c-3.6,0.7-7.3,1.4-10.9,2c-1.2,0.2-2.3-0.2-3.4-0.8
					C567.2-43,560.5-46.6,553.1-50.6"/>
				<path class="st4" d="M510.8-7c3.4,6.2,7,12.7,10.6,19.2c0.7,1.2,1,2.5,0.7,3.9c-0.6,3.7-1.3,7.3-1.9,11
					c-0.3,2.2-1.6,3.3-3.6,3.7c-3.5,0.7-7,1.3-10.5,2c-1.6,0.3-3-0.2-4.4-0.9c-2.8-1.6-5.6-3.2-8.5-4.6c-2.3-1.1-2.8-2.7-2.4-5
					c0.1-0.3,0.1-0.7,0.1-1c0.2-7.3,3.3-13.2,8.8-18.1C503.6,0,507.1-3.5,510.8-7"/>
				<path class="st4" d="M487-16.9c1.9-0.2,2.5,0.8,2.2,2.5c-1,6.9-1.9,13.7-2.9,20.6c-0.2,1.6-1.1,2.8-2.2,3.9c-1,1-1.9,2-2.8,2.9
					c-5.8,6.2-6.3,6.6-13.2,1.7c-5-3.6-9.6-7.9-12.8-13.5c-1.5-2.6-1.1-4.3,1-6.2c2.2-2.1,4.2-4.4,6.3-6.6c0.9-1,1.8-2,3.3-2.2
					C473-14.9,480-15.9,487-16.9"/>
				<path class="st4" d="M542.2-71.6c1.1-7.7,2.1-14.7,3-21.7c0.2-1.3,0.8-2.2,1.7-3c2.9-2.9,5.8-5.7,8.6-8.6
					c1.1-1.1,2.1-1.5,3.6-0.7c7.8,4,13.6,9.8,17.4,17.7c0.8,1.6,0.6,2.9-0.6,4.1c-2.3,2.5-4.5,5-6.8,7.6c-0.9,1.1-2.1,1.7-3.5,1.8
					C558.1-73.6,550.6-72.6,542.2-71.6"/>
				<path class="st4" d="M518.6-126.3c-3.5,0.6-6,1.2-8.5,1.5c-2.3,0.3-3.6,1.2-3.8,3.8c-0.2,2.6-0.9,5.2-1.5,8.4
					c-2.2-2-3.2-3.9-4-5.8c-1.4-3.7-4.2-5-7.8-5.3c-1-0.1-2-0.2-3.3-0.4c0.5-2.7,2.7-3.9,4.3-5.4c2.5-2.5,4.4-6.5,7.8-6.8
					c3-0.2,5.8,3.1,8.6,4.9C512.8-129.9,515.2-128.4,518.6-126.3"/>
				<path class="st4" d="M526.5,52.9c-6.2,4.6-12.3,4.8-18.4,1.1c-5.1-3.1-8.9-7.6-13.1-12.2c5-1.9,9.3-2.4,13.8,0.5
					c4.2,2.8,8.9,4.9,13.3,7.3C523.5,50.4,525.1,51.1,526.5,52.9"/>
				<path class="st4" d="M436.4-69.6c-1.8,8.1,3.6,11.4,10.8,14c-3.1,1.7-5.7,1.8-8,2.2c-2.7,0.4-3.6,1.7-4.1,4.2
					c-0.5,2.2-0.1,4.8-2.2,7c-2.9-4.8-5.7-9.4-8.5-14c-0.7-1.1-1-2.1,0.1-3.2c3.5-3.4,6.7-7.2,10.6-10.3
					C435.2-69.9,435.7-69.7,436.4-69.6"/>
				<path class="st4" d="M587.6-33.5c1.6-1.3,3.2-1.1,4.6-1.1c2.6,0,4-0.9,4.2-3.8c0.1-2.8,0.8-5.6,1.4-9.5c2.7,4.4,5,8,7.2,11.6
					c4.7,7.7,4.6,5.4-1.2,11.5c-2.4,2.6-4.9,5.1-7.9,8.2c-1-2.9-0.7-5.3-0.6-7.5c0.2-3.3-0.6-5.5-4-6.7
					C590.1-31.2,588.6-31.8,587.6-33.5"/>
				<path class="st4" d="M514.8,37.7c3.2-0.7,5.3-1.4,7.4-1.6c2.5-0.2,3.4-1.7,3.9-3.9c0.5-2.3,0.4-4.7,1.8-6.9
					c1.7,1.4,2.4,3.4,3.1,5.2c1.4,4,4,5,7.9,4.3c1.6-0.3,3.3-0.3,5-0.5c0.8,1.4-0.4,1.9-1,2.5c-2.8,2.9-5.8,5.7-8.5,8.7
					c-1.4,1.4-2.6,1.7-4.4,0.8C525,43.8,520.2,41.3,514.8,37.7"/>
				<path class="st4" d="M613.2-35.9c-2.2-2-3.2-4.7-4.7-7.1c-2.4-4.1-4.7-8.2-7-12.3c-1.8-3.3-1.5-6.7,0.1-10.5
					c4.3,4.1,8.6,7.7,11.8,12.2C617.8-47.7,617.7-41.6,613.2-35.9"/>
				<path class="st4" d="M506.5-141.4c5.9-3.9,11-3.7,16.2-1.1c5.4,2.7,9,7.4,13.4,11.9c-3.9,2.1-7.2,2.8-11,0.4
					C519.4-134,513.4-137.3,506.5-141.4"/>
				<path class="st4" d="M419-52.5c4.1,7.2,7.9,13.7,11.5,20.4c1.3,2.4,1.1,2.5-0.7,9c-4.4-3.9-8.8-7.6-12-12.3
					C414.2-40.7,414.6-46.4,419-52.5"/>
				<path class="st4" d="M563.6-36.8c-4.6,0.8-9.3,1.5-13.9,2.5c-2.5,0.6-4,0.2-5.2-2.3c-2.1-4.3-1.9-5.3,2.1-8.2
					c1.1-0.7,2-1.2,3.2-0.4c4.4,3,9.2,5.4,14.1,7.5C563.8-37.4,563.7-37.1,563.6-36.8"/>
				<path class="st4" d="M494.3-0.1c0.2-6,0.7-10.7,1.9-15.3c0.8-3.1,2.8-4.3,6.5-4c1.7,0.1,4,2.9,4.3,5c0.1,1.2-0.5,1.9-1.2,2.7
					C502.3-8.1,498.7-4.6,494.3-0.1"/>
				<path class="st4" d="M522.7,1.8c-2-3.9-4.1-7.8-6.2-11.9c-1.7-3.3,1.3-7.5,5.1-7.3c4.2,0.2,5.6,2.2,4.8,6.5
					c-0.7,3.6-1.3,7.3-2,10.9C524.2,0.7,524.3,1.8,522.7,1.8"/>
				<path class="st4" d="M558.9-66.7c-3.6,4.9-7.8,8.3-11.5,12.1c-1.1,1.1-4.5,0-6.2-1.7c-1.7-1.8-0.4-3.8-0.1-5.7
					c0.2-1.4,0.5-2.6,2.3-2.8C548.2-65.4,553.2-66.1,558.9-66.7"/>
				<path class="st4" d="M469.8-52c4.8-0.8,9.5-1.6,14.3-2.5c2.2-0.4,3.4,0.3,4.4,2.4c1,2,1.4,3.5-0.4,5.4c-2.9,3.1-3,3.3-6.8,1.5
					c-3.9-1.9-7.8-3.9-11.7-5.9C469.7-51.3,469.7-51.6,469.8-52"/>
				<path class="st4" d="M473.8-22.7c3.6-3.7,7.2-7.4,10.8-11.1c2.1-2.1,3.8-0.1,5.4,0.6c2.5,1.1,1.2,3.5,1.3,5.4
					c0,1.4,0,3.3-1.9,3.6c-5,0.8-10.1,1.5-15.2,2.2C474.1-22.2,474-22.4,473.8-22.7"/>
				<path class="st4" d="M481.7-77.7c6.1,1.8,10.3,4.8,15.1,6.4c1.4,0.5,1.6,1.4,1.4,2.8c-0.7,4.5-1.6,5.5-5.4,5.8
					c-1.9,0.1-3.2-0.4-4.1-2.1C486.5-68.8,484.3-72.8,481.7-77.7"/>
				<path class="st4" d="M549.1-11.5c-4.8-1.5-9.1-4.2-13.6-6.5c-1.7-0.9-1.6-4.6-0.1-6.3c2-2.3,6.8-2.2,8.3,0.5
					c2.2,3.8,4.1,7.7,6.1,11.6C549.6-12.1,549.3-11.8,549.1-11.5"/>
				<path class="st4" d="M508-90.2c4,4.3,6.1,9.1,8.5,13.7c0.5,1-2,4.1-3.7,4.9c-2.4,1-7.5-2.6-7.1-5.1
					C506.3-81,507.1-85.3,508-90.2"/>
				<path class="st4" d="M536.9-86.6c0.4,5.4-0.8,9.5-1.1,13.7c-0.2,2.6-2.7,4-6.1,3.8c-1.7-0.1-4.3-2.9-4.5-4.7
					c-0.1-0.8,0.3-1.3,0.8-1.8C529.4-79,532.8-82.4,536.9-86.6"/>
				<path class="st4" d="M492.3,34.5c-2.2,1.2-3.7,1.5-5.2,0c-2.5-2.5-5-5-7.5-7.5c-1.2-1.2-1.3-2.3,0.1-3.4
					c1.4-1.2,2.7-2.4,4.2-3.6c1.1,1.6,0.6,2.9,0.4,4.1c-0.6,5.1-0.7,5.1,3.9,7.8C489.5,32.7,490.7,33.5,492.3,34.5"/>
				<path class="st4" d="M548.6-117.2c0.5-0.1,0.8-0.2,0.9-0.1c5.7,4.1,5.5,5.3-2.1,10.2C546.9-110.8,548.3-114,548.6-117.2"/>
				<path class="st4" d="M443.3-10.2c3-0.4,5.9-0.8,8.8-1.3c0.3,1.5-0.7,2-1.4,2.7C446.8-4.8,446.5-4.9,443.3-10.2"/>
				<path class="st4" d="M594.5-67.4c-2-3.7-3.7-6.7-5.3-9.7C592-74.7,596.9-73.6,594.5-67.4"/>
				<path class="st4" d="M579.7-77.5c3.8-5.8,4.2-5.9,7.9-1.9C585.2-77.8,582.6-77.5,579.7-77.5"/>
				<path class="st4" d="M437.1-19.6c2.3,2.5,3.4,5.1,4.9,8C436.3-15,435.8-15.7,437.1-19.6"/>
				<path class="st4" d="M566.4,4.5c1.8-0.1,2.9,0.7,4,1.4c0.7,0.4,1.5,0.9,0.9,1.9c-0.4,0.7-1,1.3-1.7,1.7c-1,0.5-1.4-0.4-1.8-1.1
					C567.3,7.2,566.4,6.2,566.4,4.5"/>
				<path class="st4" d="M546.6-119.7c-2.5-1.1-4.6-1.9-6.5-3.4C542.8-124.9,542.8-124.9,546.6-119.7"/>
				<path class="st4" d="M466.2-93.2c-1.8,0-3-1-4.2-1.7c-1-0.5-0.9-1.3-0.3-2c0.7-0.9,1.6-1.2,2.4-0.1
					C465-95.9,465.9-94.8,466.2-93.2"/>
			</g>
		</g>
	</g>
	<g class="st5">
		<g>
			<path class="st0" d="M362.3,401c0,0,0.1,0,0.1,0c0,0,0.1,0,0.1,0.1c0,0,0,0.1-0.1,0.1c0,0-0.1,0-0.1,0c-0.1,0-0.3,0-0.3-0.1
				C362,401,362.2,401,362.3,401"/>
			<g>
				<path class="st2" d="M339.8,568.5c-3.3,20-6.8,38.9-6.4,58.5c-10.1-9.7-20.4-18.9-29.5-29.2c-3.9-4.4-3.9-9.9-1.5-15.2
					c1.1-2.6,2.9-4.7,4.9-6.7c25.7-25.9,51.4-51.9,77.2-77.8c8.2-8.3,16.8-8.4,25.2-0.3c3.6,3.5,7.4,6.7,10.8,11.2
					c-5.4-0.9-10.3-1.1-15.1-0.6c-9.3,1-14.6,6.2-15,15.6c-0.4,12.9,3.8,24,13.8,32.6c4.4,3.8,7.2,3.9,12.4,1.1
					c3.4-1.9,6.9-3.7,10.4-5.4c8.8-4.2,9.4-4.2,18.6-1c1.1-1,0.5-2.1,0-3.1c-3.4-7.8-12.7-15.8-24.5-9.6c-4.8,2.5-9.7,1.4-14.2-0.4
					c-4.6-1.9-4.9-7.5-0.8-10.8c4.7-3.7,10.1-4.2,15.8-2.9c0.6,0.1,1.3,0.3,1.9,0.6c14.1,7.2,24.4,17.3,25.7,34.2
					c0.3,4.6-0.8,9.1-2.1,13.5c-4.2,14.7-11.1,28.2-19.3,41c-5.7,8.8-11.9,17.2-18.9,24.9c-5.9,6.5-13.1,11.2-21.3,14.4
					c-5.4,2.1-10.8,1.7-16.3,0.1c-11.1-3-18.9-9.8-24-20.1c-4.5-9.1-6.5-18.7-7-28.8c-0.5-9.9-0.3-19.9-0.2-29.8
					C340.5,572.8,340.7,571.1,339.8,568.5"/>
				<path class="st3" d="M445.3,392.7c-8,8.2-16,16.3-23.9,24.5c-2.9,3-5.9,6-8.9,8.9c-6.8,6.5-14.9,6.9-22.2,1
					c-1.3-1.1-2.4-2.3-3.6-3.5c-26.4-26.1-52.7-52.3-79.1-78.4c-0.4-0.4-0.7-0.7-1.1-1.1c-7.4-7.5-7.6-16.3-0.2-24.1
					c5.7-6,11.6-11.7,17.4-17.6c11.5-11.6,22.9-23.2,34.4-34.7c1.2-1.2,2.1-2.7,4.1-3.3c0.5,1.6-0.4,2.9-0.8,4.2
					c-2.3,8.5-1.6,16.5,2.6,24.4c4.7,8.8,11.3,15.8,19.4,21.5c5.9,4.2,11.8,8.3,17.7,12.4c4,2.8,7.8,5.8,11.1,9.4
					c2.6,2.8,4.8,6,6.1,10.2c-18.6-21-41.9-34.1-66.8-44.6c-5.3-2.2-10.8-4.2-17.3-4.7c1.7,2.2,3.5,2.6,5.1,3.5
					c9.6,5,18.7,10.6,26.5,18.2c4.4,4.3,7.9,9.1,10.5,14.7c4.6,9.8,7.8,20,11.9,29.9c1.9,4.7,4,9.3,7,13.4
					c8.8,12.2,21,17.8,35.8,18.1c4.8,0.1,9.2-1.9,13.6-3.2C444.8,392.1,445.1,392.4,445.3,392.7"/>
				<path class="st3" d="M460.8,375.8c0.9-3.6,2.7-6.8,3.4-10.5c1-5.4,0.7-10.6-1.1-15.8c-4.5-12.9-12.8-22.3-25.3-27.9
					c-10.2-4.7-20.8-8.6-30.8-13.8c-8.5-4.4-16.7-9.3-24.2-15.4c-8.9-7.1-14.3-16.3-17-27.3c-0.8-3.1-0.2-5.3,2.2-7.6
					c6.5-6.3,13-12.7,19.2-19.3c8.6-9.2,18.5-7.1,25.6,0c22.1,21.9,44.2,43.8,66.2,65.7c5.3,5.2,10.6,10.3,15.7,15.6
					c6.8,6.9,7.2,15.9,0.4,23c-10.8,11.3-22,22.2-33,33.3c-0.2,0.2-0.6,0.3-0.9,0.4C461.2,376.1,461,376,460.8,375.8"/>
				<path class="st3" d="M444.6,391.9c0.4-0.6,1.1-1.1,1.6-0.6c0.6,0.7-0.5,0.9-0.9,1.4C445.1,392.4,444.8,392.1,444.6,391.9"/>
				<path class="st3" d="M461.4,376.2c-0.3,0.5-0.5,1.5-1.1,1c-0.6-0.4,0-1.1,0.6-1.4C461,376,461.2,376.1,461.4,376.2"/>
				<path class="st4" d="M505,441.4c2.2,1.1,4.2,2,6.1,3.1c2.2,1.3,3.8,0.9,5.2-1.1c0.2-0.3,0.5-0.5,0.7-0.7
					c2.9-2.9,2.9-2.9,5.1,0.3c2.6,3.8,2.6,3.8,7.2,2.9c1.3-0.3,2.7-0.3,4.2-0.5c0.9,2.3-0.3,4.4-0.4,6.5c-0.2,2.6,0.5,4.2,3,5
					c1.6,0.5,3,1.4,4.5,2.2c0.1,1.9-1.4,2.9-2.4,3.7c-3.3,2.7-3.2,5.5-1,8.8c0.7,1.1,1.5,2.3,1.6,4c-1.3,1-3.1,1.2-4.6,1.2
					c-3.8,0.1-5.3,2.1-5.7,5.6c-0.1,1.2-0.5,2.3-0.8,3.5c-2.2,0.4-3.7-0.9-5.3-1.7c-2.6-1.4-4.4-0.9-6.1,1.4c-1,1.3-2.3,2.5-3.5,3.8
					c-2-1.6-2.6-3.8-3.7-5.6c-1-1.7-2-2.5-4.1-1.9c-2.1,0.7-4.3,0.9-6.6,1.3c-1.3-2.1-0.5-4.3-0.3-6.4c0.6-4.6,0.7-4.6-3.3-6.7
					c-1-0.6-2-1.1-3.3-1.8c0.5-1.9,1.9-2.9,3.1-4c4.1-3.9,3.5-3.6,1.3-7.6c-0.1-0.1-0.2-0.3-0.2-0.4c-1.8-3.6-1.8-3.6,1.9-4.6
					c0.8-0.2,1.6-0.6,2.5-0.6c2.5-0.2,3.5-1.5,3.6-4C503.8,445.3,503.7,443.4,505,441.4"/>
				<path class="st2" d="M466.5,555.4c1.8,0.1,2.3,1,3,1.7c6.4,6.3,12.8,12.6,19.1,18.9c7.2,7.3,7.4,15.8,0.7,23.5
					c-0.8,0.9-1.6,1.6-2.4,2.5c-24.9,25.1-49.8,50.3-74.8,75.4c-0.7,0.7-1.4,1.4-2.1,2.1c-8.7,8.5-19.3,7.3-26.6-3.1
					c10.1-0.9,18.1-6,25.7-12c18.6-14.8,32.2-33.6,43-54.5c6-11.6,10.7-23.7,13-36.7C466.2,567.3,466.6,561.5,466.5,555.4"/>
				<path class="st4" d="M533.2,496.3c7.2,3.7,13.6,7,20.1,10.3c1.2,0.6,2.2,1.6,2.9,2.8c2.3,3.8,4.5,7.5,7,11.2
					c1.3,1.9,1.1,3.4-0.6,4.8c-0.3,0.2-0.5,0.5-0.7,0.7c-8.2,8.7-9.5,9.2-21.5,9.8c-2.1,0.1-3.6-0.4-4.5-2.3
					c-0.1-0.2-0.2-0.3-0.3-0.4c-7-10.6-7-10.6-4.7-23C531.7,505.9,532.3,501.5,533.2,496.3"/>
				<path class="st4" d="M499,430.8c-7.5-2.9-14.4-6.1-21.2-9.3c-1.1-0.5-1.8-1.5-2.4-2.5c-2.2-3.6-4.3-7.3-6.6-10.9
					c-1-1.6-0.9-2.7,0.4-4c3.6-3.5,7.2-7.2,10.7-10.8c1.2-1.2,2.5-1.7,4.1-1.6c0.5,0,1,0.1,1.5,0c5.8-0.5,9.6,1.5,12.5,7.1
					c3,5.8,5.2,11.1,3.6,17.8C500.5,421,500.3,425.8,499,430.8"/>
				<path class="st4" d="M549.3,481.4c6.2-1.2,12.2-1.7,17.7-3.4c7.4-2.3,13.1,1.3,19.1,4.2c1.4,0.7,1.9,1.8,2,3.3c0,1,0.1,2,0.1,3
					c0.3,11.1-1,13.9-9.6,20.8c-1.2,1-2.3,1.2-3.7,0.5c-4.5-2.3-9.1-4.5-13.6-6.8c-0.7-0.4-1.3-1.1-1.8-1.7
					c-0.4-0.5-0.6-1.2-0.9-1.8C555.6,493.6,552.6,487.8,549.3,481.4"/>
				<path class="st4" d="M521.9,428.2c-3.8-6.9-7.5-13.5-11.2-20.1c-0.7-1.3-0.6-2.6-0.4-3.9c0.4-2.8,0.8-5.7,1.1-8.5
					c0.5-5.7,0.5-5.7,6.3-6.9c11.4-2.3,11.4-2.2,21.5,3.5c1.5,0.8,2.4,1.7,2.1,3.5c-0.6,4.4-1,8.7-1.5,13.1c-0.1,1-0.5,2-1.2,2.7
					C533.2,417,527.8,422.4,521.9,428.2"/>
				<path class="st4" d="M483.2,447c-8.1,2.2-15.6,3.7-23.2,4c-5.6,0.2-10.1-3.5-14.6-6.3c-0.6-0.4-0.8-1.4-1-2.2
					c-2-6.6-2.8-13,4.2-17.4c0.3-0.2,0.5-0.5,0.7-0.7c5.8-5.8,5.8-6,13.1-2.8c12.2,5.4,8.8,2.1,14.9,13.7
					C479.1,439,481,442.7,483.2,447"/>
				<path class="st4" d="M479.4,470.1c-6.1,6.3-11.6,12-17.1,17.7c-1,1-2.2,1.5-3.6,1.7c-3.2,0.4-6.4,0.7-9.5,1.4
					c-2.3,0.5-3.5-0.4-4.4-2.3c-1.5-3.1-3.1-6-4.7-9c-0.8-1.5-1.2-3-0.8-4.9c0.6-2.3,0.9-4.7,1.2-7c1.1-7.7,0.9-5.6,7.3-7.3
					c6.8-1.9,12.9-0.6,18.9,3.1C470.7,465.9,475,467.8,479.4,470.1"/>
				<path class="st4" d="M553.1,457.9c5.7-6.1,10.9-11.6,16-17.2c1-1.1,2.2-1.5,3.6-1.7c1.7-0.3,3.3-0.5,5-0.8
					c8.9-1.8,6.9-1.1,11.2,5.4c5,7.5,2.4,14.9,1.3,22.5c-0.2,1.2-0.9,1.7-2,1.9c-3.6,0.7-7.3,1.4-10.9,2c-1.2,0.2-2.3-0.2-3.4-0.8
					C567.2,465.5,560.5,461.9,553.1,457.9"/>
				<path class="st4" d="M510.8,501.4c3.4,6.2,7,12.7,10.6,19.2c0.7,1.2,1,2.5,0.7,3.9c-0.6,3.7-1.3,7.3-1.9,11
					c-0.3,2.2-1.6,3.3-3.6,3.7c-3.5,0.7-7,1.3-10.5,2c-1.6,0.3-3-0.2-4.4-0.9c-2.8-1.6-5.6-3.2-8.5-4.6c-2.3-1.1-2.8-2.7-2.4-5
					c0.1-0.3,0.1-0.7,0.1-1c0.2-7.3,3.3-13.2,8.8-18.1C503.6,508.4,507.1,505,510.8,501.4"/>
				<path class="st4" d="M487,491.5c1.9-0.2,2.5,0.8,2.2,2.5c-1,6.9-1.9,13.7-2.9,20.6c-0.2,1.6-1.1,2.8-2.2,3.9c-1,1-1.9,2-2.8,2.9
					c-5.8,6.2-6.3,6.6-13.2,1.7c-5-3.6-9.6-7.9-12.8-13.5c-1.5-2.6-1.1-4.3,1-6.2c2.2-2.1,4.2-4.4,6.3-6.6c0.9-1,1.8-2,3.3-2.2
					C473,493.6,480,492.6,487,491.5"/>
				<path class="st4" d="M542.2,436.9c1.1-7.7,2.1-14.7,3-21.7c0.2-1.3,0.8-2.2,1.7-3c2.9-2.9,5.8-5.7,8.6-8.6
					c1.1-1.1,2.1-1.5,3.6-0.7c7.8,4,13.6,9.8,17.4,17.7c0.8,1.6,0.6,2.9-0.6,4.1c-2.3,2.5-4.5,5-6.8,7.6c-0.9,1.1-2.1,1.7-3.5,1.8
					C558.1,434.9,550.6,435.8,542.2,436.9"/>
				<path class="st4" d="M518.6,382.2c-3.5,0.6-6,1.2-8.5,1.5c-2.3,0.3-3.6,1.2-3.8,3.8c-0.2,2.6-0.9,5.2-1.5,8.4
					c-2.2-2-3.2-3.9-4-5.8c-1.4-3.7-4.2-5-7.8-5.3c-1-0.1-2-0.2-3.3-0.4c0.5-2.7,2.7-3.9,4.3-5.4c2.5-2.5,4.4-6.5,7.8-6.8
					c3-0.2,5.8,3.1,8.6,4.9C512.8,378.6,515.2,380.1,518.6,382.2"/>
				<path class="st4" d="M526.5,561.3c-6.2,4.6-12.3,4.8-18.4,1.1c-5.1-3.1-8.9-7.6-13.1-12.2c5-1.9,9.3-2.4,13.8,0.5
					c4.2,2.8,8.9,4.9,13.3,7.3C523.5,558.9,525.1,559.5,526.5,561.3"/>
				<path class="st4" d="M436.4,438.8c-1.8,8.1,3.6,11.4,10.8,14c-3.1,1.7-5.7,1.8-8,2.2c-2.7,0.4-3.6,1.7-4.1,4.2
					c-0.5,2.2-0.1,4.8-2.2,7c-2.9-4.8-5.7-9.4-8.5-14c-0.7-1.1-1-2.1,0.1-3.2c3.5-3.4,6.7-7.2,10.6-10.3
					C435.2,438.5,435.7,438.7,436.4,438.8"/>
				<path class="st4" d="M587.6,475c1.6-1.3,3.2-1.1,4.6-1.1c2.6,0,4-0.9,4.2-3.8c0.1-2.8,0.8-5.6,1.4-9.5c2.7,4.4,5,8,7.2,11.6
					c4.7,7.7,4.6,5.4-1.2,11.5c-2.4,2.6-4.9,5.1-7.9,8.2c-1-2.9-0.7-5.3-0.6-7.5c0.2-3.3-0.6-5.5-4-6.7
					C590.1,477.3,588.6,476.6,587.6,475"/>
				<path class="st4" d="M514.8,546.2c3.2-0.7,5.3-1.4,7.4-1.6c2.5-0.2,3.4-1.7,3.9-3.9c0.5-2.3,0.4-4.7,1.8-6.9
					c1.7,1.4,2.4,3.4,3.1,5.2c1.4,4,4,5,7.9,4.3c1.6-0.3,3.3-0.3,5-0.5c0.8,1.4-0.4,1.9-1,2.5c-2.8,2.9-5.8,5.7-8.5,8.7
					c-1.4,1.4-2.6,1.7-4.4,0.8C525,552.2,520.2,549.8,514.8,546.2"/>
				<path class="st4" d="M613.2,472.6c-2.2-2-3.2-4.7-4.7-7.1c-2.4-4.1-4.7-8.2-7-12.3c-1.8-3.3-1.5-6.7,0.1-10.5
					c4.3,4.1,8.6,7.7,11.8,12.2C617.8,460.8,617.7,466.9,613.2,472.6"/>
				<path class="st4" d="M506.5,367.1c5.9-3.9,11-3.7,16.2-1.1c5.4,2.7,9,7.4,13.4,11.9c-3.9,2.1-7.2,2.8-11,0.4
					C519.4,374.5,513.4,371.2,506.5,367.1"/>
				<path class="st4" d="M419,456c4.1,7.2,7.9,13.7,11.5,20.4c1.3,2.4,1.1,2.5-0.7,9c-4.4-3.9-8.8-7.6-12-12.3
					C414.2,467.8,414.6,462,419,456"/>
				<path class="st4" d="M563.6,471.6c-4.6,0.8-9.3,1.5-13.9,2.5c-2.5,0.6-4,0.2-5.2-2.3c-2.1-4.3-1.9-5.3,2.1-8.2
					c1.1-0.7,2-1.2,3.2-0.4c4.4,3,9.2,5.4,14.1,7.5C563.8,471,563.7,471.3,563.6,471.6"/>
				<path class="st4" d="M494.3,508.4c0.2-6,0.7-10.7,1.9-15.3c0.8-3.1,2.8-4.3,6.5-4c1.7,0.1,4,2.9,4.3,5c0.1,1.2-0.5,1.9-1.2,2.7
					C502.3,500.3,498.7,503.9,494.3,508.4"/>
				<path class="st4" d="M522.7,510.3c-2-3.9-4.1-7.8-6.2-11.9c-1.7-3.3,1.3-7.5,5.1-7.3c4.2,0.2,5.6,2.2,4.8,6.5
					c-0.7,3.6-1.3,7.3-2,10.9C524.2,509.2,524.3,510.3,522.7,510.3"/>
				<path class="st4" d="M558.9,441.7c-3.6,4.9-7.8,8.3-11.5,12.1c-1.1,1.1-4.5,0-6.2-1.7c-1.7-1.8-0.4-3.8-0.1-5.7
					c0.2-1.4,0.5-2.6,2.3-2.8C548.2,443.1,553.2,442.4,558.9,441.7"/>
				<path class="st4" d="M469.8,456.5c4.8-0.8,9.5-1.6,14.3-2.5c2.2-0.4,3.4,0.3,4.4,2.4c1,2,1.4,3.5-0.4,5.4
					c-2.9,3.1-3,3.3-6.8,1.5c-3.9-1.9-7.8-3.9-11.7-5.9C469.7,457.2,469.7,456.8,469.8,456.5"/>
				<path class="st4" d="M473.8,485.8c3.6-3.7,7.2-7.4,10.8-11.1c2.1-2.1,3.8-0.1,5.4,0.6c2.5,1.1,1.2,3.5,1.3,5.4
					c0,1.4,0,3.3-1.9,3.6c-5,0.8-10.1,1.5-15.2,2.2C474.1,486.3,474,486.1,473.8,485.8"/>
				<path class="st4" d="M481.7,430.8c6.1,1.8,10.3,4.8,15.1,6.4c1.4,0.5,1.6,1.4,1.4,2.8c-0.7,4.5-1.6,5.5-5.4,5.8
					c-1.9,0.1-3.2-0.4-4.1-2.1C486.5,439.7,484.3,435.7,481.7,430.8"/>
				<path class="st4" d="M549.1,496.9c-4.8-1.5-9.1-4.2-13.6-6.5c-1.7-0.9-1.6-4.6-0.1-6.3c2-2.3,6.8-2.2,8.3,0.5
					c2.2,3.8,4.1,7.7,6.1,11.6C549.6,496.4,549.3,496.7,549.1,496.9"/>
				<path class="st4" d="M508,418.3c4,4.3,6.1,9.1,8.5,13.7c0.5,1-2,4.1-3.7,4.9c-2.4,1-7.5-2.6-7.1-5.1
					C506.3,427.4,507.1,423.2,508,418.3"/>
				<path class="st4" d="M536.9,421.9c0.4,5.4-0.8,9.5-1.1,13.7c-0.2,2.6-2.7,4-6.1,3.8c-1.7-0.1-4.3-2.9-4.5-4.7
					c-0.1-0.8,0.3-1.3,0.8-1.8C529.4,429.5,532.8,426.1,536.9,421.9"/>
				<path class="st4" d="M492.3,543c-2.2,1.2-3.7,1.5-5.2,0c-2.5-2.5-5-5-7.5-7.5c-1.2-1.2-1.3-2.3,0.1-3.4c1.4-1.2,2.7-2.4,4.2-3.6
					c1.1,1.6,0.6,2.9,0.4,4.1c-0.6,5.1-0.7,5.1,3.9,7.8C489.5,541.2,490.7,542,492.3,543"/>
				<path class="st4" d="M548.6,391.3c0.5-0.1,0.8-0.2,0.9-0.1c5.7,4.1,5.5,5.3-2.1,10.2C546.9,397.7,548.3,394.5,548.6,391.3"/>
				<path class="st4" d="M443.3,498.3c3-0.4,5.9-0.8,8.8-1.3c0.3,1.5-0.7,2-1.4,2.7C446.8,503.7,446.5,503.6,443.3,498.3"/>
				<path class="st4" d="M594.5,441.1c-2-3.7-3.7-6.7-5.3-9.7C592,433.8,596.9,434.9,594.5,441.1"/>
				<path class="st4" d="M579.7,431c3.8-5.8,4.2-5.9,7.9-1.9C585.2,430.7,582.6,430.9,579.7,431"/>
				<path class="st4" d="M437.1,488.9c2.3,2.5,3.4,5.1,4.9,8C436.3,493.5,435.8,492.7,437.1,488.9"/>
				<path class="st4" d="M566.4,512.9c1.8-0.1,2.9,0.7,4,1.4c0.7,0.4,1.5,0.9,0.9,1.9c-0.4,0.7-1,1.3-1.7,1.7
					c-1,0.5-1.4-0.4-1.8-1.1C567.3,515.7,566.4,514.7,566.4,512.9"/>
				<path class="st4" d="M546.6,388.7c-2.5-1.1-4.6-1.9-6.5-3.4C542.8,383.6,542.8,383.6,546.6,388.7"/>
				<path class="st4" d="M466.2,415.3c-1.8,0-3-1-4.2-1.7c-1-0.5-0.9-1.3-0.3-2c0.7-0.9,1.6-1.2,2.4-0.1
					C465,412.6,465.9,413.7,466.2,415.3"/>
			</g>
		</g>
	</g>
</g>
</svg>
