<?xml version="1.0" encoding="utf-8"?>
<!-- Generator: Adobe Illustrator 24.1.0, SVG Export Plug-In . SVG Version: 6.00 Build 0)  -->
<svg version="1.1" id="Layer_1" xmlns="http://www.w3.org/2000/svg" xmlns:xlink="http://www.w3.org/1999/xlink" x="0px" y="0px"
	 viewBox="0 0 400 289" style="enable-background:new 0 0 400 289;" xml:space="preserve">
<style type="text/css">
	.st0{fill:#009FDF;}
	.st1{fill:#FAFCFD;}
	.st2{fill:#FDFEFE;}
</style>
<g id="kzyFth_1_">
	<g>
		<path class="st0" d="M98.4,4.7c4,0,8,0,12,0c0.2,0.1,0.4,0.3,0.6,0.3c4.7,0.4,9.4,1.2,14,2.4c16.2,4.4,29.5,13.2,40.1,26.2
			c1,1.2,1.5,1.6,2.8,0.3c18.3-17.4,39.9-23.9,64.6-18.6c19.9,4.3,34.8,15.9,45.4,33.2c0.7,1.2,1.2,1.6,2.7,0.9
			c17.4-7.3,35.3-8.7,53.6-4.3c18.3,4.4,33.5,14.1,45.6,28.5c10.5,12.6,16.9,27,19.3,43.2c0.3,2,0.1,4.1,1,6c0,4.6,0,9.2,0,13.8
			c-0.4,0.2-0.3,0.6-0.3,0.9c-0.4,2.7-0.6,5.5-1.1,8.2c-4.2,21.1-14.4,38.7-31.3,52.1c-20.3,16.1-43.5,21.7-69.1,17.4
			c-1.2-0.2-1.6,0.1-2.2,1c-10.8,17.6-26.4,28-46.9,30.5c-11.6,1.5-22.8-0.3-33.4-5.2c-1.2-0.6-1.7-0.4-2.2,0.8
			c-3,6.9-7.2,13.2-12.3,18.8c-10.8,11.8-24,19.3-39.7,22.4c-2.6,0.5-5.2,0.5-7.7,1.3c-3.9,0-7.8,0-11.6,0c-0.1-0.3-0.5-0.3-0.7-0.3
			c-3.3-0.3-6.5-0.8-9.7-1.6c-24.1-6.1-40.9-20.7-50.5-43.6c-0.6-1.3-1.2-1.6-2.5-1.3c-6.3,1.3-12.7,1.4-19.1,0.7
			c-14.6-1.5-27.3-7.4-38-17.4C11,211.3,4.3,199,1.4,184.6c-0.5-2.4-0.4-5-1.3-7.3c0-3.6,0-7.3,0-10.9c0.4-0.2,0.3-0.6,0.3-0.9
			c0.4-2.7,0.6-5.4,1.2-8c4.2-18.5,14.2-33,30.3-43.1c1.2-0.8,1.5-1.3,0.9-2.7c-5.7-13.9-7.1-28.4-4.5-43.1
			c2.7-15,9.4-28.2,19.9-39.3C59.8,16.9,73.9,9.2,90.6,6C93.2,5.5,95.9,5.6,98.4,4.7z M228.7,124.3c0.5,0,1.1-0.1,1.6,0
			c1.8,0.2,2.8-0.2,3.1-2.4c0.5-3.9,0.7-3.8-3.2-3.8c-4.9,0-4.9,0-3.4-4.7c1-3.1,3.5-4.8,6.7-4.5c1.1,0.1,2.5,1,3.3,0.3
			s1-2.2,1.4-3.3c0.2-0.4,0.3-0.9,0.5-1.3c0.3-0.7,0-1.1-0.7-1.3c-4.7-1.2-9.2-1.1-13.4,1.6c-3.6,2.4-4.9,6.2-5.9,10.1
			c-0.8,3.1-0.7,3.2-3.9,3.1c-1.9-0.1-2.8,0.4-3.1,2.5c-0.6,3.8-0.7,3.8,3.2,3.8c2.3,0,2.2,0,1.8,2.2c-1.4,7.6-2.7,15.2-4.1,22.8
			c-0.7,3.6-1.1,7.3-2.5,10.8c-1.6,3.9-3.9,5.2-7.9,4.1c-1.9-0.5-2.3,0.3-2.7,1.7c-1.4,4.2-1.5,4.4,3,4.8c5.3,0.5,10.1-0.6,13.1-5.6
			c1.6-2.5,2.5-5.3,3-8.2c1.8-9.7,3.5-19.3,5.3-29C224.6,124.3,224.5,124.3,228.7,124.3z M119.8,140.7c-0.1-4.8,0.1-8.6-0.2-12.5
			c-0.4-5-3-8.6-7.8-10c-5.8-1.7-11.5-1.1-17.1,0.9c-3.3,1.2-3.3,1.2-2.1,4.4c0.2,0.4,0.3,0.9,0.5,1.3c0.3,1.1,0.8,1.5,2,0.9
			c2.9-1.5,6.1-2,9.3-2.1c5.3-0.2,7.7,1.9,7.9,6.5c0.1,1.2-0.2,1.6-1.6,1.4c-3.6-0.5-7.3-0.7-10.9,0.1c-6.5,1.4-10.8,6.1-10.1,13.2
			c0.5,5.3,4.6,9,10.7,9.7c6,0.7,11.8-0.4,17.6-1.6c1.2-0.3,1.6-0.8,1.6-2C119.8,147.3,119.8,143.5,119.8,140.7z M161.2,138.1
			c3.4,0,6.8,0,10.2,0c1.2,0,1.8-0.2,1.9-1.6c0.1-1.7,0-3.3-0.1-4.9c-0.4-7.2-5.1-13.6-13.7-14.2c-6.9-0.5-13.5,3-16.2,9
			c-2.2,5-2.4,10.2-1.4,15.5c1.1,5.5,4.2,9.6,9.5,11.5c6.1,2.3,12.3,1.9,18.4-0.1c2.4-0.8,2.4-0.9,1.5-3.4c-0.2-0.7-0.5-1.3-0.7-2
			c-0.3-1.1-0.9-1.3-2-0.9c-2.6,1.1-5.3,1.4-8.1,1.5c-6.7,0.2-10.5-3-11.2-9c-0.1-1.2,0.1-1.5,1.3-1.5
			C154.3,138.1,157.7,138.1,161.2,138.1z M346.9,138.1c3.5,0,7.1,0,10.6,0c1.1,0,1.5-0.4,1.6-1.4c0-1.4,0.1-2.8,0.1-4.2
			c-0.6-8.6-5.4-14.5-14-15.1c-7.6-0.5-14.2,3.6-16.6,10.6c-1.5,4.3-1.8,8.7-0.9,13.2c0.9,4.8,3.1,8.9,7.6,11.2
			c7.1,3.6,14.4,3.1,21.6,0.4c0.9-0.3,1.2-0.8,0.7-1.7c-0.5-1-0.8-2.1-1.1-3.1c-0.3-1.1-0.8-1.3-1.9-0.9c-2.8,1.1-5.8,1.5-8.8,1.5
			c-6.1,0-9.5-2.9-10.4-8.5c-0.2-1.3-0.2-2.2,1.6-2.1C340.1,138.2,343.5,138.1,346.9,138.1z M267.9,135.8c0-0.6-0.1-1.5-0.2-2.5
			c-0.5-9.4-6.5-15.4-15.9-16c-8-0.5-14.6,4.4-16.5,12.1c-1,3.9-1,7.8-0.3,11.7c1.1,6.3,4.4,11.1,10.8,12.9c6.6,1.9,12.9,1,17.8-4.3
			C267,146,267.8,141.2,267.9,135.8z M192.4,155c2.4,0.1,5-0.3,7.4-1.5c3.6-1.7,5.5-4.6,5.9-8.6c0.4-4.3-1.2-7.4-4.9-9.5
			c-1.8-1-3.7-1.7-5.7-2.4c-2.5-0.9-5.1-1.4-7.3-3c-2-1.4-2-3.8-0.2-5.4c0.9-0.8,1.9-1.1,3.1-1.2c2.9-0.2,5.6,0.4,8.3,1.2
			c1.3,0.4,2.7,2,3.8,1.2c1-0.7,1.2-2.5,1.8-3.9c0-0.1,0-0.1,0-0.2c0.3-0.8,0.1-1.3-0.6-1.7c-5.5-2.8-11.3-3.9-17.3-2
			c-4.5,1.4-7.2,5-7.5,9.8c-0.3,4.2,1.7,7.2,6.1,9.3c0.9,0.5,1.9,0.8,2.9,1.1c2.5,0.9,5,1.6,7.5,2.6c2.2,0.9,3.1,2.3,2.9,3.9
			c-0.2,1.9-1.4,3.2-3.6,3.8c-3.9,0.9-7.5-0.2-11-1.7c-1.3-0.6-2.4-2.2-3.7-1.7c-1.2,0.6-1.1,2.6-1.8,3.9c-0.6,1.2-0.2,1.8,0.9,2.4
			C183.2,153.9,187.5,155.1,192.4,155z M72.4,155c2.4,0.1,5.2-0.4,7.7-1.7c3.8-2,5.4-5.4,5.6-9.5c0.1-3.9-1.9-6.5-5.1-8.4
			c-2.1-1.2-4.3-1.9-6.5-2.6c-2.1-0.7-4.2-1.2-6-2.4c-1.2-0.8-1.9-1.8-1.7-3.4c0.2-1.5,1.1-2.4,2.4-3c0.8-0.4,1.7-0.5,2.6-0.5
			c3.5-0.1,6.7,0.8,9.9,2.2c0.6,0.3,1.3,1,1.9-0.1c1.1-1.8,1.7-4.7,1-5.3c0,0-0.1-0.1-0.2-0.1c-6-3.1-12.3-4.3-18.8-1.6
			c-4.2,1.8-6.2,5.2-6.2,9.8c0,4.5,2.5,7.1,6.3,8.9c1.2,0.6,2.5,0.9,3.8,1.4c2.2,0.7,4.4,1.4,6.5,2.2c2.2,0.9,3,2.1,2.9,3.9
			c-0.1,1.8-1.4,3.3-3.6,3.8c-3.8,0.9-7.4-0.2-10.9-1.7c-1.3-0.6-2.5-2.3-3.8-1.7s-1.1,2.7-1.8,4c-0.5,1-0.2,1.6,0.7,2.1
			C62.9,153.8,67.2,155,72.4,155z M316.9,148.4c-6.9,0.2-10.6-2.4-11.9-8.2c-0.7-3.1-0.6-6.2,0.3-9.2c1.1-3.5,3.1-6.2,6.9-7
			c2.1-0.4,4.2-0.2,6.3-0.1c1.4,0.1,3,1.4,4.1,0.4c1-0.9,1.1-2.7,1.6-4c0.5-1.1,0.1-1.4-0.9-1.8c-2.3-0.7-4.7-1-7.1-1.2
			c-8.7-0.8-15.5,3.4-18.3,11.2c-1.3,3.7-1.5,7.5-1,11.3c1,7,4.9,12.9,12.5,14.5c4,0.8,7.9,0.7,11.9-0.2c3.7-0.8,3.7-0.9,2.4-4.5
			c-0.2-0.5-0.3-1-0.5-1.5c-0.3-0.7-0.6-1.1-1.6-0.7C320,148.2,318,148.4,316.9,148.4z M127.3,128.7c0,6.7,0,13.4,0,20.1
			c0,1.7-0.7,3.8,0.3,4.9c1.1,1.2,3.3,0.2,5.1,0.5c1.7,0.2,2-0.5,2-2.1c-0.1-14.5,0-29,0-43.5c0-1.7,0.7-3.9-0.3-4.9
			c-1.2-1.2-3.5-0.3-5.3-0.5c-1.5-0.2-1.9,0.4-1.9,1.9C127.4,113,127.3,120.8,127.3,128.7z M281.7,121.3c-0.5-3.1-0.5-3.1-3.7-3.1
			c-0.5,0-1.1,0.1-1.6,0c-1.7-0.2-2.3,0.4-2.3,2.2c0.1,10.4,0,20.8,0,31.2c0,2.6,0,2.6,2.7,2.6c0.9,0,1.8-0.1,2.6,0
			c1.8,0.2,2.2-0.6,2.3-2.3c0-6.3-0.2-12.6,0.2-18.8c0.3-5.1,3.2-8.2,7.7-8.5c1.4-0.1,3.2,0.8,4.2-0.3c0.9-1,1-2.7,1.6-4
			c0.5-1.1,0.3-1.7-1-1.9C289.6,117.3,285.3,117.8,281.7,121.3z"/>
		<path class="st1" d="M228.7,124.3c-4.1,0-4.1,0-4.7,3.6c-1.7,9.7-3.5,19.3-5.3,29c-0.5,2.9-1.5,5.7-3,8.2c-3,5-7.8,6.1-13.1,5.6
			c-4.5-0.4-4.4-0.6-3-4.8c0.5-1.4,0.9-2.2,2.7-1.7c4,1.1,6.4-0.2,7.9-4.1c1.4-3.4,1.8-7.1,2.5-10.8c1.4-7.6,2.7-15.2,4.1-22.8
			c0.4-2.2,0.5-2.2-1.8-2.2c-3.9,0-3.8,0-3.2-3.8c0.3-2.1,1.2-2.5,3.1-2.5c3.2,0.1,3.1,0,3.9-3.1c1-3.9,2.3-7.7,5.9-10.1
			c4.1-2.8,8.7-2.8,13.4-1.6c0.7,0.2,1,0.6,0.7,1.3c-0.2,0.4-0.3,0.9-0.5,1.3c-0.4,1.1-0.6,2.6-1.4,3.3c-0.8,0.7-2.2-0.2-3.3-0.3
			c-3.2-0.3-5.6,1.4-6.7,4.5c-1.6,4.8-1.6,4.8,3.4,4.7c3.9,0,3.7,0,3.2,3.8c-0.3,2.2-1.2,2.6-3.1,2.4
			C229.8,124.2,229.2,124.3,228.7,124.3z"/>
		<path class="st1" d="M119.8,140.7c0,2.8,0,6.5,0,10.3c0,1.2-0.4,1.8-1.6,2c-5.8,1.2-11.6,2.3-17.6,1.6c-6.1-0.7-10.2-4.4-10.7-9.7
			c-0.7-7.2,3.6-11.8,10.1-13.2c3.6-0.8,7.2-0.7,10.9-0.1c1.3,0.2,1.6-0.2,1.6-1.4c-0.2-4.6-2.6-6.7-7.9-6.5
			c-3.2,0.1-6.4,0.6-9.3,2.1c-1.2,0.6-1.7,0.2-2-0.9c-0.1-0.4-0.3-0.9-0.5-1.3c-1.2-3.2-1.2-3.2,2.1-4.4c5.6-2,11.3-2.6,17.1-0.9
			c4.8,1.4,7.4,5,7.8,10C119.9,132.1,119.7,135.9,119.8,140.7z M112.5,142.9C112.4,142.9,112.4,142.9,112.5,142.9c0-1.4,0-2.8,0-4.2
			c0-0.6,0-1.2-0.8-1.3c-3.4-0.3-6.9-0.9-10.3,0.3c-3,1-4.2,2.9-4,6.2c0.1,2.5,1.7,4.1,4.6,4.7c2.6,0.6,5.3,0.2,7.9-0.1
			s2.6-0.4,2.6-3.2C112.5,144.6,112.5,143.8,112.5,142.9z"/>
		<path class="st1" d="M161.2,138.1c-3.5,0-6.9,0-10.4,0c-1.2,0-1.5,0.3-1.3,1.5c0.6,6.1,4.5,9.3,11.2,9c2.8-0.1,5.5-0.4,8.1-1.5
			c1.1-0.5,1.6-0.2,2,0.9c0.2,0.7,0.5,1.3,0.7,2c0.9,2.4,0.9,2.6-1.5,3.4c-6.1,2-12.3,2.4-18.4,0.1c-5.3-2-8.4-6-9.5-11.5
			c-1-5.3-0.8-10.5,1.4-15.5c2.6-6,9.3-9.5,16.2-9c8.6,0.6,13.3,7,13.7,14.2c0.1,1.6,0.2,3.3,0.1,4.9c-0.1,1.4-0.7,1.6-1.9,1.6
			C168,138,164.6,138.1,161.2,138.1z M157.5,132.4c2.4,0,4.8,0,7.2,0c0.5,0,1,0.2,1.1-0.7c0.3-2.9-2.2-6.8-5.1-7.7
			c-5.5-1.7-10.4,1.6-11.2,7.4c-0.1,1,0.3,1.1,1.1,1C153,132.4,155.2,132.4,157.5,132.4z"/>
		<path class="st1" d="M346.9,138.1c-3.3,0-6.7,0.1-10-0.1c-1.9-0.1-1.9,0.8-1.6,2.1c0.9,5.7,4.3,8.5,10.4,8.5c3,0,6-0.3,8.8-1.5
			c1.1-0.4,1.6-0.2,1.9,0.9c0.3,1.1,0.7,2.1,1.1,3.1c0.4,0.9,0.1,1.4-0.7,1.7c-7.3,2.6-14.5,3.1-21.6-0.4c-4.5-2.3-6.7-6.4-7.6-11.2
			c-0.8-4.5-0.6-8.9,0.9-13.2c2.5-7.1,9-11.1,16.6-10.6c8.6,0.6,13.5,6.4,14,15.1c0.1,1.4,0,2.8-0.1,4.2c0,1-0.5,1.4-1.6,1.4
			C353.9,138,350.4,138.1,346.9,138.1z M343.4,132.4c2.3,0,4.7,0,7,0c0.5,0,1.2,0.2,1.2-0.8c0-3.4-2.4-6.7-5.5-7.7
			c-5.3-1.6-9.8,1.4-10.8,7.2c-0.2,1-0.1,1.3,1,1.3C338.7,132.4,341.1,132.4,343.4,132.4z"/>
		<path class="st1" d="M267.9,135.8c-0.1,5.3-0.9,10.1-4.4,13.9c-4.9,5.3-11.2,6.2-17.8,4.3c-6.3-1.8-9.6-6.6-10.8-12.9
			c-0.7-3.9-0.6-7.8,0.3-11.7c1.9-7.7,8.5-12.6,16.5-12.1c9.4,0.6,15.4,6.6,15.9,16C267.8,134.3,267.9,135.3,267.9,135.8z
			 M260,136.1c0.1-2.3-0.2-4.8-1.1-7.2c-1.3-3.4-3.9-5.2-7.5-5.2c-3.6-0.1-6.3,1.5-7.6,4.9c-2.1,5.5-2.1,11.1,0.5,16.5
			c1.4,2.8,3.9,3.7,6.9,3.7c3.1,0,5.5-1,7-3.8C259.7,142.3,260.1,139.3,260,136.1z"/>
		<path class="st1" d="M192.4,155c-4.9,0.1-9.2-1.1-13.2-3.5c-1-0.6-1.4-1.2-0.9-2.4c0.6-1.3,0.6-3.3,1.8-3.9
			c1.2-0.6,2.4,1.1,3.7,1.7c3.5,1.5,7.1,2.7,11,1.7c2.2-0.5,3.4-1.9,3.6-3.8c0.2-1.6-0.7-3-2.9-3.9c-2.4-1-5-1.7-7.5-2.6
			c-1-0.3-2-0.7-2.9-1.1c-4.4-2.1-6.4-5.1-6.1-9.3c0.3-4.8,3-8.4,7.5-9.8c6-1.8,11.8-0.8,17.3,2c0.8,0.4,1,0.9,0.6,1.7
			c0,0.1,0,0.1,0,0.2c-0.6,1.3-0.8,3.2-1.8,3.9c-1.1,0.8-2.5-0.8-3.8-1.2c-2.7-0.8-5.4-1.4-8.3-1.2c-1.2,0.1-2.2,0.4-3.1,1.2
			c-1.9,1.6-1.8,3.9,0.2,5.4c2.2,1.6,4.8,2.1,7.3,3c1.9,0.7,3.9,1.4,5.7,2.4c3.7,2.1,5.4,5.2,4.9,9.5c-0.4,3.9-2.3,6.8-5.9,8.6
			C197.4,154.7,194.8,155.1,192.4,155z"/>
		<path class="st1" d="M72.4,155c-5.1,0-9.4-1.2-13.4-3.6c-0.9-0.5-1.3-1.1-0.7-2.1c0.7-1.3,0.6-3.4,1.8-4c1.3-0.6,2.5,1.1,3.8,1.7
			c3.5,1.5,7.1,2.6,10.9,1.7c2.2-0.5,3.5-2,3.6-3.8s-0.6-3-2.9-3.9c-2.1-0.9-4.3-1.5-6.5-2.2c-1.3-0.4-2.6-0.8-3.8-1.4
			c-3.8-1.7-6.3-4.4-6.3-8.9s2.1-8,6.2-9.8c6.4-2.7,12.7-1.5,18.8,1.6c0.1,0,0.1,0.1,0.2,0.1c0.7,0.6,0.1,3.5-1,5.3
			c-0.7,1.1-1.3,0.3-1.9,0.1c-3.1-1.4-6.4-2.3-9.9-2.2c-0.9,0-1.8,0.1-2.6,0.5c-1.3,0.6-2.2,1.5-2.4,3c-0.2,1.6,0.5,2.6,1.7,3.4
			c1.9,1.2,4,1.7,6,2.4c2.2,0.7,4.4,1.5,6.5,2.6c3.3,1.9,5.3,4.5,5.1,8.4c-0.1,4.1-1.7,7.5-5.6,9.5C77.5,154.6,74.8,155.1,72.4,155z
			"/>
		<path class="st1" d="M316.9,148.4c1.1,0,3.1-0.2,4.9-0.9c0.9-0.4,1.3,0,1.6,0.7c0.2,0.5,0.3,1,0.5,1.5c1.3,3.6,1.3,3.6-2.4,4.5
			c-3.9,0.9-7.9,1.1-11.9,0.2c-7.7-1.6-11.6-7.5-12.5-14.5c-0.5-3.8-0.3-7.6,1-11.3c2.8-7.8,9.6-11.9,18.3-11.2
			c2.4,0.2,4.8,0.5,7.1,1.2c1,0.3,1.4,0.7,0.9,1.8c-0.6,1.3-0.7,3.1-1.6,4c-1.1,1-2.7-0.3-4.1-0.4c-2.1-0.1-4.2-0.3-6.3,0.1
			c-3.8,0.8-5.9,3.5-6.9,7c-0.9,3-1,6.2-0.3,9.2C306.3,146,309.9,148.6,316.9,148.4z"/>
		<path class="st2" d="M127.3,128.7c0-7.9,0-15.7,0-23.6c0-1.5,0.4-2.1,1.9-1.9c1.8,0.2,4.1-0.8,5.3,0.5c1,1.1,0.3,3.3,0.3,4.9
			c0,14.5,0,29,0,43.5c0,1.6-0.4,2.3-2,2.1c-1.7-0.2-3.9,0.8-5.1-0.5c-1.1-1.1-0.3-3.3-0.3-4.9C127.3,142.1,127.3,135.4,127.3,128.7
			z"/>
		<path class="st1" d="M281.7,121.3c3.6-3.5,7.9-4,12.6-3c1.3,0.3,1.5,0.8,1,1.9c-0.6,1.3-0.7,3-1.6,4c-1,1.2-2.7,0.2-4.2,0.3
			c-4.5,0.3-7.3,3.4-7.7,8.5c-0.4,6.3-0.2,12.6-0.2,18.8c0,1.7-0.4,2.5-2.3,2.3c-0.9-0.1-1.8,0-2.6,0c-2.7,0-2.7,0-2.7-2.6
			c0-10.4,0-20.8,0-31.2c0-1.8,0.6-2.5,2.3-2.2c0.5,0.1,1.1,0,1.6,0C281.2,118.2,281.2,118.2,281.7,121.3z"/>
		<path class="st0" d="M112.5,142.9c0,0.8,0,1.6,0,2.5c0,2.7,0,2.8-2.6,3.2c-2.6,0.3-5.2,0.7-7.9,0.1c-2.9-0.7-4.5-2.3-4.6-4.7
			c-0.2-3.3,1-5.2,4-6.2c3.4-1.2,6.9-0.6,10.3-0.3c0.8,0.1,0.8,0.7,0.8,1.3C112.4,140.1,112.4,141.5,112.5,142.9
			C112.4,142.9,112.4,142.9,112.5,142.9z"/>
		<path class="st0" d="M157.5,132.4c-2.3,0-4.6,0-6.9,0c-0.8,0-1.2-0.1-1.1-1c0.8-5.8,5.7-9.1,11.2-7.4c2.9,0.9,5.4,4.8,5.1,7.7
			c-0.1,0.9-0.7,0.7-1.1,0.7C162.4,132.4,159.9,132.4,157.5,132.4z"/>
		<path class="st0" d="M343.4,132.4c-2.3,0-4.7,0-7,0c-1.1,0-1.2-0.3-1-1.3c1.1-5.8,5.5-8.8,10.8-7.2c3.1,0.9,5.4,4.3,5.5,7.7
			c0,1-0.6,0.8-1.2,0.8C348.1,132.4,345.8,132.4,343.4,132.4z"/>
		<path class="st0" d="M260,136.1c0.1,3.2-0.3,6.2-1.8,8.9c-1.5,2.8-4,3.8-7,3.8s-5.5-0.9-6.9-3.7c-2.6-5.4-2.6-11-0.5-16.5
			c1.3-3.4,4-4.9,7.6-4.9c3.7,0.1,6.2,1.8,7.5,5.2C259.8,131.3,260.1,133.8,260,136.1z"/>
	</g>
</g>
</svg>
