<?xml version="1.0" encoding="utf-8"?>
<!-- Generator: Adobe Illustrator 24.1.0, SVG Export Plug-In . SVG Version: 6.00 Build 0)  -->
<svg version="1.1" id="Layer_1" xmlns="http://www.w3.org/2000/svg" xmlns:xlink="http://www.w3.org/1999/xlink" x="0px" y="0px"
	 viewBox="0 0 400 400" style="enable-background:new 0 0 400 400;" xml:space="preserve">
<style type="text/css">
	.st0{fill:#FFFFFF;}
	.st1{fill:#FF2D4F;}
</style>
<rect x="45.8" y="48.8" class="st0" width="308.5" height="302.5"/>
<g id="yDvLXm.tif_3_">
	<g>
		<path class="st1" d="M68.2,206.6c0,40.7,0,81.3,0,122c87.9,0,175.7,0,263.8,0c0-27.7,0-55.3,0-83.1c7.5,0,14.7,0,22.3,0
			c0,1,0,1.9,0,2.8c0,33.2,0,66.5,0.1,99.7c0,2.6-0.6,3.3-3.3,3.3c-100.7-0.1-201.4-0.1-302.1,0c-2.6,0-3.3-0.7-3.3-3.3
			c0.1-53.8,0.1-107.6,0.1-161.3c0-3.4,0-3.3,3.4-3.4c12.5-0.2,24.9,0.7,37.1,4c24.8,6.9,45,20.5,60.3,41.2
			c13.4,18.1,20.3,38.6,20.9,61.2c0,1.9-0.3,2.6-2.3,2.6c-5.9-0.1-11.8-0.1-17.7,0c-1.8,0-2.3-0.6-2.4-2.4
			c-0.9-40.7-30.9-74.8-71.4-82.6C71.9,207,70.1,206.9,68.2,206.6z"/>
		<path class="st1" d="M233,107.5c6.9,0,13.6,0,20.4,0.1c0.5,0,1.2,1.2,1.3,1.9c0.9,5.8,1.1,11.8,2.5,17.5
			c5.3,22.8,18.2,40.3,37.7,53c10.3,6.7,21.7,10.9,33.8,13c1,0.2,2,0.2,3.2,0.3c0-40.7,0-81.3,0-122c-87.8,0-175.6,0-263.8,0
			c0,1,0,2,0,3c0,25.7,0,51.4,0,77.1c0,3.3,0,3.3-3.4,3.3c-5.2,0-10.4,0-15.7,0c-1,0-2-0.1-3.2-0.2c0-1.2,0-2.1,0-3
			c0-33.1,0-66.3,0-99.4c0-3.3,0-3.3,3.4-3.3c100.6,0,201.2,0,301.8,0c1,0,2,0,3.3,0c0,1.3,0,2.3,0,3.3c0,53.7,0,107.4,0,161.1
			c0,3.4,0,3.3-3.3,3.4c-12.4,0.2-24.6-0.5-36.6-3.8c-24.7-6.7-45-20.2-60.3-40.7c-13.5-18-20.7-38.2-21.3-60.7c0-0.9,0-1.7,0-2.6
			C232.7,108.4,232.8,108.1,233,107.5z"/>
	</g>
</g>
</svg>
