<?xml version="1.0" encoding="utf-8"?>
<!-- Generator: Adobe Illustrator 21.0.0, SVG Export Plug-In . SVG Version: 6.00 Build 0)  -->
<svg version="1.1" id="Layer_1" xmlns="http://www.w3.org/2000/svg" xmlns:xlink="http://www.w3.org/1999/xlink" x="0px" y="0px"
	 viewBox="0 0 400 400" style="enable-background:new 0 0 400 400;" xml:space="preserve">
<style type="text/css">
	.st0{opacity:0.2;}
	.st1{fill:none;}
	.st2{fill:#4AB7D6;}
	.st3{fill:url(#SVGID_1_);}
	.st4{fill:url(#SVGID_2_);}
	.st5{fill:url(#SVGID_3_);}
	.st6{fill:url(#SVGID_4_);}
	.st7{fill:url(#SVGID_5_);}
	.st8{fill:url(#SVGID_6_);}
	.st9{fill:url(#SVGID_7_);}
	.st10{fill:url(#SVGID_8_);}
	.st11{fill:url(#SVGID_9_);}
	.st12{fill:url(#SVGID_10_);}
	.st13{fill:url(#SVGID_11_);}
	.st14{fill:url(#SVGID_12_);}
	.st15{fill:url(#SVGID_13_);}
	.st16{fill:url(#SVGID_14_);}
	.st17{fill:url(#SVGID_15_);}
	.st18{fill:url(#SVGID_16_);}
	.st19{fill:url(#SVGID_17_);}
	.st20{fill:url(#SVGID_18_);}
	.st21{fill:url(#SVGID_19_);}
	.st22{fill:url(#SVGID_20_);}
	.st23{fill:url(#SVGID_21_);}
	.st24{fill:url(#SVGID_22_);}
	.st25{fill:url(#SVGID_23_);}
	.st26{fill:url(#SVGID_24_);}
	.st27{fill:url(#SVGID_25_);}
	.st28{fill:url(#SVGID_26_);}
	.st29{fill:url(#SVGID_27_);}
	.st30{fill:url(#SVGID_28_);}
	.st31{fill:url(#SVGID_29_);}
	.st32{fill:url(#SVGID_30_);}
	.st33{fill:url(#SVGID_31_);}
	.st34{fill:url(#SVGID_32_);}
</style>
<g class="st0">
	<path d="M366.1,191.9L256.9,82.7c4.4-7.5,3.2-17.1-2.9-23.3c-7.5-7.5-19.6-7.5-27.1,0c-2.4,2.4-4.1,5.4-4.9,8.7l-44.3,0
		c-0.8-3.3-2.5-6.4-4.9-8.8c-6.8-6.8-17.6-7.5-25.2-1.6c-7.6,5.9-9.7,16.5-4.8,24.8L33.5,191.9c-8-4.8-18.3-3-24.4,4.1
		c-6,7.1-6,17.6,0,24.7c6,7.1,16.3,8.9,24.4,4.1l109.2,109.2c-4.9,8.3-2.8,18.9,4.8,24.8c7.6,5.9,18.4,5.2,25.2-1.6
		c1.9-1.9,3.4-4.2,4.3-6.7c0.2-0.6,0.4-1.3,0.6-2h0.2h44c0.8,3.3,2.5,6.3,5,8.7c6.8,6.8,17.6,7.5,25.2,1.6
		c7.6-5.9,9.7-16.5,4.8-24.8l109.2-109.2c8,4.8,18.3,3,24.4-4.1c6-7.1,6-17.6,0-24.7C384.4,188.9,374.1,187.2,366.1,191.9
		L366.1,191.9z M175.6,82.7c0.9-1.5,1.6-3.2,2-4.9l44.3,0c0.4,1.7,1.1,3.4,2,4.9l-24.1,24.1L175.6,82.7z M223.9,334.1
		c-0.9,1.5-1.6,3.2-2,4.9l-44.2,0l-0.1,0c-0.4-1.7-1.1-3.4-2-4.9l24.1-24.1L223.9,334.1z M193,303.2l-24.1,24.1
		c-6-3.6-13.4-3.6-19.4,0L40.2,218.1c0.9-1.5,1.6-3.2,2-4.9l44.3,0c0.8,3.3,2.5,6.3,5,8.7c6.2,6.2,15.7,7.4,23.3,2.9L193,303.2z
		 M91.4,194.9c-2.4,2.4-4.1,5.4-4.9,8.7l-44.3,0c-0.4-1.7-1.1-3.4-2-4.9L149.4,89.5c6,3.6,13.4,3.6,19.4,0l24.1,24.1l-78.3,78.3
		C107.2,187.5,97.6,188.7,91.4,194.9L91.4,194.9z M199.8,120.4l78.3,78.3c-3.6,6-3.6,13.4,0,19.4l-78.3,78.3l-78.3-78.3
		c3.6-6,3.6-13.4,0-19.4L199.8,120.4z M359.3,218.1L250.1,327.3c-6-3.6-13.4-3.6-19.4,0l-24.1-24.1l78.3-78.3
		c7.5,4.4,17.1,3.2,23.3-2.9c2.4-2.4,4.1-5.4,4.9-8.7l44.3,0C357.7,215,358.4,216.6,359.3,218.1L359.3,218.1z M359.3,198.7
		c-0.9,1.5-1.6,3.2-2,4.9l-44.3,0c-0.8-3.3-2.5-6.3-5-8.7c-6.2-6.2-15.7-7.4-23.3-2.9l-78.3-78.3l24.1-24.1c6,3.6,13.4,3.6,19.4,0
		L359.3,198.7z M359.3,198.7"/>
	
		<rect x="56.3" y="64.5" transform="matrix(0.7071 -0.7071 0.7071 0.7071 -88.8658 202.4948)" class="st1" width="287.4" height="288.1"/>
	<path class="st2" d="M159,53.9c10.7,0,19.4,8.7,19.4,19.4c0,10.7-8.7,19.4-19.4,19.4c-10.7,0-19.4-8.7-19.4-19.4
		C139.6,62.6,148.3,53.9,159,53.9L159,53.9z"/>
	<path class="st2" d="M240.4,53.9c10.7,0,19.4,8.7,19.4,19.4c0,10.7-8.7,19.4-19.4,19.4c-10.7,0-19.4-8.7-19.4-19.4
		C221,62.6,229.7,53.9,240.4,53.9L240.4,53.9z"/>
	<path class="st2" d="M294.6,189.1c10.7,0,19.4,8.7,19.4,19.4c0,10.7-8.7,19.4-19.4,19.4s-19.4-8.7-19.4-19.4
		C275.1,197.8,283.8,189.1,294.6,189.1L294.6,189.1z"/>
	<path class="st2" d="M376.1,189.1c10.7,0,19.4,8.7,19.4,19.4c0,10.7-8.7,19.4-19.4,19.4s-19.4-8.7-19.4-19.4
		C356.6,197.8,365.3,189.1,376.1,189.1L376.1,189.1z"/>
	<path class="st2" d="M104.8,189.1c10.7,0,19.4,8.7,19.4,19.4c0,10.7-8.7,19.4-19.4,19.4c-10.7,0-19.4-8.7-19.4-19.4
		C85.3,197.8,94,189.1,104.8,189.1L104.8,189.1z"/>
	<path class="st2" d="M23.5,189.1c10.7,0,19.4,8.7,19.4,19.4c0,10.7-8.7,19.4-19.4,19.4c-10.7,0-19.4-8.7-19.4-19.4
		C4,197.8,12.7,189.1,23.5,189.1L23.5,189.1z"/>
	<path class="st2" d="M240.1,324.5c10.7,0,19.4,8.7,19.4,19.4c0,10.7-8.7,19.4-19.4,19.4c-10.7,0-19.4-8.7-19.4-19.4
		C220.6,333.2,229.3,324.5,240.1,324.5L240.1,324.5z"/>
	<path class="st2" d="M159.1,324.5c10.7,0,19.4,8.7,19.4,19.4c0,10.7-8.7,19.4-19.4,19.4c-10.7,0-19.4-8.7-19.4-19.4
		C139.6,333.2,148.3,324.5,159.1,324.5L159.1,324.5z"/>
	<linearGradient id="SVGID_1_" gradientUnits="userSpaceOnUse" x1="251.7933" y1="332.3954" x2="293.4441" y2="290.7446">
		<stop  offset="0.1" style="stop-color:#4AB7D6"/>
		<stop  offset="0.9" style="stop-color:#000000"/>
	</linearGradient>
	<polygon class="st3" points="255.2,335.8 248.4,329 290.1,287.4 296.8,294.1 	"/>
	<linearGradient id="SVGID_2_" gradientUnits="userSpaceOnUse" x1="117.5884" y1="195.7654" x2="159.2392" y2="154.1146">
		<stop  offset="0.1" style="stop-color:#4AB7D6"/>
		<stop  offset="0.9" style="stop-color:#000000"/>
	</linearGradient>
	<polygon class="st4" points="121,199.2 114.2,192.4 155.9,150.7 162.6,157.5 	"/>
	<linearGradient id="SVGID_3_" gradientUnits="userSpaceOnUse" x1="36.5381" y1="195.5901" x2="78.1889" y2="153.9393">
		<stop  offset="0.1" style="stop-color:#4AB7D6"/>
		<stop  offset="0.9" style="stop-color:#000000"/>
	</linearGradient>
	<polygon class="st5" points="39.9,199 33.2,192.2 74.8,150.6 81.6,157.3 	"/>
	
		<linearGradient id="SVGID_4_" gradientUnits="userSpaceOnUse" x1="-874.753" y1="1460.5768" x2="-833.1022" y2="1418.9259" gradientTransform="matrix(0 1 -1 0 1497.0126 1095.8495)">
		<stop  offset="0.1" style="stop-color:#4AB7D6"/>
		<stop  offset="0.9" style="stop-color:#000000"/>
	</linearGradient>
	<polygon class="st6" points="33,224.5 39.8,217.7 81.5,259.4 74.7,266.1 	"/>
	
		<linearGradient id="SVGID_5_" gradientUnits="userSpaceOnUse" x1="-874.8552" y1="1379.4827" x2="-833.2044" y2="1337.8318" gradientTransform="matrix(0 1 -1 0 1497.0126 1095.8495)">
		<stop  offset="0.1" style="stop-color:#4AB7D6"/>
		<stop  offset="0.9" style="stop-color:#000000"/>
	</linearGradient>
	<polygon class="st7" points="114.1,224.4 120.9,217.6 162.6,259.3 155.8,266 	"/>
	<linearGradient id="SVGID_6_" gradientUnits="userSpaceOnUse" x1="230.4179" y1="309.6197" x2="181.9952" y2="309.6197">
		<stop  offset="0.1" style="stop-color:#4AB7D6"/>
		<stop  offset="0.9" style="stop-color:#000000"/>
	</linearGradient>
	<polygon class="st8" points="230.4,327.1 223.6,333.8 182,292.2 188.8,285.4 	"/>
	
		<linearGradient id="SVGID_7_" gradientUnits="userSpaceOnUse" x1="1243.5507" y1="1254.025" x2="1285.2015" y2="1212.3741" gradientTransform="matrix(0 -1 1 0 -1108.0787 1574.1584)">
		<stop  offset="0.1" style="stop-color:#4AB7D6"/>
		<stop  offset="0.9" style="stop-color:#000000"/>
	</linearGradient>
	<polygon class="st9" points="149.3,327.2 142.6,334 100.9,292.3 107.7,285.6 	"/>
	
		<linearGradient id="SVGID_8_" gradientUnits="userSpaceOnUse" x1="432.6314" y1="2589.2209" x2="474.2823" y2="2547.5701" gradientTransform="matrix(-1 0 0 -1 580.4026 2673.7058)">
		<stop  offset="0.1" style="stop-color:#4AB7D6"/>
		<stop  offset="0.9" style="stop-color:#000000"/>
	</linearGradient>
	<polygon class="st10" points="144.4,81.1 151.2,87.9 109.5,129.5 102.7,122.7 	"/>
	
		<linearGradient id="SVGID_9_" gradientUnits="userSpaceOnUse" x1="351.6191" y1="2589.0952" x2="393.2699" y2="2547.4443" gradientTransform="matrix(-1 0 0 -1 580.4026 2673.7058)">
		<stop  offset="0.1" style="stop-color:#4AB7D6"/>
		<stop  offset="0.9" style="stop-color:#000000"/>
	</linearGradient>
	<polygon class="st11" points="225.4,81.2 232.2,88 190.5,129.6 183.7,122.9 	"/>
	
		<linearGradient id="SVGID_10_" gradientUnits="userSpaceOnUse" x1="298.4265" y1="2452.5911" x2="340.0774" y2="2410.9402" gradientTransform="matrix(-1 0 0 -1 580.4026 2673.7058)">
		<stop  offset="0.1" style="stop-color:#4AB7D6"/>
		<stop  offset="0.9" style="stop-color:#000000"/>
	</linearGradient>
	<polygon class="st12" points="278.6,217.7 285.4,224.5 243.7,266.2 236.9,259.4 	"/>
	
		<linearGradient id="SVGID_11_" gradientUnits="userSpaceOnUse" x1="217.3762" y1="2452.4817" x2="259.0271" y2="2410.8308" gradientTransform="matrix(-1 0 0 -1 580.4026 2673.7058)">
		<stop  offset="0.1" style="stop-color:#4AB7D6"/>
		<stop  offset="0.9" style="stop-color:#000000"/>
	</linearGradient>
	<polygon class="st13" points="359.6,217.8 366.4,224.6 324.8,266.3 318,259.5 	"/>
	
		<linearGradient id="SVGID_12_" gradientUnits="userSpaceOnUse" x1="1382.0726" y1="1279.7386" x2="1423.7234" y2="1238.0878" gradientTransform="matrix(0 -1 1 0 -916.6099 1577.8563)">
		<stop  offset="0.1" style="stop-color:#4AB7D6"/>
		<stop  offset="0.9" style="stop-color:#000000"/>
	</linearGradient>
	<polygon class="st14" points="366.5,192.4 359.7,199.2 318.1,157.5 324.9,150.7 	"/>
	
		<linearGradient id="SVGID_13_" gradientUnits="userSpaceOnUse" x1="1381.9703" y1="1198.6444" x2="1423.6212" y2="1156.9937" gradientTransform="matrix(0 -1 1 0 -916.6099 1577.8563)">
		<stop  offset="0.1" style="stop-color:#4AB7D6"/>
		<stop  offset="0.9" style="stop-color:#000000"/>
	</linearGradient>
	<polygon class="st15" points="285.4,192.5 278.6,199.3 237,157.6 243.8,150.8 	"/>
	
		<linearGradient id="SVGID_14_" gradientUnits="userSpaceOnUse" x1="-1013.1329" y1="1515.9406" x2="-971.4821" y2="1474.2897" gradientTransform="matrix(0 1 -1 0 1688.4813 1099.5475)">
		<stop  offset="0.1" style="stop-color:#4AB7D6"/>
		<stop  offset="0.9" style="stop-color:#000000"/>
	</linearGradient>
	<polygon class="st16" points="169.2,89.8 175.9,83 217.6,124.7 210.8,131.5 	"/>
	
		<linearGradient id="SVGID_15_" gradientUnits="userSpaceOnUse" x1="-1013.2749" y1="1434.8632" x2="-971.6241" y2="1393.2123" gradientTransform="matrix(0 1 -1 0 1688.4813 1099.5475)">
		<stop  offset="0.1" style="stop-color:#4AB7D6"/>
		<stop  offset="0.9" style="stop-color:#000000"/>
	</linearGradient>
	<polygon class="st17" points="250.2,89.7 257,82.9 298.7,124.5 291.9,131.3 	"/>
	<linearGradient id="SVGID_16_" gradientUnits="userSpaceOnUse" x1="170.7306" y1="332.2077" x2="212.3814" y2="290.5569">
		<stop  offset="0.1" style="stop-color:#4AB7D6"/>
		<stop  offset="0.9" style="stop-color:#000000"/>
	</linearGradient>
	<polygon class="st18" points="174.1,335.6 167.3,328.8 209,287.2 215.8,293.9 	"/>
	
		<rect x="202.7" y="104.3" transform="matrix(0.7071 -0.7071 0.7071 0.7071 -17.2822 176.4235)" class="st0" width="3.3" height="9.6"/>
	
		<rect x="193.6" y="113.4" transform="matrix(0.7071 -0.7071 0.7071 0.7071 -26.4201 172.654)" class="st0" width="3.3" height="9.6"/>
	<rect x="25.5" y="203.3" class="st2" width="80.3" height="10.3"/>
	<rect x="163.5" y="338.8" class="st2" width="80.3" height="10.3"/>
	<rect x="154.9" y="67.6" class="st2" width="80.3" height="10.3"/>
	<rect x="295.8" y="203.3" class="st2" width="80.3" height="10.3"/>
	
		<rect x="202.7" y="303" transform="matrix(0.7071 0.7071 -0.7071 0.7071 277.4775 -54.327)" class="st0" width="3.3" height="9.6"/>
	
		<rect x="193.6" y="293.9" transform="matrix(0.7071 0.7071 -0.7071 0.7071 268.3606 -50.5549)" class="st0" width="3.3" height="9.6"/>
</g>
<g>
	<path d="M366.1,183.4L256.9,74.2c4.4-7.5,3.2-17.1-2.9-23.3c-7.5-7.5-19.6-7.5-27.1,0c-2.4,2.4-4.1,5.4-4.9,8.7l-44.3,0
		c-0.8-3.3-2.5-6.4-4.9-8.8c-6.8-6.8-17.6-7.5-25.2-1.6c-7.6,5.9-9.7,16.5-4.8,24.8L33.5,183.4c-8-4.8-18.3-3-24.4,4.1
		c-6,7.1-6,17.6,0,24.7c6,7.1,16.3,8.9,24.4,4.1l109.2,109.2c-4.9,8.3-2.8,18.9,4.8,24.8c7.6,5.9,18.4,5.2,25.2-1.6
		c1.9-1.9,3.4-4.2,4.3-6.7c0.2-0.6,0.4-1.3,0.6-2h0.2h44c0.8,3.3,2.5,6.3,5,8.7c6.8,6.8,17.6,7.5,25.2,1.6
		c7.6-5.9,9.7-16.5,4.8-24.8l109.2-109.2c8,4.8,18.3,3,24.4-4.1c6-7.1,6-17.6,0-24.7C384.4,180.4,374.1,178.7,366.1,183.4
		L366.1,183.4z M175.6,74.2c0.9-1.5,1.6-3.2,2-4.9l44.3,0c0.4,1.7,1.1,3.4,2,4.9l-24.1,24.1L175.6,74.2z M223.9,325.6
		c-0.9,1.5-1.6,3.2-2,4.9l-44.2,0l-0.1,0c-0.4-1.7-1.1-3.4-2-4.9l24.1-24.1L223.9,325.6z M193,294.7l-24.1,24.1
		c-6-3.6-13.4-3.6-19.4,0L40.2,209.6c0.9-1.5,1.6-3.2,2-4.9l44.3,0c0.8,3.3,2.5,6.3,5,8.7c6.2,6.2,15.7,7.4,23.3,2.9L193,294.7z
		 M91.4,186.4c-2.4,2.4-4.1,5.4-4.9,8.7l-44.3,0c-0.4-1.7-1.1-3.4-2-4.9L149.4,81c6,3.6,13.4,3.6,19.4,0l24.1,24.1l-78.3,78.3
		C107.2,179,97.6,180.2,91.4,186.4L91.4,186.4z M199.8,111.9l78.3,78.3c-3.6,6-3.6,13.4,0,19.4l-78.3,78.3l-78.3-78.3
		c3.6-6,3.6-13.4,0-19.4L199.8,111.9z M359.3,209.6L250.1,318.8c-6-3.6-13.4-3.6-19.4,0l-24.1-24.1l78.3-78.3
		c7.5,4.4,17.1,3.2,23.3-2.9c2.4-2.4,4.1-5.4,4.9-8.7l44.3,0C357.7,206.4,358.4,208.1,359.3,209.6L359.3,209.6z M359.3,190.2
		c-0.9,1.5-1.6,3.2-2,4.9l-44.3,0c-0.8-3.3-2.5-6.3-5-8.7c-6.2-6.2-15.7-7.4-23.3-2.9l-78.3-78.3L230.7,81c6,3.6,13.4,3.6,19.4,0
		L359.3,190.2z M359.3,190.2"/>
	
		<rect x="56.3" y="55.9" transform="matrix(0.7071 -0.7071 0.7071 0.7071 -82.8427 200)" class="st1" width="287.4" height="288.1"/>
	<path class="st2" d="M159,45.4c10.7,0,19.4,8.7,19.4,19.4c0,10.7-8.7,19.4-19.4,19.4c-10.7,0-19.4-8.7-19.4-19.4
		C139.6,54.1,148.3,45.4,159,45.4L159,45.4z"/>
	<path class="st2" d="M240.4,45.4c10.7,0,19.4,8.7,19.4,19.4c0,10.7-8.7,19.4-19.4,19.4c-10.7,0-19.4-8.7-19.4-19.4
		C221,54.1,229.7,45.4,240.4,45.4L240.4,45.4z"/>
	<path class="st2" d="M294.6,180.6c10.7,0,19.4,8.7,19.4,19.4c0,10.7-8.7,19.4-19.4,19.4s-19.4-8.7-19.4-19.4
		C275.1,189.3,283.8,180.6,294.6,180.6L294.6,180.6z"/>
	<path class="st2" d="M376.1,180.6c10.7,0,19.4,8.7,19.4,19.4c0,10.7-8.7,19.4-19.4,19.4s-19.4-8.7-19.4-19.4
		C356.6,189.3,365.3,180.6,376.1,180.6L376.1,180.6z"/>
	<path class="st2" d="M104.8,180.6c10.7,0,19.4,8.7,19.4,19.4c0,10.7-8.7,19.4-19.4,19.4c-10.7,0-19.4-8.7-19.4-19.4
		C85.3,189.3,94,180.6,104.8,180.6L104.8,180.6z"/>
	<path class="st2" d="M23.5,180.6c10.7,0,19.4,8.7,19.4,19.4c0,10.7-8.7,19.4-19.4,19.4C12.7,219.4,4,210.7,4,200
		C4,189.3,12.7,180.6,23.5,180.6L23.5,180.6z"/>
	<path class="st2" d="M240.1,315.9c10.7,0,19.4,8.7,19.4,19.4c0,10.7-8.7,19.4-19.4,19.4c-10.7,0-19.4-8.7-19.4-19.4
		C220.6,324.6,229.3,315.9,240.1,315.9L240.1,315.9z"/>
	<path class="st2" d="M159.1,315.9c10.7,0,19.4,8.7,19.4,19.4c0,10.7-8.7,19.4-19.4,19.4c-10.7,0-19.4-8.7-19.4-19.4
		C139.6,324.6,148.3,315.9,159.1,315.9L159.1,315.9z"/>
	<linearGradient id="SVGID_17_" gradientUnits="userSpaceOnUse" x1="251.7933" y1="323.8774" x2="293.4441" y2="282.2266">
		<stop  offset="0.1" style="stop-color:#4AB7D6"/>
		<stop  offset="0.9" style="stop-color:#000000"/>
	</linearGradient>
	<polygon class="st19" points="255.2,327.3 248.4,320.5 290.1,278.8 296.8,285.6 	"/>
	<linearGradient id="SVGID_18_" gradientUnits="userSpaceOnUse" x1="117.5884" y1="187.2475" x2="159.2392" y2="145.5967">
		<stop  offset="0.1" style="stop-color:#4AB7D6"/>
		<stop  offset="0.9" style="stop-color:#000000"/>
	</linearGradient>
	<polygon class="st20" points="121,190.6 114.2,183.9 155.9,142.2 162.6,149 	"/>
	<linearGradient id="SVGID_19_" gradientUnits="userSpaceOnUse" x1="36.5381" y1="187.0722" x2="78.1889" y2="145.4214">
		<stop  offset="0.1" style="stop-color:#4AB7D6"/>
		<stop  offset="0.9" style="stop-color:#000000"/>
	</linearGradient>
	<polygon class="st21" points="39.9,190.5 33.2,183.7 74.8,142 81.6,148.8 	"/>
	
		<linearGradient id="SVGID_20_" gradientUnits="userSpaceOnUse" x1="-883.2709" y1="1460.5768" x2="-841.6201" y2="1418.9259" gradientTransform="matrix(0 1 -1 0 1497.0126 1095.8495)">
		<stop  offset="0.1" style="stop-color:#4AB7D6"/>
		<stop  offset="0.9" style="stop-color:#000000"/>
	</linearGradient>
	<polygon class="st22" points="33,216 39.8,209.2 81.5,250.8 74.7,257.6 	"/>
	
		<linearGradient id="SVGID_21_" gradientUnits="userSpaceOnUse" x1="-883.3732" y1="1379.4827" x2="-841.7224" y2="1337.8318" gradientTransform="matrix(0 1 -1 0 1497.0126 1095.8495)">
		<stop  offset="0.1" style="stop-color:#4AB7D6"/>
		<stop  offset="0.9" style="stop-color:#000000"/>
	</linearGradient>
	<polygon class="st23" points="114.1,215.9 120.9,209.1 162.6,250.7 155.8,257.5 	"/>
	<linearGradient id="SVGID_22_" gradientUnits="userSpaceOnUse" x1="230.4179" y1="301.1017" x2="181.9952" y2="301.1017">
		<stop  offset="0.1" style="stop-color:#4AB7D6"/>
		<stop  offset="0.9" style="stop-color:#000000"/>
	</linearGradient>
	<polygon class="st24" points="230.4,318.5 223.6,325.3 182,283.7 188.8,276.9 	"/>
	
		<linearGradient id="SVGID_23_" gradientUnits="userSpaceOnUse" x1="1252.0686" y1="1254.025" x2="1293.7195" y2="1212.3741" gradientTransform="matrix(0 -1 1 0 -1108.0787 1574.1584)">
		<stop  offset="0.1" style="stop-color:#4AB7D6"/>
		<stop  offset="0.9" style="stop-color:#000000"/>
	</linearGradient>
	<polygon class="st25" points="149.3,318.7 142.6,325.5 100.9,283.8 107.7,277.1 	"/>
	
		<linearGradient id="SVGID_24_" gradientUnits="userSpaceOnUse" x1="432.6314" y1="2597.739" x2="474.2823" y2="2556.0881" gradientTransform="matrix(-1 0 0 -1 580.4026 2673.7058)">
		<stop  offset="0.1" style="stop-color:#4AB7D6"/>
		<stop  offset="0.9" style="stop-color:#000000"/>
	</linearGradient>
	<polygon class="st26" points="144.4,72.6 151.2,79.4 109.5,121 102.7,114.2 	"/>
	
		<linearGradient id="SVGID_25_" gradientUnits="userSpaceOnUse" x1="351.6191" y1="2597.6133" x2="393.2699" y2="2555.9624" gradientTransform="matrix(-1 0 0 -1 580.4026 2673.7058)">
		<stop  offset="0.1" style="stop-color:#4AB7D6"/>
		<stop  offset="0.9" style="stop-color:#000000"/>
	</linearGradient>
	<polygon class="st27" points="225.4,72.7 232.2,79.5 190.5,121.1 183.7,114.4 	"/>
	
		<linearGradient id="SVGID_26_" gradientUnits="userSpaceOnUse" x1="298.4265" y1="2461.1089" x2="340.0774" y2="2419.4583" gradientTransform="matrix(-1 0 0 -1 580.4026 2673.7058)">
		<stop  offset="0.1" style="stop-color:#4AB7D6"/>
		<stop  offset="0.9" style="stop-color:#000000"/>
	</linearGradient>
	<polygon class="st28" points="278.6,209.2 285.4,216 243.7,257.6 236.9,250.9 	"/>
	
		<linearGradient id="SVGID_27_" gradientUnits="userSpaceOnUse" x1="217.3762" y1="2460.9995" x2="259.0271" y2="2419.3486" gradientTransform="matrix(-1 0 0 -1 580.4026 2673.7058)">
		<stop  offset="0.1" style="stop-color:#4AB7D6"/>
		<stop  offset="0.9" style="stop-color:#000000"/>
	</linearGradient>
	<polygon class="st29" points="359.6,209.3 366.4,216.1 324.8,257.7 318,251 	"/>
	
		<linearGradient id="SVGID_28_" gradientUnits="userSpaceOnUse" x1="1390.5906" y1="1279.7386" x2="1432.2413" y2="1238.0878" gradientTransform="matrix(0 -1 1 0 -916.6099 1577.8563)">
		<stop  offset="0.1" style="stop-color:#4AB7D6"/>
		<stop  offset="0.9" style="stop-color:#000000"/>
	</linearGradient>
	<polygon class="st30" points="366.5,183.9 359.7,190.7 318.1,149 324.9,142.2 	"/>
	
		<linearGradient id="SVGID_29_" gradientUnits="userSpaceOnUse" x1="1390.4883" y1="1198.6444" x2="1432.1392" y2="1156.9937" gradientTransform="matrix(0 -1 1 0 -916.6099 1577.8563)">
		<stop  offset="0.1" style="stop-color:#4AB7D6"/>
		<stop  offset="0.9" style="stop-color:#000000"/>
	</linearGradient>
	<polygon class="st31" points="285.4,184 278.6,190.8 237,149.1 243.8,142.3 	"/>
	
		<linearGradient id="SVGID_30_" gradientUnits="userSpaceOnUse" x1="-1021.6509" y1="1515.9406" x2="-980.0001" y2="1474.2897" gradientTransform="matrix(0 1 -1 0 1688.4813 1099.5475)">
		<stop  offset="0.1" style="stop-color:#4AB7D6"/>
		<stop  offset="0.9" style="stop-color:#000000"/>
	</linearGradient>
	<polygon class="st32" points="169.2,81.3 175.9,74.5 217.6,116.2 210.8,122.9 	"/>
	
		<linearGradient id="SVGID_31_" gradientUnits="userSpaceOnUse" x1="-1021.7928" y1="1434.8632" x2="-980.142" y2="1393.2123" gradientTransform="matrix(0 1 -1 0 1688.4813 1099.5475)">
		<stop  offset="0.1" style="stop-color:#4AB7D6"/>
		<stop  offset="0.9" style="stop-color:#000000"/>
	</linearGradient>
	<polygon class="st33" points="250.2,81.1 257,74.4 298.7,116 291.9,122.8 	"/>
	<linearGradient id="SVGID_32_" gradientUnits="userSpaceOnUse" x1="170.7306" y1="323.6898" x2="212.3814" y2="282.0389">
		<stop  offset="0.1" style="stop-color:#4AB7D6"/>
		<stop  offset="0.9" style="stop-color:#000000"/>
	</linearGradient>
	<polygon class="st34" points="174.1,327.1 167.3,320.3 209,278.7 215.8,285.4 	"/>
	
		<rect x="202.7" y="95.8" transform="matrix(0.7071 -0.7071 0.7071 0.7071 -11.2591 173.9287)" class="st0" width="3.3" height="9.6"/>
	
		<rect x="193.6" y="104.9" transform="matrix(0.7071 -0.7071 0.7071 0.7071 -20.397 170.1592)" class="st0" width="3.3" height="9.6"/>
	<rect x="25.5" y="194.8" class="st2" width="80.3" height="10.3"/>
	<rect x="163.5" y="330.3" class="st2" width="80.3" height="10.3"/>
	<rect x="154.9" y="59" class="st2" width="80.3" height="10.3"/>
	<rect x="295.8" y="194.7" class="st2" width="80.3" height="10.3"/>
	
		<rect x="202.7" y="294.5" transform="matrix(0.7071 0.7071 -0.7071 0.7071 271.4544 -56.8218)" class="st0" width="3.3" height="9.6"/>
	
		<rect x="193.6" y="285.4" transform="matrix(0.7071 0.7071 -0.7071 0.7071 262.3375 -53.0498)" class="st0" width="3.3" height="9.6"/>
</g>
</svg>
