<?xml version="1.0" encoding="utf-8"?>
<!-- Generator: Adobe Illustrator 21.0.0, SVG Export Plug-In . SVG Version: 6.00 Build 0)  -->
<svg version="1.1" id="Layer_1" xmlns="http://www.w3.org/2000/svg" xmlns:xlink="http://www.w3.org/1999/xlink" x="0px" y="0px"
	 viewBox="0 0 400 400" style="enable-background:new 0 0 400 400;" xml:space="preserve">
<style type="text/css">
	.st0{fill:#3C844B;}
	.st1{fill:#EA452F;}
	.st2{opacity:0.11;}
	.st3{clip-path:url(#SVGID_2_);}
	.st4{clip-path:url(#SVGID_4_);fill:#231F20;}
</style>
<g>
	<path class="st0" d="M167.5,100.3c-0.4,0.9-0.9,1.7-1.3,2.5c0.2,0.2,0.3,0.4,0.4,0.4c0.8,0.6,1.6,1.1,2.4,1.7
		C171.1,102.2,170.9,101.8,167.5,100.3 M157.8,87.8c-1.4-0.2-2.7-0.3-4.1-0.3c-2.6,0-3.2,0.6-4.3,3.5h6.5c0,0.2,0.1,0.4,0.1,0.5
		c-2,1.1-4,2.3-6.1,3.4c3.8-0.2,6.9-1.7,8.9-5.2C159.4,88.6,159,88,157.8,87.8 M173.8,75.2c-4.9,1.4-9.5,3.1-14.1,4.8
		c-0.5,0.2-0.8,0.8-1.2,1.3c0.1,0.1,0.2,0.2,0.3,0.3c4.7-1.8,9.3-3.5,14-5.4C173.2,76.1,173.4,75.6,173.8,75.2 M174.2,48.5
		c-0.2,0.6-0.9,1.1-1.6,1.7c-0.3,0.3-0.5,0.9-0.4,1.2c0.1,0.3,0.7,0.6,1.1,0.5c1.1-0.2,2.2-0.5,3.3-0.8c0-0.1-0.1-0.2-0.1-0.4
		c-1.2,0.1-2.4,0.3-3.6,0.4c-0.1-0.2-0.1-0.3-0.1-0.5c1.5-0.4,2-2.5,4-2.3c0.1,0,0.6-1.1,0.4-1.4c-0.5-0.7-1.2-1.3-2-1.8
		c-0.2-0.1-1,0.3-1,0.5C174.1,46.6,174.2,47.6,174.2,48.5 M182.2,37.1c-2.8,1.8-5.6,3.5-8.3,5.3c3-0.7,5.7-2,8-4.1
		c0.4-0.4,1.1-0.3,1.6-0.6c0.4-0.3,0.7-0.8,1-1.2c-1.2-0.8-0.5-1.9-0.5-3c0-1.2-0.7-1.6-1.8-1C180.2,33.7,180.2,35.2,182.2,37.1
		 M189.4,10.6c1-1.8,1-3.2-0.3-3.8C189.1,8.2,189.3,9.4,189.4,10.6 M196.9,13.1c0.5-0.9,0.7-1.9,1.1-2.9c-0.9,0.1-2,0-2.8,0.3
		c-4.7,2.1-9.3,3.1-13.8-0.3c-0.2,0.1-0.3,0.2-0.5,0.3c0.5,1.5,1,3,1.7,4.8c0.2-0.8,0.3-1.4,0.5-2.1c4.2,1.5,8.2,0.6,12.2-1.2
		c0.6-0.3,1.3-0.4,1.9-0.6c0.1,0.1,0.1,0.2,0.2,0.4c-0.7,1-1.5,1.9-2.2,2.9c0.1,0.1,0.2,0.2,0.3,0.2
		C195.9,14.4,196.5,13.8,196.9,13.1 M191.6,16.1c0.2,1.1,0.4,2.3,0.7,3.8c-2.4-0.7-1.1-3.2-2.7-4.5c0.1,1.2,0.4,2,0.3,2.8
		c-0.1,0.7-0.7,1.3-1.1,1.9c-0.3-0.6-0.8-1.1-0.9-1.7c-0.2-0.6,0-1.3,0-2.2c-1.9,1-0.6,2.2-0.7,3.1c-0.1,0.7,0.5,1.5,0.8,2.2
		c0.8-0.3,1.5-0.7,2.2-0.9c0.6,0.1,1.6,0.6,1.8,0.4c0.5-0.7,1-1.6,0.9-2.4c0-1-0.6-2-1-3.3C191.8,15.7,191.6,16,191.6,16.1
		 M186.6,54.5c0.2-0.3,0.2-0.7,0.4-1.2c-1.5,0.9-1.9,0.7-1.8-0.8c0.1-1.3,0.5-2.6,0.8-3.9c-0.2,0-0.3-0.1-0.5-0.1
		c-0.3,1.9-0.8,3.7-1,5.6c0,0.4,0.6,0.9,0.9,1.4C185.8,55.2,186.3,54.9,186.6,54.5 M202.4,33.5c0.2-0.1,0.3-0.2,0.5-0.4l-1.1-1.9
		c-0.5,0.4-1.3,0.7-1.6,1.3c-0.5,1-0.7,2.2-1,3.2c-0.6-1.1-1.1-2.2-1.7-3.2c-0.2-0.3-1-0.7-1.3-0.5c-0.4,0.2-0.9,0.9-0.9,1.4
		c0,0.4,0.6,1.1,0.9,1.1c1.4-0.2,1.5,0.9,1.8,1.7c0.3,0.8,0.5,1.6,1,2.9c0.7-2.4,1.3-4.3,1.9-6.3C201.6,33.1,202,33.3,202.4,33.5
		 M203,53.8c0.3-0.4,0.3-0.9,0.5-1.3c-0.6,0.2-1.2,0.6-1.4,0.4c-0.3-0.2-0.5-0.9-0.5-1.3c0.2-1.3,0.5-2.5,0.8-3.8
		c-0.2,0-0.4-0.1-0.6-0.1c-0.3,1.9-0.7,3.8-1,5.7c-0.1,0.4,0.5,1,0.9,1.2C202.1,54.7,202.7,54.2,203,53.8 M220,71.4
		c1-0.1,1.7-0.2,2.6-0.3c0-0.3,0.1-0.8,0-1.3c0-0.2-0.7-0.4-0.9-0.2c-0.9,0.7-1.8,1.4-2.4,2.3c-0.3,0.5,0.3,1.4,0.4,2.3
		c-0.2,0.3-0.4,0.8-0.7,1.3c0.1,0.1,0.2,0.2,0.3,0.3c1.5-1.5,3.9-1.9,5.1-4.4C222.8,71.8,221.7,73.5,220,71.4 M230.6,93.1
		c-2.4,0.3-4.5,0.5-6.9,0.8c-0.1-1.5-0.2-3-0.3-4.6C226.5,89.3,228.9,90.2,230.6,93.1 M230.3,88c-2.1-1.3-4.5-2-7-3
		c-0.1-0.7-0.1-1.8-0.2-3.2c0.7,0.4,1.1,0.7,1.5,1.1c0.1-0.1,0.2-0.1,0.4-0.2c-0.9-2.6-1.9-5.2-2.9-8.1c-2.5,3.8,0,7.5-1,10.9
		c-6.4,0.7-12.6,1.5-18.9,2c-4.9,0.4-9.9,0.6-14.8,0.6c-1.6,0-3.3-0.2-4.9-1.8c2.7-2.4,5.3-4.7,7.9-7c0.1,0.1,0.3,0.2,0.4,0.4
		c-0.2,2.4-0.3,4.9-0.5,7.3c0.2,0,0.4,0.1,0.6,0.1c0.7-2.1,1.7-4.2,1.8-6.4c0.2-2.9,1.8-4.2,4.2-5.1c1.5-0.5,2.9-1.1,4.3,0.6
		c0.4-0.9,0.8-1.5,1-2.2c0.5-1.5-0.1-2.4-1.6-2.4c-0.8,0-1.6,0.2-2.3,0.5c-1.5,0.6-3,1.4-4.6,2.2c-0.1-0.9-0.2-1.7-0.2-2.5
		c0-1,0-2.1,0.4-3c1.1-2.4,2.4-4.6,3.6-6.8c0,0,0.1,0.5,0.3,0.9c0.9,1.8,1.5,3.8,2.8,5.2c3.5,4.1,9.2,2.9,11-2.2
		c1.2-3.4,0.9-6.8-0.1-10.2c-0.9-3-1.8-6.1-2.8-9.2c0.9,0.2,1.6,0.4,2.3,0.6c0.1-0.1,0.2-0.3,0.3-0.4c-1.5-2.4-3.1-4.7-4.8-7.3
		c-1.3,2.3-1.5,4.1-1.1,6.5c0.9,5.2,2.2,10.1,4.6,14.8c1.2,2.5,0.2,4-2.6,4.3c-3.1,0.3-5.5-1.1-6.4-4.2c-1.1-3.6-1.6-7.4-2.3-11.1
		c-0.6-3.1-1-6.2-2.8-9.3c-1,2.6-2,4.7-1.3,7.4c0.8,3.4,1.2,7,1.4,10.5c0.2,2.3-0.8,4.4-2.8,6.2c-0.6-10.5-1.1-20.8-1.7-31.3
		c0.9,0.8,1.6,1.3,2.2,1.9c0.2-0.1,0.4-0.3,0.6-0.4c-1.4-3.9-2.8-7.8-4.2-11.7c-1.5,2.1-2.7,4.1-1.7,6.6c0.3,0.7,0.2,1.5,0.2,2.2
		c0.4,8.1,0.8,16.3,1.2,24.4c0.1,3.3,0.3,6.6,0.5,9.9c-4.4,1.2-7.2-0.2-7.9-3.9c-0.3-1.3-0.3-2.8-0.1-4.1c0.4-3,1.1-6,1.5-9
		c0.2-1.2,0.1-3.2-0.4-3.4c-1.5-0.5-2.3,1.1-2.8,2.2c-1.4,3.1-2.6,6.3-3.7,9.5c-0.9,2.6-1.5,5.3-2.5,7.9c-0.3,0.8-1.6,1.6-2.3,1.6
		c-0.9,0-1.8-0.9-2.5-1.7c-0.5-0.5-0.7-1.4-0.7-2.1c-0.1-2.8-0.2-5.7,0-8.6c0.1-1.4,1-2.8,1.5-4.1c-0.5,0.1-1.1,0.5-1.4,0.3
		c-0.3-0.2-0.4-0.9-0.4-1.4c0.1-0.9,0.3-1.9,0.5-2.8c-0.2,0-0.4,0-0.6-0.1c-0.2,1.6-0.5,3.2-0.7,4.8c-0.1,1.3,0,2.5,0,3.8
		c-0.1,2.9-0.5,5.8-0.2,8.6c0.2,2,1.2,4.2,2.4,5.9c1.5,2.2,3.7,1.9,5.2-0.3c0.7-1,1.1-2.1,1.5-3.3c0.9-3.2,1.7-6.5,2.6-9.7
		c0.4-1.5,1.2-2.9,2-4.7c0.2,0.6,0.3,0.7,0.3,0.8c-0.1,0.4-0.2,0.9-0.3,1.3c-1.1,4.4-1.7,8.7-0.4,13.1c1.1,3.7,3.7,5.3,7.5,5
		c0.7-0.1,1.4-0.2,2.1-0.3c0.7,3.1,0.5,5.5-2.6,7.4c-2.8,1.7-4.8,4.4-6,7.5c-1.2,3.1-0.2,4.9,3,5.2c2.5,0.3,5,0.5,7.5,0.3
		c7.3-0.6,14.7-1.4,22-2.2c2.4-0.2,4.9-0.4,7.3-0.5c0.1,1.8,0.2,3.4,0.3,4.9c-0.4,0.1-0.7,0.2-0.9,0.2c-8.3,1-16.5,2.3-24.9,3
		c-5.7,0.5-11.5,0.4-17.2-0.1c-4.7-0.4-8.4-4-7.4-10.1c0.2-1.2,0.1-2.5-1-3.4c-0.3,0.2-0.5,0.3-0.6,0.5c-0.5,0.8-1,1.6-1.4,2.4
		c-1.9,3.2-3.8,3.2-5.7,0.2c0-0.1-0.2-0.1-0.4-0.2c-0.6,1.6-1.3,3-0.3,4.7c0.5,0.9,0.7,1.9,1,2.9c0.6,1.8,0.3,3.4-1.5,4.5
		c-2.5,1.7-4.9,3.5-7.5,5c-1.5,0.9-3.2,1.3-4.9,1.7c-2,0.4-3.4-0.4-4.5-2.1c-1.5-2.4-0.9-6.7,1.1-8.9c0.5-0.5,0.6-1.2,1.1-2.2
		c-0.7,0.5-1.1,0.8-1.6,1.1c-1.4-2,0.2-3.7,0-5.5c-0.3,0.9-1,1.8-1,2.7c0.2,4.2-1.5,8.2-1.4,12.3c0,0.3,0,0.6,0.1,0.8
		c0.5,4,3.2,6,7.1,5.1c4.5-1,8.2-3.6,11.5-6.9c1-1,1.7-2.5,2.1-3.9c0.5-1.7,0.6-3.6,0.9-5.5c3.6,0.3,3.5-3.6,5.6-5.3
		c0.1,1.3,0.3,2.3,0.3,3.3c-0.3,5.7,2.4,9.4,8,10.2c3.6,0.5,7.2,0.8,10.8,0.5c7.1-0.5,14.1-1.5,21.1-2.4c3.8-0.5,7.6-1,11.7-1.6
		l-0.2,11.6c2.3-3.7,2.3-7.7,2.1-11.8c2.1-0.3,4-0.4,6-0.8c0.7-0.1,1.5-0.6,1.9-1.2C233.3,92.5,232.9,89.6,230.3,88 M208.9,79.2
		c-1,0.5-1.7,0.8-2.4,1.1c-0.1-0.1-0.3-0.2-0.4-0.4c0.2-0.7,0.4-1.5,0.7-2.4C207.5,78.2,208,78.6,208.9,79.2 M208.6,77.3
		c-0.8-1-1.2-1.9-0.7-3.2c-1.5,1.9-2.2,4-2.4,6.3c-0.1,1.2,0.7,1.6,1.8,1.3C209,81.2,209.9,78.8,208.6,77.3"/>
	<path class="st1" d="M165.8,207.2c-3.6-2.4-21.6-15.3-22.9-16.4c-1.4-1.2-0.3-1.6,1-2.2c1.3-0.6,4.5-2.5,5.4-3.3
		c1-0.7,0.9-1.2,0-3.3c-0.9-2.1-4.2-9.5-4.6-10.4c-0.4-0.9-0.8-1.8,1-1.3c1.8,0.5,10.5,2.1,12,2.4c1.5,0.3,1.8,0.1,2.5-1.2
		c0.7-1.3,2.5-5.2,2.9-6c0.3-0.8,0.7-0.9,1.6,0c0.8,0.9,9.8,11.8,11,13c1.2,1.2,2.4,1.4,2.1-1.4c-0.3-2.7-5.1-24.5-5.3-25.6
		c-0.2-1.1,0.5-1.4,1.4-0.6c0.8,0.7,5.7,3.9,6.4,4.2c0.7,0.3,1.6,0.6,2.3-0.5c0.7-1.2,6.8-13.6,7-14.1c0.2-0.5,1-2.6,2.2-0.2
		c1.3,2.4,6.2,13.1,6.5,13.7c0.3,0.6,0.6,2,2,1.1c1.4-0.9,9.2-5.6,9.2-5.6s1.3-0.2,0.9,1.2c-0.3,1.4-5.4,24.4-5.7,25.9
		c-0.3,1.5,0.4,3.5,2.4,1.5c2-2,9-11.2,9.5-11.8c0.5-0.6,1-1.6,1.7-0.4c0.7,1.2,2,4.4,2.5,5.5c0.5,1.1,1,1.2,2.2,0.9
		c1.3-0.2,10.6-2.2,11.6-2.4c1.1-0.2,1.6,0.2,1.3,1.4c-0.3,1.2-3.5,11.5-3.9,13.1c-0.4,1.4,0.3,2,1.1,2.3c1.1,0.4,3.9,1.8,4.9,2.3
		c1.5,0.7,1.4,1,0.1,2.2c-1.4,1.2-21,17.2-22.1,17.9c-1.4,0.9-2,1.7-1.3,3.1c0.9,1.7,2.1,4,2.5,4.9c0.4,0.8,0.6,1.4-2.7,0.9
		c-2.8-0.5-18.9-2.6-20-2.8c0,3-0.2,16.6-0.1,18.2c-2,0.1-4.3,0.1-6.5,0c0.1-5.4,0-15.3,0.2-18.2c-7.2,0.9-19.4,2.4-21.6,2.6
		c-1.4,0.2-1.5-0.7-0.8-2.1c0.7-1.4,1.8-3.3,2.4-4.6C169,209.1,167.5,208.4,165.8,207.2"/>
	<path class="st0" d="M234.4,135.4c20.5,14,34,37.6,34,64.4c0,43-34.8,77.8-77.6,77.8c-42.8,0-77.5-34.9-77.5-77.8
		c0-26.7,13.4-50.3,33.9-64.4c-13.8,12.2-22.5,30-22.5,49.9c0,36.6,29.6,66.3,66.1,66.3c36.5,0,66.2-29.7,66.2-66.3
		C256.9,165.4,248.2,147.6,234.4,135.4"/>
	<path class="st1" d="M269.2,116.6L257.6,130l-2.7-2.4l4.6-5.3l-5.3-4.6l-4.6,5.3l-2.7-2.4l11.6-13.4l2.7,2.4l-5.1,5.8l5.3,4.6
		l5.1-5.9L269.2,116.6z M270.2,127.5l-3.4,6.2l6.5-2.5L270.2,127.5z M271.2,118l2.5,2.9l-2,3.8l4.6,5.4l4-1.5l2.5,2.9l-17.9,6.4
		l-2.5-2.9L271.2,118z M290.1,142.7l-14.7,9.6l-2-3l12.2-8l-4.8-7.5l2.5-1.6L290.1,142.7z M296.9,156.4l-15.9,7.4l-1.5-3.2l13.2-6.2
		l-3.7-8.1l2.7-1.3L296.9,156.4z M293.2,166.9l-5.7,4.2l7,0.5L293.2,166.9z M298.2,158.6l1.1,3.7l-3.5,2.6l2,6.8l4.3,0.3l1.1,3.7
		l-18.9-1.8l-1-3.7L298.2,158.6z M296.8,197c2-0.2,3.5-0.8,4.4-1.8c0.9-1,1.4-2.2,1.2-3.6c-0.1-1.4-0.7-2.5-1.8-3.4
		c-1.1-0.8-2.7-1.1-4.7-1c-2,0.2-3.5,0.7-4.4,1.7c-0.9,1-1.3,2.2-1.2,3.7c0.1,1.5,0.7,2.6,1.8,3.4
		C293.2,196.9,294.7,197.2,296.8,197 M297.2,200.7c-1.8,0.2-3.3,0-4.6-0.4c-0.9-0.3-1.8-0.8-2.6-1.4c-0.8-0.6-1.4-1.3-1.8-2.1
		c-0.6-1.1-0.9-2.3-1-3.7c-0.2-2.6,0.4-4.7,1.9-6.4c1.5-1.7,3.7-2.7,6.5-2.9c2.9-0.3,5.1,0.3,6.9,1.7c1.8,1.4,2.7,3.4,2.9,6
		c0.2,2.6-0.4,4.8-1.8,6.5C302.1,199.5,300,200.5,297.2,200.7 M305,210.4l-14.7-1l-0.4,5.2l-3-0.2l1-14.1l3,0.2l-0.4,5.2l14.6,1
		L305,210.4z M299.9,237.4l-17.2-4.3l3.2-12.8l2.9,0.7l-2.3,9.3l3.8,0.9l2.1-8.6l2.9,0.7l-2.2,8.6l4.7,1.2l2.4-9.6l2.9,0.7
		L299.9,237.4z M291.4,241.1l2.4-2.7c1.5,1.3,2.5,2.7,2.8,4.2c0.4,1.5,0.1,3.1-0.6,4.9c-1,2.1-2.5,3.6-4.5,4.3
		c-2.1,0.7-4.4,0.5-6.9-0.6c-2.7-1.2-4.5-2.8-5.3-4.9c-0.9-2.1-0.8-4.2,0.2-6.5c0.9-2,2.2-3.3,3.9-4.1c1-0.4,2.3-0.6,3.7-0.3
		l-0.7,3.6c-0.9-0.2-1.8-0.1-2.5,0.3c-0.8,0.4-1.3,1-1.7,1.9c-0.5,1.2-0.5,2.4,0,3.5c0.5,1.1,1.7,2.1,3.7,3c2,0.9,3.7,1.2,4.9,0.8
		c1.2-0.3,2-1.1,2.6-2.3c0.4-0.9,0.4-1.7,0.2-2.6C293.1,242.7,292.4,241.9,291.4,241.1 M288.8,260.5l-15.3-8.9l1.8-3.1l15.3,8.9
		L288.8,260.5z M281.2,271.5l-17.9-5.6l2.3-3.1l13.2,4.3l-7.9-11.4l2.3-3l10.3,15.7L281.2,271.5z M261.7,277.8l1.9-1.8
		c1.2-1.2,2-2,2.2-2.4c0.2-0.4,0.3-0.8,0.2-1.2c-0.1-0.4-0.3-0.8-0.7-1.2c-0.4-0.4-0.8-0.7-1.3-0.7c-0.5,0-1,0.1-1.4,0.4
		c-0.3,0.2-0.9,0.8-1.9,1.8l-2,2L261.7,277.8z M266.2,287.7l-12.3-12.8l5.4-5.2c1.4-1.3,2.5-2.1,3.3-2.5c0.8-0.3,1.7-0.4,2.6-0.2
		c0.9,0.2,1.8,0.7,2.5,1.5c0.9,1,1.4,2,1.5,3.2c0,1.2-0.4,2.4-1.4,3.6c0.9-0.2,1.7-0.3,2.4-0.3c0.7,0,1.9,0.3,3.4,0.7l3.9,1l-3.1,3
		l-4.5-1c-1.6-0.3-2.7-0.5-3.2-0.6c-0.5,0-0.9,0.1-1.3,0.2c-0.4,0.2-0.8,0.5-1.4,1.1l-0.5,0.5l5.1,5.3L266.2,287.7z M252.5,297.8
		l-10.4-14.3l10.6-7.7l1.8,2.4l-7.7,5.6l2.3,3.2l7.2-5.2l1.7,2.4l-7.2,5.2l2.8,3.9l8-5.8l1.7,2.4L252.5,297.8z M234.4,301l2.9-1.9
		c0.7,0.9,1.5,1.5,2.3,1.7c0.8,0.2,1.7,0.1,2.7-0.5c1-0.5,1.7-1.1,2-1.8c0.3-0.7,0.3-1.4,0-1.9c-0.2-0.4-0.5-0.6-0.8-0.8
		c-0.4-0.2-0.9-0.2-1.5-0.1c-0.5,0.1-1.4,0.3-2.9,0.6c-1.9,0.5-3.4,0.5-4.4,0.3c-1.4-0.4-2.4-1.2-3.1-2.4c-0.4-0.8-0.5-1.7-0.5-2.6
		c0.1-0.9,0.5-1.8,1.2-2.6c0.7-0.8,1.6-1.5,2.8-2.1c2-1,3.7-1.4,5.1-1c1.4,0.4,2.5,1.2,3.3,2.7l-3.1,1.8c-0.5-0.8-1.1-1.2-1.8-1.3
		c-0.6-0.1-1.4,0-2.3,0.5c-0.9,0.5-1.6,1-1.9,1.7c-0.2,0.4-0.2,0.8,0,1.2c0.2,0.4,0.5,0.6,0.9,0.7c0.6,0.1,1.7,0,3.5-0.4
		c1.8-0.4,3.1-0.6,4-0.6c0.9,0,1.8,0.3,2.5,0.7c0.8,0.5,1.4,1.2,1.9,2.2c0.4,0.9,0.6,1.9,0.5,2.9c-0.1,1.1-0.5,2-1.2,2.9
		c-0.7,0.8-1.8,1.6-3.1,2.3c-2,1-3.7,1.3-5.3,1C236.9,303.7,235.5,302.7,234.4,301 M212.9,307.9l3.3-1.3c0.5,1.1,1.2,1.8,1.9,2.1
		c0.7,0.4,1.6,0.4,2.7,0.1c1.1-0.3,1.9-0.8,2.3-1.4c0.4-0.6,0.6-1.3,0.4-1.9c-0.1-0.4-0.3-0.7-0.6-0.9c-0.3-0.2-0.8-0.4-1.4-0.4
		c-0.4,0-1.4,0-3,0c-2,0.1-3.4-0.1-4.4-0.6c-1.3-0.6-2.2-1.7-2.5-3c-0.3-0.9-0.2-1.8,0-2.7c0.3-0.9,0.8-1.7,1.6-2.3
		c0.8-0.7,1.9-1.2,3.2-1.6c2.1-0.6,3.9-0.6,5.2,0c1.3,0.6,2.3,1.7,2.8,3.3l-3.4,1.1c-0.4-0.8-0.9-1.4-1.5-1.6
		c-0.6-0.3-1.3-0.2-2.3,0c-1,0.3-1.7,0.7-2.2,1.3c-0.3,0.3-0.4,0.8-0.2,1.2c0.1,0.4,0.4,0.7,0.8,0.9c0.5,0.2,1.7,0.3,3.5,0.2
		c1.8-0.1,3.1,0,4.1,0.2c0.9,0.2,1.7,0.6,2.4,1.2c0.7,0.6,1.2,1.4,1.5,2.5c0.3,1,0.3,2,0,3c-0.3,1-0.9,1.9-1.7,2.6
		c-0.9,0.7-2,1.3-3.5,1.7c-2.2,0.6-4,0.6-5.4-0.1C214.8,311,213.6,309.8,212.9,307.9 M208.1,314.4l-3.4-17.4l3.5-0.7l3.4,17.4
		L208.1,314.4z M189.9,315.7l-0.2-7.5l-6.8-10l4.2-0.2l4.4,6.9l3.8-7.2l4.1-0.1l-6.2,10.5l0.3,7.5L189.9,315.7z M171.3,314.1
		l2.8-14.5l-5.1-1l0.6-3l13.8,2.7l-0.6,3l-5.1-1l-2.8,14.5L171.3,314.1z M160.3,311.5l4.5-17.1l3.5,1l-4.6,17.1L160.3,311.5z
		 M143.5,305.5l6.6-16.5l3.2,1.3l2.3,13.7l4.4-11l3.1,1.2l-6.6,16.4l-3.3-1.4l-2.3-13.4l-4.3,10.7L143.5,305.5z M139.3,295.4
		l1.3-6.9l-5.4,4.4L139.3,295.4z M141.3,304.8l-3.3-2l0.7-4.3l-6-3.7l-3.3,2.7l-3.3-1.9l15-11.7l3.2,2L141.3,304.8z M111.2,283.5
		l11.8-13.2l4,3.6l-5.7,11.1l10.4-6.9l4,3.6l-11.8,13.2l-2.5-2.2l9.3-10.4l-11.9,8l-2.5-2.3l6.7-12.7l-9.3,10.4L111.2,283.5z
		 M112.6,258.6l2.3,2.7l-7.3,6.2c-1.2,1-1.9,1.7-2.2,2c-0.5,0.6-0.7,1.3-0.6,2c0,0.7,0.4,1.5,1,2.2c0.7,0.8,1.3,1.2,1.9,1.4
		c0.6,0.1,1.2,0,1.8-0.3c0.5-0.3,1.3-0.9,2.4-1.8l7.5-6.3l2.3,2.7l-7.1,6c-1.6,1.4-2.8,2.3-3.6,2.7c-0.8,0.4-1.6,0.6-2.4,0.6
		c-0.8,0-1.6-0.2-2.4-0.7c-0.8-0.4-1.7-1.2-2.6-2.3c-1.1-1.3-1.8-2.4-2-3.3c-0.2-0.9-0.3-1.8-0.1-2.6c0.1-0.8,0.4-1.5,0.9-2
		c0.6-0.8,1.7-1.9,3.2-3.2L112.6,258.6z M89.4,254.8l15-9.4l1.9,3l-5.9,3.7l3.7,5.9l5.9-3.7l1.9,3l-15,9.4l-1.9-3l6.5-4.1l-3.7-5.9
		l-6.6,4.1L89.4,254.8z M89.2,230c-1.9,0.6-3.2,1.5-3.9,2.7c-0.7,1.2-0.8,2.5-0.4,3.9c0.4,1.4,1.3,2.3,2.5,2.9
		c1.3,0.5,2.9,0.5,4.8-0.1c1.9-0.6,3.2-1.5,3.9-2.7c0.7-1.2,0.8-2.4,0.3-3.9c-0.5-1.4-1.3-2.4-2.5-2.9
		C92.7,229.4,91.1,229.4,89.2,230 M88,226.6c1.7-0.6,3.2-0.8,4.5-0.6c1,0.1,1.9,0.4,2.8,0.8c0.9,0.5,1.6,1,2.2,1.7
		c0.8,0.9,1.4,2,1.8,3.4c0.8,2.5,0.7,4.7-0.4,6.7c-1.1,2-2.9,3.4-5.7,4.3c-2.7,0.9-5.1,0.8-7.1-0.2c-2-1-3.4-2.7-4.2-5.2
		c-0.8-2.5-0.7-4.8,0.3-6.7C83.4,228.9,85.3,227.5,88,226.6 M77.7,219.4l14.5-2.6l-0.9-5.2l3-0.5l2.4,13.9l-2.9,0.5l-0.9-5.2
		l-14.5,2.5L77.7,219.4z M76.5,191.7l17.7,0.6l-0.4,13.1l-3-0.1l0.3-9.6l-3.9-0.1l-0.3,8.9l-3-0.1l0.3-8.9l-4.8-0.2l-0.4,9.9l-3-0.1
		L76.5,191.7z M83.5,185.9l-1.8,3.2c-1.8-0.9-3-2-3.7-3.4c-0.7-1.4-0.9-3-0.5-4.9c0.4-2.3,1.6-4.1,3.5-5.2c1.9-1.2,4.2-1.5,6.9-1
		c2.9,0.6,5,1.7,6.3,3.6c1.3,1.8,1.7,3.9,1.3,6.4c-0.4,2.1-1.4,3.8-2.9,4.8c-0.9,0.7-2.1,1-3.5,1.2l-0.2-3.6c0.9,0,1.7-0.3,2.4-0.9
		c0.7-0.5,1.1-1.3,1.2-2.2c0.2-1.3,0-2.4-0.8-3.4c-0.8-1-2.2-1.7-4.2-2.1c-2.2-0.4-3.8-0.3-4.9,0.3c-1.1,0.6-1.8,1.5-2,2.8
		c-0.2,0.9-0.1,1.8,0.4,2.6C81.5,184.7,82.3,185.4,83.5,185.9 M81.2,166.7l17.1,4.6l-0.9,3.5l-17.1-4.6L81.2,166.7z M85.4,155.1
		l18.8,0.8l-1.5,3.6l-13.8-0.8l10.5,9l-1.4,3.5l-14-12.5L85.4,155.1z M102.7,144l-1.4,2.2c-0.9,1.5-1.4,2.4-1.5,2.9
		c-0.1,0.4-0.1,0.8,0.1,1.2c0.2,0.4,0.5,0.7,0.9,1c0.5,0.3,1,0.4,1.5,0.4c0.5-0.1,0.9-0.4,1.3-0.8c0.2-0.2,0.6-1,1.4-2.2l1.4-2.4
		L102.7,144z M95.8,135.7l15.1,9.1l-3.9,6.5c-1,1.6-1.8,2.7-2.5,3.3c-0.7,0.6-1.5,0.9-2.5,0.9c-1,0-1.9-0.2-2.8-0.8
		c-1.2-0.7-1.9-1.6-2.2-2.7c-0.3-1.1-0.2-2.4,0.4-3.9c-0.8,0.4-1.5,0.7-2.3,0.9c-0.7,0.2-1.9,0.2-3.5,0.3l-4.1,0.1l2.2-3.7l4.6-0.3
		c1.7-0.1,2.7-0.1,3.2-0.3c0.5-0.1,0.9-0.3,1.2-0.5c0.3-0.3,0.7-0.8,1.1-1.4l0.4-0.6l-6.3-3.8L95.8,135.7z M106.7,122.6l13.1,11.9
		l-8.8,9.8l-2.2-2l6.4-7.1l-2.9-2.6l-5.9,6.6l-2.2-2l5.9-6.6l-3.6-3.2l-6.6,7.4l-2.2-2L106.7,122.6z M123.3,114.8l-2.4,2.5
		c-0.9-0.8-1.8-1.2-2.6-1.2c-0.8,0-1.7,0.4-2.5,1c-0.9,0.8-1.4,1.5-1.5,2.2c-0.2,0.8,0,1.4,0.4,1.9c0.3,0.3,0.6,0.5,1,0.6
		c0.4,0,0.9,0,1.5-0.3c0.4-0.2,1.3-0.6,2.7-1.3c1.8-0.9,3.2-1.3,4.2-1.2c1.5,0,2.6,0.6,3.5,1.7c0.6,0.7,0.9,1.5,1,2.4
		c0.1,0.9-0.1,1.9-0.5,2.8c-0.5,0.9-1.2,1.8-2.3,2.7c-1.7,1.4-3.3,2.1-4.8,2.1c-1.5,0-2.8-0.6-3.8-1.9l2.6-2.4
		c0.7,0.6,1.4,0.9,2,0.9c0.6-0.1,1.3-0.4,2.1-1c0.8-0.7,1.3-1.4,1.4-2.1c0.1-0.4,0-0.8-0.3-1.2c-0.3-0.3-0.6-0.5-1.1-0.5
		c-0.6,0-1.7,0.4-3.3,1.2c-1.6,0.8-2.8,1.3-3.7,1.5c-0.9,0.2-1.8,0.2-2.7-0.1c-0.8-0.3-1.6-0.9-2.3-1.7c-0.6-0.8-1-1.7-1.2-2.7
		c-0.1-1,0.1-2,0.6-3c0.5-1,1.4-2,2.5-3c1.7-1.5,3.3-2.1,4.9-2.1C120.3,112.8,121.8,113.5,123.3,114.8"/>
	<path class="st0" d="M323.5,277.9c10.2-12.6,8.9-33.5-3-44c-2.2,11.2-4.3,22-2.4,33C318.7,271,319.8,275.2,323.5,277.9 M325.1,213
		c1.4,7.7,3,15.4,5.2,22.9c0.9,3,3.8,5.4,6.2,8.5c7.4-15.8,1.2-37.7-12.2-43.7C324.5,205.1,324.4,209.1,325.1,213 M320.6,168.6
		c3.2,11.9,6.4,23.5,14.3,33.1c1.7,2.1,4.2,3.5,6.6,5.4C346.6,192.8,335.2,171.9,320.6,168.6 M328.8,281.1
		c5.9,1.2,10.3-1.1,14.3-4.3c10.7-8.7,15.6-20.7,19.2-34.7C346.1,251.7,335,264.1,328.8,281.1 M322.4,312.6
		c11.8-6.5,20-16.4,26.7-29.3c-18.6,5.3-32.3,15.3-42.9,30.2C311.8,316,316.4,315.9,322.4,312.6 M308.4,264.6
		c-3,8.8-6.1,17.2-8.6,25.8c-1.7,6.2-2.4,12.7,1.6,18.9C316.9,297.7,317.4,273.3,308.4,264.6 M289.6,343.9c9-1.4,16.8-5.6,23.9-11.1
		c4.1-3.2,7.7-6.9,11.5-10.3c-0.3-0.3-0.5-0.6-0.8-1c-18.3,0.1-34.2,6.6-48.6,18.7C280.2,343.8,284.7,344.6,289.6,343.9 M246.9,365
		c5.2,1,10.8,1.4,16,0.8c10.6-1.3,20.2-5.7,29.7-12.4c-19.2-4.8-36.7-2.6-53.6,5.5c-0.2,0.4-0.3,0.8-0.5,1.3
		C241.3,361.8,243.9,364.4,246.9,365 M197.4,367.8c2.1,6.5,6.6,9.5,12,11.3c8.2,2.7,16.8,3,25.3,1.8c5.3-0.7,10.6-2.2,15.8-3.3
		c-0.1-0.4-0.1-0.8-0.2-1.2C234.1,366.6,216.5,364.7,197.4,367.8 M130.2,376.9c10.6,3.9,20.5,5.2,30.6,4.4
		c6.4-0.5,12.8-1.6,18.1-5.8c2.5-1.9,4.3-4.2,4.9-7.7C165,364.8,147.4,366.6,130.2,376.9 M89.5,353.8c2.1,1.4,3.8,2.6,5.6,3.5
		c11.4,6.1,23.2,10.7,36.5,8.5c4.5-0.7,8.6-2.3,11-6.7C129.8,351.1,102.9,348.2,89.5,353.8 M105.9,340.2
		c-14.5-12-30.3-18.6-49.7-18.5c9.2,10.5,19.3,17.9,32,21.5C94.2,344.8,100.1,344.9,105.9,340.2 M80.8,309.4
		c5.8-16.6-2.8-30.2-8.2-44.8C62.8,276.9,67,300.9,80.8,309.4 M32.5,283.4c6.5,12.7,14.7,22.6,26.5,29.2c5,2.8,10.4,3.9,16.4,1
		C64.5,298.5,50.9,288.3,32.5,283.4 M40,206.4c7.8-1.2,16.8-19.1,20.7-38C45.6,173.3,34.6,193.7,40,206.4 M44.7,243.3
		c9.9-4.4,12.2-25.7,12.2-42.7C43.5,207.9,37.3,229.9,44.7,243.3 M60.8,234.1c-11.3,9.9-13.5,32-2.5,43.6
		C66.3,271.6,65,249.8,60.8,234.1 M19.3,242.1c1,3.5,1.5,6.1,2.4,8.6c3.8,10.7,8.8,20.7,18.6,27.4c3.6,2.4,7.4,4.1,12.5,2.9
		C46.5,264.1,35.4,251.7,19.3,242.1 M38,238.8c-3.4-15.3-9.8-29-21.7-39.6v10.1c0.3,1.2,0.6,2.5,0.8,3.7c1.6,9.2,4.1,18.1,10.1,25.6
		c2.9,3.6,6.3,6.4,11.4,6.4c0.1-0.7,0.2-1.2,0.2-1.7C38.5,241.8,38.3,240.3,38,238.8 M22.6,158.3c-0.8,5.2-1.7,9.6-2,14
		c-0.5,8.4,0.1,16.8,3.5,24.7c1.9,4.4,4.8,8,9.7,9.7C37.3,189.8,29.7,165.2,22.6,158.3 M37.4,169.2c6.3-11.3,6.7-36,0.4-47.3
		c-6.2,12.2-9.6,24.6-6.8,38.1C31.8,163.8,33.9,167.1,37.4,169.2 M43.4,170.4c9.1-1,24.7-18.9,27.4-31.2
		C55.7,140.9,42.6,155.7,43.4,170.4 M49.6,135.2c9.1-13.6,12.5-28.7,10.7-45c-8.7,10-15.4,21-15.2,34.8c0.1,3.5,1.8,7,2.8,10.4
		C48.4,135.3,49,135.3,49.6,135.2 M54.6,137.7c8.6,1.9,22.8-10.6,33.1-24.7C73.8,110.7,55,124.9,54.6,137.7 M88.7,63.9
		c-9.8,5.9-19.8,18.8-22.4,28.7c-1.1,4.3-1.4,8.6,1.4,12.9C79.6,94.1,86.2,80.4,88.7,63.9 M71.7,109.2c16.1,0.5,26.4-9.5,38-17.9
		C95.5,86.7,77.2,95.2,71.7,109.2 M110,334.8c2.1-17.9-9.7-29.1-18.4-42.6C85.5,308.8,94.1,328.5,110,334.8 M145.6,352.4
		c-2-18.1-16.5-26.2-28.2-37.3C113.8,331.1,128.3,350.3,145.6,352.4 M184.4,360.7c-0.5-9.6-20.3-25.3-36-28.9
		C149.4,348.2,167.2,362.7,184.4,360.7 M233.1,331.2c-11.1,5.2-22.1,10.1-30.8,18.9c-2.8,2.8-5.2,6-5.3,10.3
		C213.3,363.5,233.2,347.4,233.1,331.2 M264.1,315.5c-9.1,7.2-18,14.4-24.3,24.2c-2.4,3.8-4.3,7.9-3.1,12.7
		C254.2,349.2,268.6,329.9,264.1,315.5 M271.6,324.2c-0.5,3.3-0.1,6.7-0.1,10.4c14.8-5.5,25.1-25.3,18.8-41.7
		C283.9,298.5,272.9,316.6,271.6,324.2 M272.3,90.8c11,11,30.4,21.7,37,17.6C305.9,96.2,287.3,87.2,272.3,90.8 M314.3,105.1
		c0.9-3,1.9-6,1.4-8.9c-2.1-14.2-11.3-23.6-22.3-31.8C295.4,80.5,301.9,94.1,314.3,105.1 M327.3,138.4c-2-12.9-17.4-27.6-33.9-25.3
		C303.2,123.7,311.1,136,327.3,138.4 M332.1,135.4c9.3-7.5,2.8-31.4-11.3-45.8C319.5,106.7,323,121.7,332.1,135.4 M338.2,170.4
		c0.4-15.2-12.9-30.1-28.2-31.2c2.3,4.1,4.2,8.2,6.8,11.8c3.6,5.1,7.5,10.1,11.7,14.7C330.9,168.5,334.2,170.4,338.2,170.4
		 M351,158.1c1.7-12.8-1.2-24.7-7.7-36.8c-5.8,16.7-5.6,32.3,0.4,48C347.9,166.5,350.3,163.4,351,158.1 M358.3,195.1
		c4-11.9,3.7-24-0.1-36.1c-9.4,14.5-12.8,30.3-10.6,47.8C353.6,204.7,356.5,200.3,358.3,195.1 M365.3,210v-10.9
		c-13.5,12.3-20,27.9-22.8,45.9c4.7-0.1,8.1-1.8,10.3-4.9c3.3-4.6,6.3-9.5,8.4-14.6C363.2,220.7,364,215.2,365.3,210"/>
	<path class="st0" d="M262.9,45.2c10.2,3.9,21.7,14.3,25.7,23.2c1.7,3.8,2.7,7.8,0.8,12.3C276.3,72,267.9,60.3,262.9,45.2
		 M286.2,84.8c-15,3.2-26.3-4.5-38.5-10.6C260.2,67.7,278.7,72.6,286.2,84.8"/>
	<path class="st0" d="M118.7,45.2C108.5,49.1,97,59.5,93,68.4c-1.7,3.8-2.7,7.8-0.8,12.3C105.2,72,113.6,60.3,118.7,45.2 M95.3,84.8
		c15,3.2,26.3-4.5,38.5-10.6C121.3,67.7,102.8,72.6,95.3,84.8"/>
	<path class="st0" d="M148.9,45.2C139,45.4,126,50.7,119.8,57c-2.7,2.7-4.7,5.8-4.5,10.2C129.1,63.9,139.9,56.6,148.9,45.2"/>
	<path class="st0" d="M234.3,45.2c9.9,0.2,22.9,5.5,29.1,11.8c2.7,2.7,4.7,5.8,4.5,10.2C254.1,63.9,243.3,56.6,234.3,45.2"/>
	<g class="st2">
		<g>
			<defs>
				<rect id="SVGID_1_" x="7.4" y="6.8" width="385.2" height="386.4"/>
			</defs>
			<clipPath id="SVGID_2_">
				<use xlink:href="#SVGID_1_"  style="overflow:visible;"/>
			</clipPath>
			<g class="st3">
				<defs>
					<path id="SVGID_3_" d="M336.6,83l56,3.4v306.8H27L7.4,268.4c0,0,227.8-46,328.1-183.9c0.5-0.7,1-1.4,1.5-2.1"/>
				</defs>
				<clipPath id="SVGID_4_">
					<use xlink:href="#SVGID_3_"  style="overflow:visible;"/>
				</clipPath>
				<path class="st4" d="M167.5,100.3c-0.4,0.9-0.9,1.7-1.3,2.5c0.2,0.2,0.3,0.4,0.4,0.4c0.8,0.6,1.6,1.1,2.4,1.7
					C171.1,102.2,170.9,101.8,167.5,100.3 M157.8,87.8c-1.4-0.2-2.7-0.3-4.1-0.3c-2.6,0-3.2,0.6-4.3,3.5h6.5c0,0.2,0.1,0.4,0.1,0.5
					c-2,1.1-4,2.3-6.1,3.4c3.8-0.2,6.9-1.7,8.9-5.2C159.4,88.6,159,88,157.8,87.8 M173.8,75.2c-4.9,1.4-9.5,3.1-14.1,4.8
					c-0.5,0.2-0.8,0.8-1.2,1.3c0.1,0.1,0.2,0.2,0.3,0.3c4.7-1.8,9.3-3.5,14-5.4C173.2,76.1,173.4,75.6,173.8,75.2 M174.2,48.5
					c-0.2,0.6-0.9,1.1-1.6,1.7c-0.3,0.3-0.5,0.9-0.4,1.2c0.1,0.3,0.7,0.6,1.1,0.5c1.1-0.2,2.2-0.5,3.3-0.8c0-0.1-0.1-0.2-0.1-0.4
					c-1.2,0.1-2.4,0.3-3.6,0.4c-0.1-0.2-0.1-0.3-0.1-0.5c1.5-0.4,2-2.5,4-2.3c0.1,0,0.6-1.1,0.4-1.4c-0.5-0.7-1.2-1.3-2-1.8
					c-0.2-0.1-1,0.3-1,0.5C174.1,46.6,174.2,47.6,174.2,48.5 M182.2,37.1c-2.8,1.8-5.6,3.5-8.3,5.3c3-0.7,5.7-2,8-4.1
					c0.4-0.4,1.1-0.3,1.6-0.6c0.4-0.3,0.7-0.8,1-1.2c-1.2-0.8-0.5-1.9-0.5-3c0-1.2-0.7-1.6-1.8-1C180.2,33.7,180.2,35.2,182.2,37.1
					 M189.4,10.6c1-1.8,1-3.2-0.3-3.8C189.1,8.2,189.3,9.4,189.4,10.6 M196.9,13.1c0.5-0.9,0.7-1.9,1.1-2.9c-0.9,0.1-2,0-2.8,0.3
					c-4.7,2.1-9.3,3.1-13.8-0.3c-0.2,0.1-0.3,0.2-0.5,0.3c0.5,1.5,1,3,1.7,4.8c0.2-0.8,0.3-1.4,0.5-2.1c4.2,1.5,8.2,0.6,12.2-1.2
					c0.6-0.3,1.3-0.4,1.9-0.6c0.1,0.1,0.1,0.2,0.2,0.4c-0.7,1-1.5,1.9-2.2,2.9c0.1,0.1,0.2,0.2,0.3,0.2
					C195.9,14.4,196.5,13.8,196.9,13.1 M191.6,16.1c0.2,1.1,0.4,2.3,0.7,3.8c-2.4-0.7-1.1-3.2-2.7-4.5c0.1,1.2,0.4,2,0.3,2.8
					c-0.1,0.7-0.7,1.3-1.1,1.9c-0.3-0.6-0.8-1.1-0.9-1.7c-0.2-0.6,0-1.3,0-2.2c-1.9,1-0.6,2.2-0.7,3.1c-0.1,0.7,0.5,1.5,0.8,2.2
					c0.8-0.3,1.5-0.7,2.2-0.9c0.6,0.1,1.6,0.6,1.8,0.4c0.5-0.7,1-1.6,0.9-2.4c0-1-0.6-2-1-3.3C191.8,15.7,191.6,16,191.6,16.1
					 M186.6,54.5c0.2-0.3,0.2-0.7,0.4-1.2c-1.5,0.9-1.9,0.7-1.8-0.8c0.1-1.3,0.5-2.6,0.8-3.9c-0.2,0-0.3-0.1-0.5-0.1
					c-0.3,1.9-0.8,3.7-1,5.6c0,0.4,0.6,0.9,0.9,1.4C185.8,55.2,186.3,54.9,186.6,54.5 M202.4,33.5c0.2-0.1,0.3-0.2,0.5-0.4l-1.1-1.9
					c-0.5,0.4-1.3,0.7-1.6,1.3c-0.5,1-0.7,2.2-1,3.2c-0.6-1.1-1.1-2.2-1.7-3.2c-0.2-0.3-1-0.7-1.3-0.5c-0.4,0.2-0.9,0.9-0.9,1.4
					c0,0.4,0.6,1.1,0.9,1.1c1.4-0.2,1.5,0.9,1.8,1.7c0.3,0.8,0.5,1.6,1,2.9c0.7-2.4,1.3-4.3,1.9-6.3C201.6,33.1,202,33.3,202.4,33.5
					 M203,53.8c0.3-0.4,0.3-0.9,0.5-1.3c-0.6,0.2-1.2,0.6-1.4,0.4c-0.3-0.2-0.5-0.9-0.5-1.3c0.2-1.3,0.5-2.5,0.8-3.8
					c-0.2,0-0.4-0.1-0.6-0.1c-0.3,1.9-0.7,3.8-1,5.7c-0.1,0.4,0.5,1,0.9,1.2C202.1,54.7,202.7,54.2,203,53.8 M220,71.4
					c1-0.1,1.7-0.2,2.6-0.3c0-0.3,0.1-0.8,0-1.3c0-0.2-0.7-0.4-0.9-0.2c-0.9,0.7-1.8,1.4-2.4,2.3c-0.3,0.5,0.3,1.4,0.4,2.3
					c-0.2,0.3-0.4,0.8-0.7,1.3c0.1,0.1,0.2,0.2,0.3,0.3c1.5-1.5,3.9-1.9,5.1-4.4C222.8,71.8,221.7,73.5,220,71.4 M230.6,93.1
					c-2.4,0.3-4.5,0.5-6.9,0.8c-0.1-1.5-0.2-3-0.3-4.6C226.5,89.3,228.9,90.2,230.6,93.1 M230.3,88c-2.1-1.3-4.5-2-7-3
					c-0.1-0.7-0.1-1.8-0.2-3.2c0.7,0.4,1.1,0.7,1.5,1.1c0.1-0.1,0.2-0.1,0.4-0.2c-0.9-2.6-1.9-5.2-2.9-8.1c-2.5,3.8,0,7.5-1,10.9
					c-6.4,0.7-12.6,1.5-18.9,2c-4.9,0.4-9.9,0.6-14.8,0.6c-1.6,0-3.3-0.2-4.9-1.8c2.7-2.4,5.3-4.7,7.9-7c0.1,0.1,0.3,0.2,0.4,0.4
					c-0.2,2.4-0.3,4.9-0.5,7.3c0.2,0,0.4,0.1,0.6,0.1c0.7-2.1,1.7-4.2,1.8-6.4c0.2-2.9,1.8-4.2,4.2-5.1c1.5-0.5,2.9-1.1,4.3,0.6
					c0.4-0.9,0.8-1.5,1-2.2c0.5-1.5-0.1-2.4-1.6-2.4c-0.8,0-1.6,0.2-2.3,0.5c-1.5,0.6-3,1.4-4.6,2.2c-0.1-0.9-0.2-1.7-0.2-2.5
					c0-1,0-2.1,0.4-3c1.1-2.4,2.4-4.6,3.6-6.8c0,0,0.1,0.5,0.3,0.9c0.9,1.8,1.5,3.8,2.8,5.2c3.5,4.1,9.2,2.9,11-2.2
					c1.2-3.4,0.9-6.8-0.1-10.2c-0.9-3-1.8-6.1-2.8-9.2c0.9,0.2,1.6,0.4,2.3,0.6c0.1-0.1,0.2-0.3,0.3-0.4c-1.5-2.4-3.1-4.7-4.8-7.3
					c-1.3,2.3-1.5,4.1-1.1,6.5c0.9,5.2,2.2,10.1,4.6,14.8c1.2,2.5,0.2,4-2.6,4.3c-3.1,0.3-5.5-1.1-6.4-4.2
					c-1.1-3.6-1.6-7.4-2.3-11.1c-0.6-3.1-1-6.2-2.8-9.3c-1,2.6-2,4.7-1.3,7.4c0.8,3.4,1.2,7,1.4,10.5c0.2,2.3-0.8,4.4-2.8,6.2
					c-0.6-10.5-1.1-20.8-1.7-31.3c0.9,0.8,1.6,1.3,2.2,1.9c0.2-0.1,0.4-0.3,0.6-0.4c-1.4-3.9-2.8-7.8-4.2-11.7
					c-1.5,2.1-2.7,4.1-1.7,6.6c0.3,0.7,0.2,1.5,0.2,2.2c0.4,8.1,0.8,16.3,1.2,24.4c0.1,3.3,0.3,6.6,0.5,9.9
					c-4.4,1.2-7.2-0.2-7.9-3.9c-0.3-1.3-0.3-2.8-0.1-4.1c0.4-3,1.1-6,1.5-9c0.2-1.2,0.1-3.2-0.4-3.4c-1.5-0.5-2.3,1.1-2.8,2.2
					c-1.4,3.1-2.6,6.3-3.7,9.5c-0.9,2.6-1.5,5.3-2.5,7.9c-0.3,0.8-1.6,1.6-2.3,1.6c-0.9,0-1.8-0.9-2.5-1.7c-0.5-0.5-0.7-1.4-0.7-2.1
					c-0.1-2.8-0.2-5.7,0-8.6c0.1-1.4,1-2.8,1.5-4.1c-0.5,0.1-1.1,0.5-1.4,0.3c-0.3-0.2-0.4-0.9-0.4-1.4c0.1-0.9,0.3-1.9,0.5-2.8
					c-0.2,0-0.4,0-0.6-0.1c-0.2,1.6-0.5,3.2-0.7,4.8c-0.1,1.3,0,2.5,0,3.8c-0.1,2.9-0.5,5.8-0.2,8.6c0.2,2,1.2,4.2,2.4,5.9
					c1.5,2.2,3.7,1.9,5.2-0.3c0.7-1,1.1-2.1,1.5-3.3c0.9-3.2,1.7-6.5,2.6-9.7c0.4-1.5,1.2-2.9,2-4.7c0.2,0.6,0.3,0.7,0.3,0.8
					c-0.1,0.4-0.2,0.9-0.3,1.3c-1.1,4.4-1.7,8.7-0.4,13.1c1.1,3.7,3.7,5.3,7.5,5c0.7-0.1,1.4-0.2,2.1-0.3c0.7,3.1,0.5,5.5-2.6,7.4
					c-2.8,1.7-4.8,4.4-6,7.5c-1.2,3.1-0.2,4.9,3,5.2c2.5,0.3,5,0.5,7.5,0.3c7.3-0.6,14.7-1.4,22-2.2c2.4-0.2,4.9-0.4,7.3-0.5
					c0.1,1.8,0.2,3.4,0.3,4.9c-0.4,0.1-0.7,0.2-0.9,0.2c-8.3,1-16.5,2.3-24.9,3c-5.7,0.5-11.5,0.4-17.2-0.1c-4.7-0.4-8.4-4-7.4-10.1
					c0.2-1.2,0.1-2.5-1-3.4c-0.3,0.2-0.5,0.3-0.6,0.5c-0.5,0.8-1,1.6-1.4,2.4c-1.9,3.2-3.8,3.2-5.7,0.2c0-0.1-0.2-0.1-0.4-0.2
					c-0.6,1.6-1.3,3-0.3,4.7c0.5,0.9,0.7,1.9,1,2.9c0.6,1.8,0.3,3.4-1.5,4.5c-2.5,1.7-4.9,3.5-7.5,5c-1.5,0.9-3.2,1.3-4.9,1.7
					c-2,0.4-3.4-0.4-4.5-2.1c-1.5-2.4-0.9-6.7,1.1-8.9c0.5-0.5,0.6-1.2,1.1-2.2c-0.7,0.5-1.1,0.8-1.6,1.1c-1.4-2,0.2-3.7,0-5.5
					c-0.3,0.9-1,1.8-1,2.7c0.2,4.2-1.5,8.2-1.4,12.3c0,0.3,0,0.6,0.1,0.8c0.5,4,3.2,6,7.1,5.1c4.5-1,8.2-3.6,11.5-6.9
					c1-1,1.7-2.5,2.1-3.9c0.5-1.7,0.6-3.6,0.9-5.5c3.6,0.3,3.5-3.6,5.6-5.3c0.1,1.3,0.3,2.3,0.3,3.3c-0.3,5.7,2.4,9.4,8,10.2
					c3.6,0.5,7.2,0.8,10.8,0.5c7.1-0.5,14.1-1.5,21.1-2.4c3.8-0.5,7.6-1,11.7-1.6l-0.2,11.6c2.3-3.7,2.3-7.7,2.1-11.8
					c2.1-0.3,4-0.4,6-0.8c0.7-0.1,1.5-0.6,1.9-1.2C233.3,92.5,232.9,89.6,230.3,88 M208.9,79.2c-1,0.5-1.7,0.8-2.4,1.1
					c-0.1-0.1-0.3-0.2-0.4-0.4c0.2-0.7,0.4-1.5,0.7-2.4C207.5,78.2,208,78.6,208.9,79.2 M208.6,77.3c-0.8-1-1.2-1.9-0.7-3.2
					c-1.5,1.9-2.2,4-2.4,6.3c-0.1,1.2,0.7,1.6,1.8,1.3C209,81.2,209.9,78.8,208.6,77.3"/>
				<path class="st4" d="M165.8,207.2c-3.6-2.4-21.6-15.3-22.9-16.4c-1.4-1.2-0.3-1.6,1-2.2c1.3-0.6,4.5-2.5,5.4-3.3
					c1-0.7,0.9-1.2,0-3.3c-0.9-2.1-4.2-9.5-4.6-10.4c-0.4-0.9-0.8-1.8,1-1.3c1.8,0.5,10.5,2.1,12,2.4c1.5,0.3,1.8,0.1,2.5-1.2
					c0.7-1.3,2.5-5.2,2.9-6c0.3-0.8,0.7-0.9,1.6,0c0.8,0.9,9.8,11.8,11,13c1.2,1.2,2.4,1.4,2.1-1.4c-0.3-2.7-5.1-24.5-5.3-25.6
					c-0.2-1.1,0.5-1.4,1.4-0.6c0.8,0.7,5.7,3.9,6.4,4.2c0.7,0.3,1.6,0.6,2.3-0.5c0.7-1.2,6.8-13.6,7-14.1c0.2-0.5,1-2.6,2.2-0.2
					c1.3,2.4,6.2,13.1,6.5,13.7c0.3,0.6,0.6,2,2,1.1c1.4-0.9,9.2-5.6,9.2-5.6s1.3-0.2,0.9,1.2c-0.3,1.4-5.4,24.4-5.7,25.9
					c-0.3,1.5,0.4,3.5,2.4,1.5c2-2,9-11.2,9.5-11.8c0.5-0.6,1-1.6,1.7-0.4c0.7,1.2,2,4.4,2.5,5.5c0.5,1.1,1,1.2,2.2,0.9
					c1.3-0.2,10.6-2.2,11.6-2.4c1.1-0.2,1.6,0.2,1.3,1.4c-0.3,1.2-3.5,11.5-3.9,13.1c-0.4,1.4,0.3,2,1.1,2.3
					c1.1,0.4,3.9,1.8,4.9,2.3c1.5,0.7,1.4,1,0.1,2.2c-1.4,1.2-21,17.2-22.1,17.9c-1.4,0.9-2,1.7-1.3,3.1c0.9,1.7,2.1,4,2.5,4.9
					c0.4,0.8,0.6,1.4-2.7,0.9c-2.8-0.5-18.9-2.6-20-2.8c0,3-0.2,16.6-0.1,18.2c-2,0.1-4.3,0.1-6.5,0c0.1-5.4,0-15.3,0.2-18.2
					c-7.2,0.9-19.4,2.4-21.6,2.6c-1.4,0.2-1.5-0.7-0.8-2.1c0.7-1.4,1.8-3.3,2.4-4.6C169,209.1,167.5,208.4,165.8,207.2"/>
				<path class="st4" d="M234.4,135.4c20.5,14,34,37.6,34,64.4c0,43-34.8,77.8-77.6,77.8c-42.8,0-77.5-34.9-77.5-77.8
					c0-26.7,13.4-50.3,33.9-64.4c-13.8,12.2-22.5,30-22.5,49.9c0,36.6,29.6,66.3,66.1,66.3c36.5,0,66.2-29.7,66.2-66.3
					C256.9,165.4,248.2,147.6,234.4,135.4"/>
				<path class="st4" d="M269.2,116.6L257.6,130l-2.7-2.4l4.6-5.3l-5.3-4.6l-4.6,5.3l-2.7-2.4l11.6-13.4l2.7,2.4l-5.1,5.8l5.3,4.6
					l5.1-5.9L269.2,116.6z M270.2,127.5l-3.4,6.2l6.5-2.5L270.2,127.5z M271.2,118l2.5,2.9l-2,3.8l4.6,5.4l4-1.5l2.5,2.9l-17.9,6.4
					l-2.5-2.9L271.2,118z M290.1,142.7l-14.7,9.6l-2-3l12.2-8l-4.8-7.5l2.5-1.6L290.1,142.7z M296.9,156.4l-15.9,7.4l-1.5-3.2
					l13.2-6.2l-3.7-8.1l2.7-1.3L296.9,156.4z M293.2,166.9l-5.7,4.2l7,0.5L293.2,166.9z M298.2,158.6l1.1,3.7l-3.5,2.6l2,6.8
					l4.3,0.3l1.1,3.7l-18.9-1.8l-1-3.7L298.2,158.6z M296.8,197c2-0.2,3.5-0.8,4.4-1.8c0.9-1,1.4-2.2,1.2-3.6
					c-0.1-1.4-0.7-2.5-1.8-3.4c-1.1-0.8-2.7-1.1-4.7-1c-2,0.2-3.5,0.7-4.4,1.7c-0.9,1-1.3,2.2-1.2,3.7c0.1,1.5,0.7,2.6,1.8,3.4
					C293.2,196.9,294.7,197.2,296.8,197 M297.2,200.7c-1.8,0.2-3.3,0-4.6-0.4c-0.9-0.3-1.8-0.8-2.6-1.4c-0.8-0.6-1.4-1.3-1.8-2.1
					c-0.6-1.1-0.9-2.3-1-3.7c-0.2-2.6,0.4-4.7,1.9-6.4c1.5-1.7,3.7-2.7,6.5-2.9c2.9-0.3,5.1,0.3,6.9,1.7c1.8,1.4,2.7,3.4,2.9,6
					c0.2,2.6-0.4,4.8-1.8,6.5C302.1,199.5,300,200.5,297.2,200.7 M305,210.4l-14.7-1l-0.4,5.2l-3-0.2l1-14.1l3,0.2l-0.4,5.2l14.6,1
					L305,210.4z M299.9,237.4l-17.2-4.3l3.2-12.8l2.9,0.7l-2.3,9.3l3.8,0.9l2.1-8.6l2.9,0.7l-2.2,8.6l4.7,1.2l2.4-9.6l2.9,0.7
					L299.9,237.4z M291.4,241.1l2.4-2.7c1.5,1.3,2.5,2.7,2.8,4.2c0.4,1.5,0.1,3.1-0.6,4.9c-1,2.1-2.5,3.6-4.5,4.3
					c-2.1,0.7-4.4,0.5-6.9-0.6c-2.7-1.2-4.5-2.8-5.3-4.9c-0.9-2.1-0.8-4.2,0.2-6.5c0.9-2,2.2-3.3,3.9-4.1c1-0.4,2.3-0.6,3.7-0.3
					l-0.7,3.6c-0.9-0.2-1.8-0.1-2.5,0.3c-0.8,0.4-1.3,1-1.7,1.9c-0.5,1.2-0.5,2.4,0,3.5c0.5,1.1,1.7,2.1,3.7,3
					c2,0.9,3.7,1.2,4.9,0.8c1.2-0.3,2-1.1,2.6-2.3c0.4-0.9,0.4-1.7,0.2-2.6C293.1,242.7,292.4,241.9,291.4,241.1 M288.8,260.5
					l-15.3-8.9l1.8-3.1l15.3,8.9L288.8,260.5z M281.2,271.5l-17.9-5.6l2.3-3.1l13.2,4.3l-7.9-11.4l2.3-3l10.3,15.7L281.2,271.5z
					 M261.7,277.8l1.9-1.8c1.2-1.2,2-2,2.2-2.4c0.2-0.4,0.3-0.8,0.2-1.2c-0.1-0.4-0.3-0.8-0.7-1.2c-0.4-0.4-0.8-0.7-1.3-0.7
					c-0.5,0-1,0.1-1.4,0.4c-0.3,0.2-0.9,0.8-1.9,1.8l-2,2L261.7,277.8z M266.2,287.7l-12.3-12.8l5.4-5.2c1.4-1.3,2.5-2.1,3.3-2.5
					c0.8-0.3,1.7-0.4,2.6-0.2c0.9,0.2,1.8,0.7,2.5,1.5c0.9,1,1.4,2,1.5,3.2c0,1.2-0.4,2.4-1.4,3.6c0.9-0.2,1.7-0.3,2.4-0.3
					c0.7,0,1.9,0.3,3.4,0.7l3.9,1l-3.1,3l-4.5-1c-1.6-0.3-2.7-0.5-3.2-0.6c-0.5,0-0.9,0.1-1.3,0.2c-0.4,0.2-0.8,0.5-1.4,1.1
					l-0.5,0.5l5.1,5.3L266.2,287.7z M252.5,297.8l-10.4-14.3l10.6-7.7l1.8,2.4l-7.7,5.6l2.3,3.2l7.2-5.2l1.7,2.4l-7.2,5.2l2.8,3.9
					l8-5.8l1.7,2.4L252.5,297.8z M234.4,301l2.9-1.9c0.7,0.9,1.5,1.5,2.3,1.7c0.8,0.2,1.7,0.1,2.7-0.5c1-0.5,1.7-1.1,2-1.8
					c0.3-0.7,0.3-1.4,0-1.9c-0.2-0.4-0.5-0.6-0.8-0.8c-0.4-0.2-0.9-0.2-1.5-0.1c-0.5,0.1-1.4,0.3-2.9,0.6c-1.9,0.5-3.4,0.5-4.4,0.3
					c-1.4-0.4-2.4-1.2-3.1-2.4c-0.4-0.8-0.5-1.7-0.5-2.6c0.1-0.9,0.5-1.8,1.2-2.6c0.7-0.8,1.6-1.5,2.8-2.1c2-1,3.7-1.4,5.1-1
					c1.4,0.4,2.5,1.2,3.3,2.7l-3.1,1.8c-0.5-0.8-1.1-1.2-1.8-1.3c-0.6-0.1-1.4,0-2.3,0.5c-0.9,0.5-1.6,1-1.9,1.7
					c-0.2,0.4-0.2,0.8,0,1.2c0.2,0.4,0.5,0.6,0.9,0.7c0.6,0.1,1.7,0,3.5-0.4c1.8-0.4,3.1-0.6,4-0.6c0.9,0,1.8,0.3,2.5,0.7
					c0.8,0.5,1.4,1.2,1.9,2.2c0.4,0.9,0.6,1.9,0.5,2.9c-0.1,1.1-0.5,2-1.2,2.9c-0.7,0.8-1.8,1.6-3.1,2.3c-2,1-3.7,1.3-5.3,1
					C236.9,303.7,235.5,302.7,234.4,301 M212.9,307.9l3.3-1.3c0.5,1.1,1.2,1.8,1.9,2.1c0.7,0.4,1.6,0.4,2.7,0.1
					c1.1-0.3,1.9-0.8,2.3-1.4c0.4-0.6,0.6-1.3,0.4-1.9c-0.1-0.4-0.3-0.7-0.6-0.9c-0.3-0.2-0.8-0.4-1.4-0.4c-0.4,0-1.4,0-3,0
					c-2,0.1-3.4-0.1-4.4-0.6c-1.3-0.6-2.2-1.7-2.5-3c-0.3-0.9-0.2-1.8,0-2.7c0.3-0.9,0.8-1.7,1.6-2.3c0.8-0.7,1.9-1.2,3.2-1.6
					c2.1-0.6,3.9-0.6,5.2,0c1.3,0.6,2.3,1.7,2.8,3.3l-3.4,1.1c-0.4-0.8-0.9-1.4-1.5-1.6c-0.6-0.3-1.3-0.2-2.3,0
					c-1,0.3-1.7,0.7-2.2,1.3c-0.3,0.3-0.4,0.8-0.2,1.2c0.1,0.4,0.4,0.7,0.8,0.9c0.5,0.2,1.7,0.3,3.5,0.2c1.8-0.1,3.1,0,4.1,0.2
					c0.9,0.2,1.7,0.6,2.4,1.2c0.7,0.6,1.2,1.4,1.5,2.5c0.3,1,0.3,2,0,3c-0.3,1-0.9,1.9-1.7,2.6c-0.9,0.7-2,1.3-3.5,1.7
					c-2.2,0.6-4,0.6-5.4-0.1C214.8,311,213.6,309.8,212.9,307.9 M208.1,314.4l-3.4-17.4l3.5-0.7l3.4,17.4L208.1,314.4z M189.9,315.7
					l-0.2-7.5l-6.8-10l4.2-0.2l4.4,6.9l3.8-7.2l4.1-0.1l-6.2,10.5l0.3,7.5L189.9,315.7z M171.3,314.1l2.8-14.5l-5.1-1l0.6-3
					l13.8,2.7l-0.6,3l-5.1-1l-2.8,14.5L171.3,314.1z M160.3,311.5l4.5-17.1l3.5,1l-4.6,17.1L160.3,311.5z M143.5,305.5l6.6-16.5
					l3.2,1.3l2.3,13.7l4.4-11l3.1,1.2l-6.6,16.4l-3.3-1.4l-2.3-13.4l-4.3,10.7L143.5,305.5z M139.3,295.4l1.3-6.9l-5.4,4.4
					L139.3,295.4z M141.3,304.8l-3.3-2l0.7-4.3l-6-3.7l-3.3,2.7l-3.3-1.9l15-11.7l3.2,2L141.3,304.8z M111.2,283.5l11.8-13.2l4,3.6
					l-5.7,11.1l10.4-6.9l4,3.6l-11.8,13.2l-2.5-2.2l9.3-10.4l-11.9,8l-2.5-2.3l6.7-12.7l-9.3,10.4L111.2,283.5z M112.6,258.6
					l2.3,2.7l-7.3,6.2c-1.2,1-1.9,1.7-2.2,2c-0.5,0.6-0.7,1.3-0.6,2c0,0.7,0.4,1.5,1,2.2c0.7,0.8,1.3,1.2,1.9,1.4
					c0.6,0.1,1.2,0,1.8-0.3c0.5-0.3,1.3-0.9,2.4-1.8l7.5-6.3l2.3,2.7l-7.1,6c-1.6,1.4-2.8,2.3-3.6,2.7c-0.8,0.4-1.6,0.6-2.4,0.6
					c-0.8,0-1.6-0.2-2.4-0.7c-0.8-0.4-1.7-1.2-2.6-2.3c-1.1-1.3-1.8-2.4-2-3.3c-0.2-0.9-0.3-1.8-0.1-2.6c0.1-0.8,0.4-1.5,0.9-2
					c0.6-0.8,1.7-1.9,3.2-3.2L112.6,258.6z M89.4,254.8l15-9.4l1.9,3l-5.9,3.7l3.7,5.9l5.9-3.7l1.9,3l-15,9.4l-1.9-3l6.5-4.1
					l-3.7-5.9l-6.6,4.1L89.4,254.8z M89.2,230c-1.9,0.6-3.2,1.5-3.9,2.7c-0.7,1.2-0.8,2.5-0.4,3.9c0.4,1.4,1.3,2.3,2.5,2.9
					c1.3,0.5,2.9,0.5,4.8-0.1c1.9-0.6,3.2-1.5,3.9-2.7c0.7-1.2,0.8-2.4,0.3-3.9c-0.5-1.4-1.3-2.4-2.5-2.9
					C92.7,229.4,91.1,229.4,89.2,230 M88,226.6c1.7-0.6,3.2-0.8,4.5-0.6c1,0.1,1.9,0.4,2.8,0.8c0.9,0.5,1.6,1,2.2,1.7
					c0.8,0.9,1.4,2,1.8,3.4c0.8,2.5,0.7,4.7-0.4,6.7c-1.1,2-2.9,3.4-5.7,4.3c-2.7,0.9-5.1,0.8-7.1-0.2c-2-1-3.4-2.7-4.2-5.2
					c-0.8-2.5-0.7-4.8,0.3-6.7C83.4,228.9,85.3,227.5,88,226.6 M77.7,219.4l14.5-2.6l-0.9-5.2l3-0.5l2.4,13.9l-2.9,0.5l-0.9-5.2
					l-14.5,2.5L77.7,219.4z M76.5,191.7l17.7,0.6l-0.4,13.1l-3-0.1l0.3-9.6l-3.9-0.1l-0.3,8.9l-3-0.1l0.3-8.9l-4.8-0.2l-0.4,9.9
					l-3-0.1L76.5,191.7z M83.5,185.9l-1.8,3.2c-1.8-0.9-3-2-3.7-3.4c-0.7-1.4-0.9-3-0.5-4.9c0.4-2.3,1.6-4.1,3.5-5.2
					c1.9-1.2,4.2-1.5,6.9-1c2.9,0.6,5,1.7,6.3,3.6c1.3,1.8,1.7,3.9,1.3,6.4c-0.4,2.1-1.4,3.8-2.9,4.8c-0.9,0.7-2.1,1-3.5,1.2
					l-0.2-3.6c0.9,0,1.7-0.3,2.4-0.9c0.7-0.5,1.1-1.3,1.2-2.2c0.2-1.3,0-2.4-0.8-3.4c-0.8-1-2.2-1.7-4.2-2.1
					c-2.2-0.4-3.8-0.3-4.9,0.3c-1.1,0.6-1.8,1.5-2,2.8c-0.2,0.9-0.1,1.8,0.4,2.6C81.5,184.7,82.3,185.4,83.5,185.9 M81.2,166.7
					l17.1,4.6l-0.9,3.5l-17.1-4.6L81.2,166.7z M85.4,155.1l18.8,0.8l-1.5,3.6l-13.8-0.8l10.5,9l-1.4,3.5l-14-12.5L85.4,155.1z
					 M102.7,144l-1.4,2.2c-0.9,1.5-1.4,2.4-1.5,2.9c-0.1,0.4-0.1,0.8,0.1,1.2c0.2,0.4,0.5,0.7,0.9,1c0.5,0.3,1,0.4,1.5,0.4
					c0.5-0.1,0.9-0.4,1.3-0.8c0.2-0.2,0.6-1,1.4-2.2l1.4-2.4L102.7,144z M95.8,135.7l15.1,9.1l-3.9,6.5c-1,1.6-1.8,2.7-2.5,3.3
					c-0.7,0.6-1.5,0.9-2.5,0.9c-1,0-1.9-0.2-2.8-0.8c-1.2-0.7-1.9-1.6-2.2-2.7c-0.3-1.1-0.2-2.4,0.4-3.9c-0.8,0.4-1.5,0.7-2.3,0.9
					c-0.7,0.2-1.9,0.2-3.5,0.3l-4.1,0.1l2.2-3.7l4.6-0.3c1.7-0.1,2.7-0.1,3.2-0.3c0.5-0.1,0.9-0.3,1.2-0.5c0.3-0.3,0.7-0.8,1.1-1.4
					l0.4-0.6l-6.3-3.8L95.8,135.7z M106.7,122.6l13.1,11.9l-8.8,9.8l-2.2-2l6.4-7.1l-2.9-2.6l-5.9,6.6l-2.2-2l5.9-6.6l-3.6-3.2
					l-6.6,7.4l-2.2-2L106.7,122.6z M123.3,114.8l-2.4,2.5c-0.9-0.8-1.8-1.2-2.6-1.2c-0.8,0-1.7,0.4-2.5,1c-0.9,0.8-1.4,1.5-1.5,2.2
					c-0.2,0.8,0,1.4,0.4,1.9c0.3,0.3,0.6,0.5,1,0.6c0.4,0,0.9,0,1.5-0.3c0.4-0.2,1.3-0.6,2.7-1.3c1.8-0.9,3.2-1.3,4.2-1.2
					c1.5,0,2.6,0.6,3.5,1.7c0.6,0.7,0.9,1.5,1,2.4c0.1,0.9-0.1,1.9-0.5,2.8c-0.5,0.9-1.2,1.8-2.3,2.7c-1.7,1.4-3.3,2.1-4.8,2.1
					c-1.5,0-2.8-0.6-3.8-1.9l2.6-2.4c0.7,0.6,1.4,0.9,2,0.9c0.6-0.1,1.3-0.4,2.1-1c0.8-0.7,1.3-1.4,1.4-2.1c0.1-0.4,0-0.8-0.3-1.2
					c-0.3-0.3-0.6-0.5-1.1-0.5c-0.6,0-1.7,0.4-3.3,1.2c-1.6,0.8-2.8,1.3-3.7,1.5c-0.9,0.2-1.8,0.2-2.7-0.1c-0.8-0.3-1.6-0.9-2.3-1.7
					c-0.6-0.8-1-1.7-1.2-2.7c-0.1-1,0.1-2,0.6-3c0.5-1,1.4-2,2.5-3c1.7-1.5,3.3-2.1,4.9-2.1C120.3,112.8,121.8,113.5,123.3,114.8"/>
				<path class="st4" d="M323.5,277.9c10.2-12.6,8.9-33.5-3-44c-2.2,11.2-4.3,22-2.4,33C318.7,271,319.8,275.2,323.5,277.9
					 M325.1,213c1.4,7.7,3,15.4,5.2,22.9c0.9,3,3.8,5.4,6.2,8.5c7.4-15.8,1.2-37.7-12.2-43.7C324.5,205.1,324.4,209.1,325.1,213
					 M320.6,168.6c3.2,11.9,6.4,23.5,14.3,33.1c1.7,2.1,4.2,3.5,6.6,5.4C346.6,192.8,335.2,171.9,320.6,168.6 M328.8,281.1
					c5.9,1.2,10.3-1.1,14.3-4.3c10.7-8.7,15.6-20.7,19.2-34.7C346.1,251.7,335,264.1,328.8,281.1 M322.4,312.6
					c11.8-6.5,20-16.4,26.7-29.3c-18.6,5.3-32.3,15.3-42.9,30.2C311.8,316,316.4,315.9,322.4,312.6 M308.4,264.6
					c-3,8.8-6.1,17.2-8.6,25.8c-1.7,6.2-2.4,12.7,1.6,18.9C316.9,297.7,317.4,273.3,308.4,264.6 M289.6,343.9
					c9-1.4,16.8-5.6,23.9-11.1c4.1-3.2,7.7-6.9,11.5-10.3c-0.3-0.3-0.5-0.6-0.8-1c-18.3,0.1-34.2,6.6-48.6,18.7
					C280.2,343.8,284.7,344.6,289.6,343.9 M246.9,365c5.2,1,10.8,1.4,16,0.8c10.6-1.3,20.2-5.7,29.7-12.4
					c-19.2-4.8-36.7-2.6-53.6,5.5c-0.2,0.4-0.3,0.8-0.5,1.3C241.3,361.8,243.9,364.4,246.9,365 M197.4,367.8
					c2.1,6.5,6.6,9.5,12,11.3c8.2,2.7,16.8,3,25.3,1.8c5.3-0.7,10.6-2.2,15.8-3.3c-0.1-0.4-0.1-0.8-0.2-1.2
					C234.1,366.6,216.5,364.7,197.4,367.8 M130.2,376.9c10.6,3.9,20.5,5.2,30.6,4.4c6.4-0.5,12.8-1.6,18.1-5.8
					c2.5-1.9,4.3-4.2,4.9-7.7C165,364.8,147.4,366.6,130.2,376.9 M89.5,353.8c2.1,1.4,3.8,2.6,5.6,3.5c11.4,6.1,23.2,10.7,36.5,8.5
					c4.5-0.7,8.6-2.3,11-6.7C129.8,351.1,102.9,348.2,89.5,353.8 M105.9,340.2c-14.5-12-30.3-18.6-49.7-18.5
					c9.2,10.5,19.3,17.9,32,21.5C94.2,344.8,100.1,344.9,105.9,340.2 M80.8,309.4c5.8-16.6-2.8-30.2-8.2-44.8
					C62.8,276.9,67,300.9,80.8,309.4 M32.5,283.4c6.5,12.7,14.7,22.6,26.5,29.2c5,2.8,10.4,3.9,16.4,1
					C64.5,298.5,50.9,288.3,32.5,283.4 M40,206.4c7.8-1.2,16.8-19.1,20.7-38C45.6,173.3,34.6,193.7,40,206.4 M44.7,243.3
					c9.9-4.4,12.2-25.7,12.2-42.7C43.5,207.9,37.3,229.9,44.7,243.3 M60.8,234.1c-11.3,9.9-13.5,32-2.5,43.6
					C66.3,271.6,65,249.8,60.8,234.1 M19.3,242.1c1,3.5,1.5,6.1,2.4,8.6c3.8,10.7,8.8,20.7,18.6,27.4c3.6,2.4,7.4,4.1,12.5,2.9
					C46.5,264.1,35.4,251.7,19.3,242.1 M38,238.8c-3.4-15.3-9.8-29-21.7-39.6v10.1c0.3,1.2,0.6,2.5,0.8,3.7
					c1.6,9.2,4.1,18.1,10.1,25.6c2.9,3.6,6.3,6.4,11.4,6.4c0.1-0.7,0.2-1.2,0.2-1.7C38.5,241.8,38.3,240.3,38,238.8 M22.6,158.3
					c-0.8,5.2-1.7,9.6-2,14c-0.5,8.4,0.1,16.8,3.5,24.7c1.9,4.4,4.8,8,9.7,9.7C37.3,189.8,29.7,165.2,22.6,158.3 M37.4,169.2
					c6.3-11.3,6.7-36,0.4-47.3c-6.2,12.2-9.6,24.6-6.8,38.1C31.8,163.8,33.9,167.1,37.4,169.2 M43.4,170.4
					c9.1-1,24.7-18.9,27.4-31.2C55.7,140.9,42.6,155.7,43.4,170.4 M49.6,135.2c9.1-13.6,12.5-28.7,10.7-45
					c-8.7,10-15.4,21-15.2,34.8c0.1,3.5,1.8,7,2.8,10.4C48.4,135.3,49,135.3,49.6,135.2 M54.6,137.7c8.6,1.9,22.8-10.6,33.1-24.7
					C73.8,110.7,55,124.9,54.6,137.7 M88.7,63.9c-9.8,5.9-19.8,18.8-22.4,28.7c-1.1,4.3-1.4,8.6,1.4,12.9
					C79.6,94.1,86.2,80.4,88.7,63.9 M71.7,109.2c16.1,0.5,26.4-9.5,38-17.9C95.5,86.7,77.2,95.2,71.7,109.2 M110,334.8
					c2.1-17.9-9.7-29.1-18.4-42.6C85.5,308.8,94.1,328.5,110,334.8 M145.6,352.4c-2-18.1-16.5-26.2-28.2-37.3
					C113.8,331.1,128.3,350.3,145.6,352.4 M184.4,360.7c-0.5-9.6-20.3-25.3-36-28.9C149.4,348.2,167.2,362.7,184.4,360.7
					 M233.1,331.2c-11.1,5.2-22.1,10.1-30.8,18.9c-2.8,2.8-5.2,6-5.3,10.3C213.3,363.5,233.2,347.4,233.1,331.2 M264.1,315.5
					c-9.1,7.2-18,14.4-24.3,24.2c-2.4,3.8-4.3,7.9-3.1,12.7C254.2,349.2,268.6,329.9,264.1,315.5 M271.6,324.2
					c-0.5,3.3-0.1,6.7-0.1,10.4c14.8-5.5,25.1-25.3,18.8-41.7C283.9,298.5,272.9,316.6,271.6,324.2 M272.3,90.8
					c11,11,30.4,21.7,37,17.6C305.9,96.2,287.3,87.2,272.3,90.8 M314.3,105.1c0.9-3,1.9-6,1.4-8.9c-2.1-14.2-11.3-23.6-22.3-31.8
					C295.4,80.5,301.9,94.1,314.3,105.1 M327.3,138.4c-2-12.9-17.4-27.6-33.9-25.3C303.2,123.7,311.1,136,327.3,138.4 M332.1,135.4
					c9.3-7.5,2.8-31.4-11.3-45.8C319.5,106.7,323,121.7,332.1,135.4 M338.2,170.4c0.4-15.2-12.9-30.1-28.2-31.2
					c2.3,4.1,4.2,8.2,6.8,11.8c3.6,5.1,7.5,10.1,11.7,14.7C330.9,168.5,334.2,170.4,338.2,170.4 M351,158.1
					c1.7-12.8-1.2-24.7-7.7-36.8c-5.8,16.7-5.6,32.3,0.4,48C347.9,166.5,350.3,163.4,351,158.1 M358.3,195.1c4-11.9,3.7-24-0.1-36.1
					c-9.4,14.5-12.8,30.3-10.6,47.8C353.6,204.7,356.5,200.3,358.3,195.1 M365.3,210v-10.9c-13.5,12.3-20,27.9-22.8,45.9
					c4.7-0.1,8.1-1.8,10.3-4.9c3.3-4.6,6.3-9.5,8.4-14.6C363.2,220.7,364,215.2,365.3,210"/>
				<path class="st4" d="M262.9,45.2c10.2,3.9,21.7,14.3,25.7,23.2c1.7,3.8,2.7,7.8,0.8,12.3C276.3,72,267.9,60.3,262.9,45.2
					 M286.2,84.8c-15,3.2-26.3-4.5-38.5-10.6C260.2,67.7,278.7,72.6,286.2,84.8"/>
				<path class="st4" d="M118.7,45.2C108.5,49.1,97,59.5,93,68.4c-1.7,3.8-2.7,7.8-0.8,12.3C105.2,72,113.6,60.3,118.7,45.2
					 M95.3,84.8c15,3.2,26.3-4.5,38.5-10.6C121.3,67.7,102.8,72.6,95.3,84.8"/>
				<path class="st4" d="M148.9,45.2C139,45.4,126,50.7,119.8,57c-2.7,2.7-4.7,5.8-4.5,10.2C129.1,63.9,139.9,56.6,148.9,45.2"/>
				<path class="st4" d="M234.3,45.2c9.9,0.2,22.9,5.5,29.1,11.8c2.7,2.7,4.7,5.8,4.5,10.2C254.1,63.9,243.3,56.6,234.3,45.2"/>
			</g>
		</g>
	</g>
</g>
</svg>
