<?xml version="1.0" encoding="utf-8"?>
<!-- Generator: Adobe Illustrator 21.0.0, SVG Export Plug-In . SVG Version: 6.00 Build 0)  -->
<svg version="1.1" id="Layer_1" xmlns="http://www.w3.org/2000/svg" xmlns:xlink="http://www.w3.org/1999/xlink" x="0px" y="0px"
	 viewBox="0 0 400 400" style="enable-background:new 0 0 400 400;" xml:space="preserve">
<style type="text/css">
	.st0{fill:url(#SVGID_1_);}
</style>
<linearGradient id="SVGID_1_" gradientUnits="userSpaceOnUse" x1="200" y1="379.8528" x2="200" y2="20.1472">
	<stop  offset="0" style="stop-color:#001354"/>
	<stop  offset="1" style="stop-color:#D5425D"/>
</linearGradient>
<path class="st0" d="M318.4,183.1c3.7,0,6.7,3,6.7,6.7c0,3.7-3,6.7-6.7,6.7s-6.7-3-6.7-6.7C311.6,186.1,314.7,183.1,318.4,183.1z
	 M75.4,183.1c3.7,0,6.7,3,6.7,6.7c0,3.7-3,6.7-6.7,6.7c-3.7,0-6.7-3-6.7-6.7C68.7,186.1,71.7,183.1,75.4,183.1z M95.7,203.4
	c3.7,0,6.7,3,6.7,6.7s-3,6.7-6.7,6.7c-3.7,0-6.7-3-6.7-6.7S92,203.4,95.7,203.4z M136.2,203.4c3.7,0,6.7,3,6.7,6.7s-3,6.7-6.7,6.7
	c-3.7,0-6.7-3-6.7-6.7S132.5,203.4,136.2,203.4z M115.9,223.6c3.7,0,6.7,3,6.7,6.7c0,3.7-3,6.7-6.7,6.7c-3.7,0-6.7-3-6.7-6.7
	C109.2,226.6,112.2,223.6,115.9,223.6z M156.4,223.6c3.7,0,6.7,3,6.7,6.7c0,3.7-3,6.7-6.7,6.7s-6.7-3-6.7-6.7
	C149.7,226.6,152.7,223.6,156.4,223.6z M176.7,243.9c3.7,0,6.7,3,6.7,6.7c0,3.7-3,6.7-6.7,6.7c-3.7,0-6.7-3-6.7-6.7
	C169.9,246.9,172.9,243.9,176.7,243.9z M217.2,243.9c3.7,0,6.7,3,6.7,6.7c0,3.7-3,6.7-6.7,6.7c-3.7,0-6.7-3-6.7-6.7
	C210.4,246.9,213.4,243.9,217.2,243.9z M237.4,223.6c3.7,0,6.7,3,6.7,6.7c0,3.7-3,6.7-6.7,6.7s-6.7-3-6.7-6.7
	C230.7,226.6,233.7,223.6,237.4,223.6z M196.9,264.1c3.7,0,6.7,3,6.7,6.7s-3,6.7-6.7,6.7s-6.7-3-6.7-6.7S193.2,264.1,196.9,264.1z
	 M257.7,203.4c3.7,0,6.7,3,6.7,6.7s-3,6.7-6.7,6.7c-3.7,0-6.7-3-6.7-6.7S253.9,203.4,257.7,203.4z M298.2,203.4c3.7,0,6.7,3,6.7,6.7
	s-3,6.7-6.7,6.7c-3.7,0-6.7-3-6.7-6.7S294.4,203.4,298.2,203.4z M277.9,223.6c3.7,0,6.7,3,6.7,6.7c0,3.7-3,6.7-6.7,6.7
	c-3.7,0-6.7-3-6.7-6.7C271.2,226.6,274.2,223.6,277.9,223.6z M322,235.9l63.4-36.2l-65.2-37l65.2-37.2L200,20.1L14.6,125.4
	l65.2,37.2l-65.2,37l65.2,37.2l-65.2,37L200,379.9l185.4-105.9l-65.2-37l0.5-0.3C321.2,236.5,321.6,236.2,322,235.9z M200,35.7
	l158.2,89.8l-51.5,29.5l0,0L200,215.8L41.8,125.5L200,35.7z M89.7,172.6c1.1,2.2,3.4,3.8,6,3.8c1.8,0,3.5-0.7,4.7-1.9l15.3,8.7
	c-3.6,0.2-6.4,3.1-6.4,6.7c0,3.7,3,6.7,6.7,6.7c3.7,0,6.7-3,6.7-6.7c0-1.2-0.4-2.2-0.9-3.2l69.7,39.8c-0.8,1.1-1.3,2.4-1.3,3.8
	c0,3.7,3,6.7,6.7,6.7c3.7,0,6.7-3,6.7-6.7c0-0.3-0.1-0.6-0.2-1l67.8-38.8c0.4,3.3,3.1,6,6.6,6c3.7,0,6.7-3,6.7-6.7
	c0-2.2-1.1-4.1-2.7-5.3l14.9-8.5c0.5,0.1,0.9,0.3,1.4,0.3c3,0,5.4-2,6.3-4.7l2.2-1.2l51.5,29.3l-13.4,7.6c-1.1-2.3-3.4-4-6.1-4
	c-3.7,0-6.7,3-6.7,6.7c0,1.5,0.6,2.7,1.3,3.8l-26.6,15.2l0,0l-43.1,24.6c0.5-1,0.9-2,0.9-3.2c0-3.7-3-6.7-6.7-6.7
	c-3.7,0-6.7,3-6.7,6.7c0,3.6,2.9,6.5,6.5,6.7l-15.3,8.7c-1.2-1.2-2.9-1.9-4.7-1.9c-3.7,0-6.7,3-6.7,6.7c0,0.5,0.2,1,0.3,1.5
	l-31,17.7l-37.2-21.3c-0.9-2.7-3.3-4.7-6.3-4.7c-0.5,0-0.9,0.2-1.4,0.3l-14.9-8.5c1.6-1.2,2.7-3.1,2.7-5.3c0-3.7-3-6.7-6.7-6.7
	c-3.5,0-6.2,2.6-6.6,6l-67.9-38.8c0-0.3,0.2-0.6,0.2-1c0-3.7-3-6.7-6.7-6.7c-1.6,0-3,0.6-4.2,1.6l-9.2-5.2L89.7,172.6z M358.2,273.9
	L200,364.3L41.8,273.9l51.5-29.3L200,305.6l106.6-60.9L358.2,273.9z"/>
</svg>
