<?xml version="1.0" encoding="utf-8"?>
<!-- Generator: Adobe Illustrator 21.0.0, SVG Export Plug-In . SVG Version: 6.00 Build 0)  -->
<svg version="1.1" id="Layer_1" xmlns="http://www.w3.org/2000/svg" xmlns:xlink="http://www.w3.org/1999/xlink" x="0px" y="0px"
	 viewBox="0 0 400 400" style="enable-background:new 0 0 400 400;" xml:space="preserve">
<style type="text/css">
	.st0{fill:url(#SVGID_1_);}
	.st1{fill:url(#SVGID_2_);}
</style>
<g>
	<g>
		<g>
			<linearGradient id="SVGID_1_" gradientUnits="userSpaceOnUse" x1="40.3842" y1="395.9178" x2="372.0739" y2="64.228">
				<stop  offset="0" style="stop-color:#001354"/>
				<stop  offset="1" style="stop-color:#D5425D"/>
			</linearGradient>
			<path class="st0" d="M380.7,106.6c-3.4,0-6.2,2.8-6.2,6.2v243c0,10.3-8.4,18.7-18.7,18.7H206.2v-14.3
				c9.1-3.2,32.7-10.6,56.1-10.6c54.3,0,91.1,12,91.5,12.1c1.9,0.6,4,0.3,5.6-0.9c1.6-1.2,2.6-3.1,2.6-5.1V81.6c0-2.9-2-5.5-4.9-6.1
				c0,0-4.9-1.1-13.2-2.6c-3.4-0.6-6.6,1.6-7.3,5c-0.6,3.4,1.6,6.6,5,7.3c3.2,0.6,5.9,1.1,7.9,1.5v260.8
				c-14.1-3.7-45.5-10.4-87.2-10.4c-27.1,0-53.8,8.9-62.1,11.9c-7.3-3.2-29.5-11.9-56.3-11.9c-42.9,0-78.3,7.1-93.4,10.7V86.5
				c12.4-3.1,49.2-11.1,93.4-11.1c22.7,0,42.2,7.1,49.8,10.3v245.2c0,2.2,1.2,4.3,3.2,5.4c2,1.1,4.4,1.1,6.3-0.1
				c0.6-0.4,62.3-37.2,117.1-55.5c2.5-0.9,4.3-3.2,4.3-5.9V19.3c0-2-1-4-2.7-5.1c-1.7-1.2-3.8-1.4-5.7-0.7
				c-49.8,18.7-100.3,50.1-100.8,50.4c-2.9,1.8-3.8,5.7-2,8.6c1.8,2.9,5.7,3.8,8.6,2c0.5-0.3,44.3-27.6,90.1-46v241.9
				c-42.5,14.8-86.9,38.9-105.9,49.7V81.6c0-2.4-1.3-4.5-3.4-5.6c-1.1-0.5-26.6-13.1-58.9-13.1c-56.3,0-99.6,12.2-101.4,12.7
				c-2.7,0.8-4.5,3.2-4.5,6v274.1c0,2,0.9,3.8,2.5,5c1.1,0.8,2.4,1.3,3.8,1.3c0.6,0,1.1-0.1,1.7-0.2c0.4-0.1,43.5-12.2,98-12.2
				c22.8,0,42.2,7.1,49.8,10.3v14.6H44.2c-10.3,0-18.7-8.4-18.7-18.7v-243c0-3.4-2.8-6.2-6.2-6.2s-6.2,2.8-6.2,6.2v243
				c0,17.2,14,31.2,31.2,31.2h311.5c17.2,0,31.2-14,31.2-31.2v-243C386.9,109.3,384.1,106.6,380.7,106.6z"/>
		</g>
	</g>
	<linearGradient id="SVGID_2_" gradientUnits="userSpaceOnUse" x1="78.7809" y1="293.1861" x2="290.0685" y2="81.8985">
		<stop  offset="0" style="stop-color:#001354"/>
		<stop  offset="1" style="stop-color:#D5425D"/>
	</linearGradient>
	<path class="st1" d="M225.6,190.4c1.1,2.2,3.3,3.4,5.6,3.4c0.9,0,1.9-0.2,2.8-0.7c0.4-0.2,37-18.8,55.1-24.5c3.3-1,5.1-4.5,4.1-7.8
		c-1-3.3-4.5-5.1-7.8-4.1c-19.1,6-55.5,24.5-57,25.3C225.3,183.5,224,187.3,225.6,190.4z M231.2,119c0.9,0,1.9-0.2,2.8-0.7
		c0.4-0.2,37-18.8,55.1-24.5c3.3-1,5.1-4.5,4.1-7.8c-1-3.3-4.5-5.1-7.8-4.1c-19.1,6-55.5,24.5-57,25.3c-3.1,1.6-4.3,5.3-2.7,8.4
		C226.7,117.8,228.9,119,231.2,119z M225.6,153c1.1,2.2,3.3,3.4,5.6,3.4c0.9,0,1.9-0.2,2.8-0.7c0.4-0.2,37-18.8,55.1-24.5
		c3.3-1,5.1-4.5,4.1-7.8c-1-3.3-4.5-5.1-7.8-4.1c-19.1,6-55.5,24.5-57,25.3C225.3,146.2,224,149.9,225.6,153z M225.6,227.7
		c1.1,2.2,3.3,3.4,5.6,3.4c0.9,0,1.9-0.2,2.8-0.7c0.4-0.2,37-18.8,55.1-24.5c3.3-1,5.1-4.5,4.1-7.8c-1-3.3-4.5-5.1-7.8-4.1
		c-19.1,6-55.5,24.5-57,25.3C225.3,220.9,224,224.7,225.6,227.7z M164,128.7c-38.5-9-82.2,2.5-84,3c-3.3,0.9-5.3,4.3-4.4,7.6
		c0.7,2.8,3.3,4.6,6,4.6c0.5,0,1.1-0.1,1.6-0.2c0.4-0.1,42.5-11.2,78-2.9c3.3,0.8,6.7-1.3,7.5-4.6
		C169.5,132.9,167.4,129.5,164,128.7z M164,166.1c-38.5-9-82.2,2.5-84,3c-3.3,0.9-5.3,4.3-4.4,7.6c0.7,2.8,3.3,4.6,6,4.6
		c0.5,0,1.1-0.1,1.6-0.2c0.4-0.1,42.5-11.2,78-2.9c3.3,0.8,6.7-1.3,7.5-4.6C169.5,170.2,167.4,166.9,164,166.1z M225.6,265.1
		c1.1,2.2,3.3,3.4,5.6,3.4c0.9,0,1.9-0.2,2.8-0.7c0.4-0.2,37-18.8,55.1-24.5c3.3-1,5.1-4.5,4.1-7.8c-1-3.3-4.5-5.1-7.8-4.1
		c-19.1,6-55.5,24.5-57,25.3C225.3,258.3,224,262.1,225.6,265.1z M164,203.5c-38.5-9-82.2,2.5-84,3c-3.3,0.9-5.3,4.3-4.4,7.6
		c0.7,2.8,3.3,4.6,6,4.6c0.5,0,1.1-0.1,1.6-0.2c0.4-0.1,42.5-11.2,78-2.9c3.3,0.8,6.7-1.3,7.5-4.6
		C169.5,207.6,167.4,204.3,164,203.5z M164,278.2c-38.5-9-82.2,2.5-84,3c-3.3,0.9-5.3,4.3-4.4,7.6c0.7,2.8,3.3,4.6,6,4.6
		c0.5,0,1.1-0.1,1.6-0.2c0.4-0.1,42.5-11.2,78-2.9c3.3,0.8,6.7-1.3,7.5-4.6C169.5,282.4,167.4,279,164,278.2z M164,240.9
		c-38.5-9-82.2,2.5-84,3c-3.3,0.9-5.3,4.3-4.4,7.6c0.7,2.8,3.3,4.6,6,4.6c0.5,0,1.1-0.1,1.6-0.2c0.4-0.1,42.5-11.2,78-2.9
		c3.3,0.8,6.7-1.3,7.5-4.6C169.5,245,167.4,241.6,164,240.9z"/>
</g>
</svg>
