<?xml version="1.0" encoding="utf-8"?>
<!-- Generator: Adobe Illustrator 21.0.0, SVG Export Plug-In . SVG Version: 6.00 Build 0)  -->
<svg version="1.1" id="Layer_1" xmlns="http://www.w3.org/2000/svg" xmlns:xlink="http://www.w3.org/1999/xlink" x="0px" y="0px"
	 viewBox="0 0 200 200" style="enable-background:new 0 0 200 200;" xml:space="preserve">
<style type="text/css">
	.st0{fill:url(#SVGID_1_);}
	.st1{opacity:0.25;}
	.st2{fill:url(#SVGID_2_);}
	.st3{fill:url(#SVGID_3_);}
	.st4{fill:url(#SVGID_4_);}
	.st5{fill:url(#SVGID_5_);}
	.st6{fill:url(#SVGID_6_);}
	.st7{fill:url(#SVGID_7_);}
	.st8{opacity:0.2;}
	.st9{fill:url(#SVGID_8_);}
	.st10{fill:url(#SVGID_9_);}
	.st11{opacity:0.4;fill:#111111;}
	.st12{fill:url(#SVGID_10_);}
	.st13{fill:url(#SVGID_11_);}
	.st14{opacity:0.5;}
	.st15{fill:#EDEDED;}
	.st16{fill:#FFFFFF;}
	.st17{fill:url(#SVGID_12_);stroke:url(#SVGID_13_);stroke-width:4;stroke-miterlimit:10;}
	.st18{opacity:0.4;fill:none;stroke:#070506;stroke-width:4;stroke-miterlimit:10;}
	.st19{opacity:0.22;clip-path:url(#SVGID_15_);stroke:#070506;stroke-width:4;stroke-miterlimit:10;}
	.st20{opacity:0.4;clip-path:url(#SVGID_17_);}
	.st21{clip-path:url(#SVGID_19_);}
	.st22{opacity:0.4;}
	.st23{clip-path:url(#SVGID_21_);}
	.st24{fill:url(#SVGID_22_);}
	.st25{opacity:0.2;fill:#231F20;}
	.st26{fill:url(#SVGID_23_);}
	.st27{fill:url(#SVGID_24_);}
	.st28{opacity:0.3;clip-path:url(#SVGID_26_);fill:#231F20;}
	.st29{fill:#E2C2A1;}
	.st30{clip-path:url(#SVGID_28_);}
	.st31{fill:#231F20;}
	.st32{clip-path:url(#SVGID_30_);fill:#231F20;}
	.st33{fill:url(#SVGID_31_);}
</style>
<g>
	<g>
		<g>
			<g>
				<linearGradient id="SVGID_1_" gradientUnits="userSpaceOnUse" x1="-718.9421" y1="208.6031" x2="-628.1263" y2="208.6031">
					<stop  offset="0" style="stop-color:#001354"/>
					<stop  offset="1" style="stop-color:#D7435D"/>
				</linearGradient>
				<path class="st0" d="M-684.9,280.9l56.4-97.1c1.3-2.2-0.5-4.9-3.1-4.6l-37.5,5.1l9-47.1c0.3-1.6-1.7-2.5-2.7-1.2l-55.4,73.2
					c-1.6,2.1,0.1,5.2,2.8,4.9l41.4-4.4l-13.6,70C-688.1,281.6-685.8,282.4-684.9,280.9z"/>
				<path class="st1" d="M-701,204.1c-1,0.1-1.7-1-1.2-1.9l41.5-66.3c-0.6-0.5-1.6-0.5-2.2,0.3l-55.4,73.2c-1.6,2.1,0.1,5.2,2.8,4.9
					l41.4-4.4l-13.6,70c-0.2,0.9,0.5,1.6,1.2,1.8l23.2-73.5c1.1-3.4-1.7-6.9-5.3-6.6L-701,204.1z"/>
			</g>
		</g>
		<g>
			<linearGradient id="SVGID_2_" gradientUnits="userSpaceOnUse" x1="-920.973" y1="280.2977" x2="-920.973" y2="139.1937">
				<stop  offset="0" style="stop-color:#001354"/>
				<stop  offset="1" style="stop-color:#D7435D"/>
			</linearGradient>
			<path class="st2" d="M-922.1,167.6c6.7-14.7,21.3-28.4,38.6-28.4c23.5,0,41.3,18.2,43.5,40.9c0,0,1.3,5.8-1.3,16
				c-3.6,13.8-11.5,26.2-22.6,35.5l-56,48.4c-0.4,0.4-1.3,0.4-1.8,0l-56.4-48.4c-11.1-9.3-19.1-21.8-22.6-35.5
				c-2.7-10.2-1.3-16-1.3-16c2.2-22.6,18.2-40.9,41.7-40.9C-943,139.2-928.3,153-922.1,167.6"/>
		</g>
		<g>
			<linearGradient id="SVGID_3_" gradientUnits="userSpaceOnUse" x1="-1190.9014" y1="267.4402" x2="-1272.5499" y2="150.8339">
				<stop  offset="0" style="stop-color:#001354"/>
				<stop  offset="1" style="stop-color:#D7435D"/>
			</linearGradient>
			<path class="st3" d="M-1165.1,177.2l-48.1-4.5l-19.1-44.4c-1.3-3.1-5.7-3.1-7.1,0l-19.1,44.4l-48.1,4.5c-3.4,0.3-4.7,4.5-2.2,6.7
				l36.3,31.9l-10.6,47.1c-0.7,3.3,2.8,5.9,5.7,4.2l41.5-24.7l41.5,24.7c2.9,1.7,6.5-0.9,5.7-4.2l-10.6-47.1l36.3-31.9
				C-1160.4,181.7-1161.8,177.5-1165.1,177.2z"/>
		</g>
		<g>
			<g>
				<g>
					<linearGradient id="SVGID_4_" gradientUnits="userSpaceOnUse" x1="-370.9153" y1="269.6392" x2="-370.9153" y2="232.7305">
						<stop  offset="1" style="stop-color:#001354"/>
						<stop  offset="1" style="stop-color:#D7435D"/>
					</linearGradient>
					<path class="st4" d="M-387.5,232.7v28.4c0,4.7,3.8,8.6,8.6,8.6h16c4.7,0,8.6-3.8,8.6-8.6v-28.4H-387.5z"/>
					<linearGradient id="SVGID_5_" gradientUnits="userSpaceOnUse" x1="-478.6402" y1="269.6392" x2="-478.6402" y2="232.7305">
						<stop  offset="1" style="stop-color:#001354"/>
						<stop  offset="1" style="stop-color:#D7435D"/>
					</linearGradient>
					<path class="st5" d="M-495.2,232.7v28.4c0,4.7,3.8,8.6,8.6,8.6h16c4.7,0,8.6-3.8,8.6-8.6v-28.4H-495.2z"/>
				</g>
				<g>
					<linearGradient id="SVGID_6_" gradientUnits="userSpaceOnUse" x1="-478.6402" y1="232.7305" x2="-478.6402" y2="216.7363">
						<stop  offset="0" style="stop-color:#001354"/>
						<stop  offset="1" style="stop-color:#D7435D"/>
					</linearGradient>
					<path class="st6" d="M-470.6,216.7h-16c-4.7,0-8.6,3.8-8.6,8.6v7.4h33.1v-7.4C-462.1,220.6-465.9,216.7-470.6,216.7z"/>
					<linearGradient id="SVGID_7_" gradientUnits="userSpaceOnUse" x1="-370.9153" y1="232.7305" x2="-370.9153" y2="216.7363">
						<stop  offset="0" style="stop-color:#001354"/>
						<stop  offset="1" style="stop-color:#D7435D"/>
					</linearGradient>
					<path class="st7" d="M-378.9,216.7h16c4.7,0,8.6,3.8,8.6,8.6v7.4h-33.1v-7.4C-387.5,220.6-383.6,216.7-378.9,216.7z"/>
				</g>
				<g class="st8">
					<path d="M-470.6,216.7h-16c-4.7,0-8.6,3.8-8.6,8.6v7.4h33.1v-7.4C-462.1,220.6-465.9,216.7-470.6,216.7z"/>
					<path d="M-378.9,216.7h16c4.7,0,8.6,3.8,8.6,8.6v7.4h-33.1v-7.4C-387.5,220.6-383.6,216.7-378.9,216.7z"/>
				</g>
				<linearGradient id="SVGID_8_" gradientUnits="userSpaceOnUse" x1="-445.2635" y1="151.71" x2="-404.2915" y2="151.71">
					<stop  offset="0" style="stop-color:#001354"/>
					<stop  offset="1" style="stop-color:#D7435D"/>
				</linearGradient>
				<path class="st9" d="M-424.8,172.2c-11.3,0-20.5-9.2-20.5-20.5c0-11.3,9.2-20.5,20.5-20.5c11.3,0,20.5,9.2,20.5,20.5
					C-404.3,163-413.5,172.2-424.8,172.2z M-424.8,139.8L-424.8,139.8c-6.6,0-11.9,5.4-11.9,11.9s5.4,11.9,11.9,11.9
					s11.9-5.4,11.9-11.9S-418.2,139.8-424.8,139.8z"/>
				<linearGradient id="SVGID_9_" gradientUnits="userSpaceOnUse" x1="-424.7775" y1="283.8087" x2="-424.7775" y2="151.71">
					<stop  offset="0" style="stop-color:#001354"/>
					<stop  offset="1" style="stop-color:#D7435D"/>
				</linearGradient>
				<path class="st10" d="M-371.2,275.3c0,4.7-3.8,8.6-8.6,8.6h-90.1c-4.7,0-8.6-3.8-8.6-8.6v-115c0-4.7,3.8-8.6,8.6-8.6h90.1
					c4.7,0,8.6,3.8,8.6,8.6L-371.2,275.3L-371.2,275.3z"/>
				<path class="st11" d="M-371.2,198.9c0,4.7-3.8,8.6-8.6,8.6h-90.1c-4.7,0-8.6-3.8-8.6-8.6v-38.6c0-4.7,3.8-8.6,8.6-8.6h90.1
					c4.7,0,8.6,3.8,8.6,8.6L-371.2,198.9L-371.2,198.9z"/>
				<linearGradient id="SVGID_10_" gradientUnits="userSpaceOnUse" x1="-424.7772" y1="255.4713" x2="-424.7772" y2="232.7305">
					<stop  offset="0" style="stop-color:#001354"/>
					<stop  offset="1" style="stop-color:#D7435D"/>
				</linearGradient>
				<path class="st12" d="M-412.1,232.7h-25.4c-4.7,0-8.6,3.8-8.6,8.6v14.2h42.5v-14.2C-403.5,236.6-407.4,232.7-412.1,232.7z"/>
				<linearGradient id="SVGID_11_" gradientUnits="userSpaceOnUse" x1="-424.7775" y1="283.8087" x2="-424.7775" y2="255.4719">
					<stop  offset="0" style="stop-color:#001354"/>
					<stop  offset="1" style="stop-color:#D7435D"/>
				</linearGradient>
				<polygon class="st13" points="-446,255.5 -446,283.8 -403.5,283.8 -403.5,255.5 				"/>
				<polygon class="st14" points="-462.2,151.7 -462.2,223 -455.7,230.3 -449.3,223 -449.3,151.7 				"/>
				<path class="st15" d="M-448.6,214.8h-14.3c-0.8,0-1.4-0.6-1.4-1.4v-14.3c0-0.8,0.6-1.4,1.4-1.4h14.3c0.8,0,1.4,0.6,1.4,1.4v14.3
					C-447.2,214.2-447.8,214.8-448.6,214.8z M-461.5,211.9L-461.5,211.9h11.5v-11.5h-11.5V211.9z"/>
				<polygon class="st14" points="-400.2,151.7 -400.2,223 -393.8,230.3 -387.4,223 -387.4,151.7 				"/>
				<path class="st15" d="M-386.7,214.8H-401c-0.8,0-1.4-0.6-1.4-1.4v-14.3c0-0.8,0.6-1.4,1.4-1.4h14.3c0.8,0,1.4,0.6,1.4,1.4v14.3
					C-385.2,214.2-385.9,214.8-386.7,214.8z M-399.6,211.9L-399.6,211.9h11.5v-11.5h-11.5V211.9z"/>
				<polygon class="st14" points="-431.2,248.5 -431.2,272.4 -424.8,279.8 -418.4,272.4 -418.4,248.5 				"/>
				<path class="st15" d="M-417.6,264.3h-14.3c-0.8,0-1.4-0.6-1.4-1.4v-14.3c0-0.8,0.6-1.4,1.4-1.4h14.3c0.8,0,1.4,0.6,1.4,1.4v14.3
					C-416.2,263.6-416.8,264.3-417.6,264.3z M-430.5,261.4L-430.5,261.4h11.5V250h-11.5V261.4z"/>
			</g>
		</g>
		<g>
			<path class="st16" d="M-180.2,252.7c-17.7-28.7-8.7-66.3,20-84s66.3-8.7,84,20c6.1,9.9,9.2,21.3,9.1,32.9
				c-1.1,33.7-28.9,60.4-62.7,60.1h-56.3l5.9-10.1C-176.8,265.8-176.8,258.5-180.2,252.7z"/>
			<linearGradient id="SVGID_12_" gradientUnits="userSpaceOnUse" x1="-198.2604" y1="260.886" x2="-75.4934" y2="190.0064">
				<stop  offset="0" style="stop-color:#001354"/>
				<stop  offset="1" style="stop-color:#D7435D"/>
			</linearGradient>
			<linearGradient id="SVGID_13_" gradientUnits="userSpaceOnUse" x1="-191.2962" y1="220.6793" x2="-65.2145" y2="220.6793">
				<stop  offset="0" style="stop-color:#001354"/>
				<stop  offset="1" style="stop-color:#D7435D"/>
			</linearGradient>
			<path class="st17" d="M-180.2,252.7c-17.7-28.7-8.7-66.3,20-84s66.3-8.7,84,20c6.1,9.9,9.2,21.3,9.1,32.9
				c-1.1,33.7-28.9,60.4-62.7,60.1h-56.3l5.9-10.1C-176.8,265.8-176.8,258.5-180.2,252.7z"/>
			<path class="st15" d="M-120.6,212.1L-120.6,212.1c0,4.4-4.1,7.1-14.6,7.6l-0.4,0.4l1.9,13.5h8.7l0.9-5.1
				c8.9-1.6,16.1-5.9,16.1-16.6l0,0c0-11.1-8.2-17.4-20.2-17.4c-7.8-0.2-15.3,3.1-20.4,9l7.7,8.4c3.2-3.6,7.7-5.7,12.5-5.8
				C-123.4,206.2-120.6,208.4-120.6,212.1z"/>
			<rect x="-136.4" y="240.3" class="st15" width="13.5" height="13.3"/>
			<path class="st18" d="M-180.2,252.7c-17.7-28.7-8.7-66.3,20-84s66.3-8.7,84,20c6.1,9.9,9.2,21.3,9.1,32.9
				c-1.1,33.7-28.9,60.4-62.7,60.1h-56.3l5.9-10.1C-176.8,265.8-176.8,258.5-180.2,252.7z"/>
			<g>
				<defs>
					<path id="SVGID_14_" d="M-73.2,169.3c-30.3,52.4-116.2,100.4-116.2,100.4l-6.4,21.1l101.4,1.1l40.7-54.3L-73.2,169.3z"/>
				</defs>
				<clipPath id="SVGID_15_">
					<use xlink:href="#SVGID_14_"  style="overflow:visible;"/>
				</clipPath>
				<path class="st19" d="M-180.2,252.7c-17.7-28.7-8.7-66.3,20-84s66.3-8.7,84,20c6.1,9.9,9.2,21.3,9.1,32.9
					c-1.1,33.7-28.9,60.4-62.7,60.1h-56.3l5.9-10.1C-176.8,265.8-176.8,258.5-180.2,252.7z"/>
			</g>
		</g>
		<g class="st8">
			<defs>
				<path id="SVGID_16_" class="st8" d="M-839.6,146.6c-51,91.6-138.1,110.8-138.1,110.8L-921,300l99.9-92.1L-839.6,146.6z"/>
			</defs>
			<clipPath id="SVGID_17_">
				<use xlink:href="#SVGID_16_"  style="overflow:visible;"/>
			</clipPath>
			<g class="st20">
				<path d="M-922.1,167.6c6.7-14.7,21.3-28.4,38.6-28.4c23.5,0,41.3,18.2,43.5,40.9c0,0,1.3,5.8-1.3,16
					c-3.6,13.8-11.5,26.2-22.6,35.5l-56,48.4c-0.4,0.4-1.3,0.4-1.8,0l-56.4-48.4c-11.1-9.3-19.1-21.8-22.6-35.5
					c-2.7-10.2-1.3-16-1.3-16c2.2-22.6,18.2-40.9,41.7-40.9C-943,139.2-928.3,153-922.1,167.6"/>
			</g>
		</g>
		<g class="st8">
			<defs>
				<path id="SVGID_18_" class="st8" d="M-367.4,141.4c-10.1,78.9-133.9,122.8-133.9,122.8l22.9,22h126.1V177.5L-367.4,141.4z"/>
			</defs>
			<clipPath id="SVGID_19_">
				<use xlink:href="#SVGID_18_"  style="overflow:visible;"/>
			</clipPath>
			<g class="st21">
				<g>
					<g>
						<path d="M-387.5,232.7v28.4c0,4.7,3.8,8.6,8.6,8.6h16c4.7,0,8.6-3.8,8.6-8.6v-28.4H-387.5z"/>
						<path d="M-495.2,232.7v28.4c0,4.7,3.8,8.6,8.6,8.6h16c4.7,0,8.6-3.8,8.6-8.6v-28.4H-495.2z"/>
					</g>
					<g>
						<path d="M-470.6,216.7h-16c-4.7,0-8.6,3.8-8.6,8.6v7.4h33.1v-7.4C-462.1,220.6-465.9,216.7-470.6,216.7z"/>
						<path d="M-378.9,216.7h16c4.7,0,8.6,3.8,8.6,8.6v7.4h-33.1v-7.4C-387.5,220.6-383.6,216.7-378.9,216.7z"/>
					</g>
					<g class="st8">
						<path d="M-470.6,216.7h-16c-4.7,0-8.6,3.8-8.6,8.6v7.4h33.1v-7.4C-462.1,220.6-465.9,216.7-470.6,216.7z"/>
						<path d="M-378.9,216.7h16c4.7,0,8.6,3.8,8.6,8.6v7.4h-33.1v-7.4C-387.5,220.6-383.6,216.7-378.9,216.7z"/>
					</g>
					<path d="M-424.8,172.2c-11.3,0-20.5-9.2-20.5-20.5c0-11.3,9.2-20.5,20.5-20.5c11.3,0,20.5,9.2,20.5,20.5
						C-404.3,163-413.5,172.2-424.8,172.2z M-424.8,139.8L-424.8,139.8c-6.6,0-11.9,5.4-11.9,11.9s5.4,11.9,11.9,11.9
						s11.9-5.4,11.9-11.9S-418.2,139.8-424.8,139.8z"/>
					<path d="M-371.2,275.3c0,4.7-3.8,8.6-8.6,8.6h-90.1c-4.7,0-8.6-3.8-8.6-8.6v-115c0-4.7,3.8-8.6,8.6-8.6h90.1
						c4.7,0,8.6,3.8,8.6,8.6L-371.2,275.3L-371.2,275.3z"/>
					<path class="st22" d="M-371.2,198.9c0,4.7-3.8,8.6-8.6,8.6h-90.1c-4.7,0-8.6-3.8-8.6-8.6v-38.6c0-4.7,3.8-8.6,8.6-8.6h90.1
						c4.7,0,8.6,3.8,8.6,8.6L-371.2,198.9L-371.2,198.9z"/>
					<path d="M-412.1,232.7h-25.4c-4.7,0-8.6,3.8-8.6,8.6v14.2h42.5v-14.2C-403.5,236.6-407.4,232.7-412.1,232.7z"/>
					<polygon points="-446,255.5 -446,283.8 -403.5,283.8 -403.5,255.5 					"/>
					<polygon class="st14" points="-462.2,151.7 -462.2,223 -455.7,230.3 -449.3,223 -449.3,151.7 					"/>
					<path d="M-448.6,214.8h-14.3c-0.8,0-1.4-0.6-1.4-1.4v-14.3c0-0.8,0.6-1.4,1.4-1.4h14.3c0.8,0,1.4,0.6,1.4,1.4v14.3
						C-447.2,214.2-447.8,214.8-448.6,214.8z M-461.5,211.9L-461.5,211.9h11.5v-11.5h-11.5V211.9z"/>
					<polygon class="st14" points="-400.2,151.7 -400.2,223 -393.8,230.3 -387.4,223 -387.4,151.7 					"/>
					<path d="M-386.7,214.8H-401c-0.8,0-1.4-0.6-1.4-1.4v-14.3c0-0.8,0.6-1.4,1.4-1.4h14.3c0.8,0,1.4,0.6,1.4,1.4v14.3
						C-385.2,214.2-385.9,214.8-386.7,214.8z M-399.6,211.9L-399.6,211.9h11.5v-11.5h-11.5V211.9z"/>
					<polygon class="st14" points="-431.2,248.5 -431.2,272.4 -424.8,279.8 -418.4,272.4 -418.4,248.5 					"/>
					<path d="M-417.6,264.3h-14.3c-0.8,0-1.4-0.6-1.4-1.4v-14.3c0-0.8,0.6-1.4,1.4-1.4h14.3c0.8,0,1.4,0.6,1.4,1.4v14.3
						C-416.2,263.6-416.8,264.3-417.6,264.3z M-430.5,261.4L-430.5,261.4h11.5V250h-11.5V261.4z"/>
				</g>
			</g>
		</g>
	</g>
	<g class="st8">
		<defs>
			<path id="SVGID_20_" class="st8" d="M-1287.7,242.7c0,0,87.7-27.2,103.4-98.8v25.9l26.4,4.2v16l-33.6,27.7l7.2,54.6l-51.7-16.8
				l-51.7,21.1V242.7z"/>
		</defs>
		<clipPath id="SVGID_21_">
			<use xlink:href="#SVGID_20_"  style="overflow:visible;"/>
		</clipPath>
		<g class="st23">
			<path d="M-1165.1,177.2l-48.2-4.5l-19.1-44.4c-1.3-3.1-5.8-3.1-7.1,0l-19.1,44.4l-48.2,4.5c-3.4,0.3-4.7,4.5-2.2,6.7l36.4,31.9
				l-10.6,47.2c-0.7,3.3,2.8,5.9,5.7,4.2l41.6-24.7l41.6,24.7c2.9,1.7,6.5-0.9,5.7-4.2l-10.6-47.2l36.4-31.9
				C-1160.4,181.7-1161.7,177.5-1165.1,177.2z"/>
		</g>
	</g>
</g>
<g>
	<linearGradient id="SVGID_22_" gradientUnits="userSpaceOnUse" x1="152.5666" y1="139.0508" x2="152.5666" y2="113.1831">
		<stop  offset="0" style="stop-color:#001354"/>
		<stop  offset="1" style="stop-color:#D7435D"/>
	</linearGradient>
	<path class="st24" d="M147.8,138.5c1.4,0.6,2.7,0.5,2.7,0.5s2.7-0.5,5.8-11.4c3.1-10.9-1.9-12.8-4.5-14.2c-0.3-0.1-0.5-0.3-0.8-0.3
		c0.3,2.3,0.4,4.8,0.4,7.2C151.4,126.8,150.1,132.8,147.8,138.5z"/>
	<path class="st25" d="M147.8,138.5c1.4,0.6,2.7,0.5,2.7,0.5s2.7-0.5,5.8-11.4c3.1-10.9-1.9-12.8-4.5-14.2c-0.3-0.1-0.5-0.3-0.8-0.3
		c0.3,2.3,0.4,4.8,0.4,7.2C151.4,126.8,150.1,132.8,147.8,138.5z"/>
	<path class="st25" d="M147.8,138.5c1.4,0.6,2.7,0.5,2.7,0.5s2.7-0.5,5.8-11.4c3.1-10.9-1.9-12.8-4.5-14.2c-0.3-0.1-0.5-0.3-0.8-0.3
		c0.3,2.3,0.4,4.8,0.4,7.2C151.4,126.8,150.1,132.8,147.8,138.5z"/>
	<linearGradient id="SVGID_23_" gradientUnits="userSpaceOnUse" x1="47.8611" y1="139.2469" x2="47.8611" y2="112.9245">
		<stop  offset="0" style="stop-color:#001354"/>
		<stop  offset="1" style="stop-color:#D7435D"/>
	</linearGradient>
	<path class="st26" d="M50.2,117.3c-0.4-1.4-0.6-2.8-1-4.4c-0.1,0-0.4,0.1-0.5,0.1c-2.6,1.2-7.6,2.8-5.4,14.1s4.7,12,4.7,12
		s3.5,0.8,5.2-2.6c-1.8-5.2-2.8-10.6-2.8-16.3C50.1,119.3,50.1,118.2,50.2,117.3z"/>
	<path class="st25" d="M50.2,117.3c-0.4-1.4-0.6-2.8-1-4.4c-0.1,0-0.4,0.1-0.5,0.1c-2.6,1.2-7.6,2.8-5.4,14.1s4.7,12,4.7,12
		s3.5,0.8,5.2-2.6c-1.8-5.2-2.8-10.6-2.8-16.3C50.1,119.3,50.1,118.2,50.2,117.3z"/>
	<path class="st25" d="M50.2,117.3c-0.4-1.4-0.6-2.8-1-4.4c-0.1,0-0.4,0.1-0.5,0.1c-2.6,1.2-7.6,2.8-5.4,14.1s4.7,12,4.7,12
		s3.5,0.8,5.2-2.6c-1.8-5.2-2.8-10.6-2.8-16.3C50.1,119.3,50.1,118.2,50.2,117.3z"/>
	<linearGradient id="SVGID_24_" gradientUnits="userSpaceOnUse" x1="100.751" y1="179.6442" x2="100.751" y2="74.4269">
		<stop  offset="0" style="stop-color:#001354"/>
		<stop  offset="1" style="stop-color:#D7435D"/>
	</linearGradient>
	<path class="st27" d="M100.8,179.6c6.6-0.3,16.9-5.2,26.5-13.3c8.4-7.1,16.2-16.7,20.6-27.8c2.2-5.7,3.6-11.8,3.6-18.2
		c0-2.5-0.1-4.8-0.4-7.2c0,0,0,0.4,0,0c-0.9,2.1-1.8,1.8-1.8,1.8s-4.2-2.8-5.3-9c-0.2-1.1-0.2-2.4-0.2-3.8c0-0.5,0.1-1,0.1-1.5
		c0-6.8-1.8-10.8-3-16.4c-1.4-2.2-3.1-4.4-4.8-6.3c-3.9,0.4-10,3.9-16.7,5c-10.6,1.9-29.1,0.3-38.8-6.5C70.8,69.6,64,82.8,64,82.8
		c-9.1,2.7-7.9,25.6-8.5,27.7c-1.8,6.5-2.1,8.3-2.1,8.3l-0.5,9.6c-0.3-1.4-1.4-5.6-2.7-11.1c0,1-0.1,2.1-0.1,3.1
		c0,5.7,1,11.1,2.8,16.3c4.4,12.7,13.4,23.8,22.9,31.5c3.7,3.1,7.6,5.6,11.2,7.5C92.3,178.3,97.1,179.8,100.8,179.6L100.8,179.6z"/>
	<g>
		<defs>
			<rect id="SVGID_25_" x="52" y="74.4" width="96.5" height="41.5"/>
		</defs>
		<clipPath id="SVGID_26_">
			<use xlink:href="#SVGID_25_"  style="overflow:visible;"/>
		</clipPath>
		<path class="st28" d="M55.6,143.2c0,0-3.4-49.4,10-54.4c0,0,2.6-9.1,15-4.1c12.4,4.9,18.7,7.5,40.5,2.8s17.8,0.6,20.2,5.8
			c2.3,5.2,2.3,11.9,2.6,18c0.1,6.1,3.1,17.8,2.2,24.6c0,0,7.6-10.7,7.8-40.6c0-29.9,2.1-28.8,2.1-28.8s-13.3-10-13.7-19.4
			c-0.4-9.4-16.4-10.1-16.4-10.1s-11.4-6.9-9.8-11.9c0,0-61.7,3.6-59.2,40.5C56.7,65.5,30,72.7,55.6,143.2L55.6,143.2z"/>
	</g>
	<path class="st29" d="M136,77.8c1.7,1.9,3.4,4.1,4.8,6.3c-0.3-0.9-0.4-1.9-0.6-3C139.8,78.4,138.2,77.5,136,77.8z"/>
</g>
<g class="st8">
	<defs>
		<path id="SVGID_27_" class="st8" d="M29.5,161.1c0,0,113.5-27,142.5-92v133.1H46L29.5,161.1z"/>
	</defs>
	<clipPath id="SVGID_28_">
		<use xlink:href="#SVGID_27_"  style="overflow:visible;"/>
	</clipPath>
	<g class="st30">
		<path class="st31" d="M147.8,138.5c1.4,0.6,2.7,0.5,2.7,0.5s2.7-0.5,5.8-11.4c3.1-10.9-1.9-12.8-4.5-14.2
			c-0.3-0.1-0.5-0.3-0.8-0.3c0.3,2.3,0.4,4.8,0.4,7.2C151.4,126.8,150.1,132.8,147.8,138.5z"/>
		<path class="st31" d="M147.8,138.5c1.4,0.6,2.7,0.5,2.7,0.5s2.7-0.5,5.8-11.4c3.1-10.9-1.9-12.8-4.5-14.2
			c-0.3-0.1-0.5-0.3-0.8-0.3c0.3,2.3,0.4,4.8,0.4,7.2C151.4,126.8,150.1,132.8,147.8,138.5z"/>
		<path class="st31" d="M147.8,138.5c1.4,0.6,2.7,0.5,2.7,0.5s2.7-0.5,5.8-11.4c3.1-10.9-1.9-12.8-4.5-14.2
			c-0.3-0.1-0.5-0.3-0.8-0.3c0.3,2.3,0.4,4.8,0.4,7.2C151.4,126.8,150.1,132.8,147.8,138.5z"/>
		<path class="st31" d="M50.2,117.3c-0.4-1.4-0.6-2.8-1-4.4c-0.1,0-0.4,0.1-0.5,0.1c-2.6,1.2-7.6,2.8-5.4,14.1s4.7,12,4.7,12
			s3.5,0.8,5.2-2.6c-1.8-5.2-2.8-10.6-2.8-16.3C50.1,119.3,50.1,118.2,50.2,117.3z"/>
		<path class="st31" d="M50.2,117.3c-0.4-1.4-0.6-2.8-1-4.4c-0.1,0-0.4,0.1-0.5,0.1c-2.6,1.2-7.6,2.8-5.4,14.1s4.7,12,4.7,12
			s3.5,0.8,5.2-2.6c-1.8-5.2-2.8-10.6-2.8-16.3C50.1,119.3,50.1,118.2,50.2,117.3z"/>
		<path class="st31" d="M50.2,117.3c-0.4-1.4-0.6-2.8-1-4.4c-0.1,0-0.4,0.1-0.5,0.1c-2.6,1.2-7.6,2.8-5.4,14.1s4.7,12,4.7,12
			s3.5,0.8,5.2-2.6c-1.8-5.2-2.8-10.6-2.8-16.3C50.1,119.3,50.1,118.2,50.2,117.3z"/>
		<path class="st31" d="M100.8,179.6c6.6-0.3,16.9-5.2,26.5-13.3c8.4-7.1,16.2-16.7,20.6-27.8c2.2-5.7,3.6-11.8,3.6-18.2
			c0-2.5-0.1-4.8-0.4-7.2c0,0,0,0.4,0,0c-0.9,2.1-1.8,1.8-1.8,1.8s-4.2-2.8-5.3-9c-0.2-1.1-0.2-2.4-0.2-3.8c0-0.5,0.1-1,0.1-1.5
			c0-6.8-1.8-10.8-3-16.4c-1.4-2.2-3.1-4.4-4.8-6.3c-3.9,0.4-10,3.9-16.7,5c-10.6,1.9-29.1,0.3-38.8-6.5C70.8,69.6,64,82.8,64,82.8
			c-9.1,2.7-7.9,25.6-8.5,27.7c-1.8,6.5-2.1,8.3-2.1,8.3l-0.5,9.6c-0.3-1.4-1.4-5.6-2.7-11.1c0,1-0.1,2.1-0.1,3.1
			c0,5.7,1,11.1,2.8,16.3c4.4,12.7,13.4,23.8,22.9,31.5c3.7,3.1,7.6,5.6,11.2,7.5C92.3,178.3,97.1,179.8,100.8,179.6L100.8,179.6z"
			/>
		<g>
			<defs>
				<rect id="SVGID_29_" x="52" y="74.4" width="96.5" height="41.5"/>
			</defs>
			<use xlink:href="#SVGID_29_"  style="overflow:visible;fill:#231F20;"/>
			<clipPath id="SVGID_30_">
				<use xlink:href="#SVGID_29_"  style="overflow:visible;"/>
			</clipPath>
			<path class="st32" d="M55.6,143.2c0,0-3.4-49.4,10-54.4c0,0,2.6-9.1,15-4.1c12.4,4.9,18.7,7.5,40.5,2.8s17.8,0.6,20.2,5.8
				c2.3,5.2,2.3,11.9,2.6,18c0.1,6.1,3.1,17.8,2.2,24.6c0,0,7.6-10.7,7.8-40.6c0-29.9,2.1-28.8,2.1-28.8s-13.3-10-13.7-19.4
				c-0.4-9.4-16.4-10.1-16.4-10.1s-11.4-6.9-9.8-11.9c0,0-61.7,3.6-59.2,40.5C56.7,65.5,30,72.7,55.6,143.2L55.6,143.2z"/>
		</g>
		<path class="st31" d="M136,77.8c1.7,1.9,3.4,4.1,4.8,6.3c-0.3-0.9-0.4-1.9-0.6-3C139.8,78.4,138.2,77.5,136,77.8z"/>
		<path class="st31" d="M55.6,138.5c0,0-3.4-49.4,10-54.4c0,0,2.6-9.1,15-4.1c12.4,4.9,18.7,7.5,40.5,2.8
			c21.7-4.7,17.8,0.6,20.2,5.8c2.3,5.2,2.3,11.9,2.6,18c0.1,6.1,3.1,17.8,2.2,24.6c0,0,7.6-10.7,7.8-40.6c0-29.9,2.1-28.8,2.1-28.8
			s-13.3-10-13.7-19.4c-0.4-9.4-16.4-10.1-16.4-10.1s-11.4-6.9-9.8-11.9c0,0-61.7,3.6-59.2,40.5C56.7,60.8,30,68.1,55.6,138.5
			L55.6,138.5z"/>
		<path class="st31" d="M55.6,138.5c0,0-3.4-49.4,10-54.4c0,0,2.6-9.1,15-4.1c12.4,4.9,18.7,7.5,40.5,2.8
			c21.7-4.7,17.8,0.6,20.2,5.8c2.3,5.2,2.3,11.9,2.6,18c0.1,6.1,3.1,17.8,2.2,24.6c0,0,7.6-10.7,7.8-40.6c0-29.9,2.1-28.8,2.1-28.8
			s-13.3-10-13.7-19.4c-0.4-9.4-16.4-10.1-16.4-10.1s-11.4-6.9-9.8-11.9c0,0-61.7,3.6-59.2,40.5C56.7,60.8,30,68.1,55.6,138.5
			L55.6,138.5z"/>
		<path class="st31" d="M55.6,138.5c0,0-3.4-49.4,10-54.4c0,0,2.6-9.1,15-4.1c12.4,4.9,18.7,7.5,40.5,2.8
			c21.7-4.7,17.8,0.6,20.2,5.8c2.3,5.2,2.3,11.9,2.6,18c0.1,6.1,3.1,17.8,2.2,24.6c0,0,7.6-10.7,7.8-40.6c0-29.9,2.1-28.8,2.1-28.8
			s-13.3-10-13.7-19.4c-0.4-9.4-16.4-10.1-16.4-10.1s-11.4-6.9-9.8-11.9c0,0-61.7,3.6-59.2,40.5C56.7,60.8,30,68.1,55.6,138.5
			L55.6,138.5z"/>
		<path class="st31" d="M55.6,138.5c0,0-3.4-49.4,10-54.4c0,0,2.6-9.1,15-4.1c12.4,4.9,18.7,7.5,40.5,2.8
			c21.7-4.7,17.8,0.6,20.2,5.8c2.3,5.2,2.3,11.9,2.6,18c0.1,6.1,3.1,17.8,2.2,24.6c0,0,7.6-10.7,7.8-40.6c0-29.9,2.1-28.8,2.1-28.8
			s-13.3-10-13.7-19.4c-0.4-9.4-16.4-10.1-16.4-10.1s-11.4-6.9-9.8-11.9c0,0-61.7,3.6-59.2,40.5C56.7,60.8,30,68.1,55.6,138.5
			L55.6,138.5z"/>
		<path class="st31" d="M55.6,138.5c0,0-3.4-49.4,10-54.4c0,0,2.6-9.1,15-4.1c12.4,4.9,18.7,7.5,40.5,2.8
			c21.7-4.7,17.8,0.6,20.2,5.8c2.3,5.2,2.3,11.9,2.6,18c0.1,6.1,3.1,17.8,2.2,24.6c0,0,7.6-10.7,7.8-40.6c0-29.9,2.1-28.8,2.1-28.8
			s-13.3-10-13.7-19.4c-0.4-9.4-16.4-10.1-16.4-10.1s-11.4-6.9-9.8-11.9c0,0-61.7,3.6-59.2,40.5C56.7,60.8,30,68.1,55.6,138.5
			L55.6,138.5z"/>
	</g>
</g>
<linearGradient id="SVGID_31_" gradientUnits="userSpaceOnUse" x1="99.4941" y1="44.2252" x2="99.4941" y2="138.5231">
	<stop  offset="0" style="stop-color:#001354"/>
	<stop  offset="1" style="stop-color:#D7435D"/>
</linearGradient>
<path class="st33" d="M55.6,138.5c0,0-11.9-30.7-11.1-49.2s4-21.8,6.3-24.2c2.3-2.3,5.9-4.4,5.9-4.4s4.7-18.2,45.2-16.5
	c40.5,1.7,47,16.3,47,16.3s6,3.4,5.7,6.7c-0.3,3.3-0.8,32.9-1.5,38.4c-0.7,5.5-4.1,23.5-6.9,25.4c0,0,0.8-1.7-0.2-9
	c-0.7-4.7-1.4-10.8-1.9-17c-0.1-0.6-0.2-3.3-0.2-3.3c-0.3-2.8-0.1-5-0.5-6.6c-1.4-5.7-2.2-10-3.7-12.2s-17.3,9.3-30.5,9.7
	c-13.2,0.3-20,7.1-29.3,4.9S65.6,84.1,65.6,84.1s-5.7,2.1-7.5,11.8C56.3,105.6,54.1,131,55.6,138.5z"/>
<path class="st25" d="M55.6,138.5c0,0-11.9-30.7-11.1-49.2s4-21.8,6.3-24.2c2.3-2.3,5.9-4.4,5.9-4.4s4.7-18.2,45.2-16.5
	c40.5,1.7,47,16.3,47,16.3s6,3.4,5.7,6.7c-0.3,3.3-0.8,32.9-1.5,38.4c-0.7,5.5-4.1,23.5-6.9,25.4c0,0,0.8-1.7-0.2-9
	c-0.7-4.7-1.4-10.8-1.9-17c-0.1-0.6-0.2-3.3-0.2-3.3c-0.3-2.8-0.1-5-0.5-6.6c-1.4-5.7-2.2-10-3.7-12.2s-17.3,9.3-30.5,9.7
	c-13.2,0.3-20,7.1-29.3,4.9S65.6,84.1,65.6,84.1s-5.7,2.1-7.5,11.8C56.3,105.6,54.1,131,55.6,138.5z"/>
<path class="st25" d="M55.6,138.5c0,0-11.9-30.7-11.1-49.2s4-21.8,6.3-24.2c2.3-2.3,5.9-4.4,5.9-4.4s4.7-18.2,45.2-16.5
	c40.5,1.7,47,16.3,47,16.3s6,3.4,5.7,6.7c-0.3,3.3-0.8,32.9-1.5,38.4c-0.7,5.5-4.1,23.5-6.9,25.4c0,0,0.8-1.7-0.2-9
	c-0.7-4.7-1.4-10.8-1.9-17c-0.1-0.6-0.2-3.3-0.2-3.3c-0.3-2.8-0.1-5-0.5-6.6c-1.4-5.7-2.2-10-3.7-12.2s-17.3,9.3-30.5,9.7
	c-13.2,0.3-20,7.1-29.3,4.9S65.6,84.1,65.6,84.1s-5.7,2.1-7.5,11.8C56.3,105.6,54.1,131,55.6,138.5z"/>
<path class="st25" d="M55.6,138.5c0,0-11.9-30.7-11.1-49.2s4-21.8,6.3-24.2c2.3-2.3,5.9-4.4,5.9-4.4s4.7-18.2,45.2-16.5
	c40.5,1.7,47,16.3,47,16.3s6,3.4,5.7,6.7c-0.3,3.3-0.8,32.9-1.5,38.4c-0.7,5.5-4.1,23.5-6.9,25.4c0,0,0.8-1.7-0.2-9
	c-0.7-4.7-1.4-10.8-1.9-17c-0.1-0.6-0.2-3.3-0.2-3.3c-0.3-2.8-0.1-5-0.5-6.6c-1.4-5.7-2.2-10-3.7-12.2s-17.3,9.3-30.5,9.7
	c-13.2,0.3-20,7.1-29.3,4.9S65.6,84.1,65.6,84.1s-5.7,2.1-7.5,11.8C56.3,105.6,54.1,131,55.6,138.5z"/>
<path class="st25" d="M55.6,138.5c0,0-11.9-30.7-11.1-49.2s4-21.8,6.3-24.2c2.3-2.3,5.9-4.4,5.9-4.4s4.7-18.2,45.2-16.5
	c40.5,1.7,47,16.3,47,16.3s6,3.4,5.7,6.7c-0.3,3.3-0.8,32.9-1.5,38.4c-0.7,5.5-4.1,23.5-6.9,25.4c0,0,0.8-1.7-0.2-9
	c-0.7-4.7-1.4-10.8-1.9-17c-0.1-0.6-0.2-3.3-0.2-3.3c-0.3-2.8-0.1-5-0.5-6.6c-1.4-5.7-2.2-10-3.7-12.2s-17.3,9.3-30.5,9.7
	c-13.2,0.3-20,7.1-29.3,4.9S65.6,84.1,65.6,84.1s-5.7,2.1-7.5,11.8C56.3,105.6,54.1,131,55.6,138.5z"/>
<path class="st25" d="M55.6,138.5c0,0-11.9-30.7-11.1-49.2s4-21.8,6.3-24.2c2.3-2.3,5.9-4.4,5.9-4.4s4.7-18.2,45.2-16.5
	c40.5,1.7,47,16.3,47,16.3s6,3.4,5.7,6.7c-0.3,3.3-0.8,32.9-1.5,38.4c-0.7,5.5-4.1,23.5-6.9,25.4c0,0,0.8-1.7-0.2-9
	c-0.7-4.7-1.4-10.8-1.9-17c-0.1-0.6-0.2-3.3-0.2-3.3c-0.3-2.8-0.1-5-0.5-6.6c-1.4-5.7-2.2-10-3.7-12.2s-17.3,9.3-30.5,9.7
	c-13.2,0.3-20,7.1-29.3,4.9S65.6,84.1,65.6,84.1s-5.7,2.1-7.5,11.8C56.3,105.6,54.1,131,55.6,138.5z"/>
<path class="st25" d="M55.6,138.5c0,0-11.9-30.7-11.1-49.2s4-21.8,6.3-24.2c2.3-2.3,5.9-4.4,5.9-4.4s4.7-18.2,45.2-16.5
	c40.5,1.7,47,16.3,47,16.3s6,3.4,5.7,6.7c-0.3,3.3-0.8,32.9-1.5,38.4c-0.7,5.5-4.1,23.5-6.9,25.4c0,0,0.8-1.7-0.2-9
	c-0.7-4.7-1.4-10.8-1.9-17c-0.1-0.6-0.2-3.3-0.2-3.3c-0.3-2.8-0.1-5-0.5-6.6c-1.4-5.7-2.2-10-3.7-12.2s-17.3,9.3-30.5,9.7
	c-13.2,0.3-20,7.1-29.3,4.9S65.6,84.1,65.6,84.1s-5.7,2.1-7.5,11.8C56.3,105.6,54.1,131,55.6,138.5z"/>
<path class="st25" d="M55.6,138.5c0,0-11.9-30.7-11.1-49.2s4-21.8,6.3-24.2c2.3-2.3,5.9-4.4,5.9-4.4s4.7-18.2,45.2-16.5
	c40.5,1.7,47,16.3,47,16.3s6,3.4,5.7,6.7c-0.3,3.3-0.8,32.9-1.5,38.4c-0.7,5.5-4.1,23.5-6.9,25.4c0,0,0.8-1.7-0.2-9
	c-0.7-4.7-1.4-10.8-1.9-17c-0.1-0.6-0.2-3.3-0.2-3.3c-0.3-2.8-0.1-5-0.5-6.6c-1.4-5.7-2.2-10-3.7-12.2s-17.3,9.3-30.5,9.7
	c-13.2,0.3-20,7.1-29.3,4.9S65.6,84.1,65.6,84.1s-5.7,2.1-7.5,11.8C56.3,105.6,54.1,131,55.6,138.5z"/>
</svg>
