<?xml version="1.0" encoding="utf-8"?>
<!-- Generator: Adobe Illustrator 23.1.0, SVG Export Plug-In . SVG Version: 6.00 Build 0)  -->
<svg version="1.1" id="Layer_1" xmlns="http://www.w3.org/2000/svg" xmlns:xlink="http://www.w3.org/1999/xlink" x="0px" y="0px"
	 viewBox="0 0 330.6 330.6" style="enable-background:new 0 0 330.6 330.6;" xml:space="preserve">
<style type="text/css">
	.st0{clip-path:url(#SVGID_2_);fill:#0B87D6;}
	.st1{fill:none;stroke:#0B87D6;stroke-width:5;stroke-miterlimit:10;}
</style>
<g>
	<g>
		<g>
			<defs>
				<path id="SVGID_1_" d="M238.5,275.2H93.6c-21.1,0-38.2-17.2-38.2-38.2V92.1c0-21.1,17.2-38.2,38.2-38.2h144.9
					c21.1,0,38.2,17.2,38.2,38.2V237C276.8,257.9,259.6,275.2,238.5,275.2z"/>
			</defs>
			<clipPath id="SVGID_2_">
				<use xlink:href="#SVGID_1_"  style="overflow:visible;"/>
			</clipPath>
			<path class="st0" d="M222.7,133.8c-3.8-13.2-12.2-21.9-25.7-25.2c13.1-7.2,26.1-14.3,39.2-21.6c2.7-1.5,5.3-1.6,7.5,0.8
				c2.1,2.1,2,4.6,0.7,7C237.2,107.7,231.1,121.3,222.7,133.8z M312.5,138.6c0,66-53.5,119.5-119.5,119.5S73.5,204.6,73.5,138.6
				S127,19.1,192.9,19.1S312.5,72.5,312.5,138.6z M192.9,48.5c-49.8,0-90.1,40.3-90.1,90.1s40.3,90.1,90.1,90.1s90.1-40.3,90.1-90.1
				S242.7,48.5,192.9,48.5z M108.2,125.9c0,0-2.9,14.4,0,25.5c0,0,33.6-4.4,33.6-12.1C141.8,131.3,108.2,125.9,108.2,125.9z
				 M179.5,223.9c0,0,14.4,2.9,25.5,0c0,0-4.4-33.6-12.1-33.6S179.5,223.9,179.5,223.9z M205.1,53.7c0,0-14.4-2.9-25.5,0
				c0,0,4.4,33.6,12.1,33.6C199.6,87.2,205.1,53.7,205.1,53.7z M278.3,147.3c0,0,2.2-14.5-1.3-25.5c0,0-33.3,6-32.9,13.9
				C244.6,143.6,278.3,147.3,278.3,147.3z M223.2,138.6c0,16.7-13.6,30.3-30.3,30.3s-30.3-13.5-30.3-30.3s13.6-30.3,30.3-30.3
				S223.2,121.9,223.2,138.6z M192.9,123.3c-8.4,0-15.3,6.9-15.3,15.3c0,8.4,6.9,15.3,15.3,15.3s15.3-6.9,15.3-15.3
				C208.2,130.1,201.4,123.3,192.9,123.3z M164.6,142.6c3.8,13.2,12.2,21.9,25.7,25.2c-13.1,7.2-26.1,14.3-39.2,21.6
				c-2.7,1.5-5.3,1.6-7.5-0.8c-2.1-2.1-2-4.6-0.7-7C150.1,168.8,156.3,155.1,164.6,142.6z"/>
		</g>
	</g>
	<path class="st1" d="M237,276.8H92.1c-21.1,0-38.2-17.2-38.2-38.2V93.6c0-21.1,17.2-38.2,38.2-38.2H237c21.1,0,38.2,17.2,38.2,38.2
		v144.9C275.2,259.5,258,276.8,237,276.8z"/>
</g>
</svg>
