<?xml version="1.0" encoding="utf-8"?>
<!-- Generator: Adobe Illustrator 23.1.0, SVG Export Plug-In . SVG Version: 6.00 Build 0)  -->
<svg version="1.1" id="Layer_1" xmlns="http://www.w3.org/2000/svg" xmlns:xlink="http://www.w3.org/1999/xlink" x="0px" y="0px"
	 viewBox="0 0 330.6 330.6" style="enable-background:new 0 0 330.6 330.6;" xml:space="preserve">
<style type="text/css">
	.st0{fill:#61C7D8;stroke:#FFFFFF;stroke-width:4;stroke-miterlimit:10;}
</style>
<g>
	<circle class="st0" cx="127.3" cy="249.8" r="15.6"/>
	<circle class="st0" cx="127.9" cy="214.6" r="16.1"/>
	<circle class="st0" cx="126.6" cy="178.9" r="17.3"/>
	<circle class="st0" cx="218.1" cy="89.2" r="18.8"/>
	<circle class="st0" cx="187.1" cy="106.9" r="18.8"/>
	<circle class="st0" cx="158.4" cy="122.5" r="18.8"/>
	<circle class="st0" cx="127.4" cy="142.3" r="19"/>
	<circle class="st0" cx="251.5" cy="216.1" r="19"/>
	<circle class="st0" cx="220.2" cy="234" r="19"/>
	<circle class="st0" cx="191" cy="252" r="19"/>
	<circle class="st0" cx="159.7" cy="269.9" r="19"/>
	<circle class="st0" cx="251" cy="180.8" r="19.5"/>
	<circle class="st0" cx="218.9" cy="199.1" r="19.5"/>
	<circle class="st0" cx="189.1" cy="217.5" r="19.5"/>
	<circle class="st0" cx="157" cy="235.8" r="19.5"/>
	<circle class="st0" cx="253.7" cy="143.2" r="20"/>
	<circle class="st0" cx="220.9" cy="162" r="20"/>
	<circle class="st0" cx="190.3" cy="180.8" r="20"/>
	<circle class="st0" cx="157.5" cy="199.5" r="20"/>
	<circle class="st0" cx="254.5" cy="106.6" r="20.5"/>
	<circle class="st0" cx="220.8" cy="125.9" r="20.5"/>
	<circle class="st0" cx="189.5" cy="142.9" r="20.5"/>
	<circle class="st0" cx="158" cy="162.2" r="20.5"/>
	<circle class="st0" cx="189.7" cy="69.7" r="15"/>
	<circle class="st0" cx="158.3" cy="88.3" r="15"/>
	<circle class="st0" cx="126.3" cy="107.5" r="15"/>
	<circle class="st0" cx="96.5" cy="126.1" r="15"/>
	<circle class="st0" cx="66.1" cy="106" r="10.5"/>
	<circle class="st0" cx="97.5" cy="88.1" r="10.5"/>
	<circle class="st0" cx="126.6" cy="70.1" r="10.5"/>
	<circle class="st0" cx="157.9" cy="52.2" r="10.5"/>
	<circle class="st0" cx="97.1" cy="232.5" r="11.7"/>
	<circle class="st0" cx="96.7" cy="196" r="12.3"/>
	<circle class="st0" cx="97" cy="160.2" r="14.6"/>
	<circle class="st0" cx="65.7" cy="142.3" r="10.1"/>
	<circle class="st0" cx="64.5" cy="178.1" r="9"/>
	<circle class="st0" cx="65.7" cy="213.9" r="7.8"/>
</g>
</svg>
