<?xml version="1.0" encoding="utf-8"?>
<!-- Generator: Adobe Illustrator 21.0.0, SVG Export Plug-In . SVG Version: 6.00 Build 0)  -->
<svg version="1.1" id="Layer_1" xmlns="http://www.w3.org/2000/svg" xmlns:xlink="http://www.w3.org/1999/xlink" x="0px" y="0px"
	 viewBox="0 0 400 400" style="enable-background:new 0 0 400 400;" xml:space="preserve">
<style type="text/css">
	.st0{fill:#5FA052;}
	.st1{fill:#94E086;}
	.st2{fill:#FEFEFE;}
	.st3{fill:none;stroke:#5FA052;stroke-width:5;stroke-linecap:round;stroke-miterlimit:10;}
</style>
<g>
	<g id="rXokqA.tif">
		<g>
			<path class="st0" d="M139.8,180.8c-0.9-14.9-3.7-29.5-5.7-44.2c-2.4-17.2-4.9-34.4-7.1-51.6c-0.6-4.4-0.3-8.9,1-13.3
				c1.8-6.3,5.7-10.3,12.2-11.4c6.7-1.2,12.1,1.2,16,6.5c5.4,7.1,7,15.6,7.5,24.3c0.8,12.5-0.1,25.1,2.1,37.5
				c0.8,4.3,1.6,8.7,4,13.1c0-13.8,0.1-27,0-40.1c-0.2-12.7-1-25.4-0.8-38.1c0.2-9.3,4.8-14.9,11.5-16.1c7.3-1.3,15.2,3.1,19,10.4
				c3.1,5.9,3.8,12.4,3.4,18.8c-1.7,29.6,2.3,59.1,2.4,88.6c0,3,0.1,6.1,0.3,9.1c0.1,1.7-0.6,4.2,2,4.3c2.7,0.2,2.1-2.4,2.2-4
				c0.4-6.3,0.8-12.5,1-18.8c0.7-23.7,4.2-47.1,6.7-70.6c0.5-4.2,1.9-8.4,3.3-12.4c1.8-5.2,4.4-10.4,10.7-10.7
				c6.6-0.4,11.8,2.9,15.1,8.6c3.4,5.8,4.9,12.4,4.7,19.1c-0.4,14.9-1.2,29.7-2,44.6c-1.3,24.9-2.8,49.8-0.1,74.7
				c0.6,5.7,1.8,11.3,3.8,16.7c1.2,3.1,2.6,3.6,4.5,0.5c4.4-7.2,7.8-14.9,10.8-22.8c4.9-13,11.4-25.1,21.7-34.8
				c3.2-3,6.9-5.2,11.2-6.2c7.9-1.8,14.3,3,14.9,11c0.8,11.4-2.7,21.9-7,32.3c-3.7,9-8.7,17.2-13.2,25.8c-3.9,7.5-6.2,15.6-7.4,24
				c-1.5,11-5.2,21.3-11,30.7c-4.7,7.6-9.3,15.3-13.4,23.3c-19.1,37.4-68.8,45.7-101.3,26.9c-23.2-13.4-36.6-33.3-42.3-59.2
				c-4.1-18.6-6.7-37.3-6.2-56.5c0.2-8.7-3.7-16.7-5.9-25c-5.5-21.3-12.4-42.3-15.4-64.2c-0.7-4.8-0.9-9.6,0.1-14.4
				c2.2-10,10.9-13.2,19-6.6c7.4,6.1,9.3,14.9,11.8,23.5c4.7,15.9,8.2,32.2,14.3,47.8c0.3,0.5,0.7,1.1,1,1.6
				C140.4,182.7,140.1,181.8,139.8,180.8z M296.3,211.6c-3-1.3-3.6,0.6-4.3,3c-4.4,16.1-10.7,31.1-23.4,42.7c-1.2,1-2,2.1-1.4,3.7
				c2.4,6.5,3.2,13.3,4.4,20.1c2.4-0.5,3.1-2.2,3.8-3.8c2.7-5.6,5.7-11.4,6.2-17.6c1.3-15.4,6.9-29.1,15-42c1.5-2.4,1.2-4.1-0.5-6
				c2.7,0,4.4-1.1,5.5-3.8c2.5-6.1,5-12.2,6.7-18.6c1.4-5.4,2.2-10.8,1.4-16.4c-0.2-1.5-0.7-3-2.3-3.2c-1.6-0.2-1.8,1.5-2.3,2.5
				c-3.5,8-6.9,16-9.2,24.5C294.7,201.6,293.2,206.6,296.3,211.6z M273.3,221.4c-0.3-3.5,1-7.1-0.2-11.6c-2.8,5.6-4.8,10.5-7.5,15
				c-2.9,4.9-4.9,11-11.7,12.4c-0.6,0.1-1.6,1.4-1.4,2c0.8,3.5,4,4.9,6.6,6.6c2.1,1.4,3.3-0.8,4.3-2.1c3.6-4.6,5.3-10,7.1-15.5
				c0.8-2.3,0.1-5.5,3.1-6.9c0.4,9.6-3,18.1-9.2,24.8c-3.9,4.2-0.7,6.5,0.9,8.3c2.2,2.5,3.7-1.1,5-2.5
				c10.5-10.7,15.5-24.2,19.5-38.2c0.6-2.2,2.1-5.3-2.2-5.4c-3.5-0.1-7.9-4.5-10,2.4C276.3,214.4,276.9,218.7,273.3,221.4z
				 M223.9,325.1c10.6,1.3,24-3.7,30.1-11.4c6.2-7.8,9.4-17.3,14.9-25.5c0.4-0.7,0.4-1.7,0.3-2.6c-0.4-7.4-1.8-14.6-3.7-21.7
				c-0.4-1.6-1.1-3.3-3.3-1.8c-7.1,4.9-15.3,7.8-22.2,13.1c-1.7,1.3-2.4,2.2-0.8,4.3c4.9,6.4,3.8,13.1,0.5,19.7
				c-2.3,4.7-5.5,8.8-8.6,13C228.3,316.1,225.7,320.4,223.9,325.1z M202.3,295.4c0.8-0.2,2.6-0.5,4.3-1.1c9-3.4,16.4-9.5,24.1-15
				c2.7-1.9,2.8-3.3,0.8-5.9c-5.2-6.9-9.3-14.4-10.6-23.2c-1.2-8.1-2.3-8.5-9-3.5c-1.3,1-2.5,2-3.6,3.2c-4.3,4.6-9.6,7.6-15.8,8.6
				c-4.4,0.7-4.4,2.7-3.6,6.3c2,9.7,6.1,18.7,8.4,28.3C197.9,295.7,199.6,295.4,202.3,295.4z M197.7,310.9
				c-0.2,3.4-0.3,6.8-0.6,10.2c-0.2,2.3,0.7,3.2,3,3.3c5.5,0.4,11,1,16.5,1.4c1.5,0.1,3.4,0.6,4.2-1.3c4.4-9.9,12.2-17.6,17.1-27.2
				c2.2-4.4,3.1-9.1,0.9-13.9c-1.6-3.5-3.4-4.9-7.1-1.8c-7.2,5.9-14.5,12.9-23.5,14.5C198.4,297.9,196.3,302.4,197.7,310.9z
				 M220.3,235.4c-0.8-8.3-1.5-14.3-2-20.4c-0.3-3-1.2-4-4.4-2.7c-5.7,2.3-11.1,5-15.9,8.8c-3.3,2.5-6.7,5.1-10.9,5.5
				c-3.5,0.4-4,2.2-3.6,5.1c1.1,7.3,2.2,14.5,3.2,21.8c0.4,2.7,1.6,3.8,4.3,3c5.3-1.4,10.3-3.1,14.2-7.1c2.8-2.8,5.6-5.9,9.4-7
				C219.5,240.8,221.1,238,220.3,235.4z M182.9,215.2c0,0.2,0,1.1,0,2c-0.3,8.5,0.8,9.3,8.4,5c5-2.8,9.7-6.1,14.4-9.3
				c3.4-2.3,9.1-1.6,10.5-5.9c1.3-4.2-1.7-8.6-2.2-13c0-0.2-0.2-0.3-0.2-0.5c-0.4-2.9-1.8-4.2-5-3.8c-4.8,0.6-8.7-1.4-11.5-5.4
				c-1.8-2.6-11.5-4.6-13.8-2.5c-2.2,2-3.8,4.6-5.8,6.8c-0.5,0.6,1.1,3.1,1.8,4.8C182.1,200.2,183.3,207.2,182.9,215.2z
				 M180.2,213.2c0.3-7.1-0.6-14.9-4.6-22c-1.9-3.5-4.9-5.3-8.8-4c-3.7,1.2-7.2,3.2-10.8,4.6c-2.3,0.9-3.1,2.4-3.1,4.9
				c0,4.1,0,8.3-3.5,11.4c-1.2,1-0.7,2.3-0.5,3.5c0.7,4.6,1.6,9.2,2.4,13.8c0.4,2.5,1.3,3.8,4.2,2.7c4.2-1.5,8.8-1.6,13.2-1.9
				C180,225.5,180,225.5,180.2,213.2z M133.2,273.2c2,9.3,4,18.5,5.9,27.8c0.3,1.6,1,2.7,2.9,1.9c8.9-3.4,18.3-4.6,27.7-5.8
				c2.4-0.3,3.2-1.3,1.5-3.5c-6.5-8.5-10.4-18.3-13.2-28.5c-0.5-1.7-1.3-2.7-3.4-2.3c-6.7,1.3-13.2,3.2-19.2,6.5
				C133.9,270.2,132.8,271.2,133.2,273.2z M223,245.3c0.5,10.7,5.2,19.4,11.2,27.6c1.1,1.5,2.2,2.1,3.9,0.6
				c5.9-5,13.3-7.6,19.8-11.7c2-1.3,5.8-1.9,4.7-5.5c-1-3.3-2.2-6.9-7-6.9c-3.2,0-6.5-1.6-7.4-4.5c-2-7.2-6.7-7.1-12.4-5.7
				c-2.9,0.7-6,1-9,1.5C224.1,241.1,222.2,242.2,223,245.3z M173,261.1c-2.6,0.2-6.2,0.6-9.8,0.8c-2.4,0.1-3.2,1-2.5,3.3
				c2.2,6.8,4.7,13.5,7.9,19.9c4.2,8.3,9.5,13.5,19.5,10.4c0.7-0.2,1.4-0.2,2.1-0.1c5.2,0.8,5.1-1.9,3.8-5.6
				c-2.1-6.1-4.3-12.1-6.1-18.3C184.9,260.4,185.1,260.4,173,261.1z M176.9,227.8c-7.5,0.7-14.1,1-20.6,2.6
				c-2.4,0.6-3.9,1.4-3.1,4.3c1.8,7.3,3.6,14.6,5.2,21.9c0.5,2.5,1.7,3.1,4.1,2.8c6-0.7,12.1-1.3,18.2-1.6c3.5-0.2,4-1.6,3.5-4.7
				c-1.2-7-2.3-14.1-3.1-21.2C180.7,228.5,179.4,227.1,176.9,227.8z M147.8,233.1c-6.5,2.5-13.2,5.4-19.2,9.8c-1,0.8-0.8,1.9-0.6,3
				c1.2,6.5,2.4,13,3.6,19.5c0.3,1.8,1.1,2.5,2.9,1.4c6-3.4,12.6-5,19.3-6.1c2.2-0.3,2.5-1.3,2-3.3c-1.8-7.3-3.4-14.6-5.2-21.9
				C150.5,234.2,150.3,232.5,147.8,233.1z M127,240.5c3.6-2,6.4-3.6,9.2-5.2c4.1-2.5,11-2.5,12.5-6.4c1.5-4-1.2-9.7-2-14.6
				c-1.4-8.8-8.3-11.5-15.3-6c-2.3,1.7-4.4,3.7-6.6,5.5c-1.3,1.1-2.1,2.3-1.8,4.2C124.4,225.3,125.6,232.7,127,240.5z M194.8,67
				c0-0.3,0-1,0-1.7c-0.3-7-6-12.3-12.6-11.8c-4.8,0.4-6.1,3.4-5.1,11.9c1,8.5,1.9,17,2.9,25.6c0.2,1.6-1.2,4.4,2.4,3.9
				c3.2-0.5,7.8,2.2,9-3C193.1,83.8,194.3,75.6,194.8,67z M196,155.8c0-2.5,0-4.8,0-7.1c0-1.1,0-2.1-0.1-3.2
				c-0.4-6.8-0.4-6.8-6.9-5.9c-1.8,0.2-3.7,0.8-5.3,0.3c-5.2-1.5-5.1,1.2-5.3,5.2c-0.4,11.1,5.2,21.2,5.1,32.3
				c0,1.4,1.1,1.6,2.3,1.6c2.3,0.1,4.7,0,7,0.2c2,0.1,2.4-0.8,2.4-2.5C195,169.6,196.7,162.7,196,155.8z M237.9,159.6
				c0.6-11.1,0.6-11.1-7.3-12.7c-0.9-0.2-1.6-0.6-2.5-0.9c-6.6-1.7-7.1-1.3-7.2,5.6c-0.2,8.3,1.2,16.7-1,25
				c-0.4,1.4,0.2,2.3,1.9,2.6c3.9,0.6,7.7,1.4,11.4,2.9c1.9,0.8,2.4,0,2.6-1.9C236.5,172.1,237.4,164.2,237.9,159.6z M149.1,87.7
				c0.3,0,0.6,0,0.8,0c0-4.8,0-9.6,0-14.5c0-3.9-1.6-6.6-5.7-7c-4.4-0.5-7.4,1.3-8.3,5.7c-0.8,3.7-1.3,7.3-0.7,11.2
				c1.1,6,2,12,2.7,18c1,8.7,0.9,8.6,9.6,8.2c3-0.1,3.5-1,3.1-3.8C149.9,99.5,149.6,93.6,149.1,87.7z M176.2,305.4
				c-0.6-2.8,0.4-6.9-4.5-6.3c-9.6,1.2-19.1,3-28.3,6.1c-1.4,0.5-3.2,1.1-2.2,2.9c2.3,3.9,4.3,8.8,9.1,10c6.4,1.6,13.1,2.2,19.6,3.2
				c1.4,0.2,2.9,0.4,3.3-1.7C174.1,314.8,175.2,310.1,176.2,305.4z M230.8,209.1c-1.3,0.1-3.6,0.3-5.9,0.5c-3.5,0.2-4.7,1.6-4.1,5.4
				c1,6.7,1.4,13.5,1.8,20.3c0.1,2.9,1,3.8,3.9,3.1c4.7-1.2,9.4-1.9,14.3-2.2c2.5-0.1,3.8-0.9,3.1-4c-1.1-4.9-1.7-9.8-2.4-14.8
				C240.1,208.8,240.2,208.8,230.8,209.1z M216.7,185.6c-4.4,3.9,0.1,7.2,0.3,10.6c0.3,3.7,0.5,8.7,2.8,10.8
				c2.4,2.2,7.1-0.4,10.9-0.6c0.4,0,0.7,0,1.1,0c8.3-0.4,8.3-0.4,6.7-8.8c-0.5-2.8-1.1-5.6-1.6-8.4c-0.2-1-0.3-2-1.2-2.8
				c-4.5-4.3-17.4-5.6-22.4-2.1c-1.7,1.2-3.7,1.1-5.7,0.9c-2-0.2-4-1.1-6.7-0.4C206.1,188.6,211.1,187.7,216.7,185.6z M149.8,151.4
				c-4.5-1.5-4.9,0.8-4.2,4.9c1.6,9.9,5.7,19.3,6.6,29.3c0.1,1.5-0.2,4.5,1.3,4.1c4.4-1.2,8.6-3.4,12.8-5.4c1.3-0.6,0.4-1.8,0-2.8
				c-2.7-6.5-4.2-13.2-4.9-20.2c-0.3-3.3,0.4-7.4-1.3-9.9c-2.2-3.3-6.1,0.8-9.3-0.1C150.5,151.3,150.3,151.4,149.8,151.4z M241,89.7
				c0.4-5.3-0.5-10.5-1.1-15.6c-0.4-3.7-3.2-4.9-6.2-5.7c-3.1-0.8-4.5,1.4-5.8,3.6c-3,5.2-3.4,10.8-2.5,16.6
				c0.6,3.9,1.8,7.8,1.5,11.6c-0.3,3.7,1.1,4.8,4.1,5.3c1.6,0.3,3.1,0.7,4.7,1.1c2.8,0.7,4.2,0,4.5-3.3
				C240.5,98.8,241.3,94.2,241,89.7z M148.2,111.5c-1.3,0.1-2.2,0.3-3.1,0.3c-4.8-0.2-6.4,1.6-5.3,6.6c1.7,7.5,2.7,15.1,3.8,22.6
				c1.2,7.7,4.2,9.4,12,7.2c3.2-0.9,4.1-2.4,3.6-5.8c-1.5-9.5-3.9-18.8-6.9-28C151.4,111.6,150.1,111.1,148.2,111.5z M179.7,117.3
				c-0.2,0-0.4,0-0.6,0c-0.2,3.8-0.4,7.5-0.5,11.3c-0.3,8.9,0.6,9.7,9.6,8.6c0.5-0.1,1.1-0.1,1.6-0.2c3.8-0.6,5.1-2.2,4.5-6.5
				c-1.4-9.7-4.4-19.2-3.9-29.2c0.1-2.3,0.3-4.8-3-3.7c-2.6,0.9-7.5-3.2-7.7,3.1C179.6,106.2,179.7,111.7,179.7,117.3z M226.6,107.4
				c-1.2,10.2-2.3,20.5-3.7,30.7c-0.4,3,1.1,4.5,3.3,5.2c2.6,0.8,5.5,0.8,8.2,1.4c3.5,0.7,4.2-0.9,4.1-4.1
				c-0.3-6.4-0.4-12.8-0.3-19.2C238.4,109.5,238.5,109.5,226.6,107.4z M99,123.4c0.1,1.6-0.2,3.4,0.3,4.8c2.1,5.9,4.7,11.6,6.5,17.6
				c1.3,4,3.6,3.5,6.6,2.8c3.3-0.8,5-2.2,4-6c-1.6-5.9-2.6-11.9-2.3-18c0.1-1.7-0.7-3.1-1.6-4.5c-2.3-3.6-5-7.4-9.6-6.2
				C98.3,115,99.3,119.8,99,123.4z M195,310.1c0.4-12.1,0.4-12.1-11.8-11.7c-1.1,0-2.1,0.1-3.2,0.1c-1.4,0.1-2.5,0.4-1.9,2.2
				c1.4,4.7-0.3,9.2-1.3,13.7c-1.7,7.4-1.7,7.6,6,8.3c14.8,1.3,11.3,1.8,12.2-10C195.1,311.9,195,311,195,310.1z M304,168
				c-7.3,2.2-11.7,6.2-15.1,11.3c-3.7,5.6-5.6,12-7.4,18.3c-2,6.8-1.1,8.1,6.2,8.2c1.9,0,3.9,0.9,4.3-2.3
				C293.6,191.4,298.9,180.4,304,168z M122.3,212.1c4.3-3.3,7.9-6.1,11.7-8.8c1.5-1,1.7-1.8,0.8-3.4c-2.7-4.9-4.1-10.3-4.8-15.8
				c-0.6-5.2-3.5-4.9-7-3.8c-3.6,1.2-8.1,1.5-6,7.6C119.4,195.5,121,203.4,122.3,212.1z M127.9,175.1c-2.6-7.2-5.2-14.4-8-21.6
				c-0.6-1.5-0.5-4.1-2.9-3.7c-2.8,0.5-5.4,1.6-8.1,2.6c-0.3,0.1-0.3,1.3-0.2,1.9c1.9,8,3.8,16,5.7,24c0.3,1.4,0.9,2.3,2.6,1.4
				c2.9-1.6,6-2.3,9.2-2.8C127.4,176.8,127.9,176.4,127.9,175.1z M203.5,340c2.4-0.3,5.6-1,8.8-1.1c6.1-0.1,5.4-5.3,5.8-8.6
				c0.4-3.2-3.4-1.5-5.3-1.9c-4-0.8-8.1-1.1-12.2-1.5c-1.2-0.1-3.2-0.8-3.4,0.4c-0.7,3.8-1.5,7.9-0.8,11.6
				C196.8,341,200.5,339.6,203.5,340z M194,331.1c1.7-4.3-1.1-5.5-5.8-5.3c-2.3,0.1-4.8,0.2-6.9-0.5c-5.8-1.8-7,0.8-7.2,5.9
				c-0.1,2.8,0.8,3.8,3,4.7c4.2,1.6,8.5,2.5,12.9,3.4c2.6,0.6,3.7-0.1,3.7-2.8C193.6,335.1,193.8,333.6,194,331.1z M153.1,76.2
				c-0.3,2.5-0.6,4.9-0.8,7.4c-0.8,7.5,0.1,15,0.9,22.4c0.2,1.5,0.6,2.8,2.5,2.8c1.3,0,2-0.6,2.1-1.9
				C158.2,96.6,158.2,86.1,153.1,76.2z M242,325.9c-6.2,1.2-12.3,2.2-18.5,2.9c-3.5,0.4-3.1,3.9-3.5,6.4c-0.4,2.1,1.5,1.6,2.6,1.2
				C229.6,334,236.6,331.5,242,325.9z M153.2,322.7c5.5,3.6,9.8,6.5,14.2,9.1c1.1,0.6,3.4,3.1,3.8-0.5c0.3-2.4,3.3-6.1-1.1-7.2
				C165.2,323,160,321.6,153.2,322.7z M126.4,272.8c3.2-1.5,3.5-3.9,2.9-6.8c-1.1-5.4-2.1-10.8-3.2-16.2c-0.2-1.2-0.2-3.1-1.5-2.9
				c-1.5,0.2-2.8,1.7-2.5,3.6C123.2,257.9,124,265.5,126.4,272.8z M198.1,132.5c-0.4-6.4-0.7-12.8-1.1-19.2
				c-0.3-4.8-0.7-9.6-1.1-14.4c-0.1-1,0.1-2.4-1.4-2.4c-1.4,0-1.5,1.3-1.5,2.4c-0.1,1.6-0.3,3.2-0.2,4.8
				C193.5,113.5,196,122.9,198.1,132.5z M216.1,179c1.2-0.5,1.4-1.3,1.6-2.2c2.1-10.7-0.3-21.6,1.9-32.3c0.1-0.7-0.2-1.5-1.1-1.6
				c-1.3-0.1-1.3,0.9-1.3,1.7c-0.1,3-0.1,6.1-0.4,9.1C216.1,162,214.9,170.3,216.1,179z M241.3,144.1c0.5,0,1,0,1.6-0.1
				c0.6-10.5,1.1-21,1.7-31.4c0.1-1,0.1-2.4-1.4-2.3c-1.7,0-1.7,1.5-1.8,2.8C240.7,123.4,241,133.7,241.3,144.1z M241.5,149.3
				c-1.1,10-2.3,20.9-3.4,31.8c-0.2,1.8-0.2,4.1,3.4,4.5C241.5,173.1,241.5,160.8,241.5,149.3z M223.4,104.7
				c-3.5,6.4-6,32.6-3.8,35.5C222,128.8,223.2,117.5,223.4,104.7z M136,299.2c-1.8-8.4-3.5-16.9-5.4-25.6
				C126.5,277.1,129.1,290.9,136,299.2z M166.4,172.9c1-8-0.3-15.7-1.6-23.4c-0.2-1.2-0.1-2.8-2-2.3c-1.8,0.5-1.1,1.7-0.7,2.9
				c0.6,1.9,1.6,4,1.3,5.8C162.3,162.1,165.7,167.2,166.4,172.9z M177,160.1c0,5.4-0.1,10.7,0,16.1c0,1.2-0.8,3.3,1.3,3.4
				c1.9,0.1,2.6-1.4,2.5-3.4C180.4,170.7,179.6,165.3,177,160.1z M144.8,171c0.7,6.3,1.3,12.5,2,18.8c0.1,1.2-0.8,3.4,1.4,3.3
				c1.6-0.1,1.8-1.9,1.7-3.4C149.4,183.2,148.2,176.9,144.8,171z M121.5,245.3c3.6-3.9,2.5-15.5-1.4-20.9
				C119.1,231.4,121.2,237.7,121.5,245.3z M243.7,80.9c1.2,8.7-1.7,17.3-0.3,26C244.1,98.2,247.4,89.6,243.7,80.9z M142,204.3
				c2.7,0.9,4.6,2.9,6.5,0.8c2-2.2,1.6-5.3,1.6-8.1c0-0.8-0.7-1.2-1.4-1.3c-1-0.1-0.9,0.9-1.2,1.5
				C146.3,199.8,146.3,203.2,142,204.3z M158.5,122c-0.1-2.9-0.3-5.9-0.4-8.8c-0.1-1.6-1.1-2.1-2.6-1.7c-1.6,0.4-0.9,1.5-0.7,2.5
				C155.5,116.9,156.3,119.7,158.5,122z M246.4,225.5c-1.1,3.1-0.3,5.9,0.5,8.7c0.3,1.3,1.5,1.4,2.6,1c1.2-0.5,0.6-1.4,0.2-2.2
				C248.6,230.5,247.5,228,246.4,225.5z M104.2,152.5c0.9,4.6,1.4,9.4,4.1,13.5C107.5,161.3,107.4,156.4,104.2,152.5z M113.9,186.8
				c-0.5,0.1-1,0.3-1.5,0.4c1.5,5,2.9,9.9,4.4,14.9C116.9,196.7,115.5,191.7,113.9,186.8z M176.7,93.2c1.6-4.1,0.9-8-0.6-11.8
				C175.7,85.4,175.3,89.4,176.7,93.2z M199.1,180.8c0-4.9,0-8.7,0-12.5C198.2,172.1,196.6,175.9,199.1,180.8z M223,94.3
				c-0.7,2.8-1.7,5.7,0.1,8.3C224.8,99.9,224.1,97.1,223,94.3z M110.2,178.3c1.2-3.4,0.3-6.6-2.3-9.5
				C108.7,172,109.4,175.1,110.2,178.3z"/>
			<path class="st1" d="M223.9,325.1c1.8-4.8,4.4-9,7.4-13c3.1-4.2,6.3-8.3,8.6-13c3.3-6.6,4.4-13.3-0.5-19.7
				c-1.6-2-0.9-2.9,0.8-4.3c6.8-5.3,15.1-8.2,22.2-13.1c2.1-1.5,2.8,0.2,3.3,1.8c1.9,7.1,3.2,14.3,3.7,21.7c0.1,0.9,0.1,2-0.3,2.6
				c-5.5,8.2-8.7,17.7-14.9,25.5C247.9,321.4,234.5,326.5,223.9,325.1z"/>
			<path class="st1" d="M202.3,295.4c-2.7,0-4.4,0.3-5-2.3c-2.3-9.6-6.3-18.6-8.4-28.3c-0.7-3.6-0.7-5.6,3.6-6.3
				c6.1-1,11.4-4,15.8-8.6c1.1-1.2,2.4-2.2,3.6-3.2c6.7-5.1,7.8-4.6,9,3.5c1.3,8.8,5.4,16.3,10.6,23.2c2,2.6,1.8,4-0.8,5.9
				c-7.7,5.5-15.1,11.5-24.1,15C205,294.9,203.2,295.2,202.3,295.4z"/>
			<path class="st1" d="M197.7,310.9c-1.4-8.5,0.7-13,10.5-14.8c9-1.6,16.3-8.6,23.5-14.5c3.8-3.1,5.5-1.7,7.1,1.8
				c2.3,4.8,1.3,9.5-0.9,13.9c-4.8,9.6-12.6,17.3-17.1,27.2c-0.9,1.9-2.7,1.5-4.2,1.3c-5.5-0.4-11-1.1-16.5-1.4
				c-2.3-0.2-3.2-1.1-3-3.3C197.4,317.7,197.5,314.3,197.7,310.9z"/>
			<path class="st1" d="M220.3,235.4c0.8,2.6-0.8,5.4-5.7,6.9c-3.8,1.2-6.6,4.2-9.4,7c-3.9,4-9,5.7-14.2,7.1c-2.8,0.7-4-0.4-4.3-3
				c-1-7.3-2.1-14.5-3.2-21.8c-0.4-2.9,0-4.7,3.6-5.1c4.2-0.4,7.6-2.9,10.9-5.5c4.9-3.7,10.2-6.5,15.9-8.8c3.2-1.3,4.1-0.3,4.4,2.7
				C218.8,221.1,219.4,227.1,220.3,235.4z"/>
			<path class="st1" d="M182.9,215.2c0.4-8-0.8-15-3.4-21.8c-0.6-1.7-2.3-4.2-1.8-4.8c2-2.3,3.6-4.9,5.8-6.8c2.3-2.1,12,0,13.8,2.5
				c2.8,4.1,6.7,6,11.5,5.4c3.2-0.4,4.6,0.9,5,3.8c0,0.2,0.2,0.3,0.2,0.5c0.4,4.4,3.5,8.8,2.2,13c-1.4,4.3-7.1,3.6-10.5,5.9
				c-4.7,3.2-9.4,6.5-14.4,9.3c-7.6,4.2-8.7,3.5-8.4-5C183,216.3,182.9,215.4,182.9,215.2z"/>
			<path class="st1" d="M180.2,213.2c-0.2,12.3-0.2,12.3-11.4,13.1c-4.5,0.3-9,0.3-13.2,1.9c-3,1.1-3.8-0.2-4.2-2.7
				c-0.8-4.6-1.6-9.2-2.4-13.8c-0.2-1.2-0.7-2.5,0.5-3.5c3.5-3.1,3.5-7.3,3.5-11.4c0-2.5,0.8-4,3.1-4.9c3.6-1.5,7.1-3.5,10.8-4.6
				c3.8-1.2,6.8,0.5,8.8,4C179.6,198.3,180.5,206,180.2,213.2z"/>
			<path class="st1" d="M133.2,273.2c-0.5-2,0.7-3,2.3-3.8c6-3.3,12.5-5.2,19.2-6.5c2.1-0.4,3,0.5,3.4,2.3
				c2.8,10.2,6.7,20,13.2,28.5c1.6,2.2,0.9,3.2-1.5,3.5c-9.4,1.2-18.8,2.4-27.7,5.8c-2,0.7-2.6-0.4-2.9-1.9
				C137.2,291.7,135.2,282.5,133.2,273.2z"/>
			<path class="st1" d="M223,245.3c-0.9-3.1,1.1-4.2,3.9-4.6c3-0.4,6-0.7,9-1.5c5.7-1.4,10.3-1.5,12.4,5.7c0.8,3,4.1,4.5,7.4,4.5
				c4.8,0,5.9,3.7,7,6.9c1.1,3.5-2.7,4.2-4.7,5.5c-6.5,4.1-13.9,6.6-19.8,11.7c-1.7,1.4-2.7,0.9-3.9-0.6
				C228.2,264.7,223.5,256,223,245.3z"/>
			<path class="st1" d="M173,261.1c12.1-0.7,11.9-0.7,15,10.4c1.7,6.2,3.9,12.2,6.1,18.3c1.3,3.7,1.4,6.4-3.8,5.6
				c-0.7-0.1-1.5-0.1-2.1,0.1c-10,3.1-15.3-2.1-19.5-10.4c-3.2-6.4-5.7-13.1-7.9-19.9c-0.8-2.3,0.1-3.2,2.5-3.3
				C166.8,261.7,170.4,261.3,173,261.1z"/>
			<path class="st1" d="M176.9,227.8c2.6-0.7,3.8,0.7,4.2,4.2c0.7,7.1,1.8,14.2,3.1,21.2c0.6,3.1,0.1,4.6-3.5,4.7
				c-6.1,0.3-12.1,0.9-18.2,1.6c-2.4,0.3-3.6-0.3-4.1-2.8c-1.6-7.3-3.3-14.6-5.2-21.9c-0.7-2.9,0.7-3.7,3.1-4.3
				C162.8,228.8,169.4,228.5,176.9,227.8z"/>
			<path class="st1" d="M147.8,233.1c2.5-0.6,2.7,1.1,3,2.4c1.7,7.3,3.4,14.6,5.2,21.9c0.5,2,0.2,3-2,3.3
				c-6.7,1.1-13.3,2.7-19.3,6.1c-1.9,1.1-2.6,0.3-2.9-1.4c-1.2-6.5-2.4-13-3.6-19.5c-0.2-1.1-0.4-2.2,0.6-3
				C134.6,238.5,141.3,235.7,147.8,233.1z"/>
			<path class="st1" d="M127,240.5c-1.4-7.8-2.7-15.2-4-22.5c-0.3-1.8,0.5-3.1,1.8-4.2c2.2-1.8,4.3-3.8,6.6-5.5
				c7.1-5.5,13.9-2.7,15.3,6c0.8,4.9,3.5,10.5,2,14.6c-1.5,3.9-8.3,3.9-12.5,6.4C133.5,236.9,130.6,238.4,127,240.5z"/>
			<path class="st1" d="M194.8,67c-0.5,8.6-1.7,16.8-3.4,24.8c-1.1,5.3-5.8,2.5-9,3c-3.6,0.6-2.2-2.2-2.4-3.9
				c-1-8.5-1.9-17-2.9-25.6c-1-8.6,0.3-11.6,5.1-11.9c6.7-0.5,12.4,4.8,12.6,11.8C194.9,66,194.8,66.7,194.8,67z"/>
			<path class="st1" d="M196,155.8c0.7,6.9-1,13.8-0.9,20.7c0,1.8-0.4,2.7-2.4,2.5c-2.3-0.2-4.7-0.2-7-0.2c-1.1,0-2.3-0.2-2.3-1.6
				c0.2-11-5.4-21.1-5.1-32.3c0.1-4,0.1-6.7,5.3-5.2c1.6,0.5,3.5-0.1,5.3-0.3c6.5-0.9,6.5-0.9,6.9,5.9c0.1,1.1,0.1,2.1,0.1,3.2
				C196,151,196,153.4,196,155.8z"/>
			<path class="st1" d="M237.9,159.6c-0.5,4.6-1.4,12.6-2.2,20.6c-0.2,1.9-0.7,2.7-2.6,1.9c-3.6-1.6-7.5-2.3-11.4-2.9
				c-1.7-0.3-2.2-1.2-1.9-2.6c2.1-8.3,0.8-16.6,1-25c0.2-6.9,0.6-7.3,7.2-5.6c0.9,0.2,1.6,0.7,2.5,0.9
				C238.5,148.5,238.5,148.5,237.9,159.6z"/>
			<path class="st1" d="M149.1,87.7c0.5,5.9,0.8,11.7,1.6,17.6c0.4,2.8-0.2,3.7-3.1,3.8c-8.7,0.4-8.5,0.6-9.6-8.2
				c-0.7-6-1.7-12-2.7-18c-0.7-3.8-0.1-7.5,0.7-11.2c0.9-4.4,3.9-6.2,8.3-5.7c4.2,0.5,5.7,3.1,5.7,7c0,4.8,0,9.6,0,14.5
				C149.7,87.7,149.4,87.7,149.1,87.7z"/>
			<path class="st1" d="M176.2,305.4c-1,4.7-2,9.4-3,14.2c-0.4,2.1-1.9,1.9-3.3,1.7c-6.6-1-13.2-1.6-19.6-3.2c-4.9-1.2-6.8-6-9.1-10
				c-1-1.7,0.8-2.4,2.2-2.9c9.2-3.2,18.7-4.9,28.3-6.1C176.5,298.5,175.5,302.6,176.2,305.4z"/>
			<path class="st1" d="M230.8,209.1c9.4-0.3,9.4-0.3,10.6,8.2c0.7,4.9,1.3,9.9,2.4,14.8c0.7,3.1-0.6,3.9-3.1,4
				c-4.8,0.3-9.6,1-14.3,2.2c-2.8,0.7-3.7-0.2-3.9-3.1c-0.4-6.8-0.8-13.6-1.8-20.3c-0.6-3.8,0.6-5.2,4.1-5.4
				C227.2,209.4,229.5,209.2,230.8,209.1z"/>
			<path class="st1" d="M216.7,185.6c-5.6,2-10.6,3-15.8-0.9c2.7-0.8,4.7,0.2,6.7,0.4c2,0.1,3.9,0.3,5.7-0.9
				c5-3.5,17.9-2.2,22.4,2.1c0.9,0.9,1,1.8,1.2,2.8c0.5,2.8,1.1,5.6,1.6,8.4c1.6,8.4,1.6,8.4-6.7,8.8c-0.4,0-0.7,0-1.1,0
				c-3.8,0.1-8.5,2.7-10.9,0.6c-2.3-2.1-2.6-7-2.8-10.8C216.8,192.8,212.3,189.6,216.7,185.6z"/>
			<path class="st1" d="M149.8,151.4c0.6,0,0.7,0,0.9,0c3.2,0.9,7.1-3.2,9.3,0.1c1.7,2.5,1,6.6,1.3,9.9c0.7,7,2.2,13.7,4.9,20.2
				c0.4,1,1.3,2.2,0,2.8c-4.2,2-8.4,4.1-12.8,5.4c-1.5,0.4-1.1-2.6-1.3-4.1c-0.9-10.1-5-19.4-6.6-29.3
				C144.9,152.2,145.3,149.9,149.8,151.4z"/>
			<path class="st1" d="M241,89.7c0.3,4.5-0.6,9.1-0.9,13.7c-0.2,3.3-1.7,4-4.5,3.3c-1.6-0.4-3.1-0.8-4.7-1.1
				c-3-0.6-4.4-1.6-4.1-5.3c0.3-3.8-0.9-7.7-1.5-11.6c-0.8-5.8-0.5-11.4,2.5-16.6c1.3-2.3,2.6-4.4,5.8-3.6c3.1,0.8,5.8,2,6.2,5.7
				C240.5,79.2,241.4,84.4,241,89.7z"/>
			<path class="st1" d="M148.2,111.5c1.9-0.4,3.3,0.1,4.1,2.9c2.9,9.2,5.4,18.4,6.9,28c0.5,3.3-0.4,4.8-3.6,5.8
				c-7.8,2.3-10.8,0.6-12-7.2c-1.2-7.6-2.2-15.2-3.8-22.6c-1.1-5,0.5-6.8,5.3-6.6C145.9,111.8,146.8,111.6,148.2,111.5z"/>
			<path class="st1" d="M273.3,221.4c3.5-2.7,3-7,4.1-10.6c2.1-6.9,6.5-2.5,10-2.4c4.3,0.1,2.9,3.2,2.2,5.4
				c-4,14-9.1,27.5-19.5,38.2c-1.3,1.3-2.8,4.9-5,2.5c-1.6-1.8-4.8-4.2-0.9-8.3c6.2-6.7,9.6-15.3,9.2-24.8L273.3,221.4z"/>
			<path class="st1" d="M179.7,117.3c0-5.5-0.1-11.1,0-16.6c0.2-6.4,5.1-2.2,7.7-3.1c3.3-1.1,3.1,1.4,3,3.7
				c-0.5,9.9,2.5,19.5,3.9,29.2c0.6,4.4-0.7,6-4.5,6.5c-0.5,0.1-1.1,0.2-1.6,0.2c-9,1.1-9.9,0.3-9.6-8.6c0.1-3.8,0.4-7.5,0.5-11.3
				C179.3,117.3,179.5,117.3,179.7,117.3z"/>
			<path class="st1" d="M226.6,107.4c12,2.1,11.9,2.1,11.7,14c-0.1,6.4,0,12.8,0.3,19.2c0.1,3.1-0.6,4.8-4.1,4.1
				c-2.7-0.6-5.6-0.6-8.2-1.4c-2.3-0.7-3.7-2.2-3.3-5.2C224.2,127.9,225.3,117.6,226.6,107.4z"/>
			<path class="st1" d="M296.2,211.5c1.7,1.9,2,3.6,0.5,6c-8,12.9-13.6,26.7-15,42c-0.5,6.2-3.5,12-6.2,17.6
				c-0.8,1.6-1.4,3.3-3.8,3.8c-1.2-6.8-2-13.6-4.4-20.1c-0.6-1.6,0.2-2.7,1.4-3.7c12.7-11.5,19.1-26.6,23.4-42.7
				c0.7-2.4,1.3-4.2,4.3-3L296.2,211.5z"/>
			<path class="st1" d="M99,123.4c0.4-3.6-0.7-8.4,3.9-9.6c4.7-1.2,7.4,2.6,9.6,6.2c0.9,1.4,1.6,2.8,1.6,4.5
				c-0.2,6.1,0.8,12.2,2.3,18c1,3.8-0.7,5.2-4,6c-3,0.7-5.3,1.3-6.6-2.8c-1.9-6-4.5-11.7-6.5-17.6C98.8,126.8,99.1,125,99,123.4z"/>
			<path class="st1" d="M195,310.1c0,0.9,0.1,1.8,0,2.7c-0.9,11.8,2.6,11.3-12.2,10c-7.7-0.7-7.7-0.9-6-8.3c1-4.5,2.7-9,1.3-13.7
				c-0.5-1.8,0.5-2.2,1.9-2.2c1.1-0.1,2.1-0.1,3.2-0.1C195.4,298,195.4,298,195,310.1z"/>
			<path class="st1" d="M304,168c-5.1,12.4-10.3,23.4-12,35.6c-0.5,3.2-2.5,2.3-4.3,2.3c-7.3-0.1-8.2-1.3-6.2-8.2
				c1.9-6.4,3.7-12.8,7.4-18.3C292.3,174.3,296.7,170.2,304,168z"/>
			<path class="st1" d="M122.3,212.1c-1.3-8.7-2.8-16.6-5.4-24.3c-2-6.1,2.5-6.4,6-7.6c3.5-1.1,6.4-1.5,7,3.8
				c0.7,5.5,2.1,10.9,4.8,15.8c0.9,1.7,0.6,2.4-0.8,3.4C130.2,206,126.6,208.9,122.3,212.1z"/>
			<path class="st1" d="M127.9,175.1c0,1.3-0.5,1.7-1.6,1.9c-3.2,0.4-6.3,1.2-9.2,2.8c-1.7,0.9-2.3,0-2.6-1.4c-1.9-8-3.8-16-5.7-24
				c-0.1-0.6-0.1-1.8,0.2-1.9c2.6-1,5.3-2.2,8.1-2.6c2.5-0.4,2.3,2.3,2.9,3.7C122.7,160.7,125.3,167.9,127.9,175.1z"/>
			<path class="st1" d="M296.3,211.6c-3.1-5-1.6-10-0.2-15.1c2.2-8.5,5.7-16.5,9.2-24.5c0.5-1.1,0.7-2.7,2.3-2.5
				c1.7,0.2,2.1,1.7,2.3,3.2c0.7,5.6-0.1,11-1.4,16.4c-1.7,6.4-4.2,12.5-6.7,18.6c-1.1,2.7-2.8,3.9-5.5,3.8
				C296.2,211.5,296.3,211.6,296.3,211.6z"/>
			<path class="st1" d="M273.5,221.3c-2.9,1.4-2.3,4.6-3.1,6.9c-1.8,5.4-3.5,10.9-7.1,15.5c-1,1.3-2.2,3.5-4.3,2.1
				c-2.6-1.8-5.8-3.1-6.6-6.6c-0.1-0.5,0.8-1.8,1.4-2c6.8-1.4,8.8-7.4,11.7-12.4c2.7-4.5,4.8-9.4,7.5-15c1.2,4.6,0,8.1,0.2,11.6
				C273.3,221.4,273.5,221.3,273.5,221.3z"/>
			<path class="st1" d="M203.5,340c-3-0.4-6.8,0.9-7.1-1.1c-0.7-3.7,0.1-7.8,0.8-11.6c0.2-1.2,2.2-0.5,3.4-0.4
				c4.1,0.4,8.2,0.7,12.2,1.5c1.9,0.4,5.7-1.3,5.3,1.9c-0.4,3.2,0.4,8.5-5.8,8.6C209.2,339,206,339.7,203.5,340z"/>
			<path class="st1" d="M194,331.1c-0.2,2.6-0.4,4-0.4,5.4c0,2.7-1.1,3.4-3.7,2.8c-4.4-0.9-8.7-1.8-12.9-3.4c-2.3-0.9-3.2-1.9-3-4.7
				c0.2-5.1,1.5-7.7,7.2-5.9c2.1,0.7,4.6,0.6,6.9,0.5C192.8,325.6,195.6,326.8,194,331.1z"/>
			<path class="st1" d="M153.1,76.2c5.1,9.9,5,20.3,4.6,30.8c0,1.3-0.8,1.9-2.1,1.9c-1.9,0-2.3-1.3-2.5-2.8
				c-0.9-7.5-1.7-14.9-0.9-22.4C152.6,81.2,152.9,78.7,153.1,76.2z"/>
			<path class="st1" d="M242,325.9c-5.4,5.6-12.4,8.1-19.4,10.4c-1.1,0.4-3,0.8-2.6-1.2c0.4-2.4,0-6,3.5-6.4
				C229.7,328.1,235.8,327.1,242,325.9z"/>
			<path class="st1" d="M153.2,322.7c6.8-1.1,12,0.3,17,1.4c4.3,1,1.4,4.8,1.1,7.2c-0.5,3.5-2.7,1.1-3.8,0.5
				C163,329.2,158.8,326.3,153.2,322.7z"/>
			<path class="st1" d="M126.4,272.8c-2.4-7.3-3.2-14.9-4.3-22.4c-0.3-1.9,1-3.4,2.5-3.6c1.4-0.2,1.3,1.8,1.5,2.9
				c1,5.4,2,10.8,3.2,16.2C129.9,268.9,129.6,271.2,126.4,272.8z"/>
			<path class="st1" d="M198.1,132.5c-2.1-9.6-4.6-19-5.2-28.8c-0.1-1.6,0.1-3.2,0.2-4.8c0.1-1.1,0.2-2.4,1.5-2.4
				c1.5,0,1.3,1.4,1.4,2.4c0.4,4.8,0.8,9.6,1.1,14.4C197.4,119.7,197.8,126.1,198.1,132.5z"/>
			<path class="st1" d="M216.1,179c-1.1-8.7,0-17,0.7-25.3c0.3-3,0.2-6,0.4-9.1c0-0.9,0-1.9,1.3-1.7c0.9,0.1,1.2,0.9,1.1,1.6
				c-2.2,10.7,0.2,21.6-1.9,32.3C217.5,177.7,217.3,178.5,216.1,179z"/>
			<path class="st1" d="M241.3,144.1c-0.3-10.3-0.6-20.7,0-31.1c0.1-1.2,0.1-2.7,1.8-2.8c1.5,0,1.4,1.3,1.4,2.3
				c-0.5,10.5-1.1,21-1.7,31.4C242.3,144,241.8,144,241.3,144.1z"/>
			<path class="st1" d="M241.5,149.3c0,11.5,0,23.8,0,36.3c-3.6-0.5-3.6-2.7-3.4-4.5C239.2,170.2,240.5,159.3,241.5,149.3z"/>
			<path class="st1" d="M223.4,104.7c-0.2,12.8-1.4,24-3.8,35.5C217.4,137.3,219.9,111.1,223.4,104.7z"/>
			<path class="st1" d="M136,299.2c-6.9-8.3-9.5-22.1-5.4-25.6C132.5,282.3,134.2,290.7,136,299.2z"/>
			<path class="st1" d="M166.4,172.9c-0.7-5.7-4.1-10.8-3-17c0.3-1.8-0.7-3.9-1.3-5.8c-0.4-1.3-1-2.5,0.7-2.9c1.9-0.5,1.8,1.1,2,2.3
				C166.1,157.2,167.4,164.9,166.4,172.9z"/>
			<path class="st1" d="M177,160.1c2.6,5.2,3.4,10.6,3.8,16.1c0.2,1.9-0.6,3.4-2.5,3.4c-2.2-0.1-1.3-2.2-1.3-3.4
				C176.9,170.8,177,165.5,177,160.1z"/>
			<path class="st1" d="M144.8,171c3.3,5.9,4.6,12.2,5.1,18.7c0.1,1.6-0.1,3.4-1.7,3.4c-2.2,0.1-1.2-2.1-1.4-3.3
				C146.1,183.5,145.5,177.2,144.8,171z"/>
			<path class="st1" d="M121.5,245.3c-0.2-7.6-2.3-13.9-1.4-20.9C123.9,229.8,125.1,241.4,121.5,245.3z"/>
			<path class="st1" d="M243.7,80.9c3.7,8.7,0.4,17.3-0.3,26C241.9,98.2,244.9,89.6,243.7,80.9z"/>
			<path class="st1" d="M142,204.3c4.2-1.1,4.3-4.5,5.5-7.1c0.3-0.6,0.1-1.5,1.2-1.5c0.8,0,1.4,0.5,1.4,1.3c0,2.8,0.4,5.9-1.6,8.1
				C146.6,207.2,144.7,205.2,142,204.3z"/>
			<path class="st1" d="M158.5,122c-2.2-2.4-3-5.1-3.7-8c-0.2-1-1-2.1,0.7-2.5c1.4-0.4,2.5,0.2,2.6,1.7
				C158.3,116.2,158.4,119.1,158.5,122z"/>
			<path class="st1" d="M246.4,225.5c1.1,2.5,2.2,5,3.3,7.5c0.4,0.8,0.9,1.7-0.2,2.2c-1.1,0.5-2.3,0.3-2.6-1
				C246.1,231.4,245.3,228.6,246.4,225.5z"/>
			<path class="st1" d="M104.2,152.5c3.3,3.9,3.4,8.8,4.1,13.5C105.5,161.9,105,157.1,104.2,152.5z"/>
			<path class="st1" d="M113.9,186.8c1.5,4.9,2.9,9.9,2.9,15.3c-1.5-5-2.9-9.9-4.4-14.9C113,187.1,113.4,186.9,113.9,186.8z"/>
			<path class="st1" d="M176.7,93.2c-1.4-3.9-0.9-7.8-0.6-11.8C177.6,85.2,178.3,89.2,176.7,93.2z"/>
			<path class="st1" d="M199.1,180.8c-2.5-4.9-0.9-8.7,0-12.5C199.1,172.1,199.1,175.9,199.1,180.8z"/>
			<path class="st1" d="M223,94.3c1.1,2.7,1.8,5.5,0.1,8.3C221.3,100,222.3,97.2,223,94.3z"/>
			<path class="st1" d="M110.2,178.3c-0.8-3.2-1.5-6.3-2.3-9.5C110.5,171.7,111.4,174.9,110.2,178.3z"/>
			<path class="st2" d="M139.8,180.8c0.3,0.9,0.6,1.8-0.4,2.6c-0.3-0.5-0.7-1.1-1-1.6C138.9,181.5,139.4,181.2,139.8,180.8z"/>
		</g>
	</g>
	<path class="st1" d="M125.8,310.9"/>
	<path class="st3" d="M107.6,270c0,0,1.5,18.4,6.1,26"/>
	<path class="st3" d="M273.6,168.3c0,0,12.7-13.3,20.8-14"/>
	<path class="st3" d="M284,291.9c0,0-9.9,7.7-11.9,16"/>
	<path class="st3" d="M92.7,100.8c0,0-9.7,7.4-9,18.8"/>
	<path class="st3" d="M209.1,61.8c0,0,1.4,9.1,1.1,10.9c-0.4,1.8-1.1,13-1.1,13"/>
	<path class="st3" d="M179,352.9c0,0-25.9-9-29-13.6"/>
</g>
</svg>
