<?xml version="1.0" encoding="utf-8"?>
<!-- Generator: Adobe Illustrator 21.0.0, SVG Export Plug-In . SVG Version: 6.00 Build 0)  -->
<svg version="1.1" id="Layer_1" xmlns="http://www.w3.org/2000/svg" xmlns:xlink="http://www.w3.org/1999/xlink" x="0px" y="0px"
	 viewBox="0 0 400 400" style="enable-background:new 0 0 400 400;" xml:space="preserve">
<style type="text/css">
	.st0{fill:#FFFFFF;}
	.st1{fill:none;stroke:#000000;stroke-width:2;stroke-miterlimit:10;}
	.st2{opacity:0.5;}
	.st3{fill:none;stroke:#FFFFFF;stroke-width:15;stroke-linecap:round;stroke-miterlimit:10;}
	.st4{fill:url(#SVGID_1_);}
	.st5{fill:url(#SVGID_2_);}
	.st6{fill:url(#SVGID_3_);}
</style>
<g>
	<path class="st0" d="M302,59.5l-140.5-0.3c-19.4,0-35.1,15.8-35.1,35.1l-0.1,70.5H98c-19.4,0-35.1,15.8-35.1,35.1S78.7,235,98,235
		l28.2,0.1l-0.1,70.4h0.1c0,0,0,0.1,0,0.1c0,19.4,15.8,35.1,35.1,35.1c19.4,0,35.1-15.8,35.1-35.1c0-1,0-2.1-0.1-3.1l0.1-67.4
		l35.3-0.1c19.4,0,35.1-15.8,35.1-35.1c0-0.4,0-0.8,0-1.3c0-0.1,0-0.2,0-0.3c0-0.4,0-0.8-0.1-1.2c0-0.2,0-0.3,0-0.5
		c0-0.2,0-0.5-0.1-0.7c0-0.5-0.1-0.9-0.2-1.4c0,0,0-0.1,0-0.1c-0.9-5.8-3.2-11.2-6.8-15.9c-2.3-3-5-5.5-8-7.6
		c-0.1-0.1-0.3-0.2-0.4-0.3c-0.1-0.1-0.2-0.2-0.4-0.2c-0.2-0.1-0.3-0.2-0.5-0.3c-0.1-0.1-0.2-0.1-0.3-0.2c-0.2-0.1-0.5-0.3-0.7-0.4
		c-0.1,0-0.1-0.1-0.2-0.1c-0.3-0.2-0.6-0.3-0.9-0.5c-0.1,0-0.2-0.1-0.2-0.1c-0.2-0.1-0.4-0.2-0.6-0.3c-0.1-0.1-0.2-0.1-0.3-0.2
		c-0.2-0.1-0.3-0.2-0.5-0.2c-0.1,0-0.2-0.1-0.2-0.1c-1.9-17.6-16.8-31.3-34.9-31.3c-5.2,0-10.3,1.2-14.9,3.4l0-10.6l105.4,0.2
		c19.4,0,35.1-15.8,35.1-35.1C337.1,75.2,321.3,59.5,302,59.5z"/>
	<path class="st1" d="M144.5,318.3c-1.8-2.4-3-5.1-3.7-8.1"/>
	<path class="st1" d="M157.1,326.3c-4.1-0.8-7.8-2.9-10.6-5.7"/>
	<g class="st2">
		
			<image style="overflow:visible;opacity:0.25;" width="85" height="80" xlink:href="60089BC5C6C3B3C.png"  transform="matrix(1 0 0 1 265 41)">
		</image>
		<g>
			<path class="st3" d="M302.7,79.4c3.3,0.6,6.3,2,8.8,4"/>
		</g>
	</g>
	<g>
		<linearGradient id="SVGID_1_" gradientUnits="userSpaceOnUse" x1="231.674" y1="66.2106" x2="231.674" y2="333.7894">
			<stop  offset="0" style="stop-color:#32D5FF"/>
			<stop  offset="0.5574" style="stop-color:#328EFF"/>
		</linearGradient>
		<path class="st4" d="M302,66.2H161.5c-15.5,0-28.1,12.6-28.1,28.1l-0.1,211.4c0,15.5,12.6,28.1,28.1,28.1s28.1-12.6,28.1-28.1
			l0.1-183.3H302c15.5,0,28.1-12.6,28.1-28.1S317.5,66.2,302,66.2z"/>
	</g>
	<g>
		
			<image style="overflow:visible;opacity:0.25;" width="251" height="118" xlink:href="60089BC5C6C3B21.png"  transform="matrix(1 0 0 1 39 141)">
		</image>
		<g>
			<linearGradient id="SVGID_2_" gradientUnits="userSpaceOnUse" x1="69.9328" y1="199.9298" x2="259.8365" y2="199.9298">
				<stop  offset="0" style="stop-color:#32D5FF"/>
				<stop  offset="1" style="stop-color:#328EFF"/>
			</linearGradient>
			<path class="st5" d="M231.7,171.8h-42.2h-28.3H98c-15.5,0-28.1,12.6-28.1,28.1S82.5,228,98,228h63.2h28.3h42.2
				c15.5,0,28.1-12.6,28.1-28.1S247.3,171.8,231.7,171.8z"/>
		</g>
	</g>
	<g>
		
			<image style="overflow:visible;opacity:0.25;" width="189" height="146" xlink:href="60089BC5C6C3B22.png"  transform="matrix(1 0 0 1 102 113)">
		</image>
		<g>
			<linearGradient id="SVGID_3_" gradientUnits="userSpaceOnUse" x1="132.75" y1="186.3461" x2="260.8365" y2="186.3461">
				<stop  offset="0" style="stop-color:#FFC84C"/>
				<stop  offset="1" style="stop-color:#FF854C"/>
			</linearGradient>
			<path class="st6" d="M240.4,173.3c0-0.4,0-0.7,0-1.1c0-15.7-12.7-28.4-28.4-28.4c-8.1,0-15.5,3.4-20.6,8.9
				c-0.8-0.1-1.6-0.1-2.4-0.1c-12.6,0-23.3,8.2-27,19.6h-0.8c-15.7,0-28.4,12.7-28.4,28.4s12.7,28.4,28.4,28.4h71.3
				c15.7,0,28.4-12.7,28.4-28.4C260.8,187.6,252.2,176.7,240.4,173.3z"/>
		</g>
	</g>
	<g class="st2">
		
			<image style="overflow:visible;opacity:0.25;" width="86" height="82" xlink:href="60089BC5C6C3B23.png"  transform="matrix(1 0 0 1 196 170)">
		</image>
		<g>
			<path class="st3" d="M244.2,208.3c-2.7,2.9-6.3,5.1-10.3,6.1"/>
		</g>
	</g>
</g>
</svg>
