<?xml version="1.0" encoding="utf-8"?>
<!-- Generator: Adobe Illustrator 23.1.0, SVG Export Plug-In . SVG Version: 6.00 Build 0)  -->
<svg version="1.1" id="Layer_1" xmlns="http://www.w3.org/2000/svg" xmlns:xlink="http://www.w3.org/1999/xlink" x="0px" y="0px"
	 viewBox="0 0 400 400" style="enable-background:new 0 0 400 400;" xml:space="preserve">
<style type="text/css">
	.st0{fill:#FFFFFF;}
	.st1{fill:#D66B6B;}
	.st2{fill:#FFFFFF;stroke:#D66B6B;stroke-width:5;stroke-miterlimit:10;}
</style>
<g>
	<g>
		<g>
			<polygon class="st0" points="143.6,129.6 143.6,274.7 183.6,316.4 207.4,309.1 207.4,254.4 261.3,237.4 264.1,215.1 235.4,185.9 
				264.1,178.3 275,166.8 275.8,153.1 228.9,108.9 			"/>
			<g>
				<g id="_x32_cyqoD.tif">
					<g>
						<path class="st1" d="M265.6,237.5c-1,4.9-4.9,6.8-9.2,7.6c-14.1,2.8-28.4,5.5-42.5,8.1c-2.5,0.4-3,1.5-3,3.8
							c0.1,15.7,0,31.5,0,47.2c0,7.5-3.5,11.6-10.9,13c-3.8,0.7-7.5,1.4-11.3,2.2c-4.1,0.9-7.4-0.1-10.5-3.2c-6.2-6.5-12.5-13-19-19
							c-6.2-5.9-11.4-12.7-18.3-17.8c-0.4-0.3-0.5-0.9-0.7-1.4c-0.2-0.2-0.3-0.4-0.5-0.7l0,0c0-0.6-0.1-1.2-0.6-1.6
							c-0.1-0.3-0.1-0.6-0.2-0.9c0-1.2,0.1-2.3,0.1-3.6c0-44.3,0-88.4,0-132.7c0-2.3,0-4.7,0.6-7c0.1-0.1,0.2-0.3,0.1-0.4
							c0.5-0.4,0.6-0.8,0.5-1.5c1.7-2.8,4.1-4.7,7.1-5.9c2.6,0.5,5-0.4,7.4-1.2l0.1,0.1l0.1-0.1c5.7-0.6,11.2-1.7,16.7-3.1
							c0.4-0.1,0.8-0.1,1.3-0.2c2.9-0.2,5.9-0.7,8.7-1.8l0.1,0.1l0.1-0.1c1.2-0.1,2.3,0.2,3.2-0.6c0.4-0.1,0.8-0.1,1.3-0.2
							c3-0.2,5.9-0.7,8.7-1.8l0.1,0.1l0.1-0.1c1.2-0.1,2.3,0.1,3.2-0.6c0.4-0.1,0.8-0.1,1.3-0.2c3-0.2,5.9-0.7,8.7-1.8
							c0.3,0,0.6-0.1,0.9-0.1c0.9,0,1.9,0.2,2.6-0.5c0.4-0.1,0.8-0.1,1.3-0.2c2,0,4-0.4,5.8-1.2c0.4,0,0.8-0.1,1.3-0.1
							c1.8,0,3.6-0.3,5.2-1c0.4-0.1,0.8-0.2,1.3-0.2c0.6,0,1.3-0.1,1.9-0.1c0.4,0,0.9,0,1.4,0c0.6,0,1.3,0.1,1.9,0.1
							c0.2,0.1,0.3,0.1,0.5,0.1c0.2,0.1,0.5,0.3,0.7,0.4c0.1,0.1,0.3,0.2,0.5,0.2c0.3,0.2,0.5,0.4,0.7,0.6c0.6,0.6,1.3,1.3,2,1.9
							c0.2,0.2,0.4,0.4,0.6,0.7l0,0c0.2,0.2,0.4,0.4,0.6,0.7l0,0c0.2,0.2,0.4,0.4,0.7,0.7l-0.1-0.1c0.2,0.2,0.4,0.4,0.7,0.7
							l-0.1-0.1c0.2,0.2,0.4,0.4,0.7,0.7l-0.1-0.1c0.2,0.2,0.4,0.5,0.7,0.7c0.2,0.2,0.3,0.3,0.5,0.5s0.5,0.4,0.7,0.7h-0.1
							c0.2,0.2,0.4,0.4,0.7,0.7l0.1,0.1c0.2,0.2,0.4,0.4,0.7,0.7l-0.1-0.1c0.2,0.2,0.4,0.4,0.7,0.7l-0.1-0.1
							c0.2,0.2,0.4,0.4,0.7,0.7l-0.1-0.1c0.2,0.2,0.4,0.4,0.7,0.7l-0.1-0.1c0.2,0.2,0.4,0.4,0.7,0.7L245,121
							c0.2,0.2,0.4,0.4,0.7,0.7l-0.1-0.1c0.2,0.2,0.4,0.4,0.7,0.7l0,0c0.2,0.2,0.4,0.4,0.7,0.7c0,0-0.1-0.1,0-0.1
							c0.2,0.2,0.4,0.4,0.7,0.7l-0.1-0.1c0.2,0.2,0.4,0.4,0.7,0.7l-0.1-0.1c0.2,0.2,0.4,0.4,0.7,0.7l-0.1-0.1
							c0.2,0.2,0.4,0.4,0.7,0.7l-0.1-0.1c0.2,0.2,0.4,0.4,0.7,0.7l-0.1-0.1c0.2,0.2,0.4,0.4,0.7,0.7l-0.1-0.1
							c0.2,0.2,0.4,0.4,0.7,0.7l-0.1-0.1c0.2,0.2,0.4,0.4,0.7,0.7l-0.1-0.1c0.2,0.2,0.4,0.4,0.7,0.7l-0.1-0.1
							c0.2,0.2,0.4,0.4,0.7,0.7l-0.1-0.1c0.2,0.2,0.4,0.4,0.7,0.7l-0.1-0.1c0.2,0.2,0.4,0.4,0.7,0.7l-0.1-0.1
							c0.2,0.2,0.4,0.4,0.7,0.7l-0.1-0.1c0.2,0.2,0.4,0.4,0.7,0.7l-0.1-0.1c0.2,0.2,0.4,0.4,0.7,0.7l-0.1-0.1
							c0.2,0.2,0.4,0.4,0.7,0.7l-0.1-0.1c0.2,0.2,0.4,0.4,0.7,0.7l-0.1-0.1c0.2,0.2,0.4,0.4,0.7,0.7l-0.1-0.1
							c0.2,0.2,0.4,0.4,0.7,0.7l-0.1-0.1c0.2,0.2,0.4,0.4,0.7,0.7l-0.1-0.1c0.2,0.2,0.4,0.4,0.7,0.7l-0.1-0.1
							c0.2,0.2,0.4,0.5,0.7,0.7l-0.1-0.1c0.2,0.2,0.4,0.5,0.7,0.7l-0.1-0.1c0.2,0.2,0.5,0.4,0.7,0.5c2.2,2.1,4.4,4.1,6.2,6.5
							c0.3,0.2,0.5,0.4,0.8,0.7l-0.1-0.1c0.2,0.3,0.4,0.5,0.7,0.8c0.4,0.4,0.7,0.7,1.2,1.2c0.3,0.2,0.5,0.4,0.8,0.7l-0.1-0.1
							c0.2,0.2,0.4,0.5,0.7,0.7c0.2,0.2,0.3,0.3,0.5,0.5s0.5,0.5,0.7,0.7l-0.1-0.1c0.2,0.5,0.5,0.9,0.7,1.5c0,0.2,0,0.3,0.1,0.4
							c0.2,0.3,0.3,0.6,0.5,1v0.2c0,5.8,0,11.6,0.1,17.4c0,0.3-0.1,0.6-0.1,0.8c-0.7,0.8-1,1.9-1.3,2.9l0.1-0.1
							c-0.2,0.2-0.4,0.5-0.6,0.7l0,0c-0.2,0.2-0.3,0.4-0.5,0.7l-0.1,0.1c-0.3,0.3-0.6,0.7-0.9,1s-0.6,0.5-1,0.8
							c-0.2,0.2-0.4,0.3-0.7,0.5l0,0c-0.4,0.2-0.8,0.4-1.3,0.7l0,0c-3.2,1-6.8,1-10,2.4l-0.2-0.1c-4.5,0.6-9,1.2-13.3,2.6
							c-0.3,0-0.6,0-0.9,0.1c-3.1,0.2-6.2,0.9-9.6,1.7c2.3,2.7,4.4,4.9,6.9,6.8v-0.1c0.2,0.2,0.5,0.5,0.7,0.7l-0.1-0.1
							c0.1,0.5,0.4,0.8,0.8,0.9l0.1,0.1c0.1,0.5,0.5,0.7,0.9,0.8L243,193c0.2,0.2,0.5,0.5,0.7,0.7h-0.1c0.2,0.6,0.6,1,1.4,1.4V195
							c0.2,0.2,0.5,0.5,0.7,0.7l-0.1-0.1c0.2,0.3,0.5,0.5,0.7,0.8c0.3,0.7,0.8,1.3,1.6,1.6c0.4,0.4,0.7,0.7,1.2,1.2
							c4.4,4.6,8.8,9.1,13.3,13.7c0.9,1.7,2.1,3.3,2,5.2C266,226.1,266.7,231.8,265.6,237.5z M146.1,204.1c0,22.6,0,45.1,0,67.7
							c0,3.5,0.5,3.8,3.8,3.1c3.6-0.7,7.1-1.4,10.7-2c5.1-0.9,6.1-2.1,6.1-7.2c0-17.1,0-34,0-51.1c0-3,1.2-4.4,4.1-4.9
							c15.5-2.8,30.9-5.9,46.3-8.8c3.6-0.7,4.9-2.2,4.9-5.9c0-3.6,0-7,0-10.6c0-3.3-0.5-3.8-3.9-3.1c-15.3,2.9-30.7,5.9-45.9,8.7
							c-4.3,0.8-5.4-0.2-5.4-4.5c0-11.3,0.1-22.7,0-34c0-3.1,1.2-4.6,4.3-5.1c18.4-3.3,36.7-6.9,55.1-10.4c4.4-0.8,5.5-2.2,5.5-6.7
							c0-3.2,0-6.4,0-9.6c0-3.3-0.7-4-4.1-3.3c-25.3,4.8-50.5,9.7-75.9,14.5c-4.8,0.9-5.5,1.9-5.5,6.9
							C146.1,159.7,146.1,181.9,146.1,204.1z M170.5,274.5c-0.3,0.4-0.9,1.3-1.6,2.2c-0.8,1.3,0.4,1.8,0.9,2.3
							c9.8,9.8,19.7,19.7,29.4,29.6c1,1,2,2,3.5,0.5c1.4-1.4,1.2-2.4-0.2-3.8c-9.8-9.8-19.7-19.7-29.5-29.5
							C172.6,275.3,172.2,274.6,170.5,274.5z M254.3,238.8c1.2-0.2,2.6-0.1,3.1-1.3c0.6-1.3-0.8-1.8-1.6-2.4
							c-9.6-9.6-19.3-19.3-28.8-28.9c-0.4-0.4-0.7-0.7-1.2-1.2c-1.8-1.5-2.7,0.5-3.8,1.2c-1.5,0.9,0.2,1.7,0.7,2.2
							c9.6,9.7,19.4,19.5,29,29.1C252.5,238.3,253.3,239,254.3,238.8z M182.2,214.6c10.7,10.6,21,20.7,31.3,30.8
							c0.1,0.1,0.1,0.1,0.2,0.2c1.8,1.3,4,0.5,5-0.3c1.2-0.9-0.8-2-1.7-2.7c-8.9-9-17.9-17.8-26.7-26.8
							C188.1,213.3,185.9,213.2,182.2,214.6z M156.4,280.8c0.7,0.8,1.3,1.5,1.9,2c9,9,18,18,26.9,27c3.2,3.2,3.2,3.2,7.5,1.6
							c-0.3-1.2-1.5-1.9-2.2-2.6c-8.8-8.9-17.7-17.6-26.5-26.6C161.8,279.7,159.6,279.2,156.4,280.8z M208.7,209.5
							c0.3,0.4,0.5,0.8,0.8,1c9.7,9.7,19.5,19.6,29.2,29.3c0.4,0.4,0.7,0.8,1.2,1c1.7,0.7,3.7,0.3,4.8-0.7c0.8-0.8-0.9-1.9-1.7-2.6
							c-8.8-8.9-17.8-17.6-26.5-26.6C214.2,208.6,212,207.8,208.7,209.5z M195.3,212.2c10.6,10.4,20.7,20.4,30.9,30.5
							c0.1,0.1,0.3,0.3,0.4,0.4c1.8,1.4,4,0.5,5-0.3c1.2-0.9-0.8-2-1.7-2.7c-8.9-9-17.9-17.8-26.7-26.8
							C201,210.9,198.8,210.5,195.3,212.2z M173,219.3c-0.2,0.8,0.8,1.9,1.9,2.9c9,9,17.9,18,26.9,26.9c0.6,0.6,1.5,2.6,2.5,1
							c0.6-1,3.2-2,0.8-4.3c-9.8-9.5-19.4-19.3-29.1-28.9c-0.6-0.6-1.2-1.5-2.1-1.2C172.7,216.3,173.3,217.5,173,219.3z
							 M228.4,193.2c0.3,2.5-0.6,4.9,1.6,7c9.2,9,18.2,18.1,27.2,27.2c0.6,0.6,1,1.7,2.3,1.5c0.8-3.5-0.1-6-2.7-8.5
							c-8.6-8.3-16.8-16.7-25.2-25.1C230.8,194.5,230.1,193.3,228.4,193.2z M173.4,261.3c-0.9,3.6,0.1,6.1,2.7,8.6
							c8.5,8.3,16.7,16.7,25.1,25.1c0.5,0.5,1,1,1.6,1.6c0.9,0.8,1.5,0.7,1.6-0.6c0.1-2.4-0.1-4.5-2-6.4
							c-8.9-8.7-17.7-17.6-26.6-26.5C175.2,262.5,174.7,261.6,173.4,261.3z M204.2,281.7c0.8-3.5,0-6-2.6-8.5
							c-8.6-8.3-17-16.8-25.4-25.2c-0.7-0.7-1.4-2-2.8-2c-0.6,3.2-0.1,5.8,2.5,8.3c8.6,8.3,17,16.8,25.4,25.3
							C202.1,280.4,202.6,281.4,204.2,281.7z M203.6,266.4c0.3-0.1,0.5-0.3,0.8-0.4c0-2.5,0.5-4.9-1.8-7.2c-9.1-8.9-18-17.9-27-26.9
							c-0.6-0.6-1-1.7-2.2-1.4c-0.8,3.5,0.2,6,2.9,8.5c6.2,5.8,11.9,11.9,17.9,17.9C197.3,260.2,200.4,263.3,203.6,266.4z
							 M238.4,124.7c-0.8,4.1-0.2,6.6,2.4,9c8.5,8.2,16.6,16.6,25,24.9c0.9,0.9,2,2.9,3,2.2c1.3-0.9,0.6-3.1,0.2-4.8
							c-0.2-0.8-1-1.6-1.8-2.2c-3.1-3.2-6.4-6.4-9.5-9.5C251.5,137.8,245.2,131.5,238.4,124.7z M235.9,137.9
							c-0.9,0.8-1.9,1.5-2.6,2.3c-0.9,1,0.3,1.5,0.7,2c9.8,9.9,19.8,19.9,29.6,29.8c1.4,1.4,2.5,1.4,3.9,0.2
							c1.7-1.5,0.4-2.4-0.6-3.3c-9.8-9.8-19.7-19.7-29.5-29.5C236.9,138.9,236.5,138.5,235.9,137.9z M219.9,144.2
							c7.1,6.9,14,13.5,20.7,20.2c3.5,3.3,6.9,6.7,10.2,10.3c1.8,1.9,4.1,1,5.2,0.1c1.5-1.3-0.8-2.2-1.7-3
							c-8.8-8.9-17.7-17.7-26.5-26.7C225.7,142.9,223.6,142.3,219.9,144.2z M207.6,146.3c0.4,0.6,0.7,1,1.2,1.4
							c9.5,9.5,18.9,19.1,28.5,28.7c0.4,0.4,0.8,0.9,1.5,1.3c1.7,0.8,3.7,0.5,4.7-0.5c0.9-0.9-0.9-1.9-1.7-2.6
							c-8.9-9-17.9-17.8-26.7-26.8C212.9,145.5,210.8,144.8,207.6,146.3z M230.9,179.5c-0.3-0.4-0.5-0.8-0.8-1
							c-9.8-9.8-19.7-19.6-29.4-29.4c-0.3-0.3-0.6-0.6-0.9-0.8c-1.6-0.7-3.6-0.3-4.5,0.5s0.8,1.9,1.6,2.6
							c6.9,7.1,13.9,14.1,20.9,21.1c0.9,0.9,1.9,2,3.5,2.1c2.7,0.2,4.8,1.8,6.1,4.2C228.1,180.4,229.1,180.5,230.9,179.5z
							 M181.8,151.2c0.2,1,0.9,1.5,1.6,2.1c6.8,6.9,13.8,13.7,20.5,20.7c2.3,2.5,4.5,3,7.6,1.4c-0.8-0.9-1.7-1.8-2.4-2.6
							c-6.5-6.5-13.1-12.9-19.5-19.6C187.3,150.8,185.2,149.3,181.8,151.2z M173.4,153.2c-0.8,3.3,0.1,5.9,2.6,8.3
							c5.2,4.9,10.2,10,15.2,15.2c2.9,2.9,2.9,2.9,6.7,1.3C189.8,169.9,181.7,161.6,173.4,153.2z M184.3,180.8
							c-3.7-3.8-7.6-7.6-11.1-11.2C172.9,176.3,179,182.3,184.3,180.8z"/>
					</g>
				</g>
				<polygon class="st1" points="147.5,123.7 227.1,109 226.7,113.6 159.9,124.7 148.4,126.3 				"/>
				<path class="st1" d="M139,274.7c0,0,0.1,3.1,2,4.6s7.3-1.8,7.3-1.8L139,274.7z"/>
				<path class="st1" d="M140.5,129.4"/>
				<path class="st1" d="M140.4,129.6c0,0-0.9,2.3-1,4.1s2.8,2,2.8,2"/>
			</g>
			<g>
				<path class="st1" d="M87.4,166.2c0-22.2,0-44.3,0-66.4c0-4.9,0.7-6,5.5-6.9c25.3-4.9,50.5-9.7,75.9-14.5c3.3-0.6,4,0,4.1,3.3
					c0,3.2,0,6.4,0,9.6c0,4.5-1.2,5.9-5.5,6.7c-18.3,3.5-36.7,7-55.1,10.4c-3.1,0.5-4.3,2-4.3,5.1c0.1,11.3,0,22.7,0,34
					c0,4.3-0.1,26.3,0,29.2c0.1,17.1,0,34,0,51.1c0,5.1-0.9,6.3-6.1,7.2c-3.6,0.6-7.1,1.4-10.7,2c-3.2,0.6-3.8,0.2-3.8-3.1
					C87.4,211.3,87.4,188.8,87.4,166.2z"/>
				<path class="st1" d="M328.5,245.9c0,22.2,0,44.3,0,66.4c0,4.9-0.7,6-5.5,6.9c-25.3,4.9-50.5,9.7-75.9,14.5c-3.3,0.6-4,0-4.1-3.3
					c0-3.2,0-6.4,0-9.6c0-4.5,1.2-5.9,5.5-6.7c18.3-3.5,36.7-7,55.1-10.4c3.1-0.5,4.3-2,4.3-5.1c-0.1-11.3,0-22.7,0-34
					c0-4.3,0.1-26.3,0-29.2c-0.1-17.1,0-34,0-51.1c0-5.1,0.9-6.3,6.1-7.2c3.6-0.6,7.1-1.4,10.7-2c3.2-0.6,3.8-0.2,3.8,3.1
					C328.5,200.7,328.5,223.3,328.5,245.9z"/>
				<polyline class="st1" points="71.5,228.9 87.4,237.4 106.7,233.2 104.8,110.3 141.6,94.2 169.8,97.2 172.8,78.1 156.9,65.9 
					114.2,82.6 74.7,111.7 				"/>
				<path class="st2" d="M317.7,234.4c0,22.2,0,44.3,0,66.4c0,4.9-0.7,6-5.5,6.9c-25.3,4.9-50.5,9.7-75.9,14.5c-3.3,0.6-4,0-4.1-3.3
					c0-3.2,0-6.4,0-9.6c0-4.5,1.2-5.9,5.5-6.7c18.3-3.5,36.7-7,55.1-10.4c3.1-0.5,4.3-2,4.3-5.1c-0.1-11.3,0-22.7,0-34
					c0-4.3,0.1-26.3,0-29.2c-0.1-17.1,0-34,0-51.1c0-5.1,0.9-6.3,6.1-7.2c3.6-0.6,7.1-1.4,10.7-2c3.2-0.6,3.8-0.2,3.8,3.1
					C317.7,189.3,317.7,211.9,317.7,234.4z"/>
				<path class="st2" d="M71.5,156.3c0-22.2,0-44.3,0-66.4c0-4.9,0.7-6,5.5-6.9c25.3-4.9,50.5-9.7,75.9-14.5c3.3-0.6,4,0,4.1,3.3
					c0,3.2,0,6.4,0,9.6c0,4.5-1.2,5.9-5.5,6.7c-18.3,3.5-36.7,7-55.1,10.4c-3.1,0.5-4.3,2-4.3,5.1c0.1,11.3,0,22.7,0,34
					c0,4.3-0.1,26.3,0,29.2c0.1,17.1,0,34,0,51.1c0,5.1-0.9,6.3-6.1,7.2c-3.6,0.6-7.1,1.4-10.7,2c-3.2,0.6-3.8,0.2-3.8-3.1
					C71.5,201.4,71.5,178.8,71.5,156.3z"/>
			</g>
			<polyline class="st1" points="231.9,324.1 244.4,334 251.9,329 248.1,320.1 			"/>
			<polyline class="st1" points="328.2,175.5 319,162.3 319.3,178.3 			"/>
		</g>
	</g>
</g>
<polygon class="st1" points="149.7,279.7 183.6,316.4 202.1,312.5 207.4,309.1 208.7,268 209.7,250.7 259.8,241.2 261.5,218.7 
	230.9,187.7 230.1,182 257.5,176.9 270.5,173.7 272.6,156.1 252.5,134.5 238.1,119.5 235,122.1 233,137.9 171.3,150.3 173.2,181 
	179.7,184.4 219.1,177.3 224.9,181.8 223.5,202.9 170.7,212.6 169.3,266.4 165.9,273.3 "/>
<polygon class="st0" points="236.5,187 257.5,207.9 241.7,184.8 "/>
<path class="st1" d="M233.8,184l34-6.7c0,0,6.5-1.9,6.4-8.1s-0.1-16-0.1-16s0.4-2.9-3-6.2c-2.7-2.7-23.5-23.6-31.5-31.7
	c-2-2-3.2-3.2-3.2-3.2s-2.4-4.2-7.7-3.3s-39.8,7.5-39.8,7.5L200,118l26.7-4.4l2.9-1l4.8,1.8l5.6,6.9l4.1,10.3L233.8,184z"/>
</svg>
