<?xml version="1.0" encoding="utf-8"?>
<!-- Generator: Adobe Illustrator 23.1.0, SVG Export Plug-In . SVG Version: 6.00 Build 0)  -->
<svg version="1.1" id="Layer_1" xmlns="http://www.w3.org/2000/svg" xmlns:xlink="http://www.w3.org/1999/xlink" x="0px" y="0px"
	 viewBox="0 0 400 400" style="enable-background:new 0 0 400 400;" xml:space="preserve">
<style type="text/css">
	.st0{clip-path:url(#SVGID_2_);}
	.st1{clip-path:url(#SVGID_4_);}
	.st2{clip-path:url(#SVGID_6_);}
	.st3{clip-path:url(#SVGID_8_);}
	.st4{fill:#8376DF;}
	.st5{fill:none;stroke:#FFFFFF;stroke-width:31;stroke-linecap:round;stroke-linejoin:round;stroke-miterlimit:10;}
	.st6{fill:#FFFFFF;}
</style>
<g>
	<g>
		<g>
			<g>
				<g>
					<g>
						<defs>
							<path id="SVGID_1_" d="M200.2,277.6h-0.4c-8.6,0.2-15.6-6.6-15.8-15.2c-0.2-8.5,6.6-15.5,15.1-15.8h0.8h0.2L200.2,277.6z"/>
						</defs>
						<clipPath id="SVGID_2_">
							<use xlink:href="#SVGID_1_"  style="overflow:visible;"/>
						</clipPath>
						<g class="st0">
							
								<image style="overflow:visible;enable-background:new    ;" width="64" height="33" xlink:href="28E9E9AC7CB5C53E.png"  transform="matrix(0.985 0 0 0.985 137.8223 246.4573)">
							</image>
						</g>
					</g>
				</g>
			</g>
			
				<image style="overflow:visible;enable-background:new    ;" width="156" height="156" xlink:href="28E9E9AC7CB5C542.png"  transform="matrix(0.9949 0 0 0.9949 122.3817 122.3815)">
			</image>
			<g>
				<g>
					<g>
						<defs>
							<path id="SVGID_3_" d="M153.4,199.6v0.2v0.8c-0.3,8.6-7.5,15.2-16,15c-8.5-0.3-15.2-7.4-15-15.9v-0.4L153.4,199.6z"/>
						</defs>
						<clipPath id="SVGID_4_">
							<use xlink:href="#SVGID_3_"  style="overflow:visible;"/>
						</clipPath>
						<g class="st1">
							
								<image style="overflow:visible;enable-background:new    ;" width="34" height="64" xlink:href="28E9E9AC7CB5C545.png"  transform="matrix(0.9825 0 0 0.9825 120.4195 198.7379)">
							</image>
						</g>
					</g>
				</g>
			</g>
		</g>
	</g>
</g>
<g>
	<g>
		<g>
			<g>
				<g>
					<g>
						<defs>
							<path id="SVGID_5_" d="M215.5,123.9l0.4,0.1c8.4,1.6,14,9.7,12.4,18.1c-1.6,8.4-9.6,13.9-17.9,12.4l-0.8-0.1h-0.2
								L215.5,123.9z"/>
						</defs>
						<clipPath id="SVGID_6_">
							<use xlink:href="#SVGID_5_"  style="overflow:visible;"/>
						</clipPath>
						<g class="st2">
							
								<image style="overflow:visible;enable-background:new    ;" width="69" height="43" xlink:href="28E9E9AC7CB5C546.png"  transform="matrix(0.9792 0 0 0.9792 209.0294 123.4451)">
							</image>
						</g>
					</g>
				</g>
			</g>
			
				<image style="overflow:visible;enable-background:new    ;" width="154" height="156" xlink:href="28E9E9AC7CB5C544.png"  transform="matrix(0.9964 0 0 0.9964 122.4431 122.2964)">
			</image>
			<g>
				<g>
					<g>
						<defs>
							<path id="SVGID_7_" d="M245.6,209.8l0.1-0.2l0.2-0.8c2-8.3,10.4-13.4,18.7-11.4s13.4,10.3,11.5,18.6l-0.1,0.4L245.6,209.8z"
								/>
						</defs>
						<clipPath id="SVGID_8_">
							<use xlink:href="#SVGID_7_"  style="overflow:visible;"/>
						</clipPath>
						<g class="st3">
							
								<image style="overflow:visible;enable-background:new    ;" width="45" height="69" xlink:href="28E9E9AC7CB5C543.png"  transform="matrix(0.9845 0 0 0.9845 245.5715 149.1785)">
							</image>
						</g>
					</g>
				</g>
			</g>
		</g>
	</g>
</g>
<g>
	<path class="st4" d="M200,333.8L200,333.8c-74.7,0-135.7-61.1-135.7-135.7l0,0c0-74.7,61.1-135.7,135.7-135.7l0,0
		c74.7,0,135.7,61.1,135.7,135.7l0,0C335.7,272.7,274.7,333.8,200,333.8z"/>
	<g>
		<path class="st5" d="M262.1,199.8c-0.1-34.3-28-62-62.3-61.9c-34.3,0.1-62,28-61.9,62.3s28,62,62.3,61.9"/>
		<path class="st5" d="M137.9,200.2c0.1,34.3,28,62,62.3,61.9s62-28,61.9-62.3s-28-62-62.3-61.9"/>
	</g>
</g>
<circle class="st6" cx="219.5" cy="167.9" r="19.3"/>
</svg>
