<?xml version="1.0" encoding="utf-8"?>
<!-- Generator: Adobe Illustrator 24.1.0, SVG Export Plug-In . SVG Version: 6.00 Build 0)  -->
<svg version="1.1" id="Layer_1" xmlns="http://www.w3.org/2000/svg" xmlns:xlink="http://www.w3.org/1999/xlink" x="0px" y="0px"
	 viewBox="0 0 713 637.3" style="enable-background:new 0 0 713 637.3;" xml:space="preserve">
<style type="text/css">
	.st0{fill:#FCFCFC;}
	.st1{clip-path:url(#SVGID_2_);}
	.st2{fill:#C0FFC3;}
	.st3{fill:#FFCACA;}
	.st4{fill:#C7E6FF;}
	.st5{clip-path:url(#SVGID_4_);}
	.st6{fill:none;stroke:#FFFDFD;stroke-width:25;stroke-miterlimit:10;}
	.st7{clip-path:url(#SVGID_6_);}
	.st8{fill:none;stroke:#FFFFFF;stroke-width:25;stroke-miterlimit:10;}
	.st9{fill:#FFFFFF;}
</style>
<polygon class="st0" points="185.5,106.7 155.5,124.1 155.5,531.3 205.6,537.3 556.1,537.3 565.4,535.8 569.2,521.8 561.5,485.9 
	451.2,318.5 569.2,115.8 "/>
<g>
	<defs>
		<polygon id="SVGID_1_" points="185.5,106.7 155.5,124.1 155.5,531.3 205.6,537.3 556.1,537.3 565.4,535.8 569.2,521.8 
			561.5,485.9 451.2,318.5 569.2,115.8 		"/>
	</defs>
	<clipPath id="SVGID_2_">
		<use xlink:href="#SVGID_1_"  style="overflow:visible;"/>
	</clipPath>
	<g class="st1">
		<path class="st2" d="M609.4,192l-497.6,89c-18.3,3.2-30.5,20.7-27.2,39l18.3,102.5c3.2,18.3,20.7,30.5,39,27.2l497.6-88.9
			c18.2-3.2,30.5-20.7,27.1-39l-18.3-102.5C645,201,627.6,188.8,609.4,192z"/>
		<path class="st3" d="M564.2,27.8L73.6,115.4c-18,3.2-30,20.4-26.8,38.4l18,101.1c3.2,18,20.4,30,38.4,26.8l490.6-87.6
			c18-3.2,30-20.4,26.8-38.4l-18-101.1C599.4,36.6,582.2,24.6,564.2,27.8z"/>
		<path class="st4" d="M632,363.7l-490.6,87.6c-18,3.2-30,20.4-26.8,38.4l18,101.1c3.2,18,20.4,30,38.4,26.8L661.7,530
			c18-3.2,30-20.4,26.8-38.4l-18-101.1C667.3,372.4,650.3,360.3,632,363.7z"/>
	</g>
</g>
<g>
	<g>
		<g>
			<g>
				<g>
					<g>
						<g>
							<defs>
								<rect id="SVGID_3_" x="353.9" y="148.8" width="215.4" height="304"/>
							</defs>
							<clipPath id="SVGID_4_">
								<use xlink:href="#SVGID_3_"  style="overflow:visible;"/>
							</clipPath>
							<g class="st5">
								<path class="st6" d="M578.8,111.8c1.7-2.8,0.5-5.1-2.8-5.1H161.5c-3.3,0-6,2.7-6,6v418.7c0,3.3,2.7,6,6,6h418.7
									c3.3,0,4.5-2.3,2.7-5L451.4,328.6c-1.8-2.8-1.8-7.3-0.1-10.1L578.8,111.8z"/>
							</g>
						</g>
					</g>
				</g>
			</g>
			<g>
				<g>
					<g>
						<g>
							<defs>
								<polygon id="SVGID_5_" points="478.8,237.5 526,237.5 595,132 595,93.9 142.8,93.9 142.8,550 586.3,550 595,499.4 
									534.8,419.1 452.9,419.1 444.3,419.1 444.3,246 								"/>
							</defs>
							<clipPath id="SVGID_6_">
								<use xlink:href="#SVGID_5_"  style="overflow:visible;"/>
							</clipPath>
							<g class="st7">
								<path class="st8" d="M566.1,132.1c8.7-14,2.3-25.5-14.2-25.5H185.5c-16.5,0-30,13.5-30,30v370.7c0,16.5,13.5,30,30,30h370.7
									c16.5,0,22.7-11.3,13.7-25.2L464.4,348.8c-8.9-13.9-9.2-36.7-0.5-50.7L566.1,132.1z"/>
							</g>
						</g>
					</g>
				</g>
			</g>
		</g>
	</g>
	<path class="st9" d="M365.1,319.6"/>
</g>
</svg>
