<?xml version="1.0" encoding="utf-8"?>
<!-- Generator: Adobe Illustrator 24.1.0, SVG Export Plug-In . SVG Version: 6.00 Build 0)  -->
<svg version="1.1" id="Layer_1" xmlns="http://www.w3.org/2000/svg" xmlns:xlink="http://www.w3.org/1999/xlink" x="0px" y="0px"
	 viewBox="0 0 713 637.3" style="enable-background:new 0 0 713 637.3;" xml:space="preserve">
<style type="text/css">
	.st0{fill:#FCFCFC;}
	.st1{fill:#C0FFC3;stroke:#FCFCFC;stroke-width:7;stroke-miterlimit:10;}
	.st2{fill:#FFCACA;stroke:#FCFCFC;stroke-width:7;stroke-miterlimit:10;}
	.st3{fill:#C7E6FF;stroke:#FCFCFC;stroke-width:7;stroke-miterlimit:10;}
	.st4{clip-path:url(#SVGID_2_);}
	.st5{fill:none;stroke:#000000;stroke-width:25;stroke-miterlimit:10;}
	.st6{clip-path:url(#SVGID_4_);}
	.st7{fill:#FFFFFF;}
</style>
<path class="st0" d="M582.6,581.2H125.1c-16.4,0-29.7-13.3-29.7-29.7V93.9c0-16.4,13.3-29.7,29.7-29.7h457.5
	c16.4,0,29.7,13.3,29.7,29.7v457.5C612.3,567.8,599,581.2,582.6,581.2z"/>
<g>
	<polygon class="st0" points="185.5,106.7 155.5,124.1 155.5,531.3 205.6,537.3 556.1,537.3 565.4,535.8 569.2,521.8 561.5,485.9 
		451.2,318.5 569.2,115.8 	"/>
	<g>
		<g>
			<path class="st1" d="M491,227.2L46.9,306.6c-16.3,2.9-27.2,18.5-24.3,34.8l16.3,91.5c2.9,16.3,18.5,27.2,34.8,24.3l444.1-79.3
				C534,375,545,359.4,542,343.1l-16.3-91.5C522.8,235.2,507.3,224.3,491,227.2z"/>
			<path class="st2" d="M548.5,9.1L104.4,88.4c-16.3,2.9-27.2,18.5-24.3,34.8l16.3,91.5c2.9,16.3,18.5,27.2,34.8,24.3l444.1-79.3
				c16.3-2.9,27.2-18.5,24.3-34.8l-16.3-91.5C580.4,17.1,564.8,6.2,548.5,9.1z"/>
			<path class="st3" d="M657.3,398.2l-444.1,79.3c-16.3,2.9-27.2,18.5-24.3,34.8l16.3,91.5c2.9,16.3,18.5,27.2,34.8,24.3l444.1-79.3
				c16.3-2.9,27.2-18.5,24.3-34.8l-16.3-91.5C689.2,406.1,673.8,395.2,657.3,398.2z"/>
		</g>
		<g>
			<g>
				<g>
					<g>
						<defs>
							<rect id="SVGID_1_" x="353.9" y="148.8" width="215.4" height="304"/>
						</defs>
						<clipPath id="SVGID_2_">
							<use xlink:href="#SVGID_1_"  style="overflow:visible;"/>
						</clipPath>
						<g class="st4">
							<path class="st5" d="M578.8,111.8c1.7-2.8,0.5-5.1-2.8-5.1H161.5c-3.3,0-6,2.7-6,6v418.7c0,3.3,2.7,6,6,6h418.7
								c3.3,0,4.5-2.3,2.7-5L451.4,328.6c-1.8-2.8-1.8-7.3-0.1-10.1L578.8,111.8z"/>
						</g>
					</g>
				</g>
			</g>
			<g>
				<g>
					<g>
						<defs>
							<polygon id="SVGID_3_" points="478.8,237.5 526,237.5 595,132 595,93.9 142.8,93.9 142.8,550 586.3,550 595,499.4 
								534.8,419.1 452.9,419.1 444.3,419.1 444.3,246 							"/>
						</defs>
						<clipPath id="SVGID_4_">
							<use xlink:href="#SVGID_3_"  style="overflow:visible;"/>
						</clipPath>
						<g class="st6">
							<path class="st5" d="M566.1,132.1c8.7-14,2.3-25.5-14.2-25.5H185.5c-16.5,0-30,13.5-30,30v370.7c0,16.5,13.5,30,30,30h370.7
								c16.5,0,22.7-11.3,13.7-25.2L464.4,348.8c-8.9-13.9-9.2-36.7-0.5-50.7L566.1,132.1z"/>
						</g>
					</g>
				</g>
			</g>
		</g>
	</g>
	<path class="st7" d="M365.1,319.6"/>
</g>
</svg>
