<?xml version="1.0" encoding="utf-8"?>
<!-- Generator: Adobe Illustrator 24.1.0, SVG Export Plug-In . SVG Version: 6.00 Build 0)  -->
<svg version="1.1" id="Layer_1" xmlns="http://www.w3.org/2000/svg" xmlns:xlink="http://www.w3.org/1999/xlink" x="0px" y="0px"
	 viewBox="0 0 398 317" style="enable-background:new 0 0 398 317;" xml:space="preserve">
<style type="text/css">
	.st0{fill:url(#SVGID_1_);}
	.st1{fill:url(#SVGID_2_);stroke:#686868;stroke-miterlimit:10;}
</style>
<linearGradient id="SVGID_1_" gradientUnits="userSpaceOnUse" x1="44.6587" y1="250.2343" x2="351.2714" y2="73.2114">
	<stop  offset="0" style="stop-color:#ED64A6"/>
	<stop  offset="0.25" style="stop-color:#9F7AEA"/>
	<stop  offset="0.5" style="stop-color:#4299E1"/>
	<stop  offset="0.75" style="stop-color:#38B2AC"/>
	<stop  offset="1" style="stop-color:#48BB78"/>
</linearGradient>
<path class="st0" d="M208.8,241.9c-21.1,3.2-39-2.1-52.3-19.7c-4.6-6.1-9.6-19.1-9.9-27.5c-0.8-27-16.2-51.6-51.2-53.5
	c-30.5-1.1-50.2-24-49.7-53.7c0.5-27,21-48.7,47.6-50.5c28.9-1.9,53.3,17.7,56.1,47.5c2.5,27.1,14.2,44.8,40.4,54
	c7.5,2.6,12.8,2.7,19.1-0.5C209,172.7,208.9,207.3,208.8,241.9z M118.1,226.8c-5-11.6-15.9-20.2-28.4-22.2
	c-22.8-3.7-42.7,12.8-43.6,34.9c-1,22.3,14.6,39.8,36.1,40.6C107.9,281,129.9,253.9,118.1,226.8z M251.5,192.7
	c2.2-31.4,18.9-48.2,50.4-50.7c31.1-2.4,50.4-22.9,50.2-53.1c-0.1-27.1-20.2-49.2-46.6-51.4c-28.8-2.4-54.8,16.7-56.8,46.4
	c-1.9,28.1-14.9,44.7-39.7,54.3c-0.1,34.6-0.2,69.2-0.3,103.9C235.3,236.1,249.6,219.5,251.5,192.7z M349,226.7
	c-5-11.6-15.9-20.2-28.4-22.2c-22.8-3.7-42.7,12.8-43.6,34.9c-1,22.3,14.6,39.8,36.1,40.6C338.8,281,360.7,253.9,349,226.7z"/>
<linearGradient id="SVGID_2_" gradientUnits="userSpaceOnUse" x1="199" y1="158.5" x2="199" y2="158.5">
	<stop  offset="0" style="stop-color:#ED64A6"/>
	<stop  offset="0.25" style="stop-color:#9F7AEA"/>
	<stop  offset="0.5" style="stop-color:#4299E1"/>
	<stop  offset="0.75" style="stop-color:#38B2AC"/>
	<stop  offset="1" style="stop-color:#48BB78"/>
</linearGradient>
<path class="st1" d="M199,158.5"/>
</svg>
