<?xml version="1.0" encoding="utf-8"?>
<!-- Generator: Adobe Illustrator 23.1.0, SVG Export Plug-In . SVG Version: 6.00 Build 0)  -->
<svg version="1.1" id="Layer_1" xmlns="http://www.w3.org/2000/svg" xmlns:xlink="http://www.w3.org/1999/xlink" x="0px" y="0px"
	 viewBox="0 0 400 400" style="enable-background:new 0 0 400 400;" xml:space="preserve">
<style type="text/css">
	.st0{fill:#AD6D42;}
	.st1{fill:#BF7B4C;}
</style>
<g>
	<path class="st0" d="M309.7,80.2L309.7,80.2c0,13.7-11.2,24.8-24.8,24.8H115.6c-13.7,0-24.8-11.2-24.8-24.8v0
		c0-13.7,11.2-24.8,24.8-24.8h169.3C298.5,55.4,309.7,66.6,309.7,80.2z"/>
	<path class="st0" d="M157.8,121.1L157.8,121.1c19.7,0,35.8,16.1,35.8,35.8v82.4c0,19.7-16.1,35.8-35.8,35.8h0
		c-19.7,0-35.8-16.1-35.8-35.8v-82.4C122.1,137.2,138.2,121.1,157.8,121.1z"/>
	<path class="st0" d="M309.7,311.7L309.7,311.7c0,13.7-11.2,24.8-24.8,24.8H115.6c-13.7,0-24.8-11.2-24.8-24.8v0
		c0-13.7,11.2-24.8,24.8-24.8h169.3C298.5,286.9,309.7,298.1,309.7,311.7z"/>
	<path class="st1" d="M157.8,121.1L157.8,121.1c19.7,0,35.8,16.1,35.8,35.8v23.2c0,19.7-16.1,35.8-35.8,35.8h0
		c-19.7,0-35.8-16.1-35.8-35.8v-23.2C122.1,137.2,138.2,121.1,157.8,121.1z"/>
	<path class="st0" d="M244.9,275L244.9,275c-19.7,0-35.8-16.1-35.8-35.8v-82.4c0-19.7,16.1-35.8,35.8-35.8h0
		c19.7,0,35.8,16.1,35.8,35.8v82.4C280.6,258.9,264.5,275,244.9,275z"/>
	<path class="st1" d="M244.9,275L244.9,275c-19.7,0-35.8-16.1-35.8-35.8v-15.1c0-19.7,16.1-35.8,35.8-35.8h0
		c19.7,0,35.8,16.1,35.8,35.8v15.1C280.6,258.9,264.5,275,244.9,275z"/>
</g>
</svg>
