<?xml version="1.0" encoding="utf-8"?>
<!-- Generator: Adobe Illustrator 21.0.0, SVG Export Plug-In . SVG Version: 6.00 Build 0)  -->
<svg version="1.1" id="Layer_1" xmlns="http://www.w3.org/2000/svg" xmlns:xlink="http://www.w3.org/1999/xlink" x="0px" y="0px"
	 viewBox="0 0 175.6 175.2" style="enable-background:new 0 0 175.6 175.2;" xml:space="preserve">
<style type="text/css">
	.st0{fill:#FFFFFF;}
	.st1{fill:none;stroke:url(#SVGID_1_);stroke-width:15;stroke-miterlimit:10;}
</style>
<g>
	<path class="st0" d="M43.7,98.9c0-8.5-0.4-17.1,0.1-25.6c1-20.7,16.5-38,36.8-41.9c21.5-4.1,41.7,7.4,49,27.8
		c9.2,25.4-8.2,53.4-35.1,56.5c-2.6,0.3-5.1,0.5-7.7,0.4c-2.3-0.1-3.2,1-3.2,3.1c0,3.3,0.3,6.6-0.6,9.8
		c-2.4,9.8-11.8,16.6-21.3,15.4c-10.5-1.2-18-9.4-18.2-19.8c-0.1-8.6,0-17.2,0-25.8C43.7,98.9,43.7,98.9,43.7,98.9z"/>
</g>
<g>
	
		<linearGradient id="SVGID_1_" gradientUnits="userSpaceOnUse" x1="31.0704" y1="1074.9283" x2="124.5069" y2="981.4919" gradientTransform="matrix(1 0 0 1 0 -944)">
		<stop  offset="0" style="stop-color:#159FD5"/>
		<stop  offset="1" style="stop-color:#CC0A60"/>
	</linearGradient>
	<path class="st1" d="M43.7,98.9c0-8.5-0.4-17.1,0.1-25.6c1-20.7,16.5-38,36.8-41.9c21.5-4.1,41.7,7.4,49,27.8
		c9.2,25.4-8.2,53.4-35.1,56.5c-2.6,0.3-5.1,0.5-7.7,0.4c-2.3-0.1-3.2,1-3.2,3.1c0,3.3,0.3,6.6-0.6,9.8
		c-2.4,9.8-11.8,16.6-21.3,15.4c-10.5-1.2-18-9.4-18.2-19.8c-0.1-8.6,0-17.2,0-25.8C43.7,98.9,43.7,98.9,43.7,98.9z"/>
</g>
</svg>
