<?xml version="1.0" encoding="utf-8"?>
<!-- Generator: Adobe Illustrator 23.1.0, SVG Export Plug-In . SVG Version: 6.00 Build 0)  -->
<svg version="1.1" id="Layer_1" xmlns="http://www.w3.org/2000/svg" xmlns:xlink="http://www.w3.org/1999/xlink" x="0px" y="0px"
	 viewBox="0 0 400 400" style="enable-background:new 0 0 400 400;" xml:space="preserve">
<style type="text/css">
	.st0{clip-path:url(#SVGID_2_);}
	.st1{clip-path:url(#SVGID_4_);}
	.st2{clip-path:url(#SVGID_6_);}
	.st3{clip-path:url(#SVGID_8_);}
	.st4{fill:#FFFFFF;}
	.st5{fill:#7CDD86;}
	.st6{fill:#2A8861;}
</style>
<g>
	<g>
		<g>
			<g>
				<g>
					<g>
						<g>
							<defs>
								<path id="SVGID_1_" d="M200.2,277.6h-0.4c-8.6,0.2-15.6-6.6-15.8-15.2c-0.2-8.5,6.6-15.5,15.1-15.8h0.8h0.2L200.2,277.6z"/>
							</defs>
							<clipPath id="SVGID_2_">
								<use xlink:href="#SVGID_1_"  style="overflow:visible;"/>
							</clipPath>
							<g class="st0">
							</g>
						</g>
					</g>
				</g>
			</g>
			<g>
				<g>
					<g>
						<g>
							<defs>
								<path id="SVGID_3_" d="M153.4,199.6v0.2v0.8c-0.3,8.6-7.5,15.2-16,15c-8.5-0.3-15.2-7.4-15-15.9v-0.4L153.4,199.6z"/>
							</defs>
							<clipPath id="SVGID_4_">
								<use xlink:href="#SVGID_3_"  style="overflow:visible;"/>
							</clipPath>
							<g class="st1">
							</g>
						</g>
					</g>
				</g>
			</g>
		</g>
	</g>
</g>
<g>
	<g>
		<g>
			<g>
				<g>
					<g>
						<g>
							<defs>
								<path id="SVGID_5_" d="M215.5,123.9l0.4,0.1c8.4,1.6,14,9.7,12.4,18.1c-1.6,8.4-9.6,13.9-17.9,12.4l-0.8-0.1h-0.2
									L215.5,123.9z"/>
							</defs>
							<clipPath id="SVGID_6_">
								<use xlink:href="#SVGID_5_"  style="overflow:visible;"/>
							</clipPath>
							<g class="st2">
							</g>
						</g>
					</g>
				</g>
			</g>
			<g>
				<g>
					<g>
						<g>
							<defs>
								<path id="SVGID_7_" d="M245.6,209.8l0.1-0.2l0.2-0.8c2-8.3,10.4-13.4,18.7-11.4s13.4,10.3,11.5,18.6l-0.1,0.4L245.6,209.8z"
									/>
							</defs>
							<clipPath id="SVGID_8_">
								<use xlink:href="#SVGID_7_"  style="overflow:visible;"/>
							</clipPath>
							<g class="st3">
							</g>
						</g>
					</g>
				</g>
			</g>
		</g>
	</g>
</g>
<circle class="st4" cx="219.5" cy="167.9" r="19.3"/>
<g id="tMjiwI.tif">
	<g>
		<path class="st5" d="M250.6,276.9c-0.5,0.6-0.9,1-1.3,1.5c-7.4,7-14.8,14.1-22.2,21c-3.3,3.1-3.4,3-6.7-0.5
			c-6.2-6.6-12.4-13.1-18.6-19.8c-1.5-1.7-2.5-1.9-4.2-0.2c-12.4,12.5-24.8,24.8-37.2,37.3c-3,3-6,6.2-9.1,9.1
			c-1.6,1.5-1.2,2.5,0,3.7c2,1.9,3.8,4,6,5.8c1.6,1.3,1.3,1.8-0.5,2.3c-5.9,1.6-11.7,3.3-17.6,4.9c-12.9,3.6-25.9,7.1-38.8,10.7
			c-0.9,0.2-1.9,1-2.8,0.2c-0.8-0.8,0-1.9,0.2-2.8c4.1-15.5,8.2-30.9,12.3-46.4c0.8-3.2,1.6-6.4,2.3-9.6c0.5-2.3,1.5-2.3,2.9-0.8
			c1.5,1.6,3,3.3,4.6,4.9c1.3,1.3,2.5,1.8,4.2,0.1c11.1-11.1,22.3-22,33.5-33c10.7-10.5,21.3-21,32-31.4c2.3-2.2,4.6-4.4,6.9-6.7
			c1.2-1.2,2.2-1.3,3.5,0c7.7,7.6,15.5,15.1,23.2,22.7c8.6,8.4,17.2,16.8,25.7,25.2C249.5,275.6,250,276.2,250.6,276.9z"/>
		<path class="st5" d="M46.9,96.9c7.2,1.9,14,3.8,20.9,5.7c12.7,3.5,25.3,7,38,10.5c0.7,0.2,1.8,0.1,2,1.1c0.1,0.7-0.8,1.1-1.3,1.6
			c-1.9,1.9-3.7,3.9-5.7,5.7c-1.7,1.5-1.5,2.6,0,4.1c5.6,5.6,11.2,11.3,16.6,17.1c17.6,18.6,35.7,36.7,53.8,54.8
			c1.5,1.5,1.3,2.3,0,3.7c-7,7.2-14,14.6-21.2,21.7c-9,8.9-17.8,18-26.5,27.2c-1.6,1.7-2.4,1.5-4-0.1c-7.2-7.4-14.5-14.7-21.9-22
			c-1.4-1.4-1.4-2.2,0-3.6c7.4-7.7,14.7-15.5,22.1-23.1c1.5-1.5,1.5-2.4,0-3.9C108.3,186.1,96.9,175,85.3,164
			c-4-3.8-8-7.7-11.8-11.7c-1.7-1.8-2.7-1.7-4.2,0.1c-1.2,1.5-2.8,2.8-4.2,4.2c-2.3,2.2-2.5,2.2-3.2-0.8c-2-7.7-4-15.4-6-23.1
			c-3-11.5-6-23-9-34.5C46.9,97.9,46.9,97.6,46.9,96.9z"/>
		<path class="st6" d="M289.7,286.4c2.8-3.1,5.5-6.1,8.3-8.9c1.5-1.5,1.5-2.5,0-4c-8.7-8.6-17.3-17.3-26-26
			c-14.9-15-29.8-29.9-44.7-44.9c-2.7-2.7-2.7-2.7-0.1-5.4c12.3-12.6,24.6-25.2,36.9-37.9c3.2-3.3,6.4-6.5,9.5-9.8
			c1.1-1.2,1.8-1.2,3,0c7.9,8,15.9,16.1,23.9,24c1.8,1.8,0.6,2.7-0.5,3.8c-7.2,7.2-14.4,14.4-21.7,21.5c-1.5,1.5-1.6,2.2-0.1,3.8
			c13.4,13.3,26.7,26.7,40.1,40.1c1.6,1.6,3.2,3.1,4.7,4.8c1.2,1.3,2.1,1.7,3.4,0c1.6-2,3.6-3.7,5.3-5.7c1.5-1.8,2-1.1,2.5,0.7
			c2.8,9.4,5.6,18.7,8.3,28c2.8,9.5,5.7,19,8.5,28.6c0.2,0.7,0.8,1.4,0.3,2c-0.5,0.6-1.2,0.1-1.7-0.1c-19.6-4.7-39.2-9.3-58.8-14
			C290.5,286.9,290.2,286.7,289.7,286.4z"/>
		<path class="st5" d="M240.5,62.1c9.8-2.4,19.6-4.8,29.3-7.3c9.4-2.4,18.9-4.9,28.3-7.3c1.1-0.3,2.5-1.2,3.3-0.4
			c0.9,0.9-0.2,2.1-0.5,3.2c-4.9,17.6-9.9,35.3-14.9,52.9c-0.4,1.4-0.3,3.6-1.6,4c-1.4,0.4-2.3-1.6-3.4-2.6c-1.5-1.4-3-2.8-4.3-4.4
			c-1.6-2-2.8-2.1-4.7-0.1c-12.5,12.7-25.2,25.3-37.8,37.9c-11.1,11.2-22.3,22.3-33.4,33.5c-2.5,2.5-2.5,2.5-5.1,0
			c-12.1-11.9-24.2-23.9-36.4-35.7c-3.6-3.5-7.2-7-10.8-10.4c-1.2-1.1-1.2-1.8-0.1-3c7.7-7.9,15.2-15.9,22.8-23.8
			c1.2-1.3,1.8-1.5,3.3-0.1c7.7,6.6,14.5,14,21.8,21c0.1,0.1,0.2,0.3,0.4,0.4c2.9,2.9,2.9,2.9,5.8,0c15.1-15.1,30.1-30.2,45.3-45.2
			c1.7-1.7,1.8-2.7,0-4.3c-2.7-2.4-5.2-4.9-7.8-7.3C240.2,62.6,240.4,62.3,240.5,62.1z"/>
	</g>
</g>
</svg>
