<?xml version="1.0" encoding="utf-8"?>
<!-- Generator: Adobe Illustrator 24.1.0, SVG Export Plug-In . SVG Version: 6.00 Build 0)  -->
<svg version="1.1" id="Layer_1" xmlns="http://www.w3.org/2000/svg" xmlns:xlink="http://www.w3.org/1999/xlink" x="0px" y="0px"
	 viewBox="0 0 450 149" style="enable-background:new 0 0 450 149;" xml:space="preserve">
<style type="text/css">
	.st0{fill:#FFFFFF;}
	.st1{fill:#FE9401;}
</style>
<g id="_x32_v68sO.tif">
	<g>
		<path class="st0" d="M449.8,83.2c-0.6,1.5-1.7,2-3.3,2c-4.3,0-8.7,0-13,0c-1.9,0-2.9-0.9-2.9-2.9c0-14.4,0-28.8,0-43.2
			c0-2.6-0.1-5.1-0.8-7.7c-0.9-3.4-2.8-5.9-6.5-6.3c-3.7-0.5-6.5,1.1-8.6,4.3c-1.6,2.5-2.3,5.3-2.6,8.1c-0.3,2.4-0.3,4.7-0.3,7.1
			c0,12.5,0,25.1,0,37.5c0,2-1,3-3,3c-4.4,0-8.7,0-13.1,0c-2,0-2.9-1-2.9-2.9c0-23.5,0-46.8,0-70.3c0-2,1-3,3-3c4.1,0,8.1,0,12.1,0
			c2,0,2.9,1,2.9,2.9c0,3,0,6,0,9c0,0.2-0.1,0.6,0.2,0.9c0.3-0.8,0.7-1.6,1-2.3c1.7-3.5,3.7-6.8,7.1-9c3.5-2.4,7.3-3,11.5-2.9
			c4.4,0.1,8.5,1.2,11.9,4.1c3.6,2.9,5.5,6.8,6.4,11.3c0.5,2.5,0.8,5,0.9,7.5c0,0.1-0.1,0.3,0.2,0.5
			C449.8,48.2,449.8,65.7,449.8,83.2z"/>
		<path class="st1" d="M179.5,142.1c-1.6-0.2-3.2-0.1-4.9-0.2c-10-0.5-20-1.7-29.8-3.7c-13.2-2.8-26-7.1-38.3-12.9
			c-15.2-7.2-29.1-16.5-41.8-27.8c-0.5-0.3-0.9-0.7-1.1-1.2c-0.5-0.8-0.6-1.6-0.1-2.4c0.5-0.7,1.4-1,2.4-0.8
			c0.5,0.1,0.9,0.3,1.4,0.6c18.7,10.8,38.7,18.7,59.7,23.9c9.6,2.4,19.2,4.2,29,5.4c8.5,1,17,1.6,25.6,1.8c9,0.1,17.9-0.2,26.9-1.2
			c17.3-1.8,34.2-5.5,50.7-11.1c5.3-1.8,10.5-3.7,15.6-5.9c1.1-0.5,2.4-0.8,3.6-0.5c2.5,0.7,3.3,3.3,1.8,5.3
			c-0.5,0.7-1.1,1.1-1.8,1.6c-9.4,6.8-19.6,12.2-30.5,16.4c-11.7,4.6-23.8,8-36.2,10c-8.6,1.5-17.3,2.4-26.1,2.5
			c-0.2,0-0.5,0.1-0.6,0.1C183.2,142.1,181.4,142.1,179.5,142.1z"/>
		<path class="st0" d="M95.2,20.6c3.2-8.4,8.9-13.1,18.1-13.2c9.3-0.2,14.8,4.9,18.3,13c0.3-0.1,0.3-0.3,0.5-0.6
			c3.5-8.2,11.2-13,20.1-12.3c5.6,0.3,10.5,2.5,14.2,6.9c2.4,2.8,3.5,6.2,4,9.7c0.6,4.1,0.5,8,0.2,12.1c0,0.3,0,0.6,0,0.9
			c0,15,0,30,0,44.9c0,2.4-0.9,3.3-3.2,3.3c-4.3,0-8.7,0-13,0c-1.9,0-2.9-1-2.9-2.9c0-13,0-26.1,0-39.1c0-3.5,0.2-7.1-0.2-10.6
			c-0.9-6.8-7.8-9.6-13.4-5.5c-2.5,1.8-3.6,4.3-4.1,7.2c-0.5,3-0.6,6.2-0.6,9.3c0,12.9,0,25.7,0,38.6c0,2.1-1,3-3,3
			c-4.4,0-8.8,0-13.2,0c-1.9,0-2.9-1-2.9-2.9c0-12.5,0-25.1,0-37.6c0-3.4,0.2-6.8-0.1-10.3c-0.1-1.2-0.3-2.4-0.7-3.5
			c-1.5-4.6-4.7-6.2-9.3-5.6c-3.5,0.5-5.6,2.7-6.7,5.9C96.3,34,96,36.8,96,39.6c0,14.1,0,28.3,0,42.4c0,2.4-0.9,3.3-3.3,3.3
			c-4.3,0-8.7,0-13,0c-1.9,0-2.9-0.9-2.9-2.9c0-23.5,0-47,0-70.4c0-2,1-3,3-3c4.1,0,8.1,0,12.2,0c1.9,0,2.9,1,2.9,2.9
			c0,2.6,0,5.2,0,7.8C95,20,94.9,20.3,95.2,20.6z"/>
		<path class="st0" d="M43.9,76.2c-1.7,1.7-3.4,3.3-5.2,4.6c-4.3,3.4-9.3,5.1-14.8,5.3c-4,0.2-7.8,0-11.5-1.4
			c-5.5-2.1-9.3-6-11.1-11.6C-0.5,67-0.5,60.8,1.8,54.7C4.5,48.3,9.3,44,15.7,41.5c4.2-1.7,8.6-2.5,13-3.2c3.8-0.6,7.6-0.9,11.4-1.2
			c0.9-0.1,1.2-0.3,1.1-1.4c-0.1-2.3,0.1-4.5-0.3-6.8c-0.8-4.4-3-6.8-7.6-7.5c-3.8-0.6-7.5,0.3-10.3,3.2c-1.4,1.4-2.1,3-2.6,4.9
			C20,31.7,19,32.4,16.9,32c-4-0.5-7.9-0.9-12-1.2c-1.8-0.2-2.7-1.5-2.4-3.2C4.4,18.3,10.1,12.2,19,8.9c4.3-1.6,8.8-2.3,13.4-2.4
			C37.8,6.4,43,7.1,48,9.2c7.2,3,11.5,8.4,12.4,16.3c0.2,1.9,0.3,4,0.3,6c0,8.9,0.1,17.8,0,26.9c0,4.4,1.1,8.4,3.8,11.7
			c0.6,0.7,1.1,1.4,1.6,2.1c0.9,1.5,0.8,2.7-0.6,3.8c-3.3,2.8-6.5,5.5-9.7,8.5c-1.4,1.2-3.2,1.5-4.7,0.1c-2.5-2.3-4.6-4.7-6.4-7.6
			C44.5,76.9,44.3,76.5,43.9,76.2z M41.2,53.5c0-1.8,0-3.3,0-4.6c0-0.6-0.1-0.7-0.7-0.7c-3.3,0.1-6.4,0.2-9.6,1.1
			c-3.4,0.9-6.3,2.4-8.4,5.3c-2,3-2.5,6.5-1.9,10c1,6.5,7.2,9.5,13,6.2c2.9-1.7,4.6-4.3,5.9-7.2C41,60.3,41.1,56.8,41.2,53.5z"/>
		<path class="st0" d="M243.2,43.4c0,5.8,0.1,10.4,0,14.9s1.2,8.5,4.1,12c0.6,0.7,1.1,1.5,1.6,2.3c0.7,1.4,0.5,2.4-0.7,3.4
			c-3.3,2.8-6.5,5.6-9.8,8.5c-1.4,1.2-3.2,1.6-4.9,0c-2.5-2.3-4.6-4.9-6.4-7.7c-0.3-0.7-0.6-0.8-1.2-0.1c-2.8,2.8-5.9,5.5-9.6,7.1
			c-4.7,2.1-9.7,2.5-14.8,2.1c-3.8-0.2-7.6-1.4-10.7-3.7c-4.2-2.9-6.4-7.1-7.5-12c-1.1-5.6-0.8-11.2,1.6-16.6
			c2.9-6.5,8.1-10.5,14.7-12.9c4.2-1.5,8.6-2.3,13-2.8c3.4-0.5,6.8-0.8,10.2-1.1c0.8-0.1,1-0.3,1-1.1c-0.1-2.1,0.1-4.2-0.1-6.3
			c-0.6-4.7-3.5-7.7-8.2-8.1c-2.7-0.2-5.3,0.2-7.7,1.7s-3.8,3.5-4.4,6.1c-0.1,0.7-0.3,1.2-0.7,1.8c-0.6,0.9-1.4,1.4-2.5,1.2
			c-4.3-0.5-8.5-0.9-12.8-1.4c-1.8-0.2-2.6-1.5-2.3-3.3c1.5-7.1,5.2-12.6,11.5-16.3c4.3-2.5,9-3.8,14-4.3c6-0.7,11.9-0.3,17.6,1.5
			c4.9,1.6,8.9,4.1,11.9,8.4c1.9,2.8,2.7,6.1,3,9.5C243.4,32.4,243,38.5,243.2,43.4z M223.5,52.6c0-1.2,0-2.6,0-3.8
			c0-0.5-0.1-0.7-0.6-0.7c-3.3,0-6.4,0.2-9.6,1.1c-3.5,0.9-6.7,2.5-8.6,5.8c-1.7,2.8-2,6-1.7,9.3c0.8,7,7.6,10.3,13.5,6.4
			c2.9-1.8,4.6-4.6,5.8-7.8C223.5,59.5,223.7,56.1,223.5,52.6z"/>
		<path class="st0" d="M382.3,47.5c0,8.1-1.5,15.9-5.4,23c-4.1,7.3-9.8,12.8-18.1,14.9c-9.9,2.7-19.2,1.1-27.2-5.6
			c-4.9-4.2-7.9-9.5-9.8-15.5c-2.3-6.8-2.9-13.9-2.6-21c0.3-6.2,1.6-12.3,4.1-17.9c2.8-6.2,6.9-11.3,12.9-14.6
			c5.1-2.8,10.6-3.8,16.4-3.4c10.7,0.7,18.6,6,23.8,15.2c2.9,5.2,4.5,10.8,5.3,16.7C382,42.1,382.3,44.8,382.3,47.5z M339.6,45.9
			c0.1,4.4,0.1,8.9,0.9,13.2c0.6,3,1.2,6.1,2.9,8.7c1,1.7,2.4,2.9,4.3,3.6c4.3,1.5,8.8-0.5,11-4.7c2-4,2.6-8.2,2.8-12.5
			c0.3-5.8,0.3-11.5-0.3-17.3c-0.3-3.4-0.9-6.7-2.3-9.7c-2.7-6.4-12.1-6.7-15.5-1.5c-1.4,2.1-2.3,4.4-2.8,6.9
			C339.7,36.9,339.7,41.4,339.6,45.9z"/>
		<path class="st0" d="M286.4,24.1c-0.3-0.1-0.7-0.1-0.9-0.1c-7.5,0-14.9,0-22.2,0c-2.1,0-3.2-0.9-3.2-3c0-3.2,0-6.3,0-9.5
			c0-1.9,1-2.8,2.8-2.8c15.1,0,30.1,0,45.3,0c1.9,0,2.8,1,2.8,2.8c0,2.5-0.1,5.1,0,7.6c0,1.5-0.3,2.7-1.1,4c-2.3,3.6-4.9,7-7.3,10.5
			c-6,8.6-12.1,17.2-18.1,25.9c-0.1,0.2-0.5,0.5-0.3,0.8c2.4,0,4.6,0,7,0.2c6.5,0.6,12.8,2,18.5,5.2c1.8,1,2.7,2.5,2.7,4.5
			c0,3.4,0,6.9,0,10.3c0,2.4-1.7,3.4-3.8,2.4c-15.8-7.5-31.5-7.6-47.3,0c-2.1,1-3.8,0-3.8-2.4c0-3.6,0-7.3,0-11
			c0-2.5,0.7-4.7,2.1-6.8c8.8-12.6,17.6-25.3,26.4-37.9C286.2,24.6,286.4,24.5,286.4,24.1z"/>
		<path class="st1" d="M278.1,97.6c-5.4,0-11,0.6-16.4,1.2c-0.9,0.1-1.8,0.2-2.7,0.2c-0.7,0-1.2-0.1-1.6-0.7
			c-0.3-0.7-0.1-1.2,0.2-1.8c0.3-0.6,0.9-1,1.5-1.4c5-3.3,10.4-5.2,16.1-6.1c6.4-1.1,13-1.2,19.4,0c1.7,0.3,3.3,0.7,4.7,1.4
			c1.4,0.6,2.1,1.6,2.3,3c0.5,3.3,0.1,6.4-0.6,9.7c-1.6,8-4.5,15.5-9.3,22.1c-1.6,2.1-3.4,4.1-5.4,5.9c-0.6,0.6-1.2,1-2,1.1
			c-1.1,0.2-1.7-0.5-1.7-1.5c0-0.6,0.2-1.1,0.5-1.6c2.1-5.5,4.4-11.1,6-16.7c0.9-3.2,1.7-6.3,1.6-9.6c-0.1-2-1-3.5-3-4.2
			c-2.6-0.9-5.3-1-8-1.1C279.2,97.6,278.6,97.6,278.1,97.6z"/>
	</g>
</g>
</svg>
