<?xml version="1.0" encoding="utf-8"?>
<!-- Generator: Adobe Illustrator 23.1.0, SVG Export Plug-In . SVG Version: 6.00 Build 0)  -->
<svg version="1.1" id="Layer_1" xmlns="http://www.w3.org/2000/svg" xmlns:xlink="http://www.w3.org/1999/xlink" x="0px" y="0px"
	 viewBox="0 0 107.6 114" style="enable-background:new 0 0 107.6 114;" xml:space="preserve">
<style type="text/css">
	.st0{fill:#0C2E4D;}
	.st1{fill:#0B2D4C;}
</style>
<g id="rhqeoD.tif">
	<g>
		<path class="st0" d="M49.7,105c-1-0.5-2.1-0.4-3.1-0.5C25.3,101.3,8.5,83.9,6,62.6c-3-25.7,14.4-49.2,39.9-53.5
			c14.3-2.4,27.2,1.2,38.5,10.2c0.5,0.4,1,0.6,1.7,0.5c2.5-0.5,5.1,0.9,6.3,3.2c1.2,2.4,0.7,5.3-1.2,7.1c-1.9,1.8-4.8,2.2-7.1,0.9
			c-2.3-1.3-3.6-3.9-3-6.5c0.3-1,0-1.5-0.8-2C54.7,2.7,17,17.1,11.3,49.1c-4.4,24.2,12.7,47.4,37,50.5c23.5,3,44.8-13.1,48.4-36.5
			c0.9-6,0.5-11.9-1-17.7c-0.5-1.9,0.6-3.5,2.5-3.4c1.1,0.1,2,0.8,2.3,2c0.7,2.6,1.2,5.2,1.5,7.9c0,0.2-0.1,0.5,0.2,0.6
			c0,2.9,0,5.8,0,8.7c-0.3,0.1-0.2,0.4-0.2,0.6c-0.2,1.3-0.3,2.5-0.6,3.8c-3.5,19.9-20.2,36-40.1,38.9c-1.1,0.2-2.2,0.1-3.2,0.6
			C55.3,105,52.5,105,49.7,105z"/>
		<path class="st1" d="M31.7,75.8c0.3-0.9,0.6-1.7,0.9-2.4c5.1-13.3,10.2-26.5,15.3-39.8c0.3-0.8,0.6-1.1,1.5-1c3.2,0.1,6.4,0,9.7,0
			c0.6,0,0.9,0.2,1.1,0.7c5.3,13.9,10.7,27.8,16.1,41.7c0.1,0.2,0.1,0.4,0.2,0.8c-3.4,0-6.6,0-9.9,0c-0.6,0-0.6-0.5-0.8-0.9
			c-2.9-8.1-5.8-16.3-8.6-24.4c-0.9-2.5-1.8-5.1-2.7-7.6c-0.1-0.3-0.1-0.6-0.5-0.8c-0.8,2.2-1.6,4.4-2.4,6.6
			c-1.3,3.6-2.6,7.2-3.9,10.8c-0.3,0.9-0.1,1,0.8,1c2.8,0,5.6,0,8.4,0c0.6,0,0.9,0.2,1.1,0.7c0.7,2.2,1.5,4.4,2.3,6.5
			c0.3,0.7,0.1,0.8-0.6,0.8c-4.6,0-9.3,0-13.9,0c-0.7,0-1.1,0.2-1.3,0.9c-0.7,1.9-1.4,3.8-2.1,5.8c-0.1,0.4-0.2,0.7-0.8,0.7
			C38.3,75.8,35.1,75.8,31.7,75.8z"/>
	</g>
</g>
</svg>
