<?xml version="1.0" encoding="utf-8"?>
<!-- Generator: Adobe Illustrator 23.1.0, SVG Export Plug-In . SVG Version: 6.00 Build 0)  -->
<svg version="1.1" id="Layer_1" xmlns="http://www.w3.org/2000/svg" xmlns:xlink="http://www.w3.org/1999/xlink" x="0px" y="0px"
	 viewBox="0 0 107.6 114" style="enable-background:new 0 0 107.6 114;" xml:space="preserve">
<style type="text/css">
	.st0{fill:#696969;}
	.st1{fill:#2E2E2E;}
	.st2{fill:#4D4D4D;}
	.st3{fill:#3F3E3D;}
	.st4{fill:#F1C500;}
</style>
<g id="sVkNb6.tif">
	<g>
		<path class="st0" d="M63.6,101.1c-1.7,1.4-3.9,1.5-5.8,2.4c-2.3,0-4.5,0-6.8,0c-0.1-0.5-0.5-0.5-0.8-0.6c-2.7-0.7-5-2.1-7.2-3.7
			c-6.3-4.9-12.5-9.7-18.8-14.6c-4.2-3.3-8.8-6.1-11-11.3c0-6.4,0-12.8,0-19.2c0.5,3.1,1.8,5.7,4.3,7.6c4.9,3.9,9.9,7.7,14.9,11.6
			c3.1,2.6,6.3,5.2,9.6,7.5c2.4,2.2,5.1,3.7,8.2,4.6c1.7,0.5,3.5,0.2,5.2,0.6c0.9,0.2,1.2,0.5,1.2,1.3c0,1.6-0.2,3.1-0.1,4.7
			c0.2,2.3,0.6,2.6,2.8,2c0.7-0.2,1.4-0.3,1.9-0.9c0.5-0.1,0.9-0.2,1.4-0.4c0.2,1.8,0.5,3.6,0.2,5.4
			C62.7,99.3,62.3,100.4,63.6,101.1z"/>
		<path class="st1" d="M13.3,42.7c2.2-5,6.6-7.8,10.7-11c3.8-3,7.6-5.9,11.4-8.8c-0.6,1.8,0,3.4,0.8,5c-2,0.1-3.1,1.2-3.6,3.1
			c-0.4,1.6-1.2,3-1.8,4.5c-0.8,0.1-1.3,0.6-1.8,1c-3.2,2.5-6.3,5.1-9.5,7.6c-1.8,1.4-3.6,2.9-4.7,4.9c-0.3-0.1-0.6-0.2-1-0.4
			c-0.4-1.5,0.2-3.1-0.5-4.6C13.3,43.6,13.3,43.1,13.3,42.7z"/>
		<path class="st2" d="M13.8,48.7c0.3,0.1,0.6,0.2,1,0.4c0.6,2.3,2.5,3.5,4.2,4.9c3.9,3.2,8.1,6.3,12.1,9.5c0.7,0.5,1.8,0.9,1.8,1.8
			c0,2.7,0.5,5.4-0.3,8.1c-5-3.9-10-7.7-14.9-11.6c-2.5-1.9-3.8-4.6-4.3-7.6c0-1.8,0-3.6,0-5.3C13.5,48.7,13.6,48.7,13.8,48.7z"/>
		<path class="st0" d="M13.8,48.7c-0.2,0-0.3,0-0.5,0c0-1.5,0-3.1,0-4.6C14,45.6,13.4,47.2,13.8,48.7z"/>
		<path class="st1" d="M96.2,47.3c0,6,0,12.1-0.1,18.1c-0.3,0-0.5,0.2-0.7,0.5c-1.2,3-3.8,4.8-6.2,6.7c-4.6,3.6-9.2,7.3-13.8,10.8
			c-3.5,2.7-6.9,5.6-10.6,8c0.2-1.9-0.3-3.7,0-5.6c0.3-2.5,0-2.7-2.3-1.6c-1.1,0.5-1.7,0.4-1.6-1.1c0.1-1.9,0.1-3.8,0-5.7
			c0-1.1,0.5-1.8,1.5-2.2c1.7-0.6,3.2-1.7,4.5-2.8c7.2-6.1,14.9-11.4,22.2-17.3c2.2-1.8,4.7-3.2,5.7-6.1
			C95.7,48.8,95.1,47.4,96.2,47.3z"/>
		<path class="st2" d="M41.7,17.8c5.6-4.9,11.8-6.9,19-4.3c1.5,0.5,3,1.3,4.3,2.3c4.9,3.5,9.6,7.3,14.3,11.1c-0.9,0.4-1,1.2-1,2.1
			c0,1.5,0,3,0,4.6c-0.6-0.4-1.2-0.6-1.9-0.4c-2.2-1.7-4.6-3-6.3-5.2c-0.1-0.7-0.6-1.1-1.1-1.5c-1.2-1-2.6-1.9-3.7-2.9
			c-1.3-1.2-2.7-1.4-4.4-0.8c-3.6-1.9-7.3-1.6-11-0.7c-2.9,0.7-5.3,2.4-7.8,4.2C41.4,23.3,42,20.5,41.7,17.8z"/>
		<path class="st2" d="M64.9,91.4c3.7-2.4,7.1-5.3,10.6-8c4.6-3.6,9.2-7.2,13.8-10.8c2.4-1.9,4.9-3.7,6.2-6.7
			c0.1-0.3,0.3-0.5,0.7-0.5c0,2.2,0.2,4.4,0,6.6c-0.1,2.6-1.5,4.7-3.4,6.5c-3.5,3.3-7.3,6-11.1,8.9c-5.1,4-10.1,7.9-15.2,11.9
			c-0.9,0.7-2,1.3-2.9,1.9c-1.2-0.7-0.8-1.8-0.7-2.8c0.3-1.8,0.1-3.6-0.2-5.4C63.5,92.4,64.2,91.9,64.9,91.4z"/>
		<path class="st0" d="M78.4,33.5c0-1.5,0-3,0-4.6c0-0.8,0.1-1.7,1-2.1c4.5,3.3,8.9,6.7,13.1,10.3c3.1,2.7,4.1,6.1,3.7,10.1
			c-1.1,0.1-0.4,1.5-1.4,1.7c-2.8-4.1-6.9-6.8-11-9.6c0.5-0.9,0.1-1.5-0.6-2C81.6,36.1,80,34.8,78.4,33.5z"/>
		<path class="st3" d="M41.7,17.8c0.3,2.7-0.4,5.4,0.5,8.3c2.5-1.7,4.9-3.4,7.8-4.2c3.7-0.9,7.4-1.3,11,0.7
			c-1.8,0.4-3.7,0.8-5.5,1.2c-0.8,0.2-1.8,0.2-2,1.4c-3.1,0.6-6.2,1.2-9.3,1.8c-0.7-0.6-1.5-0.4-2.3-0.3c-1.9,0.4-3.8,0.8-5.6,1.1
			c-0.8-1.6-1.4-3.2-0.8-5C37.3,21,39.5,19.4,41.7,17.8z"/>
		<path class="st3" d="M83.9,39.4c4,2.8,8.1,5.5,11,9.6c-1,2.9-3.6,4.3-5.7,6.1c-7.2,6-15,11.3-22.2,17.3c-1.3,1.1-2.8,2.2-4.5,2.8
			c-1,0.4-1.5,1-1.5,2.2c0.1,1.9,0.1,3.8,0,5.7c-0.1,1.5,0.5,1.6,1.6,1.1c2.2-1,2.6-0.9,2.3,1.6c-0.3,1.9,0.3,3.7,0,5.6
			c-0.7,0.5-1.4,1-2.2,1.4c-0.5,0.1-0.9,0.2-1.4,0.4c0.6-2.4-0.3-4.8,0-7.2c0.1-0.8-0.4-1.1-1.1-1c-0.9,0-1.1-0.5-1.1-1.3
			c0-1.7,0-3.3,0-5c0-1.4-0.5-2-2-2c-2.1,0.1-4.3,0.2-6.4-0.2c-2.5-0.4-4.8-1.7-6.8-3.2c-0.9-0.7-1.3-0.7-1.6,0.6
			c-0.5,2.2-0.1,4.5-0.2,6.7c-3.4-2.3-6.5-4.9-9.6-7.5c0.8-2.7,0.3-5.4,0.3-8.1c0-0.9-1.2-1.3-1.8-1.8c-4-3.2-8.1-6.2-12.1-9.5
			c-1.6-1.4-3.5-2.6-4.2-4.9c1.1-2.1,2.9-3.5,4.7-4.9c3.2-2.5,6.3-5.1,9.5-7.6c0.5-0.4,1.1-1,1.8-1c0.3,0.3,0.5,0.7,0.8,1
			c-1.6,2.1-2.1,4.7-2.9,7.1c-0.9,0.1-1.3,0.7-1.5,1.5c-0.6,1.7-1.2,3.3-1.9,4.9c-0.4,1-0.2,1.5,0.6,2.1c1.9,1.5,3.8,3,5.7,4.5
			c2.8,1.8,5.3,4,7.9,5.9c1.3,1.4,3,2.3,4.4,3.6c1.7,1.7,3.6,2.1,5.8,1.3c2.2-0.9,4.7-0.6,6.7-2c1.2,0.1,2.4-0.3,3.6-0.5
			c2.1-0.4,4.2-1.2,6.3-1.3c2.7-0.7,5.5-1.3,8.2-2c1.8-0.5,4.2-6.6,3.2-8.3c0.6,0,0.7-0.5,0.9-0.9c0.8-2.2,1.6-4.4,2.4-6.6
			C82.6,44,82.8,41.5,83.9,39.4z"/>
		<path class="st2" d="M42.1,80.8c0.1-2.2-0.2-4.5,0.2-6.7c0.3-1.3,0.7-1.3,1.6-0.6c2.1,1.5,4.3,2.8,6.8,3.2
			c2.1,0.3,4.3,0.2,6.4,0.2c1.5,0,2,0.6,2,2c0,1.7,0,3.3,0,5c0,0.8,0.1,1.3,1.1,1.3c0.7,0,1.2,0.3,1.1,1c-0.3,2.4,0.7,4.8,0,7.2
			c-0.5,0.6-1.2,0.7-1.9,0.9c-2.2,0.6-2.6,0.2-2.8-2c-0.1-1.6,0.1-3.2,0.1-4.7c0-0.9-0.3-1.1-1.2-1.3c-1.7-0.4-3.5-0.1-5.2-0.6
			C47.2,84.5,44.5,83,42.1,80.8z"/>
		<path class="st4" d="M31.5,36.5c-0.3-0.3-0.5-0.7-0.8-1c0.6-1.5,1.4-3,1.8-4.5c0.5-1.9,1.6-3,3.6-3.1c1.9-0.4,3.8-0.7,5.6-1.1
			c0.8-0.2,1.6-0.3,2.3,0.3c0,0.3,0,0.7-0.1,1c-2.1,1.1-4.5,0.9-6.8,1.9c1.4,1.1,2.7,2.2,4,3.2c0.6,0.5,1.1,0.9,0.8,1.7
			c-0.3,0.1-0.7,0.3-1,0.4c-1.9-0.5-3.1-2-4.6-3.2c-1-0.8-1.4-0.9-1.9,0.5c-0.5,1.4-0.7,3-2,4C32.2,36.6,31.8,36.5,31.5,36.5z"/>
		<path class="st4" d="M83.9,39.4c-1.1,2.1-1.3,4.6-2.9,6.5c-0.4,0-0.9-0.1-1.3-0.1c-0.5-0.6-0.4-1.2-0.1-1.8c0.5-1.2,0.9-2.5,1.5-4
			c-2.5,0.5-4.7,1-6.9,1.5c-0.2-0.3-0.4-0.7-0.7-1c0.2-0.8,0.9-1,1.6-1.1c1.7-0.4,3.4-0.8,5.4-1.3c-1.2-1-2.1-1.7-3.1-2.5
			c-0.6-0.5-1.5-0.8-1.4-1.9c0.2-0.2,0.4-0.4,0.6-0.6c0.7-0.2,1.3,0,1.9,0.4c1.6,1.3,3.2,2.6,4.8,3.8C83.9,37.9,84.4,38.5,83.9,39.4
			z"/>
		<path class="st4" d="M53.5,25.2c0.2-1.1,1.2-1.2,2-1.4c1.8-0.4,3.7-0.8,5.5-1.2c1.6-0.5,3-0.4,4.4,0.8c1.1,1.1,2.5,2,3.7,2.9
			c0.5,0.4,1.1,0.8,1.1,1.5c-0.6,0.6-1.2,0.9-2.1,0.7c-1.1-0.9-2.2-1.7-3.3-2.6c-0.8-0.7-1.2-0.7-1.7,0.4c-0.6,1.4-0.7,3.1-2.1,4.2
			c-0.3,0-0.7,0-1,0c-0.5-0.5-0.8-0.9-0.4-1.7c0.4-0.7,0.6-1.4,0.8-2.1c0.2-0.6,0.9-1.2,0.4-1.7c-0.4-0.4-1.1,0.1-1.7,0.1
			c-1.7,0.2-3.4,1.1-5.2,0.8C53.8,25.6,53.6,25.4,53.5,25.2z"/>
		<path class="st1" d="M68.1,28.6c0.9,0.3,1.5-0.1,2.1-0.7c1.7,2.2,4.1,3.6,6.3,5.2c-0.2,0.2-0.4,0.4-0.6,0.6
			c-0.6,0.1-1.1-0.3-1.6-0.6C72.2,31.7,70.4,29.8,68.1,28.6z"/>
		<path class="st1" d="M53.5,25.2c0.2,0.2,0.3,0.4,0.5,0.6c-3.2,1.2-6.5,1.7-9.9,2.2c0-0.3,0-0.7,0.1-1
			C47.2,26.4,50.4,25.8,53.5,25.2z"/>
		<path class="st4" d="M56.2,65.5c-2,1.4-4.5,1.2-6.7,2c-2.2,0.9-4.1,0.5-5.8-1.3c-1.3-1.3-3.1-2.2-4.4-3.6c0.2-0.4,0.4-0.7,0.6-1.1
			c0.9-0.2,1.6,0.1,2.3,0.6c1.2,1,2.4,1.9,3.7,2.9c0.4-1.1,0.7-2,1.1-2.9c0.4-1,0.5-2.3,1.8-2.7c0.3,0.1,0.7,0.2,1,0.3
			c0.5,0.6,0.3,1.2,0,1.8c-0.5,1.2-0.9,2.5-1.4,4c1.9-0.4,3.5-0.8,5.1-1.2c0.9-0.2,1.8-0.5,2.5,0.4C56.2,65,56.2,65.3,56.2,65.5z"/>
		<path class="st4" d="M31.5,56.7c-1.9-1.5-3.7-3-5.7-4.5c-0.8-0.6-1-1.1-0.6-2.1c0.7-1.6,1.3-3.3,1.9-4.9c0.3-0.8,0.6-1.4,1.5-1.5
			c0.4,0.1,0.7,0.3,1.1,0.4c0.4,2-1.3,3.4-1.4,5.5c1.2-0.2,2.3-0.6,3.5-0.7c1.3-0.1,2.6-1,3.9-0.1c0,0.4,0,0.7,0,1.1
			c-2,1.2-4.5,0.9-6.8,1.9c0.7,0.6,1.3,1,1.8,1.5c0.9,0.9,2.4,1.3,2.8,2.8C32.9,56.6,32.3,56.8,31.5,56.7z"/>
		<path class="st4" d="M77.7,53.4c1,1.7-1.4,7.8-3.2,8.3c-2.7,0.7-5.5,1.3-8.2,2c-0.3-0.4-0.6-0.7-0.9-1.1c0.3-0.7,0.9-1,1.6-1.2
			c1.7-0.4,3.4-0.8,5.4-1.3c-0.8-0.7-1.4-1.1-2-1.6c-0.9-0.9-2.3-1.2-2.7-2.7c0.2-0.2,0.3-0.4,0.5-0.6c2.1-0.5,3,1.3,4.4,2.2
			c1.7,1.1,1.6,1.2,2.4-0.7c0.5-1.2,0.4-2.9,2.1-3.5C77.2,53.3,77.4,53.4,77.7,53.4z"/>
		<path class="st1" d="M31.5,56.7c0.8,0.1,1.5,0,2-0.7c1.9,2.1,4.4,3.6,6.5,5.5c-0.2,0.4-0.4,0.7-0.6,1.1
			C36.7,60.6,34.3,58.4,31.5,56.7z"/>
		<path class="st1" d="M77.7,53.4c-0.2,0-0.4-0.1-0.7-0.1c0.5-2.6,1.6-5,2.6-7.5c0.4,0,0.9,0.1,1.3,0.1c-0.8,2.2-1.6,4.4-2.4,6.6
			C78.4,52.9,78.2,53.3,77.7,53.4z"/>
		<path class="st1" d="M29.7,44.1c-0.4-0.1-0.7-0.3-1.1-0.4c0.8-2.4,1.3-5,2.9-7.1c0.3,0,0.7,0,1,0C31.6,39.1,30.6,41.6,29.7,44.1z"
			/>
		<path class="st1" d="M65.3,62.6c0.3,0.4,0.6,0.7,0.9,1.1C64,63.7,62,64.6,59.8,65c-1.2,0.2-2.4,0.6-3.6,0.5c0-0.2,0-0.5-0.1-0.7
			C59.1,63.8,62.2,63.3,65.3,62.6z"/>
		<path class="st3" d="M44.1,28c3.3-0.5,6.7-1,9.9-2.2c1.8,0.3,3.5-0.5,5.2-0.8c0.6-0.1,1.3-0.6,1.7-0.1c0.5,0.5-0.2,1.2-0.4,1.7
			c-0.2,0.7-0.5,1.5-0.8,2.1c-0.4,0.7-0.1,1.2,0.4,1.7c-1.4,2.2-1.9,4.8-2.9,7.1c-0.8,0.2-1.2,0.8-1.5,1.5c-0.7,1.7-1.1,3.4-2.1,5
			c0-0.4-0.3-0.6-0.6-0.8c-3.6-2.8-7.2-5.6-10.8-8.4c0.3-0.9-0.2-1.3-0.8-1.7c-1.3-1-2.6-2-4-3.2C39.6,28.9,42,29.1,44.1,28z"/>
		<path class="st3" d="M29.7,44.1c0.9-2.5,1.9-5,2.8-7.5c1.3-1,1.5-2.6,2-4c0.5-1.4,0.9-1.2,1.9-0.5c1.5,1.1,2.7,2.6,4.6,3.2
			c0.3,0.8,1.1,1.2,1.7,1.7c3.1,2.5,6.4,4.7,9.3,7.5c-1.1,0.3-2.2,0.5-3.3,0.8c-1.3,0.4-2.8,0.2-3.7,1.4c-3.1,0.7-6.3,1.4-9.4,2.1
			c-1.3-0.9-2.6,0-3.9,0.1c-1.1,0.1-2.3,0.4-3.5,0.7C28.4,47.5,30.1,46,29.7,44.1z"/>
		<path class="st1" d="M52.1,44.4c-2.9-2.8-6.2-5-9.3-7.5c-0.6-0.5-1.4-0.8-1.7-1.7c0.3-0.1,0.7-0.3,1-0.4c3.6,2.8,7.2,5.6,10.8,8.4
			c0.3,0.2,0.6,0.4,0.6,0.8C53.1,44.4,52.6,44.4,52.1,44.4z"/>
		<path class="st3" d="M79.6,45.8c-1,2.5-2.1,4.9-2.6,7.5c-1.7,0.5-1.6,2.2-2.1,3.5c-0.8,1.9-0.7,1.8-2.4,0.7
			c-1.4-0.9-2.3-2.8-4.4-2.2c-2.1-1.8-4.2-3.6-6.6-5.1c0.3-0.8-0.1-1.3-0.7-1.7c-1.3-1-2.6-2.1-3.9-3.1c5.7-1.1,11.3-2.7,17-3.7
			c2.2-0.5,4.4-1,6.9-1.5c-0.5,1.5-1,2.7-1.5,4C79.2,44.6,79.1,45.2,79.6,45.8z"/>
		<path class="st3" d="M68.1,28.6c2.2,1.3,4.1,3.1,6.2,4.6c0.5,0.3,0.9,0.7,1.6,0.6c-0.1,1.1,0.8,1.3,1.4,1.9
			c0.9,0.8,1.9,1.5,3.1,2.5c-2,0.5-3.7,0.9-5.4,1.3c-0.7,0.2-1.4,0.3-1.6,1.1c-2.6,0.5-5.2,1.1-7.8,1.6c-3,0.5-5.9,1.8-9,1.6
			c0.6-1.8,1.2-3.6,1.8-5.4c0.9-2.6,1.8-5.2,2.6-7.8c1.4-1,1.6-2.7,2.1-4.2c0.4-1.1,0.8-1.2,1.7-0.4C65.9,26.8,67,27.7,68.1,28.6z"
			/>
		<path class="st1" d="M56.6,43.7c3.1,0.2,6-1.1,9-1.6c2.6-0.4,5.2-1,7.8-1.6c0.2,0.3,0.4,0.7,0.7,1c-5.7,0.9-11.3,2.6-17,3.7
			C56.2,44.9,56.1,44.3,56.6,43.7z"/>
		<path class="st1" d="M61,30.5c-0.9,2.6-1.8,5.2-2.6,7.8c-0.4-0.4-0.8-0.6-1.3-0.7c1-2.4,1.5-4.9,2.9-7.1
			C60.3,30.5,60.7,30.5,61,30.5z"/>
		<path class="st3" d="M40,61.5c-2.1-2-4.6-3.4-6.5-5.5c-0.3-1.5-1.8-1.9-2.8-2.8c-0.5-0.5-1.1-0.9-1.8-1.5c2.3-1.1,4.7-0.8,6.8-1.9
			c1,0.1,1.8-0.4,2.8-0.5c2.6-0.3,5-1.4,7.7-1.1c1.8,0.1,3.9-0.2,5.5-1.5c0.3-0.1,0.7-0.1,1-0.2c0.7,0.6,0.5,1.2,0.2,1.9
			c-1.4,3.7-2.7,7.4-4.1,11.1c-1.3,0.4-1.4,1.6-1.8,2.7c-0.4,0.9-0.7,1.9-1.1,2.9c-1.3-1-2.6-1.9-3.7-2.9
			C41.6,61.6,40.9,61.3,40,61.5z"/>
		<path class="st3" d="M65.3,62.6c-3,0.7-6.2,1.2-9.1,2.2c-0.7-0.8-1.6-0.5-2.5-0.4c-1.6,0.3-3.2,0.7-5.1,1.2c0.5-1.5,0.9-2.8,1.4-4
			c0.2-0.6,0.5-1.2,0-1.8c0.2-0.2,0.4-0.3,0.5-0.5c1.3-3.4,2.6-6.8,3.9-10.2c0.3-0.9,0.7-1.5,1.5-1.8c1.5,1.1,3,2.2,4.5,3.3
			c1.4,1.1,2.8,2.3,4.3,3.3c1,0.7,1.7,2,3.1,2c0.3,1.4,1.8,1.8,2.7,2.7c0.5,0.5,1.1,1,2,1.6c-2,0.5-3.7,0.9-5.4,1.3
			C66.2,61.6,65.6,61.9,65.3,62.6z"/>
		<path class="st1" d="M55.7,47.3c-0.9,0.3-1.2,0.9-1.5,1.8c-1.2,3.4-2.5,6.8-3.9,10.2c-0.1,0.2-0.3,0.3-0.5,0.5
			c-0.3-0.1-0.7-0.2-1-0.3c1.4-3.7,2.7-7.4,4.1-11.1c0.3-0.7,0.4-1.3-0.2-1.9C54,45.8,54.9,46.3,55.7,47.3z"/>
		<path class="st1" d="M51.7,46.7c-1.6,1.3-3.8,1.6-5.5,1.5c-2.8-0.2-5.2,0.9-7.7,1.1c-0.9,0.1-1.8,0.6-2.8,0.5c0-0.4,0-0.7,0-1.1
			c3.1-0.7,6.3-1.4,9.4-2.1c0.3,1.3,1.3,1.2,2.2,1C48.8,47.3,50.3,47,51.7,46.7z"/>
		<path class="st1" d="M67.7,55.8c-1.5,0-2.1-1.3-3.1-2c-1.5-1-2.8-2.2-4.3-3.3c0.4-0.2,0.9-0.3,1.3-0.5c2.3,1.5,4.4,3.3,6.6,5.1
			C68,55.4,67.8,55.6,67.7,55.8z"/>
		<path class="st4" d="M61.6,50.1c-0.4,0.2-0.9,0.3-1.3,0.5c-1.5-1.1-3-2.2-4.5-3.3c-0.8-1-1.7-1.5-3-0.8c-0.3,0.1-0.7,0.1-1,0.2
			c-1.5,0.3-3,0.6-4.4,0.9c-0.9,0.2-1.9,0.3-2.2-1c1-1.2,2.5-1,3.7-1.4c1.1-0.3,2.2-0.5,3.3-0.8c0.5,0,1,0,1.4-0.3
			c1-1.5,1.4-3.3,2.1-5c0.3-0.8,0.7-1.3,1.5-1.5c0.5,0.1,0.9,0.3,1.3,0.7c-0.6,1.8-1.2,3.6-1.8,5.4c-0.5,0.7-0.4,1.2,0.4,1.5
			c1.3,1.1,2.6,2.1,3.9,3.1C61.5,48.8,61.9,49.3,61.6,50.1z"/>
	</g>
</g>
</svg>
