<?xml version="1.0" encoding="utf-8"?>
<!-- Generator: Adobe Illustrator 21.0.0, SVG Export Plug-In . SVG Version: 6.00 Build 0)  -->
<svg version="1.1" id="Layer_1" xmlns="http://www.w3.org/2000/svg" xmlns:xlink="http://www.w3.org/1999/xlink" x="0px" y="0px"
	 viewBox="0 0 200 200" style="enable-background:new 0 0 200 200;" xml:space="preserve">
<style type="text/css">
	.st0{fill:#CA9150;}
	.st1{fill:#F4F4F4;}
</style>
<g id="mfvtmT_1_">
	<g>
		<path class="st0" d="M17.4,115.9c1.3-0.8,2.5-0.2,3.7,0.4c13.9,7.9,28.7,13.5,44.3,17c10.1,2.3,20.4,3.6,30.8,3.9
			c23.2,0.8,45.4-3.4,66.8-12.2c0.2-0.1,0.5-0.2,0.7-0.3c1.5-0.5,3.1-0.8,4,0.9c0.9,1.6-0.2,2.7-1.5,3.6
			c-11.2,8.1-23.8,13.3-37.2,16.5c-30.5,7.3-59.8,3.7-87.6-11c-8.8-4.7-16.9-10.4-24.1-17.3C17.4,117,17.4,116.5,17.4,115.9z"/>
		<path class="st1" d="M88.6,90.1c1.9-8.2,3.8-16.2,5.7-24.2c0.9-3.7,1.8-7.4,2.6-11.1c0.4-1.9,1.5-2.8,3.4-2.7c1.2,0.1,2.5,0,3.7,0
			c2.7,0,3.3,0.4,3.9,3.1c2,8.6,4,17.1,6,25.7c0.8,3.3,1.6,6.6,2.7,9.9c1.3-5.1,2.6-10.1,3.9-15.2c1.7-6.7,3.4-13.3,5.2-20
			c0.8-3.2,1.2-3.5,4.5-3.5c1.1,0,2.2,0,3.3,0c2,0,2.5,0.6,1.9,2.6c-0.5,2-1.2,3.9-1.8,5.8c-3.8,12.3-7.7,24.7-11.5,37
			c-1,3.2-1.4,3.4-4.8,3.4c-6.4,0-6,0.3-7.5-5.9c-2.4-9.9-4.8-19.8-7.1-29.6c-0.1-0.5-0.1-1.1-0.9-1.4c-0.2,0.7-0.4,1.3-0.6,1.9
			c-2.5,10.5-5,21.1-7.5,31.6c-0.7,3.1-1.2,3.5-4.5,3.5c-6.6,0-6,0.5-7.9-5.9C77.4,82,73.4,69,69.5,55.9c-0.2-0.7-0.4-1.4-0.6-2.1
			c-0.2-1,0.3-1.7,1.4-1.7c2,0,3.9,0,5.9,0s2.4,1.6,2.8,3.1c1.5,5.7,2.9,11.4,4.4,17.2c1.4,5.4,2.7,10.8,4.1,16.2
			C87.8,89,87.8,89.5,88.6,90.1z"/>
		<path class="st1" d="M55.4,94.6c-4.4,5-9.8,7.6-16.4,7.5c-7.9-0.1-13.3-4.4-14.5-11.5c-1.3-7.8,2.4-14.4,9.6-17.2
			c5.6-2.1,11.2-1.6,16.9-0.6c3.8,0.7,3.8,0.7,3.8-3.2c-0.1-8.5-3.2-11.5-11.7-11.4C39,58.3,35,59.4,31,61c-2.9,1.2-3.4,0.8-3.4-2.3
			c0-3.6,0.1-3.9,3.5-5.3c6.2-2.5,12.6-3.5,19.3-2.4c8.3,1.3,13.1,6.6,13.4,15.2c0.2,6.5,0.1,13,0.1,19.5c0,3.3,0.5,6.4,2.2,9.3
			c0.9,1.6,0.6,2.7-0.9,3.6c-0.6,0.3-1.1,0.7-1.6,1.1c-3.1,2.1-4,1.9-6-1.2C56.9,97.2,56.3,96,55.4,94.6z M46,78.5
			c-3.7,0-6,0.3-7.7,1.1c-3.4,1.6-5.1,5.2-4.3,9.5c0.6,3.5,3,5.5,7,5.7c8.8,0.5,14.6-5.3,14-14c-0.1-1-0.5-1.2-1.3-1.4
			C50.9,78.9,48.1,78.5,46,78.5z"/>
		<path class="st1" d="M155.7,102.2c-4.2-0.1-8.7-0.8-12.9-2.5c-3.1-1.3-4.3-4.1-3.2-7.2c0.5-1.4,1.5-1,2.4-0.7
			c2.8,1.2,5.6,2.2,8.6,2.6c3.4,0.5,6.8,0.7,10.2-0.2c2.2-0.6,4.1-1.5,5.1-3.6c1.5-3,0.4-6.2-2.6-7.9c-2.9-1.6-6.1-2.3-9.2-3.3
			c-2.2-0.7-4.5-1.4-6.6-2.5c-4.6-2.5-7.3-6.4-7.5-11.7c-0.2-5.4,2.6-9.3,7.1-11.9c5.8-3.3,12-3.3,18.3-1.8c1.1,0.3,2.2,0.6,3.2,0.9
			c3.7,1.2,4.4,2.1,4.3,6c-0.1,2.5-0.7,2.9-3,1.9c-3.9-1.7-7.9-2.4-12.1-2.2c-1.8,0.1-3.7,0.4-5.4,1.1c-4.1,1.9-4.6,7.2-1,9.8
			c1.9,1.3,4.1,2,6.3,2.8c3.1,1,6.3,1.9,9.3,3.1c4.8,2.1,8,5.4,8.4,10.9c0.5,5.9-2,10.3-6.9,13.4
			C164.8,101.6,160.5,102.2,155.7,102.2z"/>
		<path class="st0" d="M166.4,118.7c-4.8,0-8.7,0.6-12.6,0.9c-0.8,0.1-1.7,0.4-2-0.6c-0.3-0.9,0.5-1.4,1.1-1.9
			c3.1-2.2,6.6-3.5,10.3-4.2c5.4-1.1,10.8-1.2,16.2,0.2c2.7,0.7,3.4,1.4,3.3,4.1c-0.3,9.2-3.4,17.3-9.8,24c-0.2,0.2-0.4,0.4-0.6,0.5
			c-0.7,0.5-1.5,1.4-2.4,0.7c-1-0.7-0.2-1.6,0.1-2.3c1.8-4.9,3.8-9.6,4.7-14.8c0.1-0.8,0.2-1.6,0.2-2.3c0-2.6-0.8-3.5-3.3-4
			C169.5,118.7,167.5,118.6,166.4,118.7z"/>
	</g>
</g>
</svg>
