<?xml version="1.0" encoding="utf-8"?>
<!-- Generator: Adobe Illustrator 23.1.0, SVG Export Plug-In . SVG Version: 6.00 Build 0)  -->
<svg version="1.1" id="Layer_1" xmlns="http://www.w3.org/2000/svg" xmlns:xlink="http://www.w3.org/1999/xlink" x="0px" y="0px"
	 viewBox="0 0 400 305" style="enable-background:new 0 0 400 305;" xml:space="preserve">
<style type="text/css">
	.st0{enable-background:new    ;}
	.st1{fill:#5BC99F;}
</style>
<g>
	<g class="st0">
		<path class="st1" d="M30.7,75.4l34.4-4.6l-11.2,52.4c9.6-5.8,14.4-6.6,19-6.6c16.2,0,27.4,10.2,27.4,39.8
			c0,27.2-14.4,78.6-63.8,78.6C15.2,235,4,223.8,4,205.2c0-4,0.4-8.4,1.6-13.2L30.7,75.4z M64.6,133.1c-3.2,0-11.2,1.2-13.8,4.2
			l-12.8,59.1c-0.4,1.8-0.6,3.8-0.6,5.4c0,6.8,4,10.8,12.4,10.8c15.2,0,27.2-32.6,27.2-57C77,144,73,133.1,64.6,133.1z"/>
		<path class="st1" d="M168.4,70.8l-26.8,125.6c-0.6,3-1,5.4-1,7.4c0,6.6,3,8.6,9.6,8.6c9,0,17.4-8.8,21-20.4h9.8
			c-13.2,38-36.3,43-48.8,43c-14,0-24.8-8.4-24.8-28c0-4.4,0.6-9.6,1.8-15.2L134,75.3L168.4,70.8z"/>
		<path class="st1" d="M220.5,117.3l-16.7,79.1c-0.6,3-1,5.4-1,7.4c0,6.6,3,8.6,9.6,8.6c9,0,17.4-8.8,21-20.4h9.8
			c-13.2,38-36.3,43-48.8,43c-14,0-24.8-8.4-24.8-28c0-4.4,0.6-9.6,1.8-15.2l15.8-74.6H220.5z M210,67.8c10.2,0,18.6,8.4,18.6,18.6
			s-8.4,18.4-18.6,18.4c-10.2,0-18.4-8.2-18.4-18.4S199.8,67.8,210,67.8z"/>
		<path class="st1" d="M332,192c-12.2,14-24.9,22.8-35.6,29c-9.8,10.2-24.6,14-36.6,14c-23.8,0-34-15.6-34-29.8
			c0-10.8,6-18.6,12.4-21.6c13-23,21.4-46,28.6-68.8l34.4-4.6c2.8,60.2,5.2,69.4,5.2,84.7c0,3.2-0.2,6-1,8.8
			c6.2-3.8,12.4-8,16.8-11.6L332,192L332,192z M244.4,203.4c-2.4,0-5.2-0.6-6.2-3c0,11,4,16.2,14.2,16.2c10.2,0,20.2-5.4,20.2-21.6
			c0-12-2-19.4-4.4-55.2c-4.6,15.2-11.2,29-18.8,44c3,1.4,5.4,4.2,5.4,8.2C254.8,197.6,250.6,203.4,244.4,203.4z"/>
		<path class="st1" d="M390.1,110.1c2.8,60.2,5.2,69.4,5.2,84.7c0,30.2-27.4,40.2-46.6,40.2c-23.8,0-34-15.6-34-29.8
			c0-10.8,6-18.6,12.4-21.6c13-23,21.4-46,28.6-68.8L390.1,110.1z M333.4,203.4c-2.4,0-5.2-0.6-6.2-3c0,11,4,16.2,14.2,16.2
			c10.2,0,20.2-5.4,20.2-21.6c0-12-2-19.4-4.4-55.2c-4.6,15.2-11.2,29-18.8,44c3,1.4,5.4,4.2,5.4,8.2
			C343.6,197.6,339.4,203.4,333.4,203.4z"/>
	</g>
</g>
</svg>
