<?xml version="1.0" encoding="utf-8"?>
<!-- Generator: Adobe Illustrator 21.0.0, SVG Export Plug-In . SVG Version: 6.00 Build 0)  -->
<svg version="1.1" id="Layer_1" xmlns="http://www.w3.org/2000/svg" xmlns:xlink="http://www.w3.org/1999/xlink" x="0px" y="0px"
	 viewBox="0 0 200 200" style="enable-background:new 0 0 200 200;" xml:space="preserve">
<style type="text/css">
	.st0{fill:#FFFFFF;}
	.st1{fill:#316881;}
	.st2{fill:#C0E4F7;}
	.st3{fill:#3A3838;}
	.st4{fill:#3D3F41;}
	.st5{fill:#D6EDFA;}
	.st6{fill:#90A6B2;}
	.st7{fill:#FAFBFC;}
	.st8{fill:#3888AE;}
	.st9{fill:#3687AD;}
	.st10{fill:#9EACB4;}
	.st11{fill:#3889AF;}
</style>
<path class="st0" d="M10.2,103.3l42.1-29.7l27.5-8.5l26-3.8L163,79c0,0,5.6,1.3-1.2,9s-18,16.7-18,16.7L120,116.2l-25.9,5.2
	l-26.9-5.9l-23.4-3.2l-24.3,0l-11-3C8.5,109.2,3,108.5,10.2,103.3z"/>
<path class="st1" d="M122.7,75L122.7,75c-3,0-5.4-2.4-5.4-5.4v-0.4c0-3,2.4-5.4,5.4-5.4h0c3,0,5.4,2.4,5.4,5.4v0.4
	C128.1,72.6,125.7,75,122.7,75z"/>
<g id="jYwK9J.tif">
	<g>
		<path class="st1" d="M71.6,75.2h-4.2c-2,0-3.7-1.7-3.7-3.7v0c0-2,1.7-3.7,3.7-3.7h4.2c2,0,3.7,1.7,3.7,3.7v0
			C75.3,73.5,73.6,75.2,71.6,75.2z"/>
		<path class="st2" d="M53.8,111.9c-0.1-0.3-0.4-0.4-0.6-0.5c-2.9-1.4-5.6-3-8-5c-3.2-2.7-5.7-5.9-6.8-10c-1-3.7-0.5-7.2,1.1-10.6
			c0.2-0.4,0.5-0.7,0.5-1.2c0.1-0.1,0.3-0.3,0.4-0.4c0.2-0.1,0.3-0.2,0.5-0.3c4-2.6,8.1-4.8,12.4-6.9c1-0.5,2-1,3.1-1.3
			c-0.1,0.8-0.2,1.6-0.3,2.5c-0.3,3.1-0.1,6.3,0.5,9.3c0.8,4.2,2.6,8.1,4.9,11.6c1.8,2.7,4,5,6.4,7.1c3.6,3.1,7.7,5.4,12.2,7.1
			c4.1,1.5,8.3,2.2,12.6,2.5c2.4,0.2,4.8,0,7.2-0.3c3.3-0.4,6.5-1.2,9.6-2.4c4.5-1.7,8.6-4.1,12.2-7.3c3.7-3.3,6.7-7.2,8.7-11.8
			c1.8-4,2.6-8.3,2.8-12.6c0.1-2.1-0.3-4.1-0.7-6.2c-0.3-1.4-0.7-2.7-1-4.1c3.1,0.8,6,1.8,9,3c3.7,1.5,7.2,3.2,10.7,5
			c1.5,0.8,3,1.7,4.7,2.4c0.1,0.1,0.1,0.2,0.2,0.3c0,0.2,0,0.4,0,0.5c0.3,1.6,0.3,3.2,0.1,4.8c-0.1,1.1-0.5,2-0.6,3.1
			c-1.6,2.6-3.5,4.9-5.5,7.1c-5.3,5.6-11.6,9.8-18.7,12.9c-7.4,3.3-15.2,5.5-23.2,6.8c-7.6,1.2-15.2,1.6-22.9,1.1
			c-7.5-0.5-14.8-1.8-22.1-3.6C60.1,113.7,56.9,112.8,53.8,111.9z"/>
		<path class="st3" d="M53.8,111.9c3.1,0.9,6.3,1.8,9.5,2.6c7.2,1.8,14.6,3.2,22.1,3.6c7.7,0.5,15.3,0.1,22.9-1.1
			c8-1.3,15.8-3.4,23.2-6.8c7-3.2,13.3-7.3,18.7-12.9c2.1-2.2,4-4.5,5.5-7.1c0.9-1.2,1.6-2.5,2.2-3.8c0.5-1.1,1.2-2,2.3-2.5
			c1.1-0.4,2.2-0.4,3.4-0.1c0.8,0.2,1.6,0.5,2.4,0.8c1.9,0.9,3.8,1.9,5.5,3.4c-0.7,0.2-1-0.2-1.4-0.3c-0.4-0.1-0.8-0.4-1.2-0.4
			c0,0-0.1,0-0.1,0c-0.1-0.2-0.3-0.2-0.5-0.2c-1.2-0.6-2.4-0.8-3.7-0.9c-0.2,0-0.4,0-0.5,0.2c-0.1,0.2,0,0.5,0.2,0.6
			c0.5,0.5,0.9,0.9,1.5,1.2c2.9,1.9,6,3.4,9.1,5c-0.2,0.5-0.6-0.1-0.8,0.2c-0.1,0-0.2,0-0.3-0.1c-0.1-0.2-0.2-0.2-0.3-0.1
			c-0.1,0-0.2,0-0.3-0.1c-0.1-0.2-0.2-0.2-0.3-0.1c-0.1,0-0.2,0-0.3-0.1c-0.1-0.2-0.2-0.2-0.3-0.1c-0.2,0-0.3,0-0.5,0
			c0,0-0.1,0-0.1,0c-0.1-0.2-0.3-0.2-0.5-0.2c-1.3-0.3-2.5-0.5-3.8-0.4c-0.5,0-1,0-1.3,0.5c-0.2,0.5,0.2,0.9,0.4,1.2
			c0.1,0.1,0.2,0.2,0.3,0.2c0.5,0.9,1.3,1.6,2,2.3c1.6,1.6,3.4,3.2,5.1,4.7c0.5,0.4,0.9,0.8,1.3,1.2c0,0.1,0,0.2,0,0.3
			c-0.7-0.5-1.4-0.9-2.1-1.4c-0.4-0.4-0.8-0.6-1.2-0.9c-2.1-1.5-4.3-2.9-6.7-3.9c-0.5-0.2-1.1-0.5-1.5,0c-0.4,0.5,0,1,0.3,1.5
			c0,0.1,0.1,0.1,0.2,0.1c0.4,0.9,1.1,1.6,1.8,2.3c0.8,0.9,1.8,1.8,2.6,2.6c0.1,0.1,0.3,0.2,0.1,0.4c-0.4,0-0.8-0.4-1.2-0.5
			c-0.3-0.5-0.9-0.6-1.3-0.8c-3-1.5-6.1-3-9.4-3.6c-1.2-0.3-2.5-0.4-3.7,0.1c-0.8,0.3-0.9,0.7-0.6,1.4c0.1,0.3,0.2,0.6,0.5,0.7
			c0.7,1.2,1.8,2,2.8,2.9c1,0.9,2,1.7,3.1,2.6c0.1,0.1,0.3,0.2,0.2,0.5c-0.6-0.2-1.1-0.4-1.6-0.7c0,0,0,0,0,0c0-0.1-0.1-0.2-0.2-0.2
			c-0.7-0.5-1.6-0.7-2.4-0.9c-0.7-0.2-1.7-0.3-2.2,0.4c-0.5,0.7-0.1,1.5,0.2,2.2c0,0,0,0,0.1,0c0.6,1.9,1.7,3.5,2.8,5.1
			c1.6,2.4,3.3,4.8,5.1,7.1c0.4,0.5,0.7,1.2,1.2,1.6c-0.1,0.1-0.1,0.2-0.2,0.2c-0.2-0.2-0.4-0.3-0.6-0.5c-0.2-0.3-0.4-0.6-0.7-0.8
			c-2.4-2.4-4.8-4.9-7.3-7.3c-1.6-1.6-3.3-3.2-5.2-4.6c-0.5-0.3-1-1-1.6-0.5c-0.6,0.5-0.1,1.3,0.2,1.9c0,0,0,0,0.1,0
			c0.3,1.2,1,2.2,1.6,3.2c0.5,0.8,1,1.6,1.5,2.4c-0.1,0.1-0.1,0.1-0.2,0.2c-1.5-1.4-2.9-2.8-4.6-4c-1-0.8-2.1-1.6-3.4-1.9
			c-1-0.3-1.5,0.2-1.3,1.2c0.1,0.5,0.1,1,0.4,1.4c0.6,2.3,1.7,4.4,2.7,6.5c1.8,3.6,3.7,7.2,5.7,10.7c0.1,0.2,0.4,0.4,0.3,0.7
			c-0.4,0-0.4,0-0.7-0.5c-2.8-3.9-5.7-7.7-9.1-11c-1.6-1.5-3.2-2.9-5.3-3.9c-0.8-0.4-1.6-0.6-2.5-0.4c-1.1,0.2-1.2,0.3-0.8,1.3
			c0.1,0.3,0.2,0.5,0.4,0.7c0.2,0.9,0.7,1.6,1,2.4c1.7,3.9,3.2,8,4.3,12.2c-0.1,0.1,0,0.2,0.1,0.3c0,0.1,0,0.2,0.1,0.3
			c-0.1,0.1,0,0.2,0.1,0.3c0,0.1,0,0.2,0.1,0.3c-0.1,0.4,0.1,0.8,0.2,1.3c0.3,2,0.6,4-0.1,5.9c-0.5,0-0.3-0.4-0.3-0.6
			c-0.4-3.7-1.1-7.3-2.4-10.8c-0.1-0.3-0.2-0.6-0.4-0.8c-0.8-2.5-2.2-4.6-4-6.4c-1.9-1.9-4.2-2.8-6.9-2.6c-1,0.1-1.7,0.6-2,1.6
			c-0.3,1.4-0.1,2.9,0.4,4.2c0.5,2.4,1.5,4.6,2.5,6.9c-0.1,0-0.3,0-0.4,0c-0.2-0.2-0.3-0.5-0.5-0.7c-1.7-2.5-3.5-5-5.7-7.1
			c-1.1-1-2.2-2-3.6-2.6c-0.5-0.2-1.1-0.5-1.8-0.3c0.3,0.6,0.5,1.2,0.9,1.8c1.4,3,2.8,6,3.9,9.1c0.6,1.6,1.1,3.3,1.5,5
			c-0.1,0.1,0,0.2,0.1,0.3c0,0.1,0,0.2,0.1,0.3c-0.1,0.1,0,0.2,0.1,0.3c0,0.1,0,0.2,0.1,0.3c0,0.1,0,0.2,0,0.2c0.6,3,0.8,6,0.4,9.1
			c0,0.1-0.1,0.2-0.1,0.4c-0.1,0-0.2,0-0.2,0c0.1-4.4-0.6-8.6-2.3-12.6c0-0.3-0.1-0.5-0.3-0.6c0-0.1-0.1-0.2-0.1-0.3
			c0-0.1,0-0.2,0-0.3c-1.9-4.2-4.7-7.7-8.4-10.5c-0.2-0.1-0.4-0.3-0.8-0.2c0.6,0.5,0.6,1.1,0.9,1.7c0.1,0.5,0.1,1,0.3,1.5
			c0,1.3,0,2.6-0.1,3.9c-0.5,5-1.9,9.8-3.6,14.5c-0.2,0.6-0.4,1.2-0.6,1.9c-0.1,0-0.2,0-0.3,0c0.1-0.4,0.2-0.8,0.3-1.2
			c0.1-0.1,0.2-0.2,0-0.3c0-0.2,0.1-0.3,0.1-0.5c0.1-0.1,0.2-0.2,0-0.3c0-0.2,0.1-0.4,0.1-0.6c0.1-0.1,0.2-0.2,0-0.3
			c0-0.2,0.1-0.4,0.1-0.6c0.1-0.1,0.2-0.2,0-0.3c0-0.2,0.1-0.4,0.1-0.6c0.1-0.1,0.2-0.2,0-0.3c0-0.2,0.1-0.4,0.1-0.6
			c0.2-0.1,0.2-0.3,0.1-0.4c0-0.3,0-0.5,0.1-0.8c0.1-0.1,0.2-0.2,0-0.3c0-0.3,0.1-0.5,0.1-0.8c0.2-0.1,0.2-0.3,0-0.4
			c0-0.3,0-0.6,0.1-1c0.2-0.2,0.2-0.4,0-0.6c0-0.5,0-1,0.1-1.4c0.2-0.2,0.2-0.5,0-0.7c0-1.5,0-3.1,0-4.6c0.2-0.2,0.2-0.4,0-0.6
			c0-0.3-0.1-0.6-0.1-1c0.2-0.1,0.1-0.2,0-0.3c0-0.2-0.1-0.4-0.1-0.6c0.2-0.1,0.1-0.2-0.1-0.3c-0.1-0.3-0.2-0.6-0.3-0.9
			c0,0-0.1-0.1-0.1-0.1c0-0.1,0-0.2-0.1-0.3c-0.5-2.7-2.8-4-5.5-3.3c-1.4,0.3-2.2,1-2.2,2.5c0,0.4-0.1,0.8-0.1,1.2
			c-0.1,3,0.1,6,0.3,9c-0.1,0-0.1,0-0.2,0c-0.5-1.9-0.8-3.9-1.5-5.7c-0.3-0.9-0.6-1.8-1-2.7c-0.3-1.2-0.9-2.3-1.7-3.2
			c-1.1-1.3-2-1.3-3,0c-1.5,1.7-2.7,3.6-3.9,5.6c-2.1,3.4-4.2,6.9-6.2,10.4c-1,1.8-2,3.5-3,5.3c2-5.5,4.1-10.9,5.9-16.5
			c0.4-1.3,0.8-2.6,1-4c0-0.1,0.1-0.2,0.1-0.3c0-0.6,0.3-1.4-0.2-1.6c-0.6-0.3-1.1,0.5-1.5,0.9c-1.8,2.2-2.9,4.8-4.2,7.4
			c-0.3,0.6-0.5,1.3-1,1.8c0.3-2,0.6-4,0.7-6c0-0.7,0.1-1.4-0.1-2c0-1.8-0.7-2.3-2.3-1.4c-0.8,0.5-1.6,1-2.4,1.6
			c-1.4,1.1-2.9,2.2-4.1,3.5c-0.1,0-0.2,0-0.2,0.2l0,0c-1,0.7-1.8,1.5-2.7,2.3c-0.4,0.3-0.7,0.8-1.3,1c-0.1-0.4,0.2-0.5,0.3-0.7
			c1.7-2.2,3.3-4.4,4.6-6.9c0.3-0.6,0.7-1.3,0.7-2c0.3-0.5,0-0.9-0.2-1.3c-1.5-2.2-3.7-3-6.3-2.3c-3.2,0.8-5.4,3-7.7,5.2
			c0,0,0,0,0,0.1c0,0,0,0.1,0,0.1l0,0c-0.8,0.4-1.2,1.2-1.8,1.8c-0.2,0.2-0.4,0.4-0.6,0.6c-0.1-0.1-0.1-0.1-0.2-0.2
			c0.9-1.7,1.9-3.3,2.6-5.1c0.3-0.9,0.6-1.7,0.6-2.6c0.1-1.4-0.6-2.1-1.9-2c-0.7,0-1.4,0.2-2.1,0.5c-3.2,1.3-6.1,3.3-8.9,5.3
			c-1.3,1-2.7,2-4,3c-0.1-0.1-0.1-0.1-0.2-0.2c1.7-1.8,3.4-3.6,4.8-5.7c0.5-0.8,1-1.5,1.2-2.4c0.2-1.1,0.1-1.5-1-1.9
			c-0.9-0.4-1.9-0.6-2.9-0.7c-3.4-0.4-6.8-0.5-10.2-0.4c-6,0.1-12.1,0.3-17.9-1.5c-0.1,0-0.2,0-0.4,0l0,0c-0.5-0.4-1.2-0.6-1.8-0.8
			c-0.1,0-0.2,0-0.3,0c-1.1-0.7-2.2-1.4-3.3-2.1c0-0.2-0.1-0.3,0-0.4c4.7,2.1,9.6,2.7,14.7,2.6c4.5-0.1,9-0.6,13.4-0.9
			c5.5-0.4,10.9-0.3,16.3,1C52.5,111.6,53.2,111.7,53.8,111.9z"/>
		<path class="st3" d="M149.2,61c0,0,0,0.1-0.1,0.1c-0.2,0.1-0.3,0.2-0.2,0.4c0,0-0.1,0.1-0.1,0.1c-0.1,0-0.1,0.1-0.2,0.1
			c-1.7,2.5-3.6,4.9-5.6,7.3c-0.4,0.5,0.1,0.4,0.3,0.5c0.2,0,0.3,0.1,0.5,0.1c0.2,0.2,0.4,0.2,0.6,0c0.5-0.1,1.1-0.1,1.5-0.4
			c1.2-0.3,2.2-1,3.2-1.7c3.3-2.3,6.1-5.2,8.7-8.1c1.4-1.6,2.8-3.3,4.3-5c0.1,0.4,0,0.6-0.1,0.8c-0.5,1.8-1.4,3.4-2.4,4.9
			c-0.1,0.2-0.3,0.4-0.3,0.7c-0.1,0.1-0.2,0.1-0.3,0.2c-1.9,2.7-4.2,5.1-6.6,7.4c-0.1,0.1-0.3,0.2-0.3,0.5c0.5-0.1,1.1-0.2,1.6-0.5
			c0.1-0.1,0.4,0,0.3-0.3l0,0c0.4,0.1,0.6-0.1,0.9-0.3c2.8-1.5,5.1-3.5,7.2-5.8c2.2-2.3,4.2-4.6,5.9-7.2c0.1-0.1,0.2-0.2,0.5-0.2
			c-1,3.1-2.7,5.9-4.4,8.7c-0.2,0.1-0.3,0.2-0.2,0.4c0,0-0.1,0.1-0.1,0.1c-0.1,0.1-0.2,0.1-0.2,0.2c-1.8,2.7-3.9,5.1-6.2,7.3
			c-0.1,0.1-0.2,0.2-0.1,0.4c0.7-0.2,1.4-0.2,1.9-0.7c2.2-1,3.9-2.6,5.6-4.2c3.6-3.6,6.8-7.6,9.7-11.7c0.3-0.4,0.6-0.9,0.9-1.3
			c0,0,0.1,0,0.3-0.2c-1.4,3.6-3.3,6.9-5.2,10c-0.3,0.1-0.4,0.4-0.5,0.6c-1.7,2.5-3.7,4.8-5.9,6.9c-0.5,0.5-1.1,1-1.8,1.6
			c0.6,0.1,0.9,0.2,1.3,0.2c0.8,0.1,1.6,0.1,2.4-0.1c0.1,0.1,0.2,0.1,0.3,0c0.2,0,0.4-0.1,0.6-0.1c0.1,0.1,0.2,0.1,0.3-0.1
			c3.5-0.7,6.7-2.4,9.7-4.4c3.2-2.1,6.2-4.5,9-7.1c0.3-0.3,0.4-0.7,1-0.8c-0.5,1.2-1.2,2.2-1.8,3.3c-0.2,0.1-0.3,0.2-0.3,0.5
			c0,0,0,0,0,0c-0.3,0.1-0.3,0.4-0.5,0.6c-2.3,3-4.6,6-7.6,8.4c-0.8,0.7-1.7,1.3-2.6,1.9c0.6,0.3,1.1,0.5,1.7,0.4
			c0.7,0.1,1.4,0.1,2.1,0c0.1,0.1,0.2,0.1,0.3,0c2.5-0.3,4.7-1.4,6.7-2.7c2.5-1.5,4.8-3.4,6.8-5.5c0.1-0.1,0.3-0.3,0.5-0.4
			c0.1,0,0.2,0,0.3,0c-0.2,0.4-0.5,0.7-0.7,1.1c-0.1,0.1-0.3,0.2-0.2,0.4c-0.2,0-0.3,0.1-0.2,0.3l0,0c-0.2,0-0.2,0-0.2,0.2
			c0,0,0,0,0,0c0,0-0.1,0-0.1,0c-0.4,0.2-0.6,0.6-0.9,0.8c-6.3,6.7-13.5,11.4-22.9,12.3c-2.4,0.2-4.7,0.1-6.9-1.1
			c-1.8-1-3.6-1.9-5.5-2.8c-1.8-0.9-3.5-1.9-5.3-2.8c-4-2-8.1-3.7-12.3-5.1c-2.3-0.8-4.6-1.5-6.9-2c-2.4-0.8-4.9-1.2-7.5-1.6
			c-1-0.3-3.1-0.6-3.5-0.5c1.4,1.1,1.4,1.1,1,2.3c-0.2,0-0.3-0.1-0.5-0.1c0-0.1-0.1-0.2-0.1-0.3c-1.8-1.2-3.7-2.3-5.8-2.7
			c-2.7-0.5-5.4-0.3-8.2-0.5c-0.1,0-0.3-0.1-0.4,0.1c-0.2,0.4-0.2,0.4-0.6,0.3c-0.4-0.1-0.8-0.1-1.3-0.1c-2.1,0-4.2,0.2-6.2,0.7
			c-1.7,0.4-3.3,0.8-4.9,1.6c-1.2,0.4-2.3,1-3.4,1.7c-1.1,0.6-2.1,1.3-3.1,2c-0.5-0.7-0.3-1.3,0.4-1.7c0.6-0.4,1.2-0.8,1.8-1.2
			c1.8-1.1,3.7-2,5.7-2.8c-1-0.1-2,0-3,0.2c-1.4-0.1-2.7,0.2-4.1,0.3c-4,0.5-8,1.1-11.9,2c-1,0.2-2,0.3-3,0.8
			c-0.3,0-0.3,0.2-0.2,0.3c0.1,0.5,0.2,1,0.3,1.5c0.6,3.2,1.7,6.2,3.5,9c0.5,0.7,0.5,1.3,0,1.9c-0.1-0.2-0.3-0.5-0.4-0.7
			c-1.9-3-3.1-6.3-3.6-9.9c-0.2-0.5-0.1-0.9-0.1-1.4c0-0.5-0.2-0.6-0.7-0.5c-0.8,0.2-1.5,0.5-2.3,0.6c-1.8,0.2-2.8,1.4-3.6,2.9
			c-0.4,0.4-0.5,1.1-0.9,1.5c-0.1-0.4,0.2-0.8,0.3-1.2c0.3-0.7,0.6-1.4,1.1-2.3c-0.9,0.3-1.6,0.5-2.3,0.8c-2.1,0.8-4.3,1.5-6.3,2.5
			c-1.8,0.6-3.4,1.5-5,2.3c-3.5,1.8-6.9,3.7-10.2,5.9c-1.7,1-3.4,2.2-5.1,3.4c-5.6,3.9-11,8.1-16.7,12c-3.1,2.1-6.2,4.1-9.5,5.9
			c-0.1,0.1-0.1,0.1-0.2,0.2c0,0,0,0,0,0c-0.3,0.1-0.6,0.2-0.9,0.3c-0.1-0.3,0.1-0.4,0.3-0.5c6.3-6,12.7-11.9,19.6-17.1
			c4.9-3.7,9.9-7.1,15.2-10.2c11.9-7,24.7-11.8,38.3-14.4c1.1-0.2,1.8-0.7,2.3-1.7c0.6-1.2,1.1-2.4,1.3-3.8c0-0.2,0.1-0.5,0.2-0.9
			c0.3,1.1,0.4,2.2,0.9,3.1c0.4,0.7,0.8,1.5,1.7,1.6c0.9,0,1.3-0.7,1.7-1.4c0.6-1,1.1-2,1.7-3.1c0.2,0.4,0.1,0.7,0.1,1
			c-0.1,0.6-0.1,1.3-0.1,1.9c0.1,1.6,1,2.1,2.4,1.3c0.8-0.4,1.4-1.1,1.9-1.7c1.1-1.2,2-2.5,3-3.9c0.2,0.3,0.1,0.5,0.1,0.7
			c-0.3,1.1-0.5,2.2-0.6,3.3c0,0.2,0,0.5,0,0.7c0,0.4,0,0.8,0.4,1c0.4,0.2,0.7-0.2,1-0.5c1.8-1.8,3.2-3.9,4.6-6
			c0.1-0.2,0.1-0.4,0.5-0.4c-0.2,0.7-0.4,1.4-0.5,2.1c-0.4,2.1,0.6,3.1,2.7,2.7c2.1-0.4,3.8-1.5,5.4-2.9c0.1-0.1,0.1-0.1,0.2-0.2
			c0,0,0.1,0,0.2,0c0.1,0.4-0.2,0.6-0.4,0.8c-0.4,0.6-0.7,1.2-1,1.9c-0.3,0.7-0.1,1.1,0.6,1.3c1.9,0.6,3.7,0.4,5.4-0.3
			c2.6-1.1,4.6-3,6.3-5.2c0.1-0.1,0.2-0.2,0.3-0.3c0.1,0.1,0.2,0.2,0.2,0.3c-1,2.3-2.3,4.5-3.7,6.6c-0.3,0.5-0.3,0.7,0.3,0.8
			c1.7,0.2,3.3-0.2,4.8-1c2.4-1.3,4.2-3.3,5.7-5.5c0.1-0.1,0.2-0.3,0.3-0.4c0.1,0.1,0.1,0.1,0.2,0.2c-1.3,2.6-2.6,5.2-3.8,7.9
			c-0.3,0.6-0.2,0.8,0.5,0.7c0.9-0.1,1.6-0.5,2.3-1c2.1-1.4,4-3.1,5.8-4.9c1.7-1.7,3.3-3.4,4.9-5.1c0.1,0.1,0.1,0.1,0.2,0.2
			c-0.2,0.3-0.3,0.7-0.5,1c-0.2,0.2-0.4,0.4-0.4,0.7c-0.1,0.1-0.2,0.3-0.2,0.4c-0.2,0.1-0.3,0.2-0.2,0.4c0,0-0.1,0.1-0.1,0.1
			c-0.2,0.1-0.3,0.2-0.2,0.4c0,0-0.1,0.1-0.1,0.1c-0.4,0.3-0.6,0.8-0.9,1.1c-1.6,2.4-3.3,4.8-5.4,6.7c-0.2,0.2-0.8,0.4-0.6,0.7
			c0.2,0.3,0.7,0.2,1.1,0.2c0.1,0,0.1-0.1,0.2-0.1c2.3-0.7,4.2-2.2,6.1-3.7c0.1-0.1,0.2-0.1,0.3-0.2c0.1,0,0.2,0.1,0.2,0.3
			c-0.9,1.3-1.7,2.6-2.5,4c-0.3,0.5-0.6,1-0.5,1.6c-0.1,0.3,0,0.5,0.3,0.6c0.6,0.3,1.2,0.5,1.8,0.1c1.1-0.3,2-1,2.8-1.7
			c3.3-2.9,6.2-6.2,8.8-9.7c0.1-0.1,0.2-0.1,0.2-0.2c0.1,0.1,0.2,0.2,0.2,0.2c-0.5,0.6-0.6,1.4-1.1,1.9c-0.2,0-0.2,0.1-0.2,0.3
			c-0.3,0.6-0.7,1.2-1,1.8c-0.2,0.1-0.2,0.2-0.2,0.4c-0.2,0.3-0.4,0.6-0.5,0.9c-0.2,0.1-0.3,0.2-0.2,0.4c-0.1,0.1-0.2,0.3-0.2,0.4
			C149.3,60.7,149.2,60.8,149.2,61z"/>
		<path class="st4" d="M53,125.9c0.1,0.1,0.1,0.1,0.2,0.2c-0.2,0.3-0.4,0.7-0.8,0.9l0,0C52.4,126.5,52.8,126.2,53,125.9z"/>
		<path class="st4" d="M52.4,127c0,0.1,0,0.1-0.1,0.2c0,0-0.1-0.1-0.1-0.1C52.3,127,52.3,126.9,52.4,127C52.4,127,52.4,127,52.4,127
			z"/>
		<path class="st3" d="M64,131.6c-0.1,0.1-0.2,0.2-0.3,0.1c-0.1-0.1,0.1-0.2,0.2-0.2C64,131.5,64,131.5,64,131.6z"/>
		<path class="st3" d="M149.6,130.6c-0.1,0.1-0.1,0.2-0.2,0.2c-0.1-0.1-0.2-0.2,0-0.4C149.5,130.4,149.5,130.5,149.6,130.6z"/>
		<path class="st3" d="M63.9,131.4c0.1-0.1,0.1-0.1,0.2,0c0.1,0.1,0,0.1-0.1,0.2C64,131.5,64,131.5,63.9,131.4z"/>
		<path class="st3" d="M39.2,125c-0.1-0.1-0.1-0.1-0.2-0.2c0,0,0-0.1,0.1-0.1C39.1,124.8,39.2,124.9,39.2,125
			C39.2,125,39.2,125,39.2,125z"/>
		<path class="st5" d="M64.1,72.9c-0.1,0.4-0.3,0.8-0.3,1.2c0,0,0,0,0,0c-0.2,0.1-0.1,0.3-0.2,0.5c0,0.1-0.1,0.2-0.1,0.3
			c-0.7,3.4-0.5,6.9,0.2,10.3c2,9,7.1,15.9,14.9,20.7c0.9,0.6,1.8,1.2,2.9,1.4c1.3,0.7,2.7,1.1,4.1,1.7c0.2,0.1,0.4,0.1,0.5-0.1
			c0.3,0.1,0.5,0.3,0.8,0.3c3.7,0.9,7.4,1.1,11.2,0.6c8.2-1.1,15-4.8,20.3-11.1c0.8-0.9,1.6-1.8,2-2.9c0.2-0.2,0.4-0.4,0.4-0.7
			c0.4-0.3,0.6-0.7,0.7-1.2c0.3,0,0.4-0.3,0.5-0.5c0.3-0.7,0.7-1.4,1-2.1c1.4-3.1,2.2-6.4,2.5-9.8c0.6-3.3,0.7-6.5-0.8-9.6
			c0.3-0.3,0-0.5,0-0.7c-0.1-0.5-0.4-1-0.4-1.6c1.1,0.1,2.2,0.4,3.3,0.7c1.2,0.3,2.4,0.6,3.5,0.8c0.1,0.1,0.2,0.1,0.3,0.2
			c0.3,1.4,0.7,2.7,1,4.1c0.4,2,0.7,4.1,0.7,6.2c-0.2,4.4-1,8.6-2.8,12.6c-2,4.6-5,8.5-8.7,11.8c-3.6,3.2-7.6,5.6-12.2,7.3
			c-3.1,1.2-6.3,2-9.6,2.4c-2.4,0.3-4.8,0.5-7.2,0.3c-4.3-0.3-8.5-1-12.6-2.5c-4.5-1.6-8.6-3.9-12.2-7.1c-2.5-2.1-4.6-4.4-6.4-7.1
			c-2.4-3.5-4.1-7.4-4.9-11.6c-0.6-3.1-0.8-6.2-0.5-9.3c0.1-0.8,0.2-1.6,0.3-2.5c0,0,0-0.1,0-0.1c0.1,0,0.3-0.1,0.4-0.1
			C59.2,74.5,61.6,73.5,64.1,72.9z"/>
		<path class="st6" d="M131.5,71.1c-0.1-0.1-0.2-0.1-0.3-0.2c0-0.4-0.1-0.7-0.2-1.1c-0.2-0.5-0.5-1-0.5-1.5c2.4,0.5,4.6,1.2,6.9,2
			c4.2,1.4,8.3,3.1,12.3,5.1c1.8,0.9,3.5,1.9,5.3,2.8c-0.3,0.3,0,0.5,0.1,0.7c0.3,0.8,0.8,1.6,0.8,2.6c-1.6-0.7-3.1-1.6-4.7-2.4
			c-3.5-1.8-7.1-3.5-10.7-5C137.6,72.9,134.6,71.9,131.5,71.1z"/>
		<path class="st6" d="M56.4,75.6c0,0,0,0.1,0,0.1c-1.1,0.3-2.1,0.8-3.1,1.3c-4.3,2-8.4,4.3-12.4,6.9c-0.1,0.1-0.3,0.2-0.5,0.3
			c0.1-0.5,0.5-0.9,0.7-1.3c0.1-0.2,0.4-0.4,0.3-0.7c3.3-2.2,6.7-4.1,10.2-5.9c1.6-0.8,3.3-1.7,5-2.3C56.7,74.5,56.4,75,56.4,75.6z"
			/>
		<path class="st7" d="M156.1,81.7c1.2,0.3,2.1,1.1,3.2,1.6c0.3,0.1,0.8,0.1,0.9,0.6c-1.1,0.5-1.8,1.4-2.3,2.5
			c-0.6,1.3-1.3,2.6-2.2,3.8c0.1-1.1,0.5-2,0.6-3.1c0.2-1.6,0.2-3.2-0.1-4.8C156.1,82,156.1,81.9,156.1,81.7z"/>
		<path class="st7" d="M121.6,93.7c-0.1,0.5-0.2,0.9-0.7,1.2c-1.4-0.9-2.8-1.9-4.3-2.7c-0.3-0.2-0.7-0.4-1.1-0.4
			c-1.4-0.1-2.7-0.2-4.1-0.3c-0.9-0.1-1.8-0.3-2.8,0c0.2,0.3,0.4,0.4,0.6,0.6c1.4,1.4,2.8,2.7,4.2,4.1c0.6,0.6,1.3,1.1,1.8,1.8l0,0
			c-0.4,0.1-0.6-0.1-0.9-0.2c-2.3-0.9-4.6-1.8-7-2.7c-0.3-0.1-0.6-0.3-1-0.2c1.7,2.6,3.3,5.1,4.9,7.6c-0.1,0-0.1,0.1-0.2,0.1
			c-2.6-2-5.2-4-7.9-6.1c0.9,3.2,1.7,6.2,2.5,9.2c-0.1,0-0.1,0-0.2,0.1c-1.4-2.6-2.7-5.2-4.1-7.8c0,0-0.1,0-0.1,0.1
			c-0.2,3.2-0.5,6.4-0.7,9.6c-0.1,0-0.1,0-0.2,0c-1-3.2-2-6.4-3-9.8c-1.2,3.2-2.3,6.2-3.5,9.3c-0.1,0-0.1,0-0.2,0
			c0.3-3.3,0.5-6.6,0.8-9.9c0,0-0.1,0-0.1,0c-2,2.8-4,5.6-6,8.5c-0.1,0-0.1-0.1-0.2-0.1c0.1-0.5,0.3-1.1,0.4-1.6
			c0.5-2.1,1.2-4.2,1.6-6.3l0,0c0.1,0,0.1-0.1,0.1-0.2c0.1-0.4,0.3-0.9,0.3-1.4c-0.1,0-0.2,0-0.2,0.1c-2.8,2.9-4.9,6.2-6.5,9.9
			c-0.1,0.2-0.2,0.4,0.1,0.6c0.6,0.9,1.4,1.5,2.1,2.2c-0.1,0.2-0.3,0.2-0.5,0.1c-1.4-0.6-2.8-0.9-4.1-1.7c-0.6-0.7-1.1-1.4-1.7-2.1
			c-0.8-1.7-1.5-3.3-2.3-5c-0.2-0.5-0.5-0.6-1-0.6c-2.5,0-4.4-1.6-4.6-4c0.2-0.8,0.5-1.5,1.1-2.1c0.4-0.4,0.8-0.7,1.3-1.1
			c0.4-0.2,0.6-0.4,0.5-0.9c-0.3-2-0.2-4-0.2-6.1c0.3-1.3,0.6-2.6,0.8-3.9c0.5-0.6,0.4-1.2,0-1.9c-1.8-2.7-2.9-5.8-3.5-9
			c0.1,0,0.2,0,0.3,0c1,3,2.3,5.8,4.2,8.5c0.9-1.9,2-3.6,3.1-5.2c0.5-0.3,0.6-0.8,0.4-1.3c-0.1-0.3-0.2-0.7-0.3-1.1
			c0.7-1.6,2.2-2.4,3.9-2c0.4,0.1,0.7,0,1-0.2c0.3-0.3,0.7-0.5,1.1-0.8c0.2-0.1,0.4-0.2,0.7-0.2c0.5,0.1,0.9,0.1,1.4,0
			c0.2,0,0.5-0.1,0.5,0.2c-0.6,0.4-1.2,0.9-1.8,1.2c-0.8,0.4-0.9,1-0.4,1.7c0.1,0.3,0.1,0.5,0.2,0.8c0,0.6,0,1.1-0.4,1.6
			c-0.3,0.4-0.1,0.5,0.3,0.6c1.8,1.5,3.7,2.8,5.5,4.1c0.4,0.3,0.7,0.8,1.1,0.6c0.4-0.3,0-0.8-0.2-1.2c-0.7-2.6-1.5-5.3-2.2-7.9
			c0.7,1,1.3,2,1.9,3.1c0.8,1.5,1.7,3,2.5,4.5c0.1,0.2,0.2,0.4,0.5,0.4c0.3-0.1,0.3-0.3,0.3-0.6c0-0.2,0-0.4,0-0.6
			c0-2.7,0-5.4,0-8.2c1,2.8,1.9,5.7,3,8.7c1.2-3,2.4-5.8,3.6-8.6c0.1,0,0.2,0,0.3,0c0,3.1,0,6.2,0,9.4c0.1,0,0.2,0,0.2,0.1
			c1.7-2.4,3.3-4.7,5-7.1c0.1,0,0.2,0.1,0.2,0.1c-0.8,2.9-1.7,5.8-2.5,8.6c0.1,0,0.1,0.1,0.2,0.1c2.4-1.6,4.9-3.2,7.3-4.9
			c0.1,0.1,0.1,0.1,0.2,0.2c-1.8,2.5-3.6,5-5.4,7.5c2.5-0.7,4.8-1.6,7.2-2.4c0.2-0.1,0.4-0.2,0.4-0.5c0.4-0.3,0.6-0.6,0.3-1.1
			c-0.4-0.6-0.5-1.3-0.6-2c0.6-1.2,1.5-1.9,2.9-1.9c0.6,0,0.8-0.2,1-0.7c0.8-1.7,1.3-3.5,1.8-5.4c0.2,0,0.4,0,0.6,0
			c0,0.2,0,0.4,0,0.5c-0.2,0.4-0.3,0.7-0.2,1.1c-0.5,1.4-1,2.9-1.5,4.3c-0.2,0.4,0.1,0.7,0.4,0.9c0.4,0.7,1.1,1.4,0.9,2.3
			c-0.6,1.1-1.5,1.6-2.8,1.6c-0.4,0-0.6,0.2-0.8,0.5c-1.3,1.9-2.8,3.7-4.4,5.3c-0.1,0.1-0.4,0.2-0.4,0.5c0.3,0.1,0.5,0.1,0.8,0
			c1.4,0.1,2.9,0.2,4.3,0.3c-2.4,0.7-4.8,1.3-7.2,1.8c-0.2,0-0.5,0-0.5,0.3c0,0.3,0.3,0.2,0.5,0.3c1,0.2,2,0.4,2.9,0.7
			C116.3,90.2,119.1,91.8,121.6,93.7z M80.9,96.3c-0.4,0.8-0.7,1.5-1.3,2.1c-0.4,0.4-0.4,0.8-0.1,1.2c0.6,1.7,1.6,3.1,2.6,4.5
			c0.3,0.4,0.4,0.1,0.5-0.2c0.4-1.1,0.9-2.1,1.5-3.2c0.1-0.1,0.2-0.3,0-0.5c-0.4,0-0.5,0.3-1,0.5c2-2.6,4-5.1,6-7.6
			c-0.2,0-0.2-0.1-0.3,0c-2.6,0.9-5.1,1.8-7.7,2.7C81,96,80.9,96.1,80.9,96.3z M77.6,84.4c-0.5,2.2-0.6,4.5-0.5,6.7
			c0,0.4,0,0.8,0.5,1c1.6,0.5,2.6,1.5,3,3c0.1,0.4,0.2,0.5,0.5,0.2c2.3-1.5,4.5-2.9,6.8-4.4c0.3-0.1,0.6-0.2,0.9-0.6
			c-1-0.1-1.9-0.1-2.7-0.1c-2.5-0.2-5.1-0.4-7.6-0.6c0,0,0-0.1,0-0.1c1.4-0.3,2.8-0.7,4.3-1c0.7,0,1.4-0.3,2.1-0.5
			c-2.2-0.9-3.7-3-6.1-3.6c0.2-0.3,0.5-0.1,0.5-0.2c-0.5-0.5-0.9-0.9-1.3-1.3C77.8,83.4,77.7,83.9,77.6,84.4z M85.6,74.7
			c-0.1-0.4-0.3-0.5-0.8-0.4c-0.8,0.3-1.6,0.3-2.5,0.1c-0.4-0.1-0.6,0-0.9,0.4c-1.2,2-2.2,4-3.1,6.2c-0.1,0.3-0.2,0.5,0.2,0.7
			c0.4,0.6,1.1,1,1.6,1.5c0.7,0.8,1.5,1.2,2.7,1c0.8-0.1,1.7-0.1,2.5-0.1c1.1,0,2.2,0,3.2,0c0-0.1,0-0.2,0.1-0.3
			c-2.6-1.9-5.1-3.8-7.8-5.8c0.7-0.1,1.2,0.3,1.7,0.4c2.4,0.9,4.8,1.7,7.1,2.6c0.2,0.1,0.5,0.2,0.7,0c0.1-0.2,0-0.3-0.1-0.5
			C88.8,78.7,87.2,76.7,85.6,74.7z M84.2,86c0.8,0.7,1.8,1.2,2.8,1.6c0.2,0.1,0.5,0,0.7,0c0.2,0,0.4-0.1,0.5-0.3
			c0-0.3-0.2-0.3-0.4-0.4C86.6,86.6,85.4,86.3,84.2,86z M112.7,82.5c-1.4,0.9-2.8,1.9-4,3.1C110.3,84.9,111.6,83.8,112.7,82.5z"/>
		<path class="st8" d="M120.5,68.7c-0.4,1.8-1,3.7-1.8,5.4c-0.2,0.5-0.4,0.7-1,0.7c-1.4-0.1-2.3,0.6-2.9,1.9
			c-0.5,1.1-0.4,2.2,0.4,3.1c0,0.3-0.2,0.4-0.4,0.5c-2.4,0.8-4.7,1.7-7.2,2.4c1.8-2.5,3.6-5,5.4-7.5c-0.1-0.1-0.1-0.1-0.2-0.2
			c-2.4,1.6-4.9,3.2-7.3,4.9c-0.1,0-0.1-0.1-0.2-0.1c0.8-2.9,1.7-5.8,2.5-8.6c-0.1,0-0.2-0.1-0.2-0.1c-1.7,2.4-3.3,4.7-5,7.1
			c-0.1,0-0.2,0-0.2-0.1c0-3.1,0-6.2,0-9.4c-0.1,0-0.2,0-0.3,0c-1.2,2.8-2.3,5.6-3.6,8.6c-1-3-2-5.9-3-8.7c0,2.7,0,5.5,0,8.2
			c0,0.2,0,0.4,0,0.6c0,0.2,0,0.5-0.3,0.6c-0.3,0.1-0.4-0.2-0.5-0.4c-0.8-1.5-1.7-3-2.5-4.5c-0.6-1.1-1.2-2.1-1.9-3.1
			c0.7,2.6,1.5,5.3,2.2,7.9c0.1,0.4,0.6,1,0.2,1.2c-0.4,0.3-0.8-0.3-1.1-0.6c-1.9-1.4-3.8-2.7-5.5-4.1c0.1-0.7,0.2-1.4,0.1-2.2
			c-0.1-0.3-0.1-0.5-0.2-0.8c1-0.7,2.1-1.4,3.1-2c1.1-0.6,2.2-1.3,3.4-1.7c0.1,0,0.2,0.1,0.3,0.1c2.4-0.3,4.8-0.3,7.2-0.4
			c4-0.1,8,0,12,0.3c1.7,0.1,3.4,0.3,5.1,0.5c1,0.1,1.9,0.4,2.9,0.3c0.2,0,0.3,0.1,0.5,0.1C120.5,68.6,120.5,68.6,120.5,68.7z
			 M107.8,70.7c0,0,0,0.1,0,0.1c0,0,0,0,0,0C107.8,70.8,107.9,70.8,107.8,70.7C107.9,70.8,107.8,70.7,107.8,70.7z"/>
		<path class="st9" d="M80,105.1c0.6,0.7,1.1,1.4,1.7,2.1c-1.1-0.2-2-0.9-2.9-1.4c-7.9-4.8-13-11.6-14.9-20.7
			c-0.7-3.4-1-6.8-0.2-10.3c0-0.1,0.1-0.2,0.1-0.3c0.2-0.1,0.1-0.3,0.2-0.5c0,0,0,0,0,0c0.4-0.4,0.5-1.1,0.9-1.5c1-0.3,2-0.6,3-0.8
			c1.2-0.3,2.4-0.8,3.7-0.8c0.5,3.6,1.7,6.8,3.6,9.9c0.1,0.2,0.3,0.5,0.4,0.7c-0.3,1.3-0.6,2.6-0.8,3.9c0,0.1-0.1,0.2-0.1,0.3
			c-0.4,2.2-0.4,4.4-0.1,6.6c-0.4,0.4-0.9,0.7-1.3,1.1c-0.6,0.6-0.8,1.3-1.1,2.1c0,0.1-0.1,0.1-0.1,0.2c-0.5,2.7,1.6,5.3,4.4,5.3
			c0.6,0,0.9,0.2,1.2,0.7c0.4,0.7,0.8,1.4,1.3,2.1C79.1,104.2,79.4,104.8,80,105.1z"/>
		<path class="st1" d="M120,68.4c-1,0-2-0.2-2.9-0.3c-1.7-0.3-3.4-0.4-5.1-0.5c-4-0.3-8-0.4-12-0.3c-2.4,0.1-4.8,0.1-7.2,0.4
			c-0.1,0-0.2-0.1-0.3-0.1c1.5-0.9,3.2-1.3,4.9-1.6c2-0.5,4.1-0.7,6.2-0.7c0.4,0,0.9,0.1,1.3,0.1c0.3,0.1,0.3,0,0.6-0.3
			c0.1-0.2,0.3-0.1,0.4-0.1c2.7,0.2,5.5,0,8.2,0.5c2.1,0.4,4,1.5,5.8,2.7C119.9,68.2,119.9,68.3,120,68.4z"/>
		<path class="st1" d="M86.4,68.1c-0.2,0.1-0.4,0.2-0.7,0.2c-0.7,0.1-1.5,0.2-2.2,0.3c-2.7,0.3-5.4,0.8-8.1,1.3
			c-1,0.2-2,0.6-3.1,0.5c-0.1-0.5-0.4-1.1-0.4-1.6c0.9-0.4,2-0.6,3-0.8c3.9-0.9,7.9-1.5,11.9-2c1.3-0.2,2.7-0.4,4.1-0.3
			c-0.3,0.2-0.7,0.3-1,0.5C88.7,66.8,87.4,67.2,86.4,68.1z"/>
		<path class="st10" d="M130.5,68.3c0,0.6,0.3,1,0.5,1.5c0.1,0.4,0.3,0.7,0.2,1.1c-1.2-0.3-2.3-0.6-3.5-0.8
			c-1.1-0.2-2.2-0.6-3.3-0.7c-0.2-0.1-0.3-0.2-0.5-0.3c0-0.3-0.1-0.6-0.2-0.9c-0.2-0.5-0.6-1-0.7-1.5C125.5,67,128,67.5,130.5,68.3z
			"/>
		<path class="st10" d="M56.4,75.6c0.1-0.6,0.3-1.1,0.3-1.7c2-1,4.1-1.7,6.3-2.5c0.7-0.3,1.4-0.5,2.3-0.8c-0.4,0.9-0.7,1.6-1.1,2.3
			c-2.5,0.7-4.9,1.6-7.3,2.6C56.7,75.5,56.5,75.6,56.4,75.6z"/>
		<path class="st11" d="M90.3,97.5c-0.4,2.1-1.1,4.2-1.6,6.3c-0.1,0.5-0.3,1.1-0.4,1.6c0.1,0,0.1,0.1,0.2,0.1c2-2.8,4-5.6,6-8.5
			c0,0,0.1,0,0.1,0c-0.3,3.3-0.5,6.6-0.8,9.9c0.1,0,0.1,0,0.2,0c1.1-3,2.3-6,3.5-9.3c1,3.4,2,6.6,3,9.8c0.1,0,0.1,0,0.2,0
			c0.2-3.2,0.5-6.4,0.7-9.6c0,0,0.1,0,0.1-0.1c1.4,2.6,2.7,5.2,4.1,7.8c0.1,0,0.1,0,0.2-0.1c-0.8-3-1.6-6-2.5-9.2
			c2.7,2.1,5.3,4.1,7.9,6.1c0.1,0,0.1-0.1,0.2-0.1c-1.6-2.5-3.3-5-4.9-7.6c0.4-0.1,0.7,0.1,1,0.2c2.3,0.9,4.6,1.8,7,2.7
			c0.3,0.1,0.6,0.3,0.9,0.2c0,0,0,0.1,0,0.1c0,0,0,0,0,0c0,0,0,0-0.1,0c-0.5-0.7-1.2-1.2-1.8-1.8c-1.4-1.4-2.8-2.7-4.2-4.1
			c-0.2-0.2-0.5-0.4-0.6-0.6c1-0.2,1.9,0,2.8,0c3.3,0.9,6.3,2.2,9.1,4.1c-0.4,1.1-1.2,2-2,2.9c-5.3,6.3-12.1,10.1-20.3,11.1
			c-3.8,0.5-7.5,0.2-11.2-0.6c-0.3-0.1-0.6-0.2-0.8-0.3c-0.7-0.7-1.6-1.3-2.1-2.2c0.2-0.2,0.3-0.5,0.4-0.7c0.7-1.7,1.6-3.4,2.7-4.9
			C88.2,99.6,89.1,98.4,90.3,97.5z M105.7,106c0,0,0,0.1,0,0.1C105.7,106.1,105.7,106.1,105.7,106C105.7,106.1,105.7,106,105.7,106z
			"/>
		<path class="st9" d="M120.9,70.3c0-0.4,0.1-0.8,0.2-1.1c1.7,1.2,2.9,2.9,3.7,4.8c1,2.4,1,4.9,0.8,7.4c-0.3,3.4-1.1,6.7-2.5,9.8
			c-0.3,0.7-0.6,1.4-1,2.1c-0.1,0.2-0.2,0.5-0.5,0.5c-2.5-1.9-5.3-3.5-8.3-4.4c-1-0.3-1.9-0.6-2.9-0.7c-0.2,0-0.5,0-0.5-0.3
			c0-0.3,0.3-0.3,0.5-0.3c2.4-0.6,4.8-1.1,7.2-1.8c-1.4-0.1-2.9-0.2-4.3-0.3c0.1-0.3,0.4-0.5,0.6-0.7c1.1-1.1,2.1-2.2,3-3.6
			c0.3-0.4,0.6-0.6,1.1-0.6c1.7,0,3.1-1.6,2.9-3.1c0.1-1-0.5-1.6-0.9-2.3C120.4,73.8,120.8,72.1,120.9,70.3z"/>
		<path class="st4" d="M125.6,81.3c0.2-2.5,0.2-5-0.8-7.4c-0.8-1.9-2-3.6-3.7-4.8c0-0.2,0-0.4,0-0.5c0.3-1.1,0.3-1.1,1.1-0.3
			c0.3,0.3,0.6,0.6,0.9,0.9c0.6,0.8,1.2,1.6,1.7,2.4C126.3,74.8,126.2,78,125.6,81.3z"/>
		<path class="st4" d="M120.6,95.6c-2.8-1.9-5.9-3.2-9.1-4.1c1.4,0.1,2.7,0.2,4.1,0.3c0.4,0,0.7,0.2,1.1,0.4
			c1.5,0.8,2.9,1.7,4.3,2.7C120.9,95.2,120.7,95.4,120.6,95.6z"/>
		<path class="st7" d="M124.8,71.7c-0.5-0.9-1-1.7-1.7-2.4c0.2-0.3,0.5-0.1,0.8-0.1c0.2,0.1,0.3,0.2,0.5,0.3c0,0.6,0.3,1,0.4,1.6
			C124.8,71.2,125.1,71.4,124.8,71.7z"/>
		<path class="st3" d="M63.8,74.1c0,0.2,0,0.4-0.2,0.5C63.7,74.4,63.6,74.2,63.8,74.1z"/>
		<path class="st11" d="M85.6,74.7c1.6,2,3.2,4,4.8,5.9c0.1,0.1,0.2,0.3,0.1,0.5c-0.2,0.3-0.5,0.1-0.7,0c-2.4-0.9-4.8-1.8-7.1-2.6
			c-0.5-0.2-1-0.5-1.7-0.4c2.6,2,5.2,3.9,7.8,5.8c0,0.1,0,0.2-0.1,0.3c-1.1,0-2.2,0-3.2,0c-0.8,0-1.7-0.1-2.5,0.1
			c-1.1,0.2-2-0.2-2.7-1c-0.5-0.5-1.1-0.9-1.6-1.5c0-0.1,0-0.3,0-0.4c0.7-1.8,1.6-3.5,2.8-5.1c0.2-0.3,0.4-0.2,0.6-0.1
			C83.5,76.3,84.7,75.9,85.6,74.7z"/>
		<path class="st11" d="M82.8,88.6c-1.4,0.3-2.8,0.7-4.3,1c0,0,0,0.1,0,0.1c2.5,0.2,5.1,0.4,7.6,0.6c0.6,0.3,1.2,0.5,1.9,0.8
			c-2.3,1.5-4.5,2.9-6.8,4.4c-0.4,0.2-0.4,0.1-0.5-0.2c-0.5-1.5-1.5-2.6-3-3c-0.6-0.2-0.5-0.6-0.5-1c-0.1-2.3,0-4.5,0.5-6.7
			c0.1,0,0.2,0.1,0.3,0.1C79.4,86.1,81,87.4,82.8,88.6z"/>
		<path class="st8" d="M72.2,70.6c0-0.1,0-0.1,0-0.2c1.1,0,2.1-0.3,3.1-0.5c2.7-0.5,5.4-1,8.1-1.3c0.7-0.1,1.5-0.2,2.2-0.3
			c-0.4,0.3-0.7,0.5-1.1,0.8c-0.3,0.2-0.6,0.3-1,0.2c-1.8-0.4-3.2,0.4-3.9,2c-0.4,0.8-0.4,1.6-0.1,2.4c-1.1,1.7-2.2,3.3-3.1,5.2
			C74.5,76.4,73.3,73.6,72.2,70.6z"/>
		<path class="st11" d="M80.9,96.3c0-0.3,0.1-0.4,0.3-0.4c2.6-0.9,5.1-1.8,7.7-2.7c0,0,0.1,0,0.3,0c-2,2.5-3.9,5-6,7.6
			c0.5-0.1,0.7-0.5,1-0.5c0.2,0.2,0,0.3,0,0.5c-0.6,1-1.1,2.1-1.5,3.2c-0.1,0.3-0.2,0.6-0.5,0.2c-1-1.4-2-2.8-2.6-4.5
			C80.5,98.8,80.9,97.6,80.9,96.3z"/>
		<path class="st4" d="M80,105.1c-0.6-0.3-0.9-0.9-1.2-1.4c-0.5-0.6-0.9-1.3-1.3-2.1c-0.3-0.5-0.6-0.7-1.2-0.7
			c-2.8,0-4.9-2.6-4.4-5.3c0-0.1,0.1-0.1,0.1-0.2c0.2,2.3,2.1,4,4.6,4c0.6,0,0.8,0.2,1,0.6C78.5,101.7,79.2,103.4,80,105.1z"/>
		<path class="st4" d="M82.8,88.6c-1.7-1.2-3.4-2.5-4.9-4c-0.1-0.1-0.2-0.1-0.3-0.1c0.1-0.5,0.2-1,0.3-1.4c0.4,0.4,0.9,0.9,1.3,1.3
			c-0.1,0.1-0.4-0.1-0.5,0.2c2.4,0.6,3.9,2.7,6.1,3.6C84.1,88.3,83.5,88.6,82.8,88.6z"/>
		<path class="st4" d="M120.7,77.8c0.2,1.6-1.2,3.1-2.9,3.1c-0.5,0-0.8,0.2-1.1,0.6c-0.8,1.3-1.9,2.5-3,3.6
			c-0.2,0.2-0.5,0.4-0.6,0.7c-0.3,0.1-0.5,0.1-0.8,0c0-0.3,0.2-0.4,0.4-0.5c1.6-1.6,3.1-3.4,4.4-5.3c0.2-0.3,0.4-0.5,0.8-0.5
			C119.2,79.4,120.1,78.9,120.7,77.8z"/>
		<path class="st4" d="M85.6,74.7c-0.9,1.2-2.2,1.6-3.6,1.3c-0.2,0-0.4-0.1-0.6,0.1c-1.1,1.6-2.1,3.3-2.8,5.1c0,0.1,0,0.3,0,0.4
			c-0.4-0.1-0.3-0.4-0.2-0.7c0.9-2.1,1.9-4.2,3.1-6.2c0.2-0.4,0.4-0.5,0.9-0.4c0.8,0.2,1.7,0.1,2.5-0.1
			C85.3,74.2,85.5,74.3,85.6,74.7z"/>
		<path class="st4" d="M90.3,97.5c-1.2,1-2.1,2.2-3,3.4c-1.1,1.5-2,3.2-2.7,4.9c-0.1,0.3-0.2,0.5-0.4,0.7c-0.3-0.2-0.2-0.4-0.1-0.6
			c1.6-3.7,3.6-7,6.5-9.9c0,0,0.1,0,0.2-0.1c0,0.5-0.2,0.9-0.3,1.4C90.3,97.3,90.2,97.4,90.3,97.5L90.3,97.5z"/>
		<path class="st4" d="M74.4,92.3c-0.3-2.2-0.2-4.4,0.1-6.6c0-0.1,0.1-0.2,0.1-0.3c0.1,2,0,4.1,0.2,6.1C75,92,74.8,92.2,74.4,92.3z"
			/>
		<path class="st11" d="M84.2,86c1.2,0.3,2.4,0.6,3.6,0.9c0.2,0.1,0.4,0.1,0.4,0.4c0,0.3-0.3,0.3-0.5,0.3c-0.2,0-0.5,0.1-0.7,0
			C86,87.2,85,86.7,84.2,86z"/>
		<path class="st4" d="M120.9,70.3c0,1.8-0.5,3.5-1.1,5.1c-0.3-0.2-0.5-0.4-0.4-0.9C119.9,73.2,120.4,71.7,120.9,70.3z"/>
		<path class="st4" d="M115.2,79.7c-0.7-1-0.9-2-0.4-3.1c0.1,0.7,0.3,1.4,0.6,2C115.8,79.1,115.7,79.4,115.2,79.7z"/>
		<path class="st4" d="M80.9,96.3c0,1.3-0.4,2.4-1.4,3.3c-0.3-0.4-0.3-0.7,0.1-1.2C80.2,97.9,80.5,97.1,80.9,96.3z"/>
		<path class="st4" d="M88,91.1c-0.6-0.3-1.2-0.5-1.9-0.8c0.9,0,1.7,0.1,2.7,0.1C88.6,90.8,88.3,91,88,91.1z"/>
		<path class="st4" d="M79.6,73.8c-0.3-0.8-0.3-1.6,0.1-2.4c0.1,0.4,0.1,0.8,0.3,1.1C80.2,73.1,80,73.5,79.6,73.8z"/>
		<path class="st11" d="M90.3,97.5c0-0.1,0-0.1,0.1-0.2C90.4,97.4,90.3,97.4,90.3,97.5z"/>
		<path class="st7" d="M107.8,70.7C107.8,70.7,107.9,70.8,107.8,70.7c0.1,0.1,0,0.1,0,0.2c0,0,0,0,0,0
			C107.8,70.8,107.8,70.7,107.8,70.7z"/>
		<path class="st7" d="M105.7,106C105.7,106,105.7,106.1,105.7,106c0,0.1,0,0.1,0,0.1C105.7,106.1,105.7,106.1,105.7,106z"/>
		<path class="st7" d="M115.2,98C115.2,98,115.3,98,115.2,98C115.3,98.1,115.3,98.1,115.2,98C115.3,98.1,115.2,98,115.2,98
			C115.2,98,115.2,98,115.2,98z"/>
	</g>
</g>
</svg>
