<?xml version="1.0" encoding="utf-8"?>
<!-- Generator: Adobe Illustrator 21.0.0, SVG Export Plug-In . SVG Version: 6.00 Build 0)  -->
<svg version="1.1" id="Layer_1" xmlns="http://www.w3.org/2000/svg" xmlns:xlink="http://www.w3.org/1999/xlink" x="0px" y="0px"
	 viewBox="0 0 330.6 330.6" style="enable-background:new 0 0 330.6 330.6;" xml:space="preserve">
<style type="text/css">
	.st0{fill:#FFFFFF;}
	.st1{clip-path:url(#SVGID_2_);fill:url(#SVGID_3_);}
</style>
<path class="st0" d="M238.2,276.8H92.3c-21.2,0-38.5-17.3-38.5-38.5V92.4c0-21.2,17.3-38.5,38.5-38.5h145.9
	c21.2,0,38.5,17.3,38.5,38.5v145.9C276.7,259.4,259.4,276.8,238.2,276.8z"/>
<g>
	<defs>
		<path id="SVGID_1_" d="M238.2,276.8H92.3c-21.2,0-38.5-17.3-38.5-38.5V92.4c0-21.2,17.3-38.5,38.5-38.5h145.9
			c21.2,0,38.5,17.3,38.5,38.5v145.9C276.7,259.4,259.4,276.8,238.2,276.8z"/>
	</defs>
	<clipPath id="SVGID_2_">
		<use xlink:href="#SVGID_1_"  style="overflow:visible;"/>
	</clipPath>
	
		<linearGradient id="SVGID_3_" gradientUnits="userSpaceOnUse" x1="192.3446" y1="486.8902" x2="192.3446" y2="727.5047" gradientTransform="matrix(1 0 0 1 0 -468)">
		<stop  offset="0" style="stop-color:#3FB3FB"/>
		<stop  offset="1" style="stop-color:#007AFB"/>
	</linearGradient>
	<path class="st1" d="M222.3,134.4c-3.8-13.3-12.3-22.1-25.9-25.4c13.2-7.2,26.3-14.4,39.5-21.7c2.7-1.5,5.3-1.6,7.6,0.8
		c2.1,2.1,2,4.6,0.7,7C236.9,108.1,230.7,121.8,222.3,134.4z M312.7,139.2c0,66.5-53.9,120.3-120.3,120.3S72,205.7,72,139.2
		S125.9,18.9,192.3,18.9S312.7,72.7,312.7,139.2z M192.3,48.5c-50.1,0-90.7,40.6-90.7,90.7s40.6,90.7,90.7,90.7s90.7-40.6,90.7-90.7
		S242.4,48.5,192.3,48.5z M107,126.4c0,0-2.9,14.5,0,25.7c0,0,33.8-4.4,33.8-12.2C140.8,131.9,107,126.4,107,126.4z M178.8,225.1
		c0,0,14.5,2.9,25.7,0c0,0-4.4-33.8-12.2-33.8S178.8,225.1,178.8,225.1z M204.6,53.7c0,0-14.5-2.9-25.7,0c0,0,4.4,33.8,12.2,33.8
		C199,87.5,204.6,53.7,204.6,53.7z M278.3,148c0,0,2.2-14.6-1.3-25.7c0,0-33.5,6-33.1,14C244.3,144.3,278.3,148,278.3,148z
		 M222.8,139.2c0,16.8-13.7,30.5-30.5,30.5s-30.5-13.6-30.5-30.5s13.7-30.5,30.5-30.5S222.8,122.4,222.8,139.2z M192.3,123.8
		c-8.5,0-15.4,6.9-15.4,15.4c0,8.5,6.9,15.4,15.4,15.4s15.4-6.9,15.4-15.4S200.8,123.8,192.3,123.8z M163.8,143.3
		c3.8,13.3,12.3,22.1,25.9,25.4c-13.2,7.2-26.3,14.4-39.5,21.7c-2.7,1.5-5.3,1.6-7.6-0.8c-2.1-2.1-2-4.6-0.7-7
		C149.2,169.6,155.4,155.9,163.8,143.3z"/>
</g>
</svg>
