<?xml version="1.0" encoding="utf-8"?>
<!-- Generator: Adobe Illustrator 23.1.0, SVG Export Plug-In . SVG Version: 6.00 Build 0)  -->
<svg version="1.1" id="Layer_1" xmlns="http://www.w3.org/2000/svg" xmlns:xlink="http://www.w3.org/1999/xlink" x="0px" y="0px"
	 viewBox="0 0 107.6 114" style="enable-background:new 0 0 107.6 114;" xml:space="preserve">
<style type="text/css">
	.st0{fill:#6D6D6D;}
	.st1{fill:#4F4F4D;}
	.st2{fill:#FFFFFF;stroke:#000000;stroke-miterlimit:10;}
	.st3{fill:#F6E400;}
</style>
<path class="st0" d="M12.3,45.1l-0.2,27.5c0,0,0.2,3.3,3.4,6.1s29.8,23.2,29.8,23.2s2.2,2.5,8.5,1.9s7-0.1,11.6-3.7
	s27.9-21.9,27.9-21.9s2.8-2.3,2.8-8.8s-0.2-26.3-0.2-26.3L82.6,46"/>
<path class="st1" d="M14.9,39l30.9-24.1c0,0,3.6-2.3,8.9-2.3s8.7,2.5,8.7,2.5l28.8,22.2c0,0,3.4,2.1,3.7,5.8s-1.5,6.5-1.5,6.5
	L62.1,76.5c0,0-4.1,3-8.3,3s-8.1-3.9-8.1-3.9L17.2,53.6c0,0-4.7-4.2-4.9-8.5S14.9,39,14.9,39z"/>
<path class="st0" d="M48.2,103.1c0,0,9.3,2.3,14.6-1.4s-12.2-8.8-12.2-8.8l-3.1,2.7"/>
<g id="kqRTuO.tif">
</g>
<path class="st2" d="M12.1,72.6"/>
<path class="st3" d="M30,48.3c0.9-0.6,1.7-1.2,2.4-1.9c0.2-0.1,0.3-0.2,0.5-0.3c0.2,0,0.4,0.1,0.6,0.1c0.1,0.1,0.2,0.2,0.3,0.1
	c0,0.1,0.1,0.1,0.2,0.1c0,0.1,0.1,0.1,0.2,0.1c0.2,0,0.4,0.1,0.5,0.1c0.1,0.1,0.2,0.2,0.3,0.1c0,0.1,0.1,0.1,0.2,0.1
	c0,0.1,0.1,0.1,0.2,0.1c0.2,0,0.4,0.1,0.5,0.1c0.1,0.1,0.2,0.2,0.3,0.1c0.1,0,0.1,0.1,0.2,0.1c0,0.1,0.1,0.1,0.1,0
	c0.2,0,0.4,0.1,0.5,0.1c0.1,0.1,0.2,0.2,0.3,0.1c0,0.1,0.1,0.1,0.2,0.1c0,0.1,0.1,0.1,0.1,0c0.2,0,0.4,0,0.5,0
	c0.2,0.2,0.4,0.4,0.7,0.4c0.2,0,0.3,0.1,0.5,0.1c0.2,0.2,0.4,0.3,0.7,0.3c0.2,0,0.3,0.1,0.5,0.1c0.6,0.2,1.2,0.6,1.8,0.6
	c0.2,0,0.3,0.1,0.5,0.1c0.4,0.5,1.1,0.3,1.6,0.6c0,0.1,0.1,0.1,0.1,0.1l0,0c0.2,0,0.3,0.1,0.5,0.1c0.1,0.1,0.2,0.2,0.3,0.1
	c0.1,0.1,0.2,0.1,0.3,0.2l0,0c0.2,0.1,0.5,0.1,0.7,0.2c0.1,0.1,0.2,0.2,0.3,0.1c0,0.1,0.1,0.1,0.1,0.1l0,0c0.2,0.1,0.5,0.1,0.7,0.2
	c0.5,0.5,1.2,0.4,1.8,0.5c0.1,0,0.1,0.1,0.2,0.1c0.3,0.3,0.6,0.4,1,0.4c0.2,0,0.3,0.1,0.5,0.1c0.2,0.2,0.5,0.3,0.7,0.4
	c0.2,0,0.4,0,0.5-0.2c0-0.2-0.1-0.4-0.3-0.4c-0.1-0.1-0.1-0.3-0.2-0.4l0,0c-0.1-0.2-0.2-0.4-0.3-0.5c0-0.2-0.1-0.3-0.3-0.4
	c-0.1-0.1-0.1-0.2-0.2-0.4l0,0c-0.1-0.1-0.1-0.1-0.2-0.2l0,0l0,0c0-0.1-0.1-0.1-0.1-0.2c-0.1-0.6-0.2-1.2-0.8-1.5
	c0-0.4-0.3-0.7-0.5-1c0.1-0.4-0.2-0.6-0.3-0.8c0-0.1-0.1-0.1-0.1-0.2c0-0.2-0.1-0.5-0.3-0.6c0-0.1-0.1-0.1-0.1-0.2
	c0-0.2-0.1-0.4-0.3-0.6c0-0.1-0.1-0.1-0.1-0.2l0,0l0,0c-0.1-0.1-0.1-0.3-0.2-0.4l0,0c-0.1-0.1-0.1-0.1-0.2-0.2l0,0l0,0
	c0-0.1-0.1-0.1-0.1-0.2c-0.1-0.7-0.4-1.3-0.9-1.9c0-0.1-0.1-0.1-0.1-0.2l0,0l0,0c-0.1-0.1-0.1-0.2-0.2-0.4c0-0.3-0.2-0.6-0.4-0.8
	c0-0.1,0-0.1-0.1-0.2c0-0.2-0.1-0.4-0.3-0.6c0-0.1-0.1-0.1-0.1-0.2c-0.1-0.3-0.1-0.6-0.5-0.8c-0.1-0.1-0.1-0.2-0.2-0.4
	c0-0.3-0.2-0.6-0.4-0.8c0-0.1,0-0.1-0.1-0.2c0.1-0.2,0.1-0.4,0.2-0.7c0.9-0.5,1.8-1.2,2.5-2c0.2,0,0.3-0.1,0.5-0.1
	c5.5,4.3,11.1,8.7,16.6,13c0.1,0.1,0.3,0.2,0.5,0.3c0.1,0.3,0,0.5-0.2,0.7c-0.4,0.3-0.8,0.6-1.3,1l0,0c-0.1,0.1-0.1,0.1-0.2,0.2
	c-0.2,0.1-0.5,0.3-0.7,0.4c-0.2-0.1-0.3-0.3-0.5-0.4l0,0c-0.1-0.1-0.1-0.1-0.2-0.2l0,0c-3.4-2.6-6.7-5.3-10.1-7.9
	c-0.3-0.2-0.5-0.5-0.8-0.7c-0.2-0.1-0.4-0.5-0.6-0.2c-0.2,0.2,0,0.4,0.1,0.6c1.2,2.3,2.5,4.6,3.7,6.9c1,2,2,4.1,3.2,6
	c-0.1,0.1-0.1,0.2-0.2,0.2c-0.6,0.2-1.1,0.7-1.5,1.1c-0.1,0.1-0.2,0.2-0.4,0.3c-5.8-1.9-11.6-3.8-17.4-5.6c0,0.1-0.1,0.2-0.1,0.2
	c4.1,3.2,8.1,6.4,12.2,9.6c-0.1,0.2-0.2,0.4-0.3,0.5c-0.6,0.3-1.1,0.7-1.5,1.2c-0.2,0.1-0.5,0.2-0.7,0.3c-3.8-3-7.7-6.1-11.6-9.1
	c-1.9-1.5-3.8-3-5.7-4.5C29.9,48.6,29.9,48.4,30,48.3z"/>
<path class="st3" d="M50.9,31.9c0.7-0.3,1.2-0.9,1.8-1.4c0.2-0.1,0.5-0.2,0.7-0.3c4.7,3.7,9.4,7.3,14,11c0.8,0.6,1.2,0.5,1.8,0
	c2.4-1.9,4.7-3.7,7.1-5.6c0.2,0.1,0.3,0.2,0.5,0.2c0.4,0.5,1,0.9,1.6,1.2c0.1,0.2,0.2,0.3,0.2,0.5c-1.2,0.9-2.4,1.9-3.5,2.8l0,0l0,0
	c-0.2,0.1-0.3,0.3-0.5,0.4l0,0c-0.1,0.1-0.1,0.1-0.2,0.2l0,0l0,0c-0.2,0.1-0.4,0.3-0.6,0.4l0,0c-0.1,0-0.1,0.1-0.2,0.1
	c-0.3,0.3-0.7,0.5-1,0.8c-0.2,0.1-0.4,0.3-0.5,0.4l0,0c-0.1,0.1-0.1,0.1-0.2,0.2l0,0c-0.1,0.1-0.1,0.1-0.2,0.2l0,0l0,0
	c-0.1,0.1-0.2,0.2-0.3,0.3c-0.4,0.1-0.7,0.4-0.9,0.7c-0.7,0.4-1.4,0.9-2,1.5c-0.2,0.1-0.4,0.2-0.5,0.3c-1.4-1.1-2.9-2.2-4.3-3.3
	c-4.3-3.4-8.7-6.8-13-10.2C50.7,32.2,50.8,32.1,50.9,31.9z"/>
</svg>
