<?xml version="1.0" encoding="utf-8"?>
<!-- Generator: Adobe Illustrator 21.0.0, SVG Export Plug-In . SVG Version: 6.00 Build 0)  -->
<svg version="1.1" id="Layer_1" xmlns="http://www.w3.org/2000/svg" xmlns:xlink="http://www.w3.org/1999/xlink" x="0px" y="0px"
	 viewBox="0 0 107.6 114" style="enable-background:new 0 0 107.6 114;" xml:space="preserve">
<style type="text/css">
	.st0{fill:#53A276;}
</style>
<g id="_x36_E0h2D.tif">
	<g>
		<path class="st0" d="M50.4,13.2c4.7,0,9.5,0,14.2,0c0,0.1,0,0.3,0,0.5c0,21.3,0,42.7,0,64c0,0.1,0,0.2,0,0.3c0,0.3,0,0.3-0.3,0.3
			c-0.6,0.1-1.1,0.2-1.7,0.3c-2.6,0.5-5.1,0.8-7.7,1.1c-1.8,0.2-3.6,0.3-5.5,0.4c-2.6,0.1-5.1,0.1-7.7-0.1c-1.8-0.2-3.5-0.4-5.2-0.8
			c-2.5-0.6-4.9-1.4-7.1-2.7c-2.2-1.3-4.1-2.9-5.6-5c-1.4-1.9-2.3-3.9-2.9-6.2c-0.5-1.9-0.8-3.7-0.9-5.7c0-0.3,0-0.5-0.1-0.8
			c0-0.6,0-1.3,0-1.9c0-0.2,0-0.4,0.1-0.6c0.1-0.9,0.1-1.9,0.3-2.8c0.3-2.3,0.9-4.4,1.8-6.5c1.6-3.6,4-6.5,7.3-8.7
			c3.1-2.1,6.6-3.3,10.4-3.8c1.3-0.2,2.5-0.3,3.8-0.3c2.2-0.1,4.3,0.1,6.5,0.6c0.2,0,0.3,0.1,0.5,0.1c0-0.1,0-0.3,0-0.4
			c0-6.9,0-13.8,0-20.6C50.4,13.5,50.4,13.3,50.4,13.2z M50.9,57.6c0-3.6,0-7.2,0-10.9c0-0.1,0-0.2,0-0.2c0-0.1-0.1-0.2-0.2-0.2
			c-0.3-0.1-0.6-0.2-0.9-0.3c-1.4-0.4-2.8-0.4-4.2-0.4c-1.1,0-2.2,0.2-3.3,0.5c-2.4,0.7-4.4,2-5.7,4.2c-1,1.6-1.5,3.4-1.7,5.3
			c-0.1,1.1-0.1,2.3-0.1,3.4c0.1,1.3,0.3,2.6,0.7,3.8c0.7,2.1,2,3.8,3.9,4.9c1.6,0.9,3.3,1.4,5.2,1.5c1.1,0.1,2.3,0.1,3.4,0
			c0.9-0.1,1.7-0.2,2.6-0.3c0.2,0,0.2-0.1,0.2-0.2s0-0.2,0-0.2C50.9,64.8,50.9,61.2,50.9,57.6z"/>
		<path class="st0" d="M72.8,99.8c-0.1-0.1-0.2-0.1-0.3-0.2c-4.1-1.9-8.3-3.9-12.4-5.8c-0.1-0.1-0.3-0.1-0.4-0.2
			c0.1-0.1,0.2-0.1,0.3-0.2c1.8-0.9,3.7-1.8,5.3-3c1.9-1.3,3.5-2.8,4.7-4.8c1-1.7,1.8-3.4,2.2-5.3c0.4-1.4,0.6-2.9,0.8-4.4
			c0.2-2.2,0.3-4.4,0.4-6.6c0.1-2.3,0.1-4.7,0.1-7c0-8.8,0-17.5,0-26.3c0-0.6-0.1-0.5,0.5-0.5c4.4,0,8.8,0,13.3,0c0.1,0,0.2,0,0.4,0
			c0,0.1,0,0.1,0,0.2c0,11.1,0,22.1,0,33.2c0,0.1,0,0.3,0,0.4v0.1c0,2.7-0.1,5.5-0.3,8.2c-0.1,1.6-0.3,3.2-0.6,4.8
			c-0.5,2.4-1.2,4.6-2.3,6.8c-1.6,3.2-3.9,5.8-6.9,7.7c-1.4,0.9-2.9,1.8-4.4,2.5C73.1,99.7,73,99.7,72.8,99.8
			C72.9,99.8,72.9,99.8,72.8,99.8z"/>
		<path class="st0" d="M86.4,13.2c0,1.7,0,3.4,0,5.1c0,3,0,6,0,8.9c0,0.4,0,0.3-0.3,0.3c-4.5,0-9,0-13.5,0c0,0,0,0-0.1,0
			c-0.3,0-0.3,0-0.3-0.3c0-1.6,0-3.1,0-4.7c0-3,0-6.1,0-9.1c0-0.1,0-0.2,0-0.3C76.9,13.2,81.6,13.2,86.4,13.2z"/>
		<path class="st0" d="M87.8,69.4L87.8,69.4c-0.1-0.1-0.1-0.2-0.1-0.4c0-11.1,0-22.1,0-33.2c0-0.1,0-0.1,0-0.2c0,0,0,0,0.1,0
			C87.8,46.9,87.8,58.2,87.8,69.4z"/>
	</g>
</g>
</svg>
