<?xml version="1.0" encoding="utf-8"?>
<!-- Generator: Adobe Illustrator 21.0.0, SVG Export Plug-In . SVG Version: 6.00 Build 0)  -->
<svg version="1.1" id="Layer_1" xmlns="http://www.w3.org/2000/svg" xmlns:xlink="http://www.w3.org/1999/xlink" x="0px" y="0px"
	 viewBox="0 0 400 400" style="enable-background:new 0 0 400 400;" xml:space="preserve">
<style type="text/css">
	.st0{fill:#FFFFFF;}
	.st1{fill:#D66B6B;}
	.st2{fill:#FFFFFF;stroke:#D66B6B;stroke-width:5;stroke-miterlimit:10;}
	.st3{fill:none;stroke:#D66B6B;stroke-width:0.75;stroke-miterlimit:10;}
</style>
<g>
	<g>
		<g>
			<polygon class="st0" points="146.1,132.7 146.1,271.4 184.3,311.2 207.1,304.3 207.1,252 258.6,235.7 261.3,214.4 233.8,186.5 
				261.3,179.3 271.7,168.3 272.4,155.2 227.6,112.9 			"/>
			<g>
				<g id="_x32_cyqoD.tif">
					<g>
						<path class="st1" d="M262.7,235.8c-1,4.7-4.7,6.5-8.8,7.3c-13.5,2.7-27.1,5.3-40.6,7.7c-2.4,0.4-2.9,1.4-2.9,3.6
							c0.1,15,0,30.1,0,45.1c0,7.2-3.3,11.1-10.4,12.4c-3.6,0.7-7.2,1.3-10.8,2.1c-3.9,0.9-7.1-0.1-10-3.1
							c-5.9-6.2-11.9-12.4-18.2-18.2c-5.9-5.6-10.9-12.1-17.5-17c-0.4-0.3-0.5-0.9-0.7-1.3c-0.2-0.2-0.3-0.4-0.5-0.7c0,0,0,0,0,0
							c0-0.6-0.1-1.1-0.6-1.5c-0.1-0.3-0.1-0.6-0.2-0.9c0-1.1,0.1-2.2,0.1-3.4c0-42.3,0-84.5,0-126.8c0-2.2,0-4.5,0.6-6.7
							c0.1-0.1,0.2-0.3,0.1-0.4c0.5-0.4,0.6-0.8,0.5-1.4c1.6-2.7,3.9-4.5,6.8-5.6c2.5,0.5,4.8-0.4,7.1-1.1l0.1,0.1l0.1-0.1
							c5.4-0.6,10.7-1.6,16-3c0.4-0.1,0.8-0.1,1.2-0.2c2.8-0.2,5.6-0.7,8.3-1.7l0.1,0.1c0,0,0.1-0.1,0.1-0.1
							c1.1-0.1,2.2,0.2,3.1-0.6c0.4-0.1,0.8-0.1,1.2-0.2c2.9-0.2,5.6-0.7,8.3-1.7l0.1,0.1c0,0,0.1-0.1,0.1-0.1
							c1.1-0.1,2.2,0.1,3.1-0.6c0.4-0.1,0.8-0.1,1.2-0.2c2.9-0.2,5.6-0.7,8.3-1.7c0.3,0,0.6-0.1,0.9-0.1c0.9,0,1.8,0.2,2.5-0.5
							c0.4-0.1,0.8-0.1,1.2-0.2c1.9,0,3.8-0.4,5.5-1.1c0.4,0,0.8-0.1,1.2-0.1c1.7,0,3.4-0.3,5-1c0.4-0.1,0.8-0.2,1.2-0.2
							c0.6,0,1.2-0.1,1.8-0.1c0.4,0,0.9,0,1.3,0c0.6,0,1.2,0.1,1.8,0.1c0.2,0.1,0.3,0.1,0.5,0.1c0.2,0.1,0.5,0.3,0.7,0.4
							c0.1,0.1,0.3,0.2,0.5,0.2c0.3,0.2,0.5,0.4,0.7,0.6c0.6,0.6,1.2,1.2,1.9,1.8c0.2,0.2,0.4,0.4,0.6,0.7l0,0
							c0.2,0.2,0.4,0.4,0.6,0.7c0,0,0,0,0,0c0.2,0.2,0.4,0.4,0.7,0.7c0,0-0.1-0.1-0.1-0.1c0.2,0.2,0.4,0.4,0.7,0.7l-0.1-0.1
							c0.2,0.2,0.4,0.4,0.7,0.7c0,0-0.1-0.1-0.1-0.1c0.2,0.2,0.4,0.5,0.7,0.7c0.2,0.2,0.3,0.3,0.5,0.5c0.2,0.2,0.5,0.4,0.7,0.7
							l-0.1,0c0.2,0.2,0.4,0.4,0.7,0.7c0,0-0.1-0.1-0.1-0.1c0.2,0.2,0.4,0.4,0.7,0.7c0,0-0.1-0.1-0.1-0.1c0.2,0.2,0.4,0.4,0.7,0.7
							c0,0-0.1-0.1-0.1-0.1c0.2,0.2,0.4,0.4,0.7,0.7l-0.1-0.1c0.2,0.2,0.4,0.4,0.7,0.7c0,0-0.1-0.1-0.1-0.1c0.2,0.2,0.4,0.4,0.7,0.7
							l-0.1-0.1c0.2,0.2,0.4,0.4,0.7,0.7l-0.1-0.1c0.2,0.2,0.4,0.4,0.7,0.7l0,0c0.2,0.2,0.4,0.4,0.7,0.7c0,0-0.1-0.1,0-0.1
							c0.2,0.2,0.4,0.4,0.7,0.7l-0.1-0.1c0.2,0.2,0.4,0.4,0.7,0.7c0,0-0.1-0.1-0.1-0.1c0.2,0.2,0.4,0.4,0.7,0.7c0,0-0.1-0.1-0.1-0.1
							c0.2,0.2,0.4,0.4,0.7,0.7l-0.1-0.1c0.2,0.2,0.4,0.4,0.7,0.7l-0.1-0.1c0.2,0.2,0.4,0.4,0.7,0.7c0,0-0.1-0.1-0.1-0.1
							c0.2,0.2,0.4,0.4,0.7,0.7c0,0-0.1-0.1-0.1-0.1c0.2,0.2,0.4,0.4,0.7,0.7c0,0-0.1-0.1-0.1-0.1c0.2,0.2,0.4,0.4,0.7,0.7
							c0,0-0.1-0.1-0.1-0.1c0.2,0.2,0.4,0.4,0.7,0.7l-0.1-0.1c0.2,0.2,0.4,0.4,0.7,0.7l-0.1-0.1c0.2,0.2,0.4,0.4,0.7,0.7l-0.1-0.1
							c0.2,0.2,0.4,0.4,0.7,0.7l-0.1-0.1c0.2,0.2,0.4,0.4,0.7,0.7l-0.1-0.1c0.2,0.2,0.4,0.4,0.7,0.7l-0.1-0.1
							c0.2,0.2,0.4,0.4,0.7,0.7c0,0-0.1-0.1-0.1-0.1c0.2,0.2,0.4,0.4,0.7,0.7l-0.1-0.1c0.2,0.2,0.4,0.4,0.7,0.7c0,0-0.1-0.1-0.1-0.1
							c0.2,0.2,0.4,0.4,0.7,0.7l-0.1-0.1c0.2,0.2,0.4,0.4,0.7,0.7l-0.1-0.1c0.2,0.2,0.4,0.4,0.7,0.7l-0.1-0.1
							c0.2,0.2,0.4,0.5,0.7,0.7c0,0-0.1-0.1-0.1-0.1c0.2,0.2,0.4,0.5,0.7,0.7c0,0-0.1-0.1-0.1-0.1c0.2,0.2,0.5,0.4,0.7,0.5
							c2.1,2,4.2,3.9,5.9,6.2c0.3,0.2,0.5,0.4,0.8,0.7c0,0-0.1-0.1-0.1-0.1c0.2,0.3,0.4,0.5,0.7,0.8c0.4,0.4,0.7,0.7,1.1,1.1
							c0.3,0.2,0.5,0.4,0.8,0.7c0,0-0.1-0.1-0.1-0.1c0.2,0.2,0.4,0.5,0.7,0.7c0.2,0.2,0.3,0.3,0.5,0.5c0.2,0.2,0.5,0.5,0.7,0.7
							c0,0-0.1-0.1-0.1-0.1c0.2,0.5,0.5,0.9,0.7,1.4c0,0.2,0,0.3,0.1,0.4c0.2,0.3,0.3,0.6,0.5,1l0,0.2c0,5.5,0,11.1,0.1,16.6
							c0,0.3-0.1,0.6-0.1,0.8c-0.7,0.8-1,1.8-1.2,2.8l0.1-0.1c-0.2,0.2-0.4,0.5-0.6,0.7l0,0c-0.2,0.2-0.3,0.4-0.5,0.7l-0.1,0.1
							c-0.3,0.3-0.6,0.7-0.9,1c-0.3,0.3-0.6,0.5-1,0.8c-0.2,0.2-0.4,0.3-0.7,0.5l0,0c-0.4,0.2-0.8,0.4-1.2,0.7l0,0
							c-3.1,1-6.5,1-9.6,2.3c0,0-0.2-0.1-0.2-0.1c-4.3,0.6-8.6,1.1-12.7,2.5c-0.3,0-0.6,0-0.9,0.1c-3,0.2-5.9,0.9-9.2,1.6
							c2.2,2.6,4.2,4.7,6.6,6.5l0-0.1c0.2,0.2,0.5,0.5,0.7,0.7c0,0-0.1-0.1-0.1-0.1c0.1,0.5,0.4,0.8,0.8,0.9l0.1,0.1
							c0.1,0.5,0.5,0.7,0.9,0.8c0,0-0.1-0.1-0.1-0.1c0.2,0.2,0.5,0.5,0.7,0.7c0,0-0.1,0-0.1,0c0.2,0.6,0.6,1,1.3,1.3
							c0,0,0-0.1,0-0.1c0.2,0.2,0.5,0.5,0.7,0.7c0,0-0.1-0.1-0.1-0.1c0.2,0.3,0.5,0.5,0.7,0.8c0.3,0.7,0.8,1.2,1.5,1.5
							c0.4,0.4,0.7,0.7,1.1,1.1c4.2,4.4,8.4,8.7,12.7,13.1c0.9,1.6,2,3.2,1.9,5C263.1,224.9,263.7,230.4,262.7,235.8z M148.5,203.9
							c0,21.6,0,43.1,0,64.7c0,3.3,0.5,3.6,3.6,3c3.4-0.7,6.8-1.3,10.2-1.9c4.9-0.9,5.8-2,5.8-6.9c0-16.3,0-32.5,0-48.8
							c0-2.9,1.1-4.2,3.9-4.7c14.8-2.7,29.5-5.6,44.2-8.4c3.4-0.7,4.7-2.1,4.7-5.6c0-3.4,0-6.7,0-10.1c0-3.2-0.5-3.6-3.7-3
							c-14.6,2.8-29.3,5.6-43.9,8.3c-4.1,0.8-5.2-0.2-5.2-4.3c0-10.8,0.1-21.7,0-32.5c0-3,1.1-4.4,4.1-4.9
							c17.6-3.2,35.1-6.6,52.7-9.9c4.2-0.8,5.3-2.1,5.3-6.4c0-3.1,0-6.1,0-9.2c0-3.2-0.7-3.8-3.9-3.2c-24.2,4.6-48.3,9.3-72.5,13.9
							c-4.6,0.9-5.3,1.8-5.3,6.6C148.5,161.5,148.5,182.7,148.5,203.9z M171.8,271.2c-0.3,0.4-0.9,1.2-1.5,2.1
							c-0.8,1.2,0.4,1.7,0.9,2.2c9.4,9.4,18.8,18.8,28.1,28.3c1,1,1.9,1.9,3.3,0.5c1.3-1.3,1.1-2.3-0.2-3.6
							c-9.4-9.4-18.8-18.8-28.2-28.2C173.8,272,173.4,271.3,171.8,271.2z M251.9,237.1c1.1-0.2,2.5-0.1,3-1.2
							c0.6-1.2-0.8-1.7-1.5-2.3c-9.2-9.2-18.4-18.4-27.5-27.6c-0.4-0.4-0.7-0.7-1.1-1.1c-1.7-1.4-2.6,0.5-3.6,1.1
							c-1.4,0.9,0.2,1.6,0.7,2.1c9.2,9.3,18.5,18.6,27.7,27.8C250.2,236.6,250.9,237.3,251.9,237.1z M183,214
							c10.2,10.1,20.1,19.8,29.9,29.4c0.1,0.1,0.1,0.1,0.2,0.2c1.7,1.2,3.8,0.5,4.8-0.3c1.1-0.9-0.8-1.9-1.6-2.6
							c-8.5-8.6-17.1-17-25.5-25.6C188.6,212.7,186.5,212.6,183,214z M158.3,277.2c0.7,0.8,1.2,1.4,1.8,1.9
							c8.6,8.6,17.2,17.2,25.7,25.8c3.1,3.1,3.1,3.1,7.2,1.5c-0.3-1.1-1.4-1.8-2.1-2.5c-8.4-8.5-16.9-16.8-25.3-25.4
							C163.5,276.2,161.4,275.7,158.3,277.2z M208.3,209.1c0.3,0.4,0.5,0.8,0.8,1c9.3,9.3,18.6,18.7,27.9,28c0.4,0.4,0.7,0.8,1.1,1
							c1.6,0.7,3.5,0.3,4.6-0.7c0.8-0.8-0.9-1.8-1.6-2.5c-8.4-8.5-17-16.8-25.3-25.4C213.6,208.2,211.5,207.5,208.3,209.1z
							 M195.5,211.7c10.1,9.9,19.8,19.5,29.5,29.1c0.1,0.1,0.3,0.3,0.4,0.4c1.7,1.3,3.8,0.5,4.8-0.3c1.1-0.9-0.8-1.9-1.6-2.6
							c-8.5-8.6-17.1-17-25.5-25.6C201,210.4,198.9,210,195.5,211.7z M174.2,218.4c-0.2,0.8,0.8,1.8,1.8,2.8
							c8.6,8.6,17.1,17.2,25.7,25.7c0.6,0.6,1.4,2.5,2.4,1c0.6-1,3.1-1.9,0.8-4.1c-9.4-9.1-18.5-18.4-27.8-27.6
							c-0.6-0.6-1.1-1.4-2-1.1C173.9,215.6,174.5,216.7,174.2,218.4z M227.1,193.5c0.3,2.4-0.6,4.7,1.5,6.7c8.8,8.6,17.4,17.3,26,26
							c0.6,0.6,1,1.6,2.2,1.4c0.8-3.3-0.1-5.7-2.6-8.1c-8.2-7.9-16.1-16-24.1-24C229.4,194.7,228.8,193.6,227.1,193.5z M174.6,258.6
							c-0.9,3.4,0.1,5.8,2.6,8.2c8.1,7.9,16,16,24,24c0.5,0.5,1,1,1.5,1.5c0.9,0.8,1.4,0.7,1.5-0.6c0.1-2.3-0.1-4.3-1.9-6.1
							c-8.5-8.3-16.9-16.8-25.4-25.3C176.3,259.7,175.8,258.9,174.6,258.6z M204,278.1c0.8-3.3,0-5.7-2.5-8.1
							c-8.2-7.9-16.2-16.1-24.3-24.1c-0.7-0.7-1.3-1.9-2.7-1.9c-0.6,3.1-0.1,5.5,2.4,7.9c8.2,7.9,16.2,16.1,24.3,24.2
							C202,276.8,202.5,277.8,204,278.1z M203.4,263.5c0.3-0.1,0.5-0.3,0.8-0.4c0-2.4,0.5-4.7-1.7-6.9c-8.7-8.5-17.2-17.1-25.8-25.7
							c-0.6-0.6-1-1.6-2.1-1.3c-0.8,3.3,0.2,5.7,2.8,8.1c5.9,5.5,11.4,11.4,17.1,17.1C197.4,257.5,200.4,260.5,203.4,263.5z
							 M236.7,128c-0.8,3.9-0.2,6.3,2.3,8.6c8.1,7.8,15.9,15.9,23.9,23.8c0.9,0.9,1.9,2.8,2.9,2.1c1.2-0.9,0.6-3,0.2-4.6
							c-0.2-0.8-1-1.5-1.7-2.1c-3-3.1-6.1-6.1-9.1-9.1C249.2,140.6,243.2,134.5,236.7,128z M234.3,140.7c-0.9,0.8-1.8,1.4-2.5,2.2
							c-0.9,1,0.3,1.4,0.7,1.9c9.4,9.5,18.9,19,28.3,28.5c1.3,1.3,2.4,1.3,3.7,0.2c1.6-1.4,0.4-2.3-0.6-3.2
							c-9.4-9.4-18.8-18.8-28.2-28.2C235.3,141.6,234.9,141.2,234.3,140.7z M219,146.7c6.8,6.6,13.4,12.9,19.8,19.3
							c3.3,3.2,6.6,6.4,9.7,9.8c1.7,1.8,3.9,1,5,0.1c1.4-1.2-0.8-2.1-1.6-2.9c-8.4-8.5-16.9-16.9-25.3-25.5
							C224.6,145.4,222.6,144.9,219,146.7z M207.3,148.7c0.4,0.6,0.7,1,1.1,1.3c9.1,9.1,18.1,18.3,27.2,27.4
							c0.4,0.4,0.8,0.9,1.4,1.2c1.6,0.8,3.5,0.5,4.5-0.5c0.9-0.9-0.9-1.8-1.6-2.5c-8.5-8.6-17.1-17-25.5-25.6
							C212.3,147.9,210.3,147.3,207.3,148.7z M229.5,180.4c-0.3-0.4-0.5-0.8-0.8-1c-9.4-9.4-18.8-18.7-28.1-28.1
							c-0.3-0.3-0.6-0.6-0.9-0.8c-1.5-0.7-3.4-0.3-4.3,0.5c-0.9,0.8,0.8,1.8,1.5,2.5c6.6,6.8,13.3,13.5,20,20.2
							c0.9,0.9,1.8,1.9,3.3,2c2.6,0.2,4.6,1.7,5.8,4C226.9,181.3,227.8,181.4,229.5,180.4z M182.6,153.4c0.2,1,0.9,1.4,1.5,2
							c6.5,6.6,13.2,13.1,19.6,19.8c2.2,2.4,4.3,2.9,7.3,1.3c-0.8-0.9-1.6-1.7-2.3-2.5c-6.2-6.2-12.5-12.3-18.6-18.7
							C187.9,153,185.9,151.6,182.6,153.4z M174.6,155.3c-0.8,3.2,0.1,5.6,2.5,7.9c5,4.7,9.7,9.6,14.5,14.5c2.8,2.8,2.8,2.8,6.4,1.2
							C190.3,171.2,182.5,163.3,174.6,155.3z M185,181.7c-3.5-3.6-7.3-7.3-10.6-10.7C174.1,177.4,179.9,183.1,185,181.7z"/>
					</g>
				</g>
				<polygon class="st1" points="149.8,127.1 225.9,113 225.5,117.4 161.7,128 150.7,129.6 				"/>
				<path class="st1" d="M141.7,271.4c0,0,0.1,3,1.9,4.4c1.8,1.4,7-1.7,7-1.7L141.7,271.4z"/>
				<path class="st1" d="M143.1,132.5"/>
				<path class="st1" d="M143,132.7c0,0-0.9,2.2-1,3.9s2.7,1.9,2.7,1.9"/>
			</g>
			<g>
				<path class="st1" d="M92.4,167.7c0-21.2,0-42.3,0-63.5c0-4.7,0.7-5.7,5.3-6.6c24.2-4.7,48.3-9.3,72.5-13.9
					c3.2-0.6,3.8,0,3.9,3.2c0,3.1,0,6.1,0,9.2c0,4.3-1.1,5.6-5.3,6.4c-17.5,3.3-35.1,6.7-52.7,9.9c-3,0.5-4.1,1.9-4.1,4.9
					c0.1,10.8,0,21.7,0,32.5c0,4.1-0.1,25.1,0,27.9c0.1,16.3,0,32.5,0,48.8c0,4.9-0.9,6-5.8,6.9c-3.4,0.6-6.8,1.3-10.2,1.9
					c-3.1,0.6-3.6,0.2-3.6-3C92.4,210.8,92.4,189.3,92.4,167.7z"/>
				<path class="st1" d="M322.8,243.9c0,21.2,0,42.3,0,63.5c0,4.7-0.7,5.7-5.3,6.6c-24.2,4.7-48.3,9.3-72.5,13.9
					c-3.2,0.6-3.8,0-3.9-3.2c0-3.1,0-6.1,0-9.2c0-4.3,1.1-5.6,5.3-6.4c17.5-3.3,35.1-6.7,52.7-9.9c3-0.5,4.1-1.9,4.1-4.9
					c-0.1-10.8,0-21.7,0-32.5c0-4.1,0.1-25.1,0-27.9c-0.1-16.3,0-32.5,0-48.8c0-4.9,0.9-6,5.8-6.9c3.4-0.6,6.8-1.3,10.2-1.9
					c3.1-0.6,3.6-0.2,3.6,3C322.8,200.7,322.8,222.3,322.8,243.9z"/>
				<polyline class="st1" points="77.2,227.6 92.4,235.7 110.8,231.7 109,114.3 144.2,98.9 171.1,101.8 174,83.5 158.8,71.9 
					118,87.8 80.3,115.6 				"/>
				<path class="st2" d="M312.5,232.9c0,21.2,0,42.3,0,63.5c0,4.7-0.7,5.7-5.3,6.6c-24.2,4.7-48.3,9.3-72.5,13.9
					c-3.2,0.6-3.8,0-3.9-3.2c0-3.1,0-6.1,0-9.2c0-4.3,1.1-5.6,5.3-6.4c17.5-3.3,35.1-6.7,52.7-9.9c3-0.5,4.1-1.9,4.1-4.9
					c-0.1-10.8,0-21.7,0-32.5c0-4.1,0.1-25.1,0-27.9c-0.1-16.3,0-32.5,0-48.8c0-4.9,0.9-6,5.8-6.9c3.4-0.6,6.8-1.3,10.2-1.9
					c3.1-0.6,3.6-0.2,3.6,3C312.5,189.8,312.5,211.4,312.5,232.9z"/>
				<path class="st2" d="M77.2,158.2c0-21.2,0-42.3,0-63.5c0-4.7,0.7-5.7,5.3-6.6c24.2-4.7,48.3-9.3,72.5-13.9
					c3.2-0.6,3.8,0,3.9,3.2c0,3.1,0,6.1,0,9.2c0,4.3-1.1,5.6-5.3,6.4c-17.5,3.3-35.1,6.7-52.7,9.9c-3,0.5-4.1,1.9-4.1,4.9
					c0.1,10.8,0,21.7,0,32.5c0,4.1-0.1,25.1,0,27.9c0.1,16.3,0,32.5,0,48.8c0,4.9-0.9,6-5.8,6.9c-3.4,0.6-6.8,1.3-10.2,1.9
					c-3.1,0.6-3.6,0.2-3.6-3C77.2,201.3,77.2,179.7,77.2,158.2z"/>
			</g>
			<polyline class="st1" points="230.5,318.6 242.4,328.1 249.6,323.3 246,314.8 			"/>
			<polyline class="st1" points="322.5,176.6 313.7,164 314,179.3 			"/>
		</g>
	</g>
</g>
<path class="st3" d="M233.8,186.5l25.4,25.8c0,0,3.5,2.2,3.8,7.9c0.2,5.7-2.2,7-2.2,7"/>
<path class="st3" d="M238.7,119.9l32.4,32.5c0,0,3,0.1,1.3,20.4c0,0-1.7,6.1-6,7.2l-32.5,6.5"/>
<line class="st3" x1="272.2" y1="158" x2="272.2" y2="165.4"/>
</svg>
