<?xml version="1.0" encoding="utf-8"?>
<!-- Generator: Adobe Illustrator 23.1.0, SVG Export Plug-In . SVG Version: 6.00 Build 0)  -->
<svg version="1.1" id="Layer_1" xmlns="http://www.w3.org/2000/svg" xmlns:xlink="http://www.w3.org/1999/xlink" x="0px" y="0px"
	 viewBox="0 0 107.6 114" style="enable-background:new 0 0 107.6 114;" xml:space="preserve">
<style type="text/css">
	.st0{fill:#FFFFFF;}
</style>
<circle cx="30.5" cy="52.2" r="4.7"/>
<g id="XXGWHb.tif">
	<g>
		<path d="M41.5,105.6c-0.2,0-0.3,0-0.5,0c-0.3-0.4-0.6-0.8-0.9-1.1C29,93.3,17.8,82.1,6.6,71c-0.8-0.8-0.9-1.4-0.6-2.4
			c1.2-4.5,2.4-9,3.6-13.5c2.9-10.8,5.9-21.6,8.8-32.4c0.2-0.9,0.6-1.3,1.5-1.5c9.1-2.4,18.2-4.8,27.3-7.3c6.3-1.7,12.6-3.4,19-5.1
			c0.5-0.1,1.2-0.1,1.5,0.2c5,4.9,10,9.9,15,14.9c6,6,11.9,12,18,17.9c1.6,1.6,2.1,2.9,1.5,5.2c-2.4,8.2-4.4,16.5-6.6,24.7
			c-1.8,6.8-3.7,13.5-5.5,20.3c-0.1,0.3-0.4,0.7-0.8,0.8c-2.3,0.7-4.7,1.2-7,1.9c-10.3,2.8-20.7,5.6-31,8.4
			C47.9,103.8,44.8,104.7,41.5,105.6z M25.2,44.7c2.1-3.2,5-5.5,8.7-6.3c3.8-0.9,7.5-0.5,10.9,1.6c5.9,3.6,8.2,9.9,5.7,16.6
			c-2,5.4-7.6,9.2-14.8,8.5c-3.8-0.4-6.8-2.1-9.2-4.9c-2.4-2.8-3.3-6.2-3.1-10c-3.2,12.2,1.7,27,14.7,34.7c12.9,7.7,29.4,5.5,40-6
			c9-9.8,9.9-23.7,6.6-31.3C85.8,55,81.3,61.1,75,63c-6.2,1.9-13.3-0.8-16.4-6.3c-3.1-5.5-2.4-12.7,3.4-17.3
			c3.1-2.5,6.7-3.4,10.7-2.9c3.9,0.5,7.1,2.4,9.6,5.4c-4.1-8.6-14.9-16.5-27.6-16.7C41.4,25.2,29.5,33.7,25.2,44.7z M37.5,39.4
			c-7,0-12.6,5.4-12.7,12c0,6.6,5.7,12.2,12.5,12.2c7,0,12.7-5.4,12.7-12.1C50,44.9,44.4,39.4,37.5,39.4z M70.8,37.9
			c-7.1-0.1-12.7,5.8-12.6,12.2c0.1,6.6,5.8,12.1,12.7,12.1c6.9,0,12.5-5.6,12.5-12.2C83.4,43.3,77.7,37.9,70.8,37.9z"/>
		<path d="M61.5,73c0.1,1.3,0.1,2.5,0.2,3.7c0,0.2,0,0.5,0.1,0.7c0.1,1.7-0.2,3.2-1.8,4c-1.6,0.8-3.2,0.5-4.7-0.5
			c-0.1-0.1-0.2-0.1-0.2-0.1c-0.7,0.3-1.3,0.7-2,0.9c-2.9,0.8-4.9-0.9-4.8-3.8c0.1-1.5,0.1-3,0.2-4.7c-0.5,0-1,0-1.5,0
			c-1.6,0-3-0.6-3.7-2.1c-0.7-1.6-0.7-3.3,0.4-4.8c0.9-1.4,2.3-2.3,3.8-2.8c0.6-0.2,0.8-0.4,0.9-1.1c0-1.6,1.3-2.3,2.5-2.8
			c2.8-1,5.6-1.1,8.2,0.6c0.6,0.4,1.2,1.1,1.3,1.7c0.1,1,0.7,1.3,1.5,1.6c1.9,0.8,3.5,2,4,4.2c0.6,2.8-0.7,4.8-3.6,5.2
			C62.2,72.9,61.9,72.9,61.5,73z M54.4,69.7c1.3,0.3,2.5,0.7,3.7,1c1.4,0.3,2.8,0.7,4.2,0.7c1.6,0,2.6-1.5,2.3-3.1
			c-0.3-1.6-1.8-3.2-3.4-3.5c-0.4-0.1-0.8,0-1.1,0.2c-2.9,2.1-7.8,2.3-10.6,0.3c-0.9-0.6-1.6-0.5-2.4-0.1c-0.6,0.3-1.1,0.7-1.6,1.2
			c-1,0.9-1.4,2.5-0.9,3.6c0.5,1.3,1.2,1.8,3,1.6c1.1-0.1,2.2-0.5,3.3-0.8C52.1,70.5,53.2,70.1,54.4,69.7z M54.3,71.2
			c-1.5,0.6-2.7,1.1-3.9,1.6c-0.2,0.1-0.4,0.3-0.4,0.4C50,75.1,49.8,77.1,50,79c0.1,1,1.1,1.5,2.2,1.4c1-0.2,2.1-0.4,2.1-1.6
			C54.4,76.3,54.3,74,54.3,71.2z M55.9,71.6c0,2.3,0,4.5,0,6.6c0,1.5,0.8,2.3,2.3,2.3c1.3,0,2-0.7,2.1-2.2c0-1.5-0.1-3-0.2-4.6
			c0-0.2-0.2-0.6-0.3-0.7C58.5,72.4,57.3,72,55.9,71.6z"/>
	</g>
</g>
<circle cx="63.7" cy="50.5" r="4.7"/>
<circle class="st0" cx="32.2" cy="53.2" r="1.4"/>
<circle class="st0" cx="65.4" cy="51.5" r="1.4"/>
</svg>
