<?xml version="1.0" encoding="UTF-8" standalone="no" ?>
<!DOCTYPE svg PUBLIC "-//W3C//DTD SVG 1.1//EN" "http://www.w3.org/Graphics/SVG/1.1/DTD/svg11.dtd">
<svg xmlns="http://www.w3.org/2000/svg" xmlns:xlink="http://www.w3.org/1999/xlink" version="1.1" width="500" height="500" viewBox="0 0 500 500" xml:space="preserve">
<desc>Created with Fabric.js 4.6.0</desc>
<defs>
</defs>
<g transform="matrix(9.62 0 0 9.62 297.87 1138.69)" id="698XxB-mc6U4GqiPaERYJ"  >
<path style="stroke: none; stroke-width: 1; stroke-dasharray: none; stroke-linecap: butt; stroke-dashoffset: 0; stroke-linejoin: miter; stroke-miterlimit: 4; fill: rgb(255,153,0); fill-rule: nonzero; opacity: 1;" vector-effect="non-scaling-stroke"  transform=" translate(-128.19, -222.83)" d="M 221.503 210.324 C 116.26799999999999 260.40700000000004 50.958 218.50400000000002 9.150999999999982 193.053 C 6.563999999999982 191.44899999999998 2.166999999999982 193.428 5.9819999999999816 197.81 C 19.909999999999982 214.698 65.55499999999998 255.40300000000002 125.13499999999999 255.40300000000002 C 184.756 255.40300000000002 220.225 222.87100000000004 224.66199999999998 217.19600000000003 C 229.069 211.56900000000002 225.956 208.46500000000003 221.50199999999998 210.324 z M 251.058 194.002 C 248.232 190.322 233.874 189.63600000000002 224.838 190.746 C 215.78799999999998 191.824 202.204 197.35500000000002 203.385 200.67600000000002 C 203.99099999999999 201.92000000000002 205.22799999999998 201.36200000000002 211.445 200.80300000000003 C 217.679 200.181 235.143 197.97700000000003 238.78199999999998 202.73400000000004 C 242.438 207.52400000000003 233.212 230.34200000000004 231.527 234.02200000000005 C 229.899 237.70200000000006 232.149 238.65100000000004 235.207 236.20000000000005 C 238.22299999999998 233.75000000000006 243.683 227.40500000000006 247.34699999999998 218.42600000000004 C 250.986 209.39800000000005 253.20499999999998 196.80400000000003 251.057 194.00200000000004 z" stroke-linecap="round" />
</g>
<g transform="matrix(9.62 0 0 9.62 297.87 1138.69)" id="IsrW7WsWN7haJU8C6uq_O"  >
<path style="stroke: none; stroke-width: 1; stroke-dasharray: none; stroke-linecap: butt; stroke-dashoffset: 0; stroke-linejoin: miter; stroke-miterlimit: 4; fill: rgb(255,153,0); fill-rule: nonzero; opacity: 1;" vector-effect="non-scaling-stroke"  transform=" translate(-128.19, -222.83)" d="M 221.503 210.324 C 116.26799999999999 260.40700000000004 50.958 218.50400000000002 9.150999999999982 193.053 C 6.563999999999982 191.44899999999998 2.166999999999982 193.428 5.9819999999999816 197.81 C 19.909999999999982 214.698 65.55499999999998 255.40300000000002 125.13499999999999 255.40300000000002 C 184.756 255.40300000000002 220.225 222.87100000000004 224.66199999999998 217.19600000000003 C 229.069 211.56900000000002 225.956 208.46500000000003 221.50199999999998 210.324 z M 251.058 194.002 C 248.232 190.322 233.874 189.63600000000002 224.838 190.746 C 215.78799999999998 191.824 202.204 197.35500000000002 203.385 200.67600000000002 C 203.99099999999999 201.92000000000002 205.22799999999998 201.36200000000002 211.445 200.80300000000003 C 217.679 200.181 235.143 197.97700000000003 238.78199999999998 202.73400000000004 C 242.438 207.52400000000003 233.212 230.34200000000004 231.527 234.02200000000005 C 229.899 237.70200000000006 232.149 238.65100000000004 235.207 236.20000000000005 C 238.22299999999998 233.75000000000006 243.683 227.40500000000006 247.34699999999998 218.42600000000004 C 250.986 209.39800000000005 253.20499999999998 196.80400000000003 251.057 194.00200000000004 z" stroke-linecap="round" />
</g>
<g transform="matrix(21.2 0 0 20.79 377.55 323.66)" id="UDAmrtfl7lK54NN-cUxXw"  >
<path style="stroke: none; stroke-width: 1; stroke-dasharray: none; stroke-linecap: butt; stroke-dashoffset: 0; stroke-linejoin: miter; stroke-miterlimit: 4; fill: rgb(66,133,244); fill-rule: nonzero; opacity: 1;" vector-effect="non-scaling-stroke"  transform=" translate(9.01, -54.78)" d="M -3.264 51.509 C -3.264 50.719 -3.334 49.969 -3.454 49.239 L -14.754 49.239 L -14.754 53.749 L -8.284 53.749 C -8.574 55.229 -9.424 56.479 -10.684 57.329 L -10.684 60.329 L -6.824 60.329 C -4.564 58.239 -3.264 55.159 -3.264 51.509 Z" stroke-linecap="round" />
</g>
<g transform="matrix(21.2 0 0 20.79 226.3 398.46)" id="r-y_ZaJuX-tgGYQ9JCwmV"  >
<path style="stroke: none; stroke-width: 1; stroke-dasharray: none; stroke-linecap: butt; stroke-dashoffset: 0; stroke-linejoin: miter; stroke-miterlimit: 4; fill: rgb(52,168,83); fill-rule: nonzero; opacity: 1;" vector-effect="non-scaling-stroke"  transform=" translate(16.14, -58.38)" d="M -14.754 63.239 C -11.514 63.239 -8.804 62.159 -6.824 60.329 L -10.684 57.329 C -11.764 58.049 -13.134 58.489 -14.754 58.489 C -17.884 58.489 -20.534 56.379 -21.484 53.529 L -25.464 53.529 L -25.464 56.619 C -23.494 60.539 -19.444 63.239 -14.754 63.239 Z" stroke-linecap="round" />
</g>
<g transform="matrix(21.2 0 0 20.79 57.27 249.78)" id="8nuXxAfhs7AM5tmusGXoO"  >
<path style="stroke: none; stroke-width: 1; stroke-dasharray: none; stroke-linecap: butt; stroke-dashoffset: 0; stroke-linejoin: miter; stroke-miterlimit: 4; fill: rgb(251,188,5); fill-rule: nonzero; opacity: 1;" vector-effect="non-scaling-stroke"  transform=" translate(24.12, -51.24)" d="M -21.484 53.529 C -21.734 52.809 -21.864 52.039 -21.864 51.239 C -21.864 50.439 -21.724 49.669 -21.484 48.949 L -21.484 45.859 L -25.464 45.859 C -26.284 47.479 -26.754 49.299 -26.754 51.239 C -26.754 53.179 -26.284 54.999 -25.464 56.619 L -21.484 53.529 Z" stroke-linecap="round" />
</g>
<g transform="matrix(21.2 0 0 20.79 227.25 102.04)" id="wQkD6w7gYRFzJTQgmKUMk"  >
<path style="stroke: none; stroke-width: 1; stroke-dasharray: none; stroke-linecap: butt; stroke-dashoffset: 0; stroke-linejoin: miter; stroke-miterlimit: 4; fill: rgb(234,67,53); fill-rule: nonzero; opacity: 1;" vector-effect="non-scaling-stroke"  transform=" translate(16.1, -44.09)" d="M -14.754 43.989 C -12.984 43.989 -11.404 44.599 -10.154 45.789 L -6.734 42.369 C -8.804 40.429 -11.514 39.239 -14.754 39.239 C -19.444 39.239 -23.494 41.939 -25.464 45.859 L -21.484 48.949 C -20.534 46.099 -17.884 43.989 -14.754 43.989 Z" stroke-linecap="round" />
</g>
</svg>