<?xml version="1.0" encoding="utf-8"?>
<!-- Generator: Adobe Illustrator 24.1.0, SVG Export Plug-In . SVG Version: 6.00 Build 0)  -->
<svg version="1.1" id="Layer_1" xmlns="http://www.w3.org/2000/svg" xmlns:xlink="http://www.w3.org/1999/xlink" x="0px" y="0px"
	 viewBox="0 0 200 200" style="enable-background:new 0 0 200 200;" xml:space="preserve">
<style type="text/css">
	.st0{fill:#FFFFFF;}
</style>
<g id="ioEa2l.tif">
	<g>
		<path class="st0" d="M13.5,169.5c0-45.8,0-91.6,0-137.4c0.1-0.2,0.2-0.4,0.2-0.5c1.2-8,5.7-13.4,13.3-16.2
			c1.4-0.5,2.9-0.7,4.4-1.1c10.7,0,21.3,0,32,0c0,0.1,0,0.2,0,0.2c0,42.1,0,84.2,0,126.3c0,1.2,0.3,1.6,1.7,1.6c5,0,10,0,15,0
			c1.9,0,2-0.2,2-2c0-16.9,0-33.8,0-50.8c0-1.4,0-2.8,0.2-4.1c0.4-4.4,1.9-8.4,5.1-11.6c4.3-4.3,9.6-6.1,15.7-5.7
			c6.9,0.5,11.3,4.3,13.5,10.7c1.2,3.6,1.6,7.4,1.6,11.2c0,16.8,0,33.7,0,50.5c0,1.6,0.2,1.8,1.8,1.8c5,0,10.1,0,15.1,0
			c1.5,0,1.6-0.2,1.6-1.6c0-16,0-31.9,0-47.9c0-3.3-0.1-6.4-0.4-9.7c-0.5-5.4-1.6-10.5-4-15.4c-3.7-7.9-9.6-13.2-18.2-15.4
			c-4.3-1.2-8.8-1.3-13.3-1c-7.3,0.5-13.4,3.3-18.2,8.8c-0.2,0.2-0.3,0.4-0.5,0.5c-0.1,0-0.2-0.1-0.2-0.1c0-0.4,0-0.7,0-1.1
			c0-14.8,0-29.6,0-44.4c0-0.4-0.1-0.8-0.1-1.1c28.9,0,57.8,0,86.6,0c0.2,0.1,0.4,0.2,0.5,0.2c9.7,1.2,17.2,9.6,17.2,19.4
			c0,44.5,0,89,0,133.5c0,0.9-0.1,1.7-0.2,2.6c-1,9.7-9.5,17.4-19.2,17.4c-44.6,0-89.3,0-133.9,0c-8.5,0-16-5.4-18.6-13.5
			C14.1,172.4,13.9,171,13.5,169.5z M146.5,155.5c-30.9,0-61.9,0-92.8,0c0,3,0,6.1,0,9.1c30.9,0,61.9,0,92.8,0
			C146.5,161.5,146.5,158.6,146.5,155.5z"/>
	</g>
</g>
</svg>
