<?xml version="1.0" encoding="utf-8"?>
<!-- Generator: Adobe Illustrator 24.1.0, SVG Export Plug-In . SVG Version: 6.00 Build 0)  -->
<svg version="1.1" id="Layer_1" xmlns="http://www.w3.org/2000/svg" xmlns:xlink="http://www.w3.org/1999/xlink" x="0px" y="0px"
	 viewBox="0 0 216 216" style="enable-background:new 0 0 216 216;" xml:space="preserve">
<style type="text/css">
	.st0{clip-path:url(#SVGID_2_);}
	.st1{fill:#038CCE;stroke:#FFFFFF;stroke-width:25;stroke-miterlimit:10;}
	.st2{fill:#FF010A;stroke:#FFFFFF;stroke-width:25;stroke-miterlimit:10;}
	.st3{fill:#038CCE;}
	.st4{fill:#FF010A;}
</style>
<g>
	<defs>
		<path id="SVGID_1_" d="M56.4,202.6c-42.4-5.3-23.8-30.4-20.1-32.9c1.8-1.2,6.3-4.6,13.4-6.5s15.2-2.7,15.2-2.7l-28.4-29.5
			l0.4-27.1L113.2-2.1h29.6l13.8,16.5L155,26.2l-5.5,12.3l1.7,1.3c0,0,11.1-1,13.1,11.6c0,0,1.4,8.4-9.2,13.7s10.5,16.4,10.5,16.4
			l31.7,23.2v16.4l-5.3,28.7l-16,14.4c0,0,15.8,10.1,10.4,32.8c-5.4,22.7-20.1,18.4-20.1,18.4L63,216L56.4,202.6z"/>
	</defs>
	<clipPath id="SVGID_2_">
		<use xlink:href="#SVGID_1_"  style="overflow:visible;"/>
	</clipPath>
	<g id="iA6Cji.tif_1_" class="st0">
		<g>
			<path class="st1" d="M41.3,182.9c0.2,0,0.2-0.1,0.3-0.2c0.4-1.7,1.6-2.7,3-3.7c2.1-1.5,4.4-2.3,6.8-3.1c4.9-1.6,9.9-2.5,14.9-2.9
				c1.3-0.1,2.6-0.1,3.8,0c0.1,0,0.3,0,0.4,0.2c-2.1,0.4-4.2,0.8-6.3,1.2c-2.7,0.6-5.3,1.3-7.7,2.5c-0.8,0.4-1.5,0.8-2.2,1.4
				c-0.1,0.1-0.2,0.2-0.2,0.2c-1.2,1.3-1,2.3,0.4,3.2c1.3,0.8,2.8,1.3,4.3,1.6c3.4,0.8,6.9,1.4,10.4,1.8c3.4,0.4,6.8,0.8,10.1,1.1
				c2.5,0.2,5,0.4,7.6,0.5c6.4,0.4,12.7,0.2,19.1,0.1c3.5,0,6.9-0.2,10.4-0.3c6-0.2,11.9-0.5,17.8-1c5.3-0.4,10.6-0.9,15.9-1.6
				c4.6-0.6,9.1-1.4,13.5-2.8c1.5-0.5,2.9-1,4.2-1.8c0.4-0.3,0.9-0.6,1.2-1c0.7-0.7,0.9-1.5,0.7-2.5c-0.1-0.4-0.3-0.9-0.5-1.4
				c1.2,0.6,2,1.4,2.4,2.5c0.3,0.8,0,1.5-0.6,2.1c-0.8,0.9-1.7,1.6-2.7,2.3c-2.7,1.8-5.7,3-8.7,4c-4.9,1.6-9.8,2.7-14.9,3.6
				c-4.2,0.7-8.5,1.2-12.8,1.6c-3.8,0.3-7.5,0.6-11.3,0.7c-5.3,0.3-10.6,0.4-15.9,0.5c-6.1,0.1-12.2,0.1-18.3-0.1
				c-6.1-0.2-12.3-0.5-18.4-1c-4-0.3-8-0.7-12-1.4c-3.2-0.5-6.4-1.1-9.5-2.2c-1.3-0.4-2.5-0.9-3.6-1.7c-0.6-0.4-1.1-0.9-1.3-1.6
				c0-0.1-0.1-0.2-0.3-0.2C41.3,183.6,41.3,183.2,41.3,182.9z"/>
			<path class="st2" d="M110.1,115.8c-6.1-6-11.8-12.2-16.8-18.9c-2.2-2.9-4.3-5.9-5.8-9.2c-1-2.1-1.6-4.2-1.4-6.5
				c0.2-2.1,0.9-4,1.9-5.8c1.6-2.9,3.7-5.5,6-7.9c3.7-3.9,7.8-7.4,12-10.8c4.1-3.5,8.3-6.8,12.4-10.3c3.7-3.1,6.7-6.8,8.9-11.2
				c2.5-5,3.8-10.3,3.5-16c-0.1-1.1-0.2-2.2-0.4-3.3c-0.1-0.3-0.1-0.6-0.1-1c0-0.2-0.1-0.3,0.1-0.4c0.2-0.1,0.4,0.1,0.5,0.2
				c0.5,0.7,0.9,1.3,1.3,2.1c0.5,1.3,0.8,2.6,1.1,3.9c0.8,3.6,1,7.3,0.6,10.9c-0.6,5.1-2.4,9.8-5.4,14c-1.9,2.7-4.2,4.9-6.5,7.2
				c-5,4.8-10.1,9.5-14.9,14.4c-2.7,2.7-5.2,5.6-7.4,8.7c-1.2,1.7-2.2,3.6-3,5.5c-1.1,2.5-1.2,5.1-0.6,7.8c0.8,3.3,2,6.5,3.6,9.5
				c2.7,5.3,5.8,10.3,9.2,15.1C109.3,114.4,109.7,114.9,110.1,115.8z"/>
			<path class="st2" d="M151.9,52.2c-0.1,0.3-0.4,0.4-0.6,0.5c-4,2.5-8,5-11.9,7.8c-4.2,3-8.3,6.2-11.9,9.9
				c-1.7,1.8-3.2,3.6-4.3,5.8c-0.6,1.2-1.1,2.4-1.4,3.7c-0.3,1.9,0,3.7,0.8,5.5c0.8,1.8,1.9,3.5,2.9,5.2c1.6,2.4,3.2,4.8,4.5,7.4
				c0.9,1.8,1.6,3.7,1.9,5.8c0.4,2.6-0.3,5.1-1.6,7.3c-1.3,2.2-2.9,4.1-4.7,5.8c-2.2,2.1-4.6,3.9-7.1,5.4c-0.2,0.1-0.4,0.3-0.7,0.2
				c0.1-0.2,0.2-0.4,0.4-0.6c1.4-1.9,2.7-3.8,3.8-5.9c1.6-3,1.5-6,0-9c-1.2-2.2-2.7-4.2-4.1-6.2c-1.4-2-2.9-4-4-6.2
				c-1.5-3-2.4-6.1-2.5-9.4c-0.1-3.6,0.8-6.9,2.6-10c2-3.6,4.9-6.5,8.1-9c4.6-3.7,9.7-6.4,15-8.8c4.6-2.1,9.3-3.8,14.1-5.2
				C151.3,52.3,151.6,52.1,151.9,52.2z"/>
			<path class="st1" d="M84.8,159.3c0,0.3-0.2,0.5-0.4,0.8c-0.7,1.2-0.5,2.1,0.6,2.9c0.9,0.7,2,1,3.2,1.2c1.4,0.3,2.8,0.5,4.3,0.5
				c4.2,0.2,8.4,0.3,12.6,0.3c4.6-0.1,9.2-0.3,13.8-0.7c3.4-0.3,6.8-0.7,10-1.6c0.7-0.2,1.4,0,2,0.4c1.6,1,3.3,2,5,2.9
				c1.1,0.6,2.2,1.1,3.4,1.6c0.2,0.1,0.4,0.1,0.6,0.4c-0.6,0.4-1.3,0.6-1.9,0.8c-5.8,1.8-11.7,3.4-17.7,4.3c-4.5,0.7-9,1-13.6,0.9
				c-4.6-0.1-9.2-0.4-13.7-1c-3.8-0.5-7.5-1.3-11-2.8c-0.9-0.4-1.8-0.8-2.6-1.4c-0.7-0.5-1.4-1.1-1.8-1.8c-0.8-1.3-0.7-2.6,0.1-3.8
				c0.3-0.4,0.7-0.9,1.1-1.2c1.6-1.2,3.4-2.1,5.4-2.6C84.4,159.3,84.6,159.2,84.8,159.3z"/>
			<path class="st1" d="M142.8,147.7c-1.5,0.7-3.1,1-4.6,1.5c-4.4,1.2-8.8,2.2-13.3,2.9c-3.4,0.5-6.7,0.9-10.1,1.1
				c-5.7,0.4-11.3,0.1-17-0.1c-2.6-0.1-5.3-0.3-7.9-0.5c-4.3-0.4-8.6-1-12.8-2.3c-1-0.3-2-0.7-3-1.2c-0.5-0.2-1-0.5-1.4-0.9
				c-1.2-1-1.5-2.2-1-3.7c0.3-0.9,0.8-1.7,1.4-2.3c2.1-2,4.7-2.9,7.5-3.5c0,0.3-0.2,0.4-0.3,0.6c-0.4,0.5-0.8,0.9-1.1,1.4
				c-0.6,1.2-0.4,2.3,0.7,3.1c1.1,0.8,2.4,1.2,3.7,1.5c3.3,0.7,6.6,0.9,10,1c3.8,0.2,7.6,0.1,11.3-0.1c3.9-0.2,7.8-0.4,11.7-0.7
				c3.7-0.3,7.5-0.7,11.2-1.2c2.1-0.3,4.2-0.6,6.4-1c0.9-0.2,1.7,0,2.3,0.6c0.8,0.7,1.7,1.4,2.7,2c1,0.6,2,1.1,3.2,1.5
				C142.5,147.5,142.7,147.5,142.8,147.7z"/>
			<path class="st1" d="M87.4,117.2c-3,0.9-5.8,1.6-8.6,2.6c-1.9,0.6-3.7,1.3-5.4,2.2c-0.9,0.4-1.7,0.9-2.4,1.6
				c-1.3,1.2-1.2,2.2,0.5,2.9c1.5,0.6,3,0.9,4.6,1.1c6.4,0.8,12.9,1,19.4,1.1c3.1,0,6.2,0.1,9.3-0.1c3.1-0.1,6.2-0.3,9.4-0.6
				c2.5-0.2,5-0.4,7.6-0.6c2.9-0.3,5.7-0.5,8.6-0.9c3.3-0.4,6.5-0.8,9.8-1.2c3.1-0.4,6.2-0.9,9.4-1.4c0.2,0,0.4-0.1,0.6,0
				c0.1,0.3-0.2,0.3-0.3,0.4c-2.2,1.4-4.4,2.7-6.6,4.1c-0.5,0.3-0.9,0.4-1.5,0.5c-4.2,0.6-8.4,1.2-12.6,1.8
				c-3.6,0.5-7.2,0.9-10.9,1.2c-3.7,0.4-7.3,0.7-11,0.9c-3.6,0.2-7.3,0.4-10.9,0.4c-2.6,0-5.1-0.1-7.7-0.2c-2.7-0.1-5.5-0.2-8.2-0.4
				c-2.9-0.2-5.9-0.4-8.8-0.7c-2.8-0.3-5.7-0.6-8.5-1.2c-1.4-0.3-2.9-0.7-4.2-1.2c-0.6-0.2-1.2-0.5-1.7-0.9c-0.9-0.7-1-1.5-0.2-2.3
				c0.6-0.7,1.4-1.2,2.2-1.7c2.2-1.3,4.5-2.2,6.8-3.1c5.5-2,11.2-3.4,17.1-4.2c1.1-0.1,2.1-0.2,3.2-0.3
				C86.6,117,86.9,117,87.4,117.2z"/>
			<path class="st1" d="M67.7,196c3.4,0.3,6.7,0.6,10,0.9c3,0.3,6.1,0.5,9.1,0.7c4.6,0.3,9.2,0.5,13.9,0.6c4.8,0.1,9.5,0.2,14.3,0.1
				c2.8-0.1,5.5-0.1,8.3-0.2c5.2-0.2,10.4-0.6,15.5-1.1c5.1-0.6,10.3-1.3,15.3-2.3c4.8-1,9.6-2.3,14.2-4.1c3.9-1.5,7.6-3.5,11-6
				c0.2-0.1,0.4-0.3,0.5-0.4c0.1,0,0.1,0,0.3-0.1c-0.1,0.8-0.4,1.4-0.9,2c-1.5,2.1-3.5,3.8-5.7,5.1c-3.2,2-6.7,3.4-10.3,4.6
				c-4,1.3-8.1,2.1-12.2,2.8c-5.3,0.9-10.7,1.6-16.1,2.1c-6.6,0.6-13.3,1-20,1.1c-4.7,0.1-9.4,0-14.1-0.2c-4.8-0.2-9.5-0.6-14.2-1.3
				c-6-0.8-11.9-2-17.7-3.6c-0.3-0.1-0.6-0.2-0.9-0.3C67.9,196.3,67.9,196.2,67.7,196z"/>
			<path class="st1" d="M151.3,151.7c0.6-0.4,1-0.7,1.5-1c3.1-1.9,6-3.9,8.8-6.2c2.9-2.4,5.7-5,7.9-8.1c1.5-2.1,2.5-4.4,3-6.9
				c0.9-5.2-2-10-7.1-11.4c-2.9-0.8-5.8-0.9-8.7-0.4c-0.2,0-0.4,0.1-0.6,0.1c-0.1,0-0.1,0-0.2,0c0-0.2,0.2-0.3,0.3-0.4
				c1.2-0.9,2.7-1.5,4.2-1.8c3.4-0.7,6.7-0.7,10,0.4c2.8,1,5.2,2.5,7.1,4.8c3.1,3.8,3.6,8,1.8,12.5c-1.3,3.1-3.5,5.6-5.9,7.8
				c-2.9,2.6-6.1,4.5-9.5,6.2c-3.6,1.8-7.5,3.2-11.4,4.3C152,151.7,151.7,151.8,151.3,151.7z"/>
		</g>
	</g>
</g>
<g id="iA6Cji.tif">
	<g>
		<path class="st3" d="M41.3,182.9c0.2,0,0.2-0.1,0.3-0.2c0.4-1.7,1.6-2.7,3-3.7c2.1-1.5,4.4-2.3,6.8-3.1c4.9-1.6,9.9-2.5,14.9-2.9
			c1.3-0.1,2.6-0.1,3.8,0c0.1,0,0.3,0,0.4,0.2c-2.1,0.4-4.2,0.8-6.3,1.2c-2.7,0.6-5.3,1.3-7.7,2.5c-0.8,0.4-1.5,0.8-2.2,1.4
			c-0.1,0.1-0.2,0.2-0.2,0.2c-1.2,1.3-1,2.3,0.4,3.2c1.3,0.8,2.8,1.3,4.3,1.6c3.4,0.8,6.9,1.4,10.4,1.8c3.4,0.4,6.8,0.8,10.1,1.1
			c2.5,0.2,5,0.4,7.6,0.5c6.4,0.4,12.7,0.2,19.1,0.1c3.5,0,6.9-0.2,10.4-0.3c6-0.2,11.9-0.5,17.8-1c5.3-0.4,10.6-0.9,15.9-1.6
			c4.6-0.6,9.1-1.4,13.5-2.8c1.5-0.5,2.9-1,4.2-1.8c0.4-0.3,0.9-0.6,1.2-1c0.7-0.7,0.9-1.5,0.7-2.5c-0.1-0.4-0.3-0.9-0.5-1.4
			c1.2,0.6,2,1.4,2.4,2.5c0.3,0.8,0,1.5-0.6,2.1c-0.8,0.9-1.7,1.6-2.7,2.3c-2.7,1.8-5.7,3-8.7,4c-4.9,1.6-9.8,2.7-14.9,3.6
			c-4.2,0.7-8.5,1.2-12.8,1.6c-3.8,0.3-7.5,0.6-11.3,0.7c-5.3,0.3-10.6,0.4-15.9,0.5c-6.1,0.1-12.2,0.1-18.3-0.1
			c-6.1-0.2-12.3-0.5-18.4-1c-4-0.3-8-0.7-12-1.4c-3.2-0.5-6.4-1.1-9.5-2.2c-1.3-0.4-2.5-0.9-3.6-1.7c-0.6-0.4-1.1-0.9-1.3-1.6
			c0-0.1-0.1-0.2-0.3-0.2C41.3,183.6,41.3,183.2,41.3,182.9z"/>
		<path class="st4" d="M110.1,115.8c-6.1-6-11.8-12.2-16.8-18.9c-2.2-2.9-4.3-5.9-5.8-9.2c-1-2.1-1.6-4.2-1.4-6.5
			c0.2-2.1,0.9-4,1.9-5.8c1.6-2.9,3.7-5.5,6-7.9c3.7-3.9,7.8-7.4,12-10.8c4.1-3.5,8.3-6.8,12.4-10.3c3.7-3.1,6.7-6.8,8.9-11.2
			c2.5-5,3.8-10.3,3.5-16c-0.1-1.1-0.2-2.2-0.4-3.3c-0.1-0.3-0.1-0.6-0.1-1c0-0.2-0.1-0.3,0.1-0.4c0.2-0.1,0.4,0.1,0.5,0.2
			c0.5,0.7,0.9,1.3,1.3,2.1c0.5,1.3,0.8,2.6,1.1,3.9c0.8,3.6,1,7.3,0.6,10.9c-0.6,5.1-2.4,9.8-5.4,14c-1.9,2.7-4.2,4.9-6.5,7.2
			c-5,4.8-10.1,9.5-14.9,14.4c-2.7,2.7-5.2,5.6-7.4,8.7c-1.2,1.7-2.2,3.6-3,5.5c-1.1,2.5-1.2,5.1-0.6,7.8c0.8,3.3,2,6.5,3.6,9.5
			c2.7,5.3,5.8,10.3,9.2,15.1C109.3,114.4,109.7,114.9,110.1,115.8z"/>
		<path class="st4" d="M151.9,52.2c-0.1,0.3-0.4,0.4-0.6,0.5c-4,2.5-8,5-11.9,7.8c-4.2,3-8.3,6.2-11.9,9.9c-1.7,1.8-3.2,3.6-4.3,5.8
			c-0.6,1.2-1.1,2.4-1.4,3.7c-0.3,1.9,0,3.7,0.8,5.5c0.8,1.8,1.9,3.5,2.9,5.2c1.6,2.4,3.2,4.8,4.5,7.4c0.9,1.8,1.6,3.7,1.9,5.8
			c0.4,2.6-0.3,5.1-1.6,7.3c-1.3,2.2-2.9,4.1-4.7,5.8c-2.2,2.1-4.6,3.9-7.1,5.4c-0.2,0.1-0.4,0.3-0.7,0.2c0.1-0.2,0.2-0.4,0.4-0.6
			c1.4-1.9,2.7-3.8,3.8-5.9c1.6-3,1.5-6,0-9c-1.2-2.2-2.7-4.2-4.1-6.2c-1.4-2-2.9-4-4-6.2c-1.5-3-2.4-6.1-2.5-9.4
			c-0.1-3.6,0.8-6.9,2.6-10c2-3.6,4.9-6.5,8.1-9c4.6-3.7,9.7-6.4,15-8.8c4.6-2.1,9.3-3.8,14.1-5.2C151.3,52.3,151.6,52.1,151.9,52.2
			z"/>
		<path class="st3" d="M84.8,159.3c0,0.3-0.2,0.5-0.4,0.8c-0.7,1.2-0.5,2.1,0.6,2.9c0.9,0.7,2,1,3.2,1.2c1.4,0.3,2.8,0.5,4.3,0.5
			c4.2,0.2,8.4,0.3,12.6,0.3c4.6-0.1,9.2-0.3,13.8-0.7c3.4-0.3,6.8-0.7,10-1.6c0.7-0.2,1.4,0,2,0.4c1.6,1,3.3,2,5,2.9
			c1.1,0.6,2.2,1.1,3.4,1.6c0.2,0.1,0.4,0.1,0.6,0.4c-0.6,0.4-1.3,0.6-1.9,0.8c-5.8,1.8-11.7,3.4-17.7,4.3c-4.5,0.7-9,1-13.6,0.9
			c-4.6-0.1-9.2-0.4-13.7-1c-3.8-0.5-7.5-1.3-11-2.8c-0.9-0.4-1.8-0.8-2.6-1.4c-0.7-0.5-1.4-1.1-1.8-1.8c-0.8-1.3-0.7-2.6,0.1-3.8
			c0.3-0.4,0.7-0.9,1.1-1.2c1.6-1.2,3.4-2.1,5.4-2.6C84.4,159.3,84.6,159.2,84.8,159.3z"/>
		<path class="st3" d="M142.8,147.7c-1.5,0.7-3.1,1-4.6,1.5c-4.4,1.2-8.8,2.2-13.3,2.9c-3.4,0.5-6.7,0.9-10.1,1.1
			c-5.7,0.4-11.3,0.1-17-0.1c-2.6-0.1-5.3-0.3-7.9-0.5c-4.3-0.4-8.6-1-12.8-2.3c-1-0.3-2-0.7-3-1.2c-0.5-0.2-1-0.5-1.4-0.9
			c-1.2-1-1.5-2.2-1-3.7c0.3-0.9,0.8-1.7,1.4-2.3c2.1-2,4.7-2.9,7.5-3.5c0,0.3-0.2,0.4-0.3,0.6c-0.4,0.5-0.8,0.9-1.1,1.4
			c-0.6,1.2-0.4,2.3,0.7,3.1c1.1,0.8,2.4,1.2,3.7,1.5c3.3,0.7,6.6,0.9,10,1c3.8,0.2,7.6,0.1,11.3-0.1c3.9-0.2,7.8-0.4,11.7-0.7
			c3.7-0.3,7.5-0.7,11.2-1.2c2.1-0.3,4.2-0.6,6.4-1c0.9-0.2,1.7,0,2.3,0.6c0.8,0.7,1.7,1.4,2.7,2c1,0.6,2,1.1,3.2,1.5
			C142.5,147.5,142.7,147.5,142.8,147.7z"/>
		<path class="st3" d="M87.4,117.2c-3,0.9-5.8,1.6-8.6,2.6c-1.9,0.6-3.7,1.3-5.4,2.2c-0.9,0.4-1.7,0.9-2.4,1.6
			c-1.3,1.2-1.2,2.2,0.5,2.9c1.5,0.6,3,0.9,4.6,1.1c6.4,0.8,12.9,1,19.4,1.1c3.1,0,6.2,0.1,9.3-0.1c3.1-0.1,6.2-0.3,9.4-0.6
			c2.5-0.2,5-0.4,7.6-0.6c2.9-0.3,5.7-0.5,8.6-0.9c3.3-0.4,6.5-0.8,9.8-1.2c3.1-0.4,6.2-0.9,9.4-1.4c0.2,0,0.4-0.1,0.6,0
			c0.1,0.3-0.2,0.3-0.3,0.4c-2.2,1.4-4.4,2.7-6.6,4.1c-0.5,0.3-0.9,0.4-1.5,0.5c-4.2,0.6-8.4,1.2-12.6,1.8
			c-3.6,0.5-7.2,0.9-10.9,1.2c-3.7,0.4-7.3,0.7-11,0.9c-3.6,0.2-7.3,0.4-10.9,0.4c-2.6,0-5.1-0.1-7.7-0.2c-2.7-0.1-5.5-0.2-8.2-0.4
			c-2.9-0.2-5.9-0.4-8.8-0.7c-2.8-0.3-5.7-0.6-8.5-1.2c-1.4-0.3-2.9-0.7-4.2-1.2c-0.6-0.2-1.2-0.5-1.7-0.9c-0.9-0.7-1-1.5-0.2-2.3
			c0.6-0.7,1.4-1.2,2.2-1.7c2.2-1.3,4.5-2.2,6.8-3.1c5.5-2,11.2-3.4,17.1-4.2c1.1-0.1,2.1-0.2,3.2-0.3C86.6,117,86.9,117,87.4,117.2
			z"/>
		<path class="st3" d="M67.7,196c3.4,0.3,6.7,0.6,10,0.9c3,0.3,6.1,0.5,9.1,0.7c4.6,0.3,9.2,0.5,13.9,0.6c4.8,0.1,9.5,0.2,14.3,0.1
			c2.8-0.1,5.5-0.1,8.3-0.2c5.2-0.2,10.4-0.6,15.5-1.1c5.1-0.6,10.3-1.3,15.3-2.3c4.8-1,9.6-2.3,14.2-4.1c3.9-1.5,7.6-3.5,11-6
			c0.2-0.1,0.4-0.3,0.5-0.4c0.1,0,0.1,0,0.3-0.1c-0.1,0.8-0.4,1.4-0.9,2c-1.5,2.1-3.5,3.8-5.7,5.1c-3.2,2-6.7,3.4-10.3,4.6
			c-4,1.3-8.1,2.1-12.2,2.8c-5.3,0.9-10.7,1.6-16.1,2.1c-6.6,0.6-13.3,1-20,1.1c-4.7,0.1-9.4,0-14.1-0.2c-4.8-0.2-9.5-0.6-14.2-1.3
			c-6-0.8-11.9-2-17.7-3.6c-0.3-0.1-0.6-0.2-0.9-0.3C67.9,196.3,67.9,196.2,67.7,196z"/>
		<path class="st3" d="M151.3,151.7c0.6-0.4,1-0.7,1.5-1c3.1-1.9,6-3.9,8.8-6.2c2.9-2.4,5.7-5,7.9-8.1c1.5-2.1,2.5-4.4,3-6.9
			c0.9-5.2-2-10-7.1-11.4c-2.9-0.8-5.8-0.9-8.7-0.4c-0.2,0-0.4,0.1-0.6,0.1c-0.1,0-0.1,0-0.2,0c0-0.2,0.2-0.3,0.3-0.4
			c1.2-0.9,2.7-1.5,4.2-1.8c3.4-0.7,6.7-0.7,10,0.4c2.8,1,5.2,2.5,7.1,4.8c3.1,3.8,3.6,8,1.8,12.5c-1.3,3.1-3.5,5.6-5.9,7.8
			c-2.9,2.6-6.1,4.5-9.5,6.2c-3.6,1.8-7.5,3.2-11.4,4.3C152,151.7,151.7,151.8,151.3,151.7z"/>
	</g>
</g>
</svg>
