<?xml version="1.0" encoding="utf-8"?>
<!-- Generator: Adobe Illustrator 21.0.0, SVG Export Plug-In . SVG Version: 6.00 Build 0)  -->
<svg version="1.1" id="Layer_1" xmlns="http://www.w3.org/2000/svg" xmlns:xlink="http://www.w3.org/1999/xlink" x="0px" y="0px"
	 viewBox="0 0 200 200" style="enable-background:new 0 0 200 200;" xml:space="preserve">
<style type="text/css">
	.st0{fill:#FFFFFF;}
	.st1{fill:#EED65B;}
	.st2{fill:#FDFBF1;}
	.st3{fill:#323330;}
</style>
<ellipse class="st0" cx="117.3" cy="169.9" rx="13.9" ry="11"/>
<ellipse class="st0" cx="73.6" cy="39.5" rx="13.9" ry="11"/>
<g id="uunmV6.tif">
	<g>
		<path class="st1" d="M185.8,186c-57,0-114,0-171.1,0c-0.6,0-0.8-0.1-0.8-0.8c0-57,0-114,0-171.1c0.4,0,0.8,0,1.2,0
			c56.4,0,112.8,0,169.2,0c0.3,0,0.5,0,0.8,0c0.4,0,0.6,0.1,0.5,0.5c0,0.3,0,0.5,0,0.8c0,56.4,0,112.8,0,169.2
			C185.8,185.1,185.8,185.5,185.8,186z M145.4,172.4c4,0,7.9-0.5,11.7-1.8c5.3-1.8,9.7-4.8,12.5-9.8c2.2-3.9,2.9-8.2,2.7-12.6
			c-0.3-6.6-2.9-12-8-16.1c-3.5-2.8-7.5-4.9-11.5-6.7c-3.3-1.5-6.7-2.8-9.9-4.4c-1.5-0.8-2.8-1.6-4-2.8c-2.8-2.8-3-9.5,2.6-11.4
			c3.9-1.3,7.5-0.7,10.5,2.2c1.1,1,2,2.3,2.8,3.6c0.2,0.4,0.4,0.5,0.8,0.2c3.9-2.5,7.7-5,11.6-7.5c0.3-0.2,0.4-0.4,0.2-0.8
			c-3.1-5.2-7.2-9.3-13.2-11.1c-6.4-1.9-12.8-1.9-19.1,0.2c-4.9,1.7-8.8,4.8-11.4,9.4c-2.2,3.9-2.8,8.1-2.5,12.5
			c0.4,5.8,2.6,10.7,6.9,14.7c3.5,3.2,7.6,5.3,11.8,7.2c3.3,1.5,6.7,2.8,9.9,4.4c1.6,0.8,3.1,1.7,4.4,3c1.9,2,2.5,4.3,1.9,6.9
			c-0.6,2.7-2.5,4.4-5,5.3c-4.9,1.8-9.6,1.4-14.2-1c-3-1.6-5.2-4.2-6.9-7c-0.4-0.6-0.7-0.6-1.3-0.3c-3.9,2.3-7.8,4.6-11.7,6.8
			c-0.5,0.3-0.6,0.5-0.3,1c2.4,4.4,5.6,7.9,9.8,10.6C132.1,170.9,138.6,172.3,145.4,172.4z M107.3,122.3
			C107.4,122.3,107.4,122.3,107.3,122.3c0.1-9.5,0-18.9,0.1-28.4c0-0.8-0.2-1-1-1c-4.7,0-9.4,0-14.1,0c-0.8,0-1,0.2-1,1
			c0,17.8,0,35.5,0,53.3c0,1.4-0.1,2.8-0.3,4.2c-0.4,2.4-1.3,4.4-3.6,5.6c-3.9,1.9-8.9,0.9-11.7-2.3c-1.2-1.4-2.1-2.9-3-4.5
			c-0.2-0.4-0.4-0.5-0.8-0.3c-4,2.5-8,4.9-12.1,7.3c-0.4,0.2-0.5,0.4-0.3,0.9c2.7,5.3,6.5,9.4,12,11.8c6.1,2.7,12.4,3,18.9,1.7
			c5-1,9.3-3.3,12.5-7.4c3.1-4.1,4.5-8.8,4.6-13.9C107.4,141,107.3,131.7,107.3,122.3z"/>
		<path class="st2" d="M185.8,186c0-0.4,0-0.9,0-1.3c0-56.4,0-112.8,0-169.2c0-0.3,0-0.5,0-0.8c0-0.4-0.2-0.5-0.5-0.5
			c-0.3,0-0.5,0-0.8,0c-56.4,0-112.8,0-169.2,0c-0.4,0-0.8,0-1.2,0c0-0.1-0.1-0.2,0.1-0.2c0.2,0,0.4,0,0.7,0c56.8,0,113.6,0,170.5,0
			c0.7,0,0.8,0.1,0.8,0.8c0,56.8,0,113.6,0,170.5C186,185.5,186.1,185.8,185.8,186z"/>
		<path class="st3" d="M145.4,172.4c-6.8-0.1-13.3-1.5-19.1-5.2c-4.2-2.7-7.4-6.3-9.8-10.6c-0.3-0.5-0.2-0.7,0.3-1
			c3.9-2.2,7.8-4.5,11.7-6.8c0.6-0.4,0.9-0.3,1.3,0.3c1.8,2.8,3.9,5.4,6.9,7c4.6,2.4,9.3,2.8,14.2,1c2.5-0.9,4.4-2.6,5-5.3
			c0.6-2.6,0-5-1.9-6.9c-1.3-1.3-2.8-2.2-4.4-3c-3.2-1.6-6.6-3-9.9-4.4c-4.3-1.9-8.3-4-11.8-7.2c-4.3-4-6.5-8.9-6.9-14.7
			c-0.3-4.4,0.3-8.6,2.5-12.5c2.6-4.6,6.5-7.7,11.4-9.4c6.3-2.2,12.7-2.2,19.1-0.2c6,1.8,10.1,5.9,13.2,11.1
			c0.2,0.4,0.1,0.5-0.2,0.8c-3.9,2.5-7.7,5-11.6,7.5c-0.4,0.3-0.6,0.2-0.8-0.2c-0.8-1.3-1.6-2.6-2.8-3.6c-3.1-2.8-6.7-3.5-10.5-2.2
			c-5.6,1.9-5.4,8.6-2.6,11.4c1.2,1.2,2.5,2,4,2.8c3.2,1.7,6.6,2.9,9.9,4.4c4.1,1.8,8,3.9,11.5,6.7c5.1,4.2,7.7,9.6,8,16.1
			c0.2,4.4-0.4,8.7-2.7,12.6c-2.8,5-7.2,8-12.5,9.8C153.3,171.9,149.4,172.3,145.4,172.4z"/>
		<path class="st3" d="M107.3,122.3c0,9.3,0.1,18.7,0,28c-0.1,5-1.4,9.8-4.6,13.9c-3.2,4.1-7.5,6.4-12.5,7.4
			c-6.4,1.3-12.8,1-18.9-1.7c-5.5-2.4-9.3-6.5-12-11.8c-0.2-0.5-0.1-0.6,0.3-0.9c4-2.4,8.1-4.9,12.1-7.3c0.5-0.3,0.6-0.1,0.8,0.3
			c0.9,1.6,1.8,3.2,3,4.5c2.8,3.2,7.9,4.2,11.7,2.3c2.3-1.2,3.2-3.2,3.6-5.6c0.3-1.4,0.3-2.8,0.3-4.2c0-17.8,0-35.5,0-53.3
			c0-0.8,0.2-1,1-1c4.7,0,9.4,0,14.1,0c0.8,0,1,0.2,1,1C107.4,103.4,107.4,112.9,107.3,122.3C107.4,122.3,107.4,122.3,107.3,122.3z"
			/>
	</g>
</g>
</svg>
