<?xml version="1.0" encoding="utf-8"?>
<!-- Generator: Adobe Illustrator 23.1.0, SVG Export Plug-In . SVG Version: 6.00 Build 0)  -->
<svg version="1.1" id="Layer_1" xmlns="http://www.w3.org/2000/svg" xmlns:xlink="http://www.w3.org/1999/xlink" x="0px" y="0px"
	 viewBox="0 0 107.6 114" style="enable-background:new 0 0 107.6 114;" xml:space="preserve">
<style type="text/css">
	.st0{fill:#FE0101;}
</style>
<g id="_x31_9HDOw.tif">
	<g>
		<path class="st0" d="M7.3,20.6c0.3-0.6,0.8-0.9,1.3-1.2c5.8-3.3,11.7-6.7,17.5-10.1c0.6-0.4,1.2-0.4,1.9,0
			c5.9,3.4,11.9,6.9,17.9,10.3c0.7,0.4,1,0.9,1,1.7c0,12.7,0,25.4,0,38.1c0,0.2,0,0.3,0,0.5c0.4-0.2,0.7-0.4,1.1-0.6
			c4.6-2.6,9.2-5.3,13.8-7.9c0.3-0.2,0.4-0.3,0.4-0.6c0-6.4,0-12.9,0-19.3c0-0.8,0.3-1.3,0.9-1.6c5.9-3.4,11.9-6.8,17.8-10.3
			c0.7-0.4,1.3-0.4,1.9,0c5.9,3.4,11.9,6.8,17.8,10.2c0.7,0.4,1,0.9,1,1.7c0,6.7,0,13.5,0,20.2c0,0.8-0.3,1.4-1,1.8
			c-5.6,3.2-11.2,6.5-16.9,9.7c-0.3,0.2-0.3,0.3-0.3,0.6c0,6.4,0,12.8,0,19.2c0,0.8-0.3,1.3-1,1.7c-12,6.9-23.9,13.8-35.9,20.6
			c-0.3,0.1-0.5,0.3-0.8,0.4c-0.2,0-0.4,0-0.6,0c-0.3-0.1-0.5-0.3-0.8-0.4C32.3,98.6,20.4,91.8,8.6,85c-0.5-0.3-1-0.6-1.3-1.2
			C7.3,62.7,7.3,41.6,7.3,20.6z M43.7,101.7c0-0.2,0-0.4,0-0.5c0-5.5,0-11,0-16.5c0-0.4-0.1-0.5-0.4-0.7c-5.5-3.1-11.1-6.3-16.6-9.4
			c-0.8-0.5-1.2-1.1-1.2-2c0-13.3,0-26.5,0-39.8c0-0.3-0.1-0.4-0.3-0.6c-4.8-2.8-9.6-5.5-14.4-8.3c-0.5-0.3-0.5-0.3-0.5,0.3
			c0,19.3,0,38.5,0,57.8c0,0.4,0.1,0.6,0.4,0.8c9.3,5.3,18.5,10.6,27.8,16C40.2,99.7,41.9,100.7,43.7,101.7z M80.1,65.2
			c-0.2,0.1-0.3,0.1-0.4,0.2C68.9,71.6,58,77.8,47.1,84c-0.2,0.1-0.3,0.3-0.3,0.5c0,5.6,0,11.1,0,16.7c0,0.1,0,0.2,0,0.4
			c0.1-0.1,0.2-0.1,0.2-0.1c11-6.3,21.9-12.6,32.9-18.9c0.2-0.1,0.3-0.3,0.3-0.5c0-5.4,0-10.8,0-16.1C80.1,65.7,80.1,65.5,80.1,65.2
			z M78.6,62.6c-0.2-0.1-0.3-0.2-0.4-0.2c-4.8-2.8-9.6-5.5-14.4-8.3c-0.3-0.2-0.5-0.2-0.7,0c-10.9,6.3-21.7,12.5-32.6,18.8
			c-0.1,0.1-0.2,0.1-0.3,0.2c0.1,0.1,0.2,0.1,0.3,0.2c4.8,2.7,9.6,5.4,14.4,8.2c0.3,0.2,0.5,0.1,0.7,0c9.1-5.2,18.3-10.4,27.4-15.7
			C74.9,64.7,76.7,63.6,78.6,62.6z M43.7,23.6c-0.2,0.1-0.2,0.1-0.3,0.2c-4.8,2.8-9.7,5.6-14.5,8.3c-0.3,0.1-0.3,0.3-0.3,0.6
			c0,12.4,0,24.8,0,37.3c0,0.1,0,0.2,0,0.4c0.2-0.1,0.3-0.1,0.4-0.2c4.8-2.8,9.6-5.5,14.4-8.3c0.3-0.2,0.4-0.4,0.4-0.7
			c0-12.4,0-24.7,0-37.1C43.7,24,43.7,23.8,43.7,23.6z M96.8,31.3c-0.1-0.1-0.2-0.1-0.2-0.1c-4.9-2.8-9.8-5.6-14.7-8.5
			c-0.2-0.1-0.4-0.1-0.5,0c-2.7,1.6-5.5,3.2-8.2,4.7c-2.2,1.3-4.4,2.5-6.6,3.8c0.1,0.1,0.3,0.2,0.4,0.2c4.8,2.8,9.6,5.6,14.5,8.3
			c0.2,0.1,0.4,0.1,0.6,0c3.7-2.1,7.4-4.3,11.1-6.4C94.3,32.7,95.5,32,96.8,31.3z M11.9,21c0.1,0.1,0.2,0.1,0.3,0.2
			c4.9,2.8,9.8,5.6,14.6,8.4c0.2,0.1,0.4,0.1,0.6-0.1c4.3-2.5,8.6-5,13-7.5c0.6-0.3,1.2-0.7,1.8-1.1c-0.2-0.1-0.3-0.2-0.4-0.2
			c-4.8-2.8-9.6-5.6-14.5-8.3c-0.2-0.1-0.4-0.1-0.6,0c-3.6,2.1-7.3,4.2-10.9,6.3C14.5,19.4,13.2,20.2,11.9,21z M65,33.9
			c0,0.1,0,0.1,0,0.2c0,5.6,0,11.2,0,16.8c0,0.2,0.1,0.3,0.3,0.4c4.9,2.8,9.7,5.6,14.6,8.4c0.1,0,0.2,0.1,0.3,0.1c0,0,0-0.1,0-0.1
			c0-5.6,0-11.2,0-16.8c0-0.3-0.1-0.4-0.3-0.5c-4-2.3-8-4.6-12-6.9C66.9,35,65.9,34.5,65,33.9z M83.2,59.9c0.1-0.1,0.1-0.1,0.2-0.1
			c4.9-2.8,9.8-5.6,14.7-8.5c0.2-0.1,0.3-0.3,0.3-0.5c0-5.5,0-11,0-16.5c0-0.1,0-0.3,0-0.4c-0.1,0.1-0.2,0.1-0.2,0.1
			c-4.9,2.8-9.8,5.6-14.7,8.4c-0.2,0.1-0.2,0.3-0.2,0.5c0,3.7,0,7.3,0,11C83.2,56,83.2,57.9,83.2,59.9z"/>
	</g>
</g>
</svg>
