<?xml version="1.0" encoding="utf-8"?>
<!-- Generator: Adobe Illustrator 23.1.0, SVG Export Plug-In . SVG Version: 6.00 Build 0)  -->
<svg version="1.1" id="Layer_1" xmlns="http://www.w3.org/2000/svg" xmlns:xlink="http://www.w3.org/1999/xlink" x="0px" y="0px"
	 viewBox="0 0 107.6 114" style="enable-background:new 0 0 107.6 114;" xml:space="preserve">
<style type="text/css">
	.st0{fill:#02B1FE;}
	.st1{fill:#0181D0;}
</style>
<g id="GUjGuv.tif">
	<g>
		<path class="st0" d="M41.5,53.1c-2.3-0.5-4.1-2-6.1-3.2c-6-3.4-11.9-6.9-17.9-10.3c-0.3-0.2-0.6-0.3-1-0.5c0,9.5,0,18.8,0,28.6
			c-4.4-2.5-8.5-4.9-12.6-7.2c0-14.3,0-28.7,0-43C16,24.4,28,31.4,40.1,38.3c0.5,0.3,0.9,0.4,1.4,0.7C41.5,43.7,41.5,48.4,41.5,53.1
			z"/>
		<path class="st0" d="M66,96.5c-5.9-3.5-11.8-6.9-17.7-10.4c-0.6-0.3-1.1-0.8-1.7-1c-4.5-1.5-6-4.5-5.3-9.1c0.4-2.6,0.1-5.4,0.2-8
			c0.7,0.1,1.2,0.5,1.8,0.8c3.5,2,7.1,4,10.6,6c4.1,2.6,8.2,5,12.5,7.2c0,4.7,0,9.4,0,14.1c0,0.1,0,0.2,0,0.3
			C66.3,96.5,66.2,96.5,66,96.5z"/>
		<path class="st1" d="M53.9,74.8c-3.5-2-7.1-4-10.6-6c-0.6-0.3-1.1-0.7-1.8-0.8c0.6-1.2,1.8-1.4,2.8-2c6.8-4,13.7-7.9,20.6-11.9
			c1.1-0.6,1.4-1.3,1.4-2.5c-0.1-3.6-0.1-7.2,0-10.8c0-1.3,0-2-1.6-1c-7.3,4.3-14.7,8.5-22.1,12.8c-0.3,0.2-0.7,0.3-1.1,0.5
			c0-4.7,0-9.5,0-14.2c12.3-7.1,24.6-14.2,37.2-21.5c0,0.8,0,1.3,0,1.8c0,13.2,0,26.3,0,39.5c0,1.4-0.5,2.1-1.6,2.7
			C69.3,65.9,61.6,70.4,53.9,74.8z"/>
		<path class="st1" d="M66.4,96.2c0-4.7,0-9.4,0-14.1c7.6-4.4,15.2-8.8,22.8-13.2c1.3-0.8,2-1.6,1.9-3.2c-0.1-3.6,0-7.2-0.1-10.8
			c0-0.8,0-1.5,0.9-2c3.8-2.1,7.5-4.3,11.2-6.4c0.6,0.4,0.3,0.9,0.3,1.3c0,8.5,0,17.1,0,25.6c0,1-0.2,1.7-1.1,2.2
			C90.6,82.4,78.8,89.2,67,96C66.8,96.1,66.6,96.1,66.4,96.2z"/>
		<path class="st1" d="M103.6,17.8c0,4.5,0,8.9,0,13.4c0,0.7-0.4,0.9-0.9,1.2c-3.7,2.2-7.5,4.3-11.6,6.6c0-3.2,0.3-6.3-0.1-9.2
			c-0.5-3.9,0.8-6.2,4.4-7.7c2.6-1.1,5-2.8,7.5-4.2C103.1,17.8,103.3,17.9,103.6,17.8z"/>
	</g>
</g>
</svg>
