<?xml version="1.0" encoding="utf-8"?>
<!-- Generator: Adobe Illustrator 24.1.0, SVG Export Plug-In . SVG Version: 6.00 Build 0)  -->
<svg version="1.1" id="Layer_1" xmlns="http://www.w3.org/2000/svg" xmlns:xlink="http://www.w3.org/1999/xlink" x="0px" y="0px"
	 viewBox="0 0 339 294" style="enable-background:new 0 0 339 294;" xml:space="preserve">
<style type="text/css">
	.st0{fill:#FFFFFF;}
</style>
<g>
	<path class="st0" d="M95.2,286.4h-79c-5.5,0-9.9-4.4-9.9-9.9V17c0-5.5,4.4-9.9,9.9-9.9h79c5.5,0,9.9,4.4,9.9,9.9v259.5
		C105.1,282,100.7,286.4,95.2,286.4z"/>
	<path class="st0" d="M322.7,262h-79c-5.5,0-9.9-4.4-9.9-9.9V17c0-5.5,4.4-9.9,9.9-9.9h79c5.5,0,9.9,4.4,9.9,9.9v235
		C332.7,257.6,328.2,262,322.7,262z"/>
	<path class="st0" d="M208.7,217.3h-79c-5.5,0-9.9-4.4-9.9-9.9V17c0-5.5,4.4-9.9,9.9-9.9h79c5.5,0,9.9,4.4,9.9,9.9v190.4
		C218.6,212.9,214.2,217.3,208.7,217.3z"/>
</g>
</svg>
