<?xml version="1.0" encoding="utf-8"?>
<!-- Generator: Adobe Illustrator 24.1.0, SVG Export Plug-In . SVG Version: 6.00 Build 0)  -->
<svg version="1.1" id="Layer_1" xmlns="http://www.w3.org/2000/svg" xmlns:xlink="http://www.w3.org/1999/xlink" x="0px" y="0px"
	 viewBox="0 0 400 400" style="enable-background:new 0 0 400 400;" xml:space="preserve">
<g>
	<path d="M125.8,346.4h-79c-5.5,0-9.9-4.4-9.9-9.9V77c0-5.5,4.4-9.9,9.9-9.9h79c5.5,0,9.9,4.4,9.9,9.9v259.5
		C135.7,342,131.3,346.4,125.8,346.4z"/>
	<path d="M353.3,322h-79c-5.5,0-9.9-4.4-9.9-9.9V77c0-5.5,4.4-9.9,9.9-9.9h79c5.5,0,9.9,4.4,9.9,9.9v235
		C363.3,317.6,358.8,322,353.3,322z"/>
	<path d="M239.3,277.3h-79c-5.5,0-9.9-4.4-9.9-9.9V77c0-5.5,4.4-9.9,9.9-9.9h79c5.5,0,9.9,4.4,9.9,9.9v190.4
		C249.2,272.9,244.8,277.3,239.3,277.3z"/>
</g>
</svg>
