<?xml version="1.0" encoding="utf-8"?>
<!-- Generator: Adobe Illustrator 21.0.0, SVG Export Plug-In . SVG Version: 6.00 Build 0)  -->
<svg version="1.1" id="Layer_1" xmlns="http://www.w3.org/2000/svg" xmlns:xlink="http://www.w3.org/1999/xlink" x="0px" y="0px"
	 viewBox="0 0 200 200" style="enable-background:new 0 0 200 200;" xml:space="preserve">
<style type="text/css">
	.st0{fill:#6A8E49;}
	.st1{fill:#75994E;}
	.st2{fill:#668746;}
	.st3{fill:#FFFFFF;}
	.st4{fill:#C0BEBD;}
</style>
<g id="PZCpuc.tif">
	<g>
		<path class="st0" d="M0.2,96.1c0.3-1.2,0.3-2.3,0.4-3.4C1.1,89.3,1.8,86,3,83.1c0.3,0.4,0.4,0.9,0.6,1.4
			c4.2,12.5,8.3,25.1,12.7,37.7c0.1,0.3,0.1,0.7,0.6,0.9c-0.3,1.5-0.4,3-0.7,4.5c0,0.4,0,0.9-0.6,1.1c-3.3-2.7-6.3-5.6-8.8-9.1
			c-3.6-5.1-5.9-10.5-6.6-16.7c0-0.1,0-0.4-0.1-0.4C0.2,100.2,0.2,98.2,0.2,96.1z"/>
		<path class="st1" d="M16.9,123c-0.4,0-0.4-0.6-0.6-0.9C12.1,109.7,7.8,97,3.6,84.4C3.5,84,3.3,83.6,3,83.1c0.9-3,2.3-5.6,4-8.3
			c2.1-3.3,4.8-6.3,7.8-8.8c1.1-0.9,1.8-2.1,1.8-3.7c0.3,0.3,0.4,0.6,0.4,0.9c-0.3,0.1-0.1,0.4-0.1,0.7c0.6,2.9,0.6,5.5,0.6,8.2
			c0.1,6,0.1,11.7,0.1,17.7c0,1.2,0,2.2,0,3.4c0,3.3,0,6.6,0.1,9.8c0,1.8,0,3.6-0.1,5.2c-0.1,2.3,0,4.8-0.1,7.1
			c-0.1,1.6-0.1,3.3-0.1,4.9C17,121.2,17.1,122.1,16.9,123z"/>
		<path class="st0" d="M17.9,103.1c-0.1-3.3-0.1-6.6-0.1-9.8c0-1.2,0-2.2,0-3.4c0-6,0-11.7-0.1-17.7c-0.1-2.7-0.1-5.3-0.4-8.1
			c0-0.3-0.1-0.6,0.1-0.7c1.2,3.1,3.7,5.3,5.9,7.9c5.5,6.3,8.8,13.5,10.4,21.6c0.4,2.6,0.6,5.2,0.4,7.8c-0.7,0.1-1.5,0.1-2.2,0.3
			c-2.6,0.4-5.1,0.9-7.8,1.2C22.2,102.4,20,102.9,17.9,103.1z"/>
		<path class="st2" d="M17.9,103.1c2.1,0,4.2-0.6,6.3-0.9c2.6-0.3,5.1-0.7,7.8-1.2c0.7-0.1,1.5-0.1,2.2-0.3
			c-0.1,3.6-0.7,7.1-1.9,10.8c-2.3,6.8-6.4,12.4-12,16.7c-1.1-0.3-1.5-1.2-1.8-2.1c-0.6-1.8-0.9-3.7-0.9-5.5c0.1-1.6,0-3.3,0.1-4.9
			c0.3-2.3,0-4.8,0.1-7.1C17.9,106.5,17.8,104.8,17.9,103.1z"/>
		<g>
			<path class="st3" d="M156.3,125.2c-0.3-0.3-0.6-0.3-0.9-0.3c-2.9-0.9-4.9-2.3-5.9-5.3c-0.4-1.5,0-2.9,1.1-3.8
				c1.2-1.2,2.6-2.2,3.8-3.1c0.6-0.4,0.6-0.6-0.1-0.9c-1.4-0.6-2.2-1.5-2.7-2.9c-0.1-0.6,0-1.1,0.4-1.4c1.1-0.6,1.9-1.2,3-1.8
				c0.6-0.4,0.6-0.7-0.1-0.9c-3.3-1.2-4.6-3.7-4.8-7c-0.1-3.3,1.4-5.6,4.2-7.1c3.6-1.9,7.1-2.3,10.9-0.9c1.4,0.6,2.6,0.7,4,0.7
				c1.2,0,2.3-0.3,3.3-1.2c0.9,2.3-0.6,4.4-3.3,4.2c-1.1-0.1-1.1-0.1-0.9,0.9c1.2,6.4-3.3,9.8-8.2,10.8c-0.6,0.1-1.2,0.1-1.6,0.1
				c-0.9,0.1-1.6,0.6-1.8,1.4c-0.1,0.7,0.4,1.5,1.5,1.6c1.2,0.3,2.6,0.3,3.7,0.3c1.6,0.1,3.4,0.3,5.1,0.6c4.4,0.6,6.3,4,4.9,8.2
				c-0.7,2.2-2.2,3.8-4.2,5.2c-1.9,1.4-4,2.2-6.3,2.7c-0.1,0-0.1,0-0.3,0.1C159.7,125.2,157.9,125.2,156.3,125.2z M159.1,112.5
				c-1.1-0.1-2.6,0.3-3.7,1.5c-2.3,2.1-2.3,5.1,0.3,7c2.7,1.9,7.8,2.2,10.4,0.3c1.8-1.2,2.7-2.7,2.2-4.9c-0.3-1.9-1.8-2.9-3.6-3.3
				C163.2,112.8,161.3,112.6,159.1,112.5z M164.3,97.1c0-1.5-0.3-3.3-1.5-4.6c-2.1-2.3-6-2.1-7.3,0.4c-1.4,2.6-0.7,6.7,1.4,8.6
				c2.6,2.3,6.1,1.4,7.1-1.8C164.2,98.9,164.3,98.2,164.3,97.1z"/>
			<path class="st3" d="M52.9,101.3c0,1.9,0,3.8,0,5.9c0,1.5,0.4,1.9,1.9,2.2c0.1,0,0.4,0.1,0.6,0.1c0.9,0,1.1,0.4,0.9,1.2
				c-0.1,0.7-0.1,1.1-0.9,0.9c-3.3-0.1-6.7-0.1-10,0c-0.4,0-0.9,0-0.7-0.6c0-0.4-0.3-1.2,0.6-1.4c3-0.6,3-0.6,3.1-3.6
				c0.1-3.8,0.1-7.6,0-11.5c0-0.7-0.3-1.2-0.9-1.5c-0.7-0.4-1.6-0.7-2.3-1.1c-0.4-0.1-0.9-0.3-0.7-0.7c0-0.4,0.4-0.6,0.9-0.7
				c2.6-0.4,4.9-0.9,7.3-1.8c0.6-0.1,0.6,0.1,0.6,0.4c0,0.6,0,1.4-0.1,1.9c0,0.3-0.1,0.6,0.1,0.9c0.3,0.1,0.6-0.1,0.9-0.3
				c1.5-1.2,3.1-2.1,4.9-2.7c3-1.1,5.6-0.1,7.5,2.3c0.6,0.9,0.6,0.9,1.6,0.3c1.4-0.9,2.7-1.8,4.2-2.3c4.8-1.9,8.9,0.4,10,5.5
				c0.3,1.2,0.3,2.6,0.3,3.8c0,3,0,6,0,9.1c0,0.7,0.3,1.2,1.1,1.5c0.7,0.3,1.5,0.4,2.2,0.6c0.6,0,0.6,0.3,0.6,0.7
				c-0.1,1.2-0.1,1.2-1.4,1.2c-3.1-0.1-6.3-0.1-9.4,0c-0.4,0-0.9,0-0.7-0.6c0-0.4-0.4-1.2,0.6-1.4c2.7-0.6,2.7-0.6,2.7-3.3
				c0-3.1,0.1-6.1,0-9.3c-0.1-3.4-3-5.5-6.4-4.8c-1.2,0.3-2.2,0.7-3.3,1.5c-0.4,0.3-0.6,0.6-0.4,1.1c0.3,2.6,0.1,5.2,0.1,7.8
				c0,1.6,0,3.4,0,5.1c0,0.7,0.4,1.2,1.1,1.4c0.6,0.1,1.2,0.4,1.8,0.4c0.9,0,0.7,0.7,0.7,1.2c0,0.6-0.3,0.9-0.9,0.7
				c-3.3-0.1-6.6-0.1-10,0c-0.4,0-0.9,0-0.7-0.6c0-0.4-0.3-1.2,0.6-1.4c0.4,0,0.9-0.1,1.4-0.3c1.4-0.3,1.6-0.6,1.6-1.9
				c0.1-3.4,0.3-7,0-10.4c-0.1-2.6-1.5-4.5-3.6-4.9c-2.3-0.6-4.5,0.4-6.4,1.8c-0.4,0.3-0.4,0.9-0.4,1.5
				C52.8,97.4,52.8,99.4,52.9,101.3C52.8,101.3,52.8,101.3,52.9,101.3z"/>
			<path class="st3" d="M126.4,92.3c0.9-0.7,1.6-1.2,2.6-1.8c1.4-0.9,2.9-1.6,4.4-1.9c3.4-0.6,6.6,1.4,7.8,4.8
				c0.4,1.5,0.6,3,0.6,4.6c0,3.1,0,6.4,0,9.6c0,0.9,0.3,1.5,1.2,1.6c0.6,0.1,1.1,0.3,1.6,0.3c0.9,0.1,1.1,0.3,0.9,1.5
				c0,0.7-0.4,1.1-1.2,0.9c-3.1-0.3-6.3-0.3-9.4,0c-1.4,0.1-1.8-0.6-1.4-1.9c0.1-0.3,0.3-0.3,0.6-0.4c0.6-0.1,1.1-0.1,1.6-0.3
				c0.7-0.1,1.1-0.6,1.2-1.4c0.1-3,0-6,0-8.9c0-0.6,0-1.2-0.1-1.9c-0.1-3.1-2.2-4.9-5.3-4.8c-1.4,0.1-2.6,0.4-3.7,1.2
				c-0.7,0.4-1.1,1.1-1.1,1.9c0,4,0,8.1,0.1,11.9c0,1.2,0.3,1.5,1.5,1.8c0.4,0.1,0.9,0.1,1.4,0.1c0.6,0,0.7,0.3,0.7,0.7
				c0,1.4-0.1,1.5-1.5,1.5c-3.1-0.1-6.3-0.1-9.4,0c-0.4,0-1.1,0.3-1.2-0.6c-0.1-1.4,0-1.6,0.9-1.8c2.3-0.4,2.6-0.6,2.6-3
				c0.1-3.8,0-7.8,0.1-11.7c0-0.7-0.3-1.2-0.9-1.5c-0.7-0.4-1.6-0.7-2.3-1.1c-0.4-0.1-0.9-0.3-0.9-0.9c0-0.6,0.4-0.7,1.1-0.9
				c2.6-0.4,4.9-0.9,7.3-1.9c0.3-0.1,0.4,0,0.6,0.3c0.2,0.3,0.1,0.7,0,1.2C126.5,90.7,126.4,91.5,126.4,92.3z"/>
			<path class="st3" d="M200,99.4c0,4.4-1.2,7.8-4.4,10.1c-4.8,3.6-11.5,3.6-15.3,0c-2.2-1.9-3.3-4.6-3.6-7.5
				c-0.4-3.6,0.3-6.8,2.9-9.6c3.6-3.7,10.1-4.9,14.6-2.7C198.3,91.9,199.8,95.4,200,99.4z M194.9,101.7c0-0.6,0-1.4-0.1-1.9
				c-0.3-2.6-1.1-4.9-2.9-6.7c-1.8-1.8-3.8-2.3-6.4-1.8c-2.3,0.6-3.4,2.6-3.8,4.8c-0.6,3.1-0.3,6.3,1.1,9.3c0.9,1.9,2.2,3.4,4.4,4.2
				c3.4,1.2,6.4-0.3,7.3-3.7C194.9,104.3,194.9,102.9,194.9,101.7z"/>
			<path class="st3" d="M100.7,112.1c-6.7,0-10.4-4.5-11.1-10.4c-0.3-4.4,0.7-7.9,4.5-10.4c2.7-1.9,5.9-2.9,9.1-2.6
				c4.2,0.4,7.1,2.6,8.8,6.4c0.9,1.9,1.1,4,0.9,6.1C112.4,108.5,106.4,112,100.7,112.1z M108.1,101.4c0-0.6,0-1.6-0.3-2.7
				c-0.4-2.6-1.4-4.8-3.4-6.4c-3.1-2.3-8.2-2.1-9.4,3.3c-0.6,2.3-0.4,4.6,0.1,6.8c0.5,2.2,1.5,4.2,3.4,5.6c2.7,2.2,8.2,2.3,9.3-3.3
				C107.9,103.9,108.1,102.8,108.1,101.4z"/>
		</g>
		<path class="st4" d="M17.4,120.3c0,1.9,0.3,3.7,0.9,5.5c0.3,0.9,0.7,1.8,1.8,2.1c-0.9,1.1-1.2,2.3-1.2,3.7c-0.1,1.9-0.3,3.8,0,5.9
			c0,0.1,0,0.3-0.3,0.3c-1.2,0-1.8-0.6-1.8-1.8c0-2.6-0.3-5.1-1.2-7.5c0.6-0.1,0.6-0.7,0.6-1.1c0.3-1.5,0.4-3,0.7-4.5
			C17.1,122.1,17,121.2,17.4,120.3z"/>
	</g>
</g>
</svg>
