<?xml version="1.0" encoding="utf-8"?>
<!-- Generator: Adobe Illustrator 21.0.0, SVG Export Plug-In . SVG Version: 6.00 Build 0)  -->
<svg version="1.1" id="Layer_1" xmlns="http://www.w3.org/2000/svg" xmlns:xlink="http://www.w3.org/1999/xlink" x="0px" y="0px"
	 viewBox="0 0 300 176.7" style="enable-background:new 0 0 300 176.7;" xml:space="preserve">
<style type="text/css">
	.st0{opacity:0.7;}
	.st1{fill:#282828;}
</style>
<g class="st0">
	<g>
		<path class="st1" d="M177.5,19.8L177.5,19.8c15.6,15.6,15.6,41,0,56.6L97,156.9c-15.6,15.6-41,15.6-56.6,0l0,0
			c-15.6-15.6-15.6-41,0-56.6l80.5-80.5C136.5,4.2,161.8,4.2,177.5,19.8z"/>
		<path class="st1" d="M122.5,19.8L122.5,19.8c15.6-15.6,41-15.6,56.6,0l80.5,80.5c15.6,15.6,15.6,41,0,56.6l0,0
			c-15.6,15.6-41,15.6-56.6,0l-80.5-80.5C106.9,60.8,106.9,35.4,122.5,19.8z"/>
	</g>
</g>
</svg>
