<?xml version="1.0" encoding="utf-8"?>
<!-- Generator: Adobe Illustrator 21.0.0, SVG Export Plug-In . SVG Version: 6.00 Build 0)  -->
<svg version="1.1" id="Layer_1" xmlns="http://www.w3.org/2000/svg" xmlns:xlink="http://www.w3.org/1999/xlink" x="0px" y="0px"
	 viewBox="0 0 200 200" style="enable-background:new 0 0 200 200;" xml:space="preserve">
<style type="text/css">
	.st0{fill:#0048FA;}
	.st1{fill:#EC4630;}
	.st2{fill:#76EF14;}
</style>
<g id="zcs7nY.tif">
	<g>
		<path class="st0" d="M104.3,132.5c0.5-12.1,5.6-21.6,15.9-28.2c0.4-0.3,0.6-0.3,0.9,0.2c3.1,5.4,6.2,10.8,9.3,16.1
			c0.2,0.4,0.2,0.6-0.2,0.8c-4.6,2.9-6.9,8.3-5.8,13.6c1.1,5.3,5.2,9.4,10.5,10.3c7.5,1.4,14.7-4,15.4-11.6c0.5-5.3-1.6-9.4-6-12.3
			c-0.4-0.3-0.4-0.4-0.2-0.8c3.1-5.4,6.2-10.8,9.3-16.1c0.2-0.4,0.4-0.5,0.8-0.2c8.6,5.4,13.9,13.1,15.5,23.1
			c2.2,13.8-4.5,27.5-16.9,34.1c-6.4,3.4-13.2,4.6-20.3,3.6c-13.8-2-24.5-12.1-27.5-25.7C104.5,137.1,104.3,134.8,104.3,132.5z"/>
		<path class="st1" d="M100.2,34.6c15.1,0.1,28.5,10.9,31.7,26.2c2.8,13.1-2.8,26.7-14,34.1c-0.4,0.3-0.9,0.6-1.3,0.9
			c-0.4,0.3-0.5,0.2-0.7-0.2c-2.3-4-4.6-8-7-12.1c-0.8-1.4-1.6-2.8-2.4-4.1c-0.2-0.4-0.2-0.5,0.2-0.8c4-2.7,6.1-6.5,6.1-11.3
			c-0.1-6.5-5.2-12.1-11.7-12.7c-7.1-0.7-13.4,4.2-14.3,11.2c-0.7,5.5,1.4,9.8,5.9,12.9c0.4,0.3,0.4,0.4,0.2,0.8
			c-3.1,5.4-6.2,10.8-9.3,16.1c-0.2,0.4-0.4,0.5-0.8,0.2c-8.3-5.2-13.6-12.5-15.3-22c-2-11,0.9-20.7,8.5-28.9
			c5.2-5.5,11.6-8.7,19.1-9.9C96.5,34.7,98.1,34.6,100.2,34.6z"/>
		<path class="st2" d="M29.9,132.4c0.3-10.3,4.2-18.8,12.2-25.4c4.4-3.7,9.5-6,15.2-6.9c7.6-1.3,14.8,0,21.6,3.6
			c0.3,0.2,0.5,0.3,0.2,0.7c-3.1,5.4-6.2,10.8-9.4,16.2c-0.2,0.4-0.3,0.5-0.8,0.3c-8.1-4.2-17.7,0.7-19,9.7c-1.1,7,3.9,13.7,11,14.8
			c7.3,1.1,13.8-3.8,15-11.1c0.1-0.5,0.1-1,0.1-1.5c0-0.3,0.1-0.4,0.3-0.3c0.1,0,0.2,0,0.3,0c6.2,0,12.4,0,18.5,0
			c0.6,0,0.6,0.2,0.6,0.7c-0.1,5.6-1.5,10.8-4.3,15.6c-4.4,7.6-10.8,12.8-19.3,15.3c-10.3,3-19.9,1.3-28.6-5
			c-7.1-5.1-11.4-12.1-13-20.8C30,136.3,29.9,134.4,29.9,132.4z"/>
	</g>
</g>
</svg>
