<?xml version="1.0" encoding="utf-8"?>
<!-- Generator: Adobe Illustrator 24.1.0, SVG Export Plug-In . SVG Version: 6.00 Build 0)  -->
<svg version="1.1" id="Layer_1" xmlns="http://www.w3.org/2000/svg" xmlns:xlink="http://www.w3.org/1999/xlink" x="0px" y="0px"
	 viewBox="0 0 400 400" style="enable-background:new 0 0 400 400;" xml:space="preserve">
<style type="text/css">
	.st0{fill:url(#SVGID_1_);}
	.st1{fill:#FCFCFC;stroke:#CCCCCC;stroke-width:2;stroke-miterlimit:10;}
</style>
<g>
	<linearGradient id="SVGID_1_" gradientUnits="userSpaceOnUse" x1="81.0417" y1="330.7675" x2="333.4484" y2="78.3608">
		<stop  offset="0" style="stop-color:#4F3977"/>
		<stop  offset="0.424" style="stop-color:#C3187D"/>
		<stop  offset="0.7731" style="stop-color:#FE1D3C"/>
		<stop  offset="1" style="stop-color:#FE4246"/>
	</linearGradient>
	<path class="st0" d="M338.6,132.6c-4.2-5.1-11.8-5.7-16.8-1.5l-33.1,27.8l-15.2-37.8c-0.5-1.4-1.4-2.6-2.3-3.7
		c-3.1-6.9-8.5-12.9-16-16.3c-3.2-1.5-6.6-2.3-9.9-2.6c-0.7-0.4-1.4-0.9-2.2-1.2l-58.3-16.3c-3.3-0.9-6.6-0.3-9.3,1.3
		c-3.2,1.1-6,3.4-7.3,6.8l-22,56.5c-2.4,6.1,0.7,13.1,6.8,15.5c6.1,2.4,13.1-0.7,15.5-6.8l18.6-47.7l26.6,7.4
		c-0.6,1.1-1.3,2-1.9,3.2L177.6,191c-0.5,1.1-0.8,2.2-1.1,3.3l-41.4,69.4l-69.3,23.2c-7.8,5.9-9.5,16.9-3.7,24.7
		c5.8,7.9,16.9,9.5,24.7,3.7l70.9-24.4c2.2-1.6,3.7-3.6,4.9-5.9c0.9-0.9,1.9-1.7,2.6-2.9l24.7-41.4l43.8,37.3l-46.9,52.8
		c-6.5,7.3-5.8,18.5,1.5,24.9c7.3,6.5,18.5,5.8,25-1.5l58.5-65.9c1.8-2,2.9-4.4,3.6-6.8c0.4-1.3,0.4-2.7,0.5-4.1
		c0-0.7,0.3-1.3,0.2-2c-0.2-4.8-2.1-9.5-6.1-12.9l-40.3-34.4c2.9-2.8,5.4-6.1,7.2-9.9l26.1-56.5l8.4,22.3c0.4,2,1,3.9,2.4,5.5
		c1.3,1.5,2.9,2.5,4.6,3.2c0.2,0.1,0.4,0.1,0.6,0.2c1.1,0.4,2.2,0.8,3.3,0.8c1.3,0.1,2.7-0.1,4.1-0.4c0,0,0.1,0,0.1,0
		c0.4-0.1,0.7,0,1.1-0.2c1.9-0.7,3.4-2,4.7-3.4l47.6-40.4C345,145.2,342.8,137.6,338.6,132.6z M278.4,37.1
		c18.4,0,33.3,14.9,33.3,33.3s-14.9,33.3-33.3,33.3c-18.4,0-33.3-14.9-33.3-33.3S260,37.1,278.4,37.1z"/>
	<circle class="st1" cx="60" cy="304.7" r="10.6"/>
	<circle class="st1" cx="157.8" cy="286.1" r="10.6"/>
	<circle class="st1" cx="274.2" cy="275.6" r="10.6"/>
	<circle class="st1" cx="189.9" cy="352.3" r="10.6"/>
	<circle class="st1" cx="174.8" cy="82.9" r="10.6"/>
	<circle class="st1" cx="340" cy="133.3" r="10.6"/>
	<circle class="st1" cx="284.8" cy="190.5" r="10.6"/>
	<circle class="st1" cx="151.6" cy="162" r="10.6"/>
</g>
</svg>
