<?xml version="1.0" encoding="utf-8"?>
<!-- Generator: Adobe Illustrator 21.0.0, SVG Export Plug-In . SVG Version: 6.00 Build 0)  -->
<svg version="1.1" id="Layer_1" xmlns="http://www.w3.org/2000/svg" xmlns:xlink="http://www.w3.org/1999/xlink" x="0px" y="0px"
	 viewBox="0 0 400 400" style="enable-background:new 0 0 400 400;" xml:space="preserve">
<style type="text/css">
	.st0{fill:none;stroke:#D66B6B;stroke-width:0.75;stroke-miterlimit:10;}
	.st1{fill:#DFDFDF;}
	.st2{fill:none;stroke:url(#SVGID_1_);stroke-width:17;stroke-miterlimit:10;}
</style>
<path class="st0" d="M184.7,178.7l26.6,27c0,0,3.7,2.3,4,8.3c0.2,6-2.3,7.3-2.3,7.3"/>
<path class="st0" d="M184.6,165.2l33.9,34c0,0,3.1,0.1,1.4,21.3c0,0-1.8,6.4-6.3,7.5l-34,6.8"/>
<line class="st0" x1="200" y1="196.1" x2="200" y2="203.9"/>
<g>
	<path class="st1" d="M95.8,227.5c0-19.8-0.9-39.9,0.2-59.7c2.3-48.3,38.5-88.7,85.9-97.8c50.2-9.6,97.3,17.3,114.3,64.9
		c21.5,59.3-19.1,124.6-81.9,131.8c-6.1,0.7-11.9,1.2-18,0.9c-5.4-0.2-7.5,2.3-7.5,7.2c0,7.7,0.7,15.4-1.4,22.9
		c-5.6,22.9-27.5,38.7-49.7,35.9c-24.5-2.8-42-21.9-42.5-46.2c-0.2-20.1,0-40.1,0-60.2C95.8,227.5,95.8,227.5,95.8,227.5z"/>
</g>
<g>
	
		<linearGradient id="SVGID_1_" gradientUnits="userSpaceOnUse" x1="78.0958" y1="-1455.7593" x2="276.8596" y2="-1256.9958" gradientTransform="matrix(1 0 0 -1 0 -1164)">
		<stop  offset="0" style="stop-color:#159FD5"/>
		<stop  offset="1" style="stop-color:#CC0A60"/>
	</linearGradient>
	<path class="st2" d="M100.7,225.6c0-19.2-0.9-38.5,0.2-57.7c2.3-46.7,37.2-85.7,83-94.5c48.5-9.2,94,16.7,110.5,62.7
		c20.7,57.3-18.5,120.4-79.1,127.4c-5.9,0.7-11.5,1.1-17.4,0.9c-5.2-0.2-7.2,2.3-7.2,7c0,7.4,0.7,14.9-1.4,22.1
		c-5.4,22.1-26.6,37.4-48,34.7c-23.7-2.7-40.6-21.2-41-44.6c-0.2-19.4,0-38.8,0-58.2C100.7,225.6,100.7,225.6,100.7,225.6z"/>
</g>
</svg>
