<?xml version="1.0" encoding="utf-8"?>
<!-- Generator: Adobe Illustrator 24.1.0, SVG Export Plug-In . SVG Version: 6.00 Build 0)  -->
<svg version="1.1" id="Layer_1" xmlns="http://www.w3.org/2000/svg" xmlns:xlink="http://www.w3.org/1999/xlink" x="0px" y="0px"
	 viewBox="0 0 400 400" style="enable-background:new 0 0 400 400;" xml:space="preserve">
<style type="text/css">
	.st0{fill:#FFFFFF;stroke:#000000;stroke-miterlimit:10;}
	.st1{fill:none;stroke:#CC0A60;stroke-width:17;stroke-miterlimit:10;}
	.st2{clip-path:url(#SVGID_2_);}
	.st3{fill:none;stroke:#159FD5;stroke-width:17;stroke-miterlimit:10;}
</style>
<polygon class="st0" points="136,93.9 105.6,142.1 100.2,308.3 141.3,328.2 179.5,317.2 195.8,258.7 243.7,255.6 287.4,226.9 
	296.3,154.4 276.6,93.9 198.2,71.7 "/>
<g>
	<path class="st1" d="M100.7,225.6c0-19.2-0.9-38.5,0.2-57.7c2.3-46.7,37.2-85.7,83-94.5c48.5-9.2,94,16.7,110.5,62.7
		c20.7,57.3-18.5,120.4-79.1,127.4c-5.9,0.7-11.5,1.1-17.4,0.9c-5.2-0.2-7.2,2.3-7.2,7c0,7.4,0.7,14.9-1.4,22.1
		c-5.4,22.1-26.6,37.4-48,34.7c-23.7-2.7-40.6-21.2-41-44.6c-0.2-19.4,0-38.8,0-58.2C100.7,225.6,100.7,225.6,100.7,225.6z"/>
</g>
<g>
	<g>
		<defs>
			<polygon id="SVGID_1_" points="79.6,91.5 292.2,304 179.3,350.5 92.6,347.7 66.7,214.8 			"/>
		</defs>
		<clipPath id="SVGID_2_">
			<use xlink:href="#SVGID_1_"  style="overflow:visible;"/>
		</clipPath>
		<g class="st2">
			<path class="st3" d="M100.7,225.6c0-19.2-0.9-38.5,0.2-57.7c2.3-46.7,37.2-85.7,83-94.5c48.5-9.2,94,16.7,110.5,62.7
				c20.7,57.3-18.5,120.4-79.1,127.4c-5.9,0.7-11.5,1.1-17.4,0.9c-5.2-0.2-7.2,2.3-7.2,7c0,7.4,0.7,14.9-1.4,22.1
				c-5.4,22.1-26.6,37.4-48,34.7c-23.7-2.7-40.6-21.2-41-44.6c-0.2-19.4,0-38.8,0-58.2C100.7,225.6,100.7,225.6,100.7,225.6z"/>
		</g>
	</g>
</g>
</svg>
