<?xml version="1.0" encoding="utf-8"?>
<!-- Generator: Adobe Illustrator 21.0.0, SVG Export Plug-In . SVG Version: 6.00 Build 0)  -->
<svg version="1.1" id="Layer_1" xmlns="http://www.w3.org/2000/svg" xmlns:xlink="http://www.w3.org/1999/xlink" x="0px" y="0px"
	 viewBox="0 0 200 200" style="enable-background:new 0 0 200 200;" xml:space="preserve">
<style type="text/css">
	.st0{fill:#D67C3F;}
	.st1{fill:#FFFFFF;}
</style>
<g id="_x36_P4lgo_1_">
	<g>
		<path class="st0" d="M144.2,76c0-2,1.3-3.7,3.4-4.3c4.3-1.4,8.6-2.8,12.9-4c1.1-0.3,1.5-0.9,1.7-2.1c0.6-3.6,1.3-7.2,2.1-10.8
			c0.2-0.8,0.5-1.6,0.9-2.5c2.2-3.7,5.6-3.9,8.1-0.4c2,2.8,3.7,5.6,5.4,8.5c0.8,1.3,1.6,1.5,3.1,1.1c4.1-1.1,8.2-2.1,12.3-3.1
			c1.4-0.3,2.8-0.5,4.1,0.2c1.5,0.7,2.2,2.2,1.4,3.8c-0.5,1.4-1.6,2.6-2.6,3.7c-2.8,3.1-5.5,6.2-8.3,9.2c-0.6,0.7-0.5,1.3-0.1,2.1
			c1.7,3.2,3.5,6.4,5.3,9.5c1,1.7,1.4,3.6,0.2,5.3c-1.3,2-3.3,2.7-5.6,2.1c-3.3-0.9-6.5-1.8-9.8-2.8c-0.8-0.2-1.2-0.7-1.3-1.6
			c-0.2-1.3-0.3-2.8-0.7-4c-0.5-1.6,0.3-1.5,1.3-1.2c2.2,0.6,4.3,1.2,6.5,1.7c0.4,0.1,0.9,0.4,1.2,0c0.3-0.4-0.1-0.8-0.3-1.1
			c-1.3-2.6-2.8-5.1-4.2-7.6c-0.6-1.1-0.8-2,0.2-3c2.2-2.3,4.2-4.7,6.3-7.1c0.4-0.4,1.3-0.9,0.8-1.5c-0.4-0.6-1.2,0-1.8,0.1
			c-2.9,0.7-5.9,1.4-8.7,2.3c-1.4,0.4-2.4,0-3.1-1.2c-1.4-2.4-2.9-4.7-4.4-7.1c-0.2-0.4-0.4-0.9-0.9-0.8c-0.5,0.1-0.5,0.6-0.5,1
			c-0.6,3.1-1.2,6.1-1.6,9.1c-0.2,1.4-0.9,2.2-2.4,2.5c-3.3,0.9-6.6,2-9.9,3c-0.3,0.1-0.7,0.1-0.8,0.4c-0.1,0.5,0.4,0.5,0.7,0.6
			c2.5,0.9,4.8,1.8,7.3,2.9c0.3,0.1,0.8,0.1,0.9,0.5c0.1,0.6-0.4,0.7-0.8,0.9c-1,0.6-2.2,1.1-3,1.8c-2.3,2-4.4,2-6.9,0.5
			c-1.7-1-3.7-1.5-5.5-2.5C145.6,79.6,144.2,78.2,144.2,76z"/>
		<path class="st0" d="M0,99.8c0-5.6,0-11.3,0-17c0-1.2,0.3-1.6,1.5-1.5c4,0.1,8.1-0.2,12.1,0.2c5.7,0.5,10.1,4.3,10.2,10.8
			c0,2.3-0.1,4.4-1,6.6c-2.1,4.5-6,6.2-10.5,6.6c-1,0.1-2.1,0.1-3.1,0.1c-1.1-0.1-1.5,0.4-1.5,1.5c0,3.3,0,6.6,0,9.9
			c0,1.5-0.4,2.1-2.1,1.8c-1.3-0.2-2.6-0.1-3.9,0c-1.3,0.1-1.8-0.4-1.7-1.7C0.1,111.1,0,105.4,0,99.8L0,99.8z M7.6,93.3
			c0,1.4,0,3,0,4.4c0,0.6,0.2,1,0.9,1c1.2,0,2.5,0.1,3.7-0.2c3-0.8,4.4-2.9,4.2-6.1c-0.2-3-1.8-4.4-5-4.6c-0.7,0-1.5,0-2.3,0
			c-1.2-0.1-1.5,0.4-1.4,1.5C7.6,90.6,7.6,91.9,7.6,93.3z"/>
		<path class="st1" d="M105.7,101.8c-0.1,7.7-6.3,14.6-13.3,16c-3.5,0.7-6.9,0.3-10-1.3c-1.3-0.7-1.4-0.1-1.6,0.9
			c-0.3,2.5-0.7,4.8-1,7.3c-0.1,0.8-0.4,1.1-1.2,1.1c-1.3-0.1-2.6-0.1-3.9,0c-1,0-1.2-0.4-1-1.2c0.8-5.5,1.6-11.1,2.4-16.6
			c0.4-3.1,0.7-6.2,2.3-8.9c4.2-7.4,13.7-10.8,20.9-7.2C103.5,93.8,105.5,97.6,105.7,101.8z M99.2,103c0-3-1.6-5.4-4.5-6.4
			C89.9,95,84.4,98,83,103c-1,3.4,0.6,7,3.7,8.3C92.2,113.7,99.2,109.2,99.2,103z"/>
		<path class="st0" d="M38.3,109c1.2-4.1,2.4-7.8,3.5-11.6c0.6-2.1,1.2-4,1.8-6.1c0.3-1,0.8-1.4,1.8-1.4c1.6,0.1,3.3,0.1,4.9,0
			c1.1,0,1.4,0.3,1,1.4c-1.5,4.3-3.1,8.7-4.5,13.1c-2,5.7-4,11.5-6,17.2c-1.1,3.2-2.7,5.9-5.6,7.8c-1.8,1.1-3.8,0.7-5.7,0.8
			c-0.6,0-1.2-0.1-1.7,0c-1.3,0.2-1.8-0.4-1.6-1.6c0-0.4,0-0.7,0-1.1c0-1-0.2-2.2,0.2-2.9c0.6-1,1.7-0.1,2.7-0.1
			c3.6-0.2,6.5-4.3,5.2-7.8c-3-8.2-6.1-16.4-9-24.6C24.4,90,24.4,90,26.7,90c1.3,0,2.8,0.1,4.1,0c1.4-0.1,1.8,0.5,2.3,1.7
			C34.7,97.4,36.5,103,38.3,109z"/>
		<path class="st1" d="M62.5,118.2c-7.7,0-10.9-2.2-12.6-6.6c-0.3-0.8-0.3-1.2,0.5-1.6c1.4-0.6,2.8-1.2,4.1-2.1
			c1.2-0.7,1.7-0.5,2.4,0.7c1.3,2.8,3,3.5,5.7,3c1.8-0.4,3.2-1.3,3.8-3.1c0.6-1.8-0.5-3-1.5-4.1c-2.2-2.5-4.7-4.5-6.8-7.2
			c-4.4-5.5-1.8-13.6,4.9-15.6c1.2-0.4,2.5-0.8,3.7-1c3.8-0.6,8.1,1.7,10.4,5c0.4,0.6,0,1-0.4,1.3c-1.5,1.1-3.1,2.3-4.6,3.4
			c-0.7,0.5-0.9,0.1-1.2-0.4c-0.7-1.2-1.6-2.2-3.1-2.6c-1.3-0.5-2.6-0.2-3.7,0.5c-1.5,1-1.7,2.5-0.5,3.9c1.7,2,3.6,3.8,5.4,5.6
			c1.3,1.3,2.5,2.7,3.5,4.2c2.2,3.5,1.5,6.9-0.6,10.2C69.2,116.1,65.2,118.1,62.5,118.2z"/>
		<path class="st1" d="M128.3,109.2c-0.3,2.2-0.5,4.1-0.7,6.2c-0.1,0.8-0.3,1.3-1,1.6c-4.8,1.7-9.5,1.6-13.9-1.4
			c-5.3-3.9-6.4-11.2-2.6-17.1c3.5-5.4,8.4-8.4,14.9-8.1c7.3,0.2,13.2,5.9,12.1,14.4c-0.5,3.7-1,7.4-1.5,11.2c-0.1,1.2-0.5,2-2,1.7
			c-1.4-0.2-3.6,0.7-4.3-0.4c-0.6-0.9,0.1-2.9,0.3-4.4c0.3-2.5,0.7-4.9,0.9-7.5c0.2-1.3,0.1-2.8-0.3-4c-1.2-4.2-5.2-6-9.9-4.3
			c-4.4,1.5-7.2,6.5-5.9,10.5c1.1,3.3,4.5,5.1,8,4.7C125,111.7,126.5,110.3,128.3,109.2z"/>
		<path class="st1" d="M165.7,81.5c-0.5,4.1-1,7.8-1.5,11.4c-0.1,0.8-0.2,1.7-0.3,2.6c0,0.3-0.3,0.8,0.2,1c0.4,0.2,0.6-0.3,0.9-0.5
			c2.9-3,5.7-6.1,8.5-9.1c0.4-0.4,0.7-0.7,1.2-0.9c0.3,1,0.5,2.1,0.9,3c0.9,2.3-0.1,3.8-1.6,5.2c-1.5,1.4-3,3.2-4.6,4.5
			c-1.1,0.9-0.9,1.6-0.1,2.7c3.9,5,7.7,10.2,11.5,15.3c0.1,0.2,0.2,0.4,0.3,0.7c-2.6,0-5.1,0-7.6,0c-0.6,0-0.9-0.4-1.2-0.8
			c-2.8-4.1-5.6-8.1-8.4-12.2c-0.2-0.3-0.1-0.9-0.8-0.8c-0.4,0.1-0.4,0.6-0.4,1c-0.6,3.9-1.1,7.7-1.6,11.6c-0.1,1.1-0.5,1.3-1.5,1.2
			c-1.4-0.1-3,0-4.4,0c-0.8,0-1.1-0.1-1-1.1c0.8-5.9,1.6-11.7,2.5-17.7c0.5-3.6,1-7.1,1.4-10.7c0.1-1.2,0.6-2.1,1.7-2.7
			C161.5,84.1,163.4,82.9,165.7,81.5z"/>
		<path class="st1" d="M151.3,90.7c3.2,0,3.2,0,2.7,3.1c-0.5,3.2-0.5,3.2-3.7,3.2c-2.2,0-2.9,0.5-3.2,2.7
			c-0.8,5.3-1.5,10.8-2.2,16.1c-0.1,1.1-0.4,1.6-1.6,1.5c-1.3-0.1-2.6-0.1-3.9,0c-0.8,0-1.1-0.2-1-1.1c0.9-6.1,1.6-12.2,2.6-18.3
			c0.6-4.1,4.2-7.1,8.6-7.3C150.2,90.7,150.8,90.7,151.3,90.7z"/>
	</g>
</g>
</svg>
