<?xml version="1.0" encoding="utf-8"?>
<!-- Generator: Adobe Illustrator 24.1.0, SVG Export Plug-In . SVG Version: 6.00 Build 0)  -->
<svg version="1.1" id="Layer_1" xmlns="http://www.w3.org/2000/svg" xmlns:xlink="http://www.w3.org/1999/xlink" x="0px" y="0px"
	 viewBox="0 0 200 200" style="enable-background:new 0 0 200 200;" xml:space="preserve">
<style type="text/css">
	.st0{fill:#7BD6F7;}
</style>
<g>
	<g id="NUegjf.tif">
		<g>
			<path class="st0" d="M135,20.1c0.8,0,1.6,0,2.5,0c0.2,0.2,0.4,0.1,0.7,0.1c3.7,0.3,6.9,1.7,9.5,4.3c2.7,2.7,4.3,6,5.3,9.6
				c2.1,7.3,2,14.7,1.3,22.1c-0.4,4.3-1.1,8.5-2.1,12.7c-0.2,0.7,0,1,0.7,1.2c6.3,1.9,12.4,4.3,18.2,7.5c5,2.7,9.7,5.9,13.5,10.2
				c2.7,3.1,4.7,6.7,5.1,10.9c0,0.8,0,1.6,0,2.5c-0.3,2.9-1.3,5.5-2.9,7.9c-2.7,4.1-6.3,7.3-10.4,10c-7.2,4.8-15,8.1-23.2,10.7
				c-1.1,0.3-1,0.1-0.8,1.3c1.3,5.9,2.2,11.9,2.5,18c0.2,3.6,0.1,7.2-0.4,10.8c-0.5,3.8-1.4,7.5-3.2,10.9c-2.1,3.9-5.1,6.9-9.4,8.2
				c-3.2,0.9-6.4,0.9-9.6,0.3c-5.5-1-10.5-3.4-15.3-6.2c-5.8-3.5-11.1-7.6-16.1-12.2c-0.5-0.5-0.8-0.5-1.3,0
				c-1.9,1.8-3.9,3.5-5.9,5.2c-5.4,4.4-11.1,8.2-17.6,11c-4.2,1.8-8.6,3-13.3,2.9c-4-0.2-7.5-1.5-10.3-4.3c-3-3-4.6-6.7-5.7-10.8
				c-1.4-5.5-1.6-11.1-1.3-16.8c0.3-5.6,1.2-11.2,2.4-16.7c0.2-1.1,0.2-1.1-0.8-1.4c-7.7-2.4-15.1-5.5-22-9.8c-4.2-2.7-8-5.7-11-9.8
				c-2-2.8-3.4-5.9-3.6-9.4c-0.2-4,1.2-7.6,3.5-10.8c2.9-4,6.7-7.1,10.8-9.7c6.8-4.4,14.1-7.4,21.7-9.9c1.5-0.5,1.5-0.5,1.1-2
				c-1.2-5.5-2.1-11-2.3-16.7C45,47.9,45,44,45.6,40.1c0.5-3.8,1.5-7.6,3.3-11c2.4-4.5,6-7.5,11.1-8.5c4.1-0.8,8.1-0.1,12,1.1
				c5.2,1.6,9.9,4.2,14.4,7.1c4.5,3,8.7,6.3,12.6,9.9c1,0.9,1,0.9,2,0c4.9-4.5,10.2-8.7,15.9-12.1c4.6-2.7,9.4-5,14.7-6.1
				C132.7,20.4,133.8,20.3,135,20.1z M100,129.3c5.2-0.1,10.5-0.2,15.7-0.7c0.7-0.1,1.1-0.3,1.4-0.8c5.9-8.7,11.1-17.7,15.6-27.2
				c0.2-0.4,0.2-0.8,0-1.2c-4.5-9.5-9.8-18.6-15.8-27.3c-0.2-0.3-0.4-0.5-0.9-0.5c-1-0.1-1.9-0.2-2.9-0.2
				c-5.4-0.3-10.9-0.6-16.3-0.4c-4.2,0.1-8.4,0.3-12.5,0.6c-0.5,0-0.9,0.2-1.2,0.7C77.1,80.9,71.9,90,67.4,99.5
				c-0.2,0.5-0.2,0.8,0,1.3c4.5,9.5,9.8,18.6,15.8,27.2c0.3,0.4,0.5,0.6,1,0.6C89.4,129.1,94.7,129.2,100,129.3z M181.6,100
				c-0.1-1.1-0.3-2.2-0.9-3.3c-1.4-2.8-3.5-5-6-6.9c-7.2-5.7-15.6-9.1-24.3-11.9c-0.5-0.2-0.6,0-0.7,0.5c-0.2,0.8-0.5,1.7-0.7,2.5
				c-1.9,6.3-4.3,12.4-6.9,18.4c-0.2,0.5-0.2,0.9,0,1.4c0.7,1.6,1.4,3.2,2,4.7c2.1,5.2,4.1,10.5,5.6,16c0.2,0.7,0.5,0.8,1.1,0.6
				c1.2-0.5,2.5-0.8,3.7-1.3c6.2-2.2,12.2-4.9,17.7-8.7c2.8-1.9,5.4-4.1,7.4-6.9C180.8,103.6,181.5,101.9,181.6,100z M146.6,47.8
				c-0.1-2-0.1-4.3-0.4-6.6c-0.4-2.9-1-5.8-2.4-8.4c-0.9-1.8-2.1-3.3-4.1-4c-1.9-0.7-3.8-0.7-5.8-0.3c-4.1,0.7-7.9,2.4-11.5,4.4
				c-5.9,3.3-11.1,7.5-16.1,12.1c-0.4,0.4-0.4,0.6,0,1c5.1,5.3,9.8,11,14.1,17c0.5,0.6,1,0.9,1.7,0.9c2.6,0.3,5.2,0.6,7.9,1
				c4.6,0.7,9.1,1.6,13.7,2.7c0.5,0.1,0.7,0,0.8-0.5c0.2-1,0.4-1.9,0.6-2.9C146,58.9,146.6,53.5,146.6,47.8z M53.4,152.3
				c0,1.8,0.1,4,0.3,6.2c0.4,3,1,6,2.5,8.7c1.1,2,2.6,3.7,4.9,4.2c1.5,0.4,3,0.3,4.4,0.2c3.1-0.4,5.9-1.4,8.7-2.7
				c7.3-3.5,13.6-8.4,19.5-13.8c0.4-0.4,0.3-0.6,0-0.9c-5.1-5.4-9.9-11.2-14.3-17.2c-0.3-0.4-0.6-0.6-1.1-0.7
				c-1.8-0.2-3.6-0.4-5.3-0.6c-5.5-0.8-11-1.8-16.5-3.1c-0.6-0.1-0.8,0-0.9,0.6C54.4,139.3,53.4,145.5,53.4,152.3z M18.5,100
				c0,1.8,0.6,3.4,1.9,5.3c1.8,2.4,4,4.4,6.4,6.2c6.8,4.9,14.4,8,22.3,10.6c0.8,0.2,1,0,1.2-0.7c2-7,4.6-13.8,7.5-20.5
				c0.2-0.5,0.2-0.9,0-1.4c-3-6.8-5.6-13.8-7.7-20.9c-0.2-0.6-0.4-0.6-0.9-0.5c-6.2,2-12.2,4.4-17.9,7.7c-3.8,2.2-7.3,4.7-10.1,8.1
				C19.7,95.6,18.5,97.5,18.5,100z M63.5,28.4c-0.6,0.1-1.4,0.1-2.2,0.3c-2.5,0.4-4.1,2.1-5.2,4.3c-2,3.9-2.6,8.1-2.8,12.4
				C53,52.6,54,59.8,55.5,66.8c0.2,0.8,0.4,0.9,1.2,0.7c4.3-1.1,8.8-1.9,13.2-2.6c2.7-0.4,5.4-0.8,8.2-1.1c0.5-0.1,1-0.1,1.3-0.6
				c4.4-6.1,9.2-11.9,14.3-17.3c0.3-0.4,0.3-0.6,0-0.9c-1.6-1.5-3.3-2.9-5-4.3c-4.8-3.9-9.9-7.4-15.6-9.9C70,29.5,67,28.6,63.5,28.4
				z M146.7,151.4c0-1.2,0-2.8-0.1-4.4c-0.3-4.7-1.1-9.3-2.1-13.9c-0.1-0.6-0.4-0.8-1-0.7c-7.2,1.8-14.5,2.9-21.9,3.8
				c-0.4,0-0.6,0.1-0.8,0.4c-4.4,6.1-9.2,12-14.4,17.4c-0.3,0.3-0.3,0.5,0,0.9c1.4,1.2,2.8,2.5,4.2,3.6c4.9,4.1,10.1,7.8,16,10.4
				c3.5,1.6,7.1,2.8,11.1,2.5c1.7-0.1,3.3-0.7,4.6-2c1.4-1.4,2.2-3,2.8-4.8C146.4,160.6,146.8,156.2,146.7,151.4z M90,137.2
				c0.3,0.4,0.4,0.6,0.6,0.8c2.9,3.6,5.8,7,9,10.3c0.4,0.5,0.7,0.4,1.1,0c2.2-2.4,4.5-4.9,6.6-7.5c0.9-1.2,1.9-2.3,3-3.7
				C103.3,137.5,96.7,137.4,90,137.2z M90,62.7c0,0.1,0.1,0.1,0.1,0.2c6.6-0.4,13.2-0.3,19.9,0c-0.2-0.3-0.2-0.4-0.3-0.5
				c-2.9-3.7-6-7.3-9.3-10.7c-0.4-0.4-0.6-0.5-1.1,0c-2,2.1-3.9,4.2-5.7,6.4C92.4,59.7,91.2,61.2,90,62.7z M127.1,127.3
				c4.9-0.7,9.5-1.6,14-2.7c1-0.2,1-0.2,0.7-1.3c-0.9-3-1.9-6-3-8.9c-0.5-1.5-1.1-2.9-1.8-4.6C134.1,115.9,130.8,121.6,127.1,127.3z
				 M62.7,90c3.2-5.9,6.5-11.5,10-17.1c-0.2,0-0.3,0-0.4,0c-4.7,0.7-9.3,1.6-13.9,2.6c-0.6,0.1-0.7,0.3-0.5,0.9
				c0.9,2.9,1.8,5.7,2.8,8.5C61.4,86.6,62.1,88.3,62.7,90z M137.1,90.1c0.2-0.4,0.3-0.6,0.4-0.9c1.6-4.1,3.1-8.3,4.3-12.6
				c0.3-0.9,0.3-0.9-0.6-1.2c-3.5-0.8-7.1-1.5-10.6-2.1c-1.1-0.2-2.1-0.3-3.4-0.5C130.8,78.5,134.1,84.1,137.1,90.1z M62.9,110.1
				c-0.1,0.2-0.2,0.3-0.2,0.3c-1.7,4.4-3.3,8.9-4.6,13.4c-0.2,0.6,0,0.7,0.5,0.8c3.8,0.9,7.7,1.7,11.5,2.3c0.8,0.1,1.7,0.4,2.6,0.3
				C69.2,121.6,65.9,116,62.9,110.1z"/>
			<path class="st0" d="M116.7,100c0,9.3-7.4,16.7-16.7,16.7c-8.7,0-16.7-6.9-16.7-16.7c0-9.4,7.5-16.6,16.7-16.7
				C109.2,83.3,116.7,90.8,116.7,100z"/>
		</g>
	</g>
</g>
</svg>
