<?xml version="1.0" encoding="utf-8"?>
<!-- Generator: Adobe Illustrator 21.0.0, SVG Export Plug-In . SVG Version: 6.00 Build 0)  -->
<svg version="1.1" id="Layer_1" xmlns="http://www.w3.org/2000/svg" xmlns:xlink="http://www.w3.org/1999/xlink" x="0px" y="0px"
	 viewBox="0 0 175.6 175.2" style="enable-background:new 0 0 175.6 175.2;" xml:space="preserve">
<style type="text/css">
	.st0{fill:#EB1C24;}
	.st1{clip-path:url(#SVGID_2_);}
	.st2{clip-path:url(#SVGID_4_);fill:#EB1C24;}
	.st3{clip-path:url(#SVGID_4_);fill:#CC171F;}
	.st4{clip-path:url(#SVGID_4_);fill:#B9141A;}
	.st5{clip-path:url(#SVGID_4_);fill:#DA1921;}
	.st6{clip-path:url(#SVGID_4_);fill:#870304;}
</style>
<g>
	<ellipse class="st0" cx="94.5" cy="39.9" rx="23.5" ry="23.9"/>
	<circle class="st0" cx="103.1" cy="127.8" r="20.3"/>
	<ellipse class="st0" cx="60.8" cy="142.6" rx="16.3" ry="16.2"/>
	<ellipse class="st0" cx="79.5" cy="92.9" rx="26.9" ry="26.7"/>
	<ellipse class="st0" cx="39" cy="101.7" rx="20.7" ry="19.4"/>
	<g>
		<g>
			<defs>
				<rect id="SVGID_1_" x="2.4" y="2.2" width="170.7" height="170.7"/>
			</defs>
			<clipPath id="SVGID_2_">
				<use xlink:href="#SVGID_1_"  style="overflow:visible;"/>
			</clipPath>
			<g class="st1">
				<defs>
					<rect id="SVGID_3_" x="2.4" y="2.2" width="170.7" height="170.7"/>
				</defs>
				<clipPath id="SVGID_4_">
					<use xlink:href="#SVGID_3_"  style="overflow:visible;"/>
				</clipPath>
				<path class="st2" d="M96.8,71.7c0.7-2.8,1.4-5.5,2.1-8.3c4.1-8.1,10.3-13.9,19-16.8c17.7-5.1,34.2,6.2,37.7,22
					c2.7,12.3-2.4,24.9-13.1,31.7c-10.5,6.7-24.3,6-34.1-1.6c-0.7-0.5-1.3-1-2-1.5C99.2,90.2,96.1,81.6,96.8,71.7"/>
				<path class="st2" d="M43.9,76.3c-13.3,0-24.1-10.8-24-23.9C20,39.4,30.7,28.6,43.7,28.5c13.2-0.1,24.1,10.7,24.1,23.9
					C67.8,65.7,57.1,76.3,43.9,76.3"/>
				<path class="st3" d="M83.1,119.5l-0.5,0c-0.2-0.6-0.3-1.3-0.7-1.9c-8.1-13.5-16-27.1-24.4-40.4c4.1-5.8,9.5-9.5,16.5-10.8
					c1,3.7,3.5,6.6,5.4,9.8c1,1.8,1.8,3.8,3.7,4.9c0.9,8.3,4.6,15.1,10.9,20.7c2.5,2.3,5.6,3.7,8.3,5.7c-1.1,1.4-2.1,2.8-3.3,4.1
					C94.5,116,89.2,118.5,83.1,119.5"/>
				<path class="st4" d="M117.8,46.6c-8.8,2.9-14.9,8.7-19,16.8c-7.6,1.2-14.4-0.6-20.1-5.9c0.9-0.8,1.8-1.5,2.6-2.3
					c9.7-9.8,19.3-19.6,28.9-29.4c0.6-0.7,1.3-1.3,1.6-2.2c4.3,3.9,6.1,8.9,6.6,14.5C118.7,40.9,118.4,43.8,117.8,46.6"/>
				<path class="st2" d="M119.9,117.1c5.9,9,2.9,21.7-6.5,27.6c-9.2,5.8-22,3.1-27.4-5.8c0.6-0.6,1.2-1.2,1.9-1.6
					c9.7-6.4,19.5-12.8,29.3-19.2C118,117.6,118.9,117.1,119.9,117.1"/>
				<path class="st5" d="M57.4,77.2c8.5,13.3,16.3,27,24.4,40.4c0.3,0.6,0.4,1.3,0.7,1.9c-9.9,0.9-18-2.3-24.3-10.1
					c-5.6-6.7-6.5-14.4-5.1-22.7C53.9,83.2,55.3,80,57.4,77.2"/>
				<path class="st6" d="M102.2,107.5c-2.7-2-5.8-3.4-8.3-5.7c-6.2-5.5-9.9-12.4-10.9-20.7c-0.4-2.9-0.3-5.8,0.1-8.7
					c0.3-2.1,1.4-4.1,1-6.3c4.8,0.6,8.8,3,12.7,5.5c-0.7,9.9,2.4,18.5,9.5,25.5c-0.7,3.5-2.4,6.7-3.4,10.1
					C102.7,107.4,102.4,107.4,102.2,107.5"/>
				<path class="st4" d="M53.2,86.7c-1.4,8.3-0.5,16,5.1,22.7c-2.2,2.1-3.6,5-6,7.1c-0.5,0.4-0.9,1-1.5,1.2
					c-0.1-1.4-0.8-2.6-1.4-3.8C44.1,103.4,38.7,93,33.9,82.4c6.1-1.8,11.8-0.6,17,2.9C51.6,85.8,52.1,86.7,53.2,86.7"/>
				<path class="st3" d="M111.9,23.6c-0.3,0.9-0.9,1.6-1.6,2.2c-9.6,9.8-19.3,19.6-28.9,29.4c-0.8,0.8-1.8,1.5-2.6,2.3
					c-1.8-1.6-3.4-3.3-4.4-5.5c2.6-2.7,5.2-5.5,7.8-8.2c7.4-7.6,14.8-15.1,22.2-22.7c0.7-0.7,1.3-1.3,1.5-2.3
					C108.3,19.9,110.3,21.5,111.9,23.6"/>
				<path class="st4" d="M102.2,107.5c0.2-0.1,0.5-0.1,0.7-0.2c4.7,0,9,1.4,12.6,4.6c-0.7,1.2-1.8,2-2.9,2.7c-2.3,1.5-4.7,3-7,4.5
					c-7.5,4.7-14.6,9.9-22.3,14.3c-1.3-3.9-1.1-7.7-0.1-11.6c0.2-0.7,1-1.5-0.1-2.2c6.1-1,11.5-3.5,15.8-8
					C100.1,110.3,101.1,108.8,102.2,107.5"/>
				<path class="st2" d="M71.4,44.2c-3-11,4.9-24,16.8-27.3c3.3-0.9,6.6-1.4,10-0.5c-0.1,1.4-1,2.2-1.9,3.1c-4.8,5-9.9,9.8-14.6,15
					C78.5,38,75.5,41.7,71.4,44.2"/>
				<path class="st3" d="M33.9,82.4c4.9,10.6,10.3,21,15.4,31.5c0.6,1.2,1.3,2.4,1.4,3.8c-2.1,1.7-4.4,2.8-7.1,3.2
					c-0.1-1.4-0.7-2.6-1.3-3.8c-3.6-7.2-7.2-14.4-10.8-21.7c-1.5-3.1-2.5-6.4-4.7-9.2C28.8,84.2,31.2,83.1,33.9,82.4"/>
				<path class="st5" d="M71.4,44.2c4.1-2.5,7.1-6.2,10.2-9.6c4.7-5.2,9.8-10,14.6-15c0.9-0.9,1.9-1.7,1.9-3.1
					c2.7,0.2,5.3,1,7.6,2.5c-0.2,0.9-0.9,1.6-1.5,2.3c-7.4,7.6-14.8,15.1-22.2,22.7c-2.6,2.7-5.2,5.5-7.8,8.2
					C72.7,49.7,71.7,47.1,71.4,44.2"/>
				<path class="st4" d="M50.7,129.7c5.5-4.4,13.2-4.8,19.1-1c6.1,4,8.9,11,7,18.2c-1.2-0.1-2.1-0.9-3.1-1.5
					c-5.5-3.7-11-7.3-16.5-11C55,132.9,52.6,131.7,50.7,129.7"/>
				<path class="st5" d="M26.8,86.2c2.1,2.8,3.1,6.1,4.7,9.2c3.6,7.2,7.2,14.5,10.8,21.7c0.6,1.2,1.2,2.4,1.3,3.8
					c-2.3,0.7-4.7,0.8-7.1,0.3c-0.2-0.8-0.4-1.7-0.7-2.4c-4-8.1-8.1-16.3-12.2-24.4c-0.4-0.8-0.9-1.6-1.8-2
					C22.8,89.7,24.5,87.7,26.8,86.2"/>
				<path class="st2" d="M21.8,92.3c0.9,0.4,1.4,1.2,1.8,2c4.1,8.1,8.1,16.3,12.2,24.4c0.4,0.7,0.5,1.6,0.7,2.4
					C23.1,119.9,15,104.1,21.8,92.3"/>
				<path class="st5" d="M73.5,153.1c-1.5,2.2-3.6,3.7-6.1,4.6c-0.3-1.4-1.4-2-2.4-2.7c-5.9-3.9-11.7-7.8-17.6-11.7
					c-0.9-0.6-1.8-1.2-2.9-1.4c0-2.3,0.3-4.6,1.7-6.5c2.7,0.3,4.5,2.2,6.5,3.6C59.7,143.6,67,147.9,73.5,153.1"/>
				<path class="st3" d="M73.5,153.1c-6.6-5.3-13.9-9.5-20.8-14.2c-2-1.4-3.9-3.3-6.5-3.6c1-2.3,2.4-4.2,4.5-5.6
					c1.9,1.9,4.3,3.2,6.5,4.7c5.5,3.7,11,7.4,16.5,11c1,0.6,1.9,1.4,3.1,1.5C76.2,149.3,75.3,151.4,73.5,153.1"/>
				<path class="st2" d="M44.5,141.9c1.1,0.2,2,0.8,2.9,1.4c5.9,3.9,11.7,7.8,17.6,11.7c1.1,0.7,2.1,1.4,2.4,2.7
					c-9.6,4.7-22.3-2-23-14.1C44.4,143,44.5,142.4,44.5,141.9"/>
				<path class="st3" d="M83.2,133.4c7.7-4.4,14.8-9.6,22.3-14.3c2.3-1.5,4.7-3,7-4.5c1.1-0.7,2.2-1.5,2.9-2.7
					c1.1,0.7,2,1.7,2.8,2.7c-1.2,0.7-2.4,1.3-3.5,2c-10.1,6.5-20.2,13.1-30.3,19.7C83.7,135.5,83.5,134.4,83.2,133.4"/>
				<path class="st5" d="M84.5,136.3c10.1-6.6,20.2-13.1,30.3-19.7c1.1-0.7,2.3-1.4,3.5-2c0.7,0.7,1.3,1.5,1.7,2.5
					c-1,0.1-1.9,0.5-2.8,1c-9.8,6.4-19.5,12.8-29.3,19.2c-0.7,0.5-1.3,1.1-1.9,1.6C85.2,138.2,84.7,137.4,84.5,136.3"/>
				<path class="st4" d="M84.1,66.1c0.5,2.2-0.7,4.2-1,6.3c-0.4,2.9-0.5,5.8-0.1,8.7c-1.9-1.1-2.7-3.1-3.7-4.9
					c-1.8-3.2-4.3-6.1-5.4-9.8C77.3,65.4,80.7,65.6,84.1,66.1"/>
			</g>
		</g>
	</g>
</g>
</svg>
