<?xml version="1.0" encoding="utf-8"?>
<!-- Generator: Adobe Illustrator 23.1.0, SVG Export Plug-In . SVG Version: 6.00 Build 0)  -->
<svg version="1.1" id="Layer_1" xmlns="http://www.w3.org/2000/svg" xmlns:xlink="http://www.w3.org/1999/xlink" x="0px" y="0px"
	 viewBox="0 0 107.6 114" style="enable-background:new 0 0 107.6 114;" xml:space="preserve">
<style type="text/css">
	.st0{fill:#DB5E9C;}
	.st1{fill:#FDFBFC;}
</style>
<g id="WbRUOo.tif">
	<g>
		<path class="st0" d="M58.2,103.4c-3,0-6,0-9,0c-0.2-0.4-0.6-0.3-0.9-0.3c-7.9-0.9-15-3.8-21.5-8.3C7.5,81.1,1.7,53.8,13.8,33.6
			c12-20.1,35.8-28.3,57.5-19.4C85.6,20,94.7,30.7,98.8,45.7c0.6,2.3,0.7,4.7,1.4,7c0,3,0,6,0,9c-0.3,0.2-0.3,0.5-0.3,0.8
			c-0.5,4.3-1.5,8.5-3.2,12.4c-6.1,14-16.5,23-31.3,27.1C63,102.6,60.5,102.7,58.2,103.4z M42.5,69.9c-0.9,0.5-1.6,0.9-2.4,1.3
			c-3.7,2.1-7.2,4.3-10.1,7.5c-2,2.3-2.9,4.9-2.6,8c0.2,2.4,1.8,4.5,3.6,5c2.7,0.7,5.5,0.5,8.1-0.5c7.6-3.1,11.4-10.8,9.4-18.8
			c-0.3-1.2,0.1-1.5,1.1-1.7c2.1-0.3,4.1-0.3,6.2,0c3,0.5,5.8,1.5,7.6,4.2c1.8,2.7,1.3,5.3-1.2,7.2c-0.4,0.3-1.1,0.4-0.8,1
			c0.3,0.6,0.9,0.2,1.4,0c2.7-1.2,4.2-4.1,3.6-7c-0.8-4.2-3.6-6.6-7.4-8c-3.8-1.3-7.7-1-11.6-0.2c-0.7,0.1-1.2,0.3-1.8-0.3
			c-1.6-1.7-3.5-3.1-5.4-4.6c-2.2-1.7-4.4-3.3-6.2-5.4c-2.7-3.1-3.3-6.5-1.7-10.4c0.9-2.1,2.2-3.8,3.8-5.4c3.6-3.7,8-6.4,12.5-8.7
			c6.2-3.2,12.6-5.5,19.7-5.4c2.6,0,5.1,0.4,7.3,1.8c1.6,1,2.4,2.4,2.5,4.3c0.1,2-0.6,3.7-1.6,5.3c-4.9,8.5-16.6,12.6-24,11.7
			c-1.8-0.2-3.4-0.9-4.9-2c-0.5-0.4-0.9-1.5-1.6-0.8c-0.7,0.6,0.1,1.4,0.4,2.1c0.2,0.4,0.5,0.7,0.8,1c2.1,2,4.6,2.9,7.4,3.1
			c3.7,0.2,7.3-0.2,10.9-1.2c7.3-2.1,12.9-6.2,16.2-13.2c3.6-7.5,0.8-14-7.1-16.6c-4.6-1.5-9.3-1.5-14-0.6
			c-7.7,1.4-14.6,4.6-21.1,8.7c-5.1,3.1-9.5,6.9-12.7,12c-3.7,5.8-3.3,10.3,1.3,15.4c1.9,2.2,4.2,4,6.5,5.7
			C37.2,66.1,39.9,67.8,42.5,69.9z"/>
		<path class="st1" d="M42.5,69.9c-2.6-2.1-5.3-3.8-7.8-5.7c-2.3-1.7-4.6-3.5-6.5-5.7c-4.5-5.1-4.9-9.6-1.3-15.4
			c3.2-5.1,7.7-8.9,12.7-12c6.6-4.1,13.5-7.3,21.1-8.7c4.7-0.8,9.4-0.9,14,0.6c7.9,2.6,10.7,9.1,7.1,16.6
			c-3.3,6.9-8.9,11.1-16.2,13.2c-3.6,1-7.2,1.4-10.9,1.2C52,54,49.4,53.1,47.4,51c-0.3-0.3-0.6-0.6-0.8-1c-0.4-0.6-1.1-1.5-0.4-2.1
			c0.7-0.6,1.1,0.5,1.6,0.8c1.4,1.1,3.1,1.8,4.9,2c7.5,0.9,19.2-3.2,24-11.7c0.9-1.6,1.6-3.4,1.6-5.3c-0.1-1.9-0.8-3.3-2.5-4.3
			c-2.3-1.4-4.8-1.8-7.3-1.8c-7.1-0.1-13.6,2.2-19.7,5.4c-4.5,2.4-8.9,5-12.5,8.7c-1.6,1.6-2.9,3.3-3.8,5.4c-1.6,3.8-1,7.3,1.7,10.4
			c1.8,2.1,4,3.7,6.2,5.4c1.9,1.4,3.8,2.9,5.4,4.6c0.6,0.6,1.2,0.5,1.8,0.3c3.9-0.8,7.8-1.1,11.6,0.2c3.8,1.3,6.6,3.8,7.4,8
			c0.6,2.9-0.9,5.8-3.6,7c-0.5,0.2-1.1,0.6-1.4,0c-0.3-0.6,0.5-0.7,0.8-1c2.6-1.9,3-4.5,1.2-7.2c-1.8-2.7-4.6-3.7-7.6-4.2
			c-2-0.4-4.1-0.4-6.2,0c-1,0.2-1.4,0.4-1.1,1.7c2.1,8-1.8,15.7-9.4,18.8c-2.6,1.1-5.3,1.2-8.1,0.5c-1.9-0.5-3.4-2.6-3.6-5
			c-0.3-3.1,0.6-5.7,2.6-8c2.8-3.2,6.4-5.4,10.1-7.5C40.9,70.8,41.6,70.4,42.5,69.9z M45,75.4c0-0.3-0.1-1-0.2-1.6
			c-0.1-0.9-0.3-1.3-1.3-0.7c-2.4,1.4-4.8,2.9-6.8,4.8c-1.6,1.5-2.9,3.2-3.5,5.4c-0.3,1.2-0.7,2.4,0.3,3.4c1,1,2.3,0.6,3.5,0.2
			C41.7,85.4,45,80.7,45,75.4z"/>
		<path class="st0" d="M45,75.4c0,5.3-3.3,9.9-8,11.5c-1.2,0.4-2.5,0.8-3.5-0.2c-1-1-0.6-2.2-0.3-3.4c0.6-2.2,1.9-3.9,3.5-5.4
			c2-1.9,4.4-3.4,6.8-4.8c1-0.6,1.3-0.2,1.3,0.7C44.9,74.5,45,75.1,45,75.4z"/>
	</g>
</g>
</svg>
