<?xml version="1.0" encoding="utf-8"?>
<!-- Generator: Adobe Illustrator 21.0.0, SVG Export Plug-In . SVG Version: 6.00 Build 0)  -->
<svg version="1.1" id="Layer_1" xmlns="http://www.w3.org/2000/svg" xmlns:xlink="http://www.w3.org/1999/xlink" x="0px" y="0px"
	 viewBox="0 0 107.6 114" style="enable-background:new 0 0 107.6 114;" xml:space="preserve">
<style type="text/css">
	.st0{fill:#F29431;}
	.st1{fill:#F18C31;}
</style>
<g id="NuBpDm.tif">
	<g>
		<path class="st0" d="M55.5,100.5c0-29,0-57.9,0-87c1.4,0.8,2.7,1.6,4.1,2.3c2.8,1.6,5.7,3.3,8.5,4.9c3,1.7,5.9,3.5,9,5.1
			c5,2.7,9.8,5.6,14.7,8.3c0.6,0.4,0.8,0.7,0.8,1.4c0,5.9,0.1,11.6,0.1,17.5c0,0.3,0,0.5,0,0.8c-0.4,0-0.6-0.3-0.9-0.4
			c-6.8-3.9-13.7-7.9-20.4-11.8c-1-0.5-1-0.5-1,0.5c0,2.6,0,5.2,0,7.8c0,0.4,0.1,0.7,0.5,1c3.3,1.9,6.7,3.8,9.9,5.7
			c0.4,0.4,0.6,0.6,0.6,1.2c0,5.1,0,10.1,0,15.1c0,0.3,0,0.5,0,1c-3.7-2.1-7.4-4.3-11.2-6.5c0,0.4,0,0.7,0,1c0,7.5,0,15.1,0,22.7
			c0,0.5-0.2,0.9-0.6,1.2c-4.5,2.6-9,5.2-13.5,7.8C56,100.2,55.8,100.3,55.5,100.5z"/>
		<path class="st1" d="M52.1,13.7c0,28.9,0,57.8,0,86.8c-0.4-0.3-0.9-0.5-1.3-0.7c-4.3-2.5-8.6-5-12.9-7.4c-0.5-0.3-0.7-0.6-0.7-1.2
			c0-16.3,0-32.6,0-49c0-0.3,0-0.5,0-1c-7.4,4.3-14.8,8.6-22.2,12.9c-0.2-0.2-0.1-0.4-0.1-0.5c0-6,0-12.1,0-18.1
			c0-0.5,0.2-0.8,0.6-1.1c12-6.8,23.9-13.7,35.8-20.5C51.6,13.9,51.9,13.7,52.1,13.7z"/>
	</g>
</g>
</svg>
