<?xml version="1.0" encoding="utf-8"?>
<!-- Generator: Adobe Illustrator 21.0.0, SVG Export Plug-In . SVG Version: 6.00 Build 0)  -->
<svg version="1.1" id="Layer_1" xmlns="http://www.w3.org/2000/svg" xmlns:xlink="http://www.w3.org/1999/xlink" x="0px" y="0px"
	 viewBox="0 0 200 56.8" style="enable-background:new 0 0 200 56.8;" xml:space="preserve">
<style type="text/css">
	.st0{fill:#9D3A54;}
</style>
<g>
	<path class="st0" d="M73.3,28.6c0-4.3,0-8.6,0-13c0-0.9,0.2-1.2,1.2-1.2c6,0,12.1,0,18.1,0c0.9,0,1.2,0.3,1.1,1.2
		c-0.1,1.1-0.1,2.3,0,3.4c0,0.8-0.2,1.1-1,1.1c-3.9,0-7.9,0-11.8,0c-0.9,0-1.2,0.2-1.2,1.1c0.1,1.2,0.1,2.3,0,3.5
		c-0.1,0.9,0.2,1.2,1.1,1.2c3.4-0.1,6.8,0,10.2,0c1.3,0,1.3,0,1.3,1.4c0,1,0,2.1,0,3.1c0,0.8-0.2,1-1,1c-3.5,0-6.9,0-10.4,0
		c-1,0-1.4,0.2-1.3,1.3c0.1,1.2,0.1,2.4,0,3.6c0,0.8,0.2,1,1,1c4.1,0,8.2,0,12.4,0c1,0,1.2,0.3,1.2,1.2c-0.1,1.2,0,2.4,0,3.6
		c0,0.6-0.2,0.8-0.8,0.8c-6.4,0-12.8,0-19.2,0c-0.8,0-0.8-0.4-0.8-1C73.3,37.3,73.3,32.9,73.3,28.6z"/>
	<path class="st0" d="M132.5,13.8c2.5,0,5.7,1,8.7,3.1c0.6,0.4,0.7,0.8,0.2,1.4c-0.7,0.9-1.4,1.9-2.1,3c-0.4,0.7-0.8,0.8-1.5,0.3
		c-2.1-1.4-4.4-2.3-6.9-2.2c-0.6,0-1.1,0.1-1.6,0.3c-1,0.4-1.5,1.2-1.6,2.2c0,1,0.5,1.8,1.4,2.2c1.4,0.7,2.8,1,4.3,1.4
		c2.1,0.6,4.2,1.3,6,2.5c3.8,2.4,4.1,9.8-0.2,12.8c-3.3,2.3-6.9,2.5-10.6,1.8c-3-0.6-5.6-2-8-4c-0.5-0.4-0.5-0.7-0.1-1.2
		c0.9-1.1,1.8-2.1,2.7-3.3c0.5-0.6,0.8-0.5,1.3-0.1c1.4,1.2,2.9,2.1,4.5,2.8c1.3,0.5,2.6,0.7,4,0.6c1.5-0.1,2.6-1,2.8-2.3
		c0.2-1.2-0.4-2.2-1.9-2.8c-1.3-0.6-2.7-0.9-4.1-1.3c-2.4-0.7-4.9-1.4-6.8-3.3c-2.4-2.3-3-9.1,1.3-11.9
		C126.6,14.5,128.6,13.9,132.5,13.8z"/>
	<path class="st0" d="M115.4,25.1c-0.1,2.8,0.2,6.3-0.2,9.7c-0.4,4.7-3.8,7.9-8.5,8.1c-3.3,0.1-6.1-0.9-8.6-3
		c-0.7-0.6-0.9-1.1-0.2-1.8c0.7-0.8,1.3-1.7,1.9-2.6c0.5-0.7,0.8-1,1.6-0.2c1.1,1.1,2.5,1.8,4.1,1.9c1.8,0.1,3-0.8,3.4-2.6
		c0.1-0.5,0.2-1.1,0.2-1.6c0-4,0-8,0-12c0-0.8-0.2-1.1-1-1.1c-2.1,0.1-4.3,0-6.4,0c-0.8,0-1-0.2-1-1c0-1.2,0-2.3,0-3.5
		c0-0.6,0.2-0.9,0.9-0.9c4.4,0,8.7,0,13.1,0c0.7,0,0.8,0.3,0.8,0.9C115.4,18.4,115.4,21.4,115.4,25.1z"/>
	<path class="st0" d="M184.4,33.1c-2.3-1.1-4.4-2-6.5-3c-0.4-0.2-1.1-0.3-1.2-0.8c-0.1-1-0.1-2,0-3c0-0.4,0.4-0.2,0.6-0.1
		c3.6,1.7,7.1,3.4,10.7,5c0.4,0.2,0.5,0.4,0.5,0.8c0,0.7,0,1.4,0,2.2c0,0.4-0.2,0.7-0.6,0.9c-3.5,1.6-6.9,3.3-10.4,4.9
		c-0.6,0.3-0.8,0.2-0.9-0.5c-0.1-2.6-0.1-2.6,2.2-3.7C180.6,34.9,182.4,34,184.4,33.1z"/>
	<path class="st0" d="M15.6,33.1c2.3,1.1,4.4,2.1,6.5,3c0.9,0.4,1.4,0.9,1.3,2c-0.1,2.3,0,2.3-2.1,1.3c-2.9-1.4-5.9-2.8-8.8-4.1
		c-0.7-0.3-0.9-0.8-1-1.5c-0.2-1.7,0.4-2.6,2-3.2c3-1.2,5.9-2.7,8.8-4.1c0.7-0.4,1-0.4,1.1,0.6c0.2,1.9-0.4,2.9-2.2,3.6
		C19.4,31.2,17.7,32.1,15.6,33.1z"/>
	<path class="st0" d="M156.8,42.7c0.6-0.8,1-1.4,1.4-2c3.3-4.6,6.7-9.2,9.9-13.9c0.5-0.7,1-1.1,1.9-1c0.9,0.1,2.2-0.4,2.6,0.3
		c0.3,0.5-0.8,1.4-1.3,2.1c-3.3,4.6-6.6,9.1-9.8,13.7c-0.4,0.6-0.9,0.9-1.6,0.8C158.9,42.6,158,42.7,156.8,42.7z"/>
	<path class="st0" d="M27.1,42.7c0-0.5,0.2-0.7,0.4-0.9c3.6-5.1,7.3-10.1,10.9-15.2c0.4-0.6,0.8-0.8,1.5-0.8c0.7,0.1,1.4,0,2.2,0
		c0.3,0,0.6-0.1,0.8,0.1c0.2,0.3-0.2,0.5-0.3,0.7c-1.9,2.7-3.9,5.4-5.8,8.1c-1.7,2.4-3.5,4.8-5.2,7.3c-0.3,0.5-0.7,0.7-1.3,0.7
		C29.2,42.6,28.1,42.7,27.1,42.7z"/>
	<path class="st0" d="M52,38.7c-1.7,0-3.4,0-5,0c-0.6,0-0.8-0.2-0.9-0.8c-0.1-2.2-0.1-2.2,2-2.2c2.9,0,5.9,0,8.8,0c0.8,0,1,0.2,1,1
		c-0.1,2.4,0.3,2-2,2.1C54.7,38.7,53.4,38.7,52,38.7z"/>
	<path class="st0" d="M169.7,36.1c2,0,3.6,1.5,3.6,3.4c0,1.9-1.6,3.4-3.6,3.4c-2,0-3.5-1.5-3.6-3.4
		C166.1,37.6,167.6,36.1,169.7,36.1z M168.8,39.5c0,0.6,0.2,1.1,0.9,1.1c0.7,0,1-0.4,1-1.1c0-0.6-0.2-1.2-0.9-1.2
		C169,38.3,168.8,38.8,168.8,39.5z"/>
	<path class="st0" d="M39.8,36.1c2,0,3.6,1.5,3.6,3.4c0,1.9-1.6,3.4-3.6,3.4c-2,0-3.5-1.5-3.5-3.4C36.2,37.6,37.7,36.1,39.8,36.1z
		 M40.7,39.5c0-0.6-0.2-1.1-0.9-1.1c-0.8,0-1,0.5-1,1.2c0,0.6,0.3,1.1,1,1.1C40.5,40.6,40.7,40.1,40.7,39.5z"/>
	<path class="st0" d="M156.6,29.5c0-2,1.5-3.4,3.7-3.3c2,0,3.5,1.5,3.5,3.4c0,1.9-1.6,3.4-3.6,3.4C158.1,33,156.6,31.5,156.6,29.5z
		 M159.2,29.5c0.1,0.6,0.3,1.2,1,1.2c0.7,0,1-0.5,1-1.1c0-0.6-0.3-1.2-1-1.2C159.5,28.4,159.3,28.9,159.2,29.5z"/>
	<path class="st0" d="M30.3,26.2c2,0,3.6,1.5,3.6,3.4c0,1.9-1.6,3.4-3.6,3.4c-2,0-3.6-1.5-3.5-3.5C26.7,27.6,28.2,26.2,30.3,26.2z
		 M29.2,29.6c0.1,0.6,0.3,1.1,0.9,1.1c0.7,0,1-0.5,1-1.1c0-0.6-0.3-1.2-1-1.2C29.5,28.4,29.3,29,29.2,29.6z"/>
	<path class="st0" d="M52.2,29.7c1.6,0,3.3,0,4.9,0c0.7,0,0.9,0.2,0.9,0.9c-0.1,2.5,0.2,2-2,2.1c-2.9,0-5.8,0-8.7,0
		c-0.8,0-1.2-0.2-1.1-1.1c0.1-2.2-0.1-1.9,1.9-1.9C49.4,29.7,50.8,29.7,52.2,29.7z"/>
</g>
</svg>
