<?xml version="1.0" encoding="utf-8"?>
<!-- Generator: Adobe Illustrator 21.0.0, SVG Export Plug-In . SVG Version: 6.00 Build 0)  -->
<svg version="1.1" id="Layer_1" xmlns="http://www.w3.org/2000/svg" xmlns:xlink="http://www.w3.org/1999/xlink" x="0px" y="0px"
	 viewBox="0 0 200 56.8" style="enable-background:new 0 0 200 56.8;" xml:space="preserve">
<g id="YzdwEJ.tif">
	<g>
		<path d="M68.6,31.2c0,4.8,0,9.7,0,14.5c0,0.5,0.4,1.4-0.6,1.3c-0.7,0-0.5-0.8-0.5-1.3c0-11.3,0-22.7,0-34c0-0.5-0.1-1.2,0.6-1.2
			c0.8,0,0.5,0.7,0.5,1.2c0,1.8,0,3.6,0.2,5.5c0.9-1.5,1.8-3,3-4.2c5.5-5.4,14.8-3.6,17.9,3.5c2.2,5,2.2,10.2,0,15.2
			c-1.9,4.2-5.2,6.6-10,6.7C74.5,38.4,70.9,36,68.6,31.2z M68.6,24c0.1,2.7,0.4,4.9,1.3,7c1.7,3.9,4.7,5.9,8.9,6.2
			c4.1,0.3,7.3-1.4,9.3-5.1c2.8-5.3,2.9-10.8,0.1-16.1c-3.2-6-11.2-6.9-15.9-2.1C69.5,17,68.7,20.6,68.6,24z"/>
		<path d="M28.4,24.5c-3.2,0-6.5,0-9.7,0c-0.9,0-1.4,0.1-1.4,1.3c-0.1,8.1,6,13.1,13.9,11.2c3.5-0.9,5.7-3.1,6.9-6.5
			c0.1-0.3,0.1-0.6,0.2-0.9c0.2-0.5,0.2-1.4,1-1.1c0.6,0.2,0.3,0.9,0.2,1.4c-0.8,4.5-4.8,8-9.6,8.4C22,39,17.6,35.6,16.3,27.5
			c-0.8-5.1-0.1-10,3.6-14c3-3.3,7-4.3,11.3-3.2c4.7,1.2,7.2,4.5,8.3,9.1c1.2,5.1,1.1,5.1-4,5.1C33.1,24.5,30.8,24.5,28.4,24.5z
			 M27.7,23.2c3,0,6-0.1,9,0c1.8,0.1,2-0.6,1.8-2.2c-0.6-6-5-10.3-10.7-10.1c-5.6,0.1-10.2,4.9-10.6,10.7c-0.1,1.2,0.2,1.5,1.4,1.5
			C21.7,23.2,24.7,23.2,27.7,23.2z"/>
		<path d="M122.2,24.5c-3.2,0-6.5,0-9.7,0c-1.2,0-1.6,0.3-1.6,1.6c0.3,8.2,6.2,12.8,14,10.8c3.6-0.9,5.8-3.2,6.9-6.8
			c0.2-0.6,0-1.9,1-1.6c1,0.3,0.3,1.4,0.1,2.1c-1.4,4.8-5.3,7.7-10.7,7.8c-5.7,0.2-9.4-2.2-11.2-7.1c-1.7-4.9-1.8-9.8,0.5-14.6
			c2.3-4.9,6.7-7.3,12-6.7c4.7,0.5,8.6,4.2,9.7,9.2c1.2,5.2,1.2,5.2-4.1,5.2C126.8,24.5,124.5,24.5,122.2,24.5z M121.6,23.2
			c3.1,0,6.2-0.1,9.3,0c1.3,0,1.6-0.4,1.5-1.7c-0.3-6.2-4.9-10.7-10.7-10.6c-5.6,0.1-10.4,5.1-10.6,10.9c0,1.2,0.4,1.3,1.4,1.3
			C115.5,23.2,118.5,23.2,121.6,23.2z"/>
		<path d="M148.2,38.4c-2,0-4-0.2-5.8-1c-3.1-1.3-5.2-4.8-4.9-8c0-0.4,0-0.8,0.5-0.8c0.5-0.1,0.5,0.3,0.6,0.7
			c2,7.1,6.5,9.7,13.7,7.6c3-0.9,4.8-2.9,4.9-5.5c0.1-2.8-1.3-4.7-4.5-5.7c-3.2-1-6.5-1.8-9.8-2.7c-2.7-0.8-4.2-2.5-4.4-5.4
			c-0.1-2.9,1.1-5,3.7-6.2c3.9-1.8,7.9-1.7,11.7,0.2c2.5,1.2,3.5,3.5,3.6,6.1c0,0.4,0.2,1-0.4,1.1c-0.6,0.1-0.6-0.5-0.7-0.9
			c-1.7-6.1-8.6-8.8-14.1-5.4c-1.9,1.2-2.8,2.9-2.6,5.2c0.2,2.3,1.6,3.5,3.6,4.3c3.5,1.3,7.3,1.8,10.8,3.2c2.6,1.1,4.3,2.8,4.3,5.8
			c0,3-1.4,5.2-4.1,6.5C152.3,38.1,150.3,38.4,148.2,38.4z"/>
		<path d="M173.9,38.4c-2,0-4-0.2-5.8-1c-3.1-1.3-5.2-4.6-5-7.9c0-0.4-0.1-1,0.6-0.9c0.5,0,0.4,0.5,0.5,0.8
			c1.7,7.2,8.8,10.3,15.4,6.7c2.1-1.2,3.3-2.9,3.2-5.4c-0.1-2.4-1.5-3.8-3.4-4.7c-2-1-4.2-1.2-6.3-1.8c-1.6-0.5-3.3-0.9-4.9-1.4
			c-2.2-0.7-3.6-2.2-4-4.6c-0.4-2.5,0.3-4.7,2.4-6.3c3.4-2.7,10.6-2.6,13.9,0.1c1.8,1.4,2.5,3.4,2.6,5.6c0,0.4,0.1,1-0.5,1
			c-0.4,0-0.5-0.5-0.6-0.8c-1.9-6.1-7.3-8.6-13.2-6c-2.4,1-3.6,3-3.5,5.3c0.1,2.5,1.2,3.7,3.9,4.7c3.5,1.2,7.1,1.7,10.6,3.1
			c2.6,1.1,4.1,2.8,4.2,5.6c0.1,2.9-1.3,5.1-3.8,6.4C178.2,38.1,176.1,38.4,173.9,38.4z"/>
		<path d="M43.3,10.2c3.2,4.2,6.3,8.4,9.6,12.6c3.3-4.3,6.5-8.4,9.7-12.6c0.3,0.2,0.5,0.4,0.8,0.6c-2,2.6-3.9,5.2-5.9,7.8
			c-1.2,1.7-3.6,3.3-3.5,5.1c0.1,1.7,2.2,3.3,3.5,4.9c2.3,3,4.5,5.9,6.9,8.9c-1.3,0.6-1.6-0.3-2.1-0.9c-2.7-3.4-5.4-6.8-7.9-10.3
			c-1.1-1.5-1.6-1.8-2.9-0.1c-2.5,3.5-5.2,6.9-7.9,10.3c-0.5,0.6-0.8,1.5-2.1,1c3.2-4.1,6.3-8.2,9.5-12.2c1-1.3,1.1-2.1,0-3.4
			c-2.9-3.7-5.7-7.5-8.5-11.2C42.8,10.6,43.1,10.4,43.3,10.2z"/>
		<path d="M97.8,16.2c1.9-4,5.1-6,9.4-6.2c0.5,0,1.4-0.4,1.4,0.5c0,0.6-0.8,0.5-1.3,0.5c-4.8,0-9.1,3.6-9.4,10.7
			c-0.2,4.8,0,9.7-0.1,14.5c0,0.5,0.4,1.4-0.5,1.4c-0.9,0-0.6-0.9-0.6-1.4c0-8.1,0-16.2,0-24.2c0-0.6-0.3-1.6,0.7-1.5
			c0.7,0.1,0.4,1,0.4,1.5C97.9,13.5,97.8,14.8,97.8,16.2z"/>
	</g>
</g>
</svg>
